M48
; DRILL file KiCad 10.0.4 date 2026-07-13T21:39:38
; FORMAT={-:-/ absolute / inch / decimal}
; #@! TF.CreationDate,2026-07-13T21:39:38-07:00
; #@! TF.GenerationSoftware,Kicad,Pcbnew,10.0.4
; #@! TF.FileFunction,Plated,1,2,PTH
FMAT,2
INCH
; #@! TA.AperFunction,Plated,PTH,ViaDrill
T1C0.0118
; #@! TA.AperFunction,Plated,PTH,ComponentDrill
T2C0.0118
; #@! TA.AperFunction,Plated,PTH,ViaDrill
T3C0.0157
; #@! TA.AperFunction,Plated,PTH,ViaDrill
T4C0.0200
; #@! TA.AperFunction,Plated,PTH,ComponentDrill
T5C0.0236
; #@! TA.AperFunction,Plated,PTH,ComponentDrill
T6C0.0276
; #@! TA.AperFunction,Plated,PTH,ComponentDrill
T7C0.0394
%
G90
G05
T1
X6.2126Y6.7539
X6.2481Y6.2067
X6.315Y6.5246
X6.3307Y6.4882
X6.3927Y6.6181
X6.4055Y6.9744
X6.4262Y6.8593
X6.4547Y6.4409
X6.4774Y6.8593
X6.4803Y6.3248
X6.5512Y6.9941
X6.5788Y6.2382
X6.5866Y6.5768
X6.7126Y7.0335
X6.7166Y6.8091
X6.7717Y6.9114
X6.7913Y6.3386
X6.8583Y7.0138
X6.8845Y6.1655
X6.9292Y5.8681
X6.9331Y6.8642
X6.9489Y6.2776
X6.9725Y7.1161
X7.0237Y6.9744
X7.063Y5.5768
X7.067Y5.7106
X7.0866Y7.2303
X7.1339Y6.5846
X7.142Y5.997
X7.1496Y5.8012
X7.2126Y5.6083
X7.2441Y7.3327
X7.2559Y5.2854
X7.3071Y5.8012
X7.3662Y5.7106
X7.3662Y5.6161
X7.3662Y5.5335
X7.3701Y7.3524
X7.4095Y7.4783
X7.4174Y5.435
X7.4567Y5.6161
X7.4607Y5.1201
X7.4803Y5.8012
X7.4882Y7.6437
X7.4882Y7.5768
X7.5118Y7.3445
X7.5709Y5.7815
X7.6418Y7.2815
X7.6457Y7.6594
X7.6457Y5.128
X7.663Y5.4291
X7.6696Y5.8143
X7.6733Y7.4587
X7.6851Y5.7264
X7.6929Y6.4665
X7.7244Y5.6752
X7.732Y6.038
X7.7363Y7.187
X7.7599Y5.498
X7.7599Y5.3681
X7.7638Y5.6555
X7.7657Y6.2205
X7.7677Y6.9862
X7.772Y6.0
X7.7746Y6.1211
X7.7792Y6.05
X7.7835Y5.7894
X7.7914Y7.4075
X7.7992Y6.7382
X7.8032Y7.6594
X7.8094Y5.9793
X7.8229Y7.1083
X7.8346Y6.2205
X7.8425Y6.3091
X7.8425Y6.2835
X7.8465Y5.2815
X7.8504Y6.0768
X7.8622Y5.9626
X7.8642Y5.5807
X7.8701Y5.3957
X7.8839Y5.5315
X7.8882Y7.4486
X7.8905Y5.4803
X7.8937Y5.876
X7.9035Y5.9646
X7.9134Y6.6437
X7.9134Y7.0098
X7.9607Y7.6555
X7.9607Y7.561
X7.9724Y6.7028
X7.9922Y5.2894
X7.998Y6.4783
X8.0158Y5.3524
X8.0591Y5.5965
X8.067Y5.1949
X8.0709Y7.2028
X8.0925Y5.9272
X8.1043Y6.2874
X8.1063Y6.2283
X8.1142Y6.9941
X8.1181Y7.6516
X8.1181Y7.561
X8.1181Y5.4154
X8.1201Y6.8504
X8.122Y6.1161
X8.122Y6.0079
X8.126Y5.2933
X8.1641Y6.4799
X8.1686Y5.4291
X8.1713Y7.4114
X8.1842Y5.8712
X8.188Y6.1563
X8.189Y7.313
X8.189Y7.1161
X8.2283Y6.0079
X8.248Y6.4862
X8.2579Y5.8268
X8.2677Y5.3524
X8.2697Y6.3996
X8.2756Y7.2854
X8.314Y6.0079
X8.3858Y6.6339
X8.3937Y5.3839
X8.3957Y5.8937
X8.4114Y5.8031
X8.4232Y6.2441
X8.4232Y6.2224
X8.4252Y6.0611
X8.4449Y6.4902
X8.4567Y7.1831
X8.4607Y7.4114
X8.4774Y5.9961
X8.5175Y6.2382
X8.5197Y6.2185
X8.5335Y6.624
X8.5433Y6.1319
X8.5531Y6.4075
X8.563Y7.4803
X8.563Y5.2933
X8.567Y5.502
X8.5741Y7.0098
X8.5831Y6.0078
X8.5892Y7.4367
X8.5906Y7.6476
X8.5929Y7.5791
X8.6024Y6.3681
X8.6221Y5.1319
X8.6305Y7.4433
X8.6319Y7.4803
X8.6358Y6.1516
X8.6358Y6.124
X8.6359Y5.7622
X8.6516Y6.5157
X8.6615Y7.4257
X8.6949Y7.1827
X8.6969Y6.002
X8.7008Y7.0492
X8.7067Y5.6205
X8.7146Y6.0197
X8.7244Y6.1043
X8.7382Y6.4075
X8.7402Y7.0925
X8.7599Y7.6634
X8.7599Y7.6043
X8.7599Y7.5453
X8.7717Y7.1358
X8.7914Y5.1398
X8.7992Y5.7657
X8.8071Y6.8012
X8.8071Y5.4823
X8.8091Y6.6535
X8.8111Y6.8957
X8.813Y6.2697
X8.8253Y6.5754
X8.8346Y6.1969
X8.8701Y7.1122
X8.8977Y5.8602
X8.9173Y6.128
X8.9252Y6.8366
X8.9292Y6.4705
X8.9331Y6.7776
X8.9331Y5.5217
X8.9567Y6.9547
X9.0355Y5.6122
X9.0394Y6.7106
X9.0473Y7.2224
X9.0473Y6.1594
X9.0512Y5.8248
X9.063Y7.0138
T2
X8.3415Y6.0305
X8.3415Y5.9764
X8.3415Y5.9223
X8.3957Y6.0305
X8.3957Y5.9764
X8.3957Y5.9223
X8.4498Y6.0305
X8.4498Y5.9764
X8.4498Y5.9223
T3
X6.4351Y6.6673
X6.6536Y6.0571
X8.1772Y5.248
T4
X6.252Y6.9114
X6.3071Y6.0413
X6.3268Y7.1043
X6.3819Y5.872
X6.4528Y7.2657
X6.5788Y5.8287
X6.6733Y7.1909
X6.7992Y5.8169
X6.8465Y7.1594
X6.9489Y5.6594
X6.9882Y7.2224
X7.0079Y5.4429
X7.0906Y7.3287
X7.1103Y5.3327
X7.126Y7.4429
X7.1811Y7.5413
X7.3937Y5.2421
X7.815Y5.1161
X8.0394Y5.1161
X8.2756Y5.1161
X8.5433Y5.1161
X8.8426Y7.5335
X8.8898Y5.2264
X9.0158Y7.5335
X9.0315Y5.4311
X9.1024Y6.5295
X9.1063Y5.9626
T6
X7.1627Y6.4675
X7.1977Y6.0463
X7.2327Y6.4675
X7.2677Y6.0463
X7.3027Y6.4675
X7.3377Y6.0463
X7.3727Y6.4675
X7.4077Y6.0463
X7.4427Y6.4675
X7.4777Y6.0463
X7.5127Y6.4675
X7.5477Y6.0463
X7.5827Y6.4675
X7.6177Y6.0463
X7.6527Y6.4675
X7.6877Y6.0463
T7
X7.252Y7.6083
X7.4095Y7.6083
X7.567Y7.6083
X7.7244Y7.6083
X7.8819Y7.6083
X8.0394Y7.6083
X8.1969Y7.6083
X8.3544Y7.6083
X8.5118Y7.6083
X8.6693Y7.6083
T5
G00X6.1504Y6.6116
M15
G01X6.1207Y6.601
M16
G05
G00X6.2645Y6.2911
M15
G01X6.2348Y6.2806
M16
G05
G00X6.3109Y6.6688
M15
G01X6.2702Y6.6543
M16
G05
G00X6.4251Y6.3483
M15
G01X6.3843Y6.3338
M16
G05
M30
