%TF.GenerationSoftware,KiCad,Pcbnew,10.0.3*%
%TF.CreationDate,2026-06-09T16:03:22-07:00*%
%TF.ProjectId,Base,42617365-2e6b-4696-9361-645f70636258,rev?*%
%TF.SameCoordinates,Original*%
%TF.FileFunction,Legend,Bot*%
%TF.FilePolarity,Positive*%
%FSLAX46Y46*%
G04 Gerber Fmt 4.6, Leading zero omitted, Abs format (unit mm)*
G04 Created by KiCad (PCBNEW 10.0.3) date 2026-06-09 16:03:22*
%MOMM*%
%LPD*%
G01*
G04 APERTURE LIST*
G04 Aperture macros list*
%AMRoundRect*
0 Rectangle with rounded corners*
0 $1 Rounding radius*
0 $2 $3 $4 $5 $6 $7 $8 $9 X,Y pos of 4 corners*
0 Add a 4 corners polygon primitive as box body*
4,1,4,$2,$3,$4,$5,$6,$7,$8,$9,$2,$3,0*
0 Add four circle primitives for the rounded corners*
1,1,$1+$1,$2,$3*
1,1,$1+$1,$4,$5*
1,1,$1+$1,$6,$7*
1,1,$1+$1,$8,$9*
0 Add four rect primitives between the rounded corners*
20,1,$1+$1,$2,$3,$4,$5,0*
20,1,$1+$1,$4,$5,$6,$7,0*
20,1,$1+$1,$6,$7,$8,$9,0*
20,1,$1+$1,$8,$9,$2,$3,0*%
%AMHorizOval*
0 Thick line with rounded ends*
0 $1 width*
0 $2 $3 position (X,Y) of the first rounded end (center of the circle)*
0 $4 $5 position (X,Y) of the second rounded end (center of the circle)*
0 Add line between two ends*
20,1,$1,$2,$3,$4,$5,0*
0 Add two circle primitives to create the rounded ends*
1,1,$1,$2,$3*
1,1,$1,$4,$5*%
G04 Aperture macros list end*
%ADD10C,0.200000*%
%ADD11C,0.158750*%
%ADD12C,0.254000*%
%ADD13C,0.250000*%
%ADD14C,1.400000*%
%ADD15C,0.600000*%
%ADD16HorizOval,0.900000X-0.518135X-0.184489X0.518135X0.184489X0*%
%ADD17HorizOval,0.900000X-0.376825X-0.134174X0.376825X0.134174X0*%
%ADD18RoundRect,0.500000X-0.500000X-0.500000X0.500000X-0.500000X0.500000X0.500000X-0.500000X0.500000X0*%
%ADD19C,0.001000*%
%ADD20RoundRect,0.101600X0.000000X-0.718420X0.718420X0.000000X0.000000X0.718420X-0.718420X0.000000X0*%
%ADD21R,1.778000X1.778000*%
%ADD22C,1.778000*%
%ADD23C,2.540000*%
%ADD24R,0.001000X0.001000*%
%ADD25O,1.200000X1.400000*%
G04 APERTURE END LIST*
D10*
G36*
X173191360Y157244819D02*
G01*
X173191360Y158044519D01*
X173090537Y158044519D01*
X173090537Y157334408D01*
X172741123Y157334408D01*
X172741123Y157244819D01*
X173191360Y157244819D01*
G37*
G36*
X172568199Y158070263D02*
G01*
X172547157Y158066504D01*
X172528485Y158055120D01*
X172515852Y158036764D01*
X172511095Y158007541D01*
X172515786Y157979194D01*
X172528485Y157960500D01*
X172547196Y157948696D01*
X172568199Y157944819D01*
X172591089Y157948811D01*
X172609672Y157960500D01*
X172621921Y157979138D01*
X172626475Y158007541D01*
X172621856Y158036823D01*
X172609672Y158055120D01*
X172591131Y158066392D01*
X172568199Y158070263D01*
G37*
G36*
X172520034Y157845120D02*
G01*
X172520034Y157244819D01*
X172618611Y157244819D01*
X172618611Y157845120D01*
X172520034Y157845120D01*
G37*
G36*
X172089434Y157233633D02*
G01*
X172141613Y157237408D01*
X172188553Y157248338D01*
X172231095Y157266117D01*
X172269115Y157291399D01*
X172301467Y157324639D01*
X172328548Y157366892D01*
X172347286Y157413784D01*
X172359427Y157471292D01*
X172363817Y157541623D01*
X172359189Y157614934D01*
X172346451Y157674200D01*
X172326887Y157721923D01*
X172298695Y157764894D01*
X172265411Y157798509D01*
X172226650Y157823870D01*
X172183374Y157841647D01*
X172135666Y157852579D01*
X172082693Y157856355D01*
X172037342Y157853944D01*
X171994228Y157846829D01*
X171953856Y157835757D01*
X171924766Y157823870D01*
X171955003Y157742098D01*
X172017773Y157761100D01*
X172053165Y157767933D01*
X172084940Y157770088D01*
X172132207Y157765381D01*
X172170190Y157752256D01*
X172200907Y157731338D01*
X172225608Y157702054D01*
X172244607Y157662715D01*
X172257232Y157610716D01*
X172261919Y157542747D01*
X172258729Y157487431D01*
X172249936Y157442378D01*
X172236445Y157405861D01*
X172218785Y157376418D01*
X172195110Y157351595D01*
X172166588Y157333801D01*
X172132233Y157322681D01*
X172090558Y157318727D01*
X172042867Y157321402D01*
X172003754Y157328790D01*
X171967266Y157340196D01*
X171934877Y157353459D01*
X171934877Y157266117D01*
X171966277Y157252393D01*
X172001507Y157242035D01*
X172039817Y157235917D01*
X172089434Y157233633D01*
G37*
G36*
X171613327Y157851935D02*
G01*
X171659460Y157839151D01*
X171700893Y157818253D01*
X171737408Y157789681D01*
X171768305Y157753793D01*
X171793852Y157709614D01*
X171811633Y157661497D01*
X171822891Y157605584D01*
X171826873Y157540500D01*
X171822464Y157474831D01*
X171810052Y157419181D01*
X171790481Y157371923D01*
X171762632Y157329361D01*
X171728834Y157295112D01*
X171688583Y157268316D01*
X171643696Y157249366D01*
X171593798Y157237682D01*
X171537934Y157233633D01*
X171478412Y157236206D01*
X171431493Y157243159D01*
X171386929Y157255143D01*
X171340781Y157272810D01*
X171340781Y157359076D01*
X171387808Y157341054D01*
X171432079Y157328253D01*
X171478010Y157320428D01*
X171533440Y157317604D01*
X171577773Y157321276D01*
X171614976Y157331631D01*
X171646363Y157348118D01*
X171672903Y157370800D01*
X171693750Y157398591D01*
X171709662Y157432785D01*
X171720335Y157474691D01*
X171724975Y157525943D01*
X171313914Y157525943D01*
X171313914Y157585294D01*
X171315160Y157604345D01*
X171416936Y157604345D01*
X171722728Y157604345D01*
X171713144Y157656590D01*
X171696666Y157697877D01*
X171673977Y157730325D01*
X171644048Y157755163D01*
X171607562Y157770339D01*
X171562554Y157775706D01*
X171525529Y157772344D01*
X171495821Y157763011D01*
X171471918Y157748306D01*
X171452791Y157728078D01*
X171434009Y157694712D01*
X171421818Y157654044D01*
X171416936Y157604345D01*
X171315160Y157604345D01*
X171317437Y157639154D01*
X171327503Y157686420D01*
X171343614Y157728078D01*
X171366518Y157766101D01*
X171394756Y157797422D01*
X171428709Y157822747D01*
X171466985Y157841017D01*
X171510838Y157852376D01*
X171561430Y157856355D01*
X171613327Y157851935D01*
G37*
G36*
X170872812Y157856355D02*
G01*
X170818659Y157852565D01*
X170774723Y157842087D01*
X170739142Y157825859D01*
X170710439Y157804233D01*
X170687984Y157776710D01*
X170670893Y157740883D01*
X170659662Y157694735D01*
X170655533Y157635706D01*
X170655533Y157244819D01*
X170752937Y157244819D01*
X170752937Y157628965D01*
X170757338Y157676522D01*
X170769188Y157711974D01*
X170787346Y157738186D01*
X170811974Y157757018D01*
X170844497Y157769048D01*
X170887369Y157773459D01*
X170937282Y157769266D01*
X170975236Y157757929D01*
X171003889Y157740608D01*
X171025122Y157717429D01*
X171044986Y157678178D01*
X171058232Y157625656D01*
X171063175Y157556180D01*
X171063175Y157244819D01*
X171161751Y157244819D01*
X171161751Y157845120D01*
X171082226Y157845120D01*
X171067669Y157763396D01*
X171062100Y157763396D01*
X171040173Y157792086D01*
X171013479Y157815284D01*
X170981451Y157833396D01*
X170928603Y157850598D01*
X170872812Y157856355D01*
G37*
G36*
X170079169Y157410563D02*
G01*
X170083522Y157368196D01*
X170095859Y157332956D01*
X170115840Y157303340D01*
X170144138Y157278427D01*
X170177221Y157259814D01*
X170216579Y157245813D01*
X170263349Y157236839D01*
X170318869Y157233633D01*
X170379393Y157236353D01*
X170426971Y157243696D01*
X170470530Y157256033D01*
X170507034Y157271686D01*
X170507034Y157361323D01*
X170469019Y157344710D01*
X170420230Y157328253D01*
X170368797Y157316924D01*
X170316622Y157313159D01*
X170266767Y157316456D01*
X170231804Y157324985D01*
X170207983Y157337241D01*
X170189116Y157355357D01*
X170178140Y157376464D01*
X170174375Y157401623D01*
X170177486Y157422953D01*
X170186734Y157441923D01*
X170202434Y157458610D01*
X170230942Y157477778D01*
X170266601Y157495433D01*
X170322240Y157518078D01*
X170378095Y157541306D01*
X170421939Y157562873D01*
X170459416Y157588209D01*
X170485785Y157616655D01*
X170497828Y157638601D01*
X170505439Y157665121D01*
X170508157Y157697304D01*
X170504120Y157733870D01*
X170492541Y157764932D01*
X170473478Y157791706D01*
X170446022Y157814882D01*
X170402669Y157837025D01*
X170349137Y157851228D01*
X170283014Y157856355D01*
X170229221Y157853613D01*
X170180579Y157845706D01*
X170134127Y157832835D01*
X170091479Y157816006D01*
X170125087Y157737604D01*
X170204661Y157764471D01*
X170246558Y157772885D01*
X170289755Y157775706D01*
X170329848Y157773126D01*
X170359934Y157766254D01*
X170382177Y157756069D01*
X170400319Y157740973D01*
X170410599Y157723555D01*
X170414075Y157702921D01*
X170410357Y157679848D01*
X170399518Y157660863D01*
X170381703Y157644938D01*
X170350816Y157627255D01*
X170259518Y157588665D01*
X170204792Y157566281D01*
X170162065Y157544945D01*
X170125812Y157519555D01*
X170100467Y157490626D01*
X170088972Y157468430D01*
X170081738Y157442057D01*
X170079169Y157410563D01*
G37*
G36*
X169753955Y157851935D02*
G01*
X169800088Y157839151D01*
X169841521Y157818253D01*
X169878036Y157789681D01*
X169908933Y157753793D01*
X169934480Y157709614D01*
X169952261Y157661497D01*
X169963519Y157605584D01*
X169967501Y157540500D01*
X169963092Y157474831D01*
X169950680Y157419181D01*
X169931109Y157371923D01*
X169903261Y157329361D01*
X169869462Y157295112D01*
X169829211Y157268316D01*
X169784325Y157249366D01*
X169734426Y157237682D01*
X169678562Y157233633D01*
X169619040Y157236206D01*
X169572121Y157243159D01*
X169527557Y157255143D01*
X169481409Y157272810D01*
X169481409Y157359076D01*
X169528436Y157341054D01*
X169572707Y157328253D01*
X169618638Y157320428D01*
X169674068Y157317604D01*
X169718401Y157321276D01*
X169755604Y157331631D01*
X169786991Y157348118D01*
X169813531Y157370800D01*
X169834378Y157398591D01*
X169850290Y157432785D01*
X169860963Y157474691D01*
X169865603Y157525943D01*
X169454542Y157525943D01*
X169454542Y157585294D01*
X169455788Y157604345D01*
X169557564Y157604345D01*
X169863356Y157604345D01*
X169853772Y157656590D01*
X169837294Y157697877D01*
X169814605Y157730325D01*
X169784676Y157755163D01*
X169748190Y157770339D01*
X169703182Y157775706D01*
X169666157Y157772344D01*
X169636449Y157763011D01*
X169612546Y157748306D01*
X169593419Y157728078D01*
X169574637Y157694712D01*
X169562446Y157654044D01*
X169557564Y157604345D01*
X169455788Y157604345D01*
X169458065Y157639154D01*
X169468132Y157686420D01*
X169484242Y157728078D01*
X169507146Y157766101D01*
X169535384Y157797422D01*
X169569337Y157822747D01*
X169607613Y157841017D01*
X169651466Y157852376D01*
X169702058Y157856355D01*
X169753955Y157851935D01*
G37*
G36*
X168902554Y157856355D02*
G01*
X168899769Y157810974D01*
X168895812Y157767841D01*
X168902554Y157767841D01*
X168934173Y157801630D01*
X168974801Y157830563D01*
X169005339Y157844314D01*
X169042729Y157853164D01*
X169088471Y157856355D01*
X169143029Y157851156D01*
X169190284Y157836224D01*
X169231693Y157811848D01*
X169268234Y157777367D01*
X169296086Y157736555D01*
X169317230Y157685578D01*
X169330990Y157622241D01*
X169335987Y157543870D01*
X169331011Y157465413D01*
X169317335Y157402276D01*
X169296371Y157351707D01*
X169268820Y157311449D01*
X169232609Y157277551D01*
X169191411Y157253527D01*
X169144230Y157238777D01*
X169089595Y157233633D01*
X169043156Y157236953D01*
X169005210Y157246165D01*
X168974214Y157260500D01*
X168933401Y157290631D01*
X168902554Y157325468D01*
X168898060Y157325468D01*
X168883503Y157244819D01*
X168803977Y157244819D01*
X168803977Y157542747D01*
X168901430Y157542747D01*
X168901430Y157524819D01*
X168906527Y157455361D01*
X168920031Y157404327D01*
X168940069Y157367429D01*
X168961269Y157345896D01*
X168989390Y157329772D01*
X169026150Y157319237D01*
X169073914Y157315357D01*
X169113086Y157319369D01*
X169145327Y157330686D01*
X169172108Y157348937D01*
X169194326Y157374708D01*
X169215195Y157416260D01*
X169228984Y157470754D01*
X169234089Y157541623D01*
X169229083Y157611691D01*
X169215373Y157667305D01*
X169194326Y157711274D01*
X169171857Y157739069D01*
X169145124Y157758488D01*
X169113325Y157770392D01*
X169075038Y157774582D01*
X169025426Y157770144D01*
X168987780Y157758122D01*
X168959385Y157739641D01*
X168938408Y157714645D01*
X168919186Y157672951D01*
X168906267Y157616948D01*
X168901430Y157542747D01*
X168803977Y157542747D01*
X168803977Y158096006D01*
X168902554Y158096006D01*
X168902554Y157856355D01*
G37*
G36*
X167821290Y157845120D02*
G01*
X167821290Y157244819D01*
X167901939Y157244819D01*
X167916496Y157324345D01*
X167920990Y157324345D01*
X167942928Y157295746D01*
X167969616Y157272935D01*
X168001639Y157255468D01*
X168054549Y157239147D01*
X168111402Y157233633D01*
X168166182Y157237434D01*
X168210488Y157247926D01*
X168246234Y157264143D01*
X168274947Y157285706D01*
X168297463Y157313238D01*
X168314534Y157348780D01*
X168325708Y157394235D01*
X168329804Y157452035D01*
X168329804Y157845120D01*
X168230104Y157845120D01*
X168230104Y157458727D01*
X168225740Y157411530D01*
X168213989Y157376351D01*
X168195985Y157350344D01*
X168171571Y157331663D01*
X168139334Y157319731D01*
X168096845Y157315357D01*
X168046912Y157319538D01*
X168008829Y157330857D01*
X167979979Y157348166D01*
X167958506Y157371337D01*
X167938316Y157410665D01*
X167924877Y157463208D01*
X167919867Y157532635D01*
X167919867Y157845120D01*
X167821290Y157845120D01*
G37*
G36*
X167342428Y157856355D02*
G01*
X167288275Y157852565D01*
X167244339Y157842087D01*
X167208758Y157825859D01*
X167180055Y157804233D01*
X167157600Y157776710D01*
X167140509Y157740883D01*
X167129279Y157694735D01*
X167125150Y157635706D01*
X167125150Y157244819D01*
X167222554Y157244819D01*
X167222554Y157628965D01*
X167226955Y157676522D01*
X167238804Y157711974D01*
X167256962Y157738186D01*
X167281590Y157757018D01*
X167314113Y157769048D01*
X167356985Y157773459D01*
X167406898Y157769266D01*
X167444852Y157757929D01*
X167473505Y157740608D01*
X167494738Y157717429D01*
X167514602Y157678178D01*
X167527848Y157625656D01*
X167532791Y157556180D01*
X167532791Y157244819D01*
X167631367Y157244819D01*
X167631367Y157845120D01*
X167551842Y157845120D01*
X167537285Y157763396D01*
X167531716Y157763396D01*
X167509789Y157792086D01*
X167483095Y157815284D01*
X167451067Y157833396D01*
X167398220Y157850598D01*
X167342428Y157856355D01*
G37*
G36*
X166539846Y157856355D02*
G01*
X166537062Y157810974D01*
X166533105Y157767841D01*
X166539846Y157767841D01*
X166571465Y157801630D01*
X166612093Y157830563D01*
X166642632Y157844314D01*
X166680022Y157853164D01*
X166725764Y157856355D01*
X166780322Y157851156D01*
X166827577Y157836224D01*
X166868985Y157811848D01*
X166905526Y157777367D01*
X166933378Y157736555D01*
X166954523Y157685578D01*
X166968282Y157622241D01*
X166973279Y157543870D01*
X166968303Y157465413D01*
X166954628Y157402276D01*
X166933663Y157351707D01*
X166906113Y157311449D01*
X166869901Y157277551D01*
X166828703Y157253527D01*
X166781522Y157238777D01*
X166726887Y157233633D01*
X166680448Y157236953D01*
X166642503Y157246165D01*
X166611507Y157260500D01*
X166570694Y157290631D01*
X166539846Y157325468D01*
X166535352Y157325468D01*
X166520795Y157244819D01*
X166441270Y157244819D01*
X166441270Y157542747D01*
X166538722Y157542747D01*
X166538722Y157524819D01*
X166543820Y157455361D01*
X166557324Y157404327D01*
X166577362Y157367429D01*
X166598561Y157345896D01*
X166626682Y157329772D01*
X166663442Y157319237D01*
X166711207Y157315357D01*
X166750379Y157319369D01*
X166782620Y157330686D01*
X166809400Y157348937D01*
X166831618Y157374708D01*
X166852487Y157416260D01*
X166866276Y157470754D01*
X166871381Y157541623D01*
X166866376Y157611691D01*
X166852665Y157667305D01*
X166831618Y157711274D01*
X166809149Y157739069D01*
X166782417Y157758488D01*
X166750618Y157770392D01*
X166712330Y157774582D01*
X166662719Y157770144D01*
X166625073Y157758122D01*
X166596677Y157739641D01*
X166575701Y157714645D01*
X166556478Y157672951D01*
X166543559Y157616948D01*
X166538722Y157542747D01*
X166441270Y157542747D01*
X166441270Y158096006D01*
X166539846Y158096006D01*
X166539846Y157856355D01*
G37*
G36*
X166071164Y157851935D02*
G01*
X166117297Y157839151D01*
X166158729Y157818253D01*
X166195245Y157789681D01*
X166226142Y157753793D01*
X166251688Y157709614D01*
X166269469Y157661497D01*
X166280728Y157605584D01*
X166284710Y157540500D01*
X166280301Y157474831D01*
X166267889Y157419181D01*
X166248318Y157371923D01*
X166220469Y157329361D01*
X166186671Y157295112D01*
X166146420Y157268316D01*
X166101533Y157249366D01*
X166051635Y157237682D01*
X165995771Y157233633D01*
X165936248Y157236206D01*
X165889330Y157243159D01*
X165844765Y157255143D01*
X165798618Y157272810D01*
X165798618Y157359076D01*
X165845644Y157341054D01*
X165889916Y157328253D01*
X165935847Y157320428D01*
X165991277Y157317604D01*
X166035610Y157321276D01*
X166072812Y157331631D01*
X166104200Y157348118D01*
X166130739Y157370800D01*
X166151587Y157398591D01*
X166167498Y157432785D01*
X166178171Y157474691D01*
X166182812Y157525943D01*
X165771751Y157525943D01*
X165771751Y157585294D01*
X165772997Y157604345D01*
X165874773Y157604345D01*
X166180565Y157604345D01*
X166170981Y157656590D01*
X166154503Y157697877D01*
X166131814Y157730325D01*
X166101885Y157755163D01*
X166065399Y157770339D01*
X166020390Y157775706D01*
X165983366Y157772344D01*
X165953658Y157763011D01*
X165929755Y157748306D01*
X165910628Y157728078D01*
X165891845Y157694712D01*
X165879655Y157654044D01*
X165874773Y157604345D01*
X165772997Y157604345D01*
X165775273Y157639154D01*
X165785340Y157686420D01*
X165801451Y157728078D01*
X165824354Y157766101D01*
X165852593Y157797422D01*
X165886545Y157822747D01*
X165924821Y157841017D01*
X165968674Y157852376D01*
X166019267Y157856355D01*
X166071164Y157851935D01*
G37*
G36*
X165339588Y157856355D02*
G01*
X165303196Y157854645D01*
X165269050Y157849614D01*
X165281360Y157758902D01*
X165313307Y157764471D01*
X165346329Y157766718D01*
X165376233Y157763934D01*
X165404833Y157755612D01*
X165432595Y157741512D01*
X165457418Y157722714D01*
X165478818Y157699377D01*
X165496978Y157670974D01*
X165510058Y157639914D01*
X165518180Y157604878D01*
X165521011Y157565120D01*
X165521011Y157244819D01*
X165619588Y157244819D01*
X165619588Y157845120D01*
X165538939Y157845120D01*
X165527752Y157735357D01*
X165523258Y157735357D01*
X165490023Y157781196D01*
X165448227Y157820500D01*
X165416035Y157840286D01*
X165380160Y157852239D01*
X165339588Y157856355D01*
G37*
G36*
X164666454Y157314282D02*
G01*
X164620537Y157318190D01*
X164582435Y157326592D01*
X164582435Y157251561D01*
X164599958Y157244852D01*
X164627278Y157238665D01*
X164683258Y157233633D01*
X164728964Y157237779D01*
X164770062Y157249851D01*
X164794610Y157263168D01*
X164815982Y157281800D01*
X164834494Y157306418D01*
X164847357Y157334427D01*
X164855928Y157371364D01*
X164859113Y157419551D01*
X164859113Y157768965D01*
X164944207Y157768965D01*
X164944207Y157816006D01*
X164857990Y157855231D01*
X164818764Y157982921D01*
X164760537Y157982921D01*
X164760537Y157845120D01*
X164586929Y157845120D01*
X164586929Y157768965D01*
X164760537Y157768965D01*
X164760537Y157421798D01*
X164757158Y157386127D01*
X164748090Y157359806D01*
X164734207Y157340563D01*
X164715243Y157326112D01*
X164692980Y157317346D01*
X164666454Y157314282D01*
G37*
G36*
X164364277Y157846243D02*
G01*
X164365727Y157802180D01*
X164369895Y157762272D01*
X164363203Y157762272D01*
X164341446Y157790413D01*
X164315278Y157813428D01*
X164284214Y157831686D01*
X164232652Y157849266D01*
X164176161Y157855231D01*
X164120757Y157851412D01*
X164076105Y157840886D01*
X164040226Y157824651D01*
X164011542Y157803110D01*
X163989044Y157775580D01*
X163971956Y157739898D01*
X163960750Y157694104D01*
X163956636Y157635706D01*
X163956636Y157244819D01*
X164054040Y157244819D01*
X164054040Y157628965D01*
X164058441Y157676522D01*
X164070291Y157711974D01*
X164088449Y157738186D01*
X164113076Y157757018D01*
X164145599Y157769048D01*
X164188471Y157773459D01*
X164238977Y157769206D01*
X164277146Y157757737D01*
X164305755Y157740256D01*
X164326762Y157716892D01*
X164346352Y157677316D01*
X164359410Y157624570D01*
X164364277Y157555057D01*
X164364277Y157244819D01*
X164462854Y157244819D01*
X164462854Y158096006D01*
X164364277Y158096006D01*
X164364277Y157846243D01*
G37*
G36*
X163591220Y157851935D02*
G01*
X163637352Y157839151D01*
X163678785Y157818253D01*
X163715301Y157789681D01*
X163746198Y157753793D01*
X163771744Y157709614D01*
X163789525Y157661497D01*
X163800783Y157605584D01*
X163804766Y157540500D01*
X163800357Y157474831D01*
X163787944Y157419181D01*
X163768374Y157371923D01*
X163740525Y157329361D01*
X163706727Y157295112D01*
X163666475Y157268316D01*
X163621589Y157249366D01*
X163571691Y157237682D01*
X163515826Y157233633D01*
X163456304Y157236206D01*
X163409385Y157243159D01*
X163364821Y157255143D01*
X163318674Y157272810D01*
X163318674Y157359076D01*
X163365700Y157341054D01*
X163409972Y157328253D01*
X163455903Y157320428D01*
X163511332Y157317604D01*
X163555666Y157321276D01*
X163592868Y157331631D01*
X163624256Y157348118D01*
X163650795Y157370800D01*
X163671643Y157398591D01*
X163687554Y157432785D01*
X163698227Y157474691D01*
X163702868Y157525943D01*
X163291807Y157525943D01*
X163291807Y157585294D01*
X163293053Y157604345D01*
X163394829Y157604345D01*
X163700621Y157604345D01*
X163691037Y157656590D01*
X163674559Y157697877D01*
X163651870Y157730325D01*
X163621940Y157755163D01*
X163585455Y157770339D01*
X163540446Y157775706D01*
X163503421Y157772344D01*
X163473714Y157763011D01*
X163449811Y157748306D01*
X163430683Y157728078D01*
X163411901Y157694712D01*
X163399711Y157654044D01*
X163394829Y157604345D01*
X163293053Y157604345D01*
X163295329Y157639154D01*
X163305396Y157686420D01*
X163321507Y157728078D01*
X163344410Y157766101D01*
X163372648Y157797422D01*
X163406601Y157822747D01*
X163444877Y157841017D01*
X163488730Y157852376D01*
X163539323Y157856355D01*
X163591220Y157851935D01*
G37*
G36*
X172848639Y156623241D02*
G01*
X172911708Y156617449D01*
X172965400Y156600955D01*
X173011533Y156574302D01*
X173051360Y156536974D01*
X173082410Y156492214D01*
X173105426Y156439050D01*
X173120056Y156375866D01*
X173125268Y156300645D01*
X173120389Y156225767D01*
X173106701Y156162737D01*
X173085224Y156109640D01*
X173056392Y156064902D01*
X173027047Y156034465D01*
X172992621Y156010636D01*
X172952368Y155993092D01*
X172905202Y155982018D01*
X172849762Y155978098D01*
X172797918Y155980386D01*
X172750062Y155987037D01*
X172658227Y156009459D01*
X172658227Y155922117D01*
X172703681Y155907573D01*
X172750648Y155897498D01*
X172800512Y155891765D01*
X172864319Y155889633D01*
X172925665Y155893108D01*
X172979424Y155903006D01*
X173026629Y155918738D01*
X173068164Y155939996D01*
X173106325Y155967716D01*
X173139289Y156000548D01*
X173167416Y156038890D01*
X173190823Y156083367D01*
X173212888Y156146600D01*
X173226778Y156218903D01*
X173231660Y156301769D01*
X173226454Y156381420D01*
X173211503Y156452103D01*
X173187452Y156515139D01*
X173162473Y156559172D01*
X173132566Y156597628D01*
X173097538Y156631014D01*
X173056978Y156659633D01*
X173013124Y156681761D01*
X172964134Y156698018D01*
X172909233Y156708167D01*
X172847515Y156711706D01*
X172764206Y156706129D01*
X172691178Y156690190D01*
X172626866Y156664665D01*
X172667215Y156579522D01*
X172705425Y156595176D01*
X172749525Y156609759D01*
X172796178Y156619762D01*
X172848639Y156623241D01*
G37*
G36*
X172037166Y155900819D02*
G01*
X172484033Y155900819D01*
X172484033Y156700519D01*
X172037166Y156700519D01*
X172037166Y156612006D01*
X172383210Y156612006D01*
X172383210Y156362243D01*
X172057292Y156362243D01*
X172057292Y156274902D01*
X172383210Y156274902D01*
X172383210Y155989284D01*
X172037166Y155989284D01*
X172037166Y155900819D01*
G37*
G36*
X171861898Y155900819D02*
G01*
X171761074Y155900819D01*
X171761074Y156231231D01*
X171602072Y156231231D01*
X171408290Y155900819D01*
X171290711Y155900819D01*
X171510237Y156259221D01*
X171471022Y156276365D01*
X171433496Y156298984D01*
X171400672Y156328136D01*
X171373607Y156366737D01*
X171360992Y156396016D01*
X171352941Y156431085D01*
X171350370Y156468635D01*
X171454207Y156468635D01*
X171459684Y156420615D01*
X171474815Y156383595D01*
X171499002Y156354965D01*
X171531278Y156334966D01*
X171577189Y156321461D01*
X171641249Y156316325D01*
X171761074Y156316325D01*
X171761074Y156613129D01*
X171646866Y156613129D01*
X171581534Y156608687D01*
X171534448Y156597049D01*
X171501249Y156580059D01*
X171481515Y156561762D01*
X171466983Y156538026D01*
X171457623Y156507591D01*
X171454207Y156468635D01*
X171350370Y156468635D01*
X171350062Y156473129D01*
X171355043Y156529562D01*
X171368948Y156575563D01*
X171390937Y156613209D01*
X171421186Y156643953D01*
X171457548Y156666750D01*
X171504603Y156684454D01*
X171564848Y156696196D01*
X171641249Y156700519D01*
X171861898Y156700519D01*
X171861898Y155900819D01*
G37*
G36*
X170531605Y155900819D02*
G01*
X170649183Y155900819D01*
X171077048Y156564965D01*
X171081493Y156564965D01*
X171075924Y156467512D01*
X171072554Y156347686D01*
X171072554Y155900819D01*
X171165512Y155900819D01*
X171165512Y156700519D01*
X171049009Y156700519D01*
X170622316Y156038572D01*
X170617822Y156038572D01*
X170620655Y156092306D01*
X170624026Y156170708D01*
X170625687Y156249159D01*
X170625687Y156700519D01*
X170531605Y156700519D01*
X170531605Y155900819D01*
G37*
G36*
X170378220Y156157323D02*
G01*
X170378220Y156244665D01*
X170107159Y156244665D01*
X170107159Y156157323D01*
X170378220Y156157323D01*
G37*
G36*
X169686769Y156709252D02*
G01*
X169741714Y156699089D01*
X169789620Y156682988D01*
X169831458Y156661294D01*
X169869969Y156633023D01*
X169903019Y156599971D01*
X169931001Y156561791D01*
X169954068Y156517923D01*
X169975861Y156455461D01*
X169989559Y156384261D01*
X169994368Y156302892D01*
X169989562Y156220765D01*
X169975864Y156148811D01*
X169954068Y156085614D01*
X169930950Y156041167D01*
X169902941Y156002629D01*
X169869903Y155969404D01*
X169831458Y155941120D01*
X169789604Y155919412D01*
X169741856Y155903329D01*
X169687278Y155893195D01*
X169624780Y155889633D01*
X169564107Y155893166D01*
X169510739Y155903250D01*
X169463675Y155919325D01*
X169422058Y155941120D01*
X169383797Y155969322D01*
X169350612Y156002431D01*
X169322162Y156040811D01*
X169298325Y156085027D01*
X169275594Y156147970D01*
X169261323Y156219724D01*
X169256315Y156301769D01*
X169362707Y156301769D01*
X169367225Y156225250D01*
X169379829Y156161360D01*
X169399429Y156108098D01*
X169425429Y156063778D01*
X169452445Y156033457D01*
X169484881Y156009688D01*
X169523548Y155992115D01*
X169569665Y155980953D01*
X169624780Y155976974D01*
X169679344Y155980927D01*
X169725251Y155992042D01*
X169763974Y156009588D01*
X169796676Y156033378D01*
X169824131Y156063778D01*
X169850630Y156108169D01*
X169870574Y156161457D01*
X169883386Y156225323D01*
X169887976Y156301769D01*
X169883334Y156378253D01*
X169870399Y156441900D01*
X169850290Y156494782D01*
X169823593Y156538635D01*
X169795997Y156568599D01*
X169763165Y156592084D01*
X169724318Y156609422D01*
X169678300Y156620409D01*
X169623656Y156624316D01*
X169568984Y156620390D01*
X169523173Y156609373D01*
X169484709Y156592023D01*
X169452396Y156568557D01*
X169425429Y156538635D01*
X169399472Y156494888D01*
X169379872Y156442046D01*
X169367243Y156378362D01*
X169362707Y156301769D01*
X169256315Y156301769D01*
X169261324Y156383813D01*
X169275596Y156455550D01*
X169298325Y156518461D01*
X169322183Y156562694D01*
X169350640Y156600979D01*
X169383818Y156633900D01*
X169422058Y156661831D01*
X169463666Y156683443D01*
X169510563Y156699365D01*
X169563573Y156709340D01*
X169623656Y156712829D01*
X169686769Y156709252D01*
G37*
G36*
X168467948Y155900819D02*
G01*
X168568771Y155900819D01*
X168568771Y156273778D01*
X168978660Y156273778D01*
X168978660Y155900819D01*
X169079483Y155900819D01*
X169079483Y156700519D01*
X168978660Y156700519D01*
X168978660Y156362243D01*
X168568771Y156362243D01*
X168568771Y156700519D01*
X168467948Y156700519D01*
X168467948Y155900819D01*
G37*
G36*
X168250230Y155900819D02*
G01*
X168250230Y156700519D01*
X168149406Y156700519D01*
X168149406Y155990408D01*
X167799993Y155990408D01*
X167799993Y155900819D01*
X168250230Y155900819D01*
G37*
G36*
X167727892Y156157323D02*
G01*
X167727892Y156244665D01*
X167456831Y156244665D01*
X167456831Y156157323D01*
X167727892Y156157323D01*
G37*
G36*
X166850132Y156114727D02*
G01*
X166855264Y156063016D01*
X166869906Y156019128D01*
X166893715Y155981460D01*
X166927411Y155948984D01*
X166967134Y155924149D01*
X167014151Y155905633D01*
X167069811Y155893835D01*
X167135750Y155889633D01*
X167201587Y155892245D01*
X167260069Y155899696D01*
X167314429Y155912321D01*
X167355275Y155927686D01*
X167355275Y156024016D01*
X167312230Y156007645D01*
X167255038Y155991531D01*
X167194380Y155980644D01*
X167131256Y155976974D01*
X167072310Y155981506D01*
X167028493Y155993592D01*
X166996336Y156011706D01*
X166971098Y156037633D01*
X166956147Y156068456D01*
X166950956Y156105788D01*
X166955386Y156142773D01*
X166967759Y156171831D01*
X166989121Y156196477D01*
X167025450Y156221706D01*
X167070700Y156243813D01*
X167139120Y156270408D01*
X167205289Y156298825D01*
X167255686Y156329177D01*
X167293091Y156361120D01*
X167315234Y156389427D01*
X167331401Y156422635D01*
X167341565Y156461697D01*
X167345163Y156507861D01*
X167341362Y156549376D01*
X167330449Y156585415D01*
X167312679Y156617037D01*
X167288677Y156644560D01*
X167258907Y156667854D01*
X167222554Y156687037D01*
X167183364Y156700429D01*
X167139376Y156708790D01*
X167089832Y156711706D01*
X167025298Y156708487D01*
X166968883Y156699347D01*
X166915643Y156684802D01*
X166869183Y156666912D01*
X166900544Y156580645D01*
X166943182Y156596961D01*
X166990718Y156610882D01*
X167040123Y156620116D01*
X167092079Y156623241D01*
X167141198Y156619122D01*
X167177960Y156608067D01*
X167205212Y156591294D01*
X167226301Y156567801D01*
X167238888Y156540068D01*
X167243265Y156506737D01*
X167238804Y156468762D01*
X167226461Y156439522D01*
X167205471Y156415045D01*
X167171605Y156391357D01*
X167129796Y156370601D01*
X167068534Y156345439D01*
X167001293Y156317697D01*
X166949295Y156289996D01*
X166918620Y156268263D01*
X166894213Y156244586D01*
X166875338Y156218873D01*
X166861798Y156190211D01*
X166853200Y156155902D01*
X166850132Y156114727D01*
G37*
G36*
X166279972Y155900819D02*
G01*
X166507313Y156501120D01*
X166402044Y156501120D01*
X166274354Y156147212D01*
X166255352Y156092355D01*
X166237424Y156034665D01*
X166226189Y155988161D01*
X166221695Y155988161D01*
X166208848Y156035202D01*
X166189797Y156093478D01*
X166171332Y156147212D01*
X166043642Y156501120D01*
X165938374Y156501120D01*
X166166838Y155900819D01*
X166279972Y155900819D01*
G37*
G36*
X165356685Y155900819D02*
G01*
X165885324Y155900819D01*
X165885324Y155982592D01*
X165675910Y156194253D01*
X165574012Y156301769D01*
X165536686Y156349727D01*
X165511290Y156394141D01*
X165495409Y156441195D01*
X165489993Y156493304D01*
X165494790Y156535625D01*
X165508045Y156568275D01*
X165529218Y156593541D01*
X165557096Y156612093D01*
X165590567Y156623606D01*
X165631116Y156627686D01*
X165687005Y156622412D01*
X165733600Y156607512D01*
X165777181Y156584107D01*
X165823726Y156551531D01*
X165876385Y156617623D01*
X165826437Y156653507D01*
X165768332Y156684253D01*
X165726810Y156699264D01*
X165681293Y156708514D01*
X165631116Y156711706D01*
X165575098Y156707740D01*
X165527862Y156696583D01*
X165487933Y156678977D01*
X165454138Y156655139D01*
X165426126Y156624730D01*
X165406040Y156589294D01*
X165393562Y156547835D01*
X165389169Y156498921D01*
X165392076Y156457689D01*
X165400675Y156418625D01*
X165414961Y156381294D01*
X165445080Y156327850D01*
X165486622Y156273192D01*
X165535034Y156219685D01*
X165594138Y156159522D01*
X165761004Y155994902D01*
X165761004Y155990408D01*
X165356685Y155990408D01*
X165356685Y155900819D01*
G37*
G36*
X172848639Y155279241D02*
G01*
X172911708Y155273449D01*
X172965400Y155256955D01*
X173011533Y155230302D01*
X173051360Y155192974D01*
X173082410Y155148214D01*
X173105426Y155095050D01*
X173120056Y155031866D01*
X173125268Y154956645D01*
X173120389Y154881767D01*
X173106701Y154818737D01*
X173085224Y154765640D01*
X173056392Y154720902D01*
X173027047Y154690465D01*
X172992621Y154666636D01*
X172952368Y154649092D01*
X172905202Y154638018D01*
X172849762Y154634098D01*
X172797918Y154636386D01*
X172750062Y154643037D01*
X172658227Y154665459D01*
X172658227Y154578117D01*
X172703681Y154563573D01*
X172750648Y154553498D01*
X172800512Y154547765D01*
X172864319Y154545633D01*
X172925665Y154549108D01*
X172979424Y154559006D01*
X173026629Y154574738D01*
X173068164Y154595996D01*
X173106325Y154623716D01*
X173139289Y154656548D01*
X173167416Y154694890D01*
X173190823Y154739367D01*
X173212888Y154802600D01*
X173226778Y154874903D01*
X173231660Y154957769D01*
X173226454Y155037420D01*
X173211503Y155108103D01*
X173187452Y155171139D01*
X173162473Y155215172D01*
X173132566Y155253628D01*
X173097538Y155287014D01*
X173056978Y155315633D01*
X173013124Y155337761D01*
X172964134Y155354018D01*
X172909233Y155364167D01*
X172847515Y155367706D01*
X172764206Y155362129D01*
X172691178Y155346190D01*
X172626866Y155320665D01*
X172667215Y155235522D01*
X172705425Y155251176D01*
X172749525Y155265759D01*
X172796178Y155275762D01*
X172848639Y155279241D01*
G37*
G36*
X172315614Y155162890D02*
G01*
X172369646Y155147359D01*
X172416037Y155122391D01*
X172456043Y155087706D01*
X172487456Y155045537D01*
X172510803Y154994497D01*
X172525725Y154932786D01*
X172531074Y154858117D01*
X172526751Y154792419D01*
X172514549Y154736361D01*
X172495268Y154688418D01*
X172467922Y154644798D01*
X172435366Y154609651D01*
X172397278Y154582025D01*
X172354517Y154562031D01*
X172307585Y154549831D01*
X172255568Y154545633D01*
X172192228Y154551150D01*
X172138119Y154566852D01*
X172091516Y154592144D01*
X172051186Y154627357D01*
X172019467Y154670101D01*
X171995940Y154721564D01*
X171980936Y154783496D01*
X171975568Y154858117D01*
X172077466Y154858117D01*
X172082818Y154788221D01*
X172097479Y154732994D01*
X172120062Y154689492D01*
X172143745Y154662824D01*
X172172979Y154643684D01*
X172208910Y154631661D01*
X172253321Y154627357D01*
X172298349Y154631690D01*
X172334530Y154643756D01*
X172363732Y154662898D01*
X172387166Y154689492D01*
X172409423Y154732950D01*
X172423891Y154788177D01*
X172429176Y154858117D01*
X172423922Y154928075D01*
X172409620Y154982644D01*
X172387752Y155024984D01*
X172364676Y155050759D01*
X172335713Y155069403D01*
X172299606Y155081207D01*
X172254445Y155085459D01*
X172209295Y155081224D01*
X172172973Y155069441D01*
X172143635Y155050791D01*
X172120062Y155024984D01*
X172097541Y154982555D01*
X172082854Y154927985D01*
X172077466Y154858117D01*
X171975568Y154858117D01*
X171979849Y154923819D01*
X171991890Y154979457D01*
X172010837Y155026645D01*
X172037776Y155069523D01*
X172070139Y155104322D01*
X172108290Y155131914D01*
X172151051Y155151859D01*
X172198681Y155164112D01*
X172252198Y155168355D01*
X172315614Y155162890D01*
G37*
G36*
X171582989Y155164970D02*
G01*
X171621198Y155155691D01*
X171651507Y155141439D01*
X171691305Y155111186D01*
X171722044Y155075396D01*
X171726538Y155075396D01*
X171739972Y155157120D01*
X171820621Y155157120D01*
X171820621Y154288006D01*
X171722044Y154288006D01*
X171722044Y154534398D01*
X171724291Y154584810D01*
X171728785Y154632974D01*
X171722044Y154632974D01*
X171692264Y154601086D01*
X171650969Y154571914D01*
X171619651Y154557850D01*
X171581832Y154548857D01*
X171536127Y154545633D01*
X171481625Y154550857D01*
X171434397Y154565867D01*
X171392985Y154590390D01*
X171356413Y154625110D01*
X171328481Y154666216D01*
X171307323Y154717266D01*
X171293588Y154780374D01*
X171288611Y154858117D01*
X171288683Y154859241D01*
X171390558Y154859241D01*
X171395132Y154794276D01*
X171407948Y154739953D01*
X171421976Y154706750D01*
X171439527Y154679580D01*
X171460558Y154657594D01*
X171485589Y154641115D01*
X171515226Y154630942D01*
X171550683Y154627357D01*
X171599677Y154631785D01*
X171636861Y154643787D01*
X171664920Y154662260D01*
X171685652Y154687294D01*
X171704588Y154728962D01*
X171717295Y154784653D01*
X171722044Y154858117D01*
X171722044Y154877120D01*
X171715757Y154946701D01*
X171701924Y154997523D01*
X171682330Y155033923D01*
X171661655Y155055317D01*
X171634377Y155071264D01*
X171598884Y155081644D01*
X171552930Y155085459D01*
X171512732Y155081288D01*
X171479839Y155069543D01*
X171452681Y155050615D01*
X171430321Y155023861D01*
X171409227Y154980976D01*
X171395542Y154926996D01*
X171390558Y154859241D01*
X171288683Y154859241D01*
X171293651Y154937181D01*
X171307477Y155000545D01*
X171328638Y155051065D01*
X171356413Y155091076D01*
X171392855Y155124792D01*
X171434054Y155148651D01*
X171480967Y155163268D01*
X171535003Y155168355D01*
X171582989Y155164970D01*
G37*
G36*
X171248799Y155157120D02*
G01*
X171143531Y155157120D01*
X171013593Y154815522D01*
X170983356Y154729841D01*
X170963182Y154652025D01*
X170958736Y154652025D01*
X170937438Y154725347D01*
X170907201Y154816645D01*
X170785129Y155157120D01*
X170678736Y155157120D01*
X170937438Y154473923D01*
X170961498Y154418916D01*
X170988652Y154374230D01*
X171018674Y154338418D01*
X171045027Y154316944D01*
X171076015Y154301306D01*
X171112547Y154291484D01*
X171155840Y154288006D01*
X171202882Y154290839D01*
X171237613Y154296994D01*
X171237613Y154375396D01*
X171207962Y154370902D01*
X171171521Y154368655D01*
X171138285Y154372123D01*
X171110891Y154381922D01*
X171088087Y154397769D01*
X171060198Y154430811D01*
X171038262Y154475047D01*
X171006901Y154554572D01*
X171248799Y155157120D01*
G37*
G36*
X170304166Y155168355D02*
G01*
X170267773Y155166645D01*
X170233628Y155161614D01*
X170245938Y155070902D01*
X170277885Y155076471D01*
X170310907Y155078718D01*
X170340811Y155075934D01*
X170369411Y155067612D01*
X170397173Y155053512D01*
X170421996Y155034714D01*
X170443396Y155011377D01*
X170461556Y154982974D01*
X170474636Y154951914D01*
X170482758Y154916878D01*
X170485589Y154877120D01*
X170485589Y154556819D01*
X170584166Y154556819D01*
X170584166Y155157120D01*
X170503517Y155157120D01*
X170492330Y155047357D01*
X170487836Y155047357D01*
X170454601Y155093196D01*
X170412805Y155132500D01*
X170380613Y155152286D01*
X170344738Y155164239D01*
X170304166Y155168355D01*
G37*
G36*
X170071842Y155382263D02*
G01*
X170050799Y155378504D01*
X170032128Y155367120D01*
X170019495Y155348764D01*
X170014738Y155319541D01*
X170019429Y155291194D01*
X170032128Y155272500D01*
X170050839Y155260696D01*
X170071842Y155256819D01*
X170094732Y155260811D01*
X170113314Y155272500D01*
X170125564Y155291138D01*
X170130118Y155319541D01*
X170125499Y155348823D01*
X170113314Y155367120D01*
X170094774Y155378392D01*
X170071842Y155382263D01*
G37*
G36*
X170023677Y155157120D02*
G01*
X170023677Y154556819D01*
X170122254Y154556819D01*
X170122254Y155157120D01*
X170023677Y155157120D01*
G37*
G36*
X169677066Y155162769D02*
G01*
X169724855Y155146792D01*
X169766124Y155120743D01*
X169801953Y155083798D01*
X169829383Y155040297D01*
X169849815Y154988845D01*
X169862827Y154927965D01*
X169867459Y154855870D01*
X169862744Y154781809D01*
X169849609Y154720373D01*
X169829169Y154669465D01*
X169801953Y154627357D01*
X169766309Y154591849D01*
X169724946Y154566641D01*
X169676731Y154551090D01*
X169619944Y154545633D01*
X169570123Y154549633D01*
X169527778Y154560966D01*
X169491577Y154579066D01*
X169460524Y154603977D01*
X169434026Y154636345D01*
X169429532Y154636345D01*
X169431779Y154601076D01*
X169432903Y154562437D01*
X169432903Y154538892D01*
X169438248Y154488393D01*
X169453191Y154447885D01*
X169477159Y154415159D01*
X169509261Y154390525D01*
X169549017Y154375238D01*
X169598646Y154369778D01*
X169666083Y154373075D01*
X169724801Y154382419D01*
X169775917Y154397146D01*
X169820418Y154416819D01*
X169820418Y154326108D01*
X169763100Y154305986D01*
X169691982Y154292804D01*
X169604263Y154288006D01*
X169534579Y154292826D01*
X169479198Y154306028D01*
X169435394Y154326261D01*
X169401004Y154352974D01*
X169373701Y154387216D01*
X169353316Y154429661D01*
X169340192Y154482082D01*
X169335450Y154546757D01*
X169335450Y154855870D01*
X169431779Y154855870D01*
X169431779Y154832325D01*
X169434996Y154776457D01*
X169443671Y154733164D01*
X169456646Y154700016D01*
X169473251Y154674984D01*
X169495510Y154654737D01*
X169523924Y154639627D01*
X169559916Y154629846D01*
X169605387Y154626282D01*
X169643384Y154630202D01*
X169675138Y154641335D01*
X169701967Y154659408D01*
X169724675Y154685047D01*
X169746037Y154726360D01*
X169760258Y154781628D01*
X169765561Y154854747D01*
X169760219Y154927815D01*
X169745838Y154983495D01*
X169724138Y155025522D01*
X169701073Y155051952D01*
X169674503Y155070357D01*
X169643745Y155081555D01*
X169607634Y155085459D01*
X169562516Y155081650D01*
X169526379Y155071116D01*
X169497415Y155054649D01*
X169474326Y155032263D01*
X169457515Y155005158D01*
X169444176Y154968473D01*
X169435152Y154919699D01*
X169431779Y154855870D01*
X169335450Y154855870D01*
X169335450Y155157120D01*
X169413852Y155157120D01*
X169427285Y155077643D01*
X169432903Y155077643D01*
X169457252Y155106022D01*
X169484247Y155128615D01*
X169514138Y155145933D01*
X169563862Y155162581D01*
X169621067Y155168355D01*
X169677066Y155162769D01*
G37*
G36*
X169046706Y155158243D02*
G01*
X169048156Y155114180D01*
X169052323Y155074272D01*
X169045631Y155074272D01*
X169023874Y155102413D01*
X168997706Y155125428D01*
X168966643Y155143686D01*
X168915080Y155161266D01*
X168858590Y155167231D01*
X168803185Y155163412D01*
X168758533Y155152886D01*
X168722654Y155136651D01*
X168693970Y155115110D01*
X168671473Y155087580D01*
X168654385Y155051898D01*
X168643178Y155006104D01*
X168639064Y154947706D01*
X168639064Y154556819D01*
X168736468Y154556819D01*
X168736468Y154940965D01*
X168740869Y154988522D01*
X168752719Y155023974D01*
X168770877Y155050186D01*
X168795505Y155069018D01*
X168828028Y155081048D01*
X168870900Y155085459D01*
X168921406Y155081206D01*
X168959574Y155069737D01*
X168988184Y155052256D01*
X169009190Y155028892D01*
X169028781Y154989316D01*
X169041839Y154936570D01*
X169046706Y154867057D01*
X169046706Y154556819D01*
X169145282Y154556819D01*
X169145282Y155408006D01*
X169046706Y155408006D01*
X169046706Y155158243D01*
G37*
G36*
X168253112Y154626282D02*
G01*
X168207194Y154630190D01*
X168169092Y154638592D01*
X168169092Y154563561D01*
X168186616Y154556852D01*
X168213935Y154550665D01*
X168269916Y154545633D01*
X168315621Y154549779D01*
X168356720Y154561851D01*
X168381267Y154575168D01*
X168402639Y154593800D01*
X168421151Y154618418D01*
X168434015Y154646427D01*
X168442585Y154683364D01*
X168445771Y154731551D01*
X168445771Y155080965D01*
X168530865Y155080965D01*
X168530865Y155128006D01*
X168444647Y155167231D01*
X168405422Y155294921D01*
X168347194Y155294921D01*
X168347194Y155157120D01*
X168173586Y155157120D01*
X168173586Y155080965D01*
X168347194Y155080965D01*
X168347194Y154733798D01*
X168343815Y154698127D01*
X168334748Y154671806D01*
X168320865Y154652563D01*
X168301901Y154638112D01*
X168279638Y154629346D01*
X168253112Y154626282D01*
G37*
G36*
X167745331Y154556819D02*
G01*
X167644508Y154556819D01*
X167644508Y154868180D01*
X167552672Y154868180D01*
X167473107Y154872789D01*
X167410935Y154885256D01*
X167362847Y154903986D01*
X167319303Y154931361D01*
X167286618Y154962473D01*
X167263196Y154997531D01*
X167246708Y155036886D01*
X167236829Y155077974D01*
X167233842Y155116819D01*
X167337641Y155116819D01*
X167341665Y155073103D01*
X167352725Y155038879D01*
X167370001Y155012094D01*
X167393670Y154991376D01*
X167432945Y154972362D01*
X167488087Y154959350D01*
X167563907Y154954398D01*
X167644508Y154954398D01*
X167644508Y155270253D01*
X167542609Y155270253D01*
X167472296Y155265135D01*
X167422049Y155251746D01*
X167386929Y155232151D01*
X167365912Y155211375D01*
X167350686Y155185951D01*
X167341079Y155154904D01*
X167337641Y155116819D01*
X167233842Y155116819D01*
X167233496Y155121314D01*
X167238392Y155176406D01*
X167252235Y155222657D01*
X167274410Y155261765D01*
X167305205Y155294921D01*
X167342105Y155319701D01*
X167390513Y155338963D01*
X167453240Y155351781D01*
X167533670Y155356519D01*
X167745331Y155356519D01*
X167745331Y154556819D01*
G37*
G36*
X166983342Y154556819D02*
G01*
X167081919Y154556819D01*
X167081919Y155408006D01*
X166983342Y155408006D01*
X166983342Y154556819D01*
G37*
G36*
X166611664Y155162890D02*
G01*
X166665696Y155147359D01*
X166712087Y155122391D01*
X166752093Y155087706D01*
X166783506Y155045537D01*
X166806854Y154994497D01*
X166821775Y154932786D01*
X166827124Y154858117D01*
X166822801Y154792419D01*
X166810599Y154736361D01*
X166791318Y154688418D01*
X166763972Y154644798D01*
X166731416Y154609651D01*
X166693328Y154582025D01*
X166650568Y154562031D01*
X166603635Y154549831D01*
X166551618Y154545633D01*
X166488279Y154551150D01*
X166434169Y154566852D01*
X166387566Y154592144D01*
X166347236Y154627357D01*
X166315517Y154670101D01*
X166291990Y154721564D01*
X166276987Y154783496D01*
X166271618Y154858117D01*
X166373517Y154858117D01*
X166378868Y154788221D01*
X166393529Y154732994D01*
X166416113Y154689492D01*
X166439795Y154662824D01*
X166469029Y154643684D01*
X166504961Y154631661D01*
X166549371Y154627357D01*
X166594400Y154631690D01*
X166630580Y154643756D01*
X166659782Y154662898D01*
X166683217Y154689492D01*
X166705473Y154732950D01*
X166719941Y154788177D01*
X166725226Y154858117D01*
X166719972Y154928075D01*
X166705670Y154982644D01*
X166683803Y155024984D01*
X166660726Y155050759D01*
X166631763Y155069403D01*
X166595656Y155081207D01*
X166550495Y155085459D01*
X166505345Y155081224D01*
X166469023Y155069441D01*
X166439685Y155050791D01*
X166416113Y155024984D01*
X166393592Y154982555D01*
X166378904Y154927985D01*
X166373517Y154858117D01*
X166271618Y154858117D01*
X166275899Y154923819D01*
X166287940Y154979457D01*
X166306887Y155026645D01*
X166333826Y155069523D01*
X166366190Y155104322D01*
X166404340Y155131914D01*
X166447102Y155151859D01*
X166494731Y155164112D01*
X166548248Y155168355D01*
X166611664Y155162890D01*
G37*
G36*
X165934818Y155162890D02*
G01*
X165988850Y155147359D01*
X166035241Y155122391D01*
X166075247Y155087706D01*
X166106660Y155045537D01*
X166130008Y154994497D01*
X166144929Y154932786D01*
X166150279Y154858117D01*
X166145956Y154792419D01*
X166133753Y154736361D01*
X166114473Y154688418D01*
X166087126Y154644798D01*
X166054570Y154609651D01*
X166016482Y154582025D01*
X165973722Y154562031D01*
X165926790Y154549831D01*
X165874773Y154545633D01*
X165811433Y154551150D01*
X165757323Y154566852D01*
X165710721Y154592144D01*
X165670390Y154627357D01*
X165638672Y154670101D01*
X165615144Y154721564D01*
X165600141Y154783496D01*
X165594773Y154858117D01*
X165696671Y154858117D01*
X165702023Y154788221D01*
X165716683Y154732994D01*
X165739267Y154689492D01*
X165762950Y154662824D01*
X165792183Y154643684D01*
X165828115Y154631661D01*
X165872526Y154627357D01*
X165917554Y154631690D01*
X165953734Y154643756D01*
X165982937Y154662898D01*
X166006371Y154689492D01*
X166028627Y154732950D01*
X166043095Y154788177D01*
X166048381Y154858117D01*
X166043126Y154928075D01*
X166028824Y154982644D01*
X166006957Y155024984D01*
X165983880Y155050759D01*
X165954917Y155069403D01*
X165918810Y155081207D01*
X165873649Y155085459D01*
X165828500Y155081224D01*
X165792177Y155069441D01*
X165762840Y155050791D01*
X165739267Y155024984D01*
X165716746Y154982555D01*
X165702058Y154927985D01*
X165696671Y154858117D01*
X165594773Y154858117D01*
X165599054Y154923819D01*
X165611094Y154979457D01*
X165630041Y155026645D01*
X165656980Y155069523D01*
X165689344Y155104322D01*
X165727494Y155131914D01*
X165770256Y155151859D01*
X165817885Y155164112D01*
X165871402Y155168355D01*
X165934818Y155162890D01*
G37*
G36*
X165202194Y155164970D02*
G01*
X165240402Y155155691D01*
X165270711Y155141439D01*
X165310510Y155111186D01*
X165341249Y155075396D01*
X165345743Y155075396D01*
X165359176Y155157120D01*
X165439825Y155157120D01*
X165439825Y154288006D01*
X165341249Y154288006D01*
X165341249Y154534398D01*
X165343496Y154584810D01*
X165347990Y154632974D01*
X165341249Y154632974D01*
X165311468Y154601086D01*
X165270174Y154571914D01*
X165238856Y154557850D01*
X165201036Y154548857D01*
X165155331Y154545633D01*
X165100830Y154550857D01*
X165053601Y154565867D01*
X165012189Y154590390D01*
X164975617Y154625110D01*
X164947685Y154666216D01*
X164926528Y154717266D01*
X164912793Y154780374D01*
X164907815Y154858117D01*
X164907887Y154859241D01*
X165009762Y154859241D01*
X165014337Y154794276D01*
X165027152Y154739953D01*
X165041181Y154706750D01*
X165058732Y154679580D01*
X165079762Y154657594D01*
X165104794Y154641115D01*
X165134431Y154630942D01*
X165169888Y154627357D01*
X165218882Y154631785D01*
X165256065Y154643787D01*
X165284124Y154662260D01*
X165304856Y154687294D01*
X165323793Y154728962D01*
X165336500Y154784653D01*
X165341249Y154858117D01*
X165341249Y154877120D01*
X165334961Y154946701D01*
X165321128Y154997523D01*
X165301535Y155033923D01*
X165280860Y155055317D01*
X165253581Y155071264D01*
X165218089Y155081644D01*
X165172135Y155085459D01*
X165131937Y155081288D01*
X165099043Y155069543D01*
X165071886Y155050615D01*
X165049525Y155023861D01*
X165028432Y154980976D01*
X165014746Y154926996D01*
X165009762Y154859241D01*
X164907887Y154859241D01*
X164912855Y154937181D01*
X164926682Y155000545D01*
X164947842Y155051065D01*
X164975617Y155091076D01*
X165012059Y155124792D01*
X165053258Y155148651D01*
X165100172Y155163268D01*
X165154207Y155168355D01*
X165202194Y155164970D01*
G37*
G36*
X164868004Y155157120D02*
G01*
X164762735Y155157120D01*
X164632798Y154815522D01*
X164602561Y154729841D01*
X164582386Y154652025D01*
X164577941Y154652025D01*
X164556643Y154725347D01*
X164526406Y154816645D01*
X164404333Y155157120D01*
X164297941Y155157120D01*
X164556643Y154473923D01*
X164580703Y154418916D01*
X164607856Y154374230D01*
X164637878Y154338418D01*
X164664232Y154316944D01*
X164695219Y154301306D01*
X164731752Y154291484D01*
X164775045Y154288006D01*
X164822086Y154290839D01*
X164856817Y154296994D01*
X164856817Y154375396D01*
X164827166Y154370902D01*
X164790725Y154368655D01*
X164757489Y154372123D01*
X164730095Y154381922D01*
X164707292Y154397769D01*
X164679403Y154430811D01*
X164657466Y154475047D01*
X164626106Y154554572D01*
X164868004Y155157120D01*
G37*
G36*
X172717578Y153212819D02*
G01*
X173246217Y153212819D01*
X173246217Y153294592D01*
X173036803Y153506253D01*
X172934905Y153613769D01*
X172897579Y153661727D01*
X172872184Y153706141D01*
X172856302Y153753195D01*
X172850886Y153805304D01*
X172855683Y153847625D01*
X172868938Y153880275D01*
X172890111Y153905541D01*
X172917989Y153924093D01*
X172951460Y153935606D01*
X172992009Y153939686D01*
X173047899Y153934412D01*
X173094494Y153919512D01*
X173138074Y153896107D01*
X173184619Y153863531D01*
X173237278Y153929623D01*
X173187331Y153965507D01*
X173129225Y153996253D01*
X173087703Y154011264D01*
X173042186Y154020514D01*
X172992009Y154023706D01*
X172935992Y154019740D01*
X172888756Y154008583D01*
X172848827Y153990977D01*
X172815031Y153967139D01*
X172787019Y153936730D01*
X172766933Y153901294D01*
X172754456Y153859835D01*
X172750062Y153810921D01*
X172752969Y153769689D01*
X172761568Y153730625D01*
X172775854Y153693294D01*
X172805973Y153639850D01*
X172847515Y153585192D01*
X172895927Y153531685D01*
X172955031Y153471522D01*
X173121898Y153306902D01*
X173121898Y153302408D01*
X172717578Y153302408D01*
X172717578Y153212819D01*
G37*
G36*
X172388171Y154021463D02*
G01*
X172428866Y154011924D01*
X172463898Y153996754D01*
X172494145Y153976078D01*
X172528282Y153940312D01*
X172556553Y153894153D01*
X172578702Y153835541D01*
X172592697Y153773784D01*
X172601775Y153700437D01*
X172605031Y153613769D01*
X172600265Y153514602D01*
X172587086Y153432764D01*
X172566891Y153365609D01*
X172540648Y153310810D01*
X172511778Y153271223D01*
X172478123Y153241214D01*
X172439165Y153219687D01*
X172393855Y153206328D01*
X172340711Y153201633D01*
X172292639Y153205045D01*
X172251584Y153214697D01*
X172216395Y153230020D01*
X172186154Y153250873D01*
X172151949Y153286998D01*
X172123480Y153333551D01*
X172101011Y153392582D01*
X172086692Y153454747D01*
X172077447Y153527942D01*
X172074145Y153613769D01*
X172173796Y153613769D01*
X172176851Y153527233D01*
X172185089Y153459258D01*
X172197277Y153406712D01*
X172212435Y153366790D01*
X172235502Y153330611D01*
X172263851Y153305883D01*
X172298294Y153290888D01*
X172340711Y153285604D01*
X172383648Y153290957D01*
X172418199Y153306095D01*
X172446347Y153330990D01*
X172468939Y153367376D01*
X172487983Y153423535D01*
X172501330Y153503403D01*
X172506454Y153613769D01*
X172501340Y153723387D01*
X172488001Y153802924D01*
X172468939Y153859037D01*
X172446347Y153895424D01*
X172418199Y153920319D01*
X172383648Y153935457D01*
X172340711Y153940810D01*
X172298336Y153935499D01*
X172263904Y153920418D01*
X172235537Y153895518D01*
X172212435Y153859037D01*
X172197224Y153818853D01*
X172185039Y153766402D01*
X172176832Y153699027D01*
X172173796Y153613769D01*
X172074145Y153613769D01*
X172079053Y153713547D01*
X172092600Y153795502D01*
X172113326Y153862417D01*
X172140237Y153916727D01*
X172169677Y153955955D01*
X172203697Y153985693D01*
X172242808Y154007003D01*
X172288010Y154020202D01*
X172340711Y154024829D01*
X172388171Y154021463D01*
G37*
G36*
X171437355Y153212819D02*
G01*
X171965994Y153212819D01*
X171965994Y153294592D01*
X171756580Y153506253D01*
X171654682Y153613769D01*
X171617356Y153661727D01*
X171591960Y153706141D01*
X171576079Y153753195D01*
X171570662Y153805304D01*
X171575460Y153847625D01*
X171588715Y153880275D01*
X171609888Y153905541D01*
X171637766Y153924093D01*
X171671237Y153935606D01*
X171711786Y153939686D01*
X171767675Y153934412D01*
X171814270Y153919512D01*
X171857851Y153896107D01*
X171904396Y153863531D01*
X171957055Y153929623D01*
X171907107Y153965507D01*
X171849002Y153996253D01*
X171807479Y154011264D01*
X171761963Y154020514D01*
X171711786Y154023706D01*
X171655768Y154019740D01*
X171608532Y154008583D01*
X171568603Y153990977D01*
X171534808Y153967139D01*
X171506796Y153936730D01*
X171486710Y153901294D01*
X171474232Y153859835D01*
X171469839Y153810921D01*
X171472746Y153769689D01*
X171481344Y153730625D01*
X171495631Y153693294D01*
X171525750Y153639850D01*
X171567292Y153585192D01*
X171615704Y153531685D01*
X171674808Y153471522D01*
X171841674Y153306902D01*
X171841674Y153302408D01*
X171437355Y153302408D01*
X171437355Y153212819D01*
G37*
G36*
X171356168Y153478263D02*
G01*
X171356168Y153394243D01*
X170973098Y153394243D01*
X170973098Y153212819D01*
X170877892Y153212819D01*
X170877892Y153394243D01*
X170761437Y153394243D01*
X170761437Y153482757D01*
X170877892Y153482757D01*
X170877892Y153911696D01*
X170967480Y153911696D01*
X170970851Y153833831D01*
X170973098Y153734718D01*
X170973098Y153482757D01*
X171259839Y153482757D01*
X171020139Y153824355D01*
X170994396Y153865778D01*
X170971974Y153911696D01*
X170967480Y153911696D01*
X170877892Y153911696D01*
X170877892Y154016965D01*
X170979839Y154016965D01*
X171356168Y153478263D01*
G37*
G36*
X172848639Y152591241D02*
G01*
X172911708Y152585449D01*
X172965400Y152568955D01*
X173011533Y152542302D01*
X173051360Y152504974D01*
X173082410Y152460214D01*
X173105426Y152407050D01*
X173120056Y152343866D01*
X173125268Y152268645D01*
X173120389Y152193767D01*
X173106701Y152130737D01*
X173085224Y152077640D01*
X173056392Y152032902D01*
X173027047Y152002465D01*
X172992621Y151978636D01*
X172952368Y151961092D01*
X172905202Y151950018D01*
X172849762Y151946098D01*
X172797918Y151948386D01*
X172750062Y151955037D01*
X172658227Y151977459D01*
X172658227Y151890117D01*
X172703681Y151875573D01*
X172750648Y151865498D01*
X172800512Y151859765D01*
X172864319Y151857633D01*
X172925665Y151861108D01*
X172979424Y151871006D01*
X173026629Y151886738D01*
X173068164Y151907996D01*
X173106325Y151935716D01*
X173139289Y151968548D01*
X173167416Y152006890D01*
X173190823Y152051367D01*
X173212888Y152114600D01*
X173226778Y152186903D01*
X173231660Y152269769D01*
X173226454Y152349420D01*
X173211503Y152420103D01*
X173187452Y152483139D01*
X173162473Y152527172D01*
X173132566Y152565628D01*
X173097538Y152599014D01*
X173056978Y152627633D01*
X173013124Y152649761D01*
X172964134Y152666018D01*
X172909233Y152676167D01*
X172847515Y152679706D01*
X172764206Y152674129D01*
X172691178Y152658190D01*
X172626866Y152632665D01*
X172667215Y152547522D01*
X172705425Y152563176D01*
X172749525Y152577759D01*
X172796178Y152587762D01*
X172848639Y152591241D01*
G37*
G36*
X172315614Y152474890D02*
G01*
X172369646Y152459359D01*
X172416037Y152434391D01*
X172456043Y152399706D01*
X172487456Y152357537D01*
X172510803Y152306497D01*
X172525725Y152244786D01*
X172531074Y152170117D01*
X172526751Y152104419D01*
X172514549Y152048361D01*
X172495268Y152000418D01*
X172467922Y151956798D01*
X172435366Y151921651D01*
X172397278Y151894025D01*
X172354517Y151874031D01*
X172307585Y151861831D01*
X172255568Y151857633D01*
X172192228Y151863150D01*
X172138119Y151878852D01*
X172091516Y151904144D01*
X172051186Y151939357D01*
X172019467Y151982101D01*
X171995940Y152033564D01*
X171980936Y152095496D01*
X171975568Y152170117D01*
X172077466Y152170117D01*
X172082818Y152100221D01*
X172097479Y152044994D01*
X172120062Y152001492D01*
X172143745Y151974824D01*
X172172979Y151955684D01*
X172208910Y151943661D01*
X172253321Y151939357D01*
X172298349Y151943690D01*
X172334530Y151955756D01*
X172363732Y151974898D01*
X172387166Y152001492D01*
X172409423Y152044950D01*
X172423891Y152100177D01*
X172429176Y152170117D01*
X172423922Y152240075D01*
X172409620Y152294644D01*
X172387752Y152336984D01*
X172364676Y152362759D01*
X172335713Y152381403D01*
X172299606Y152393207D01*
X172254445Y152397459D01*
X172209295Y152393224D01*
X172172973Y152381441D01*
X172143635Y152362791D01*
X172120062Y152336984D01*
X172097541Y152294555D01*
X172082854Y152239985D01*
X172077466Y152170117D01*
X171975568Y152170117D01*
X171979849Y152235819D01*
X171991890Y152291457D01*
X172010837Y152338645D01*
X172037776Y152381523D01*
X172070139Y152416322D01*
X172108290Y152443914D01*
X172151051Y152463859D01*
X172198681Y152476112D01*
X172252198Y152480355D01*
X172315614Y152474890D01*
G37*
G36*
X171582989Y152476970D02*
G01*
X171621198Y152467691D01*
X171651507Y152453439D01*
X171691305Y152423186D01*
X171722044Y152387396D01*
X171726538Y152387396D01*
X171739972Y152469120D01*
X171820621Y152469120D01*
X171820621Y151600006D01*
X171722044Y151600006D01*
X171722044Y151846398D01*
X171724291Y151896810D01*
X171728785Y151944974D01*
X171722044Y151944974D01*
X171692264Y151913086D01*
X171650969Y151883914D01*
X171619651Y151869850D01*
X171581832Y151860857D01*
X171536127Y151857633D01*
X171481625Y151862857D01*
X171434397Y151877867D01*
X171392985Y151902390D01*
X171356413Y151937110D01*
X171328481Y151978216D01*
X171307323Y152029266D01*
X171293588Y152092374D01*
X171288611Y152170117D01*
X171288683Y152171241D01*
X171390558Y152171241D01*
X171395132Y152106276D01*
X171407948Y152051953D01*
X171421976Y152018750D01*
X171439527Y151991580D01*
X171460558Y151969594D01*
X171485589Y151953115D01*
X171515226Y151942942D01*
X171550683Y151939357D01*
X171599677Y151943785D01*
X171636861Y151955787D01*
X171664920Y151974260D01*
X171685652Y151999294D01*
X171704588Y152040962D01*
X171717295Y152096653D01*
X171722044Y152170117D01*
X171722044Y152189120D01*
X171715757Y152258701D01*
X171701924Y152309523D01*
X171682330Y152345923D01*
X171661655Y152367317D01*
X171634377Y152383264D01*
X171598884Y152393644D01*
X171552930Y152397459D01*
X171512732Y152393288D01*
X171479839Y152381543D01*
X171452681Y152362615D01*
X171430321Y152335861D01*
X171409227Y152292976D01*
X171395542Y152238996D01*
X171390558Y152171241D01*
X171288683Y152171241D01*
X171293651Y152249181D01*
X171307477Y152312545D01*
X171328638Y152363065D01*
X171356413Y152403076D01*
X171392855Y152436792D01*
X171434054Y152460651D01*
X171480967Y152475268D01*
X171535003Y152480355D01*
X171582989Y152476970D01*
G37*
G36*
X171248799Y152469120D02*
G01*
X171143531Y152469120D01*
X171013593Y152127522D01*
X170983356Y152041841D01*
X170963182Y151964025D01*
X170958736Y151964025D01*
X170937438Y152037347D01*
X170907201Y152128645D01*
X170785129Y152469120D01*
X170678736Y152469120D01*
X170937438Y151785923D01*
X170961498Y151730916D01*
X170988652Y151686230D01*
X171018674Y151650418D01*
X171045027Y151628944D01*
X171076015Y151613306D01*
X171112547Y151603484D01*
X171155840Y151600006D01*
X171202882Y151602839D01*
X171237613Y151608994D01*
X171237613Y151687396D01*
X171207962Y151682902D01*
X171171521Y151680655D01*
X171138285Y151684123D01*
X171110891Y151693922D01*
X171088087Y151709769D01*
X171060198Y151742811D01*
X171038262Y151787047D01*
X171006901Y151866572D01*
X171248799Y152469120D01*
G37*
G36*
X170304166Y152480355D02*
G01*
X170267773Y152478645D01*
X170233628Y152473614D01*
X170245938Y152382902D01*
X170277885Y152388471D01*
X170310907Y152390718D01*
X170340811Y152387934D01*
X170369411Y152379612D01*
X170397173Y152365512D01*
X170421996Y152346714D01*
X170443396Y152323377D01*
X170461556Y152294974D01*
X170474636Y152263914D01*
X170482758Y152228878D01*
X170485589Y152189120D01*
X170485589Y151868819D01*
X170584166Y151868819D01*
X170584166Y152469120D01*
X170503517Y152469120D01*
X170492330Y152359357D01*
X170487836Y152359357D01*
X170454601Y152405196D01*
X170412805Y152444500D01*
X170380613Y152464286D01*
X170344738Y152476239D01*
X170304166Y152480355D01*
G37*
G36*
X170071842Y152694263D02*
G01*
X170050799Y152690504D01*
X170032128Y152679120D01*
X170019495Y152660764D01*
X170014738Y152631541D01*
X170019429Y152603194D01*
X170032128Y152584500D01*
X170050839Y152572696D01*
X170071842Y152568819D01*
X170094732Y152572811D01*
X170113314Y152584500D01*
X170125564Y152603138D01*
X170130118Y152631541D01*
X170125499Y152660823D01*
X170113314Y152679120D01*
X170094774Y152690392D01*
X170071842Y152694263D01*
G37*
G36*
X170023677Y152469120D02*
G01*
X170023677Y151868819D01*
X170122254Y151868819D01*
X170122254Y152469120D01*
X170023677Y152469120D01*
G37*
G36*
X169677066Y152474769D02*
G01*
X169724855Y152458792D01*
X169766124Y152432743D01*
X169801953Y152395798D01*
X169829383Y152352297D01*
X169849815Y152300845D01*
X169862827Y152239965D01*
X169867459Y152167870D01*
X169862744Y152093809D01*
X169849609Y152032373D01*
X169829169Y151981465D01*
X169801953Y151939357D01*
X169766309Y151903849D01*
X169724946Y151878641D01*
X169676731Y151863090D01*
X169619944Y151857633D01*
X169570123Y151861633D01*
X169527778Y151872966D01*
X169491577Y151891066D01*
X169460524Y151915977D01*
X169434026Y151948345D01*
X169429532Y151948345D01*
X169431779Y151913076D01*
X169432903Y151874437D01*
X169432903Y151850892D01*
X169438248Y151800393D01*
X169453191Y151759885D01*
X169477159Y151727159D01*
X169509261Y151702525D01*
X169549017Y151687238D01*
X169598646Y151681778D01*
X169666083Y151685075D01*
X169724801Y151694419D01*
X169775917Y151709146D01*
X169820418Y151728819D01*
X169820418Y151638108D01*
X169763100Y151617986D01*
X169691982Y151604804D01*
X169604263Y151600006D01*
X169534579Y151604826D01*
X169479198Y151618028D01*
X169435394Y151638261D01*
X169401004Y151664974D01*
X169373701Y151699216D01*
X169353316Y151741661D01*
X169340192Y151794082D01*
X169335450Y151858757D01*
X169335450Y152167870D01*
X169431779Y152167870D01*
X169431779Y152144325D01*
X169434996Y152088457D01*
X169443671Y152045164D01*
X169456646Y152012016D01*
X169473251Y151986984D01*
X169495510Y151966737D01*
X169523924Y151951627D01*
X169559916Y151941846D01*
X169605387Y151938282D01*
X169643384Y151942202D01*
X169675138Y151953335D01*
X169701967Y151971408D01*
X169724675Y151997047D01*
X169746037Y152038360D01*
X169760258Y152093628D01*
X169765561Y152166747D01*
X169760219Y152239815D01*
X169745838Y152295495D01*
X169724138Y152337522D01*
X169701073Y152363952D01*
X169674503Y152382357D01*
X169643745Y152393555D01*
X169607634Y152397459D01*
X169562516Y152393650D01*
X169526379Y152383116D01*
X169497415Y152366649D01*
X169474326Y152344263D01*
X169457515Y152317158D01*
X169444176Y152280473D01*
X169435152Y152231699D01*
X169431779Y152167870D01*
X169335450Y152167870D01*
X169335450Y152469120D01*
X169413852Y152469120D01*
X169427285Y152389643D01*
X169432903Y152389643D01*
X169457252Y152418022D01*
X169484247Y152440615D01*
X169514138Y152457933D01*
X169563862Y152474581D01*
X169621067Y152480355D01*
X169677066Y152474769D01*
G37*
G36*
X169046706Y152470243D02*
G01*
X169048156Y152426180D01*
X169052323Y152386272D01*
X169045631Y152386272D01*
X169023874Y152414413D01*
X168997706Y152437428D01*
X168966643Y152455686D01*
X168915080Y152473266D01*
X168858590Y152479231D01*
X168803185Y152475412D01*
X168758533Y152464886D01*
X168722654Y152448651D01*
X168693970Y152427110D01*
X168671473Y152399580D01*
X168654385Y152363898D01*
X168643178Y152318104D01*
X168639064Y152259706D01*
X168639064Y151868819D01*
X168736468Y151868819D01*
X168736468Y152252965D01*
X168740869Y152300522D01*
X168752719Y152335974D01*
X168770877Y152362186D01*
X168795505Y152381018D01*
X168828028Y152393048D01*
X168870900Y152397459D01*
X168921406Y152393206D01*
X168959574Y152381737D01*
X168988184Y152364256D01*
X169009190Y152340892D01*
X169028781Y152301316D01*
X169041839Y152248570D01*
X169046706Y152179057D01*
X169046706Y151868819D01*
X169145282Y151868819D01*
X169145282Y152720006D01*
X169046706Y152720006D01*
X169046706Y152470243D01*
G37*
G36*
X168253112Y151938282D02*
G01*
X168207194Y151942190D01*
X168169092Y151950592D01*
X168169092Y151875561D01*
X168186616Y151868852D01*
X168213935Y151862665D01*
X168269916Y151857633D01*
X168315621Y151861779D01*
X168356720Y151873851D01*
X168381267Y151887168D01*
X168402639Y151905800D01*
X168421151Y151930418D01*
X168434015Y151958427D01*
X168442585Y151995364D01*
X168445771Y152043551D01*
X168445771Y152392965D01*
X168530865Y152392965D01*
X168530865Y152440006D01*
X168444647Y152479231D01*
X168405422Y152606921D01*
X168347194Y152606921D01*
X168347194Y152469120D01*
X168173586Y152469120D01*
X168173586Y152392965D01*
X168347194Y152392965D01*
X168347194Y152045798D01*
X168343815Y152010127D01*
X168334748Y151983806D01*
X168320865Y151964563D01*
X168301901Y151950112D01*
X168279638Y151941346D01*
X168253112Y151938282D01*
G37*
G36*
X167291723Y152082727D02*
G01*
X167296855Y152031016D01*
X167311497Y151987128D01*
X167335306Y151949460D01*
X167369002Y151916984D01*
X167408725Y151892149D01*
X167455742Y151873633D01*
X167511402Y151861835D01*
X167577341Y151857633D01*
X167643178Y151860245D01*
X167701660Y151867696D01*
X167756020Y151880321D01*
X167796866Y151895686D01*
X167796866Y151992016D01*
X167753821Y151975645D01*
X167696629Y151959531D01*
X167635971Y151948644D01*
X167572847Y151944974D01*
X167513901Y151949506D01*
X167470084Y151961592D01*
X167437927Y151979706D01*
X167412689Y152005633D01*
X167397738Y152036456D01*
X167392547Y152073788D01*
X167396977Y152110773D01*
X167409351Y152139831D01*
X167430712Y152164477D01*
X167467041Y152189706D01*
X167512291Y152211813D01*
X167580711Y152238408D01*
X167646880Y152266825D01*
X167697277Y152297177D01*
X167734682Y152329120D01*
X167756825Y152357427D01*
X167772992Y152390635D01*
X167783156Y152429697D01*
X167786755Y152475861D01*
X167782953Y152517376D01*
X167772040Y152553415D01*
X167754270Y152585037D01*
X167730268Y152612560D01*
X167700498Y152635854D01*
X167664145Y152655037D01*
X167624955Y152668429D01*
X167580967Y152676790D01*
X167531423Y152679706D01*
X167466889Y152676487D01*
X167410474Y152667347D01*
X167357234Y152652802D01*
X167310774Y152634912D01*
X167342135Y152548645D01*
X167384773Y152564961D01*
X167432309Y152578882D01*
X167481714Y152588116D01*
X167533670Y152591241D01*
X167582789Y152587122D01*
X167619551Y152576067D01*
X167646803Y152559294D01*
X167667892Y152535801D01*
X167680479Y152508068D01*
X167684856Y152474737D01*
X167680395Y152436762D01*
X167668053Y152407522D01*
X167647062Y152383045D01*
X167613196Y152359357D01*
X167571387Y152338601D01*
X167510125Y152313439D01*
X167442884Y152285697D01*
X167390886Y152257996D01*
X167360211Y152236263D01*
X167335804Y152212586D01*
X167316929Y152186873D01*
X167303389Y152158211D01*
X167294791Y152123902D01*
X167291723Y152082727D01*
G37*
G36*
X166903670Y151857633D02*
G01*
X166955849Y151861408D01*
X167002789Y151872338D01*
X167045331Y151890117D01*
X167083351Y151915399D01*
X167115703Y151948639D01*
X167142784Y151990892D01*
X167161522Y152037784D01*
X167173663Y152095292D01*
X167178053Y152165623D01*
X167173425Y152238934D01*
X167160687Y152298200D01*
X167141123Y152345923D01*
X167112931Y152388894D01*
X167079647Y152422509D01*
X167040886Y152447870D01*
X166997610Y152465647D01*
X166949902Y152476579D01*
X166896929Y152480355D01*
X166851577Y152477944D01*
X166808464Y152470829D01*
X166768092Y152459757D01*
X166739002Y152447870D01*
X166769239Y152366098D01*
X166832009Y152385100D01*
X166867401Y152391933D01*
X166899176Y152394088D01*
X166946443Y152389381D01*
X166984425Y152376256D01*
X167015143Y152355338D01*
X167039844Y152326054D01*
X167058843Y152286715D01*
X167071468Y152234716D01*
X167076154Y152166747D01*
X167072965Y152111431D01*
X167064171Y152066378D01*
X167050681Y152029861D01*
X167033021Y152000418D01*
X167009346Y151975595D01*
X166980824Y151957801D01*
X166946469Y151946681D01*
X166904794Y151942727D01*
X166857103Y151945402D01*
X166817990Y151952790D01*
X166781502Y151964196D01*
X166749113Y151977459D01*
X166749113Y151890117D01*
X166780513Y151876393D01*
X166815743Y151866035D01*
X166854053Y151859917D01*
X166903670Y151857633D01*
G37*
G36*
X166425649Y152474890D02*
G01*
X166479681Y152459359D01*
X166526072Y152434391D01*
X166566078Y152399706D01*
X166597491Y152357537D01*
X166620838Y152306497D01*
X166635760Y152244786D01*
X166641109Y152170117D01*
X166636786Y152104419D01*
X166624584Y152048361D01*
X166605303Y152000418D01*
X166577957Y151956798D01*
X166545400Y151921651D01*
X166507313Y151894025D01*
X166464552Y151874031D01*
X166417620Y151861831D01*
X166365603Y151857633D01*
X166302263Y151863150D01*
X166248154Y151878852D01*
X166201551Y151904144D01*
X166161221Y151939357D01*
X166129502Y151982101D01*
X166105975Y152033564D01*
X166090971Y152095496D01*
X166085603Y152170117D01*
X166187501Y152170117D01*
X166192853Y152100221D01*
X166207513Y152044994D01*
X166230097Y152001492D01*
X166253780Y151974824D01*
X166283014Y151955684D01*
X166318945Y151943661D01*
X166363356Y151939357D01*
X166408384Y151943690D01*
X166444565Y151955756D01*
X166473767Y151974898D01*
X166497201Y152001492D01*
X166519458Y152044950D01*
X166533926Y152100177D01*
X166539211Y152170117D01*
X166533957Y152240075D01*
X166519654Y152294644D01*
X166497787Y152336984D01*
X166474710Y152362759D01*
X166445748Y152381403D01*
X166409641Y152393207D01*
X166364480Y152397459D01*
X166319330Y152393224D01*
X166283008Y152381441D01*
X166253670Y152362791D01*
X166230097Y152336984D01*
X166207576Y152294555D01*
X166192889Y152239985D01*
X166187501Y152170117D01*
X166085603Y152170117D01*
X166089884Y152235819D01*
X166101925Y152291457D01*
X166120872Y152338645D01*
X166147811Y152381523D01*
X166180174Y152416322D01*
X166218325Y152443914D01*
X166261086Y152463859D01*
X166308716Y152476112D01*
X166362233Y152480355D01*
X166425649Y152474890D01*
G37*
G36*
X165730181Y151938282D02*
G01*
X165684263Y151942190D01*
X165646161Y151950592D01*
X165646161Y151875561D01*
X165663685Y151868852D01*
X165691004Y151862665D01*
X165746985Y151857633D01*
X165792690Y151861779D01*
X165833789Y151873851D01*
X165858336Y151887168D01*
X165879708Y151905800D01*
X165898220Y151930418D01*
X165911084Y151958427D01*
X165919654Y151995364D01*
X165922840Y152043551D01*
X165922840Y152392965D01*
X166007934Y152392965D01*
X166007934Y152440006D01*
X165921716Y152479231D01*
X165882491Y152606921D01*
X165824263Y152606921D01*
X165824263Y152469120D01*
X165650655Y152469120D01*
X165650655Y152392965D01*
X165824263Y152392965D01*
X165824263Y152045798D01*
X165820884Y152010127D01*
X165811817Y151983806D01*
X165797934Y151964563D01*
X165778970Y151950112D01*
X165756707Y151941346D01*
X165730181Y151938282D01*
G37*
G36*
X165326106Y151938282D02*
G01*
X165280188Y151942190D01*
X165242086Y151950592D01*
X165242086Y151875561D01*
X165259609Y151868852D01*
X165286929Y151862665D01*
X165342909Y151857633D01*
X165388615Y151861779D01*
X165429713Y151873851D01*
X165454261Y151887168D01*
X165475633Y151905800D01*
X165494145Y151930418D01*
X165507008Y151958427D01*
X165515579Y151995364D01*
X165518764Y152043551D01*
X165518764Y152392965D01*
X165603859Y152392965D01*
X165603859Y152440006D01*
X165517641Y152479231D01*
X165478415Y152606921D01*
X165420188Y152606921D01*
X165420188Y152469120D01*
X165246580Y152469120D01*
X165246580Y152392965D01*
X165420188Y152392965D01*
X165420188Y152045798D01*
X165416809Y152010127D01*
X165407741Y151983806D01*
X165393859Y151964563D01*
X165374894Y151950112D01*
X165352631Y151941346D01*
X165326106Y151938282D01*
G37*
G36*
X172737752Y150738727D02*
G01*
X172742885Y150687016D01*
X172757527Y150643128D01*
X172781336Y150605460D01*
X172815031Y150572984D01*
X172854754Y150548149D01*
X172901771Y150529633D01*
X172957432Y150517835D01*
X173023370Y150513633D01*
X173089207Y150516245D01*
X173147690Y150523696D01*
X173202049Y150536321D01*
X173242896Y150551686D01*
X173242896Y150648016D01*
X173199851Y150631645D01*
X173142658Y150615531D01*
X173082000Y150604644D01*
X173018876Y150600974D01*
X172959930Y150605506D01*
X172916113Y150617592D01*
X172883956Y150635706D01*
X172858718Y150661633D01*
X172843767Y150692456D01*
X172838576Y150729788D01*
X172843006Y150766773D01*
X172855380Y150795831D01*
X172876742Y150820477D01*
X172913070Y150845706D01*
X172958320Y150867813D01*
X173026741Y150894408D01*
X173092909Y150922825D01*
X173143306Y150953177D01*
X173180711Y150985120D01*
X173202854Y151013427D01*
X173219021Y151046635D01*
X173229186Y151085697D01*
X173232784Y151131861D01*
X173228982Y151173376D01*
X173218069Y151209415D01*
X173200300Y151241037D01*
X173176298Y151268560D01*
X173146527Y151291854D01*
X173110174Y151311037D01*
X173070984Y151324429D01*
X173026996Y151332790D01*
X172977452Y151335706D01*
X172912919Y151332487D01*
X172856503Y151323347D01*
X172803263Y151308802D01*
X172756803Y151290912D01*
X172788164Y151204645D01*
X172830802Y151220961D01*
X172878339Y151234882D01*
X172927743Y151244116D01*
X172979699Y151247241D01*
X173028819Y151243122D01*
X173065580Y151232067D01*
X173092833Y151215294D01*
X173113921Y151191801D01*
X173126509Y151164068D01*
X173130886Y151130737D01*
X173126425Y151092762D01*
X173114082Y151063522D01*
X173093091Y151039045D01*
X173059225Y151015357D01*
X173017417Y150994601D01*
X172956154Y150969439D01*
X172888913Y150941697D01*
X172836915Y150913996D01*
X172806240Y150892263D01*
X172781833Y150868586D01*
X172762958Y150842873D01*
X172749418Y150814211D01*
X172740821Y150779902D01*
X172737752Y150738727D01*
G37*
G36*
X172491898Y151126243D02*
G01*
X172493347Y151082180D01*
X172497515Y151042272D01*
X172490823Y151042272D01*
X172469066Y151070413D01*
X172442898Y151093428D01*
X172411835Y151111686D01*
X172360272Y151129266D01*
X172303782Y151135231D01*
X172248377Y151131412D01*
X172203725Y151120886D01*
X172167846Y151104651D01*
X172139162Y151083110D01*
X172116664Y151055580D01*
X172099576Y151019898D01*
X172088370Y150974104D01*
X172084256Y150915706D01*
X172084256Y150524819D01*
X172181660Y150524819D01*
X172181660Y150908965D01*
X172186061Y150956522D01*
X172197911Y150991974D01*
X172216069Y151018186D01*
X172240697Y151037018D01*
X172273220Y151049048D01*
X172316092Y151053459D01*
X172366597Y151049206D01*
X172404766Y151037737D01*
X172433376Y151020256D01*
X172454382Y150996892D01*
X172473973Y150957316D01*
X172487031Y150904570D01*
X172491898Y150835057D01*
X172491898Y150524819D01*
X172590474Y150524819D01*
X172590474Y151376006D01*
X172491898Y151376006D01*
X172491898Y151126243D01*
G37*
G36*
X171728831Y151131408D02*
G01*
X171783447Y151120088D01*
X171834911Y151102909D01*
X171876406Y151083696D01*
X171846168Y151009788D01*
X171766643Y151041686D01*
X171723195Y151052160D01*
X171677006Y151055706D01*
X171638460Y151052080D01*
X171608481Y151042132D01*
X171585170Y151026592D01*
X171568467Y151004728D01*
X171557093Y150971468D01*
X171552686Y150922398D01*
X171552686Y150886592D01*
X171654633Y150883221D01*
X171730347Y150877301D01*
X171789982Y150865714D01*
X171836355Y150849677D01*
X171871912Y150830025D01*
X171902934Y150802935D01*
X171924602Y150771506D01*
X171937826Y150734898D01*
X171942449Y150691686D01*
X171938602Y150646029D01*
X171927961Y150609445D01*
X171911326Y150580112D01*
X171888715Y150556718D01*
X171850792Y150533259D01*
X171806171Y150518745D01*
X171753161Y150513633D01*
X171702623Y150516677D01*
X171663642Y150524871D01*
X171633921Y150537129D01*
X171593076Y150565959D01*
X171551563Y150609963D01*
X171547117Y150609963D01*
X171528066Y150524819D01*
X171456406Y150524819D01*
X171456406Y150764519D01*
X171553810Y150764519D01*
X171557413Y150721036D01*
X171567396Y150686015D01*
X171583012Y150657781D01*
X171604221Y150635120D01*
X171639870Y150612199D01*
X171681536Y150598104D01*
X171730788Y150593159D01*
X171762127Y150595988D01*
X171788104Y150603949D01*
X171809776Y150616655D01*
X171826339Y150634499D01*
X171836745Y150658459D01*
X171840551Y150690563D01*
X171835557Y150726471D01*
X171821307Y150755405D01*
X171797418Y150779076D01*
X171766562Y150795020D01*
X171717221Y150807661D01*
X171642323Y150814882D01*
X171553810Y150818253D01*
X171553810Y150764519D01*
X171456406Y150764519D01*
X171456406Y150933633D01*
X171460307Y150986708D01*
X171470976Y151028579D01*
X171487345Y151061462D01*
X171509064Y151087067D01*
X171536409Y151106743D01*
X171571353Y151121769D01*
X171615645Y151131625D01*
X171671437Y151135231D01*
X171728831Y151131408D01*
G37*
G36*
X170883656Y150864171D02*
G01*
X170908862Y150954345D01*
X170925080Y151023221D01*
X170929574Y151023221D01*
X170944131Y150954345D01*
X170969874Y150863047D01*
X171077438Y150525943D01*
X171189399Y150525943D01*
X171354068Y151126243D01*
X171252121Y151126243D01*
X171169274Y150805943D01*
X171145729Y150708490D01*
X171130048Y150626718D01*
X171125554Y150626718D01*
X171114954Y150673759D01*
X171100983Y150732572D01*
X171085254Y150788016D01*
X170978862Y151126243D01*
X170871346Y151126243D01*
X170768276Y150788016D01*
X170744242Y150705120D01*
X170727976Y150627841D01*
X170723482Y150627841D01*
X170708387Y150705120D01*
X170683182Y150805943D01*
X170599162Y151126243D01*
X170498387Y151126243D01*
X170665254Y150525943D01*
X170780635Y150525943D01*
X170883656Y150864171D01*
G37*
G36*
X170150341Y150513633D02*
G01*
X170202520Y150517408D01*
X170249460Y150528338D01*
X170292002Y150546117D01*
X170330022Y150571399D01*
X170362375Y150604639D01*
X170389455Y150646892D01*
X170408194Y150693784D01*
X170420334Y150751292D01*
X170424724Y150821623D01*
X170420096Y150894934D01*
X170407358Y150954200D01*
X170387794Y151001923D01*
X170359602Y151044894D01*
X170326318Y151078509D01*
X170287557Y151103870D01*
X170244281Y151121647D01*
X170196574Y151132579D01*
X170143600Y151136355D01*
X170098249Y151133944D01*
X170055136Y151126829D01*
X170014764Y151115757D01*
X169985673Y151103870D01*
X170015910Y151022098D01*
X170078681Y151041100D01*
X170114072Y151047933D01*
X170145847Y151050088D01*
X170193114Y151045381D01*
X170231097Y151032256D01*
X170261814Y151011338D01*
X170286516Y150982054D01*
X170305514Y150942715D01*
X170318139Y150890716D01*
X170322826Y150822747D01*
X170319636Y150767431D01*
X170310843Y150722378D01*
X170297353Y150685861D01*
X170279692Y150656418D01*
X170256018Y150631595D01*
X170227495Y150613801D01*
X170193140Y150602681D01*
X170151465Y150598727D01*
X170103774Y150601402D01*
X170064661Y150608790D01*
X170028173Y150620196D01*
X169995785Y150633459D01*
X169995785Y150546117D01*
X170027184Y150532393D01*
X170062414Y150522035D01*
X170100724Y150515917D01*
X170150341Y150513633D01*
G37*
G36*
X169574173Y151136355D02*
G01*
X169537780Y151134645D01*
X169503635Y151129614D01*
X169515945Y151038902D01*
X169547892Y151044471D01*
X169580914Y151046718D01*
X169610818Y151043934D01*
X169639418Y151035612D01*
X169667180Y151021512D01*
X169692003Y151002714D01*
X169713403Y150979377D01*
X169731563Y150950974D01*
X169744643Y150919914D01*
X169752765Y150884878D01*
X169755596Y150845120D01*
X169755596Y150524819D01*
X169854173Y150524819D01*
X169854173Y151125120D01*
X169773524Y151125120D01*
X169762337Y151015357D01*
X169757843Y151015357D01*
X169724608Y151061196D01*
X169682812Y151100500D01*
X169650620Y151120286D01*
X169614745Y151132239D01*
X169574173Y151136355D01*
G37*
G36*
X169232292Y151130890D02*
G01*
X169286324Y151115359D01*
X169332715Y151090391D01*
X169372721Y151055706D01*
X169404134Y151013537D01*
X169427482Y150962497D01*
X169442403Y150900786D01*
X169447752Y150826117D01*
X169443430Y150760419D01*
X169431227Y150704361D01*
X169411946Y150656418D01*
X169384600Y150612798D01*
X169352044Y150577651D01*
X169313956Y150550025D01*
X169271196Y150530031D01*
X169224264Y150517831D01*
X169172247Y150513633D01*
X169108907Y150519150D01*
X169054797Y150534852D01*
X169008194Y150560144D01*
X168967864Y150595357D01*
X168936145Y150638101D01*
X168912618Y150689564D01*
X168897615Y150751496D01*
X168892247Y150826117D01*
X168994145Y150826117D01*
X168999496Y150756221D01*
X169014157Y150700994D01*
X169036741Y150657492D01*
X169060423Y150630824D01*
X169089657Y150611684D01*
X169125589Y150599661D01*
X169170000Y150595357D01*
X169215028Y150599690D01*
X169251208Y150611756D01*
X169280411Y150630898D01*
X169303845Y150657492D01*
X169326101Y150700950D01*
X169340569Y150756177D01*
X169345854Y150826117D01*
X169340600Y150896075D01*
X169326298Y150950644D01*
X169304431Y150992984D01*
X169281354Y151018759D01*
X169252391Y151037403D01*
X169216284Y151049207D01*
X169171123Y151053459D01*
X169125973Y151049224D01*
X169089651Y151037441D01*
X169060314Y151018791D01*
X169036741Y150992984D01*
X169014220Y150950555D01*
X168999532Y150895985D01*
X168994145Y150826117D01*
X168892247Y150826117D01*
X168896528Y150891819D01*
X168908568Y150947457D01*
X168927515Y150994645D01*
X168954454Y151037523D01*
X168986818Y151072322D01*
X169024968Y151099914D01*
X169067730Y151119859D01*
X169115359Y151132112D01*
X169168876Y151136355D01*
X169232292Y151130890D01*
G37*
G36*
X168460669Y151048965D02*
G01*
X168611856Y151048965D01*
X168611856Y150524819D01*
X168710432Y150524819D01*
X168710432Y151048965D01*
X168815701Y151048965D01*
X168815701Y151094882D01*
X168710432Y151128490D01*
X168710432Y151163221D01*
X168706498Y151222576D01*
X168695854Y151268567D01*
X168679789Y151303869D01*
X168658897Y151330626D01*
X168631724Y151352240D01*
X168599492Y151368074D01*
X168561198Y151378070D01*
X168515526Y151381623D01*
X168480546Y151380018D01*
X168450020Y151375468D01*
X168399071Y151361449D01*
X168424815Y151284171D01*
X168466287Y151295357D01*
X168514403Y151300974D01*
X168545595Y151296986D01*
X168569452Y151285911D01*
X168587773Y151267904D01*
X168600134Y151244508D01*
X168608612Y151211065D01*
X168611856Y151164345D01*
X168611856Y151125120D01*
X168460669Y151125120D01*
X168460669Y151048965D01*
G37*
G36*
X168152288Y150594282D02*
G01*
X168106371Y150598190D01*
X168068269Y150606592D01*
X168068269Y150531561D01*
X168085792Y150524852D01*
X168113112Y150518665D01*
X168169092Y150513633D01*
X168214798Y150517779D01*
X168255896Y150529851D01*
X168280444Y150543168D01*
X168301816Y150561800D01*
X168320327Y150586418D01*
X168333191Y150614427D01*
X168341762Y150651364D01*
X168344947Y150699551D01*
X168344947Y151048965D01*
X168430041Y151048965D01*
X168430041Y151096006D01*
X168343824Y151135231D01*
X168304598Y151262921D01*
X168246371Y151262921D01*
X168246371Y151125120D01*
X168072763Y151125120D01*
X168072763Y151048965D01*
X168246371Y151048965D01*
X168246371Y150701798D01*
X168242992Y150666127D01*
X168233924Y150639806D01*
X168220041Y150620563D01*
X168201077Y150606112D01*
X168178814Y150597346D01*
X168152288Y150594282D01*
G37*
G36*
X172717578Y149180819D02*
G01*
X173246217Y149180819D01*
X173246217Y149262592D01*
X173036803Y149474253D01*
X172934905Y149581769D01*
X172897579Y149629727D01*
X172872184Y149674141D01*
X172856302Y149721195D01*
X172850886Y149773304D01*
X172855683Y149815625D01*
X172868938Y149848275D01*
X172890111Y149873541D01*
X172917989Y149892093D01*
X172951460Y149903606D01*
X172992009Y149907686D01*
X173047899Y149902412D01*
X173094494Y149887512D01*
X173138074Y149864107D01*
X173184619Y149831531D01*
X173237278Y149897623D01*
X173187331Y149933507D01*
X173129225Y149964253D01*
X173087703Y149979264D01*
X173042186Y149988514D01*
X172992009Y149991706D01*
X172935992Y149987740D01*
X172888756Y149976583D01*
X172848827Y149958977D01*
X172815031Y149935139D01*
X172787019Y149904730D01*
X172766933Y149869294D01*
X172754456Y149827835D01*
X172750062Y149778921D01*
X172752969Y149737689D01*
X172761568Y149698625D01*
X172775854Y149661294D01*
X172805973Y149607850D01*
X172847515Y149553192D01*
X172895927Y149499685D01*
X172955031Y149439522D01*
X173121898Y149274902D01*
X173121898Y149270408D01*
X172717578Y149270408D01*
X172717578Y149180819D01*
G37*
G36*
X172388171Y149989463D02*
G01*
X172428866Y149979924D01*
X172463898Y149964754D01*
X172494145Y149944078D01*
X172528282Y149908312D01*
X172556553Y149862153D01*
X172578702Y149803541D01*
X172592697Y149741784D01*
X172601775Y149668437D01*
X172605031Y149581769D01*
X172600265Y149482602D01*
X172587086Y149400764D01*
X172566891Y149333609D01*
X172540648Y149278810D01*
X172511778Y149239223D01*
X172478123Y149209214D01*
X172439165Y149187687D01*
X172393855Y149174328D01*
X172340711Y149169633D01*
X172292639Y149173045D01*
X172251584Y149182697D01*
X172216395Y149198020D01*
X172186154Y149218873D01*
X172151949Y149254998D01*
X172123480Y149301551D01*
X172101011Y149360582D01*
X172086692Y149422747D01*
X172077447Y149495942D01*
X172074145Y149581769D01*
X172173796Y149581769D01*
X172176851Y149495233D01*
X172185089Y149427258D01*
X172197277Y149374712D01*
X172212435Y149334790D01*
X172235502Y149298611D01*
X172263851Y149273883D01*
X172298294Y149258888D01*
X172340711Y149253604D01*
X172383648Y149258957D01*
X172418199Y149274095D01*
X172446347Y149298990D01*
X172468939Y149335376D01*
X172487983Y149391535D01*
X172501330Y149471403D01*
X172506454Y149581769D01*
X172501340Y149691387D01*
X172488001Y149770924D01*
X172468939Y149827037D01*
X172446347Y149863424D01*
X172418199Y149888319D01*
X172383648Y149903457D01*
X172340711Y149908810D01*
X172298336Y149903499D01*
X172263904Y149888418D01*
X172235537Y149863518D01*
X172212435Y149827037D01*
X172197224Y149786853D01*
X172185039Y149734402D01*
X172176832Y149667027D01*
X172173796Y149581769D01*
X172074145Y149581769D01*
X172079053Y149681547D01*
X172092600Y149763502D01*
X172113326Y149830417D01*
X172140237Y149884727D01*
X172169677Y149923955D01*
X172203697Y149953693D01*
X172242808Y149975003D01*
X172288010Y149988202D01*
X172340711Y149992829D01*
X172388171Y149989463D01*
G37*
G36*
X171437355Y149180819D02*
G01*
X171965994Y149180819D01*
X171965994Y149262592D01*
X171756580Y149474253D01*
X171654682Y149581769D01*
X171617356Y149629727D01*
X171591960Y149674141D01*
X171576079Y149721195D01*
X171570662Y149773304D01*
X171575460Y149815625D01*
X171588715Y149848275D01*
X171609888Y149873541D01*
X171637766Y149892093D01*
X171671237Y149903606D01*
X171711786Y149907686D01*
X171767675Y149902412D01*
X171814270Y149887512D01*
X171857851Y149864107D01*
X171904396Y149831531D01*
X171957055Y149897623D01*
X171907107Y149933507D01*
X171849002Y149964253D01*
X171807479Y149979264D01*
X171761963Y149988514D01*
X171711786Y149991706D01*
X171655768Y149987740D01*
X171608532Y149976583D01*
X171568603Y149958977D01*
X171534808Y149935139D01*
X171506796Y149904730D01*
X171486710Y149869294D01*
X171474232Y149827835D01*
X171469839Y149778921D01*
X171472746Y149737689D01*
X171481344Y149698625D01*
X171495631Y149661294D01*
X171525750Y149607850D01*
X171567292Y149553192D01*
X171615704Y149499685D01*
X171674808Y149439522D01*
X171841674Y149274902D01*
X171841674Y149270408D01*
X171437355Y149270408D01*
X171437355Y149180819D01*
G37*
G36*
X171026427Y149986693D02*
G01*
X171087204Y149972824D01*
X171136643Y149951357D01*
X171181279Y149921110D01*
X171218180Y149885229D01*
X171248066Y149843304D01*
X171271600Y149796941D01*
X171289929Y149746685D01*
X171302972Y149692069D01*
X171314278Y149608108D01*
X171318066Y149522418D01*
X171313536Y149443015D01*
X171300995Y149377710D01*
X171281674Y149324190D01*
X171253627Y149274980D01*
X171221005Y149236656D01*
X171183684Y149207686D01*
X171141246Y149186641D01*
X171095595Y149173957D01*
X171045882Y149169633D01*
X170988487Y149174487D01*
X170939413Y149188296D01*
X170897138Y149210494D01*
X170860551Y149241294D01*
X170831344Y149278990D01*
X170809950Y149323457D01*
X170796460Y149376019D01*
X170791674Y149438398D01*
X170889127Y149438398D01*
X170892379Y149390171D01*
X170901277Y149351862D01*
X170914887Y149321593D01*
X170932798Y149297861D01*
X170964424Y149272922D01*
X171001915Y149257785D01*
X171047006Y149252480D01*
X171084021Y149256111D01*
X171115390Y149266459D01*
X171142260Y149283255D01*
X171165410Y149305541D01*
X171184386Y149331525D01*
X171199364Y149361657D01*
X171213688Y149409783D01*
X171218367Y149457449D01*
X171213059Y149492259D01*
X171196531Y149526912D01*
X171170785Y149557190D01*
X171135519Y149582355D01*
X171093857Y149598512D01*
X171043684Y149604190D01*
X170994140Y149598658D01*
X170956449Y149583476D01*
X170927766Y149559396D01*
X170906973Y149527468D01*
X170893847Y149487827D01*
X170889127Y149438398D01*
X170791674Y149438398D01*
X170796164Y149496446D01*
X170808741Y149544636D01*
X170828567Y149584754D01*
X170855519Y149618161D01*
X170889270Y149645412D01*
X170927843Y149665033D01*
X170972170Y149677205D01*
X171023510Y149681468D01*
X171070642Y149678087D01*
X171109328Y149668683D01*
X171141088Y149654016D01*
X171182557Y149623088D01*
X171212798Y149587386D01*
X171219490Y149587386D01*
X171213533Y149652308D01*
X171202735Y149711706D01*
X171184927Y149767249D01*
X171159602Y149814727D01*
X171137598Y149842247D01*
X171110724Y149865691D01*
X171078415Y149885265D01*
X171043126Y149899034D01*
X171000658Y149907882D01*
X170949602Y149911057D01*
X170898653Y149907686D01*
X170853272Y149897623D01*
X170853272Y149981643D01*
X170899776Y149989459D01*
X170951849Y149991706D01*
X171026427Y149986693D01*
G37*
D11*
G36*
X205304792Y143797674D02*
G01*
X205304792Y143342356D01*
X205306131Y143304114D01*
X205310537Y143274279D01*
X205315787Y143257276D01*
X205323046Y143242769D01*
X205325226Y143239412D01*
X205343862Y143219277D01*
X205370068Y143205204D01*
X205385404Y143201170D01*
X205401574Y143199511D01*
X205404324Y143199476D01*
X205422086Y143200708D01*
X205438169Y143204375D01*
X205451742Y143210012D01*
X205463751Y143217725D01*
X205482601Y143238689D01*
X205495297Y143268015D01*
X205501082Y143307460D01*
X205501258Y143316610D01*
X205501258Y143358331D01*
X205585707Y143358331D01*
X205585707Y143301528D01*
X205584479Y143277962D01*
X205580845Y143255837D01*
X205575054Y143235711D01*
X205567115Y143217107D01*
X205557296Y143200382D01*
X205545539Y143185266D01*
X205516681Y143160264D01*
X205480660Y143142328D01*
X205437340Y143132128D01*
X205405216Y143130148D01*
X205379994Y143131376D01*
X205356354Y143135008D01*
X205334926Y143140780D01*
X205315138Y143148685D01*
X205297436Y143158413D01*
X205281432Y143170046D01*
X205267349Y143183348D01*
X205255051Y143198381D01*
X205236030Y143233453D01*
X205224826Y143275357D01*
X205222088Y143312190D01*
X205222088Y143797674D01*
X205304792Y143797674D01*
G37*
G36*
X204926362Y143607800D02*
G01*
X204926362Y143150000D01*
X204848156Y143150000D01*
X204848156Y143792711D01*
X204899686Y143792711D01*
X204913841Y143748339D01*
X204929818Y143716780D01*
X204939494Y143705050D01*
X204950933Y143695423D01*
X204979367Y143681608D01*
X205026244Y143670583D01*
X205065947Y143664719D01*
X205065947Y143607800D01*
X204926362Y143607800D01*
G37*
G36*
X209984749Y131050000D02*
G01*
X209802514Y131592830D01*
X209802514Y131050000D01*
X209724269Y131050000D01*
X209724269Y131697674D01*
X209838961Y131697674D01*
X210027439Y131133519D01*
X210219446Y131697674D01*
X210334138Y131697674D01*
X210334138Y131050000D01*
X210255893Y131050000D01*
X210255893Y131592830D01*
X210071873Y131050000D01*
X209984749Y131050000D01*
G37*
G36*
X209072175Y131496478D02*
G01*
X209079227Y131528307D01*
X209088334Y131557506D01*
X209098719Y131582435D01*
X209110922Y131605080D01*
X209124215Y131624493D01*
X209139169Y131641855D01*
X209155318Y131656782D01*
X209173054Y131669777D01*
X209213302Y131689990D01*
X209261288Y131702777D01*
X209318910Y131707589D01*
X209321993Y131707600D01*
X209353236Y131706363D01*
X209382899Y131702664D01*
X209409886Y131696802D01*
X209435304Y131688700D01*
X209458358Y131678743D01*
X209479848Y131666721D01*
X209499311Y131652977D01*
X209517187Y131637288D01*
X209527338Y131626718D01*
X209560209Y131583764D01*
X209586561Y131533031D01*
X209605515Y131474910D01*
X209616093Y131410135D01*
X209618029Y131366199D01*
X209616796Y131331013D01*
X209613126Y131297076D01*
X209607181Y131265013D01*
X209598964Y131234374D01*
X209588750Y131205838D01*
X209576435Y131178873D01*
X209562401Y131154121D01*
X209546434Y131131061D01*
X209524701Y131105679D01*
X209505900Y131088337D01*
X209485877Y131073330D01*
X209465188Y131060953D01*
X209443210Y131050712D01*
X209394867Y131036450D01*
X209338360Y131030337D01*
X209325560Y131030148D01*
X209293514Y131031389D01*
X209263485Y131035113D01*
X209237002Y131040902D01*
X209212314Y131048902D01*
X209190361Y131058634D01*
X209170053Y131070394D01*
X209151797Y131083845D01*
X209135113Y131099234D01*
X209106439Y131135858D01*
X209083603Y131181407D01*
X209066818Y131237590D01*
X209058837Y131286442D01*
X209144177Y131286442D01*
X209151718Y131247679D01*
X209160895Y131215793D01*
X209173529Y131186328D01*
X209183108Y131169980D01*
X209194555Y131155283D01*
X209222829Y131130930D01*
X209258046Y131113684D01*
X209299931Y131104376D01*
X209324668Y131103043D01*
X209348617Y131104272D01*
X209371377Y131107915D01*
X209392584Y131113799D01*
X209412534Y131121894D01*
X209448333Y131144359D01*
X209478785Y131175145D01*
X209503565Y131214436D01*
X209521945Y131262541D01*
X209532851Y131319652D01*
X209535364Y131367091D01*
X209534134Y131402404D01*
X209530490Y131435579D01*
X209524731Y131465545D01*
X209516838Y131493348D01*
X209507283Y131517982D01*
X209495860Y131540467D01*
X209483158Y131560004D01*
X209468825Y131577422D01*
X209453434Y131592210D01*
X209436601Y131604892D01*
X209418722Y131615233D01*
X209399539Y131623434D01*
X209357520Y131633186D01*
X209331764Y131634667D01*
X209281450Y131629864D01*
X209258569Y131624079D01*
X209237780Y131616196D01*
X209220788Y131607099D01*
X209206440Y131596389D01*
X209203772Y131593916D01*
X209190691Y131580074D01*
X209179793Y131564353D01*
X209164399Y131527980D01*
X209156624Y131496478D01*
X209072175Y131496478D01*
G37*
G36*
X208539930Y131345300D02*
G01*
X208539930Y131050000D01*
X208457265Y131050000D01*
X208457265Y131697674D01*
X208539930Y131697674D01*
X208539930Y131418194D01*
X208873305Y131418194D01*
X208873305Y131697674D01*
X208955971Y131697674D01*
X208955971Y131050000D01*
X208873305Y131050000D01*
X208873305Y131345300D01*
X208539930Y131345300D01*
G37*
G36*
X208218498Y131142437D02*
G01*
X208310973Y131142437D01*
X208310973Y131050000D01*
X208218498Y131050000D01*
X208218498Y131142437D01*
G37*
G36*
X207978722Y131345300D02*
G01*
X207669348Y131345300D01*
X207669348Y131418194D01*
X207978722Y131418194D01*
X207978722Y131624741D01*
X207626658Y131624741D01*
X207626658Y131697674D01*
X208061387Y131697674D01*
X208061387Y131050000D01*
X207978722Y131050000D01*
X207978722Y131345300D01*
G37*
G36*
X207426121Y131697674D02*
G01*
X207509678Y131697674D01*
X207509678Y131050000D01*
X207426121Y131050000D01*
X207426121Y131697674D01*
G37*
G36*
X207272539Y131050000D02*
G01*
X207022721Y131050000D01*
X206994870Y131051233D01*
X206968340Y131054895D01*
X206943694Y131060784D01*
X206920397Y131068905D01*
X206898761Y131079062D01*
X206878520Y131091302D01*
X206842428Y131121786D01*
X206812086Y131160463D01*
X206787800Y131207722D01*
X206770249Y131264064D01*
X206760417Y131329923D01*
X206758746Y131373372D01*
X206841377Y131373372D01*
X206842615Y131336236D01*
X206846313Y131301996D01*
X206851970Y131272662D01*
X206859737Y131245890D01*
X206868923Y131223134D01*
X206879935Y131202661D01*
X206892075Y131185344D01*
X206905839Y131170114D01*
X206920753Y131157332D01*
X206937177Y131146544D01*
X206974485Y131131007D01*
X207018932Y131123490D01*
X207036951Y131122895D01*
X207189874Y131122895D01*
X207189874Y131624741D01*
X207036951Y131624741D01*
X207011213Y131623502D01*
X206987231Y131619797D01*
X206966158Y131614028D01*
X206946684Y131606072D01*
X206929401Y131596322D01*
X206913632Y131584554D01*
X206886846Y131555241D01*
X206865781Y131517214D01*
X206850664Y131468857D01*
X206842444Y131408119D01*
X206841377Y131373372D01*
X206758746Y131373372D01*
X206758712Y131374264D01*
X206759944Y131412090D01*
X206763601Y131447899D01*
X206769415Y131480648D01*
X206777410Y131511366D01*
X206787176Y131539099D01*
X206798890Y131564808D01*
X206812054Y131587729D01*
X206826961Y131608641D01*
X206843119Y131627028D01*
X206860853Y131643408D01*
X206879795Y131657512D01*
X206900187Y131669578D01*
X206944970Y131687347D01*
X206995485Y131696508D01*
X207022721Y131697674D01*
X207272539Y131697674D01*
X207272539Y131050000D01*
G37*
G36*
X206540378Y131142437D02*
G01*
X206632853Y131142437D01*
X206632853Y131050000D01*
X206540378Y131050000D01*
X206540378Y131142437D01*
G37*
G36*
X206233020Y131507800D02*
G01*
X206233020Y131050000D01*
X206154814Y131050000D01*
X206154814Y131692711D01*
X206206344Y131692711D01*
X206220499Y131648339D01*
X206236476Y131616780D01*
X206246152Y131605050D01*
X206257591Y131595423D01*
X206286025Y131581608D01*
X206332902Y131570583D01*
X206372605Y131564719D01*
X206372605Y131507800D01*
X206233020Y131507800D01*
G37*
D12*
G36*
X176441652Y165691888D02*
G01*
X176441652Y164250000D01*
X176195334Y164250000D01*
X176195334Y166274285D01*
X176357633Y166274285D01*
X176402216Y166134531D01*
X176452536Y166035132D01*
X176483013Y165998188D01*
X176519039Y165967866D01*
X176608597Y165924355D01*
X176756239Y165889631D01*
X176881290Y165871162D01*
X176881290Y165691888D01*
X176441652Y165691888D01*
G37*
D13*
G36*
X197803644Y155309334D02*
G01*
X197867730Y155306504D01*
X197913687Y155294508D01*
X197940359Y155282773D01*
X197970614Y155266186D01*
X197998148Y155246598D01*
X198044337Y155199387D01*
X198079887Y155140559D01*
X198104748Y155068646D01*
X198117836Y154981658D01*
X198119389Y154935581D01*
X198117455Y154886433D01*
X198111729Y154840329D01*
X198102666Y154798664D01*
X198090255Y154760113D01*
X198075174Y154725925D01*
X198057159Y154694876D01*
X198036990Y154667884D01*
X198014241Y154644049D01*
X197989576Y154623884D01*
X197962607Y154606933D01*
X197933650Y154593382D01*
X197902585Y154583184D01*
X197833907Y154573195D01*
X197820375Y154572942D01*
X197784676Y154574899D01*
X197751694Y154580779D01*
X197723314Y154589836D01*
X197697280Y154602348D01*
X197674293Y154617766D01*
X197653482Y154636448D01*
X197618035Y154684172D01*
X197590251Y154748601D01*
X197583154Y154773160D01*
X197516170Y155026562D01*
X197501563Y155075397D01*
X197484828Y155116482D01*
X197468646Y155145752D01*
X197450695Y155169620D01*
X197433067Y155186506D01*
X197413883Y155199290D01*
X197372702Y155212677D01*
X197351490Y155214140D01*
X197303205Y155206730D01*
X197255445Y155184223D01*
X197234363Y155167959D01*
X197216306Y155148954D01*
X197210562Y155141356D01*
X197187442Y155096206D01*
X197172148Y155031004D01*
X197167331Y154953778D01*
X197169306Y154903843D01*
X197175319Y154859186D01*
X197184069Y154823978D01*
X197196143Y154792446D01*
X197210363Y154766361D01*
X197227579Y154743103D01*
X197252449Y154718572D01*
X197277907Y154699610D01*
X197304619Y154684917D01*
X197359305Y154668507D01*
X197408704Y154665388D01*
X197408704Y154542167D01*
X197357675Y154544926D01*
X197312738Y154551731D01*
X197277869Y154561078D01*
X197245939Y154573799D01*
X197197983Y154602373D01*
X197170726Y154624548D01*
X197146272Y154649467D01*
X197105702Y154707494D01*
X197075995Y154777497D01*
X197057814Y154861052D01*
X197052536Y154945351D01*
X197054471Y154999516D01*
X197060194Y155050311D01*
X197069221Y155095996D01*
X197081573Y155138089D01*
X197096365Y155174712D01*
X197113995Y155207678D01*
X197130877Y155232337D01*
X197176612Y155277723D01*
X197234831Y155314030D01*
X197267329Y155327482D01*
X197301017Y155337177D01*
X197364068Y155344383D01*
X197397561Y155342443D01*
X197429288Y155336677D01*
X197458535Y155327411D01*
X197485912Y155314639D01*
X197534463Y155279105D01*
X197575027Y155229884D01*
X197606919Y155166059D01*
X197619424Y155127373D01*
X197687812Y154871162D01*
X197704260Y154818403D01*
X197722350Y154776641D01*
X197737531Y154751977D01*
X197754434Y154732746D01*
X197770856Y154720137D01*
X197789073Y154711178D01*
X197831755Y154703300D01*
X197838510Y154703184D01*
X197863950Y154705111D01*
X197887770Y154710783D01*
X197929879Y154732574D01*
X197964703Y154768057D01*
X197991122Y154817603D01*
X198006916Y154881456D01*
X198010152Y154931368D01*
X198008207Y154975600D01*
X198002411Y155015890D01*
X197993612Y155049752D01*
X197981574Y155080048D01*
X197967397Y155105132D01*
X197950455Y155126959D01*
X197931647Y155144775D01*
X197910363Y155159485D01*
X197860861Y155179285D01*
X197803644Y155186175D01*
X197803644Y155309334D01*
G37*
G36*
X197495908Y156120189D02*
G01*
X197562979Y156113677D01*
X197605190Y156105433D01*
X197642031Y156094067D01*
X197645192Y156092865D01*
X197677039Y156078144D01*
X197706381Y156060347D01*
X197757283Y156016021D01*
X197796838Y155961095D01*
X197823825Y155896844D01*
X197832207Y155861618D01*
X197836942Y155824709D01*
X197838021Y155796049D01*
X197836086Y155757265D01*
X197830356Y155720410D01*
X197821103Y155686062D01*
X197808379Y155653772D01*
X197792398Y155623804D01*
X197773199Y155596052D01*
X197725321Y155547348D01*
X197664767Y155508190D01*
X197591350Y155479652D01*
X197505007Y155463304D01*
X197441432Y155460093D01*
X197390726Y155462030D01*
X197343085Y155467776D01*
X197300030Y155476861D01*
X197260056Y155489326D01*
X197224455Y155504495D01*
X197191922Y155522652D01*
X197163369Y155543056D01*
X197137881Y155566125D01*
X197115945Y155591263D01*
X197097122Y155618823D01*
X197069248Y155680583D01*
X197054588Y155751823D01*
X197052536Y155793240D01*
X197054473Y155833855D01*
X197060212Y155872223D01*
X197069388Y155907414D01*
X197081993Y155940238D01*
X197097605Y155970045D01*
X197116334Y155997360D01*
X197137872Y156021862D01*
X197162288Y156043713D01*
X197219545Y156079127D01*
X197288254Y156102889D01*
X197307160Y156106848D01*
X197307160Y155989245D01*
X197274845Y155976421D01*
X197246452Y155960828D01*
X197223377Y155943698D01*
X197203838Y155924218D01*
X197188382Y155903264D01*
X197176271Y155880212D01*
X197162212Y155828030D01*
X197160309Y155797453D01*
X197162247Y155767143D01*
X197168002Y155738337D01*
X197177291Y155711681D01*
X197190092Y155686873D01*
X197206139Y155664324D01*
X197225457Y155643966D01*
X197255380Y155621049D01*
X197281778Y155605894D01*
X197309836Y155594905D01*
X197372557Y155583722D01*
X197412062Y155581848D01*
X197412062Y155584657D01*
X197507256Y155584657D01*
X197543543Y155589228D01*
X197577202Y155597361D01*
X197607493Y155608632D01*
X197634885Y155622989D01*
X197658667Y155639830D01*
X197679342Y155659296D01*
X197696397Y155680729D01*
X197710157Y155704377D01*
X197720350Y155729743D01*
X197727024Y155756980D01*
X197730188Y155794645D01*
X197728266Y155823890D01*
X197722625Y155851424D01*
X197713449Y155877093D01*
X197700931Y155900717D01*
X197666300Y155941456D01*
X197619697Y155972198D01*
X197562214Y155991079D01*
X197507256Y155996267D01*
X197507256Y155584657D01*
X197412062Y155584657D01*
X197412062Y156122235D01*
X197495908Y156120189D01*
G37*
G36*
X197818482Y156279711D02*
G01*
X197083800Y156279711D01*
X197083800Y156397314D01*
X197488998Y156397314D01*
X197528399Y156399240D01*
X197565047Y156404909D01*
X197597907Y156413876D01*
X197627754Y156426086D01*
X197653547Y156440822D01*
X197676163Y156458307D01*
X197694836Y156477688D01*
X197710214Y156499383D01*
X197721907Y156522707D01*
X197730146Y156548005D01*
X197735806Y156596128D01*
X197733882Y156624816D01*
X197728230Y156650970D01*
X197719391Y156673666D01*
X197707398Y156693646D01*
X197692839Y156710333D01*
X197675590Y156724122D01*
X197633883Y156742303D01*
X197591703Y156747314D01*
X197083800Y156747314D01*
X197083800Y156863512D01*
X197637864Y156863512D01*
X197667817Y156861583D01*
X197695780Y156855893D01*
X197721190Y156846785D01*
X197744436Y156834329D01*
X197783845Y156800061D01*
X197813556Y156753424D01*
X197832275Y156694280D01*
X197838021Y156631115D01*
X197836532Y156592457D01*
X197830898Y156556997D01*
X197822159Y156527588D01*
X197809793Y156500176D01*
X197774833Y156451547D01*
X197721893Y156405446D01*
X197695261Y156387544D01*
X197818482Y156387544D01*
X197818482Y156279711D01*
G37*
G36*
X197612830Y157572610D02*
G01*
X197647399Y157570330D01*
X197679306Y157564235D01*
X197707141Y157554953D01*
X197732453Y157542334D01*
X197754590Y157526923D01*
X197774241Y157508468D01*
X197805935Y157462534D01*
X197827521Y157403043D01*
X197837585Y157327774D01*
X197838021Y157306630D01*
X197836093Y157263960D01*
X197830413Y157224151D01*
X197821418Y157188296D01*
X197809152Y157155517D01*
X197794313Y157126904D01*
X197776679Y157101494D01*
X197757095Y157080122D01*
X197735139Y157062038D01*
X197711541Y157047701D01*
X197685906Y157036767D01*
X197658577Y157029416D01*
X197629458Y157025676D01*
X197614234Y157025201D01*
X197580023Y157027220D01*
X197549466Y157033539D01*
X197526193Y157042547D01*
X197505103Y157055160D01*
X197470128Y157090175D01*
X197439571Y157144094D01*
X197410776Y157228466D01*
X197403330Y157257598D01*
X197376830Y157366775D01*
X197365480Y157405275D01*
X197351901Y157435182D01*
X197339368Y157453044D01*
X197324991Y157466189D01*
X197293777Y157478828D01*
X197276263Y157480226D01*
X197256545Y157478304D01*
X197238304Y157472669D01*
X197206591Y157450879D01*
X197181393Y157414476D01*
X197164878Y157362317D01*
X197160309Y157309378D01*
X197162225Y157274729D01*
X197167825Y157242751D01*
X197176598Y157214744D01*
X197188441Y157190348D01*
X197209218Y157163809D01*
X197228696Y157149957D01*
X197253011Y157139974D01*
X197302763Y157130226D01*
X197302763Y157007005D01*
X197262042Y157010317D01*
X197225015Y157017440D01*
X197194226Y157027368D01*
X197166516Y157040553D01*
X197143102Y157056056D01*
X197122416Y157074514D01*
X197089535Y157119666D01*
X197066584Y157178369D01*
X197054160Y157254593D01*
X197052536Y157299608D01*
X197054466Y157345035D01*
X197060154Y157387394D01*
X197069140Y157425431D01*
X197081397Y157460232D01*
X197096181Y157490556D01*
X197113756Y157517566D01*
X197133209Y157540307D01*
X197155028Y157559700D01*
X197178400Y157575212D01*
X197203805Y157587310D01*
X197230822Y157595796D01*
X197259633Y157600706D01*
X197284628Y157601981D01*
X197316720Y157600002D01*
X197345866Y157593969D01*
X197369723Y157584941D01*
X197391428Y157572398D01*
X197427875Y157537563D01*
X197458617Y157485727D01*
X197484956Y157409230D01*
X197488571Y157394802D01*
X197515071Y157282816D01*
X197527850Y157237156D01*
X197542641Y157201369D01*
X197555801Y157180070D01*
X197570633Y157164232D01*
X197584971Y157154765D01*
X197600840Y157149079D01*
X197619851Y157147017D01*
X197640330Y157148943D01*
X197658982Y157154606D01*
X197689945Y157176004D01*
X197713249Y157211245D01*
X197727405Y157261971D01*
X197730188Y157302417D01*
X197728243Y157336002D01*
X197722439Y157365345D01*
X197713969Y157388064D01*
X197702458Y157407276D01*
X197689070Y157421950D01*
X197673118Y157433536D01*
X197633986Y157447265D01*
X197612830Y157449390D01*
X197612830Y157572610D01*
G37*
G36*
X197493948Y158370990D02*
G01*
X197544582Y158365207D01*
X197589331Y158356189D01*
X197630624Y158343807D01*
X197666719Y158328917D01*
X197699544Y158311069D01*
X197727973Y158291161D01*
X197753268Y158268609D01*
X197774902Y158244064D01*
X197793442Y158217080D01*
X197820976Y158156151D01*
X197835741Y158084730D01*
X197838021Y158039725D01*
X197836082Y157999477D01*
X197830319Y157961531D01*
X197821143Y157926943D01*
X197808518Y157894656D01*
X197792836Y157865243D01*
X197773976Y157838172D01*
X197727132Y157791388D01*
X197667578Y157754194D01*
X197594354Y157727262D01*
X197506359Y157712029D01*
X197445218Y157709325D01*
X197392936Y157711265D01*
X197343979Y157717025D01*
X197300163Y157726078D01*
X197259601Y157738501D01*
X197223778Y157753538D01*
X197191120Y157771546D01*
X197162636Y157791712D01*
X197137255Y157814526D01*
X197115485Y157839368D01*
X197096826Y157866630D01*
X197069200Y157927905D01*
X197054613Y157999056D01*
X197052536Y158041129D01*
X197160309Y158041129D01*
X197162245Y158011651D01*
X197167982Y157984091D01*
X197177146Y157959121D01*
X197189729Y157936134D01*
X197224765Y157896413D01*
X197273691Y157864867D01*
X197337881Y157842598D01*
X197418647Y157831759D01*
X197445218Y157831141D01*
X197491585Y157833074D01*
X197534360Y157838785D01*
X197571762Y157847664D01*
X197605578Y157859768D01*
X197634253Y157874153D01*
X197659434Y157891251D01*
X197680087Y157910003D01*
X197697338Y157931050D01*
X197710729Y157953604D01*
X197720711Y157978166D01*
X197730040Y158032818D01*
X197730188Y158041129D01*
X197728250Y158070874D01*
X197722499Y158098615D01*
X197713356Y158123563D01*
X197700794Y158146490D01*
X197665884Y158185912D01*
X197617023Y158217188D01*
X197552513Y158239381D01*
X197470551Y158250400D01*
X197441066Y158251117D01*
X197396136Y158249187D01*
X197354548Y158243495D01*
X197317804Y158234585D01*
X197284491Y158222445D01*
X197255999Y158207938D01*
X197230932Y158190711D01*
X197210266Y158171767D01*
X197192995Y158150531D01*
X197179585Y158127799D01*
X197169609Y158103091D01*
X197160426Y158048451D01*
X197160309Y158041129D01*
X197052536Y158041129D01*
X197054475Y158081411D01*
X197060226Y158119422D01*
X197069407Y158154199D01*
X197082030Y158186681D01*
X197097729Y158216342D01*
X197116595Y158243645D01*
X197163407Y158290853D01*
X197222719Y158328311D01*
X197295271Y158355301D01*
X197381896Y158370391D01*
X197439661Y158372933D01*
X197493948Y158370990D01*
G37*
G36*
X197818482Y158533218D02*
G01*
X197083800Y158533218D01*
X197083800Y158650759D01*
X197465124Y158650759D01*
X197512825Y158653107D01*
X197555292Y158659405D01*
X197588532Y158668330D01*
X197617801Y158680468D01*
X197641110Y158694411D01*
X197661194Y158711128D01*
X197690861Y158751159D01*
X197709307Y158802860D01*
X197716293Y158870687D01*
X197716144Y158885965D01*
X197835274Y158885965D01*
X197836502Y158869763D01*
X197838021Y158841208D01*
X197836033Y158814611D01*
X197829931Y158789304D01*
X197806568Y158744143D01*
X197764618Y158698869D01*
X197694561Y158647603D01*
X197683965Y158640990D01*
X197818482Y158640990D01*
X197818482Y158533218D01*
G37*
G36*
X197803644Y160125803D02*
G01*
X197867730Y160122973D01*
X197913687Y160110977D01*
X197940359Y160099242D01*
X197970614Y160082655D01*
X197998148Y160063067D01*
X198044337Y160015856D01*
X198079887Y159957028D01*
X198104748Y159885115D01*
X198117836Y159798127D01*
X198119389Y159752050D01*
X198117455Y159702902D01*
X198111729Y159656798D01*
X198102666Y159615133D01*
X198090255Y159576581D01*
X198075174Y159542394D01*
X198057159Y159511345D01*
X198036990Y159484353D01*
X198014241Y159460518D01*
X197989576Y159440353D01*
X197962607Y159423401D01*
X197933650Y159409851D01*
X197902585Y159399652D01*
X197833907Y159389664D01*
X197820375Y159389411D01*
X197784676Y159391367D01*
X197751694Y159397248D01*
X197723314Y159406305D01*
X197697280Y159418817D01*
X197674293Y159434235D01*
X197653482Y159452917D01*
X197618035Y159500641D01*
X197590251Y159565070D01*
X197583154Y159589629D01*
X197516170Y159843031D01*
X197501563Y159891866D01*
X197484828Y159932951D01*
X197468646Y159962221D01*
X197450695Y159986089D01*
X197433067Y160002975D01*
X197413883Y160015759D01*
X197372702Y160029146D01*
X197351490Y160030609D01*
X197303205Y160023198D01*
X197255445Y160000692D01*
X197234363Y159984428D01*
X197216306Y159965423D01*
X197210562Y159957825D01*
X197187442Y159912675D01*
X197172148Y159847473D01*
X197167331Y159770246D01*
X197169306Y159720312D01*
X197175319Y159675655D01*
X197184069Y159640447D01*
X197196143Y159608915D01*
X197210363Y159582830D01*
X197227579Y159559572D01*
X197252449Y159535041D01*
X197277907Y159516079D01*
X197304619Y159501386D01*
X197359305Y159484975D01*
X197408704Y159481857D01*
X197408704Y159358636D01*
X197357675Y159361395D01*
X197312738Y159368200D01*
X197277869Y159377546D01*
X197245939Y159390268D01*
X197197983Y159418842D01*
X197170726Y159441017D01*
X197146272Y159465936D01*
X197105702Y159523963D01*
X197075995Y159593966D01*
X197057814Y159677521D01*
X197052536Y159761820D01*
X197054471Y159815985D01*
X197060194Y159866780D01*
X197069221Y159912465D01*
X197081573Y159954558D01*
X197096365Y159991181D01*
X197113995Y160024147D01*
X197130877Y160048805D01*
X197176612Y160094192D01*
X197234831Y160130499D01*
X197267329Y160143951D01*
X197301017Y160153646D01*
X197364068Y160160852D01*
X197397561Y160158912D01*
X197429288Y160153146D01*
X197458535Y160143880D01*
X197485912Y160131108D01*
X197534463Y160095574D01*
X197575027Y160046353D01*
X197606919Y159982528D01*
X197619424Y159943842D01*
X197687812Y159687631D01*
X197704260Y159634872D01*
X197722350Y159593110D01*
X197737531Y159568446D01*
X197754434Y159549215D01*
X197770856Y159536606D01*
X197789073Y159527647D01*
X197831755Y159519769D01*
X197838510Y159519653D01*
X197863950Y159521580D01*
X197887770Y159527252D01*
X197929879Y159549043D01*
X197964703Y159584526D01*
X197991122Y159634071D01*
X198006916Y159697925D01*
X198010152Y159747837D01*
X198008207Y159792069D01*
X198002411Y159832359D01*
X197993612Y159866221D01*
X197981574Y159896517D01*
X197967397Y159921601D01*
X197950455Y159943428D01*
X197931647Y159961244D01*
X197910363Y159975954D01*
X197860861Y159995754D01*
X197803644Y160002644D01*
X197803644Y160125803D01*
G37*
G36*
X197818482Y160430557D02*
G01*
X197818482Y160314358D01*
X197083800Y160314358D01*
X197083800Y160430557D01*
X197818482Y160430557D01*
G37*
G36*
X198103758Y160430557D02*
G01*
X198103758Y160312954D01*
X197956723Y160312954D01*
X197956723Y160430557D01*
X198103758Y160430557D01*
G37*
G36*
X198103758Y161108026D02*
G01*
X197724571Y161108026D01*
X197750156Y161088801D01*
X197772571Y161067064D01*
X197807381Y161017105D01*
X197829372Y160958146D01*
X197837953Y160889669D01*
X197838021Y160882589D01*
X197836088Y160846126D01*
X197830366Y160811447D01*
X197821094Y160778984D01*
X197808346Y160748460D01*
X197772909Y160693630D01*
X197724387Y160647242D01*
X197662709Y160610092D01*
X197587752Y160583551D01*
X197499696Y160569425D01*
X197452240Y160567638D01*
X197399238Y160569576D01*
X197349451Y160575321D01*
X197304531Y160584394D01*
X197262864Y160596839D01*
X197225946Y160611919D01*
X197192270Y160629958D01*
X197162968Y160650081D01*
X197136884Y160672809D01*
X197114694Y160697346D01*
X197095733Y160724213D01*
X197080278Y160752939D01*
X197068144Y160783805D01*
X197054167Y160851915D01*
X197052536Y160886803D01*
X197053411Y160903594D01*
X197161713Y160903594D01*
X197163642Y160875050D01*
X197169333Y160848113D01*
X197191261Y160799739D01*
X197226911Y160758531D01*
X197276499Y160725275D01*
X197340373Y160701679D01*
X197418269Y160690126D01*
X197445218Y160689393D01*
X197488513Y160691318D01*
X197528965Y160696978D01*
X197565612Y160705972D01*
X197599107Y160718219D01*
X197628330Y160733017D01*
X197654214Y160750560D01*
X197675794Y160769898D01*
X197693936Y160791509D01*
X197708052Y160814449D01*
X197718642Y160839272D01*
X197725461Y160865367D01*
X197728587Y160893052D01*
X197728784Y160902190D01*
X197726850Y160930382D01*
X197721130Y160956849D01*
X197711915Y160981137D01*
X197699262Y161003576D01*
X197663729Y161042878D01*
X197613862Y161074421D01*
X197548508Y161096748D01*
X197466906Y161107478D01*
X197441982Y161108026D01*
X197398110Y161106100D01*
X197357208Y161100435D01*
X197320392Y161091467D01*
X197286848Y161079258D01*
X197257853Y161064590D01*
X197232289Y161047204D01*
X197211223Y161028153D01*
X197193650Y161006866D01*
X197180188Y160984364D01*
X197170279Y160960011D01*
X197164157Y160934426D01*
X197161746Y160907266D01*
X197161713Y160903594D01*
X197053411Y160903594D01*
X197054525Y160924963D01*
X197060630Y160960260D01*
X197069842Y160989918D01*
X197082727Y161017745D01*
X197118947Y161067595D01*
X197173361Y161115020D01*
X197181252Y161120604D01*
X197083800Y161120604D01*
X197083800Y161224224D01*
X198103758Y161224224D01*
X198103758Y161108026D01*
G37*
G36*
X197495908Y162025004D02*
G01*
X197562979Y162018492D01*
X197605190Y162010248D01*
X197642031Y161998882D01*
X197645192Y161997680D01*
X197677039Y161982959D01*
X197706381Y161965162D01*
X197757283Y161920836D01*
X197796838Y161865910D01*
X197823825Y161801659D01*
X197832207Y161766434D01*
X197836942Y161729524D01*
X197838021Y161700864D01*
X197836086Y161662080D01*
X197830356Y161625225D01*
X197821103Y161590877D01*
X197808379Y161558587D01*
X197792398Y161528619D01*
X197773199Y161500867D01*
X197725321Y161452163D01*
X197664767Y161413005D01*
X197591350Y161384468D01*
X197505007Y161368119D01*
X197441432Y161364908D01*
X197390726Y161366845D01*
X197343085Y161372591D01*
X197300030Y161381677D01*
X197260056Y161394141D01*
X197224455Y161409310D01*
X197191922Y161427467D01*
X197163369Y161447871D01*
X197137881Y161470940D01*
X197115945Y161496078D01*
X197097122Y161523638D01*
X197069248Y161585398D01*
X197054588Y161656638D01*
X197052536Y161698055D01*
X197054473Y161738670D01*
X197060212Y161777038D01*
X197069388Y161812229D01*
X197081993Y161845053D01*
X197097605Y161874860D01*
X197116334Y161902176D01*
X197137872Y161926677D01*
X197162288Y161948528D01*
X197219545Y161983943D01*
X197288254Y162007704D01*
X197307160Y162011663D01*
X197307160Y161894060D01*
X197274845Y161881236D01*
X197246452Y161865643D01*
X197223377Y161848513D01*
X197203838Y161829033D01*
X197188382Y161808079D01*
X197176271Y161785027D01*
X197162212Y161732845D01*
X197160309Y161702268D01*
X197162247Y161671958D01*
X197168002Y161643152D01*
X197177291Y161616496D01*
X197190092Y161591688D01*
X197206139Y161569139D01*
X197225457Y161548781D01*
X197255380Y161525864D01*
X197281778Y161510709D01*
X197309836Y161499720D01*
X197372557Y161488537D01*
X197412062Y161486663D01*
X197412062Y161489472D01*
X197507256Y161489472D01*
X197543543Y161494043D01*
X197577202Y161502177D01*
X197607493Y161513447D01*
X197634885Y161527804D01*
X197658667Y161544645D01*
X197679342Y161564111D01*
X197696397Y161585544D01*
X197710157Y161609192D01*
X197720350Y161634558D01*
X197727024Y161661796D01*
X197730188Y161699460D01*
X197728266Y161728706D01*
X197722625Y161756240D01*
X197713449Y161781908D01*
X197700931Y161805532D01*
X197666300Y161846271D01*
X197619697Y161877013D01*
X197562214Y161895894D01*
X197507256Y161901082D01*
X197507256Y161489472D01*
X197412062Y161489472D01*
X197412062Y162027050D01*
X197495908Y162025004D01*
G37*
%TO.C,U2*%
D14*
X178033800Y164275000D02*
X180008800Y164275000D01*
%TD*%
%LPC*%
D15*
%TO.C,J3*%
X159788629Y167687607D03*
X161727444Y162242481D03*
D16*
X159779987Y169202475D03*
D17*
X155842164Y167800357D03*
D16*
X162678148Y161063048D03*
D17*
X158740323Y159660930D03*
%TD*%
D18*
%TO.C,CJ7*%
X212200790Y193250000D03*
%TD*%
%TO.C,CJ5*%
X204200790Y193250000D03*
%TD*%
%TO.C,CJ6*%
X208200790Y193250000D03*
%TD*%
%TO.C,CJ2*%
X192200790Y193250000D03*
%TD*%
%TO.C,CJ9*%
X220200790Y193250000D03*
%TD*%
%TO.C,CJ4*%
X200200790Y193250000D03*
%TD*%
D19*
%TO.C,SW2*%
X220800790Y132850000D03*
X220800790Y136850000D03*
%TD*%
D18*
%TO.C,CJ3*%
X196200790Y193250000D03*
%TD*%
%TO.C,CJ1*%
X188200790Y193250000D03*
%TD*%
D19*
%TO.C,SW1*%
X191600790Y132775000D03*
X191600790Y136775010D03*
%TD*%
D18*
%TO.C,CJ8*%
X216200790Y193250000D03*
%TD*%
D20*
%TO.C,MCH.SP.22*%
X180600790Y135450000D03*
%TD*%
%TO.C,MCH.SP.9*%
X182400790Y191550000D03*
%TD*%
%TO.C,MCH.SP.21*%
X158800790Y175550000D03*
%TD*%
%TO.C,MCH.SP.26*%
X167100790Y148050000D03*
%TD*%
%TO.C,MCH.SP.19*%
X172700790Y147750000D03*
%TD*%
D19*
%TO.C,*%
X225600790Y186850000D03*
%TD*%
D20*
%TO.C,MCH.SP.8*%
X204200790Y129950000D03*
%TD*%
%TO.C,MCH.SP.20*%
X231200790Y165850000D03*
%TD*%
%TO.C,MCH.SP.24*%
X225800790Y132749990D03*
%TD*%
%TO.C,MCH.SP.16*%
X173900790Y181850000D03*
%TD*%
%TO.C,MCH.SP.14*%
X180100790Y186150000D03*
%TD*%
D21*
%TO.C,J1*%
X202300790Y145750000D03*
D22*
X204840790Y145750000D03*
%TD*%
D20*
%TO.C,MCH.SP.28*%
X177500790Y183450000D03*
%TD*%
%TO.C,MCH.SP.10*%
X224600790Y191350000D03*
%TD*%
D19*
%TO.C,*%
X203600790Y186850000D03*
%TD*%
D20*
%TO.C,MCH.SP.17*%
X176500790Y143750000D03*
%TD*%
D19*
%TO.C,*%
X187900790Y174709000D03*
%TD*%
D20*
%TO.C,MCH.SP.6*%
X162100790Y149150000D03*
%TD*%
%TO.C,MCH.SP.11*%
X210200790Y129950000D03*
%TD*%
%TO.C,MCH.SP.13*%
X181000790Y189050000D03*
%TD*%
%TO.C,MCH.SP.5*%
X229000790Y191350000D03*
%TD*%
%TO.C,MCH.SP.18*%
X187800790Y133150000D03*
%TD*%
%TO.C,MCH.SP.23*%
X160200790Y153450000D03*
%TD*%
D23*
%TO.C,MCH.FID.1*%
X213600790Y130850000D03*
%TD*%
D20*
%TO.C,MCH.SP.25*%
X178000790Y138250000D03*
%TD*%
%TO.C,MCH.SP.1*%
X231300790Y151450000D03*
%TD*%
D23*
%TO.C,MCH.FID.2*%
X166600790Y182850000D03*
%TD*%
D20*
%TO.C,MCH.SP.3*%
X198500790Y129950000D03*
%TD*%
%TO.C,MCH.SP.7*%
X217000790Y129950000D03*
%TD*%
%TO.C,MCH.SP.2*%
X160700790Y180450000D03*
%TD*%
%TO.C,MCH.SP.4*%
X163900790Y184550000D03*
%TD*%
%TO.C,MCH.SP.12*%
X229400790Y137950000D03*
%TD*%
D24*
%TO.C,U2*%
X187733810Y158925000D03*
D25*
X181933800Y164275000D03*
X183711800Y164275000D03*
X185489800Y164275000D03*
X187267800Y164275000D03*
X189045800Y164275000D03*
X190823800Y164275000D03*
X192601800Y164275000D03*
X194379800Y164275000D03*
X195268800Y153575000D03*
X193490800Y153575000D03*
X191712800Y153575000D03*
X189934800Y153575000D03*
X188156800Y153575000D03*
X186378800Y153575000D03*
X184600800Y153575000D03*
X182822800Y153575000D03*
%TD*%
D20*
%TO.C,MCH.SP.15*%
X169500790Y182650000D03*
%TD*%
%TO.C,MCH.SP.27*%
X185600790Y191750010D03*
%TD*%
%LPD*%
M02*
