%TF.GenerationSoftware,KiCad,Pcbnew,10.0.5*%
%TF.CreationDate,2026-07-27T15:46:34-07:00*%
%TF.ProjectId,Base,42617365-2e6b-4696-9361-645f70636258,rev?*%
%TF.SameCoordinates,Original*%
%TF.FileFunction,Soldermask,Top*%
%TF.FilePolarity,Negative*%
%FSLAX46Y46*%
G04 Gerber Fmt 4.6, Leading zero omitted, Abs format (unit mm)*
G04 Created by KiCad (PCBNEW 10.0.5) date 2026-07-27 15:46:34*
%MOMM*%
%LPD*%
G01*
G04 APERTURE LIST*
G04 Aperture macros list*
%AMRoundRect*
0 Rectangle with rounded corners*
0 $1 Rounding radius*
0 $2 $3 $4 $5 $6 $7 $8 $9 X,Y pos of 4 corners*
0 Add a 4 corners polygon primitive as box body*
4,1,4,$2,$3,$4,$5,$6,$7,$8,$9,$2,$3,0*
0 Add four circle primitives for the rounded corners*
1,1,$1+$1,$2,$3*
1,1,$1+$1,$4,$5*
1,1,$1+$1,$6,$7*
1,1,$1+$1,$8,$9*
0 Add four rect primitives between the rounded corners*
20,1,$1+$1,$2,$3,$4,$5,0*
20,1,$1+$1,$4,$5,$6,$7,0*
20,1,$1+$1,$6,$7,$8,$9,0*
20,1,$1+$1,$8,$9,$2,$3,0*%
%AMHorizOval*
0 Thick line with rounded ends*
0 $1 width*
0 $2 $3 position (X,Y) of the first rounded end (center of the circle)*
0 $4 $5 position (X,Y) of the second rounded end (center of the circle)*
0 Add line between two ends*
20,1,$1,$2,$3,$4,$5,0*
0 Add two circle primitives to create the rounded ends*
1,1,$1,$2,$3*
1,1,$1,$4,$5*%
%AMFreePoly0*
4,1,18,-0.437500,0.050000,-0.433694,0.069134,-0.422855,0.085355,-0.406634,0.096194,-0.387500,0.100000,0.387500,0.100000,0.437500,0.050000,0.437500,-0.050000,0.433694,-0.069134,0.422855,-0.085355,0.406634,-0.096194,0.387500,-0.100000,-0.387500,-0.100000,-0.406634,-0.096194,-0.422855,-0.085355,-0.433694,-0.069134,-0.437500,-0.050000,-0.437500,0.050000,-0.437500,0.050000,$1*%
%AMFreePoly1*
4,1,18,-0.437500,0.050000,-0.433694,0.069134,-0.422855,0.085355,-0.406634,0.096194,-0.387500,0.100000,0.387500,0.100000,0.406634,0.096194,0.422855,0.085355,0.433694,0.069134,0.437500,0.050000,0.437500,-0.050000,0.387500,-0.100000,-0.387500,-0.100000,-0.406634,-0.096194,-0.422855,-0.085355,-0.433694,-0.069134,-0.437500,-0.050000,-0.437500,0.050000,-0.437500,0.050000,$1*%
%AMFreePoly2*
4,1,18,-0.100000,0.387500,-0.050000,0.437500,0.050000,0.437500,0.069134,0.433694,0.085355,0.422855,0.096194,0.406634,0.100000,0.387500,0.100000,-0.387500,0.096194,-0.406634,0.085355,-0.422855,0.069134,-0.433694,0.050000,-0.437500,-0.050000,-0.437500,-0.069134,-0.433694,-0.085355,-0.422855,-0.096194,-0.406634,-0.100000,-0.387500,-0.100000,0.387500,-0.100000,0.387500,$1*%
%AMFreePoly3*
4,1,18,-0.100000,0.387500,-0.096194,0.406634,-0.085355,0.422855,-0.069134,0.433694,-0.050000,0.437500,0.050000,0.437500,0.100000,0.387500,0.100000,-0.387500,0.096194,-0.406634,0.085355,-0.422855,0.069134,-0.433694,0.050000,-0.437500,-0.050000,-0.437500,-0.069134,-0.433694,-0.085355,-0.422855,-0.096194,-0.406634,-0.100000,-0.387500,-0.100000,0.387500,-0.100000,0.387500,$1*%
%AMFreePoly4*
4,1,18,-0.437500,0.050000,-0.433694,0.069134,-0.422855,0.085355,-0.406634,0.096194,-0.387500,0.100000,0.387500,0.100000,0.406634,0.096194,0.422855,0.085355,0.433694,0.069134,0.437500,0.050000,0.437500,-0.050000,0.433694,-0.069134,0.422855,-0.085355,0.406634,-0.096194,0.387500,-0.100000,-0.387500,-0.100000,-0.437500,-0.050000,-0.437500,0.050000,-0.437500,0.050000,$1*%
%AMFreePoly5*
4,1,18,-0.437500,0.050000,-0.387500,0.100000,0.387500,0.100000,0.406634,0.096194,0.422855,0.085355,0.433694,0.069134,0.437500,0.050000,0.437500,-0.050000,0.433694,-0.069134,0.422855,-0.085355,0.406634,-0.096194,0.387500,-0.100000,-0.387500,-0.100000,-0.406634,-0.096194,-0.422855,-0.085355,-0.433694,-0.069134,-0.437500,-0.050000,-0.437500,0.050000,-0.437500,0.050000,$1*%
%AMFreePoly6*
4,1,18,-0.100000,0.387500,-0.096194,0.406634,-0.085355,0.422855,-0.069134,0.433694,-0.050000,0.437500,0.050000,0.437500,0.069134,0.433694,0.085355,0.422855,0.096194,0.406634,0.100000,0.387500,0.100000,-0.387500,0.050000,-0.437500,-0.050000,-0.437500,-0.069134,-0.433694,-0.085355,-0.422855,-0.096194,-0.406634,-0.100000,-0.387500,-0.100000,0.387500,-0.100000,0.387500,$1*%
%AMFreePoly7*
4,1,18,-0.100000,0.387500,-0.096194,0.406634,-0.085355,0.422855,-0.069134,0.433694,-0.050000,0.437500,0.050000,0.437500,0.069134,0.433694,0.085355,0.422855,0.096194,0.406634,0.100000,0.387500,0.100000,-0.387500,0.096194,-0.406634,0.085355,-0.422855,0.069134,-0.433694,0.050000,-0.437500,-0.050000,-0.437500,-0.100000,-0.387500,-0.100000,0.387500,-0.100000,0.387500,$1*%
G04 Aperture macros list end*
%ADD10C,0.000000*%
%ADD11RoundRect,0.150000X0.512500X0.150000X-0.512500X0.150000X-0.512500X-0.150000X0.512500X-0.150000X0*%
%ADD12RoundRect,0.150000X-0.150000X0.512500X-0.150000X-0.512500X0.150000X-0.512500X0.150000X0.512500X0*%
%ADD13RoundRect,0.220000X-0.220000X-0.380000X0.220000X-0.380000X0.220000X0.380000X-0.220000X0.380000X0*%
%ADD14RoundRect,0.140000X-0.170000X0.140000X-0.170000X-0.140000X0.170000X-0.140000X0.170000X0.140000X0*%
%ADD15RoundRect,0.140000X-0.207113X0.074861X-0.113187X-0.188915X0.207113X-0.074861X0.113187X0.188915X0*%
%ADD16RoundRect,0.140000X0.140000X0.170000X-0.140000X0.170000X-0.140000X-0.170000X0.140000X-0.170000X0*%
%ADD17C,0.600000*%
%ADD18RoundRect,0.150000X-0.445982X0.000427X-0.345351X-0.282192X0.445982X-0.000427X0.345351X0.282192X0*%
%ADD19RoundRect,0.075000X-0.491479X-0.095386X-0.441164X-0.236695X0.491479X0.095386X0.441164X0.236695X0*%
%ADD20HorizOval,0.900000X-0.518135X-0.184489X0.518135X0.184489X0*%
%ADD21HorizOval,0.900000X-0.376825X-0.134174X0.376825X0.134174X0*%
%ADD22RoundRect,0.510000X-0.300000X0.450000X-0.300000X-0.450000X0.300000X-0.450000X0.300000X0.450000X0*%
%ADD23RoundRect,0.140000X-0.140000X-0.170000X0.140000X-0.170000X0.140000X0.170000X-0.140000X0.170000X0*%
%ADD24RoundRect,0.135000X-0.185000X0.135000X-0.185000X-0.135000X0.185000X-0.135000X0.185000X0.135000X0*%
%ADD25RoundRect,0.575000X-0.575000X-1.425000X0.575000X-1.425000X0.575000X1.425000X-0.575000X1.425000X0*%
%ADD26RoundRect,0.250000X0.450000X-0.262500X0.450000X0.262500X-0.450000X0.262500X-0.450000X-0.262500X0*%
%ADD27RoundRect,0.250000X-0.250000X-0.475000X0.250000X-0.475000X0.250000X0.475000X-0.250000X0.475000X0*%
%ADD28RoundRect,0.575000X-0.575000X-0.575000X0.575000X-0.575000X0.575000X0.575000X-0.575000X0.575000X0*%
%ADD29RoundRect,0.250000X-0.275000X-0.750000X0.275000X-0.750000X0.275000X0.750000X-0.275000X0.750000X0*%
%ADD30RoundRect,0.150000X-0.625000X0.150000X-0.625000X-0.150000X0.625000X-0.150000X0.625000X0.150000X0*%
%ADD31RoundRect,0.250000X-0.650000X0.350000X-0.650000X-0.350000X0.650000X-0.350000X0.650000X0.350000X0*%
%ADD32RoundRect,0.510000X-0.323290X-0.433570X0.524561X-0.131664X0.323290X0.433570X-0.524561X0.131664X0*%
%ADD33RoundRect,0.250000X-0.262500X-0.450000X0.262500X-0.450000X0.262500X0.450000X-0.262500X0.450000X0*%
%ADD34RoundRect,0.140000X0.170000X-0.140000X0.170000X0.140000X-0.170000X0.140000X-0.170000X-0.140000X0*%
%ADD35RoundRect,0.135000X-0.135000X-0.185000X0.135000X-0.185000X0.135000X0.185000X-0.135000X0.185000X0*%
%ADD36R,0.700000X1.700000*%
%ADD37RoundRect,0.510000X-0.450000X-0.300000X0.450000X-0.300000X0.450000X0.300000X-0.450000X0.300000X0*%
%ADD38RoundRect,0.250000X-0.450000X-0.350000X0.450000X-0.350000X0.450000X0.350000X-0.450000X0.350000X0*%
%ADD39R,0.470000X0.530000*%
%ADD40C,0.001000*%
%ADD41RoundRect,0.400000X-1.100000X0.400000X-1.100000X-0.400000X1.100000X-0.400000X1.100000X0.400000X0*%
%ADD42RoundRect,0.250000X-0.450000X0.262500X-0.450000X-0.262500X0.450000X-0.262500X0.450000X0.262500X0*%
%ADD43FreePoly0,0.000000*%
%ADD44RoundRect,0.050000X-0.387500X-0.050000X0.387500X-0.050000X0.387500X0.050000X-0.387500X0.050000X0*%
%ADD45FreePoly1,0.000000*%
%ADD46FreePoly2,0.000000*%
%ADD47RoundRect,0.050000X-0.050000X-0.387500X0.050000X-0.387500X0.050000X0.387500X-0.050000X0.387500X0*%
%ADD48FreePoly3,0.000000*%
%ADD49FreePoly4,0.000000*%
%ADD50FreePoly5,0.000000*%
%ADD51FreePoly6,0.000000*%
%ADD52FreePoly7,0.000000*%
%ADD53RoundRect,0.153000X1.547000X-1.547000X1.547000X1.547000X-1.547000X1.547000X-1.547000X-1.547000X0*%
%ADD54RoundRect,0.135000X0.185000X-0.135000X0.185000X0.135000X-0.185000X0.135000X-0.185000X-0.135000X0*%
%ADD55RoundRect,0.150000X-0.512500X-0.150000X0.512500X-0.150000X0.512500X0.150000X-0.512500X0.150000X0*%
%ADD56RoundRect,0.150000X-0.800000X-0.150000X0.800000X-0.150000X0.800000X0.150000X-0.800000X0.150000X0*%
%ADD57O,1.200000X1.400000*%
G04 APERTURE END LIST*
D10*
%TO.C,SW2*%
G36*
X222600790Y138550000D02*
G01*
X222600790Y138550000D01*
G75*
G02*
X222900790Y138250000I-23J-299995D01*
G01*
X222900790Y131450000D01*
G75*
G02*
X222600790Y131150000I-300023J5D01*
G01*
X219000790Y131150000D01*
G75*
G02*
X218700790Y131450000I-23J300005D01*
G01*
X218700790Y138250000D01*
G75*
G02*
X219000790Y138550000I299977J5D01*
G01*
X222600790Y138550000D01*
G37*
%TO.C,SW1*%
G36*
X193400790Y138475000D02*
G01*
X193400790Y138475000D01*
G75*
G02*
X193700790Y138175000I-23J-299995D01*
G01*
X193700790Y131375010D01*
G75*
G02*
X193400790Y131075010I-300023J-5D01*
G01*
X193400790Y131075000D01*
X189800790Y131075000D01*
G75*
G02*
X189500790Y131375000I-23J300005D01*
G01*
X189500790Y138175000D01*
G75*
G02*
X189800790Y138475000I299977J5D01*
G01*
X193400790Y138475000D01*
G37*
%TD*%
D11*
%TO.C,U4*%
X175187500Y165087500D03*
X175187500Y166037500D03*
X175187500Y166987500D03*
X172912500Y166987500D03*
X172912500Y165087500D03*
%TD*%
D12*
%TO.C,Z1*%
X168350000Y165487500D03*
X167400000Y165487500D03*
X166450000Y165487500D03*
X166450000Y163212500D03*
X167400000Y163212500D03*
X168350000Y163212500D03*
%TD*%
D13*
%TO.C,FB2*%
X168290000Y170000000D03*
X170410000Y170000000D03*
%TD*%
%TO.C,FB3*%
X168290000Y168100000D03*
X170410000Y168100000D03*
%TD*%
%TO.C,FB1*%
X166365000Y160925000D03*
X168485000Y160925000D03*
%TD*%
D14*
%TO.C,C22*%
X214300000Y146880000D03*
X214300000Y145920000D03*
%TD*%
D15*
%TO.C,C25*%
X173588983Y155377188D03*
X173911017Y154472812D03*
%TD*%
D16*
%TO.C,C24*%
X208330000Y152600000D03*
X207370000Y152600000D03*
%TD*%
D17*
%TO.C,J3*%
X159788629Y167687607D03*
X161727444Y162242481D03*
D18*
X160692652Y168338563D03*
X160961000Y167584912D03*
D19*
X161346750Y166501539D03*
X161682185Y165559476D03*
X161849903Y165088444D03*
X162185338Y164146381D03*
D18*
X162571089Y163063008D03*
X162839437Y162309357D03*
X162839437Y162309357D03*
X162571089Y163063008D03*
D19*
X162353056Y163675349D03*
X162017621Y164617412D03*
X161514468Y166030507D03*
X161179033Y166972571D03*
D18*
X160961000Y167584912D03*
X160692652Y168338563D03*
D20*
X159779987Y169202475D03*
D21*
X155842164Y167800357D03*
D20*
X162678148Y161063048D03*
D21*
X158740323Y159660930D03*
%TD*%
D22*
%TO.C,D1*%
X225300790Y168250000D03*
X228500790Y168250000D03*
X228500790Y173050000D03*
X225300790Y173050000D03*
%TD*%
D23*
%TO.C,C35*%
X219120000Y151500000D03*
X220080000Y151500000D03*
%TD*%
%TO.C,C18*%
X178270000Y167300000D03*
X179230000Y167300000D03*
%TD*%
D24*
%TO.C,R6*%
X217250000Y159460790D03*
X217250000Y158440790D03*
%TD*%
D25*
%TO.C,CJ7*%
X212200790Y193250000D03*
%TD*%
%TO.C,CJ5*%
X204200790Y193250000D03*
%TD*%
D16*
%TO.C,C3*%
X212280000Y144850790D03*
X211320000Y144850790D03*
%TD*%
D25*
%TO.C,CJ6*%
X208200790Y193250000D03*
%TD*%
D26*
%TO.C,R1*%
X198100000Y163987500D03*
X198100000Y165812500D03*
%TD*%
D27*
%TO.C,C17*%
X176050000Y168850000D03*
X177950000Y168850000D03*
%TD*%
D25*
%TO.C,CJ2*%
X192200790Y193250000D03*
%TD*%
D28*
%TO.C,CJ10*%
X184200790Y193250000D03*
%TD*%
D16*
%TO.C,C29*%
X211430000Y146050000D03*
X210470000Y146050000D03*
%TD*%
D25*
%TO.C,CJ9*%
X220200790Y193250000D03*
%TD*%
D29*
%TO.C,SW3*%
X201663200Y145468800D03*
X206113200Y145468800D03*
%TD*%
D30*
%TO.C,J14*%
X225725000Y163500000D03*
X225725000Y162500000D03*
X225725000Y161500000D03*
X225725000Y160500000D03*
D31*
X228250000Y164800000D03*
X228250000Y159200000D03*
%TD*%
D32*
%TO.C,D5*%
X172548999Y152497465D03*
X171475560Y155512049D03*
X166953680Y153901881D03*
X168027118Y150887297D03*
%TD*%
D33*
%TO.C,R5*%
X202887500Y154750000D03*
X204712500Y154750000D03*
%TD*%
D23*
%TO.C,C4*%
X213770000Y144850790D03*
X214730000Y144850790D03*
%TD*%
%TO.C,C33*%
X218170000Y147900000D03*
X219130000Y147900000D03*
%TD*%
D34*
%TO.C,C16*%
X175600000Y162720000D03*
X175600000Y163680000D03*
%TD*%
D35*
%TO.C,R11*%
X164065000Y164400000D03*
X165085000Y164400000D03*
%TD*%
D14*
%TO.C,C23*%
X211825000Y135330000D03*
X211825000Y134370000D03*
%TD*%
D24*
%TO.C,R9*%
X213000000Y146910790D03*
X213000000Y145890790D03*
%TD*%
D23*
%TO.C,C15*%
X219120000Y152500000D03*
X220080000Y152500000D03*
%TD*%
D36*
%TO.C,L1*%
X214535000Y160000000D03*
X215935000Y160000000D03*
%TD*%
D37*
%TO.C,D3*%
X209500790Y134350000D03*
X209500790Y137550000D03*
X204700790Y137550000D03*
X204700790Y134350000D03*
%TD*%
D14*
%TO.C,C1*%
X208400000Y166480000D03*
X208400000Y165520000D03*
%TD*%
D16*
%TO.C,C32*%
X207280000Y150550000D03*
X206320000Y150550000D03*
%TD*%
D28*
%TO.C,CJ11*%
X224200790Y193250000D03*
%TD*%
D27*
%TO.C,C10*%
X177250000Y164550000D03*
X179150000Y164550000D03*
%TD*%
D38*
%TO.C,Y1*%
X211950000Y141350790D03*
X214150000Y141350790D03*
X214150000Y143050790D03*
X211950000Y143050790D03*
%TD*%
D24*
%TO.C,R8*%
X212000000Y161960000D03*
X212000000Y160940000D03*
%TD*%
D14*
%TO.C,C28*%
X217250000Y157430790D03*
X217250000Y156470790D03*
%TD*%
D39*
%TO.C,C27*%
X214720000Y158250000D03*
X215750000Y158250000D03*
%TD*%
D25*
%TO.C,CJ4*%
X200200790Y193250000D03*
%TD*%
D40*
%TO.C,SW2*%
X220800790Y132850000D03*
X220800790Y136850000D03*
D41*
X220500790Y129650010D03*
X220500790Y140050000D03*
%TD*%
D42*
%TO.C,R4*%
X184675000Y150412500D03*
X184675000Y148587500D03*
%TD*%
D23*
%TO.C,C11*%
X178270000Y166150000D03*
X179230000Y166150000D03*
%TD*%
D24*
%TO.C,R7*%
X213050000Y161960000D03*
X213050000Y160940000D03*
%TD*%
D43*
%TO.C,U6*%
X209812500Y154600790D03*
D44*
X209812500Y154200790D03*
X209812500Y153800790D03*
X209812500Y153400790D03*
X209812500Y153000790D03*
X209812500Y152600790D03*
X209812500Y152200790D03*
X209812500Y151800790D03*
X209812500Y151400790D03*
X209812500Y151000790D03*
X209812500Y150600790D03*
X209812500Y150200790D03*
X209812500Y149800790D03*
X209812500Y149400790D03*
D45*
X209812500Y149000790D03*
D46*
X210450000Y148363290D03*
D47*
X210850000Y148363290D03*
X211250000Y148363290D03*
X211650000Y148363290D03*
X212050000Y148363290D03*
X212450000Y148363290D03*
X212850000Y148363290D03*
X213250000Y148363290D03*
X213650000Y148363290D03*
X214050000Y148363290D03*
X214450000Y148363290D03*
X214850000Y148363290D03*
X215250000Y148363290D03*
X215650000Y148363290D03*
D48*
X216050000Y148363290D03*
D49*
X216687500Y149000790D03*
D44*
X216687500Y149400790D03*
X216687500Y149800790D03*
X216687500Y150200790D03*
X216687500Y150600790D03*
X216687500Y151000790D03*
X216687500Y151400790D03*
X216687500Y151800790D03*
X216687500Y152200790D03*
X216687500Y152600790D03*
X216687500Y153000790D03*
X216687500Y153400790D03*
X216687500Y153800790D03*
X216687500Y154200790D03*
D50*
X216687500Y154600790D03*
D51*
X216050000Y155238290D03*
D47*
X215650000Y155238290D03*
X215250000Y155238290D03*
X214850000Y155238290D03*
X214450000Y155238290D03*
X214050000Y155238290D03*
X213650000Y155238290D03*
X213250000Y155238290D03*
X212850000Y155238290D03*
X212450000Y155238290D03*
X212050000Y155238290D03*
X211650000Y155238290D03*
X211250000Y155238290D03*
X210850000Y155238290D03*
D52*
X210450000Y155238290D03*
D53*
X213250000Y151800790D03*
%TD*%
D42*
%TO.C,R16*%
X222450000Y170962500D03*
X222450000Y169137500D03*
%TD*%
D16*
%TO.C,C12*%
X217230000Y170900000D03*
X216270000Y170900000D03*
%TD*%
D54*
%TO.C,R10*%
X163125000Y167615000D03*
X163125000Y168635000D03*
%TD*%
D25*
%TO.C,CJ3*%
X196200790Y193250000D03*
%TD*%
%TO.C,CJ1*%
X188200790Y193250000D03*
%TD*%
D23*
%TO.C,C34*%
X217970000Y154850000D03*
X218930000Y154850000D03*
%TD*%
D39*
%TO.C,C26*%
X214720000Y157250000D03*
X215750000Y157250000D03*
%TD*%
D16*
%TO.C,C31*%
X208180000Y155150000D03*
X207220000Y155150000D03*
%TD*%
%TO.C,C20*%
X225905000Y166150000D03*
X224945000Y166150000D03*
%TD*%
D40*
%TO.C,SW1*%
X191600790Y132775000D03*
X191600790Y136775010D03*
D41*
X191300790Y129575010D03*
X191300790Y139975000D03*
%TD*%
D42*
%TO.C,R2*%
X200250000Y167712500D03*
X200250000Y165887500D03*
%TD*%
D25*
%TO.C,CJ8*%
X216200790Y193250000D03*
%TD*%
D27*
%TO.C,C13*%
X215800000Y165400000D03*
X217700000Y165400000D03*
%TD*%
D34*
%TO.C,C30*%
X211750000Y158770000D03*
X211750000Y159730000D03*
%TD*%
D23*
%TO.C,C14*%
X216170000Y163850000D03*
X217130000Y163850000D03*
%TD*%
D55*
%TO.C,U3*%
X215612500Y169250000D03*
X215612500Y168300000D03*
X215612500Y167350000D03*
X217887500Y167350000D03*
X217887500Y169250000D03*
%TD*%
D26*
%TO.C,R3*%
X182650000Y148587500D03*
X182650000Y150412500D03*
%TD*%
D56*
%TO.C,U1*%
X201300000Y163455000D03*
X201300000Y162185000D03*
X201300000Y160915000D03*
X201300000Y159645000D03*
X208300000Y159645000D03*
X208300000Y160915000D03*
X208300000Y162185000D03*
X208300000Y163455000D03*
%TD*%
D57*
%TO.C,U2*%
X181933800Y164275000D03*
X183711800Y164275000D03*
X185489800Y164275000D03*
X187267800Y164275000D03*
X189045800Y164275000D03*
X190823800Y164275000D03*
X192601800Y164275000D03*
X194379800Y164275000D03*
X195268800Y153575000D03*
X193490800Y153575000D03*
X191712800Y153575000D03*
X189934800Y153575000D03*
X188156800Y153575000D03*
X186378800Y153575000D03*
X184600800Y153575000D03*
X182822800Y153575000D03*
%TD*%
M02*
