%TF.GenerationSoftware,KiCad,Pcbnew,10.0.3*%
%TF.CreationDate,2026-06-09T16:03:22-07:00*%
%TF.ProjectId,Base,42617365-2e6b-4696-9361-645f70636258,rev?*%
%TF.SameCoordinates,Original*%
%TF.FileFunction,Copper,L2,Bot*%
%TF.FilePolarity,Positive*%
%FSLAX46Y46*%
G04 Gerber Fmt 4.6, Leading zero omitted, Abs format (unit mm)*
G04 Created by KiCad (PCBNEW 10.0.3) date 2026-06-09 16:03:22*
%MOMM*%
%LPD*%
G01*
G04 APERTURE LIST*
G04 Aperture macros list*
%AMRoundRect*
0 Rectangle with rounded corners*
0 $1 Rounding radius*
0 $2 $3 $4 $5 $6 $7 $8 $9 X,Y pos of 4 corners*
0 Add a 4 corners polygon primitive as box body*
4,1,4,$2,$3,$4,$5,$6,$7,$8,$9,$2,$3,0*
0 Add four circle primitives for the rounded corners*
1,1,$1+$1,$2,$3*
1,1,$1+$1,$4,$5*
1,1,$1+$1,$6,$7*
1,1,$1+$1,$8,$9*
0 Add four rect primitives between the rounded corners*
20,1,$1+$1,$2,$3,$4,$5,0*
20,1,$1+$1,$4,$5,$6,$7,0*
20,1,$1+$1,$6,$7,$8,$9,0*
20,1,$1+$1,$8,$9,$2,$3,0*%
%AMHorizOval*
0 Thick line with rounded ends*
0 $1 width*
0 $2 $3 position (X,Y) of the first rounded end (center of the circle)*
0 $4 $5 position (X,Y) of the second rounded end (center of the circle)*
0 Add line between two ends*
20,1,$1,$2,$3,$4,$5,0*
0 Add two circle primitives to create the rounded ends*
1,1,$1,$2,$3*
1,1,$1,$4,$5*%
%AMRotRect*
0 Rectangle, with rotation*
0 The origin of the aperture is its center*
0 $1 length*
0 $2 width*
0 $3 Rotation angle, in degrees counterclockwise*
0 Add horizontal line*
21,1,$1,$2,0,0,$3*%
G04 Aperture macros list end*
%TA.AperFunction,ComponentPad*%
%ADD10HorizOval,0.900000X-0.518135X-0.184489X0.518135X0.184489X0*%
%TD*%
%TA.AperFunction,ComponentPad*%
%ADD11HorizOval,0.900000X-0.376825X-0.134174X0.376825X0.134174X0*%
%TD*%
%TA.AperFunction,ComponentPad*%
%ADD12RoundRect,0.500000X-0.500000X-0.500000X0.500000X-0.500000X0.500000X0.500000X-0.500000X0.500000X0*%
%TD*%
%TA.AperFunction,ComponentPad*%
%ADD13C,0.600000*%
%TD*%
%TA.AperFunction,SMDPad,CuDef*%
%ADD14RotRect,1.016000X1.016000X45.000000*%
%TD*%
%TA.AperFunction,ComponentPad*%
%ADD15C,0.001000*%
%TD*%
%TA.AperFunction,ComponentPad*%
%ADD16R,1.778000X1.778000*%
%TD*%
%TA.AperFunction,ComponentPad*%
%ADD17C,1.778000*%
%TD*%
%TA.AperFunction,SMDPad,CuDef*%
%ADD18C,1.016000*%
%TD*%
%TA.AperFunction,WasherPad*%
%ADD19R,0.001000X0.001000*%
%TD*%
%TA.AperFunction,ComponentPad*%
%ADD20O,1.200000X1.400000*%
%TD*%
%TA.AperFunction,ViaPad*%
%ADD21C,0.450000*%
%TD*%
%TA.AperFunction,ViaPad*%
%ADD22C,1.016000*%
%TD*%
%TA.AperFunction,ViaPad*%
%ADD23C,0.700000*%
%TD*%
%TA.AperFunction,ViaPad*%
%ADD24C,0.800000*%
%TD*%
%TA.AperFunction,ViaPad*%
%ADD25C,1.000000*%
%TD*%
%TA.AperFunction,Conductor*%
%ADD26C,0.500000*%
%TD*%
%TA.AperFunction,Conductor*%
%ADD27C,0.200000*%
%TD*%
%TA.AperFunction,Conductor*%
%ADD28C,2.032000*%
%TD*%
%TA.AperFunction,Conductor*%
%ADD29C,0.762000*%
%TD*%
G04 APERTURE END LIST*
D10*
%TO.P,J3,SH,SHIELD_SH*%
%TO.N,GND*%
X159779987Y169202475D03*
D11*
X155842164Y167800357D03*
D10*
X162678148Y161063048D03*
D11*
X158740323Y159660930D03*
%TD*%
D12*
%TO.P,CJ7,1,1_1*%
%TO.N,/MCU/ButtonRightClick*%
X212200790Y193250000D03*
%TD*%
%TO.P,CJ5,1,1_1*%
%TO.N,GND*%
X204200790Y193250000D03*
%TD*%
%TO.P,CJ6,1,1_1*%
%TO.N,/MCU/ButtonLeftClick*%
X208200790Y193250000D03*
%TD*%
%TO.P,CJ2,1,1_1*%
%TO.N,/MCU/ButtonScrollWheel*%
X192200790Y193250000D03*
%TD*%
%TO.P,CJ9,1,1_1*%
%TO.N,GND*%
X220200790Y193250000D03*
%TD*%
%TO.P,CJ4,1,1_1*%
%TO.N,/MCU/ScrollWheelOpto1*%
X200200790Y193250000D03*
%TD*%
D13*
%TO.P,U6,61,GND_61*%
%TO.N,GND*%
X211875000Y153175790D03*
X211875000Y151800790D03*
X211875000Y150425790D03*
X213250000Y153175790D03*
X213250000Y151800790D03*
X213250000Y150425790D03*
X214625000Y153175790D03*
X214625000Y151800790D03*
X214625000Y150425790D03*
%TD*%
D12*
%TO.P,CJ3,1,1_1*%
%TO.N,/MCU/ScrollWheelOpto0*%
X196200790Y193250000D03*
%TD*%
%TO.P,CJ1,1,1_1*%
%TO.N,GND*%
X188200790Y193250000D03*
%TD*%
%TO.P,CJ8,1,1_1*%
%TO.N,+3.3V*%
X216200790Y193250000D03*
%TD*%
D14*
%TO.P,MCH.SP.22,1*%
%TO.N,GND*%
X180600790Y135450000D03*
%TD*%
%TO.P,MCH.SP.9,1*%
%TO.N,GND*%
X182400790Y191550000D03*
%TD*%
%TO.P,MCH.SP.21,1*%
%TO.N,GND*%
X158800790Y175550000D03*
%TD*%
%TO.P,MCH.SP.26,1*%
%TO.N,GND*%
X167100790Y148050000D03*
%TD*%
%TO.P,MCH.SP.19,1*%
%TO.N,GND*%
X172700790Y147750000D03*
%TD*%
D15*
%TO.P,,*%
%TO.N,*%
X225600790Y186850000D03*
%TD*%
D14*
%TO.P,MCH.SP.8,1*%
%TO.N,GND*%
X204200790Y129950000D03*
%TD*%
%TO.P,MCH.SP.20,1*%
%TO.N,GND*%
X231200790Y165850000D03*
%TD*%
%TO.P,MCH.SP.24,1*%
%TO.N,GND*%
X225800790Y132749990D03*
%TD*%
%TO.P,MCH.SP.16,1*%
%TO.N,GND*%
X173900790Y181850000D03*
%TD*%
%TO.P,MCH.SP.14,1*%
%TO.N,GND*%
X180100790Y186150000D03*
%TD*%
D16*
%TO.P,J1,1,+_1*%
%TO.N,GND*%
X202300790Y145750000D03*
D17*
%TO.P,J1,2,-_2*%
%TO.N,Net-(J1--)*%
X204840790Y145750000D03*
%TD*%
D14*
%TO.P,MCH.SP.28,1*%
%TO.N,GND*%
X177500790Y183450000D03*
%TD*%
%TO.P,MCH.SP.10,1*%
%TO.N,GND*%
X224600790Y191350000D03*
%TD*%
D15*
%TO.P,,*%
%TO.N,*%
X203600790Y186850000D03*
%TD*%
D14*
%TO.P,MCH.SP.17,1*%
%TO.N,GND*%
X176500790Y143750000D03*
%TD*%
D15*
%TO.P,,*%
%TO.N,*%
X187900790Y174709000D03*
%TD*%
D14*
%TO.P,MCH.SP.6,1*%
%TO.N,GND*%
X162100790Y149150000D03*
%TD*%
%TO.P,MCH.SP.11,1*%
%TO.N,GND*%
X210200790Y129950000D03*
%TD*%
%TO.P,MCH.SP.13,1*%
%TO.N,GND*%
X181000790Y189050000D03*
%TD*%
%TO.P,MCH.SP.5,1*%
%TO.N,GND*%
X229000790Y191350000D03*
%TD*%
%TO.P,MCH.SP.18,1*%
%TO.N,GND*%
X187800790Y133150000D03*
%TD*%
%TO.P,MCH.SP.23,1*%
%TO.N,GND*%
X160200790Y153450000D03*
%TD*%
D18*
%TO.P,MCH.FID.1,1*%
%TO.N,N/C*%
X213600790Y130850000D03*
%TD*%
D14*
%TO.P,MCH.SP.25,1*%
%TO.N,GND*%
X178000790Y138250000D03*
%TD*%
%TO.P,MCH.SP.1,1*%
%TO.N,GND*%
X231300790Y151450000D03*
%TD*%
D18*
%TO.P,MCH.FID.2,1*%
%TO.N,N/C*%
X166600790Y182850000D03*
%TD*%
D14*
%TO.P,MCH.SP.3,1*%
%TO.N,GND*%
X198500790Y129950000D03*
%TD*%
%TO.P,MCH.SP.7,1*%
%TO.N,GND*%
X217000790Y129950000D03*
%TD*%
%TO.P,MCH.SP.2,1*%
%TO.N,GND*%
X160700790Y180450000D03*
%TD*%
%TO.P,MCH.SP.4,1*%
%TO.N,GND*%
X163900790Y184550000D03*
%TD*%
%TO.P,MCH.SP.12,1*%
%TO.N,GND*%
X229400790Y137950000D03*
%TD*%
D19*
%TO.P,U2,*%
%TO.N,*%
X187733810Y158925000D03*
D20*
%TO.P,U2,1,NC_1*%
%TO.N,unconnected-(U2-NC-Pad1)*%
X181933800Y164275000D03*
%TO.P,U2,2,NC_2*%
%TO.N,unconnected-(U2-NC-Pad2)*%
X183711800Y164275000D03*
%TO.P,U2,3,VDDPIX_3*%
%TO.N,Net-(U2-VDDPIX)*%
X185489800Y164275000D03*
%TO.P,U2,4,VDD_4*%
%TO.N,/MOS/1V8*%
X187267800Y164275000D03*
%TO.P,U2,5,VDDIO_5*%
%TO.N,+3.3V*%
X189045800Y164275000D03*
%TO.P,U2,6,NC_6*%
%TO.N,unconnected-(U2-NC-Pad6)*%
X190823800Y164275000D03*
%TO.P,U2,7,~{RESET}_7*%
%TO.N,/MCU/~{RESET}*%
X192601800Y164275000D03*
%TO.P,U2,8,GND_8*%
%TO.N,GND*%
X194379800Y164275000D03*
%TO.P,U2,9,MOTION_9*%
%TO.N,/MCU/MOTION*%
X195268800Y153575000D03*
%TO.P,U2,10,SCLK_10*%
%TO.N,/MCU/SCLK*%
X193490800Y153575000D03*
%TO.P,U2,11,MOSI_11*%
%TO.N,/MCU/MOSI*%
X191712800Y153575000D03*
%TO.P,U2,12,MISO_12*%
%TO.N,/MCU/MISO*%
X189934800Y153575000D03*
%TO.P,U2,13,~{CS}_13*%
%TO.N,/MCU/~{CS}*%
X188156800Y153575000D03*
%TO.P,U2,14,NC_14*%
%TO.N,unconnected-(U2-NC-Pad14)*%
X186378800Y153575000D03*
%TO.P,U2,15,LED_P_15*%
%TO.N,Net-(U2-LED_P)*%
X184600800Y153575000D03*
%TO.P,U2,16,NC_16*%
%TO.N,unconnected-(U2-NC-Pad16)*%
X182822800Y153575000D03*
%TD*%
D14*
%TO.P,MCH.SP.15,1*%
%TO.N,GND*%
X169500790Y182650000D03*
%TD*%
%TO.P,MCH.SP.27,1*%
%TO.N,GND*%
X185600790Y191750010D03*
%TD*%
D21*
%TO.N,+1V1*%
X213950000Y158050000D03*
X209000000Y152600000D03*
X218011631Y152599014D03*
X215325000Y152300000D03*
X213650000Y147400000D03*
X213950000Y158600000D03*
X213250000Y149700000D03*
X214000000Y153950790D03*
X211175000Y152600000D03*
D22*
%TO.N,GND*%
X181000790Y189050000D03*
D23*
X210200790Y185050000D03*
X226800790Y164350000D03*
X205000790Y182950000D03*
X162700790Y177150000D03*
D21*
X219350000Y156250000D03*
D23*
X166400790Y177650000D03*
X204900790Y131950000D03*
X197300790Y177450000D03*
D22*
X229000790Y191350000D03*
D23*
X181600790Y147350000D03*
X177100790Y180750000D03*
X194807195Y147684000D03*
X230200790Y178150000D03*
D22*
X229400790Y137950000D03*
D23*
X229600790Y170450000D03*
X210050000Y162550000D03*
X221600790Y155050000D03*
X195200790Y145450000D03*
X218259107Y192508317D03*
X200418929Y139200000D03*
X229500790Y142550000D03*
D21*
X216750000Y168250000D03*
D23*
X227500790Y176650000D03*
X190800790Y186550000D03*
D22*
X204200790Y129950000D03*
D23*
X218200790Y194250000D03*
D22*
X160700790Y180450000D03*
D23*
X179500790Y145050000D03*
X170600790Y172950000D03*
X190000790Y147350000D03*
X203000790Y134350000D03*
X213200790Y136750000D03*
D22*
X182400790Y191550000D03*
D21*
X220900000Y152450000D03*
D23*
X194639247Y137900000D03*
X195400790Y164250000D03*
D22*
X173900790Y181850000D03*
D23*
X176000790Y149050000D03*
D22*
X225800790Y132749990D03*
D23*
X186200790Y193350000D03*
X217500790Y134450000D03*
X204700790Y142150000D03*
D24*
X163450790Y169350000D03*
D23*
X207550790Y188250000D03*
D22*
X158800790Y175550000D03*
D23*
X187200790Y186750000D03*
X187100790Y142650000D03*
D21*
X221350000Y152900000D03*
D23*
X214800790Y182450000D03*
D22*
X185600790Y191750010D03*
D23*
X226700790Y173650000D03*
X183200790Y142450000D03*
D21*
X205550000Y150550000D03*
D23*
X172000790Y175550000D03*
D21*
X199200000Y159600000D03*
D23*
X188200790Y189950000D03*
X217781847Y178048914D03*
X197700790Y147050000D03*
D22*
X162100790Y149150000D03*
D23*
X201000790Y178050000D03*
D21*
X199200000Y160250000D03*
X219350000Y155550000D03*
D25*
X169000790Y153850000D03*
D23*
X206100790Y177650000D03*
X175359696Y155961700D03*
D22*
X198500790Y129950000D03*
D23*
X200359553Y189194908D03*
X223700790Y172750000D03*
X197100790Y136350000D03*
D21*
X167300000Y167050000D03*
D23*
X221000790Y179050000D03*
X198100790Y171150000D03*
D22*
X231200790Y165850000D03*
D23*
X206200790Y192050000D03*
X206400790Y134450000D03*
X197900790Y188150000D03*
X207482507Y137900000D03*
X167100790Y158450000D03*
X197473754Y155475883D03*
X180000790Y183650000D03*
X198200790Y194550000D03*
X197200790Y143650000D03*
X194900790Y189450000D03*
X194100790Y184950000D03*
X219350790Y146360000D03*
X164525790Y174225000D03*
X176500790Y159450000D03*
X222500790Y191650000D03*
X229800790Y183450000D03*
X214500000Y164850000D03*
D22*
X180100790Y186150000D03*
X169500790Y182650000D03*
D23*
X157800790Y171550000D03*
D22*
X224600790Y191350000D03*
D23*
X226900790Y172150000D03*
X170500790Y178650000D03*
X221150790Y142760000D03*
X187100790Y140550000D03*
X222500790Y193150000D03*
X194200790Y130250000D03*
X187100790Y145050000D03*
D21*
X217000000Y155750000D03*
D23*
X198700790Y180550000D03*
X197100790Y139650000D03*
D22*
X163900790Y184550000D03*
X187800790Y133150000D03*
D23*
X196200790Y144150000D03*
X223300790Y130550000D03*
D21*
X206300000Y155350000D03*
D23*
X184300790Y134250000D03*
X210000790Y135950000D03*
X203150000Y164550000D03*
X206200790Y137550000D03*
X197450000Y160993503D03*
X222800790Y181250000D03*
X184000790Y186250000D03*
X222000790Y180150000D03*
D22*
X167100790Y148050000D03*
D23*
X225300790Y180650000D03*
X163225790Y174225000D03*
D22*
X160200790Y153450000D03*
D23*
X176100790Y174350000D03*
D22*
X177500790Y183450000D03*
D23*
X188400790Y138050000D03*
X219000790Y130350000D03*
X178400790Y177150000D03*
X196500790Y182550000D03*
X226500000Y155650000D03*
X226000790Y148850000D03*
X222500790Y194650000D03*
X189500790Y130050000D03*
X189400790Y142650000D03*
X223500790Y146450000D03*
X190200790Y192450000D03*
X199900790Y137050000D03*
X179400790Y141650000D03*
X223700790Y139250000D03*
X229800790Y156450000D03*
D21*
X206300000Y152600000D03*
D23*
X220001053Y188611525D03*
X203600790Y135950000D03*
D22*
X231300790Y151450000D03*
D23*
X194200790Y194550000D03*
X202200790Y192050000D03*
D25*
X207700790Y133300000D03*
D23*
X185600790Y147350000D03*
D22*
X176500790Y143750000D03*
D23*
X217600790Y139750000D03*
X229900000Y147950000D03*
D21*
X216400000Y157950000D03*
D23*
X207369000Y164589000D03*
X226900790Y140250000D03*
X223800790Y175150000D03*
X220850000Y182440395D03*
D22*
X210200790Y129950000D03*
X178000790Y138250000D03*
D23*
X174200790Y178150000D03*
D21*
X216344000Y158450574D03*
D23*
X190200790Y194150000D03*
D22*
X217000790Y129950000D03*
D23*
X158700790Y157650000D03*
X214900790Y188250000D03*
X206200790Y194350000D03*
D22*
X180600790Y135450000D03*
D23*
X199300790Y134150000D03*
X192300790Y146850000D03*
X164600790Y160650000D03*
D22*
X172700790Y147750000D03*
D23*
X181200790Y167250000D03*
X202200790Y194450000D03*
D21*
%TO.N,/LED/V_USB*%
X200250000Y140500000D03*
X224162552Y167015267D03*
X200500000Y149250000D03*
X213000000Y168500000D03*
X199750000Y141750000D03*
X172500000Y161000000D03*
%TO.N,/MOS/1V8*%
X180350000Y162750000D03*
%TO.N,Net-(FB1-Pad1)*%
X163950000Y163600000D03*
X162375000Y168100000D03*
%TO.N,Net-(FB2-Pad1)*%
X160400000Y165725000D03*
X160800000Y164800000D03*
%TO.N,+3.3V*%
X209500000Y164750000D03*
X221950000Y162750000D03*
X217250000Y162750000D03*
%TO.N,/MCU/ButtonRightClick*%
X219250000Y190000000D03*
%TO.N,/MCU/ButtonLeftClick*%
X208000000Y180750000D03*
X202500000Y170250000D03*
X201000000Y168750000D03*
X206250000Y174000000D03*
X208000000Y185750000D03*
X200750000Y151500000D03*
%TO.N,Net-(J1--)*%
X199700000Y151450000D03*
X199400000Y154350000D03*
%TO.N,/MCU/CS*%
X205900000Y158200000D03*
X205850000Y159700000D03*
%TO.N,/MCU/ButtonScrollWheel*%
X223850000Y159250000D03*
X224400000Y157400000D03*
X219215562Y189059699D03*
%TO.N,/MCU/MISO*%
X191750000Y155850000D03*
%TO.N,/MCU/ScrollWheelOpto1*%
X217500000Y190000000D03*
%TO.N,/MCU/SCLK*%
X197600000Y153325000D03*
%TO.N,/LED/LEDData*%
X219750000Y165500000D03*
X218500000Y161750000D03*
X209750000Y148000000D03*
X223750000Y169000000D03*
%TO.N,/MCU/~{RESET}*%
X197250000Y158000000D03*
X199000000Y158000000D03*
X207878768Y149128768D03*
X207975000Y156371232D03*
%TO.N,/MCU/ScrollWheelOpto0*%
X218165562Y188892338D03*
%TD*%
%TO.N,+1V1*%
D26*
X213650000Y147400000D02*
X213650000Y149300000D01*
X217738407Y152325790D02*
X218011631Y152599014D01*
X213950000Y154000790D02*
X214000000Y153950790D01*
X215325000Y152300000D02*
X215350790Y152325790D01*
X213650000Y149300000D02*
X213250000Y149700000D01*
X213950000Y158600000D02*
X213950000Y158050000D01*
X213950000Y158050000D02*
X213950000Y154000790D01*
X209000000Y152600000D02*
X211175000Y152600000D01*
X215350790Y152325790D02*
X217738407Y152325790D01*
%TO.N,GND*%
D27*
X216400000Y157950000D02*
X216400000Y158394574D01*
X199200000Y159600000D02*
X199200000Y160250000D01*
X216400000Y158394574D02*
X216344000Y158450574D01*
X219350000Y155550000D02*
X219350000Y156250000D01*
%TO.N,/LED/V_USB*%
D28*
X177500000Y156000000D02*
X172500000Y161000000D01*
X177500000Y153000000D02*
X177500000Y156000000D01*
X200500000Y149250000D02*
X194500000Y149250000D01*
X207500000Y168500000D02*
X205250000Y166250000D01*
X213000000Y168500000D02*
X207500000Y168500000D01*
X194500000Y149250000D02*
X193250000Y150500000D01*
X205250000Y162500000D02*
X202750000Y160000000D01*
D26*
X200250000Y140500000D02*
X200250000Y141250000D01*
X200250000Y141250000D02*
X199750000Y141750000D01*
D28*
X202750000Y160000000D02*
X202750000Y151500000D01*
X180000000Y150500000D02*
X177500000Y153000000D01*
D26*
X223397285Y166250000D02*
X224162552Y167015267D01*
D28*
X202750000Y151500000D02*
X200500000Y149250000D01*
X205250000Y166250000D02*
X205250000Y162500000D01*
D26*
X215250000Y166250000D02*
X223397285Y166250000D01*
D28*
X193250000Y150500000D02*
X180000000Y150500000D01*
D26*
X213000000Y168500000D02*
X215250000Y166250000D01*
%TO.N,/MOS/1V8*%
X180350000Y164205414D02*
X181519586Y165375000D01*
X186167800Y165375000D02*
X187267800Y164275000D01*
X181519586Y165375000D02*
X186167800Y165375000D01*
X180350000Y162750000D02*
X180350000Y164205414D01*
%TO.N,Net-(FB1-Pad1)*%
X162375000Y168100000D02*
X163950000Y163600000D01*
%TO.N,Net-(FB2-Pad1)*%
D27*
X160400000Y165725000D02*
X160800000Y164800000D01*
%TO.N,+3.3V*%
D29*
X209500000Y164750000D02*
X211500000Y162750000D01*
X217250000Y162750000D02*
X221950000Y162750000D01*
X211500000Y162750000D02*
X217250000Y162750000D01*
%TO.N,/MCU/ButtonRightClick*%
D27*
X212200790Y192250000D02*
X212200790Y193250000D01*
X219250000Y190000000D02*
X218500000Y190750000D01*
X213700790Y190750000D02*
X212200790Y192250000D01*
X218500000Y190750000D02*
X213700790Y190750000D01*
%TO.N,/MCU/ButtonLeftClick*%
X202500000Y170250000D02*
X206250000Y174000000D01*
X201000000Y151750000D02*
X201000000Y168750000D01*
X200750000Y151500000D02*
X201000000Y151750000D01*
X208000000Y180750000D02*
X208000000Y185750000D01*
%TO.N,Net-(J1--)*%
X199400000Y154350000D02*
X199400000Y151750000D01*
X199400000Y151750000D02*
X199700000Y151450000D01*
%TO.N,/MCU/CS*%
X205900000Y158200000D02*
X205900000Y159650000D01*
X205900000Y159650000D02*
X205850000Y159700000D01*
%TO.N,/MCU/ButtonScrollWheel*%
X224400000Y158700000D02*
X223850000Y159250000D01*
X202233885Y183550000D02*
X204967695Y183550000D01*
X194950790Y190500000D02*
X198455816Y190500000D01*
X217948099Y188367338D02*
X218523201Y188367338D01*
X204967695Y183550000D02*
X210317695Y188900000D01*
X217415437Y188900000D02*
X217948099Y188367338D01*
X210317695Y188900000D02*
X217415437Y188900000D01*
X198755026Y190200790D02*
X198755026Y187028859D01*
X198455816Y190500000D02*
X198755026Y190200790D01*
X192200790Y193250000D02*
X194950790Y190500000D01*
X198755026Y187028859D02*
X202233885Y183550000D01*
X218523201Y188367338D02*
X219215562Y189059699D01*
X224400000Y157400000D02*
X224400000Y158700000D01*
%TO.N,/MCU/MISO*%
X191750000Y155850000D02*
X191750000Y155390200D01*
X191750000Y155390200D02*
X189934800Y153575000D01*
%TO.N,/MCU/ScrollWheelOpto1*%
X217500000Y190000000D02*
X205612669Y190000000D01*
X200750000Y190500000D02*
X200200790Y191049210D01*
X205112669Y190500000D02*
X200750000Y190500000D01*
X205612669Y190000000D02*
X205112669Y190500000D01*
X200200790Y191049210D02*
X200200790Y193250000D01*
%TO.N,/MCU/SCLK*%
X193590800Y153575000D02*
X195465800Y151700000D01*
X193490800Y153575000D02*
X193590800Y153575000D01*
X195465800Y151700000D02*
X196350000Y151700000D01*
X196350000Y151700000D02*
X197600000Y152950000D01*
X197600000Y152950000D02*
X197600000Y153325000D01*
%TO.N,/LED/LEDData*%
X224500000Y168250000D02*
X223750000Y169000000D01*
X208500000Y149250000D02*
X208500000Y158750000D01*
X225250000Y168250000D02*
X224500000Y168250000D01*
X211500000Y161750000D02*
X218500000Y161750000D01*
X225250000Y167000000D02*
X225250000Y168250000D01*
X208500000Y158750000D02*
X211500000Y161750000D01*
X223750000Y165500000D02*
X225250000Y167000000D01*
X209750000Y148000000D02*
X208500000Y149250000D01*
X219750000Y165500000D02*
X223750000Y165500000D01*
%TO.N,/MCU/~{RESET}*%
X197250000Y158000000D02*
X199000000Y158000000D01*
X207878768Y149166206D02*
X208025000Y149312438D01*
X207878768Y149128768D02*
X207878768Y149166206D01*
X208128768Y150666206D02*
X208128768Y156217464D01*
X208025000Y150562437D02*
X208128768Y150666206D01*
X208128768Y156217464D02*
X207975000Y156371232D01*
X208025000Y149312438D02*
X208025000Y150562437D01*
%TO.N,/MCU/ScrollWheelOpto0*%
X199300790Y190150000D02*
X204967695Y190150000D01*
X204967695Y190150000D02*
X205667695Y189450000D01*
X196200790Y193250000D02*
X199300790Y190150000D01*
X205667695Y189450000D02*
X217607900Y189450000D01*
X217607900Y189450000D02*
X218165562Y188892338D01*
%TD*%
%TA.AperFunction,Conductor*%
%TO.N,GND*%
G36*
X201117511Y189529815D02*
G01*
X201163266Y189477011D01*
X201173210Y189407853D01*
X201144185Y189344297D01*
X201138153Y189337819D01*
X201003966Y189203633D01*
X200785775Y188937766D01*
X200785765Y188937752D01*
X200594694Y188651794D01*
X200594683Y188651776D01*
X200432562Y188348470D01*
X200432560Y188348465D01*
X200300940Y188030707D01*
X200201098Y187701573D01*
X200134000Y187364250D01*
X200121889Y187241276D01*
X200106062Y187080569D01*
X200100290Y187021966D01*
X200100290Y186832193D01*
X200080605Y186765154D01*
X200027801Y186719399D01*
X199958643Y186709455D01*
X199895087Y186738480D01*
X199888609Y186744512D01*
X199391845Y187241276D01*
X199358360Y187302599D01*
X199355526Y187328957D01*
X199355526Y189425500D01*
X199375211Y189492539D01*
X199428015Y189538294D01*
X199479526Y189549500D01*
X201050472Y189549500D01*
X201117511Y189529815D01*
G37*
%TD.AperFunction*%
%TA.AperFunction,Conductor*%
G36*
X209185636Y188829815D02*
G01*
X209231391Y188777011D01*
X209241335Y188707853D01*
X209212310Y188644297D01*
X209206278Y188637819D01*
X207312971Y186744513D01*
X207251648Y186711028D01*
X207181956Y186716012D01*
X207126023Y186757884D01*
X207101606Y186823348D01*
X207101290Y186832194D01*
X207101290Y187021966D01*
X207095518Y187080569D01*
X207067579Y187364250D01*
X207000480Y187701578D01*
X206900640Y188030705D01*
X206769021Y188348462D01*
X206761741Y188362081D01*
X206606896Y188651776D01*
X206606888Y188651790D01*
X206603667Y188656610D01*
X206582790Y188723288D01*
X206601275Y188790668D01*
X206653255Y188837358D01*
X206706770Y188849500D01*
X209118597Y188849500D01*
X209185636Y188829815D01*
G37*
%TD.AperFunction*%
%TA.AperFunction,Conductor*%
G36*
X222937005Y195942737D02*
G01*
X222961561Y195939919D01*
X222969942Y195933066D01*
X222980332Y195930015D01*
X222996517Y195911336D01*
X223015651Y195895691D01*
X223022966Y195880813D01*
X223026087Y195877211D01*
X223031223Y195864019D01*
X223088037Y195689171D01*
X223088038Y195689167D01*
X223133612Y195599727D01*
X223173827Y195520803D01*
X223284896Y195367931D01*
X223284898Y195367929D01*
X223421121Y195231706D01*
X223454606Y195170383D01*
X223457440Y195144025D01*
X223457440Y194795505D01*
X223457970Y194770961D01*
X223461951Y194745824D01*
X223465648Y194722478D01*
X223480816Y194675791D01*
X223480818Y194675785D01*
X223503097Y194632056D01*
X223503100Y194632051D01*
X223531951Y194592335D01*
X223566660Y194557621D01*
X223606371Y194528763D01*
X223650107Y194506473D01*
X223650109Y194506473D01*
X223650114Y194506470D01*
X223681591Y194496240D01*
X223696792Y194491298D01*
X223745276Y194483612D01*
X223745275Y194483612D01*
X223748003Y194483559D01*
X223769820Y194483127D01*
X228730127Y194483127D01*
X228731099Y194483123D01*
X228732724Y194483111D01*
X228790023Y194482661D01*
X228796823Y194482421D01*
X228914968Y194474986D01*
X228922710Y194474254D01*
X229039675Y194459477D01*
X229047366Y194458259D01*
X229064571Y194454976D01*
X229163145Y194436171D01*
X229170748Y194434472D01*
X229284930Y194405154D01*
X229292413Y194402981D01*
X229389444Y194371452D01*
X229404528Y194366551D01*
X229411857Y194363912D01*
X229521459Y194320517D01*
X229528604Y194317425D01*
X229635269Y194267232D01*
X229642185Y194263709D01*
X229745520Y194206899D01*
X229752207Y194202943D01*
X229830972Y194152957D01*
X229851739Y194139778D01*
X229858165Y194135412D01*
X229953556Y194066106D01*
X229959689Y194061350D01*
X230050549Y193986182D01*
X230056368Y193981052D01*
X230132288Y193909758D01*
X230142305Y193900351D01*
X230147813Y193894843D01*
X230228509Y193808911D01*
X230233661Y193803067D01*
X230308795Y193712245D01*
X230313569Y193706091D01*
X230382859Y193610723D01*
X230387237Y193604280D01*
X230450405Y193504744D01*
X230454371Y193498039D01*
X230511163Y193394735D01*
X230514699Y193387794D01*
X230564884Y193281146D01*
X230567978Y193273997D01*
X230611373Y193164395D01*
X230614012Y193157066D01*
X230650442Y193044948D01*
X230652615Y193037468D01*
X230681933Y192923286D01*
X230683632Y192915683D01*
X230705719Y192799905D01*
X230706938Y192792211D01*
X230721714Y192675254D01*
X230722447Y192667500D01*
X230729881Y192549368D01*
X230730122Y192542555D01*
X230731118Y192415810D01*
X230735466Y192407582D01*
X230737136Y192397069D01*
X230740963Y192363825D01*
X230740965Y192363810D01*
X230753618Y192305249D01*
X230757838Y192285719D01*
X230770061Y192247685D01*
X230782287Y192209643D01*
X230814062Y192136363D01*
X230814070Y192136347D01*
X230852882Y192066518D01*
X230852892Y192066502D01*
X230895983Y192004253D01*
X230898365Y192000812D01*
X230923514Y191971175D01*
X230950065Y191939885D01*
X230970047Y191920550D01*
X231007480Y191884327D01*
X231042794Y191856304D01*
X231070069Y191834661D01*
X231137224Y191791369D01*
X231164245Y191777492D01*
X231208290Y191754871D01*
X231208293Y191754870D01*
X231208299Y191754867D01*
X231282610Y191725508D01*
X231359441Y191703573D01*
X231426049Y191691459D01*
X231488484Y191660096D01*
X231504176Y191642348D01*
X231558079Y191568162D01*
X231558085Y191568154D01*
X231691683Y191434556D01*
X231691690Y191434550D01*
X231844545Y191323488D01*
X231844552Y191323484D01*
X232012896Y191237699D01*
X232012898Y191237699D01*
X232012901Y191237697D01*
X232187569Y191180931D01*
X232245239Y191141491D01*
X232272433Y191077131D01*
X232273240Y191063004D01*
X232273240Y184158826D01*
X232253555Y184091787D01*
X232211240Y184051439D01*
X232141336Y184011081D01*
X232062692Y183956011D01*
X231989164Y183894313D01*
X231989152Y183894302D01*
X231921260Y183826411D01*
X231859551Y183752867D01*
X231859538Y183752850D01*
X231804480Y183674218D01*
X231804479Y183674217D01*
X231756479Y183591076D01*
X231756475Y183591069D01*
X231715905Y183504065D01*
X231683063Y183413835D01*
X231658223Y183321125D01*
X231658219Y183321109D01*
X231641547Y183226563D01*
X231633179Y183130928D01*
X231633178Y183130913D01*
X231632640Y183082934D01*
X231632640Y177482950D01*
X231633163Y177434902D01*
X231639599Y177361339D01*
X231641530Y177339267D01*
X231658200Y177244716D01*
X231658201Y177244710D01*
X231683046Y177151983D01*
X231683053Y177151960D01*
X231715878Y177061771D01*
X231715882Y177061763D01*
X231715884Y177061757D01*
X231756459Y176974742D01*
X231804462Y176891594D01*
X231859530Y176812946D01*
X231921243Y176739398D01*
X231989131Y176671507D01*
X232062678Y176609792D01*
X232141323Y176554721D01*
X232211244Y176514351D01*
X232259456Y176463786D01*
X232273240Y176406967D01*
X232273240Y148558844D01*
X232253555Y148491805D01*
X232211242Y148451458D01*
X232141329Y148411093D01*
X232141322Y148411088D01*
X232062685Y148356025D01*
X231989136Y148294309D01*
X231921253Y148226425D01*
X231859543Y148152880D01*
X231804470Y148074229D01*
X231756464Y147991080D01*
X231756461Y147991074D01*
X231715898Y147904088D01*
X231715895Y147904080D01*
X231683055Y147813855D01*
X231683055Y147813853D01*
X231658205Y147721116D01*
X231658204Y147721109D01*
X231641534Y147626574D01*
X231641532Y147626561D01*
X231634768Y147549262D01*
X231633164Y147530921D01*
X231632640Y147482917D01*
X231632640Y141882917D01*
X231633165Y141838045D01*
X231633202Y141834911D01*
X231633203Y141834902D01*
X231641565Y141739291D01*
X231658237Y141644727D01*
X231683082Y141552002D01*
X231683084Y141551995D01*
X231683086Y141551989D01*
X231715920Y141461772D01*
X231756493Y141374760D01*
X231756500Y141374748D01*
X231804491Y141291621D01*
X231804492Y141291619D01*
X231804495Y141291615D01*
X231859561Y141212970D01*
X231921272Y141139424D01*
X231955161Y141105534D01*
X231989160Y141071533D01*
X232062696Y141009827D01*
X232062701Y141009823D01*
X232141344Y140954754D01*
X232211243Y140914396D01*
X232259457Y140863829D01*
X232273240Y140807011D01*
X232273240Y139637440D01*
X232253555Y139570401D01*
X232200751Y139524646D01*
X232187557Y139519509D01*
X232012916Y139462767D01*
X232012909Y139462764D01*
X231844546Y139376982D01*
X231844534Y139376974D01*
X231747961Y139306809D01*
X231682155Y139283329D01*
X231675076Y139283127D01*
X231530580Y139283127D01*
X231497847Y139282727D01*
X231491296Y139282646D01*
X231413124Y139274948D01*
X231336072Y139259623D01*
X231336061Y139259620D01*
X231260905Y139236823D01*
X231188325Y139206761D01*
X231188320Y139206759D01*
X231119037Y139169729D01*
X231053709Y139126079D01*
X230992993Y139076252D01*
X230937447Y139020709D01*
X230887613Y138959989D01*
X230887612Y138959988D01*
X230843965Y138894670D01*
X230843955Y138894654D01*
X230806928Y138825384D01*
X230806922Y138825372D01*
X230776864Y138752813D01*
X230754059Y138677637D01*
X230754058Y138677633D01*
X230754058Y138677632D01*
X230738730Y138600584D01*
X230731028Y138522406D01*
X230730580Y138483127D01*
X230730570Y138483126D01*
X230730087Y138359298D01*
X230730086Y138359039D01*
X230730079Y138359019D01*
X230730028Y138356074D01*
X230722289Y138109162D01*
X230722107Y138105281D01*
X230706646Y137858908D01*
X230706342Y137855035D01*
X230683173Y137609305D01*
X230682752Y137605486D01*
X230651896Y137360605D01*
X230651350Y137356758D01*
X230612838Y137112978D01*
X230612172Y137109150D01*
X230566037Y136866674D01*
X230565251Y136862869D01*
X230511545Y136621969D01*
X230510640Y136618191D01*
X230449414Y136379094D01*
X230448391Y136375344D01*
X230379702Y136138282D01*
X230378562Y136134567D01*
X230302482Y135899784D01*
X230301227Y135896108D01*
X230217825Y135663813D01*
X230216455Y135660177D01*
X230125813Y135430597D01*
X230124329Y135427005D01*
X230026547Y135200405D01*
X230024953Y135196863D01*
X229962031Y135062757D01*
X229920116Y134973425D01*
X229918410Y134969933D01*
X229806617Y134749879D01*
X229804803Y134746443D01*
X229686176Y134530010D01*
X229684255Y134526632D01*
X229558916Y134314041D01*
X229556891Y134310725D01*
X229424916Y134102106D01*
X229422787Y134098855D01*
X229284391Y133894549D01*
X229282162Y133891367D01*
X229137395Y133691445D01*
X229135067Y133688334D01*
X228984119Y133493061D01*
X228981695Y133490025D01*
X228824706Y133299581D01*
X228822187Y133296621D01*
X228659306Y133111188D01*
X228656697Y133108310D01*
X228488086Y132928069D01*
X228485387Y132925273D01*
X228311198Y132750392D01*
X228308414Y132747683D01*
X228128881Y132578390D01*
X228126012Y132575768D01*
X227941207Y132412135D01*
X227938258Y132409605D01*
X227748427Y132251851D01*
X227745400Y132249415D01*
X227550727Y132097691D01*
X227547625Y132095351D01*
X227348315Y131949817D01*
X227345142Y131947575D01*
X227141344Y131808339D01*
X227138101Y131806197D01*
X226930037Y131673413D01*
X226926730Y131671375D01*
X226714623Y131545183D01*
X226711252Y131543248D01*
X226495304Y131423770D01*
X226491876Y131421943D01*
X226272254Y131309270D01*
X226268769Y131307551D01*
X226045763Y131201833D01*
X226042227Y131200224D01*
X225816004Y131101538D01*
X225812418Y131100040D01*
X225583227Y131008496D01*
X225579597Y131007111D01*
X225347608Y130922777D01*
X225343935Y130921507D01*
X225109446Y130844494D01*
X225105736Y130843340D01*
X224868976Y130773718D01*
X224865232Y130772680D01*
X224626371Y130710501D01*
X224622596Y130709581D01*
X224381664Y130654862D01*
X224378314Y130654150D01*
X224287462Y130636139D01*
X224261910Y130637397D01*
X224258201Y130631832D01*
X224255746Y130628284D01*
X224251945Y130622992D01*
X224261015Y130599722D01*
X224364146Y129807402D01*
X224353279Y129738383D01*
X224325952Y129700897D01*
X224317619Y129693093D01*
X224197769Y129536900D01*
X224104960Y129363273D01*
X224041671Y129176850D01*
X224009591Y128982606D01*
X224009658Y128898151D01*
X224009658Y128896303D01*
X224007277Y128872121D01*
X224004589Y128858602D01*
X223986044Y128813851D01*
X223985301Y128812740D01*
X223951160Y128778599D01*
X223950049Y128777856D01*
X223905298Y128759311D01*
X223891779Y128756623D01*
X223867588Y128754242D01*
X223815522Y128754246D01*
X223812080Y128753995D01*
X222919038Y128750713D01*
X222918582Y128750712D01*
X190758911Y128750720D01*
X190758863Y128750720D01*
X190757059Y128750733D01*
X189898859Y128763218D01*
X189895254Y128763323D01*
X189038685Y128800721D01*
X189035085Y128800931D01*
X188182924Y128863010D01*
X188178381Y128863425D01*
X187660855Y128920327D01*
X187638159Y128925000D01*
X187625862Y128928759D01*
X187568885Y128946176D01*
X187545023Y128956304D01*
X187476496Y128994287D01*
X187455258Y129009158D01*
X187396131Y129060557D01*
X187378450Y129079517D01*
X187331298Y129142093D01*
X187317946Y129164317D01*
X187282075Y129241252D01*
X187277218Y129253275D01*
X187277215Y129253282D01*
X187277214Y129253285D01*
X187260586Y129301584D01*
X187260576Y129301598D01*
X187257711Y129309918D01*
X187257710Y129309920D01*
X187257709Y129309924D01*
X187247591Y129339309D01*
X187247590Y129339310D01*
X187247588Y129339316D01*
X187157369Y129512096D01*
X187157367Y129512098D01*
X187157366Y129512101D01*
X187157363Y129512105D01*
X187042411Y129669496D01*
X187042402Y129669506D01*
X186958987Y129753757D01*
X186925808Y129815246D01*
X186923317Y129833748D01*
X186868976Y130762530D01*
X186868975Y130762531D01*
X186632390Y130796722D01*
X186630550Y130797002D01*
X186384215Y130836385D01*
X186158559Y130872462D01*
X186156463Y130872816D01*
X185699303Y130953964D01*
X212279875Y130953964D01*
X212279875Y130746037D01*
X212312399Y130540685D01*
X212376651Y130342940D01*
X212394084Y130308727D01*
X212471042Y130157689D01*
X212593252Y129989481D01*
X212740271Y129842462D01*
X212908479Y129720252D01*
X212961778Y129693095D01*
X213093729Y129625862D01*
X213093731Y129625862D01*
X213093734Y129625860D01*
X213199728Y129591421D01*
X213291474Y129561610D01*
X213496827Y129529085D01*
X213496832Y129529085D01*
X213704753Y129529085D01*
X213910105Y129561610D01*
X213939161Y129571051D01*
X214107846Y129625860D01*
X214293101Y129720252D01*
X214461309Y129842462D01*
X214608328Y129989481D01*
X214730538Y130157689D01*
X214824930Y130342944D01*
X214889180Y130540685D01*
X214921705Y130746037D01*
X214921705Y130953964D01*
X214889180Y131159316D01*
X214840743Y131308389D01*
X214824930Y131357056D01*
X214824928Y131357059D01*
X214824928Y131357061D01*
X214753802Y131496653D01*
X214730538Y131542311D01*
X214608328Y131710519D01*
X214461309Y131857538D01*
X214293101Y131979748D01*
X214243025Y132005263D01*
X214107850Y132074139D01*
X213910105Y132138391D01*
X213704753Y132170915D01*
X213704748Y132170915D01*
X213496832Y132170915D01*
X213496827Y132170915D01*
X213291474Y132138391D01*
X213093729Y132074139D01*
X212908478Y131979748D01*
X212740268Y131857536D01*
X212593254Y131710522D01*
X212471042Y131542312D01*
X212376651Y131357061D01*
X212312399Y131159316D01*
X212279875Y130953964D01*
X185699303Y130953964D01*
X185686036Y130956319D01*
X185683947Y130956708D01*
X185214974Y131048270D01*
X185212891Y131048695D01*
X184745534Y131148287D01*
X184743459Y131148748D01*
X184277933Y131256324D01*
X184275866Y131256820D01*
X183812170Y131372380D01*
X183810113Y131372912D01*
X183348549Y131496379D01*
X183346500Y131496946D01*
X183111384Y131564179D01*
X182887109Y131628311D01*
X182885110Y131628901D01*
X182745661Y131671375D01*
X182427948Y131768147D01*
X182425920Y131768784D01*
X181971321Y131915811D01*
X181969304Y131916483D01*
X181517203Y132071311D01*
X181515199Y132072016D01*
X181065907Y132234536D01*
X181063914Y132235276D01*
X180617387Y132405508D01*
X180615407Y132406283D01*
X180171972Y132584101D01*
X180170007Y132584908D01*
X179788227Y132745650D01*
X179729474Y132770387D01*
X179727762Y132771123D01*
X179539254Y132853847D01*
X190800290Y132853847D01*
X190800290Y132696154D01*
X190831051Y132541511D01*
X190831054Y132541499D01*
X190891392Y132395828D01*
X190891399Y132395815D01*
X190979000Y132264712D01*
X190979003Y132264708D01*
X191090497Y132153214D01*
X191090501Y132153211D01*
X191221604Y132065610D01*
X191221617Y132065603D01*
X191367288Y132005265D01*
X191367293Y132005263D01*
X191495565Y131979748D01*
X191521943Y131974501D01*
X191521946Y131974500D01*
X191521948Y131974500D01*
X191679634Y131974500D01*
X191679635Y131974501D01*
X191834287Y132005263D01*
X191979969Y132065606D01*
X192111079Y132153211D01*
X192222579Y132264711D01*
X192310184Y132395821D01*
X192314197Y132405508D01*
X192370525Y132541499D01*
X192370527Y132541503D01*
X192401290Y132696158D01*
X192401290Y132853842D01*
X192401290Y132853845D01*
X192389972Y132910742D01*
X192389972Y132910743D01*
X192386371Y132928847D01*
X220000290Y132928847D01*
X220000290Y132771154D01*
X220031051Y132616511D01*
X220031054Y132616499D01*
X220091392Y132470828D01*
X220091399Y132470815D01*
X220179000Y132339712D01*
X220179003Y132339708D01*
X220290497Y132228214D01*
X220290501Y132228211D01*
X220421604Y132140610D01*
X220421617Y132140603D01*
X220530867Y132095351D01*
X220567293Y132080263D01*
X220721943Y132049501D01*
X220721946Y132049500D01*
X220721948Y132049500D01*
X220879634Y132049500D01*
X220879635Y132049501D01*
X221034287Y132080263D01*
X221174619Y132138390D01*
X221179962Y132140603D01*
X221179962Y132140604D01*
X221179969Y132140606D01*
X221311079Y132228211D01*
X221422579Y132339711D01*
X221510184Y132470821D01*
X221570527Y132616503D01*
X221601290Y132771158D01*
X221601290Y132928842D01*
X221601290Y132928845D01*
X221601289Y132928847D01*
X221585447Y133008490D01*
X221570527Y133083497D01*
X221559057Y133111188D01*
X221510187Y133229173D01*
X221510180Y133229186D01*
X221422579Y133360289D01*
X221422576Y133360293D01*
X221311082Y133471787D01*
X221311078Y133471790D01*
X221179975Y133559391D01*
X221179962Y133559398D01*
X221034291Y133619736D01*
X221034279Y133619739D01*
X220879635Y133650500D01*
X220879632Y133650500D01*
X220721948Y133650500D01*
X220721945Y133650500D01*
X220567300Y133619739D01*
X220567288Y133619736D01*
X220421617Y133559398D01*
X220421604Y133559391D01*
X220290501Y133471790D01*
X220290497Y133471787D01*
X220179003Y133360293D01*
X220179000Y133360289D01*
X220091399Y133229186D01*
X220091392Y133229173D01*
X220031054Y133083502D01*
X220031051Y133083490D01*
X220000290Y132928847D01*
X192386371Y132928847D01*
X192370528Y133008490D01*
X192370527Y133008497D01*
X192341119Y133079495D01*
X192310187Y133154173D01*
X192310180Y133154186D01*
X192222579Y133285289D01*
X192222576Y133285293D01*
X192111082Y133396787D01*
X192111078Y133396790D01*
X191979975Y133484391D01*
X191979962Y133484398D01*
X191834291Y133544736D01*
X191834279Y133544739D01*
X191679635Y133575500D01*
X191679632Y133575500D01*
X191521948Y133575500D01*
X191521945Y133575500D01*
X191367300Y133544739D01*
X191367288Y133544736D01*
X191221617Y133484398D01*
X191221604Y133484391D01*
X191090501Y133396790D01*
X191090497Y133396787D01*
X190979003Y133285293D01*
X190979000Y133285289D01*
X190891399Y133154186D01*
X190891392Y133154173D01*
X190831054Y133008502D01*
X190831051Y133008490D01*
X190800290Y132853847D01*
X179539254Y132853847D01*
X179511654Y132865959D01*
X179508907Y132867243D01*
X179141254Y132329403D01*
X179087172Y132285166D01*
X179017759Y132277192D01*
X178986321Y132287072D01*
X178210285Y132650289D01*
X178206606Y132652085D01*
X177506309Y133008497D01*
X177368631Y133078568D01*
X177365020Y133080481D01*
X177359561Y133083490D01*
X176541569Y133534403D01*
X176538022Y133536436D01*
X176524073Y133544737D01*
X176277552Y133691445D01*
X175737685Y134012727D01*
X175731042Y134016972D01*
X175582130Y134118937D01*
X175571446Y134127139D01*
X175537917Y134155905D01*
X175407602Y134267706D01*
X175396636Y134278356D01*
X175249224Y134440362D01*
X175239649Y134452288D01*
X175113310Y134631210D01*
X175105279Y134644217D01*
X175001933Y134837336D01*
X174995566Y134851234D01*
X174916784Y135055609D01*
X174912172Y135070196D01*
X174859257Y135282314D01*
X174856702Y135295607D01*
X174838332Y135430597D01*
X174809832Y135640027D01*
X174808902Y135649682D01*
X174788982Y136000644D01*
X174788814Y136010346D01*
X174796496Y136361766D01*
X174797090Y136371460D01*
X174832329Y136721208D01*
X174833680Y136730812D01*
X174855940Y136853857D01*
X190800290Y136853857D01*
X190800290Y136696164D01*
X190831051Y136541521D01*
X190831054Y136541509D01*
X190891392Y136395838D01*
X190891399Y136395825D01*
X190979000Y136264722D01*
X190979003Y136264718D01*
X191090497Y136153224D01*
X191090501Y136153221D01*
X191221604Y136065620D01*
X191221617Y136065613D01*
X191366786Y136005483D01*
X191367293Y136005273D01*
X191521943Y135974511D01*
X191521946Y135974510D01*
X191521948Y135974510D01*
X191679634Y135974510D01*
X191679635Y135974511D01*
X191834287Y136005273D01*
X191979969Y136065616D01*
X192111079Y136153221D01*
X192222579Y136264721D01*
X192310184Y136395831D01*
X192370527Y136541513D01*
X192401290Y136696168D01*
X192401290Y136853852D01*
X192401290Y136853855D01*
X192389974Y136910742D01*
X192389974Y136910743D01*
X192386373Y136928847D01*
X220000290Y136928847D01*
X220000290Y136771154D01*
X220031051Y136616511D01*
X220031054Y136616499D01*
X220091392Y136470828D01*
X220091399Y136470815D01*
X220179000Y136339712D01*
X220179003Y136339708D01*
X220290497Y136228214D01*
X220290501Y136228211D01*
X220421604Y136140610D01*
X220421617Y136140603D01*
X220567288Y136080265D01*
X220567293Y136080263D01*
X220721943Y136049501D01*
X220721946Y136049500D01*
X220721948Y136049500D01*
X220879634Y136049500D01*
X220879635Y136049501D01*
X221034287Y136080263D01*
X221146956Y136126933D01*
X221179962Y136140603D01*
X221179962Y136140604D01*
X221179969Y136140606D01*
X221311079Y136228211D01*
X221422579Y136339711D01*
X221510184Y136470821D01*
X221570527Y136616503D01*
X221601290Y136771158D01*
X221601290Y136928842D01*
X221601290Y136928845D01*
X221601289Y136928847D01*
X221585445Y137008500D01*
X221570527Y137083497D01*
X221541243Y137154196D01*
X221510187Y137229173D01*
X221510180Y137229186D01*
X221422579Y137360289D01*
X221422576Y137360293D01*
X221311082Y137471787D01*
X221311078Y137471790D01*
X221179975Y137559391D01*
X221179962Y137559398D01*
X221034291Y137619736D01*
X221034279Y137619739D01*
X220879635Y137650500D01*
X220879632Y137650500D01*
X220721948Y137650500D01*
X220721945Y137650500D01*
X220567300Y137619739D01*
X220567288Y137619736D01*
X220421617Y137559398D01*
X220421604Y137559391D01*
X220290501Y137471790D01*
X220290497Y137471787D01*
X220179003Y137360293D01*
X220179000Y137360289D01*
X220091399Y137229186D01*
X220091392Y137229173D01*
X220031054Y137083502D01*
X220031051Y137083490D01*
X220000290Y136928847D01*
X192386373Y136928847D01*
X192370528Y137008500D01*
X192370527Y137008507D01*
X192340295Y137081494D01*
X192310187Y137154183D01*
X192310180Y137154196D01*
X192222579Y137285299D01*
X192222576Y137285303D01*
X192111082Y137396797D01*
X192111078Y137396800D01*
X191979975Y137484401D01*
X191979962Y137484408D01*
X191834291Y137544746D01*
X191834279Y137544749D01*
X191679635Y137575510D01*
X191679632Y137575510D01*
X191521948Y137575510D01*
X191521945Y137575510D01*
X191367300Y137544749D01*
X191367288Y137544746D01*
X191221617Y137484408D01*
X191221604Y137484401D01*
X191090501Y137396800D01*
X191090497Y137396797D01*
X190979003Y137285303D01*
X190979000Y137285299D01*
X190891399Y137154196D01*
X190891392Y137154183D01*
X190831054Y137008512D01*
X190831051Y137008500D01*
X190800290Y136853857D01*
X174855940Y136853857D01*
X174896256Y137076713D01*
X174898354Y137086176D01*
X174987891Y137426132D01*
X174990725Y137435395D01*
X175106654Y137767245D01*
X175110212Y137776274D01*
X175252810Y138100240D01*
X175254832Y138104599D01*
X175361082Y138322315D01*
X175541438Y138777163D01*
X175686547Y139244452D01*
X175795561Y139721455D01*
X175867846Y140205387D01*
X175902979Y140693425D01*
X175900754Y141182721D01*
X175861186Y141670420D01*
X175860288Y141676081D01*
X198999499Y141676081D01*
X199028340Y141531094D01*
X199028342Y141531088D01*
X199057053Y141461772D01*
X199084916Y141394506D01*
X199167048Y141271584D01*
X199167052Y141271580D01*
X199167052Y141271579D01*
X199463181Y140975451D01*
X199496666Y140914128D01*
X199499500Y140887770D01*
X199499500Y140426082D01*
X199499500Y140426080D01*
X199499499Y140426080D01*
X199528340Y140281093D01*
X199528343Y140281083D01*
X199584912Y140144512D01*
X199584919Y140144499D01*
X199667048Y140021585D01*
X199667051Y140021581D01*
X199771580Y139917052D01*
X199771584Y139917049D01*
X199894498Y139834920D01*
X199894511Y139834913D01*
X200031082Y139778344D01*
X200031087Y139778342D01*
X200031091Y139778342D01*
X200031092Y139778341D01*
X200176079Y139749500D01*
X200176082Y139749500D01*
X200323920Y139749500D01*
X200421462Y139768904D01*
X200468913Y139778342D01*
X200605495Y139834916D01*
X200728416Y139917049D01*
X200832951Y140021584D01*
X200915084Y140144505D01*
X200971658Y140281087D01*
X201000500Y140426082D01*
X201000500Y141323918D01*
X201000500Y141323921D01*
X200971659Y141468908D01*
X200971658Y141468909D01*
X200971658Y141468913D01*
X200915084Y141605495D01*
X200861339Y141685931D01*
X200861339Y141685932D01*
X200832950Y141728419D01*
X200228421Y142332948D01*
X200228417Y142332951D01*
X200228416Y142332952D01*
X200105494Y142415084D01*
X200105492Y142415085D01*
X200105490Y142415086D01*
X199968912Y142471658D01*
X199968906Y142471660D01*
X199823919Y142500500D01*
X199823917Y142500500D01*
X199676083Y142500500D01*
X199676081Y142500500D01*
X199531093Y142471660D01*
X199531087Y142471658D01*
X199394509Y142415086D01*
X199394502Y142415082D01*
X199332418Y142373600D01*
X199271584Y142332952D01*
X199271582Y142332951D01*
X199271579Y142332948D01*
X199271578Y142332948D01*
X199167052Y142228422D01*
X199167052Y142228421D01*
X199167049Y142228418D01*
X199167048Y142228416D01*
X199126400Y142167582D01*
X199084918Y142105498D01*
X199084914Y142105491D01*
X199028342Y141968913D01*
X199028340Y141968907D01*
X198999500Y141823920D01*
X198999500Y141823917D01*
X198999500Y141676083D01*
X198999500Y141676081D01*
X198999499Y141676081D01*
X175860288Y141676081D01*
X175784504Y142153675D01*
X175671157Y142629667D01*
X175671154Y142629675D01*
X175671150Y142629692D01*
X175521808Y143095610D01*
X175521806Y143095617D01*
X175337322Y143548807D01*
X175118782Y143986592D01*
X174867461Y144406417D01*
X174666691Y144690143D01*
X174584832Y144805826D01*
X174584830Y144805828D01*
X174552513Y144844807D01*
X174272526Y145182509D01*
X174272525Y145182511D01*
X173932383Y145534245D01*
X173932376Y145534252D01*
X173665024Y145771470D01*
X173665017Y145771475D01*
X173649866Y145784918D01*
X173566384Y145858991D01*
X173565903Y145859356D01*
X173565895Y145859362D01*
X203451290Y145859362D01*
X203451290Y145640639D01*
X203485504Y145424624D01*
X203553087Y145216620D01*
X203553088Y145216617D01*
X203652385Y145021740D01*
X203780932Y144844807D01*
X203935596Y144690143D01*
X204101164Y144569853D01*
X204112533Y144561593D01*
X204239922Y144496685D01*
X204307406Y144462299D01*
X204307409Y144462298D01*
X204411411Y144428507D01*
X204515415Y144394714D01*
X204615462Y144378868D01*
X204731429Y144360500D01*
X204731434Y144360500D01*
X204950151Y144360500D01*
X205054872Y144377088D01*
X205166165Y144394714D01*
X205374173Y144462299D01*
X205569047Y144561593D01*
X205668391Y144633771D01*
X205745983Y144690143D01*
X205745985Y144690146D01*
X205745989Y144690148D01*
X205900642Y144844801D01*
X205900644Y144844805D01*
X205900647Y144844807D01*
X205957019Y144922399D01*
X206029197Y145021743D01*
X206128491Y145216617D01*
X206196076Y145424625D01*
X206220372Y145578021D01*
X206230290Y145640639D01*
X206230290Y145859362D01*
X206200476Y146047594D01*
X206196076Y146075375D01*
X206128491Y146283383D01*
X206128491Y146283384D01*
X206086881Y146365046D01*
X206029197Y146478257D01*
X206007564Y146508033D01*
X205900647Y146655194D01*
X205745983Y146809858D01*
X205569050Y146938405D01*
X205569049Y146938406D01*
X205569047Y146938407D01*
X205501163Y146972996D01*
X205374173Y147037702D01*
X205374170Y147037703D01*
X205166166Y147105286D01*
X204950151Y147139500D01*
X204950146Y147139500D01*
X204731434Y147139500D01*
X204731429Y147139500D01*
X204515413Y147105286D01*
X204307409Y147037703D01*
X204307406Y147037702D01*
X204112529Y146938405D01*
X203935596Y146809858D01*
X203780932Y146655194D01*
X203652385Y146478261D01*
X203553088Y146283384D01*
X203553087Y146283381D01*
X203485504Y146075377D01*
X203451290Y145859362D01*
X173565895Y145859362D01*
X173176670Y146154845D01*
X173176665Y146154849D01*
X172765505Y146420091D01*
X172765502Y146420092D01*
X172765500Y146420093D01*
X172765494Y146420097D01*
X172335277Y146653184D01*
X172278953Y146678344D01*
X171888515Y146852753D01*
X171427845Y147017627D01*
X171427842Y147017628D01*
X171427841Y147017629D01*
X171427839Y147017629D01*
X171199711Y147080100D01*
X170955920Y147146860D01*
X170955923Y147146860D01*
X170475483Y147239695D01*
X169989424Y147295578D01*
X169989404Y147295580D01*
X169989399Y147295580D01*
X169989390Y147295581D01*
X169989381Y147295581D01*
X169630691Y147309239D01*
X169500452Y147314198D01*
X169500450Y147314198D01*
X169500449Y147314198D01*
X169500448Y147314198D01*
X169192482Y147302381D01*
X169011511Y147295437D01*
X169011509Y147295437D01*
X169011484Y147295435D01*
X168525435Y147239410D01*
X168525429Y147239409D01*
X168045035Y147146438D01*
X168045029Y147146436D01*
X167573165Y147017073D01*
X167573146Y147017067D01*
X167112518Y146852056D01*
X167112511Y146852053D01*
X166891560Y146753247D01*
X166886640Y146751173D01*
X166526940Y146608568D01*
X166516882Y146605072D01*
X166148748Y146494596D01*
X166138426Y146491976D01*
X165762178Y146413496D01*
X165751669Y146411771D01*
X165370073Y146365863D01*
X165359455Y146365046D01*
X164975326Y146352049D01*
X164964678Y146352146D01*
X164580841Y146372155D01*
X164570240Y146373166D01*
X164537066Y146377773D01*
X164189556Y146426033D01*
X164179081Y146427949D01*
X163804321Y146513287D01*
X163794049Y146516095D01*
X163427996Y146633273D01*
X163418003Y146636952D01*
X163063356Y146785104D01*
X163053715Y146789627D01*
X162713086Y146967662D01*
X162703868Y146972996D01*
X162379774Y147179600D01*
X162371049Y147185704D01*
X162065873Y147419355D01*
X162057703Y147426187D01*
X161773696Y147685166D01*
X161766143Y147692672D01*
X161625859Y147844605D01*
X161505411Y147975056D01*
X161498541Y147983169D01*
X161262987Y148286898D01*
X161256829Y148295585D01*
X161048213Y148618392D01*
X161042823Y148627575D01*
X160869495Y148954232D01*
X160862851Y148969013D01*
X160850402Y149002383D01*
X159138318Y153591836D01*
X157971457Y156719750D01*
X157969265Y156726153D01*
X157903309Y156937521D01*
X157751008Y157425596D01*
X157750365Y157433603D01*
X157735346Y157475788D01*
X157721992Y157518585D01*
X157721991Y157518587D01*
X157718578Y157525963D01*
X157719015Y157526166D01*
X157713049Y157538417D01*
X156438183Y161119357D01*
X170983501Y161119357D01*
X170983501Y160880644D01*
X171020841Y160644885D01*
X171094606Y160417863D01*
X171202975Y160205178D01*
X171343273Y160012072D01*
X171343277Y160012068D01*
X175947181Y155408165D01*
X175980666Y155346842D01*
X175983500Y155320484D01*
X175983500Y152880650D01*
X176020841Y152644889D01*
X176020841Y152644888D01*
X176020842Y152644885D01*
X176094605Y152417866D01*
X176202973Y152205181D01*
X176260864Y152125501D01*
X176343279Y152012066D01*
X178843279Y149512067D01*
X179012067Y149343279D01*
X179205181Y149202973D01*
X179417866Y149094605D01*
X179459465Y149081089D01*
X179459466Y149081088D01*
X179532644Y149057311D01*
X179644885Y149020841D01*
X179761441Y149002381D01*
X179880649Y148983500D01*
X192570483Y148983500D01*
X192637522Y148963815D01*
X192658164Y148947181D01*
X193009814Y148595532D01*
X193343279Y148262067D01*
X193512067Y148093279D01*
X193705181Y147952973D01*
X193801159Y147904070D01*
X193917868Y147844604D01*
X193936424Y147838576D01*
X193973538Y147826517D01*
X193973539Y147826516D01*
X193973540Y147826516D01*
X194144885Y147770841D01*
X194262767Y147752171D01*
X194380649Y147733500D01*
X194380650Y147733500D01*
X200619350Y147733500D01*
X200619351Y147733500D01*
X200855115Y147770842D01*
X201082134Y147844605D01*
X201294819Y147952973D01*
X201394645Y148025501D01*
X201487934Y148093279D01*
X202451966Y149057311D01*
X207153267Y149057311D01*
X207181147Y148917154D01*
X207181149Y148917148D01*
X207235837Y148785118D01*
X207235842Y148785109D01*
X207315235Y148666290D01*
X207315238Y148666286D01*
X207416285Y148565239D01*
X207416289Y148565236D01*
X207535108Y148485843D01*
X207535117Y148485838D01*
X207544772Y148481839D01*
X207667148Y148431149D01*
X207667152Y148431149D01*
X207667153Y148431148D01*
X207807310Y148403268D01*
X207807313Y148403268D01*
X207950225Y148403268D01*
X208077543Y148428594D01*
X208090388Y148431149D01*
X208222421Y148485839D01*
X208253207Y148506411D01*
X208319882Y148527287D01*
X208387262Y148508803D01*
X208409777Y148490988D01*
X209010883Y147889882D01*
X209044368Y147828559D01*
X209044819Y147826393D01*
X209052379Y147788386D01*
X209052380Y147788382D01*
X209107069Y147656350D01*
X209107074Y147656341D01*
X209186467Y147537522D01*
X209186470Y147537518D01*
X209287517Y147436471D01*
X209287521Y147436468D01*
X209406340Y147357075D01*
X209406346Y147357072D01*
X209406347Y147357071D01*
X209538380Y147302381D01*
X209538384Y147302381D01*
X209538385Y147302380D01*
X209678542Y147274500D01*
X209678545Y147274500D01*
X209821457Y147274500D01*
X209915751Y147293258D01*
X209961620Y147302381D01*
X210093653Y147357071D01*
X210212479Y147436468D01*
X210313532Y147537521D01*
X210392929Y147656347D01*
X210447619Y147788380D01*
X210462519Y147863284D01*
X210475500Y147928543D01*
X210475500Y148071458D01*
X210447620Y148211615D01*
X210447619Y148211616D01*
X210447619Y148211620D01*
X210392929Y148343653D01*
X210392928Y148343654D01*
X210392925Y148343660D01*
X210313532Y148462479D01*
X210313529Y148462483D01*
X210212482Y148563530D01*
X210212478Y148563533D01*
X210093659Y148642926D01*
X210093650Y148642931D01*
X209961618Y148697620D01*
X209961614Y148697621D01*
X209923607Y148705181D01*
X209861696Y148737566D01*
X209860118Y148739117D01*
X209136819Y149462416D01*
X209122115Y149489344D01*
X209105523Y149515162D01*
X209104631Y149521363D01*
X209103334Y149523739D01*
X209100500Y149550097D01*
X209100500Y149626081D01*
X212499499Y149626081D01*
X212528340Y149481094D01*
X212528342Y149481088D01*
X212584916Y149344506D01*
X212667048Y149221584D01*
X212863182Y149025451D01*
X212896666Y148964130D01*
X212899500Y148937771D01*
X212899500Y147326082D01*
X212899500Y147326080D01*
X212899499Y147326080D01*
X212928340Y147181093D01*
X212928343Y147181083D01*
X212984912Y147044512D01*
X212984919Y147044499D01*
X213067048Y146921585D01*
X213067051Y146921581D01*
X213171580Y146817052D01*
X213171584Y146817049D01*
X213294498Y146734920D01*
X213294511Y146734913D01*
X213431082Y146678344D01*
X213431087Y146678342D01*
X213431091Y146678342D01*
X213431092Y146678341D01*
X213576079Y146649500D01*
X213576082Y146649500D01*
X213723920Y146649500D01*
X213821462Y146668904D01*
X213868913Y146678342D01*
X214005495Y146734916D01*
X214128416Y146817049D01*
X214232951Y146921584D01*
X214315084Y147044505D01*
X214371658Y147181087D01*
X214383316Y147239695D01*
X214400500Y147326080D01*
X214400500Y149373921D01*
X214371659Y149518908D01*
X214371658Y149518909D01*
X214371658Y149518913D01*
X214358741Y149550097D01*
X214315087Y149655489D01*
X214315080Y149655502D01*
X214232952Y149778415D01*
X214232951Y149778416D01*
X214128416Y149882951D01*
X214092454Y149918913D01*
X213728421Y150282948D01*
X213728417Y150282951D01*
X213728416Y150282952D01*
X213605494Y150365084D01*
X213605492Y150365085D01*
X213605490Y150365086D01*
X213468912Y150421658D01*
X213468906Y150421660D01*
X213323919Y150450500D01*
X213323917Y150450500D01*
X213176083Y150450500D01*
X213176081Y150450500D01*
X213031093Y150421660D01*
X213031087Y150421658D01*
X212894509Y150365086D01*
X212894502Y150365082D01*
X212832418Y150323600D01*
X212771584Y150282952D01*
X212771582Y150282951D01*
X212771579Y150282948D01*
X212771578Y150282948D01*
X212667052Y150178422D01*
X212667052Y150178421D01*
X212667049Y150178418D01*
X212667048Y150178416D01*
X212626400Y150117582D01*
X212584918Y150055498D01*
X212584914Y150055491D01*
X212528342Y149918913D01*
X212528340Y149918907D01*
X212499500Y149773920D01*
X212499500Y149773917D01*
X212499500Y149626083D01*
X212499500Y149626081D01*
X212499499Y149626081D01*
X209100500Y149626081D01*
X209100500Y151725500D01*
X209120185Y151792539D01*
X209172989Y151838294D01*
X209224500Y151849500D01*
X211248920Y151849500D01*
X211346462Y151868904D01*
X211393913Y151878342D01*
X211530495Y151934916D01*
X211653416Y152017049D01*
X211757951Y152121584D01*
X211827774Y152226081D01*
X214574499Y152226081D01*
X214603340Y152081094D01*
X214603342Y152081088D01*
X214645562Y151979158D01*
X214659916Y151944506D01*
X214742048Y151821584D01*
X214742052Y151821580D01*
X214742052Y151821579D01*
X214846578Y151717053D01*
X214846581Y151717051D01*
X214846584Y151717048D01*
X214969506Y151634916D01*
X215106088Y151578342D01*
X215106092Y151578342D01*
X215106093Y151578341D01*
X215251080Y151549500D01*
X215251083Y151549500D01*
X215398918Y151549500D01*
X215516589Y151572907D01*
X215540781Y151575290D01*
X217812327Y151575290D01*
X217909869Y151594694D01*
X217957320Y151604132D01*
X218062954Y151647888D01*
X218093895Y151660703D01*
X218093895Y151660704D01*
X218093902Y151660706D01*
X218157159Y151702973D01*
X218216823Y151742838D01*
X218594582Y152120598D01*
X218676715Y152243520D01*
X218733289Y152380101D01*
X218751068Y152469480D01*
X218762131Y152525095D01*
X218762131Y152672934D01*
X218733290Y152817921D01*
X218733289Y152817922D01*
X218733289Y152817926D01*
X218711329Y152870943D01*
X218676716Y152954507D01*
X218676714Y152954510D01*
X218594583Y153077429D01*
X218594577Y153077436D01*
X218490052Y153181961D01*
X218490045Y153181967D01*
X218367126Y153264098D01*
X218367123Y153264100D01*
X218230547Y153320671D01*
X218230537Y153320674D01*
X218085550Y153349514D01*
X218085548Y153349514D01*
X217937714Y153349514D01*
X217937712Y153349514D01*
X217792723Y153320674D01*
X217792717Y153320672D01*
X217656135Y153264098D01*
X217533216Y153181967D01*
X217533215Y153181966D01*
X217498537Y153147288D01*
X217463857Y153112608D01*
X217402537Y153079124D01*
X217376178Y153076290D01*
X215276866Y153076290D01*
X215248032Y153070556D01*
X215248033Y153070555D01*
X215131883Y153047451D01*
X215131879Y153047450D01*
X215063854Y153019273D01*
X215063847Y153019270D01*
X215058062Y153016873D01*
X214995295Y152990874D01*
X214934871Y152950500D01*
X214929954Y152947216D01*
X214929949Y152947212D01*
X214872376Y152908743D01*
X214742050Y152778419D01*
X214659918Y152655498D01*
X214659914Y152655491D01*
X214603342Y152518913D01*
X214603340Y152518907D01*
X214574500Y152373920D01*
X214574500Y152373917D01*
X214574500Y152226083D01*
X214574500Y152226081D01*
X214574499Y152226081D01*
X211827774Y152226081D01*
X211840084Y152244505D01*
X211896658Y152381087D01*
X211911386Y152455127D01*
X211925500Y152526080D01*
X211925500Y152673921D01*
X211896659Y152818908D01*
X211896658Y152818909D01*
X211896658Y152818913D01*
X211875107Y152870943D01*
X211840087Y152955489D01*
X211840080Y152955502D01*
X211757951Y153078416D01*
X211757948Y153078420D01*
X211653419Y153182949D01*
X211653415Y153182952D01*
X211530501Y153265081D01*
X211530488Y153265088D01*
X211393917Y153321657D01*
X211393907Y153321660D01*
X211248920Y153350500D01*
X211248918Y153350500D01*
X209224500Y153350500D01*
X209157461Y153370185D01*
X209111706Y153422989D01*
X209100500Y153474500D01*
X209100500Y153926870D01*
X213199499Y153926870D01*
X213228340Y153781883D01*
X213228343Y153781873D01*
X213284913Y153645300D01*
X213284914Y153645299D01*
X213284916Y153645295D01*
X213298811Y153624500D01*
X213367048Y153522374D01*
X213521585Y153367838D01*
X213613880Y153306170D01*
X213644507Y153285705D01*
X213712797Y153257419D01*
X213781088Y153229131D01*
X213926078Y153200291D01*
X213926082Y153200290D01*
X213926083Y153200290D01*
X214073919Y153200290D01*
X214073920Y153200291D01*
X214218913Y153229131D01*
X214355495Y153285706D01*
X214478416Y153367838D01*
X214582952Y153472374D01*
X214665084Y153595295D01*
X214721659Y153731877D01*
X214750500Y153876872D01*
X214750500Y154024707D01*
X214721659Y154169702D01*
X214721657Y154169707D01*
X214709939Y154197998D01*
X214700500Y154245450D01*
X214700500Y158673921D01*
X214671659Y158818908D01*
X214671658Y158818909D01*
X214671658Y158818913D01*
X214667456Y158829057D01*
X214615087Y158955489D01*
X214615080Y158955502D01*
X214532951Y159078416D01*
X214532948Y159078420D01*
X214432825Y159178543D01*
X223124499Y159178543D01*
X223152379Y159038386D01*
X223152381Y159038380D01*
X223207069Y158906350D01*
X223207074Y158906341D01*
X223286467Y158787522D01*
X223286470Y158787518D01*
X223387517Y158686471D01*
X223387521Y158686468D01*
X223506340Y158607075D01*
X223506346Y158607072D01*
X223506347Y158607071D01*
X223638380Y158552381D01*
X223676391Y158544821D01*
X223693149Y158536055D01*
X223711627Y158532035D01*
X223736661Y158513295D01*
X223738302Y158512436D01*
X223739881Y158510884D01*
X223763181Y158487584D01*
X223796666Y158426261D01*
X223799500Y158399903D01*
X223799500Y157844768D01*
X223779815Y157777729D01*
X223778603Y157775878D01*
X223757070Y157743652D01*
X223702381Y157611621D01*
X223702379Y157611615D01*
X223674500Y157471458D01*
X223674500Y157471455D01*
X223674500Y157328545D01*
X223674500Y157328543D01*
X223674499Y157328543D01*
X223702379Y157188386D01*
X223702381Y157188380D01*
X223757069Y157056350D01*
X223757074Y157056341D01*
X223836467Y156937522D01*
X223836470Y156937518D01*
X223937517Y156836471D01*
X223937521Y156836468D01*
X224056340Y156757075D01*
X224056346Y156757072D01*
X224056347Y156757071D01*
X224188380Y156702381D01*
X224188384Y156702381D01*
X224188385Y156702380D01*
X224328542Y156674500D01*
X224328545Y156674500D01*
X224471457Y156674500D01*
X224565751Y156693258D01*
X224611620Y156702381D01*
X224743653Y156757071D01*
X224862479Y156836468D01*
X224963532Y156937521D01*
X225042929Y157056347D01*
X225097619Y157188380D01*
X225114750Y157274500D01*
X225125500Y157328543D01*
X225125500Y157471458D01*
X225097620Y157611615D01*
X225097619Y157611616D01*
X225097619Y157611620D01*
X225042929Y157743653D01*
X225021396Y157775879D01*
X225000520Y157842556D01*
X225000500Y157844768D01*
X225000500Y158779058D01*
X224997636Y158789744D01*
X224997635Y158789748D01*
X224985421Y158835331D01*
X224966394Y158906341D01*
X224959577Y158931784D01*
X224959575Y158931788D01*
X224959574Y158931791D01*
X224880524Y159068710D01*
X224880521Y159068714D01*
X224880520Y159068716D01*
X224768716Y159180520D01*
X224768715Y159180521D01*
X224764385Y159184851D01*
X224764374Y159184861D01*
X224589116Y159360119D01*
X224555631Y159421442D01*
X224555191Y159423549D01*
X224547619Y159461620D01*
X224492929Y159593653D01*
X224492928Y159593654D01*
X224492925Y159593660D01*
X224413532Y159712479D01*
X224413529Y159712483D01*
X224312482Y159813530D01*
X224312478Y159813533D01*
X224193659Y159892926D01*
X224193650Y159892931D01*
X224061620Y159947619D01*
X224061614Y159947621D01*
X223921457Y159975500D01*
X223921455Y159975500D01*
X223778545Y159975500D01*
X223778543Y159975500D01*
X223638385Y159947621D01*
X223638379Y159947619D01*
X223506349Y159892931D01*
X223506340Y159892926D01*
X223387521Y159813533D01*
X223387517Y159813530D01*
X223286470Y159712483D01*
X223286467Y159712479D01*
X223207074Y159593660D01*
X223207069Y159593651D01*
X223152381Y159461621D01*
X223152379Y159461615D01*
X223124500Y159321458D01*
X223124500Y159321455D01*
X223124500Y159178545D01*
X223124500Y159178543D01*
X223124499Y159178543D01*
X214432825Y159178543D01*
X214428419Y159182949D01*
X214428411Y159182955D01*
X214366366Y159224412D01*
X214366316Y159224445D01*
X214305501Y159265081D01*
X214305488Y159265088D01*
X214168917Y159321657D01*
X214168907Y159321660D01*
X214023920Y159350500D01*
X214023918Y159350500D01*
X213876082Y159350500D01*
X213876080Y159350500D01*
X213731092Y159321660D01*
X213731082Y159321657D01*
X213594511Y159265088D01*
X213594498Y159265081D01*
X213471584Y159182952D01*
X213471580Y159182949D01*
X213367051Y159078420D01*
X213367048Y159078416D01*
X213284919Y158955502D01*
X213284912Y158955489D01*
X213228343Y158818918D01*
X213228340Y158818908D01*
X213199500Y158673921D01*
X213199500Y158673918D01*
X213199500Y158123918D01*
X213199500Y153926872D01*
X213199500Y153926870D01*
X213199499Y153926870D01*
X209100500Y153926870D01*
X209100500Y158449903D01*
X209120185Y158516942D01*
X209136819Y158537584D01*
X209366926Y158767691D01*
X210492162Y159892926D01*
X211712417Y161113181D01*
X211773740Y161146666D01*
X211800098Y161149500D01*
X218055233Y161149500D01*
X218122272Y161129815D01*
X218124124Y161128602D01*
X218156348Y161107070D01*
X218215343Y161082634D01*
X218288380Y161052381D01*
X218288384Y161052381D01*
X218288385Y161052380D01*
X218428542Y161024500D01*
X218428545Y161024500D01*
X218571457Y161024500D01*
X218665751Y161043258D01*
X218711620Y161052381D01*
X218843653Y161107071D01*
X218962479Y161186468D01*
X219063532Y161287521D01*
X219142929Y161406347D01*
X219197619Y161538380D01*
X219206742Y161584249D01*
X219225500Y161678543D01*
X219225500Y161744500D01*
X219245185Y161811539D01*
X219297989Y161857294D01*
X219349500Y161868500D01*
X222036822Y161868500D01*
X222151394Y161891291D01*
X222207124Y161902376D01*
X222366499Y161968391D01*
X222367540Y161968822D01*
X222367540Y161968823D01*
X222367547Y161968825D01*
X222511923Y162065294D01*
X222634706Y162188077D01*
X222731175Y162332453D01*
X222797624Y162492876D01*
X222812000Y162565148D01*
X222831500Y162663178D01*
X222831500Y162836823D01*
X222797625Y163007119D01*
X222797624Y163007120D01*
X222797624Y163007124D01*
X222782038Y163044753D01*
X222731178Y163167541D01*
X222731171Y163167554D01*
X222634706Y163311923D01*
X222634703Y163311927D01*
X222511926Y163434704D01*
X222511922Y163434707D01*
X222367553Y163531172D01*
X222367540Y163531179D01*
X222207128Y163597623D01*
X222207118Y163597626D01*
X222036822Y163631500D01*
X222036820Y163631500D01*
X217336820Y163631500D01*
X211916492Y163631500D01*
X211849453Y163651185D01*
X211828811Y163667819D01*
X210061927Y165434704D01*
X210061926Y165434705D01*
X209917543Y165531178D01*
X209757128Y165597623D01*
X209757118Y165597626D01*
X209586823Y165631500D01*
X209586821Y165631500D01*
X209413179Y165631500D01*
X209413177Y165631500D01*
X209242881Y165597626D01*
X209242871Y165597623D01*
X209082456Y165531178D01*
X208938073Y165434705D01*
X208815295Y165311927D01*
X208718822Y165167544D01*
X208652377Y165007129D01*
X208652374Y165007119D01*
X208618500Y164836824D01*
X208618500Y164836821D01*
X208618500Y164663179D01*
X208618500Y164663177D01*
X208618499Y164663177D01*
X208652374Y164492882D01*
X208652377Y164492872D01*
X208718822Y164332457D01*
X208815295Y164188074D01*
X210864385Y162138984D01*
X210897870Y162077661D01*
X210892886Y162007969D01*
X210864385Y161963622D01*
X208131286Y159230522D01*
X208019481Y159118718D01*
X208019480Y159118716D01*
X207979518Y159049499D01*
X207940423Y158981785D01*
X207899499Y158829057D01*
X207899499Y158829055D01*
X207899499Y158660954D01*
X207899500Y158660941D01*
X207899500Y157197692D01*
X207879815Y157130653D01*
X207827011Y157084898D01*
X207799693Y157076075D01*
X207763383Y157068853D01*
X207763381Y157068852D01*
X207631349Y157014163D01*
X207631340Y157014158D01*
X207512521Y156934765D01*
X207512517Y156934762D01*
X207411470Y156833715D01*
X207411467Y156833711D01*
X207332074Y156714892D01*
X207332069Y156714883D01*
X207277381Y156582853D01*
X207277379Y156582847D01*
X207249500Y156442690D01*
X207249500Y156442687D01*
X207249500Y156299777D01*
X207249500Y156299775D01*
X207249499Y156299775D01*
X207277379Y156159618D01*
X207277381Y156159612D01*
X207332069Y156027582D01*
X207332074Y156027573D01*
X207411467Y155908754D01*
X207411470Y155908750D01*
X207491949Y155828271D01*
X207525434Y155766948D01*
X207528268Y155740590D01*
X207528268Y150936299D01*
X207511656Y150874300D01*
X207465422Y150794220D01*
X207465422Y150794219D01*
X207424499Y150641491D01*
X207424500Y150547027D01*
X207424500Y149751874D01*
X207404815Y149684835D01*
X207388181Y149664193D01*
X207315238Y149591251D01*
X207315235Y149591247D01*
X207235842Y149472428D01*
X207235837Y149472419D01*
X207181149Y149340389D01*
X207181147Y149340383D01*
X207153268Y149200226D01*
X207153268Y149200223D01*
X207153268Y149057313D01*
X207153268Y149057311D01*
X207153267Y149057311D01*
X202451966Y149057311D01*
X203906722Y150512067D01*
X204000753Y150641491D01*
X204047027Y150705181D01*
X204124419Y150857071D01*
X204155396Y150917867D01*
X204229159Y151144886D01*
X204236371Y151190423D01*
X204266500Y151380644D01*
X204266500Y159320484D01*
X204286185Y159387523D01*
X204302819Y159408165D01*
X204607137Y159712483D01*
X204956315Y160061662D01*
X205017636Y160095145D01*
X205087327Y160090161D01*
X205143261Y160048290D01*
X205167678Y159982825D01*
X205158556Y159926528D01*
X205152381Y159911621D01*
X205152379Y159911615D01*
X205124500Y159771458D01*
X205124500Y159771455D01*
X205124500Y159628545D01*
X205124500Y159628543D01*
X205124499Y159628543D01*
X205152379Y159488386D01*
X205152381Y159488380D01*
X205207069Y159356350D01*
X205207074Y159356341D01*
X205278602Y159249293D01*
X205299480Y159182616D01*
X205299500Y159180402D01*
X205299500Y158644768D01*
X205279815Y158577729D01*
X205278603Y158575878D01*
X205257070Y158543652D01*
X205202381Y158411621D01*
X205202379Y158411615D01*
X205174500Y158271458D01*
X205174500Y158271455D01*
X205174500Y158128545D01*
X205174500Y158128543D01*
X205174499Y158128543D01*
X205202379Y157988386D01*
X205202381Y157988380D01*
X205257069Y157856350D01*
X205257074Y157856341D01*
X205336467Y157737522D01*
X205336470Y157737518D01*
X205437517Y157636471D01*
X205437521Y157636468D01*
X205556340Y157557075D01*
X205556346Y157557072D01*
X205556347Y157557071D01*
X205688380Y157502381D01*
X205688384Y157502381D01*
X205688385Y157502380D01*
X205828542Y157474500D01*
X205828545Y157474500D01*
X205971457Y157474500D01*
X206065751Y157493258D01*
X206111620Y157502381D01*
X206243653Y157557071D01*
X206362479Y157636468D01*
X206463532Y157737521D01*
X206542929Y157856347D01*
X206597619Y157988380D01*
X206625500Y158128545D01*
X206625500Y158271455D01*
X206625500Y158271458D01*
X206597620Y158411615D01*
X206597619Y158411616D01*
X206597619Y158411620D01*
X206542929Y158543653D01*
X206521396Y158575879D01*
X206500520Y158642556D01*
X206500500Y158644768D01*
X206500500Y159349960D01*
X206509939Y159397413D01*
X206520790Y159423610D01*
X206547619Y159488380D01*
X206568559Y159593651D01*
X206575500Y159628543D01*
X206575500Y159771458D01*
X206547620Y159911615D01*
X206547619Y159911616D01*
X206547619Y159911620D01*
X206492929Y160043653D01*
X206492928Y160043654D01*
X206492925Y160043660D01*
X206413532Y160162479D01*
X206413529Y160162483D01*
X206312482Y160263530D01*
X206312478Y160263533D01*
X206193659Y160342926D01*
X206193650Y160342931D01*
X206061620Y160397619D01*
X206061614Y160397621D01*
X205921457Y160425500D01*
X205921455Y160425500D01*
X205778545Y160425500D01*
X205778543Y160425500D01*
X205638385Y160397621D01*
X205638379Y160397619D01*
X205623472Y160391444D01*
X205554002Y160383977D01*
X205491523Y160415253D01*
X205455872Y160475342D01*
X205458367Y160545167D01*
X205488338Y160593685D01*
X206406721Y161512067D01*
X206411189Y161518216D01*
X206547027Y161705181D01*
X206655395Y161917866D01*
X206656030Y161919820D01*
X206676165Y161981786D01*
X206707316Y162077661D01*
X206729159Y162144885D01*
X206732670Y162167049D01*
X206755243Y162309576D01*
X206755243Y162309577D01*
X206766500Y162380650D01*
X206766500Y165570483D01*
X206786185Y165637522D01*
X206802819Y165658164D01*
X208091836Y166947181D01*
X208153159Y166980666D01*
X208179517Y166983500D01*
X213119350Y166983500D01*
X213119351Y166983500D01*
X213346818Y167019528D01*
X213416111Y167010574D01*
X213453897Y166984736D01*
X214667049Y165771584D01*
X214771584Y165667049D01*
X214771587Y165667047D01*
X214771588Y165667046D01*
X214894494Y165584923D01*
X214894496Y165584922D01*
X214894505Y165584916D01*
X214927001Y165571456D01*
X214927002Y165571455D01*
X214927003Y165571455D01*
X215031088Y165528341D01*
X215147241Y165505237D01*
X215166468Y165501413D01*
X215176081Y165499500D01*
X215176082Y165499500D01*
X215176083Y165499500D01*
X215323918Y165499500D01*
X218908622Y165499500D01*
X218975661Y165479815D01*
X219021416Y165427011D01*
X219030239Y165399692D01*
X219052379Y165288386D01*
X219052381Y165288380D01*
X219107069Y165156350D01*
X219107074Y165156341D01*
X219186467Y165037522D01*
X219186470Y165037518D01*
X219287517Y164936471D01*
X219287521Y164936468D01*
X219406340Y164857075D01*
X219406346Y164857072D01*
X219406347Y164857071D01*
X219538380Y164802381D01*
X219538384Y164802381D01*
X219538385Y164802380D01*
X219678542Y164774500D01*
X219678545Y164774500D01*
X219821457Y164774500D01*
X219936805Y164797445D01*
X219961620Y164802381D01*
X220093653Y164857071D01*
X220125876Y164878603D01*
X220192554Y164899480D01*
X220194767Y164899500D01*
X223663331Y164899500D01*
X223663347Y164899499D01*
X223670943Y164899499D01*
X223829054Y164899499D01*
X223829057Y164899499D01*
X223981785Y164940423D01*
X224067211Y164989744D01*
X224097315Y165007124D01*
X224118709Y165019476D01*
X224118708Y165019476D01*
X224118716Y165019480D01*
X224230520Y165131284D01*
X224230520Y165131286D01*
X224240724Y165141489D01*
X224240728Y165141494D01*
X225608506Y166509272D01*
X225608511Y166509276D01*
X225618714Y166519480D01*
X225618716Y166519480D01*
X225730520Y166631284D01*
X225809577Y166768216D01*
X225850500Y166920943D01*
X225850500Y168329057D01*
X225809577Y168481784D01*
X225776898Y168538386D01*
X225730524Y168618710D01*
X225730518Y168618718D01*
X225618717Y168730519D01*
X225618709Y168730525D01*
X225481790Y168809574D01*
X225481786Y168809576D01*
X225481784Y168809577D01*
X225329057Y168850500D01*
X225329056Y168850500D01*
X224800097Y168850500D01*
X224733058Y168870185D01*
X224712416Y168886819D01*
X224489116Y169110119D01*
X224455631Y169171442D01*
X224455191Y169173549D01*
X224447619Y169211620D01*
X224392929Y169343653D01*
X224392928Y169343654D01*
X224392925Y169343660D01*
X224313532Y169462479D01*
X224313529Y169462483D01*
X224212482Y169563530D01*
X224212478Y169563533D01*
X224093659Y169642926D01*
X224093650Y169642931D01*
X223961620Y169697619D01*
X223961614Y169697621D01*
X223821457Y169725500D01*
X223821455Y169725500D01*
X223678545Y169725500D01*
X223678543Y169725500D01*
X223538385Y169697621D01*
X223538379Y169697619D01*
X223406349Y169642931D01*
X223406340Y169642926D01*
X223287521Y169563533D01*
X223287517Y169563530D01*
X223186470Y169462483D01*
X223186467Y169462479D01*
X223107074Y169343660D01*
X223107069Y169343651D01*
X223052381Y169211621D01*
X223052379Y169211615D01*
X223024500Y169071458D01*
X223024500Y169071455D01*
X223024500Y168928545D01*
X223024500Y168928543D01*
X223024499Y168928543D01*
X223052379Y168788386D01*
X223052381Y168788380D01*
X223107069Y168656350D01*
X223107074Y168656341D01*
X223186467Y168537522D01*
X223186470Y168537518D01*
X223287517Y168436471D01*
X223287521Y168436468D01*
X223406340Y168357075D01*
X223406346Y168357072D01*
X223406347Y168357071D01*
X223538380Y168302381D01*
X223576391Y168294821D01*
X223638302Y168262436D01*
X223639881Y168260884D01*
X223968120Y167932645D01*
X224001605Y167871322D01*
X223996621Y167801630D01*
X223954749Y167745697D01*
X223927893Y167730403D01*
X223807058Y167680351D01*
X223807054Y167680349D01*
X223760885Y167649500D01*
X223684136Y167598219D01*
X223684134Y167598218D01*
X223684131Y167598215D01*
X223684130Y167598215D01*
X223122736Y167036819D01*
X223061413Y167003334D01*
X223035055Y167000500D01*
X215612229Y167000500D01*
X215545190Y167020185D01*
X215524548Y167036819D01*
X214515264Y168046103D01*
X214481779Y168107426D01*
X214480472Y168153182D01*
X214489963Y168213107D01*
X214516500Y168380649D01*
X214516500Y168619351D01*
X214479158Y168855115D01*
X214405395Y169082134D01*
X214297027Y169294819D01*
X214156721Y169487933D01*
X213987933Y169656721D01*
X213794819Y169797027D01*
X213613406Y169889461D01*
X213582136Y169905394D01*
X213582135Y169905395D01*
X213582134Y169905395D01*
X213355115Y169979158D01*
X213355113Y169979159D01*
X213355111Y169979159D01*
X213190498Y170005232D01*
X213119351Y170016500D01*
X207619351Y170016500D01*
X207380649Y170016500D01*
X207380644Y170016500D01*
X207144885Y169979160D01*
X206965321Y169920815D01*
X206917867Y169905396D01*
X206917865Y169905396D01*
X206917865Y169905395D01*
X206870544Y169881285D01*
X206870545Y169881284D01*
X206705180Y169797027D01*
X206661045Y169764960D01*
X206661044Y169764960D01*
X206512072Y169656728D01*
X206512068Y169656724D01*
X204093282Y167237939D01*
X204093278Y167237934D01*
X204067879Y167202974D01*
X204067879Y167202973D01*
X203952973Y167044820D01*
X203844606Y166832137D01*
X203770841Y166605113D01*
X203770841Y166605112D01*
X203733500Y166369351D01*
X203733500Y163179517D01*
X203713815Y163112478D01*
X203697181Y163091836D01*
X201812181Y161206836D01*
X201750858Y161173351D01*
X201681166Y161178335D01*
X201625233Y161220207D01*
X201600816Y161285671D01*
X201600500Y161294517D01*
X201600500Y168305234D01*
X201620185Y168372273D01*
X201621399Y168374126D01*
X201642929Y168406347D01*
X201697619Y168538380D01*
X201706742Y168584249D01*
X201725500Y168678543D01*
X201725500Y168821458D01*
X201697620Y168961615D01*
X201697619Y168961616D01*
X201697619Y168961620D01*
X201652124Y169071455D01*
X201642930Y169093651D01*
X201642925Y169093660D01*
X201563532Y169212479D01*
X201563529Y169212483D01*
X201462482Y169313530D01*
X201462478Y169313533D01*
X201343659Y169392926D01*
X201343650Y169392931D01*
X201211620Y169447619D01*
X201211614Y169447621D01*
X201071457Y169475500D01*
X201071455Y169475500D01*
X200928545Y169475500D01*
X200928543Y169475500D01*
X200788385Y169447621D01*
X200788379Y169447619D01*
X200656349Y169392931D01*
X200656340Y169392926D01*
X200537521Y169313533D01*
X200537517Y169313530D01*
X200436470Y169212483D01*
X200436467Y169212479D01*
X200357074Y169093660D01*
X200357069Y169093651D01*
X200302381Y168961621D01*
X200302379Y168961615D01*
X200274500Y168821458D01*
X200274500Y168821455D01*
X200274500Y168678545D01*
X200274500Y168678543D01*
X200274499Y168678543D01*
X200302379Y168538386D01*
X200302381Y168538380D01*
X200357070Y168406349D01*
X200378601Y168374126D01*
X200399480Y168307449D01*
X200399500Y168305234D01*
X200399500Y152204634D01*
X200379815Y152137595D01*
X200344391Y152101532D01*
X200287521Y152063533D01*
X200287517Y152063530D01*
X200279421Y152055433D01*
X200251560Y152040221D01*
X200224545Y152023532D01*
X200221111Y152023594D01*
X200218098Y152021948D01*
X200186426Y152024213D01*
X200154686Y152024780D01*
X200150501Y152026783D01*
X200148406Y152026932D01*
X200122849Y152040012D01*
X200055609Y152084941D01*
X200010804Y152138554D01*
X200000500Y152188043D01*
X200000500Y153905234D01*
X200020185Y153972273D01*
X200021399Y153974126D01*
X200042929Y154006347D01*
X200097619Y154138380D01*
X200109478Y154197998D01*
X200125500Y154278543D01*
X200125500Y154421458D01*
X200097620Y154561615D01*
X200097619Y154561616D01*
X200097619Y154561620D01*
X200042929Y154693653D01*
X200042928Y154693654D01*
X200042925Y154693660D01*
X199963532Y154812479D01*
X199963529Y154812483D01*
X199862482Y154913530D01*
X199862478Y154913533D01*
X199743659Y154992926D01*
X199743650Y154992931D01*
X199611620Y155047619D01*
X199611614Y155047621D01*
X199471457Y155075500D01*
X199471455Y155075500D01*
X199328545Y155075500D01*
X199328543Y155075500D01*
X199188385Y155047621D01*
X199188379Y155047619D01*
X199056349Y154992931D01*
X199056340Y154992926D01*
X198937521Y154913533D01*
X198937517Y154913530D01*
X198836470Y154812483D01*
X198836467Y154812479D01*
X198757074Y154693660D01*
X198757069Y154693651D01*
X198702381Y154561621D01*
X198702379Y154561615D01*
X198674500Y154421458D01*
X198674500Y154421455D01*
X198674500Y154278545D01*
X198674500Y154278543D01*
X198674499Y154278543D01*
X198702379Y154138386D01*
X198702381Y154138380D01*
X198757070Y154006349D01*
X198778601Y153974126D01*
X198799480Y153907449D01*
X198799500Y153905234D01*
X198799500Y151836670D01*
X198799499Y151836652D01*
X198799499Y151670946D01*
X198799498Y151670946D01*
X198825129Y151575290D01*
X198840423Y151518215D01*
X198842817Y151514069D01*
X198919480Y151381284D01*
X198968882Y151331882D01*
X198975297Y151322576D01*
X198982826Y151299695D01*
X198994368Y151278558D01*
X198994819Y151276392D01*
X199002379Y151238386D01*
X199002380Y151238382D01*
X199057069Y151106350D01*
X199057074Y151106341D01*
X199136467Y150987522D01*
X199136470Y150987518D01*
X199145807Y150978181D01*
X199179292Y150916858D01*
X199174308Y150847166D01*
X199132436Y150791233D01*
X199066972Y150766816D01*
X199058126Y150766500D01*
X195179516Y150766500D01*
X195112477Y150786185D01*
X195091835Y150802819D01*
X194675178Y151219476D01*
X194237934Y151656721D01*
X194237933Y151656722D01*
X194237932Y151656723D01*
X194237930Y151656725D01*
X194128172Y151736467D01*
X194128171Y151736468D01*
X194044819Y151797027D01*
X193832136Y151905394D01*
X193832135Y151905395D01*
X193832134Y151905395D01*
X193605115Y151979158D01*
X193605113Y151979159D01*
X193605111Y151979159D01*
X193440498Y152005232D01*
X193369351Y152016500D01*
X193369350Y152016500D01*
X180679516Y152016500D01*
X180612477Y152036185D01*
X180591835Y152052819D01*
X179052819Y153591836D01*
X179019334Y153653159D01*
X179016500Y153679517D01*
X179016500Y156119346D01*
X179016500Y156119351D01*
X179013317Y156139447D01*
X178979159Y156355115D01*
X178923484Y156526460D01*
X178911424Y156563576D01*
X178905396Y156582132D01*
X178837755Y156714885D01*
X178797027Y156794819D01*
X178656721Y156987933D01*
X178487933Y157156721D01*
X173487934Y162156721D01*
X173487933Y162156722D01*
X173487932Y162156723D01*
X173487928Y162156727D01*
X173294822Y162297025D01*
X173082137Y162405394D01*
X172855115Y162479159D01*
X172619356Y162516499D01*
X172619351Y162516499D01*
X172380649Y162516499D01*
X172380644Y162516499D01*
X172144884Y162479159D01*
X171917862Y162405394D01*
X171705177Y162297025D01*
X171512071Y162156727D01*
X171343273Y161987929D01*
X171202975Y161794823D01*
X171094606Y161582138D01*
X171020841Y161355116D01*
X170983501Y161119357D01*
X156438183Y161119357D01*
X156013704Y162311664D01*
X161201944Y162311664D01*
X161201944Y162173298D01*
X161233887Y162054087D01*
X161237756Y162039646D01*
X161237757Y162039643D01*
X161306936Y161919820D01*
X161306938Y161919817D01*
X161306939Y161919816D01*
X161404779Y161821976D01*
X161404780Y161821975D01*
X161404782Y161821974D01*
X161451818Y161794818D01*
X161524608Y161752793D01*
X161658261Y161716981D01*
X161658263Y161716981D01*
X161796625Y161716981D01*
X161796627Y161716981D01*
X161930280Y161752793D01*
X162050109Y161821976D01*
X162147949Y161919816D01*
X162217132Y162039645D01*
X162252944Y162173298D01*
X162252944Y162311664D01*
X162217132Y162445317D01*
X162167613Y162531087D01*
X162147951Y162565143D01*
X162147947Y162565148D01*
X162050110Y162662985D01*
X162050105Y162662989D01*
X161930282Y162732168D01*
X161930281Y162732169D01*
X161930280Y162732169D01*
X161796627Y162767981D01*
X161658261Y162767981D01*
X161524608Y162732169D01*
X161524605Y162732168D01*
X161404782Y162662989D01*
X161404777Y162662985D01*
X161306940Y162565148D01*
X161306936Y162565143D01*
X161237757Y162445320D01*
X161237756Y162445317D01*
X161201944Y162311664D01*
X156013704Y162311664D01*
X154823946Y165653543D01*
X159674499Y165653543D01*
X159702379Y165513386D01*
X159702381Y165513380D01*
X159757069Y165381350D01*
X159757074Y165381341D01*
X159836467Y165262522D01*
X159836470Y165262518D01*
X159937518Y165161470D01*
X159937521Y165161468D01*
X159980139Y165132992D01*
X159991667Y165119198D01*
X160006587Y165109177D01*
X160024754Y165079608D01*
X160024945Y165079380D01*
X160025063Y165079106D01*
X160071868Y164970869D01*
X160080409Y164901523D01*
X160079672Y164897466D01*
X160074500Y164871462D01*
X160074500Y164871455D01*
X160074500Y164728545D01*
X160074500Y164728543D01*
X160074499Y164728543D01*
X160102379Y164588386D01*
X160102381Y164588380D01*
X160157069Y164456350D01*
X160157074Y164456341D01*
X160236467Y164337522D01*
X160236470Y164337518D01*
X160337517Y164236471D01*
X160337521Y164236468D01*
X160456340Y164157075D01*
X160456346Y164157072D01*
X160456347Y164157071D01*
X160588380Y164102381D01*
X160588384Y164102381D01*
X160588385Y164102380D01*
X160728542Y164074500D01*
X160728545Y164074500D01*
X160871457Y164074500D01*
X160965751Y164093258D01*
X161011620Y164102381D01*
X161143653Y164157071D01*
X161262479Y164236468D01*
X161363532Y164337521D01*
X161442929Y164456347D01*
X161497619Y164588380D01*
X161516605Y164683828D01*
X161525500Y164728543D01*
X161525500Y164871458D01*
X161497620Y165011615D01*
X161497619Y165011616D01*
X161497619Y165011620D01*
X161448575Y165130023D01*
X161442930Y165143651D01*
X161442925Y165143660D01*
X161363532Y165262479D01*
X161363529Y165262483D01*
X161262482Y165363530D01*
X161262478Y165363533D01*
X161219858Y165392011D01*
X161208332Y165405803D01*
X161193411Y165415824D01*
X161175240Y165445399D01*
X161175053Y165445623D01*
X161174935Y165445896D01*
X161162133Y165475500D01*
X161128129Y165554134D01*
X161119589Y165623477D01*
X161120316Y165627489D01*
X161125500Y165653545D01*
X161125500Y165796455D01*
X161125500Y165796458D01*
X161097620Y165936615D01*
X161097619Y165936616D01*
X161097619Y165936620D01*
X161042929Y166068653D01*
X161042928Y166068654D01*
X161042925Y166068660D01*
X160963532Y166187479D01*
X160963529Y166187483D01*
X160862482Y166288530D01*
X160862478Y166288533D01*
X160743659Y166367926D01*
X160743650Y166367931D01*
X160611620Y166422619D01*
X160611614Y166422621D01*
X160471457Y166450500D01*
X160471455Y166450500D01*
X160328545Y166450500D01*
X160328543Y166450500D01*
X160188385Y166422621D01*
X160188379Y166422619D01*
X160056349Y166367931D01*
X160056340Y166367926D01*
X159937521Y166288533D01*
X159937517Y166288530D01*
X159836470Y166187483D01*
X159836467Y166187479D01*
X159757074Y166068660D01*
X159757069Y166068651D01*
X159702381Y165936621D01*
X159702379Y165936615D01*
X159674500Y165796458D01*
X159674500Y165796455D01*
X159674500Y165653545D01*
X159674500Y165653543D01*
X159674499Y165653543D01*
X154823946Y165653543D01*
X154075159Y167756790D01*
X159263129Y167756790D01*
X159263129Y167618425D01*
X159298941Y167484772D01*
X159298942Y167484769D01*
X159368121Y167364946D01*
X159368123Y167364943D01*
X159368124Y167364942D01*
X159465964Y167267102D01*
X159585793Y167197919D01*
X159719446Y167162107D01*
X159719448Y167162107D01*
X159857810Y167162107D01*
X159857812Y167162107D01*
X159991465Y167197919D01*
X160111294Y167267102D01*
X160209134Y167364942D01*
X160278317Y167484771D01*
X160314129Y167618424D01*
X160314129Y167756790D01*
X160278317Y167890443D01*
X160209134Y168010272D01*
X160151171Y168068235D01*
X161621538Y168068235D01*
X161621539Y168068219D01*
X161642215Y167921836D01*
X163266049Y163282312D01*
X163266051Y163282307D01*
X163266053Y163282303D01*
X163302049Y163221293D01*
X163341176Y163154975D01*
X163439689Y163044756D01*
X163439693Y163044752D01*
X163557822Y162955864D01*
X163557823Y162955864D01*
X163557824Y162955863D01*
X163691021Y162891731D01*
X163691020Y162891731D01*
X163767244Y162872076D01*
X163834174Y162854817D01*
X163845528Y162854181D01*
X163981765Y162846539D01*
X163981770Y162846540D01*
X163981777Y162846539D01*
X164128160Y162867215D01*
X164267696Y162916053D01*
X164395023Y162991175D01*
X164505248Y163089692D01*
X164594135Y163207821D01*
X164658268Y163341021D01*
X164695183Y163484173D01*
X164701579Y163598212D01*
X164703461Y163631766D01*
X164703460Y163631772D01*
X164703461Y163631777D01*
X164682785Y163778159D01*
X164682783Y163778164D01*
X164682782Y163778169D01*
X163058950Y168417688D01*
X163058949Y168417690D01*
X163058947Y168417696D01*
X162983825Y168545023D01*
X162976668Y168553031D01*
X162885314Y168655241D01*
X162885310Y168655244D01*
X162885307Y168655248D01*
X162814104Y168708825D01*
X162767180Y168744134D01*
X162633978Y168808269D01*
X162490827Y168845183D01*
X162490821Y168845184D01*
X162343234Y168853462D01*
X162343218Y168853461D01*
X162196842Y168832786D01*
X162196834Y168832784D01*
X162057309Y168783950D01*
X161929974Y168708823D01*
X161929970Y168708820D01*
X161819759Y168610315D01*
X161819752Y168610307D01*
X161730866Y168492181D01*
X161666731Y168358979D01*
X161629817Y168215828D01*
X161629816Y168215822D01*
X161621538Y168068235D01*
X160151171Y168068235D01*
X160111294Y168108112D01*
X160111293Y168108113D01*
X160111290Y168108115D01*
X159991467Y168177294D01*
X159991466Y168177295D01*
X159991465Y168177295D01*
X159857812Y168213107D01*
X159719446Y168213107D01*
X159585793Y168177295D01*
X159585790Y168177294D01*
X159465967Y168108115D01*
X159465962Y168108111D01*
X159368125Y168010274D01*
X159368121Y168010269D01*
X159298942Y167890446D01*
X159298941Y167890443D01*
X159263129Y167756790D01*
X154075159Y167756790D01*
X153691528Y168834361D01*
X153687589Y168904117D01*
X153721989Y168964931D01*
X153766756Y168992764D01*
X155587771Y169641068D01*
X155621345Y169648810D01*
X155641756Y169660288D01*
X155659238Y169666511D01*
X155682860Y169682806D01*
X155692462Y169688800D01*
X155721730Y169705256D01*
X155734725Y169718580D01*
X155746044Y169726386D01*
X155771413Y169756192D01*
X155802146Y169787698D01*
X155808606Y169799887D01*
X155814396Y169806689D01*
X155833228Y169846343D01*
X155856078Y169889455D01*
X155856078Y169889459D01*
X155856080Y169889461D01*
X155856081Y169889464D01*
X155857890Y169898273D01*
X155859635Y169901946D01*
X155867978Y169947395D01*
X155868236Y169948649D01*
X155868264Y169948702D01*
X155868564Y169950196D01*
X156132842Y171156483D01*
X156133599Y171159723D01*
X156432004Y172360875D01*
X156432868Y172364151D01*
X156764552Y173556442D01*
X156765522Y173559753D01*
X156836034Y173788380D01*
X157130256Y174742370D01*
X157131313Y174745633D01*
X157218817Y175003635D01*
X157218821Y175003646D01*
X178900290Y175003646D01*
X178900290Y174414354D01*
X178927495Y173999274D01*
X178938831Y173826319D01*
X179015748Y173242076D01*
X179015750Y173242065D01*
X179130708Y172664129D01*
X179130712Y172664111D01*
X179283234Y172094892D01*
X179283236Y172094885D01*
X179472655Y171536878D01*
X179472659Y171536867D01*
X179698169Y170992437D01*
X179958804Y170463921D01*
X180253445Y169953588D01*
X180253461Y169953563D01*
X180580844Y169463600D01*
X180939576Y168996091D01*
X180939581Y168996086D01*
X180939582Y168996084D01*
X181328129Y168553031D01*
X181744821Y168136339D01*
X182177614Y167756790D01*
X182187880Y167747787D01*
X182655389Y167389055D01*
X183145352Y167061672D01*
X183145377Y167061656D01*
X183655710Y166767015D01*
X183930946Y166631284D01*
X184184230Y166506378D01*
X184319132Y166450500D01*
X184527813Y166364061D01*
X184582216Y166320220D01*
X184604281Y166253926D01*
X184587002Y166186227D01*
X184535865Y166138616D01*
X184480360Y166125500D01*
X181445666Y166125500D01*
X181300678Y166096660D01*
X181300668Y166096657D01*
X181164097Y166040088D01*
X181164084Y166040081D01*
X181041170Y165957952D01*
X181041166Y165957949D01*
X179767045Y164683828D01*
X179753248Y164663177D01*
X179731411Y164630494D01*
X179708083Y164595582D01*
X179684914Y164560907D01*
X179628343Y164424332D01*
X179628340Y164424322D01*
X179599500Y164279335D01*
X179599500Y164279332D01*
X179599500Y162676082D01*
X179599500Y162676080D01*
X179599499Y162676080D01*
X179628340Y162531093D01*
X179628343Y162531083D01*
X179684912Y162394512D01*
X179684919Y162394499D01*
X179767048Y162271585D01*
X179767051Y162271581D01*
X179871580Y162167052D01*
X179871584Y162167049D01*
X179994498Y162084920D01*
X179994511Y162084913D01*
X180103799Y162039645D01*
X180131087Y162028342D01*
X180131091Y162028342D01*
X180131092Y162028341D01*
X180276079Y161999500D01*
X180276082Y161999500D01*
X180423920Y161999500D01*
X180521462Y162018904D01*
X180568913Y162028342D01*
X180705495Y162084916D01*
X180828416Y162167049D01*
X180932951Y162271584D01*
X181015084Y162394505D01*
X181071658Y162531087D01*
X181097896Y162662989D01*
X181100500Y162676080D01*
X181100500Y163176772D01*
X181120185Y163243811D01*
X181172989Y163289566D01*
X181242147Y163299510D01*
X181297384Y163277090D01*
X181334764Y163249932D01*
X181357010Y163233769D01*
X181357012Y163233768D01*
X181511355Y163155127D01*
X181676099Y163101598D01*
X181847189Y163074500D01*
X181847190Y163074500D01*
X182020410Y163074500D01*
X182020411Y163074500D01*
X182191501Y163101598D01*
X182356245Y163155127D01*
X182510588Y163233768D01*
X182650728Y163335586D01*
X182735119Y163419977D01*
X182796442Y163453462D01*
X182866134Y163448478D01*
X182910481Y163419977D01*
X182994872Y163335586D01*
X183135012Y163233768D01*
X183289355Y163155127D01*
X183454099Y163101598D01*
X183625189Y163074500D01*
X183625190Y163074500D01*
X183798410Y163074500D01*
X183798411Y163074500D01*
X183969501Y163101598D01*
X184134245Y163155127D01*
X184288588Y163233768D01*
X184428728Y163335586D01*
X184513119Y163419977D01*
X184574442Y163453462D01*
X184644134Y163448478D01*
X184688481Y163419977D01*
X184772872Y163335586D01*
X184913012Y163233768D01*
X185067355Y163155127D01*
X185232099Y163101598D01*
X185403189Y163074500D01*
X185403190Y163074500D01*
X185457179Y163074500D01*
X185524218Y163054815D01*
X185569973Y163002011D01*
X185579917Y162932853D01*
X185550892Y162869297D01*
X185519179Y162843113D01*
X185313397Y162724305D01*
X185313382Y162724296D01*
X184991462Y162498885D01*
X184690416Y162246276D01*
X184412534Y161968394D01*
X184159925Y161667348D01*
X183934514Y161345428D01*
X183934505Y161345413D01*
X183738017Y161005087D01*
X183738005Y161005063D01*
X183571934Y160648922D01*
X183480467Y160397619D01*
X183437517Y160279616D01*
X183406131Y160162483D01*
X183335803Y159900017D01*
X183335801Y159900006D01*
X183267561Y159513000D01*
X183267561Y159512996D01*
X183233310Y159121501D01*
X183233310Y158728500D01*
X183267561Y158337005D01*
X183267561Y158337001D01*
X183329032Y157988386D01*
X183335803Y157949985D01*
X183437517Y157570384D01*
X183437518Y157570382D01*
X183437518Y157570381D01*
X183442363Y157557070D01*
X183525540Y157328543D01*
X183571934Y157201079D01*
X183738005Y156844938D01*
X183738017Y156844914D01*
X183836406Y156674500D01*
X183907120Y156552019D01*
X183934505Y156504588D01*
X183934514Y156504573D01*
X184159925Y156182653D01*
X184352603Y155953029D01*
X184412532Y155881609D01*
X184690419Y155603722D01*
X184737654Y155564087D01*
X184991462Y155351116D01*
X184991468Y155351112D01*
X184991469Y155351111D01*
X185313389Y155125700D01*
X185653730Y154929204D01*
X185653744Y154929198D01*
X185653747Y154929196D01*
X185821459Y154850991D01*
X185873899Y154804819D01*
X185893051Y154737626D01*
X185872836Y154670745D01*
X185825352Y154628126D01*
X185802016Y154616236D01*
X185726845Y154561620D01*
X185661872Y154514414D01*
X185661870Y154514412D01*
X185661869Y154514412D01*
X185577481Y154430023D01*
X185516158Y154396538D01*
X185446466Y154401522D01*
X185402119Y154430023D01*
X185317730Y154514412D01*
X185317728Y154514414D01*
X185177588Y154616232D01*
X185023245Y154694873D01*
X184858501Y154748402D01*
X184858499Y154748403D01*
X184858498Y154748403D01*
X184717338Y154770760D01*
X184687411Y154775500D01*
X184514189Y154775500D01*
X184484262Y154770760D01*
X184343102Y154748403D01*
X184178352Y154694872D01*
X184024011Y154616232D01*
X183948847Y154561621D01*
X183883872Y154514414D01*
X183883870Y154514412D01*
X183883869Y154514412D01*
X183799481Y154430023D01*
X183738158Y154396538D01*
X183668466Y154401522D01*
X183624119Y154430023D01*
X183539730Y154514412D01*
X183539728Y154514414D01*
X183399588Y154616232D01*
X183245245Y154694873D01*
X183080501Y154748402D01*
X183080499Y154748403D01*
X183080498Y154748403D01*
X182939338Y154770760D01*
X182909411Y154775500D01*
X182736189Y154775500D01*
X182706262Y154770760D01*
X182565102Y154748403D01*
X182400352Y154694872D01*
X182246011Y154616232D01*
X182170847Y154561621D01*
X182105872Y154514414D01*
X182105870Y154514412D01*
X182105869Y154514412D01*
X181983388Y154391931D01*
X181983388Y154391930D01*
X181983386Y154391928D01*
X181939659Y154331744D01*
X181881568Y154251789D01*
X181802928Y154097448D01*
X181749397Y153932698D01*
X181722300Y153761611D01*
X181722300Y153388390D01*
X181743657Y153253543D01*
X181749398Y153217299D01*
X181802927Y153052555D01*
X181881568Y152898212D01*
X181983386Y152758072D01*
X182105872Y152635586D01*
X182246012Y152533768D01*
X182400355Y152455127D01*
X182565099Y152401598D01*
X182736189Y152374500D01*
X182736190Y152374500D01*
X182909410Y152374500D01*
X182909411Y152374500D01*
X183080501Y152401598D01*
X183245245Y152455127D01*
X183399588Y152533768D01*
X183539728Y152635586D01*
X183624119Y152719977D01*
X183685442Y152753462D01*
X183755134Y152748478D01*
X183799481Y152719977D01*
X183883872Y152635586D01*
X184024012Y152533768D01*
X184178355Y152455127D01*
X184343099Y152401598D01*
X184514189Y152374500D01*
X184514190Y152374500D01*
X184687410Y152374500D01*
X184687411Y152374500D01*
X184858501Y152401598D01*
X185023245Y152455127D01*
X185177588Y152533768D01*
X185317728Y152635586D01*
X185402119Y152719977D01*
X185463442Y152753462D01*
X185533134Y152748478D01*
X185577481Y152719977D01*
X185661872Y152635586D01*
X185802012Y152533768D01*
X185956355Y152455127D01*
X186121099Y152401598D01*
X186292189Y152374500D01*
X186292190Y152374500D01*
X186465410Y152374500D01*
X186465411Y152374500D01*
X186636501Y152401598D01*
X186801245Y152455127D01*
X186955588Y152533768D01*
X187095728Y152635586D01*
X187180119Y152719977D01*
X187241442Y152753462D01*
X187311134Y152748478D01*
X187355481Y152719977D01*
X187439872Y152635586D01*
X187580012Y152533768D01*
X187734355Y152455127D01*
X187899099Y152401598D01*
X188070189Y152374500D01*
X188070190Y152374500D01*
X188243410Y152374500D01*
X188243411Y152374500D01*
X188414501Y152401598D01*
X188579245Y152455127D01*
X188733588Y152533768D01*
X188873728Y152635586D01*
X188958119Y152719977D01*
X189019442Y152753462D01*
X189089134Y152748478D01*
X189133481Y152719977D01*
X189217872Y152635586D01*
X189358012Y152533768D01*
X189512355Y152455127D01*
X189677099Y152401598D01*
X189848189Y152374500D01*
X189848190Y152374500D01*
X190021410Y152374500D01*
X190021411Y152374500D01*
X190192501Y152401598D01*
X190357245Y152455127D01*
X190511588Y152533768D01*
X190651728Y152635586D01*
X190736119Y152719977D01*
X190797442Y152753462D01*
X190867134Y152748478D01*
X190911481Y152719977D01*
X190995872Y152635586D01*
X191136012Y152533768D01*
X191290355Y152455127D01*
X191455099Y152401598D01*
X191626189Y152374500D01*
X191626190Y152374500D01*
X191799410Y152374500D01*
X191799411Y152374500D01*
X191970501Y152401598D01*
X192135245Y152455127D01*
X192289588Y152533768D01*
X192429728Y152635586D01*
X192514119Y152719977D01*
X192575442Y152753462D01*
X192645134Y152748478D01*
X192689481Y152719977D01*
X192773872Y152635586D01*
X192914012Y152533768D01*
X193068355Y152455127D01*
X193233099Y152401598D01*
X193404189Y152374500D01*
X193404190Y152374500D01*
X193577410Y152374500D01*
X193577411Y152374500D01*
X193748501Y152401598D01*
X193801876Y152418942D01*
X193871715Y152420936D01*
X193927874Y152388691D01*
X194980939Y151335626D01*
X194980949Y151335615D01*
X194985279Y151331285D01*
X194985280Y151331284D01*
X195097084Y151219480D01*
X195097086Y151219479D01*
X195097090Y151219476D01*
X195147414Y151190422D01*
X195234016Y151140423D01*
X195345819Y151110466D01*
X195386742Y151099500D01*
X195386743Y151099500D01*
X196263331Y151099500D01*
X196263347Y151099499D01*
X196270943Y151099499D01*
X196429054Y151099499D01*
X196429057Y151099499D01*
X196581785Y151140423D01*
X196668387Y151190423D01*
X196718716Y151219480D01*
X196830520Y151331284D01*
X196830520Y151331286D01*
X196840724Y151341489D01*
X196840728Y151341494D01*
X197958506Y152459272D01*
X197958511Y152459276D01*
X197968714Y152469480D01*
X197968716Y152469480D01*
X198080520Y152581284D01*
X198117242Y152644888D01*
X198134338Y152674499D01*
X198134339Y152674501D01*
X198159574Y152718210D01*
X198159575Y152718211D01*
X198159575Y152718213D01*
X198159577Y152718215D01*
X198200501Y152870943D01*
X198200501Y152880235D01*
X198220186Y152947274D01*
X198221399Y152949126D01*
X198222317Y152950500D01*
X198242929Y152981347D01*
X198297619Y153113380D01*
X198318291Y153217303D01*
X198325500Y153253543D01*
X198325500Y153396458D01*
X198297620Y153536615D01*
X198297619Y153536616D01*
X198297619Y153536620D01*
X198242929Y153668653D01*
X198242928Y153668654D01*
X198242925Y153668660D01*
X198163532Y153787479D01*
X198163529Y153787483D01*
X198062482Y153888530D01*
X198062478Y153888533D01*
X197943659Y153967926D01*
X197943650Y153967931D01*
X197811620Y154022619D01*
X197811614Y154022621D01*
X197671457Y154050500D01*
X197671455Y154050500D01*
X197528545Y154050500D01*
X197528543Y154050500D01*
X197388385Y154022621D01*
X197388379Y154022619D01*
X197256349Y153967931D01*
X197256340Y153967926D01*
X197137521Y153888533D01*
X197137517Y153888530D01*
X197036470Y153787483D01*
X197036467Y153787479D01*
X196957074Y153668660D01*
X196957069Y153668651D01*
X196902381Y153536621D01*
X196902379Y153536615D01*
X196874500Y153396458D01*
X196874500Y153253541D01*
X196891401Y153168574D01*
X196885174Y153098983D01*
X196857465Y153056702D01*
X196137584Y152336819D01*
X196076261Y152303334D01*
X196049903Y152300500D01*
X195904271Y152300500D01*
X195837232Y152320185D01*
X195791477Y152372989D01*
X195781533Y152442147D01*
X195810558Y152505703D01*
X195841998Y152530306D01*
X195841436Y152531223D01*
X195845581Y152533764D01*
X195845582Y152533766D01*
X195845588Y152533768D01*
X195985728Y152635586D01*
X196108214Y152758072D01*
X196210032Y152898212D01*
X196288673Y153052555D01*
X196342202Y153217299D01*
X196369300Y153388389D01*
X196369300Y153761611D01*
X196342202Y153932701D01*
X196288673Y154097445D01*
X196210032Y154251788D01*
X196108214Y154391928D01*
X195985728Y154514414D01*
X195845588Y154616232D01*
X195691245Y154694873D01*
X195526501Y154748402D01*
X195526499Y154748403D01*
X195526498Y154748403D01*
X195385338Y154770760D01*
X195355411Y154775500D01*
X195182189Y154775500D01*
X195152262Y154770760D01*
X195011102Y154748403D01*
X194846352Y154694872D01*
X194692011Y154616232D01*
X194616847Y154561621D01*
X194551872Y154514414D01*
X194551870Y154514412D01*
X194551869Y154514412D01*
X194467481Y154430023D01*
X194406158Y154396538D01*
X194336466Y154401522D01*
X194292119Y154430023D01*
X194207730Y154514412D01*
X194207728Y154514414D01*
X194067588Y154616232D01*
X193913245Y154694873D01*
X193748501Y154748402D01*
X193748499Y154748403D01*
X193748498Y154748403D01*
X193607338Y154770760D01*
X193577411Y154775500D01*
X193404189Y154775500D01*
X193374262Y154770760D01*
X193233102Y154748403D01*
X193068352Y154694872D01*
X192914011Y154616232D01*
X192838847Y154561621D01*
X192773872Y154514414D01*
X192773870Y154514412D01*
X192773869Y154514412D01*
X192689481Y154430023D01*
X192628158Y154396538D01*
X192558466Y154401522D01*
X192514119Y154430023D01*
X192429730Y154514412D01*
X192429728Y154514414D01*
X192359658Y154565323D01*
X192289586Y154616234D01*
X192134062Y154695476D01*
X192113609Y154714793D01*
X192091089Y154731651D01*
X192088549Y154738459D01*
X192083265Y154743450D01*
X192076502Y154770760D01*
X192066672Y154797115D01*
X192068216Y154804217D01*
X192066470Y154811271D01*
X192075544Y154837899D01*
X192081524Y154865388D01*
X192087742Y154873695D01*
X192089007Y154877406D01*
X192102669Y154893636D01*
X192108506Y154899472D01*
X192108511Y154899476D01*
X192118714Y154909680D01*
X192118716Y154909680D01*
X192230520Y155021484D01*
X192309577Y155158416D01*
X192350500Y155311143D01*
X192350500Y155405234D01*
X192370185Y155472273D01*
X192371399Y155474126D01*
X192392929Y155506347D01*
X192447619Y155638380D01*
X192467950Y155740590D01*
X192475500Y155778543D01*
X192475500Y155921458D01*
X192447620Y156061615D01*
X192447619Y156061616D01*
X192447619Y156061620D01*
X192392929Y156193653D01*
X192392928Y156193654D01*
X192392925Y156193660D01*
X192313532Y156312479D01*
X192313529Y156312483D01*
X192212482Y156413530D01*
X192212478Y156413533D01*
X192093659Y156492926D01*
X192093650Y156492931D01*
X191961620Y156547619D01*
X191961614Y156547621D01*
X191821457Y156575500D01*
X191821455Y156575500D01*
X191788830Y156575500D01*
X191721791Y156595185D01*
X191676036Y156647989D01*
X191666092Y156717147D01*
X191681441Y156761498D01*
X191729606Y156844920D01*
X191895691Y157201092D01*
X192030103Y157570384D01*
X192126072Y157928543D01*
X196524499Y157928543D01*
X196552379Y157788386D01*
X196552381Y157788380D01*
X196607069Y157656350D01*
X196607074Y157656341D01*
X196686467Y157537522D01*
X196686470Y157537518D01*
X196787517Y157436471D01*
X196787521Y157436468D01*
X196906340Y157357075D01*
X196906346Y157357072D01*
X196906347Y157357071D01*
X197038380Y157302381D01*
X197038384Y157302381D01*
X197038385Y157302380D01*
X197178542Y157274500D01*
X197178545Y157274500D01*
X197321457Y157274500D01*
X197415751Y157293258D01*
X197461620Y157302381D01*
X197593653Y157357071D01*
X197625876Y157378603D01*
X197692554Y157399480D01*
X197694767Y157399500D01*
X198555233Y157399500D01*
X198622272Y157379815D01*
X198624124Y157378602D01*
X198656348Y157357070D01*
X198722363Y157329726D01*
X198788380Y157302381D01*
X198788384Y157302381D01*
X198788385Y157302380D01*
X198928542Y157274500D01*
X198928545Y157274500D01*
X199071457Y157274500D01*
X199165751Y157293258D01*
X199211620Y157302381D01*
X199343653Y157357071D01*
X199462479Y157436468D01*
X199563532Y157537521D01*
X199642929Y157656347D01*
X199697619Y157788380D01*
X199725500Y157928545D01*
X199725500Y158071455D01*
X199725500Y158071458D01*
X199697620Y158211615D01*
X199697619Y158211616D01*
X199697619Y158211620D01*
X199642929Y158343653D01*
X199642928Y158343654D01*
X199642925Y158343660D01*
X199563532Y158462479D01*
X199563529Y158462483D01*
X199462482Y158563530D01*
X199462478Y158563533D01*
X199343659Y158642926D01*
X199343650Y158642931D01*
X199211620Y158697619D01*
X199211614Y158697621D01*
X199071457Y158725500D01*
X199071455Y158725500D01*
X198928545Y158725500D01*
X198928543Y158725500D01*
X198788385Y158697621D01*
X198788379Y158697619D01*
X198656348Y158642931D01*
X198624124Y158621398D01*
X198557446Y158600520D01*
X198555233Y158600500D01*
X197694767Y158600500D01*
X197627728Y158620185D01*
X197625876Y158621398D01*
X197593651Y158642931D01*
X197461620Y158697619D01*
X197461614Y158697621D01*
X197321457Y158725500D01*
X197321455Y158725500D01*
X197178545Y158725500D01*
X197178543Y158725500D01*
X197038385Y158697621D01*
X197038379Y158697619D01*
X196906349Y158642931D01*
X196906340Y158642926D01*
X196787521Y158563533D01*
X196787517Y158563530D01*
X196686470Y158462483D01*
X196686467Y158462479D01*
X196607074Y158343660D01*
X196607069Y158343651D01*
X196552381Y158211621D01*
X196552379Y158211615D01*
X196524500Y158071458D01*
X196524500Y158071455D01*
X196524500Y157928545D01*
X196524500Y157928543D01*
X196524499Y157928543D01*
X192126072Y157928543D01*
X192131817Y157949985D01*
X192200059Y158337007D01*
X192234310Y158728504D01*
X192234310Y159121496D01*
X192200059Y159512993D01*
X192131817Y159900015D01*
X192030103Y160279616D01*
X191895691Y160648908D01*
X191895686Y160648917D01*
X191895685Y160648922D01*
X191729614Y161005063D01*
X191729602Y161005087D01*
X191667194Y161113181D01*
X191533110Y161345421D01*
X191307699Y161667341D01*
X191307698Y161667342D01*
X191307694Y161667348D01*
X191144980Y161861262D01*
X191055088Y161968391D01*
X190777201Y162246278D01*
X190617063Y162380650D01*
X190476157Y162498885D01*
X190154237Y162724296D01*
X190154234Y162724298D01*
X190154231Y162724300D01*
X189959341Y162836820D01*
X189813896Y162920793D01*
X189813880Y162920801D01*
X189623697Y163009485D01*
X189571258Y163055657D01*
X189552106Y163122851D01*
X189572322Y163189732D01*
X189618478Y163231155D01*
X189618436Y163231223D01*
X189618809Y163231452D01*
X189619817Y163232357D01*
X189622588Y163233768D01*
X189762728Y163335586D01*
X189847119Y163419977D01*
X189908442Y163453462D01*
X189978134Y163448478D01*
X190022481Y163419977D01*
X190106872Y163335586D01*
X190247012Y163233768D01*
X190401355Y163155127D01*
X190566099Y163101598D01*
X190737189Y163074500D01*
X190737190Y163074500D01*
X190910410Y163074500D01*
X190910411Y163074500D01*
X191081501Y163101598D01*
X191246245Y163155127D01*
X191400588Y163233768D01*
X191540728Y163335586D01*
X191625119Y163419977D01*
X191686442Y163453462D01*
X191756134Y163448478D01*
X191800481Y163419977D01*
X191884872Y163335586D01*
X192025012Y163233768D01*
X192179355Y163155127D01*
X192344099Y163101598D01*
X192515189Y163074500D01*
X192515190Y163074500D01*
X192688410Y163074500D01*
X192688411Y163074500D01*
X192859501Y163101598D01*
X193024245Y163155127D01*
X193178588Y163233768D01*
X193318728Y163335586D01*
X193441214Y163458072D01*
X193543032Y163598212D01*
X193621673Y163752555D01*
X193675202Y163917299D01*
X193702300Y164088389D01*
X193702300Y164461611D01*
X193675202Y164632701D01*
X193621673Y164797445D01*
X193543032Y164951788D01*
X193441214Y165091928D01*
X193318728Y165214414D01*
X193178588Y165316232D01*
X193024245Y165394873D01*
X192859501Y165448402D01*
X192859499Y165448403D01*
X192859498Y165448403D01*
X192728071Y165469219D01*
X192688411Y165475500D01*
X192515189Y165475500D01*
X192475528Y165469219D01*
X192344102Y165448403D01*
X192179352Y165394872D01*
X192025011Y165316232D01*
X191986685Y165288386D01*
X191884872Y165214414D01*
X191884870Y165214412D01*
X191884869Y165214412D01*
X191800481Y165130023D01*
X191739158Y165096538D01*
X191669466Y165101522D01*
X191625119Y165130023D01*
X191540730Y165214412D01*
X191540728Y165214414D01*
X191400588Y165316232D01*
X191246245Y165394873D01*
X191081501Y165448402D01*
X191081499Y165448403D01*
X191081498Y165448403D01*
X190950071Y165469219D01*
X190910411Y165475500D01*
X190737189Y165475500D01*
X190697528Y165469219D01*
X190566102Y165448403D01*
X190401352Y165394872D01*
X190247011Y165316232D01*
X190208685Y165288386D01*
X190106872Y165214414D01*
X190106870Y165214412D01*
X190106869Y165214412D01*
X190022481Y165130023D01*
X189961158Y165096538D01*
X189891466Y165101522D01*
X189847119Y165130023D01*
X189762730Y165214412D01*
X189762728Y165214414D01*
X189622588Y165316232D01*
X189468245Y165394873D01*
X189303501Y165448402D01*
X189303499Y165448403D01*
X189303498Y165448403D01*
X189172071Y165469219D01*
X189132411Y165475500D01*
X188959189Y165475500D01*
X188919528Y165469219D01*
X188788102Y165448403D01*
X188623352Y165394872D01*
X188469011Y165316232D01*
X188430685Y165288386D01*
X188328872Y165214414D01*
X188328870Y165214412D01*
X188328869Y165214412D01*
X188244481Y165130023D01*
X188183158Y165096538D01*
X188113466Y165101522D01*
X188069119Y165130023D01*
X187984730Y165214412D01*
X187984728Y165214414D01*
X187844588Y165316232D01*
X187690245Y165394873D01*
X187525501Y165448402D01*
X187525499Y165448403D01*
X187525498Y165448403D01*
X187394071Y165469219D01*
X187354411Y165475500D01*
X187181189Y165475500D01*
X187180030Y165475500D01*
X187112991Y165495185D01*
X187092349Y165511819D01*
X187078798Y165525370D01*
X187045313Y165586693D01*
X187050297Y165656385D01*
X187092169Y165712318D01*
X187157633Y165736735D01*
X187174577Y165736786D01*
X187606144Y165708500D01*
X187606155Y165708500D01*
X188195425Y165708500D01*
X188195436Y165708500D01*
X188783466Y165747041D01*
X189367716Y165823959D01*
X189645874Y165879289D01*
X189945661Y165938919D01*
X189945670Y165938922D01*
X189945685Y165938924D01*
X190514897Y166091444D01*
X191072915Y166280866D01*
X191617350Y166506378D01*
X192145869Y166767015D01*
X192656211Y167061661D01*
X193146189Y167389054D01*
X193613706Y167747792D01*
X194056759Y168136339D01*
X194473451Y168553031D01*
X194861998Y168996084D01*
X195220736Y169463601D01*
X195548129Y169953579D01*
X195640335Y170113284D01*
X195678012Y170178543D01*
X201774499Y170178543D01*
X201802379Y170038386D01*
X201802381Y170038380D01*
X201857069Y169906350D01*
X201857074Y169906341D01*
X201936467Y169787522D01*
X201936470Y169787518D01*
X202037517Y169686471D01*
X202037521Y169686468D01*
X202156340Y169607075D01*
X202156346Y169607072D01*
X202156347Y169607071D01*
X202288380Y169552381D01*
X202288384Y169552381D01*
X202288385Y169552380D01*
X202428542Y169524500D01*
X202428545Y169524500D01*
X202571457Y169524500D01*
X202665751Y169543258D01*
X202711620Y169552381D01*
X202843653Y169607071D01*
X202962479Y169686468D01*
X203063532Y169787521D01*
X203142929Y169906347D01*
X203197619Y170038380D01*
X203205180Y170076394D01*
X203237563Y170138303D01*
X203239058Y170139825D01*
X206360119Y173260886D01*
X206421440Y173294369D01*
X206423536Y173294806D01*
X206461620Y173302381D01*
X206593653Y173357071D01*
X206712479Y173436468D01*
X206813532Y173537521D01*
X206892929Y173656347D01*
X206947619Y173788380D01*
X206975500Y173928545D01*
X206975500Y174071455D01*
X206975500Y174071458D01*
X206947620Y174211615D01*
X206947619Y174211616D01*
X206947619Y174211620D01*
X206892929Y174343653D01*
X206892928Y174343654D01*
X206892925Y174343660D01*
X206813532Y174462479D01*
X206813529Y174462483D01*
X206712482Y174563530D01*
X206712478Y174563533D01*
X206593659Y174642926D01*
X206593650Y174642931D01*
X206461620Y174697619D01*
X206461614Y174697621D01*
X206321457Y174725500D01*
X206321455Y174725500D01*
X206178545Y174725500D01*
X206178543Y174725500D01*
X206038385Y174697621D01*
X206038379Y174697619D01*
X205906349Y174642931D01*
X205906340Y174642926D01*
X205787521Y174563533D01*
X205787517Y174563530D01*
X205686470Y174462483D01*
X205686467Y174462479D01*
X205607074Y174343660D01*
X205607069Y174343651D01*
X205552380Y174211619D01*
X205552379Y174211617D01*
X205544819Y174173608D01*
X205512433Y174111698D01*
X205510883Y174110120D01*
X202389880Y170989117D01*
X202328557Y170955632D01*
X202326392Y170955181D01*
X202288383Y170947621D01*
X202288381Y170947620D01*
X202156349Y170892931D01*
X202156340Y170892926D01*
X202037521Y170813533D01*
X202037517Y170813530D01*
X201936470Y170712483D01*
X201936467Y170712479D01*
X201857074Y170593660D01*
X201857069Y170593651D01*
X201802381Y170461621D01*
X201802379Y170461615D01*
X201774500Y170321458D01*
X201774500Y170321455D01*
X201774500Y170178545D01*
X201774500Y170178543D01*
X201774499Y170178543D01*
X195678012Y170178543D01*
X195799836Y170389547D01*
X195842775Y170463921D01*
X196015184Y170813532D01*
X196103412Y170992440D01*
X196328924Y171536875D01*
X196518346Y172094893D01*
X196670866Y172664105D01*
X196785831Y173242074D01*
X196862749Y173826324D01*
X196901290Y174414354D01*
X196901290Y175003646D01*
X196862749Y175591676D01*
X196785831Y176175926D01*
X196699530Y176609792D01*
X196670871Y176753872D01*
X196670867Y176753890D01*
X196670866Y176753895D01*
X196518346Y177323107D01*
X196328924Y177881125D01*
X196103412Y178425560D01*
X195842775Y178954079D01*
X195842775Y178954080D01*
X195548134Y179464413D01*
X195548118Y179464438D01*
X195220735Y179954401D01*
X194862003Y180421910D01*
X194861998Y180421916D01*
X194473451Y180864969D01*
X194056759Y181281661D01*
X193613706Y181670208D01*
X193613704Y181670209D01*
X193613699Y181670214D01*
X193146190Y182028946D01*
X192656227Y182356329D01*
X192656202Y182356345D01*
X192145869Y182650986D01*
X191617353Y182911621D01*
X191072923Y183137131D01*
X191072912Y183137135D01*
X190514905Y183326554D01*
X190514898Y183326556D01*
X189945679Y183479078D01*
X189945661Y183479082D01*
X189367725Y183594040D01*
X189367714Y183594042D01*
X188783471Y183670959D01*
X188599706Y183683004D01*
X188195436Y183709500D01*
X187606144Y183709500D01*
X187225654Y183684562D01*
X187018108Y183670959D01*
X186433865Y183594042D01*
X186433854Y183594040D01*
X185855918Y183479082D01*
X185855900Y183479078D01*
X185286681Y183326556D01*
X185286674Y183326554D01*
X184728667Y183137135D01*
X184728656Y183137131D01*
X184184226Y182911621D01*
X183655710Y182650986D01*
X183145377Y182356345D01*
X183145352Y182356329D01*
X182655389Y182028946D01*
X182187880Y181670214D01*
X181744816Y181281657D01*
X181328133Y180864974D01*
X180939576Y180421910D01*
X180580844Y179954401D01*
X180253461Y179464438D01*
X180253445Y179464413D01*
X179958804Y178954080D01*
X179698169Y178425564D01*
X179472659Y177881134D01*
X179472655Y177881123D01*
X179283236Y177323116D01*
X179283234Y177323109D01*
X179130712Y176753890D01*
X179130708Y176753872D01*
X179015750Y176175936D01*
X179015748Y176175925D01*
X178938831Y175591682D01*
X178925228Y175384136D01*
X178900290Y175003646D01*
X157218821Y175003646D01*
X157528815Y175917661D01*
X157529928Y175920799D01*
X157959882Y177081301D01*
X157961118Y177084501D01*
X157988269Y177151960D01*
X158423203Y178232614D01*
X158424529Y178235778D01*
X158737122Y178954080D01*
X158918313Y179370438D01*
X158919825Y179373775D01*
X159307995Y180197035D01*
X159309737Y180200579D01*
X159724349Y181010716D01*
X159726193Y181014180D01*
X160166859Y181810447D01*
X160168826Y181813870D01*
X160635082Y182595426D01*
X160637157Y182598780D01*
X160864985Y182953964D01*
X165279875Y182953964D01*
X165279875Y182746037D01*
X165312399Y182540685D01*
X165376651Y182342940D01*
X165471042Y182157689D01*
X165593252Y181989481D01*
X165740271Y181842462D01*
X165908479Y181720252D01*
X165996004Y181675656D01*
X166093729Y181625862D01*
X166093731Y181625862D01*
X166093734Y181625860D01*
X166199728Y181591421D01*
X166291474Y181561610D01*
X166496827Y181529085D01*
X166496832Y181529085D01*
X166704753Y181529085D01*
X166910105Y181561610D01*
X167107846Y181625860D01*
X167293101Y181720252D01*
X167461309Y181842462D01*
X167608328Y181989481D01*
X167730538Y182157689D01*
X167824930Y182342944D01*
X167889180Y182540685D01*
X167898119Y182597124D01*
X167921705Y182746037D01*
X167921705Y182953964D01*
X167889180Y183159316D01*
X167836609Y183321111D01*
X167824930Y183357056D01*
X167824928Y183357059D01*
X167824928Y183357061D01*
X167739816Y183524102D01*
X167730538Y183542311D01*
X167608328Y183710519D01*
X167461309Y183857538D01*
X167293101Y183979748D01*
X167269369Y183991840D01*
X167107850Y184074139D01*
X166910105Y184138391D01*
X166704753Y184170915D01*
X166704748Y184170915D01*
X166496832Y184170915D01*
X166496827Y184170915D01*
X166291474Y184138391D01*
X166093729Y184074139D01*
X165908478Y183979748D01*
X165740268Y183857536D01*
X165593254Y183710522D01*
X165471042Y183542312D01*
X165376651Y183357061D01*
X165312399Y183159316D01*
X165279875Y182953964D01*
X160864985Y182953964D01*
X161128525Y183364822D01*
X161130718Y183368120D01*
X161162180Y183413835D01*
X161458153Y183843900D01*
X161645706Y184116424D01*
X161650212Y184122559D01*
X161901496Y184443447D01*
X161908789Y184451937D01*
X162187013Y184747570D01*
X162195048Y184755366D01*
X162498908Y185024569D01*
X162507625Y185031612D01*
X162834623Y185272174D01*
X162843946Y185278401D01*
X163191383Y185488337D01*
X163201237Y185493696D01*
X163566265Y185671289D01*
X163576573Y185675737D01*
X163956191Y185819526D01*
X163966843Y185823017D01*
X164357940Y185931822D01*
X164368861Y185934333D01*
X164768203Y186007253D01*
X164779325Y186008766D01*
X165183617Y186045203D01*
X165194819Y186045703D01*
X165600759Y186045358D01*
X165611985Y186044839D01*
X166016211Y186007716D01*
X166027311Y186006187D01*
X166426527Y185932589D01*
X166437480Y185930050D01*
X166828343Y185820595D01*
X166839026Y185817075D01*
X167218386Y185672648D01*
X167228686Y185668182D01*
X167593415Y185489969D01*
X167603270Y185484586D01*
X167822629Y185351531D01*
X167950327Y185274074D01*
X167959669Y185267811D01*
X168286220Y185026724D01*
X168294956Y185019641D01*
X168600439Y184748074D01*
X168604548Y184744251D01*
X168643794Y184706039D01*
X168643811Y184706030D01*
X168649584Y184700409D01*
X168650162Y184699847D01*
X168650168Y184699841D01*
X168774269Y184579015D01*
X169141719Y184271269D01*
X169141728Y184271262D01*
X169141738Y184271254D01*
X169531203Y183991831D01*
X169531209Y183991827D01*
X169531211Y183991826D01*
X169589957Y183956011D01*
X169940473Y183742316D01*
X169940486Y183742310D01*
X169940492Y183742306D01*
X170182549Y183618547D01*
X170367258Y183524108D01*
X170809166Y183338427D01*
X171263722Y183186315D01*
X171728382Y183068623D01*
X172200542Y182986010D01*
X172677548Y182938941D01*
X172677558Y182938940D01*
X173156759Y182927675D01*
X173635460Y182952278D01*
X174110980Y183012613D01*
X174580647Y183108339D01*
X174580648Y183108339D01*
X174580650Y183108340D01*
X174580657Y183108341D01*
X175041859Y183238925D01*
X175140292Y183274943D01*
X175491992Y183403630D01*
X175491998Y183403634D01*
X175492004Y183403635D01*
X175928571Y183601548D01*
X176349114Y183831556D01*
X176751278Y184092370D01*
X177132811Y184382529D01*
X177491576Y184700409D01*
X177825563Y185044230D01*
X178132902Y185412064D01*
X178411873Y185801854D01*
X178660911Y186211414D01*
X178878623Y186638452D01*
X179063789Y187080576D01*
X179124441Y187262514D01*
X179126988Y187266576D01*
X179140983Y187312135D01*
X179157796Y187362569D01*
X179157796Y187362571D01*
X179158367Y187365724D01*
X179161856Y187380081D01*
X180225780Y190843298D01*
X180236907Y190865749D01*
X180242603Y190898059D01*
X180250813Y190924782D01*
X180251408Y190941197D01*
X180253210Y190958223D01*
X180259027Y190991216D01*
X180259028Y190991225D01*
X180259031Y190991240D01*
X180275246Y191129984D01*
X180283369Y191269436D01*
X180283369Y191272446D01*
X180283370Y191281678D01*
X180283380Y191281708D01*
X180283380Y191336339D01*
X180283524Y191342284D01*
X180284097Y191354175D01*
X180306985Y191420190D01*
X180361930Y191463350D01*
X180407953Y191472207D01*
X180939188Y191472207D01*
X180939730Y191472206D01*
X180939730Y191472205D01*
X180940141Y191546386D01*
X180940302Y191552054D01*
X180947901Y191699919D01*
X180948386Y191706214D01*
X180963532Y191853176D01*
X180964337Y191859413D01*
X180987005Y192005406D01*
X180988135Y192011623D01*
X181018257Y192156222D01*
X181019715Y192162415D01*
X181028687Y192196591D01*
X181057216Y192305265D01*
X181058986Y192311362D01*
X181075675Y192363810D01*
X181103771Y192452107D01*
X181105837Y192458068D01*
X181157807Y192596382D01*
X181160170Y192602211D01*
X181219168Y192737671D01*
X181221829Y192743376D01*
X181287693Y192875612D01*
X181290661Y192881206D01*
X181363214Y193009867D01*
X181366472Y193015311D01*
X181385252Y193044948D01*
X181445525Y193140069D01*
X181449036Y193145310D01*
X181534419Y193265888D01*
X181538201Y193270948D01*
X181629653Y193386977D01*
X181633677Y193391822D01*
X181730953Y193502993D01*
X181735258Y193507664D01*
X181838109Y193613693D01*
X181842596Y193618087D01*
X181950764Y193718710D01*
X181955527Y193722916D01*
X182057008Y193808034D01*
X190700290Y193808034D01*
X190700290Y192691972D01*
X190700291Y192691966D01*
X190710903Y192572585D01*
X190766879Y192376955D01*
X190766880Y192376952D01*
X190766881Y192376951D01*
X190861092Y192196593D01*
X190891474Y192159333D01*
X190989680Y192038891D01*
X191032161Y192004253D01*
X191147383Y191910302D01*
X191327741Y191816091D01*
X191523372Y191760114D01*
X191642753Y191749500D01*
X192758826Y191749501D01*
X192786742Y191751984D01*
X192855258Y191738315D01*
X192885403Y191716152D01*
X194465929Y190135626D01*
X194465939Y190135615D01*
X194470269Y190131285D01*
X194470270Y190131284D01*
X194582074Y190019480D01*
X194668885Y189969361D01*
X194668887Y189969359D01*
X194719003Y189940424D01*
X194719005Y189940423D01*
X194871732Y189899500D01*
X194871733Y189899500D01*
X198030526Y189899500D01*
X198097565Y189879815D01*
X198143320Y189827011D01*
X198154526Y189775500D01*
X198154526Y187115529D01*
X198154525Y187115511D01*
X198154525Y186949805D01*
X198154524Y186949805D01*
X198195449Y186797073D01*
X198207595Y186776037D01*
X198207596Y186776035D01*
X198274503Y186660147D01*
X198274507Y186660142D01*
X198393375Y186541274D01*
X198393380Y186541270D01*
X201865169Y183069480D01*
X201865171Y183069479D01*
X201865175Y183069476D01*
X201963666Y183012613D01*
X202002101Y182990423D01*
X202154828Y182949499D01*
X202154830Y182949499D01*
X202320539Y182949499D01*
X202320555Y182949500D01*
X204881026Y182949500D01*
X204881042Y182949499D01*
X204888638Y182949499D01*
X205046749Y182949499D01*
X205046752Y182949499D01*
X205199480Y182990423D01*
X205249599Y183019361D01*
X205336411Y183069480D01*
X205448215Y183181284D01*
X205448215Y183181286D01*
X205458423Y183191493D01*
X205458424Y183191496D01*
X207187820Y184920892D01*
X207249142Y184954375D01*
X207318834Y184949391D01*
X207374767Y184907519D01*
X207399184Y184842055D01*
X207399500Y184833209D01*
X207399500Y181194768D01*
X207379815Y181127729D01*
X207378603Y181125878D01*
X207357070Y181093652D01*
X207302381Y180961621D01*
X207302379Y180961615D01*
X207274500Y180821458D01*
X207274500Y180821455D01*
X207274500Y180678545D01*
X207274500Y180678543D01*
X207274499Y180678543D01*
X207302379Y180538386D01*
X207302381Y180538380D01*
X207357069Y180406350D01*
X207357074Y180406341D01*
X207436467Y180287522D01*
X207436470Y180287518D01*
X207537517Y180186471D01*
X207537521Y180186468D01*
X207656340Y180107075D01*
X207656346Y180107072D01*
X207656347Y180107071D01*
X207788380Y180052381D01*
X207788384Y180052381D01*
X207788385Y180052380D01*
X207928542Y180024500D01*
X207928545Y180024500D01*
X208071457Y180024500D01*
X208165751Y180043258D01*
X208211620Y180052381D01*
X208343653Y180107071D01*
X208462479Y180186468D01*
X208563532Y180287521D01*
X208642929Y180406347D01*
X208697619Y180538380D01*
X208725500Y180678545D01*
X208725500Y180821455D01*
X208725500Y180821458D01*
X208697620Y180961615D01*
X208697619Y180961616D01*
X208697619Y180961620D01*
X208642929Y181093653D01*
X208621396Y181125879D01*
X208600520Y181192556D01*
X208600500Y181194768D01*
X208600500Y185305234D01*
X208620185Y185372273D01*
X208621399Y185374126D01*
X208642929Y185406347D01*
X208697619Y185538380D01*
X208724328Y185672652D01*
X208725500Y185678543D01*
X208725500Y185821458D01*
X208697620Y185961615D01*
X208697619Y185961616D01*
X208697619Y185961620D01*
X208642929Y186093653D01*
X208642928Y186093655D01*
X208642922Y186093665D01*
X208586374Y186178296D01*
X208565496Y186244973D01*
X208583981Y186312353D01*
X208601790Y186334862D01*
X209288898Y187021969D01*
X222100290Y187021969D01*
X222100290Y186678031D01*
X222102052Y186660143D01*
X222134000Y186335751D01*
X222201098Y185998428D01*
X222300940Y185669294D01*
X222432560Y185351536D01*
X222432562Y185351531D01*
X222594683Y185048225D01*
X222594694Y185048207D01*
X222785765Y184762249D01*
X222785775Y184762235D01*
X223003966Y184496368D01*
X223247157Y184253177D01*
X223247162Y184253173D01*
X223247163Y184253172D01*
X223513030Y184034981D01*
X223799003Y183843900D01*
X223799012Y183843895D01*
X223799014Y183843894D01*
X224102320Y183681773D01*
X224102322Y183681773D01*
X224102328Y183681769D01*
X224420085Y183550150D01*
X224749212Y183450310D01*
X225086540Y183383211D01*
X225428821Y183349500D01*
X225428824Y183349500D01*
X225772756Y183349500D01*
X225772759Y183349500D01*
X226115040Y183383211D01*
X226452368Y183450310D01*
X226781495Y183550150D01*
X227099252Y183681769D01*
X227402577Y183843900D01*
X227688550Y184034981D01*
X227954417Y184253172D01*
X228197618Y184496373D01*
X228415809Y184762240D01*
X228606890Y185048213D01*
X228769021Y185351538D01*
X228900640Y185669295D01*
X229000480Y185998422D01*
X229067579Y186335750D01*
X229101290Y186678031D01*
X229101290Y187021969D01*
X229067579Y187364250D01*
X229000480Y187701578D01*
X228900640Y188030705D01*
X228769021Y188348462D01*
X228761741Y188362081D01*
X228606896Y188651776D01*
X228606895Y188651778D01*
X228606890Y188651787D01*
X228415809Y188937760D01*
X228197618Y189203627D01*
X228197617Y189203628D01*
X228197613Y189203633D01*
X227954422Y189446824D01*
X227688555Y189665015D01*
X227688554Y189665016D01*
X227688550Y189665019D01*
X227402577Y189856100D01*
X227402572Y189856103D01*
X227402565Y189856107D01*
X227099259Y190018228D01*
X227099254Y190018230D01*
X227096236Y190019480D01*
X226970758Y190071455D01*
X226781496Y190149850D01*
X226452362Y190249692D01*
X226115038Y190316790D01*
X226115039Y190316790D01*
X225857246Y190342179D01*
X225772759Y190350500D01*
X225428821Y190350500D01*
X225350756Y190342812D01*
X225086540Y190316790D01*
X224749217Y190249692D01*
X224420083Y190149850D01*
X224102325Y190018230D01*
X224102320Y190018228D01*
X223799014Y189856107D01*
X223798996Y189856096D01*
X223513038Y189665025D01*
X223513024Y189665015D01*
X223247157Y189446824D01*
X223003966Y189203633D01*
X222785775Y188937766D01*
X222785765Y188937752D01*
X222594694Y188651794D01*
X222594683Y188651776D01*
X222432562Y188348470D01*
X222432560Y188348465D01*
X222300940Y188030707D01*
X222201098Y187701573D01*
X222134000Y187364250D01*
X222121889Y187241276D01*
X222100290Y187021969D01*
X209288898Y187021969D01*
X210530112Y188263181D01*
X210591435Y188296666D01*
X210617793Y188299500D01*
X217115340Y188299500D01*
X217182379Y188279815D01*
X217203021Y188263181D01*
X217463238Y188002964D01*
X217463248Y188002953D01*
X217467578Y187998623D01*
X217467579Y187998622D01*
X217579383Y187886818D01*
X217662299Y187838947D01*
X217716314Y187807761D01*
X217869042Y187766837D01*
X217869045Y187766837D01*
X218034752Y187766837D01*
X218034768Y187766838D01*
X218436532Y187766838D01*
X218436548Y187766837D01*
X218444144Y187766837D01*
X218602255Y187766837D01*
X218602258Y187766837D01*
X218754986Y187807761D01*
X218809001Y187838947D01*
X218891917Y187886818D01*
X219003721Y187998622D01*
X219003721Y187998624D01*
X219013925Y188008827D01*
X219013929Y188008832D01*
X219325681Y188320585D01*
X219387002Y188354068D01*
X219389098Y188354505D01*
X219427182Y188362080D01*
X219559215Y188416770D01*
X219678041Y188496167D01*
X219779094Y188597220D01*
X219858491Y188716046D01*
X219913181Y188848079D01*
X219922304Y188893948D01*
X219941062Y188988242D01*
X219941062Y189131157D01*
X219913182Y189271314D01*
X219913181Y189271315D01*
X219913181Y189271319D01*
X219858491Y189403352D01*
X219858490Y189403354D01*
X219858484Y189403364D01*
X219837219Y189435190D01*
X219816341Y189501867D01*
X219834826Y189569247D01*
X219837219Y189572971D01*
X219892925Y189656341D01*
X219892925Y189656342D01*
X219892929Y189656347D01*
X219947619Y189788380D01*
X219965807Y189879815D01*
X219975500Y189928543D01*
X219975500Y190071458D01*
X219947620Y190211615D01*
X219947619Y190211616D01*
X219947619Y190211620D01*
X219892929Y190343653D01*
X219892928Y190343654D01*
X219892925Y190343660D01*
X219813532Y190462479D01*
X219813529Y190462483D01*
X219712482Y190563530D01*
X219712478Y190563533D01*
X219593659Y190642926D01*
X219593650Y190642931D01*
X219461618Y190697620D01*
X219461614Y190697621D01*
X219423607Y190705181D01*
X219361696Y190737566D01*
X219360118Y190739117D01*
X218987590Y191111645D01*
X218987588Y191111648D01*
X218868717Y191230519D01*
X218868709Y191230525D01*
X218761414Y191292471D01*
X218761413Y191292472D01*
X218761413Y191292471D01*
X218731785Y191309577D01*
X218722067Y191312181D01*
X218579057Y191350501D01*
X218420943Y191350501D01*
X218413347Y191350501D01*
X218413331Y191350500D01*
X214000887Y191350500D01*
X213933848Y191370185D01*
X213913206Y191386819D01*
X213423399Y191876626D01*
X213389914Y191937949D01*
X213394898Y192007641D01*
X213414976Y192042665D01*
X213540488Y192196593D01*
X213634699Y192376951D01*
X213690676Y192572582D01*
X213701290Y192691963D01*
X213701289Y193808034D01*
X214700290Y193808034D01*
X214700290Y192691972D01*
X214700291Y192691966D01*
X214710903Y192572585D01*
X214766879Y192376955D01*
X214766880Y192376952D01*
X214766881Y192376951D01*
X214861092Y192196593D01*
X214891474Y192159333D01*
X214989680Y192038891D01*
X215032161Y192004253D01*
X215147383Y191910302D01*
X215327741Y191816091D01*
X215523372Y191760114D01*
X215642753Y191749500D01*
X216758826Y191749501D01*
X216878208Y191760114D01*
X217073839Y191816091D01*
X217254197Y191910302D01*
X217411899Y192038891D01*
X217540488Y192196593D01*
X217634699Y192376951D01*
X217690676Y192572582D01*
X217701290Y192691963D01*
X217701289Y193808036D01*
X217690676Y193927418D01*
X217634699Y194123049D01*
X217540488Y194303407D01*
X217459296Y194402981D01*
X217411899Y194461110D01*
X217254199Y194589696D01*
X217254200Y194589696D01*
X217254197Y194589698D01*
X217073839Y194683909D01*
X217073838Y194683910D01*
X217073835Y194683911D01*
X216939025Y194722484D01*
X216878208Y194739886D01*
X216878205Y194739887D01*
X216878203Y194739887D01*
X216811420Y194745824D01*
X216758827Y194750500D01*
X216758822Y194750500D01*
X215642761Y194750500D01*
X215642755Y194750500D01*
X215642754Y194750499D01*
X215631106Y194749464D01*
X215523374Y194739887D01*
X215327744Y194683911D01*
X215312188Y194675785D01*
X215147383Y194589698D01*
X215147381Y194589697D01*
X215147380Y194589696D01*
X214989680Y194461110D01*
X214861094Y194303410D01*
X214766879Y194123046D01*
X214710904Y193927417D01*
X214710903Y193927414D01*
X214703397Y193842984D01*
X214701513Y193821786D01*
X214700290Y193808034D01*
X213701289Y193808034D01*
X213701289Y193808036D01*
X213690676Y193927418D01*
X213634699Y194123049D01*
X213540488Y194303407D01*
X213459296Y194402981D01*
X213411899Y194461110D01*
X213254199Y194589696D01*
X213254200Y194589696D01*
X213254197Y194589698D01*
X213073839Y194683909D01*
X213073838Y194683910D01*
X213073835Y194683911D01*
X212939025Y194722484D01*
X212878208Y194739886D01*
X212878205Y194739887D01*
X212878203Y194739887D01*
X212811420Y194745824D01*
X212758827Y194750500D01*
X212758822Y194750500D01*
X211642761Y194750500D01*
X211642755Y194750500D01*
X211642754Y194750499D01*
X211631106Y194749464D01*
X211523374Y194739887D01*
X211327744Y194683911D01*
X211312188Y194675785D01*
X211147383Y194589698D01*
X211147381Y194589697D01*
X211147380Y194589696D01*
X210989680Y194461110D01*
X210861094Y194303410D01*
X210766879Y194123046D01*
X210710904Y193927417D01*
X210710903Y193927414D01*
X210703397Y193842984D01*
X210701513Y193821786D01*
X210700290Y193808034D01*
X210700290Y192691972D01*
X210700291Y192691966D01*
X210710903Y192572585D01*
X210766879Y192376955D01*
X210766880Y192376952D01*
X210766881Y192376951D01*
X210861092Y192196593D01*
X210891474Y192159333D01*
X210989680Y192038891D01*
X211032161Y192004253D01*
X211147383Y191910302D01*
X211327741Y191816091D01*
X211523372Y191760114D01*
X211642753Y191749500D01*
X211800691Y191749501D01*
X211867731Y191729817D01*
X211888373Y191713182D01*
X212789374Y190812181D01*
X212822859Y190750858D01*
X212817875Y190681166D01*
X212776003Y190625233D01*
X212710539Y190600816D01*
X212701693Y190600500D01*
X205912767Y190600500D01*
X205845728Y190620185D01*
X205825086Y190636819D01*
X205481386Y190980519D01*
X205481385Y190980520D01*
X205394573Y191030640D01*
X205394573Y191030641D01*
X205394569Y191030642D01*
X205344454Y191059577D01*
X205191726Y191100501D01*
X205033612Y191100501D01*
X205026016Y191100501D01*
X205026000Y191100500D01*
X201050097Y191100500D01*
X201020656Y191109145D01*
X200990670Y191115668D01*
X200985654Y191119423D01*
X200983058Y191120185D01*
X200962416Y191136819D01*
X200837609Y191261626D01*
X200804124Y191322949D01*
X200801290Y191349307D01*
X200801290Y191644610D01*
X200820975Y191711649D01*
X200873779Y191757404D01*
X200891172Y191763824D01*
X201073839Y191816091D01*
X201254197Y191910302D01*
X201411899Y192038891D01*
X201540488Y192196593D01*
X201634699Y192376951D01*
X201690676Y192572582D01*
X201701290Y192691963D01*
X201701289Y193808034D01*
X206700290Y193808034D01*
X206700290Y192691972D01*
X206700291Y192691966D01*
X206710903Y192572585D01*
X206766879Y192376955D01*
X206766880Y192376952D01*
X206766881Y192376951D01*
X206861092Y192196593D01*
X206891474Y192159333D01*
X206989680Y192038891D01*
X207032161Y192004253D01*
X207147383Y191910302D01*
X207327741Y191816091D01*
X207523372Y191760114D01*
X207642753Y191749500D01*
X208758826Y191749501D01*
X208878208Y191760114D01*
X209073839Y191816091D01*
X209254197Y191910302D01*
X209411899Y192038891D01*
X209540488Y192196593D01*
X209634699Y192376951D01*
X209690676Y192572582D01*
X209701290Y192691963D01*
X209701289Y193808036D01*
X209690676Y193927418D01*
X209634699Y194123049D01*
X209540488Y194303407D01*
X209459296Y194402981D01*
X209411899Y194461110D01*
X209254199Y194589696D01*
X209254200Y194589696D01*
X209254197Y194589698D01*
X209073839Y194683909D01*
X209073838Y194683910D01*
X209073835Y194683911D01*
X208939025Y194722484D01*
X208878208Y194739886D01*
X208878205Y194739887D01*
X208878203Y194739887D01*
X208811420Y194745824D01*
X208758827Y194750500D01*
X208758822Y194750500D01*
X207642761Y194750500D01*
X207642755Y194750500D01*
X207642754Y194750499D01*
X207631106Y194749464D01*
X207523374Y194739887D01*
X207327744Y194683911D01*
X207312188Y194675785D01*
X207147383Y194589698D01*
X207147381Y194589697D01*
X207147380Y194589696D01*
X206989680Y194461110D01*
X206861094Y194303410D01*
X206766879Y194123046D01*
X206710904Y193927417D01*
X206710903Y193927414D01*
X206703397Y193842984D01*
X206701513Y193821786D01*
X206700290Y193808034D01*
X201701289Y193808034D01*
X201701289Y193808036D01*
X201690676Y193927418D01*
X201634699Y194123049D01*
X201540488Y194303407D01*
X201459296Y194402981D01*
X201411899Y194461110D01*
X201254199Y194589696D01*
X201254200Y194589696D01*
X201254197Y194589698D01*
X201073839Y194683909D01*
X201073838Y194683910D01*
X201073835Y194683911D01*
X200939025Y194722484D01*
X200878208Y194739886D01*
X200878205Y194739887D01*
X200878203Y194739887D01*
X200811420Y194745824D01*
X200758827Y194750500D01*
X200758822Y194750500D01*
X199642761Y194750500D01*
X199642755Y194750500D01*
X199642754Y194750499D01*
X199631106Y194749464D01*
X199523374Y194739887D01*
X199327744Y194683911D01*
X199312188Y194675785D01*
X199147383Y194589698D01*
X199147381Y194589697D01*
X199147380Y194589696D01*
X198989680Y194461110D01*
X198861094Y194303410D01*
X198766879Y194123046D01*
X198710904Y193927417D01*
X198710903Y193927414D01*
X198703397Y193842984D01*
X198701513Y193821786D01*
X198700290Y193808034D01*
X198700290Y192691972D01*
X198700291Y192691966D01*
X198710903Y192572585D01*
X198766879Y192376955D01*
X198766880Y192376952D01*
X198766881Y192376951D01*
X198861092Y192196593D01*
X198891474Y192159333D01*
X198989680Y192038891D01*
X199032161Y192004253D01*
X199147383Y191910302D01*
X199327741Y191816091D01*
X199510402Y191763826D01*
X199569439Y191726459D01*
X199598903Y191663105D01*
X199600290Y191644610D01*
X199600290Y191128271D01*
X199600289Y191128267D01*
X199600289Y191063004D01*
X199600289Y190999097D01*
X199580604Y190932058D01*
X199527800Y190886303D01*
X199467335Y190877610D01*
X199458642Y190876360D01*
X199458641Y190876361D01*
X199458641Y190876360D01*
X199427669Y190890505D01*
X199395086Y190905385D01*
X199388608Y190911417D01*
X197734639Y192565386D01*
X197701154Y192626709D01*
X197698807Y192664045D01*
X197701290Y192691963D01*
X197701289Y193808036D01*
X197690676Y193927418D01*
X197634699Y194123049D01*
X197540488Y194303407D01*
X197459296Y194402981D01*
X197411899Y194461110D01*
X197254199Y194589696D01*
X197254200Y194589696D01*
X197254197Y194589698D01*
X197073839Y194683909D01*
X197073838Y194683910D01*
X197073835Y194683911D01*
X196939025Y194722484D01*
X196878208Y194739886D01*
X196878205Y194739887D01*
X196878203Y194739887D01*
X196811420Y194745824D01*
X196758827Y194750500D01*
X196758822Y194750500D01*
X195642761Y194750500D01*
X195642755Y194750500D01*
X195642754Y194750499D01*
X195631106Y194749464D01*
X195523374Y194739887D01*
X195327744Y194683911D01*
X195312188Y194675785D01*
X195147383Y194589698D01*
X195147381Y194589697D01*
X195147380Y194589696D01*
X194989680Y194461110D01*
X194861094Y194303410D01*
X194766879Y194123046D01*
X194710904Y193927417D01*
X194710903Y193927414D01*
X194703397Y193842984D01*
X194701513Y193821786D01*
X194700290Y193808034D01*
X194700290Y192691972D01*
X194700291Y192691966D01*
X194710903Y192572585D01*
X194766879Y192376955D01*
X194766880Y192376952D01*
X194766881Y192376951D01*
X194861092Y192196593D01*
X194891474Y192159333D01*
X194989680Y192038891D01*
X195032161Y192004253D01*
X195147383Y191910302D01*
X195327741Y191816091D01*
X195523372Y191760114D01*
X195642753Y191749500D01*
X196758826Y191749501D01*
X196786742Y191751984D01*
X196855258Y191738315D01*
X196885403Y191716152D01*
X197289374Y191312181D01*
X197322859Y191250858D01*
X197317875Y191181166D01*
X197276003Y191125233D01*
X197210539Y191100816D01*
X197201693Y191100500D01*
X195250887Y191100500D01*
X195183848Y191120185D01*
X195163206Y191136819D01*
X193734639Y192565386D01*
X193701154Y192626709D01*
X193698807Y192664045D01*
X193701290Y192691963D01*
X193701289Y193808036D01*
X193690676Y193927418D01*
X193634699Y194123049D01*
X193540488Y194303407D01*
X193459296Y194402981D01*
X193411899Y194461110D01*
X193254199Y194589696D01*
X193254200Y194589696D01*
X193254197Y194589698D01*
X193073839Y194683909D01*
X193073838Y194683910D01*
X193073835Y194683911D01*
X192939025Y194722484D01*
X192878208Y194739886D01*
X192878205Y194739887D01*
X192878203Y194739887D01*
X192811420Y194745824D01*
X192758827Y194750500D01*
X192758822Y194750500D01*
X191642761Y194750500D01*
X191642755Y194750500D01*
X191642754Y194750499D01*
X191631106Y194749464D01*
X191523374Y194739887D01*
X191327744Y194683911D01*
X191312188Y194675785D01*
X191147383Y194589698D01*
X191147381Y194589697D01*
X191147380Y194589696D01*
X190989680Y194461110D01*
X190861094Y194303410D01*
X190766879Y194123046D01*
X190710904Y193927417D01*
X190710903Y193927414D01*
X190703397Y193842984D01*
X190701513Y193821786D01*
X190700290Y193808034D01*
X182057008Y193808034D01*
X182068700Y193817841D01*
X182073634Y193821767D01*
X182191545Y193910767D01*
X182196683Y193914442D01*
X182318989Y193997264D01*
X182324331Y194000684D01*
X182450730Y194077121D01*
X182456227Y194080255D01*
X182563254Y194137690D01*
X182586364Y194150092D01*
X182592036Y194152952D01*
X182725601Y194216028D01*
X182731394Y194218583D01*
X182868045Y194274730D01*
X182873935Y194276974D01*
X183013274Y194326029D01*
X183019279Y194327972D01*
X183160983Y194369820D01*
X183167045Y194371442D01*
X183310690Y194405958D01*
X183316888Y194407280D01*
X183462081Y194434370D01*
X183468337Y194435373D01*
X183614755Y194454980D01*
X183621026Y194455657D01*
X183768692Y194467760D01*
X183774175Y194468085D01*
X183846482Y194470747D01*
X183850311Y194470828D01*
X185388050Y194479087D01*
X185388049Y194479088D01*
X185413471Y194479224D01*
X185418769Y194482152D01*
X185433583Y194484524D01*
X185505483Y194491602D01*
X185582529Y194506924D01*
X185582530Y194506925D01*
X185582533Y194506925D01*
X185596802Y194511254D01*
X185657701Y194529724D01*
X185730277Y194559782D01*
X185799557Y194596809D01*
X185864874Y194640449D01*
X185925599Y194690280D01*
X185981148Y194745824D01*
X186030984Y194806545D01*
X186074629Y194871859D01*
X186111662Y194941136D01*
X186141726Y195013710D01*
X186164532Y195088880D01*
X186179860Y195165924D01*
X186187562Y195244100D01*
X186188030Y195283377D01*
X186187981Y195284966D01*
X186188051Y195285235D01*
X186188061Y195286001D01*
X186188251Y195285999D01*
X186205610Y195352572D01*
X186213753Y195363886D01*
X186213615Y195363986D01*
X186216476Y195367925D01*
X186216479Y195367927D01*
X186327549Y195520801D01*
X186413336Y195689168D01*
X186470085Y195863823D01*
X186509522Y195921497D01*
X186573880Y195948695D01*
X186588006Y195949503D01*
X222913293Y195949699D01*
X222937005Y195942737D01*
G37*
%TD.AperFunction*%
%TD*%
M02*
