%TF.GenerationSoftware,KiCad,Pcbnew,10.0.5*%
%TF.CreationDate,2026-07-27T16:40:30-07:00*%
%TF.ProjectId,Vertical,56657274-6963-4616-9c2e-6b696361645f,rev?*%
%TF.SameCoordinates,Original*%
%TF.FileFunction,Paste,Bot*%
%TF.FilePolarity,Positive*%
%FSLAX46Y46*%
G04 Gerber Fmt 4.6, Leading zero omitted, Abs format (unit mm)*
G04 Created by KiCad (PCBNEW 10.0.5) date 2026-07-27 16:40:30*
%MOMM*%
%LPD*%
G01*
G04 APERTURE LIST*
G04 Aperture macros list*
%AMRoundRect*
0 Rectangle with rounded corners*
0 $1 Rounding radius*
0 $2 $3 $4 $5 $6 $7 $8 $9 X,Y pos of 4 corners*
0 Add a 4 corners polygon primitive as box body*
4,1,4,$2,$3,$4,$5,$6,$7,$8,$9,$2,$3,0*
0 Add four circle primitives for the rounded corners*
1,1,$1+$1,$2,$3*
1,1,$1+$1,$4,$5*
1,1,$1+$1,$6,$7*
1,1,$1+$1,$8,$9*
0 Add four rect primitives between the rounded corners*
20,1,$1+$1,$2,$3,$4,$5,0*
20,1,$1+$1,$4,$5,$6,$7,0*
20,1,$1+$1,$6,$7,$8,$9,0*
20,1,$1+$1,$8,$9,$2,$3,0*%
G04 Aperture macros list end*
%ADD10RoundRect,0.064600X0.212132X0.721249X-0.721249X-0.212132X-0.212132X-0.721249X0.721249X0.212132X0*%
%ADD11RoundRect,0.064600X0.660000X0.360000X-0.660000X0.360000X-0.660000X-0.360000X0.660000X-0.360000X0*%
%ADD12RoundRect,0.114600X-0.140000X-0.170000X0.140000X-0.170000X0.140000X0.170000X-0.140000X0.170000X0*%
%ADD13RoundRect,0.114600X-0.021213X0.219203X-0.219203X0.021213X0.021213X-0.219203X0.219203X-0.021213X0*%
%ADD14RoundRect,0.480000X0.390000X-0.340000X0.390000X0.340000X-0.390000X0.340000X-0.390000X-0.340000X0*%
%ADD15RoundRect,0.224600X-0.262500X-0.450000X0.262500X-0.450000X0.262500X0.450000X-0.262500X0.450000X0*%
%ADD16RoundRect,0.360000X0.400000X1.100000X-0.400000X1.100000X-0.400000X-1.100000X0.400000X-1.100000X0*%
%ADD17RoundRect,0.480000X-0.280000X-0.980000X0.280000X-0.980000X0.280000X0.980000X-0.280000X0.980000X0*%
%ADD18RoundRect,0.360000X-0.400000X-1.100000X0.400000X-1.100000X0.400000X1.100000X-0.400000X1.100000X0*%
%ADD19RoundRect,0.224600X-0.450000X0.262500X-0.450000X-0.262500X0.450000X-0.262500X0.450000X0.262500X0*%
%ADD20RoundRect,0.224600X0.450000X-0.262500X0.450000X0.262500X-0.450000X0.262500X-0.450000X-0.262500X0*%
%ADD21RoundRect,0.480000X-0.390000X0.340000X-0.390000X-0.340000X0.390000X-0.340000X0.390000X0.340000X0*%
G04 APERTURE END LIST*
D10*
%TO.C,D5*%
X206305685Y168253138D03*
X208639138Y165919685D03*
X205174315Y162454862D03*
X202840862Y164788315D03*
%TD*%
D11*
%TO.C,D4*%
X248830000Y198500000D03*
X248830000Y195200000D03*
X243930000Y195200000D03*
X243930000Y198500000D03*
%TD*%
%TO.C,D3*%
X208190000Y198500000D03*
X208190000Y195200000D03*
X203290000Y195200000D03*
X203290000Y198500000D03*
%TD*%
D12*
%TO.C,C20*%
X209268000Y200152000D03*
X208308000Y200152000D03*
%TD*%
%TO.C,C23*%
X249400000Y200406000D03*
X248440000Y200406000D03*
%TD*%
D13*
%TO.C,C25*%
X205569178Y170009178D03*
X206248000Y170688000D03*
%TD*%
D14*
%TO.C,Qt1*%
X216497600Y179199990D03*
X220102400Y179199990D03*
%TD*%
%TO.C,Qt2*%
X223097610Y179199990D03*
X226702400Y179199990D03*
%TD*%
D15*
%TO.C,R16*%
X204874500Y200914000D03*
X203049500Y200914000D03*
%TD*%
%TO.C,R17*%
X214526500Y163068000D03*
X212701500Y163068000D03*
%TD*%
D16*
%TO.C,SW1*%
X246400000Y188900000D03*
X236000000Y188900000D03*
%TD*%
D17*
%TO.C,SW2*%
X229150000Y162600000D03*
D18*
X239424990Y162550000D03*
%TD*%
%TO.C,SW3*%
X215460000Y188900000D03*
X225860000Y188900000D03*
%TD*%
D19*
%TO.C,R2*%
X232410000Y196492500D03*
X232410000Y194667500D03*
%TD*%
D20*
%TO.C,R3*%
X210820000Y191412500D03*
X210820000Y189587500D03*
%TD*%
D19*
%TO.C,R4*%
X229870000Y196492500D03*
X229870000Y194667500D03*
%TD*%
D21*
%TO.C,D1*%
X223122600Y161800000D03*
X226727390Y161800000D03*
%TD*%
%TO.C,D2*%
X216497600Y161800000D03*
X220102390Y161800000D03*
%TD*%
D19*
%TO.C,R1*%
X207010000Y191412500D03*
X207010000Y189587500D03*
%TD*%
M02*
