%TF.GenerationSoftware,KiCad,Pcbnew,10.0.5*%
%TF.CreationDate,2026-07-27T16:40:30-07:00*%
%TF.ProjectId,Vertical,56657274-6963-4616-9c2e-6b696361645f,rev?*%
%TF.SameCoordinates,Original*%
%TF.FileFunction,Copper,L2,Bot*%
%TF.FilePolarity,Positive*%
%FSLAX46Y46*%
G04 Gerber Fmt 4.6, Leading zero omitted, Abs format (unit mm)*
G04 Created by KiCad (PCBNEW 10.0.5) date 2026-07-27 16:40:30*
%MOMM*%
%LPD*%
G01*
G04 APERTURE LIST*
G04 Aperture macros list*
%AMRoundRect*
0 Rectangle with rounded corners*
0 $1 Rounding radius*
0 $2 $3 $4 $5 $6 $7 $8 $9 X,Y pos of 4 corners*
0 Add a 4 corners polygon primitive as box body*
4,1,4,$2,$3,$4,$5,$6,$7,$8,$9,$2,$3,0*
0 Add four circle primitives for the rounded corners*
1,1,$1+$1,$2,$3*
1,1,$1+$1,$4,$5*
1,1,$1+$1,$6,$7*
1,1,$1+$1,$8,$9*
0 Add four rect primitives between the rounded corners*
20,1,$1+$1,$2,$3,$4,$5,0*
20,1,$1+$1,$4,$5,$6,$7,0*
20,1,$1+$1,$6,$7,$8,$9,0*
20,1,$1+$1,$8,$9,$2,$3,0*%
%AMRotRect*
0 Rectangle, with rotation*
0 The origin of the aperture is its center*
0 $1 length*
0 $2 width*
0 $3 Rotation angle, in degrees counterclockwise*
0 Add horizontal line*
21,1,$1,$2,0,0,$3*%
G04 Aperture macros list end*
%TA.AperFunction,SMDPad,CuDef*%
%ADD10RoundRect,0.090000X0.212132X0.721249X-0.721249X-0.212132X-0.212132X-0.721249X0.721249X0.212132X0*%
%TD*%
%TA.AperFunction,SMDPad,CuDef*%
%ADD11RoundRect,0.090000X0.660000X0.360000X-0.660000X0.360000X-0.660000X-0.360000X0.660000X-0.360000X0*%
%TD*%
%TA.AperFunction,SMDPad,CuDef*%
%ADD12RoundRect,0.140000X-0.140000X-0.170000X0.140000X-0.170000X0.140000X0.170000X-0.140000X0.170000X0*%
%TD*%
%TA.AperFunction,SMDPad,CuDef*%
%ADD13RoundRect,0.140000X-0.021213X0.219203X-0.219203X0.021213X0.021213X-0.219203X0.219203X-0.021213X0*%
%TD*%
%TA.AperFunction,ComponentPad*%
%ADD14RoundRect,0.575000X-0.575000X-1.425000X0.575000X-1.425000X0.575000X1.425000X-0.575000X1.425000X0*%
%TD*%
%TA.AperFunction,SMDPad,CuDef*%
%ADD15RoundRect,0.510000X0.390000X-0.340000X0.390000X0.340000X-0.390000X0.340000X-0.390000X-0.340000X0*%
%TD*%
%TA.AperFunction,SMDPad,CuDef*%
%ADD16RoundRect,0.250000X-0.262500X-0.450000X0.262500X-0.450000X0.262500X0.450000X-0.262500X0.450000X0*%
%TD*%
%TA.AperFunction,SMDPad,CuDef*%
%ADD17RoundRect,0.400000X0.400000X1.100000X-0.400000X1.100000X-0.400000X-1.100000X0.400000X-1.100000X0*%
%TD*%
%TA.AperFunction,SMDPad,CuDef*%
%ADD18RoundRect,0.520000X-0.280000X-0.980000X0.280000X-0.980000X0.280000X0.980000X-0.280000X0.980000X0*%
%TD*%
%TA.AperFunction,SMDPad,CuDef*%
%ADD19RoundRect,0.400000X-0.400000X-1.100000X0.400000X-1.100000X0.400000X1.100000X-0.400000X1.100000X0*%
%TD*%
%TA.AperFunction,SMDPad,CuDef*%
%ADD20RoundRect,0.250000X-0.450000X0.262500X-0.450000X-0.262500X0.450000X-0.262500X0.450000X0.262500X0*%
%TD*%
%TA.AperFunction,SMDPad,CuDef*%
%ADD21RoundRect,0.250000X0.450000X-0.262500X0.450000X0.262500X-0.450000X0.262500X-0.450000X-0.262500X0*%
%TD*%
%TA.AperFunction,SMDPad,CuDef*%
%ADD22RoundRect,0.510000X-0.390000X0.340000X-0.390000X-0.340000X0.390000X-0.340000X0.390000X0.340000X0*%
%TD*%
%TA.AperFunction,ComponentPad*%
%ADD23C,0.001000*%
%TD*%
%TA.AperFunction,SMDPad,CuDef*%
%ADD24RotRect,1.016000X1.016000X135.000000*%
%TD*%
%TA.AperFunction,ViaPad*%
%ADD25C,0.600000*%
%TD*%
%TA.AperFunction,ViaPad*%
%ADD26C,1.200000*%
%TD*%
%TA.AperFunction,ViaPad*%
%ADD27C,1.016000*%
%TD*%
%TA.AperFunction,ViaPad*%
%ADD28C,1.000000*%
%TD*%
%TA.AperFunction,ViaPad*%
%ADD29C,0.800000*%
%TD*%
%TA.AperFunction,Conductor*%
%ADD30C,0.500000*%
%TD*%
%TA.AperFunction,Conductor*%
%ADD31C,0.200000*%
%TD*%
%TA.AperFunction,Conductor*%
%ADD32C,1.000000*%
%TD*%
G04 APERTURE END LIST*
D10*
%TO.P,D5,1,VDD_1*%
%TO.N,/LEDs/V_USB*%
X206305685Y168253138D03*
%TO.P,D5,2,DOUT_2*%
%TO.N,Net-(D5-DOUT)*%
X208639138Y165919685D03*
%TO.P,D5,3,VSS_3*%
%TO.N,GND*%
X205174315Y162454862D03*
%TO.P,D5,4,DIN_4*%
%TO.N,Net-(D4-DOUT)*%
X202840862Y164788315D03*
%TD*%
D11*
%TO.P,D4,1,VDD_1*%
%TO.N,/LEDs/V_USB*%
X248830000Y198500000D03*
%TO.P,D4,2,DOUT_2*%
%TO.N,Net-(D4-DOUT)*%
X248830000Y195200000D03*
%TO.P,D4,3,VSS_3*%
%TO.N,GND*%
X243930000Y195200000D03*
%TO.P,D4,4,DIN_4*%
%TO.N,Net-(D3-DOUT)*%
X243930000Y198500000D03*
%TD*%
%TO.P,D3,1,VDD_1*%
%TO.N,/LEDs/V_USB*%
X208190000Y198500000D03*
%TO.P,D3,2,DOUT_2*%
%TO.N,Net-(D3-DOUT)*%
X208190000Y195200000D03*
%TO.P,D3,3,VSS_3*%
%TO.N,GND*%
X203290000Y195200000D03*
%TO.P,D3,4,DIN_4*%
%TO.N,Net-(D3-DIN)*%
X203290000Y198500000D03*
%TD*%
D12*
%TO.P,C20,2,2_2*%
%TO.N,/LEDs/V_USB*%
X209268000Y200152000D03*
%TO.P,C20,1,1_1*%
%TO.N,GND*%
X208308000Y200152000D03*
%TD*%
%TO.P,C23,2,2_2*%
%TO.N,/LEDs/V_USB*%
X249400000Y200406000D03*
%TO.P,C23,1,1_1*%
%TO.N,GND*%
X248440000Y200406000D03*
%TD*%
D13*
%TO.P,C25,2,2_2*%
%TO.N,/LEDs/V_USB*%
X205569178Y170009178D03*
%TO.P,C25,1,1_1*%
%TO.N,GND*%
X206248000Y170688000D03*
%TD*%
D14*
%TO.P,CJ1,1,1_1*%
%TO.N,GND*%
X243011390Y205451340D03*
%TD*%
%TO.P,CJ2,1,1_1*%
%TO.N,/SCW/ButtonScrollWheel*%
X239011390Y205451340D03*
%TD*%
%TO.P,CJ3,1,1_1*%
%TO.N,/SCW/ScrollWheelOpto0*%
X235011390Y205451340D03*
%TD*%
%TO.P,CJ4,1,1_1*%
%TO.N,/SCW/ScrollWheelOpto1*%
X231011390Y205451340D03*
%TD*%
%TO.P,CJ5,1,1_1*%
%TO.N,GND*%
X227011390Y205451340D03*
%TD*%
%TO.P,CJ6,1,1_1*%
%TO.N,/BBS/ButtonLeftClick*%
X223011390Y205451340D03*
%TD*%
%TO.P,CJ7,1,1_1*%
%TO.N,/BBS/ButtonRightClick*%
X219011390Y205451340D03*
%TD*%
%TO.P,CJ8,1,1_1*%
%TO.N,/SCW/3V3*%
X215011390Y205451340D03*
%TD*%
%TO.P,CJ9,1,1_1*%
%TO.N,GND*%
X211011390Y205451340D03*
%TD*%
%TO.P,CJ10,1,1_1*%
%TO.N,/LEDs/LEDData*%
X207011390Y205451340D03*
%TD*%
%TO.P,CJ11,1,1_1*%
%TO.N,/LEDs/V_USB*%
X247011390Y205451340D03*
%TD*%
D15*
%TO.P,Qt1,E,E_E*%
%TO.N,/SCW/ScrollWheelOpto0*%
X216497600Y179199990D03*
%TO.P,Qt1,C,C_C*%
%TO.N,/SCW/3V3*%
X220102400Y179199990D03*
%TD*%
%TO.P,Qt2,2,E_2*%
%TO.N,/SCW/ScrollWheelOpto1*%
X223097610Y179199990D03*
%TO.P,Qt2,1,C_1*%
%TO.N,/SCW/3V3*%
X226702400Y179199990D03*
%TD*%
D16*
%TO.P,R16,2,2_2*%
%TO.N,/LEDs/LEDData*%
X204874500Y200914000D03*
%TO.P,R16,1,1_1*%
%TO.N,Net-(D3-DIN)*%
X203049500Y200914000D03*
%TD*%
%TO.P,R17,2,2_2*%
%TO.N,unconnected-(R17-Pad2)*%
X214526500Y163068000D03*
%TO.P,R17,1,1_1*%
%TO.N,Net-(D5-DOUT)*%
X212701500Y163068000D03*
%TD*%
D17*
%TO.P,SW1,B,B_B*%
%TO.N,GND*%
X246400000Y188900000D03*
%TO.P,SW1,A,A_A*%
%TO.N,/BBS/ButtonLeftClick*%
X236000000Y188900000D03*
%TD*%
D18*
%TO.P,SW2,B,B_B*%
%TO.N,GND*%
X229150000Y162600000D03*
D19*
%TO.P,SW2,A,A_A*%
%TO.N,/BBS/ButtonRightClick*%
X239424990Y162550000D03*
%TD*%
%TO.P,SW3,B,B_B*%
%TO.N,GND*%
X215460000Y188900000D03*
%TO.P,SW3,A,A_A*%
%TO.N,/SCW/ButtonScrollWheel*%
X225860000Y188900000D03*
%TD*%
D20*
%TO.P,R2,1,1_1*%
%TO.N,GND*%
X232410000Y196492500D03*
%TO.P,R2,2,2_2*%
%TO.N,/SCW/ScrollWheelOpto0*%
X232410000Y194667500D03*
%TD*%
D21*
%TO.P,R3,2,2_2*%
%TO.N,/SCW/3V3*%
X210820000Y191412500D03*
%TO.P,R3,1,1_1*%
%TO.N,Net-(D2-A)*%
X210820000Y189587500D03*
%TD*%
D20*
%TO.P,R4,1,1_1*%
%TO.N,GND*%
X229870000Y196492500D03*
%TO.P,R4,2,2_2*%
%TO.N,/SCW/ScrollWheelOpto1*%
X229870000Y194667500D03*
%TD*%
D22*
%TO.P,D1,1,A_1*%
%TO.N,Net-(D1-A)*%
X223122600Y161800000D03*
%TO.P,D1,2,C_2*%
%TO.N,GND*%
X226727390Y161800000D03*
%TD*%
%TO.P,D2,1,A_1*%
%TO.N,Net-(D2-A)*%
X216497600Y161800000D03*
%TO.P,D2,2,C_2*%
%TO.N,GND*%
X220102390Y161800000D03*
%TD*%
D20*
%TO.P,R1,1*%
%TO.N,/SCW/3V3*%
X207010000Y191412500D03*
%TO.P,R1,2*%
%TO.N,Net-(D1-A)*%
X207010000Y189587500D03*
%TD*%
D23*
%TO.P,,*%
%TO.N,*%
X236338460Y181437390D03*
%TD*%
D24*
%TO.P,MCH.SP.12,1*%
%TO.N,GND*%
X249600000Y188600000D03*
%TD*%
%TO.P,MCH.SP.5,1*%
%TO.N,GND*%
X210600000Y176600000D03*
%TD*%
D23*
%TO.P,,*%
%TO.N,*%
X238622810Y199582840D03*
%TD*%
D24*
%TO.P,MCH.SP.9,1*%
%TO.N,GND*%
X249936000Y202946000D03*
%TD*%
D23*
%TO.P,,*%
%TO.N,*%
X217623060Y199481310D03*
%TD*%
D24*
%TO.P,MCH.SP.8,1*%
%TO.N,GND*%
X207600000Y171600000D03*
%TD*%
%TO.P,MCH.SP.11,1*%
%TO.N,GND*%
X200600000Y199600000D03*
%TD*%
%TO.P,MCH.SP.4,1*%
%TO.N,GND*%
X200875010Y172600000D03*
%TD*%
%TO.P,MCH.SP.1,1*%
%TO.N,GND*%
X204600000Y164600000D03*
%TD*%
%TO.P,MCH.SP.6,1*%
%TO.N,GND*%
X240600000Y183600000D03*
%TD*%
%TO.P,MCH.SP.10,1*%
%TO.N,GND*%
X200600000Y181600000D03*
%TD*%
%TO.P,MCH.SP.2,1*%
%TO.N,GND*%
X200600000Y190600000D03*
%TD*%
D23*
%TO.P,,*%
%TO.N,*%
X205438460Y181437390D03*
%TD*%
D24*
%TO.P,MCH.SP.7,1*%
%TO.N,GND*%
X229800000Y177600000D03*
%TD*%
%TO.P,MCH.SP.3,1*%
%TO.N,GND*%
X235600000Y177600000D03*
%TD*%
D25*
%TO.N,/LEDs/V_USB*%
X207010000Y188468000D03*
X239014000Y193802000D03*
X209296000Y179832000D03*
X207010000Y184912000D03*
%TO.N,Net-(D4-DOUT)*%
X236982000Y193294000D03*
X204142673Y169039515D03*
%TO.N,Net-(D3-DOUT)*%
X208788000Y193802000D03*
X236728000Y194056000D03*
D26*
%TO.N,GND*%
X238100000Y185900000D03*
D27*
X200600000Y190600000D03*
X200600000Y199600000D03*
D25*
X221700000Y162000000D03*
D26*
X212300000Y187200000D03*
X221300000Y185300000D03*
D25*
X227900000Y160300000D03*
X225000000Y160300000D03*
D26*
X218850904Y191686000D03*
D27*
X204600000Y164600000D03*
D26*
X233934000Y188976000D03*
X206840000Y193350352D03*
D27*
X249600000Y188600000D03*
D26*
X225100000Y199600000D03*
D27*
X207600000Y171600000D03*
D26*
X233600000Y186100000D03*
X204400000Y189900000D03*
X243058737Y192090000D03*
D27*
X235600000Y177600000D03*
D26*
X235600000Y195100000D03*
D27*
X210600000Y176600000D03*
D26*
X213995919Y191185249D03*
D27*
X249936000Y202946000D03*
D26*
X244600000Y195600000D03*
D25*
X218700000Y162200000D03*
D26*
X212170000Y197600000D03*
D28*
X211502499Y162218000D03*
D27*
X200600000Y181600000D03*
X200875010Y172600000D03*
D26*
X221752013Y194940000D03*
D27*
X229800000Y177600000D03*
D26*
X204100000Y203600000D03*
D25*
X229100000Y160300000D03*
D26*
X243600000Y201600000D03*
X230600000Y197600000D03*
X214600000Y180800000D03*
X225600000Y185100000D03*
X217100000Y183600000D03*
X204700000Y185800000D03*
X222650080Y191691306D03*
D27*
X240600000Y183600000D03*
D29*
%TO.N,/BBS/ButtonRightClick*%
X238700000Y163700000D03*
X238700000Y161300000D03*
D25*
%TO.N,/BBS/ButtonLeftClick*%
X234400000Y193400000D03*
%TO.N,/SCW/ButtonScrollWheel*%
X225600000Y197200000D03*
%TO.N,/SCW/3V3*%
X217702390Y181600000D03*
X228300000Y180900000D03*
%TD*%
%TO.N,/LEDs/V_USB*%
D30*
X208190000Y198500000D02*
X209268000Y199578000D01*
X209268000Y199578000D02*
X209268000Y200152000D01*
X207010000Y188468000D02*
X207010000Y184912000D01*
%TO.N,Net-(D3-DOUT)*%
D31*
X242792761Y198500000D02*
X243930000Y198500000D01*
X236728000Y194056000D02*
X238348761Y194056000D01*
X238348761Y194056000D02*
X242792761Y198500000D01*
%TO.N,/LEDs/V_USB*%
D30*
X248830000Y198500000D02*
X247930000Y197600000D01*
X247930000Y197600000D02*
X244082000Y197600000D01*
X244082000Y197600000D02*
X240284000Y193802000D01*
X240284000Y193802000D02*
X239014000Y193802000D01*
X248830000Y198500000D02*
X249400000Y199070000D01*
X249400000Y199070000D02*
X249400000Y200406000D01*
X249400000Y200406000D02*
X249400000Y200715999D01*
X249400000Y200715999D02*
X246918684Y203197315D01*
X246918684Y203197315D02*
X246918684Y204847113D01*
%TO.N,/SCW/3V3*%
D32*
X213766400Y184533600D02*
X213766400Y189166100D01*
X213766400Y189166100D02*
X211520000Y191412500D01*
X211520000Y191412500D02*
X210820000Y191412500D01*
X210820000Y191412500D02*
X207010000Y191412500D01*
%TO.N,Net-(D2-A)*%
D31*
X208646000Y179959818D02*
X204682000Y175995818D01*
%TO.N,/LEDs/V_USB*%
D30*
X205436053Y175972053D02*
X209296000Y179832000D01*
%TO.N,Net-(D2-A)*%
D31*
X211003686Y161418000D02*
X216115600Y161418000D01*
%TO.N,Net-(D1-A)*%
X212476000Y160650000D02*
X221972600Y160650000D01*
%TO.N,/LEDs/V_USB*%
D30*
X207010000Y184912000D02*
X205740000Y186182000D01*
%TO.N,Net-(D1-A)*%
D31*
X212344000Y160782000D02*
X212476000Y160650000D01*
X204216000Y169976426D02*
X204792673Y169399753D01*
%TO.N,/LEDs/V_USB*%
D30*
X205569178Y170009178D02*
X205436053Y170142303D01*
%TO.N,Net-(D1-A)*%
D31*
X221972600Y160650000D02*
X223122600Y161800000D01*
%TO.N,Net-(D2-A)*%
X204682000Y170076112D02*
X205192673Y169565439D01*
%TO.N,Net-(D1-A)*%
X207888460Y188709040D02*
X207888460Y179767964D01*
X204216000Y176095504D02*
X204216000Y169976426D01*
%TO.N,/LEDs/V_USB*%
D30*
X205436053Y170142303D02*
X205436053Y175972053D01*
%TO.N,Net-(D2-A)*%
D31*
X205192673Y169565439D02*
X205192673Y167229013D01*
X210120000Y189587500D02*
X208646000Y188113500D01*
X205192673Y167229013D02*
X211003686Y161418000D01*
%TO.N,Net-(D1-A)*%
X211074000Y160782000D02*
X212344000Y160782000D01*
%TO.N,Net-(D2-A)*%
X210820000Y189587500D02*
X210120000Y189587500D01*
%TO.N,Net-(D1-A)*%
X204792673Y167063327D02*
X211074000Y160782000D01*
X207010000Y189587500D02*
X207888460Y188709040D01*
X204792673Y169399753D02*
X204792673Y167063327D01*
%TO.N,Net-(D2-A)*%
X216115600Y161418000D02*
X216497600Y161800000D01*
X208646000Y188113500D02*
X208646000Y179959818D01*
%TO.N,Net-(D1-A)*%
X207888460Y179767964D02*
X204216000Y176095504D01*
%TO.N,Net-(D2-A)*%
X204682000Y175995818D02*
X204682000Y170076112D01*
%TO.N,/LEDs/V_USB*%
D30*
X205740000Y196050000D02*
X208190000Y198500000D01*
X205740000Y186182000D02*
X205740000Y196050000D01*
X206305685Y168253138D02*
X206305685Y169272671D01*
X206305685Y169272671D02*
X205569178Y170009178D01*
%TO.N,Net-(D4-DOUT)*%
D31*
X204142673Y166090126D02*
X204142673Y169039515D01*
X202840862Y164788315D02*
X204142673Y166090126D01*
%TO.N,Net-(D5-DOUT)*%
X208639138Y165919685D02*
X209849815Y165919685D01*
X209849815Y165919685D02*
X212701500Y163068000D01*
%TO.N,Net-(D4-DOUT)*%
X248830000Y195200000D02*
X246670000Y193040000D01*
X237236000Y193040000D02*
X236982000Y193294000D01*
X246670000Y193040000D02*
X237236000Y193040000D01*
%TO.N,Net-(D3-DOUT)*%
X208190000Y194400000D02*
X208788000Y193802000D01*
X208190000Y195200000D02*
X208190000Y194400000D01*
%TO.N,Net-(D3-DIN)*%
X203049500Y200914000D02*
X203049500Y198740500D01*
X203049500Y198740500D02*
X203290000Y198500000D01*
%TO.N,/LEDs/LEDData*%
X204874500Y200914000D02*
X204874500Y202690185D01*
X204874500Y202690185D02*
X207014394Y204830079D01*
%TO.N,/SCW/ScrollWheelOpto1*%
D32*
X223097610Y179199990D02*
X223999990Y179199990D01*
X227200000Y199600000D02*
X227200000Y195100000D01*
X231011390Y205451340D02*
X231011390Y203411390D01*
X229870000Y185070000D02*
X229870000Y194667500D01*
X231011390Y203411390D02*
X227200000Y199600000D01*
X227200000Y195100000D02*
X227700000Y194600000D01*
X223999990Y179199990D02*
X229870000Y185070000D01*
X227700000Y194600000D02*
X227767500Y194667500D01*
X227767500Y194667500D02*
X229870000Y194667500D01*
%TO.N,/BBS/ButtonLeftClick*%
X235100000Y193400000D02*
X234400000Y193400000D01*
X236000000Y188900000D02*
X236000000Y192500000D01*
X236000000Y192500000D02*
X235100000Y193400000D01*
%TO.N,/SCW/ButtonScrollWheel*%
X225860000Y193640000D02*
X225860000Y188900000D01*
X225600000Y193900000D02*
X225860000Y193640000D01*
X225600000Y193900000D02*
X225600000Y197200000D01*
%TO.N,/SCW/3V3*%
X215011390Y205451340D02*
X215011390Y203811390D01*
X215011390Y203811390D02*
X213951340Y202751340D01*
X226702400Y179199990D02*
X226702400Y179302400D01*
X216700000Y181600000D02*
X217702390Y181600000D01*
X226702400Y179302400D02*
X228300000Y180900000D01*
X217702390Y181600000D02*
X220102400Y179199990D01*
X213951340Y202751340D02*
X213901250Y202751340D01*
X213766400Y184533600D02*
X216700000Y181600000D01*
X210820000Y199670090D02*
X210820000Y191412500D01*
X213901250Y202751340D02*
X210820000Y199670090D01*
%TO.N,/SCW/ScrollWheelOpto0*%
X233367500Y194667500D02*
X232410000Y194667500D01*
X235011390Y201711390D02*
X234400000Y201100000D01*
X231800000Y191900000D02*
X231800000Y181500000D01*
X231800000Y181500000D02*
X227500000Y177200000D01*
X217600000Y177200000D02*
X217600000Y178097590D01*
X232410000Y192510000D02*
X231800000Y191900000D01*
X234400000Y195700000D02*
X233367500Y194667500D01*
X234400000Y201100000D02*
X234400000Y195700000D01*
X227500000Y177200000D02*
X217600000Y177200000D01*
X217600000Y178097590D02*
X216497600Y179199990D01*
X235011390Y205451340D02*
X235011390Y201711390D01*
X232410000Y194667500D02*
X232410000Y192510000D01*
%TD*%
%TA.AperFunction,Conductor*%
%TO.N,GND*%
G36*
X213303424Y204940304D02*
G01*
X213349434Y204887722D01*
X213360890Y204835666D01*
X213360890Y203944222D01*
X213363639Y203898077D01*
X213363639Y203898073D01*
X213363640Y203898072D01*
X213403169Y203716357D01*
X213398185Y203646665D01*
X213356313Y203590732D01*
X213350895Y203586897D01*
X213263465Y203528478D01*
X210219193Y200484205D01*
X210157870Y200450720D01*
X210088178Y200455704D01*
X210032245Y200497576D01*
X210012436Y200537289D01*
X210000494Y200578395D01*
X209918117Y200717687D01*
X209918115Y200717689D01*
X209918112Y200717693D01*
X209803692Y200832113D01*
X209803684Y200832119D01*
X209664393Y200914495D01*
X209664390Y200914496D01*
X209508997Y200959643D01*
X209508991Y200959644D01*
X209472697Y200962500D01*
X209472690Y200962500D01*
X209063310Y200962500D01*
X209063302Y200962500D01*
X209027008Y200959644D01*
X209027002Y200959643D01*
X208871609Y200914496D01*
X208871606Y200914495D01*
X208732315Y200832119D01*
X208732307Y200832113D01*
X208617887Y200717693D01*
X208617881Y200717685D01*
X208535505Y200578394D01*
X208535504Y200578391D01*
X208490357Y200422998D01*
X208490356Y200422992D01*
X208487500Y200386698D01*
X208487500Y199917301D01*
X208487580Y199915258D01*
X208487500Y199914940D01*
X208487500Y199914875D01*
X208487484Y199914875D01*
X208470534Y199847500D01*
X208451356Y199822725D01*
X208115450Y199486819D01*
X208054127Y199453334D01*
X208027769Y199450500D01*
X207491296Y199450500D01*
X207375857Y199435304D01*
X207375848Y199435301D01*
X207232205Y199375802D01*
X207232202Y199375801D01*
X207232202Y199375800D01*
X207108851Y199281149D01*
X207047548Y199201257D01*
X207014198Y199157795D01*
X206954699Y199014152D01*
X206954698Y199014150D01*
X206939500Y198898702D01*
X206939500Y198362231D01*
X206919815Y198295192D01*
X206903181Y198274550D01*
X205157048Y196528417D01*
X205139214Y196501726D01*
X205121498Y196475210D01*
X205074919Y196405501D01*
X205074912Y196405489D01*
X205018343Y196268918D01*
X205018340Y196268908D01*
X204989500Y196123921D01*
X204989500Y196123918D01*
X204989500Y186108082D01*
X204989500Y186108080D01*
X204989499Y186108080D01*
X205018340Y185963093D01*
X205018343Y185963083D01*
X205074914Y185826508D01*
X205107812Y185777273D01*
X205107813Y185777270D01*
X205157046Y185703586D01*
X205157052Y185703579D01*
X206263927Y184596705D01*
X206290806Y184556479D01*
X206300606Y184532821D01*
X206300607Y184532819D01*
X206388207Y184401716D01*
X206388213Y184401708D01*
X206499707Y184290214D01*
X206499711Y184290211D01*
X206630814Y184202610D01*
X206630827Y184202603D01*
X206776498Y184142265D01*
X206776503Y184142263D01*
X206931153Y184111501D01*
X206931156Y184111500D01*
X206931158Y184111500D01*
X207088843Y184111500D01*
X207108464Y184115403D01*
X207139768Y184121630D01*
X207209359Y184115403D01*
X207264537Y184072541D01*
X207287782Y184006651D01*
X207287960Y184000013D01*
X207287960Y183546117D01*
X207268275Y183479078D01*
X207215471Y183433323D01*
X207146313Y183423379D01*
X207086648Y183449170D01*
X206945670Y183561596D01*
X206945668Y183561597D01*
X206698350Y183716997D01*
X206435198Y183843725D01*
X206159506Y183940193D01*
X206159504Y183940194D01*
X205939740Y183990354D01*
X205874746Y184005188D01*
X205874743Y184005189D01*
X205874731Y184005191D01*
X205584507Y184037890D01*
X205584501Y184037890D01*
X205292419Y184037890D01*
X205292412Y184037890D01*
X205002188Y184005191D01*
X205002174Y184005188D01*
X204717415Y183940194D01*
X204717413Y183940193D01*
X204441721Y183843725D01*
X204178569Y183716997D01*
X203931255Y183561599D01*
X203702895Y183379489D01*
X203496361Y183172955D01*
X203314251Y182944595D01*
X203158853Y182697281D01*
X203032125Y182434129D01*
X202935657Y182158437D01*
X202935656Y182158435D01*
X202870662Y181873676D01*
X202870659Y181873662D01*
X202837960Y181583438D01*
X202837960Y181291343D01*
X202870659Y181001119D01*
X202870661Y181001107D01*
X202870662Y181001104D01*
X202871247Y180998541D01*
X202935656Y180716346D01*
X202935657Y180716344D01*
X203032125Y180440652D01*
X203158853Y180177500D01*
X203158855Y180177497D01*
X203314252Y179930184D01*
X203496362Y179701825D01*
X203702895Y179495292D01*
X203931254Y179313182D01*
X204174141Y179160566D01*
X204178569Y179157784D01*
X204271962Y179112808D01*
X204441723Y179031055D01*
X204717415Y178934587D01*
X205002174Y178869592D01*
X205002183Y178869591D01*
X205002188Y178869590D01*
X205161417Y178851650D01*
X205292413Y178836891D01*
X205292416Y178836890D01*
X205292419Y178836890D01*
X205584504Y178836890D01*
X205584505Y178836891D01*
X205715503Y178851650D01*
X205822499Y178863705D01*
X205891321Y178851650D01*
X205942700Y178804301D01*
X205960324Y178736691D01*
X205938597Y178670285D01*
X205924063Y178652804D01*
X203847286Y176576026D01*
X203735481Y176464222D01*
X203735480Y176464220D01*
X203695373Y176394751D01*
X203685361Y176377410D01*
X203685359Y176377408D01*
X203656425Y176327295D01*
X203656424Y176327294D01*
X203649185Y176300278D01*
X203615499Y176174561D01*
X203615499Y176174559D01*
X203615499Y176006458D01*
X203615500Y176006445D01*
X203615500Y170063096D01*
X203615499Y170063078D01*
X203615499Y169897372D01*
X203615498Y169897372D01*
X203615499Y169897369D01*
X203643481Y169792939D01*
X203650425Y169767027D01*
X203648762Y169697177D01*
X203618331Y169647252D01*
X203520886Y169549808D01*
X203520883Y169549804D01*
X203433282Y169418701D01*
X203433275Y169418688D01*
X203372937Y169273017D01*
X203372934Y169273005D01*
X203342173Y169118362D01*
X203342173Y168960669D01*
X203372934Y168806026D01*
X203372937Y168806014D01*
X203433275Y168660343D01*
X203433282Y168660330D01*
X203521275Y168528641D01*
X203542153Y168461964D01*
X203542173Y168459750D01*
X203542173Y166390225D01*
X203522488Y166323186D01*
X203505854Y166302544D01*
X203321674Y166118364D01*
X203260351Y166084879D01*
X203215485Y166085947D01*
X203215203Y166083804D01*
X203207145Y166084865D01*
X203125418Y166095625D01*
X203052995Y166105159D01*
X203052993Y166105159D01*
X202898844Y166084866D01*
X202898842Y166084865D01*
X202755198Y166025366D01*
X202755195Y166025364D01*
X202662814Y165954478D01*
X202662807Y165954472D01*
X201674710Y164966374D01*
X201674702Y164966365D01*
X201603813Y164873983D01*
X201603811Y164873979D01*
X201544312Y164730335D01*
X201544311Y164730333D01*
X201524018Y164576185D01*
X201524018Y164576182D01*
X201544311Y164422034D01*
X201544312Y164422032D01*
X201603811Y164278388D01*
X201603813Y164278385D01*
X201674699Y164186004D01*
X201674705Y164185997D01*
X202238539Y163622164D01*
X202238545Y163622159D01*
X202238549Y163622155D01*
X202238552Y163622153D01*
X202330930Y163551267D01*
X202330932Y163551266D01*
X202474579Y163491765D01*
X202551654Y163481618D01*
X202628729Y163471471D01*
X202628730Y163471471D01*
X202628731Y163471471D01*
X202680113Y163478236D01*
X202782881Y163491765D01*
X202926528Y163551266D01*
X203018911Y163622154D01*
X204007022Y164610266D01*
X204077911Y164702649D01*
X204137412Y164846296D01*
X204157706Y165000447D01*
X204137412Y165154598D01*
X204137411Y165154599D01*
X204136351Y165162656D01*
X204139144Y165163024D01*
X204140473Y165219185D01*
X204170908Y165269127D01*
X204623193Y165721410D01*
X204702250Y165858342D01*
X204740951Y166002775D01*
X204777316Y166062432D01*
X204840163Y166092961D01*
X204909538Y166084666D01*
X204948406Y166058359D01*
X210589139Y160417626D01*
X210589149Y160417615D01*
X210593479Y160413285D01*
X210593480Y160413284D01*
X210705284Y160301480D01*
X210776791Y160260196D01*
X210842215Y160222423D01*
X210994943Y160181499D01*
X210994946Y160181499D01*
X211160653Y160181499D01*
X211160669Y160181500D01*
X212053239Y160181500D01*
X212115238Y160164888D01*
X212194095Y160119361D01*
X212194097Y160119359D01*
X212244213Y160090424D01*
X212244215Y160090423D01*
X212396942Y160049500D01*
X212396943Y160049500D01*
X221885931Y160049500D01*
X221885947Y160049499D01*
X221893543Y160049499D01*
X222051654Y160049499D01*
X222051657Y160049499D01*
X222204385Y160090423D01*
X222254504Y160119361D01*
X222341316Y160169480D01*
X222453120Y160281284D01*
X222453120Y160281286D01*
X222463328Y160291493D01*
X222463330Y160291496D01*
X222585391Y160413558D01*
X222646712Y160447041D01*
X222679888Y160448952D01*
X222679923Y160449649D01*
X222682954Y160449500D01*
X222682960Y160449500D01*
X223562237Y160449500D01*
X223562240Y160449500D01*
X223710693Y160464121D01*
X223901173Y160521903D01*
X224076720Y160615735D01*
X224230588Y160742012D01*
X224356865Y160895880D01*
X224450697Y161071427D01*
X224508479Y161261907D01*
X224523100Y161410360D01*
X224523100Y162189640D01*
X224508479Y162338093D01*
X224450697Y162528573D01*
X224391117Y162640039D01*
X224356868Y162704115D01*
X224356864Y162704122D01*
X224230588Y162857989D01*
X224076721Y162984265D01*
X224076714Y162984269D01*
X223901174Y163078097D01*
X223710695Y163135879D01*
X223651311Y163141728D01*
X223562240Y163150500D01*
X222682960Y163150500D01*
X222608733Y163143190D01*
X222534504Y163135879D01*
X222344025Y163078097D01*
X222168485Y162984269D01*
X222168478Y162984265D01*
X222014611Y162857989D01*
X221888335Y162704122D01*
X221888331Y162704115D01*
X221794503Y162528575D01*
X221736721Y162338096D01*
X221722100Y162189637D01*
X221722100Y161410363D01*
X221724435Y161386653D01*
X221711416Y161318007D01*
X221663351Y161267297D01*
X221601032Y161250500D01*
X218019168Y161250500D01*
X217952129Y161270185D01*
X217906374Y161322989D01*
X217895765Y161386653D01*
X217898100Y161410363D01*
X217898100Y162189637D01*
X217887362Y162298666D01*
X217883479Y162338093D01*
X217825697Y162528573D01*
X217766117Y162640039D01*
X217731868Y162704115D01*
X217731864Y162704122D01*
X217605588Y162857989D01*
X217451721Y162984265D01*
X217451714Y162984269D01*
X217276174Y163078097D01*
X217085695Y163135879D01*
X217026311Y163141728D01*
X216937240Y163150500D01*
X216057960Y163150500D01*
X215983733Y163143190D01*
X215909504Y163135879D01*
X215719023Y163078097D01*
X215713395Y163075765D01*
X215712591Y163077705D01*
X215653512Y163065423D01*
X215588276Y163090443D01*
X215546922Y163146760D01*
X215539499Y163189020D01*
X215539499Y163568002D01*
X215539498Y163568019D01*
X215528999Y163670797D01*
X215528998Y163670800D01*
X215504514Y163744688D01*
X215473814Y163837334D01*
X215405681Y163947796D01*
X215387242Y164015186D01*
X215408165Y164081849D01*
X215461807Y164126619D01*
X215511221Y164136890D01*
X230301000Y164136890D01*
X230368039Y164117205D01*
X230413794Y164064401D01*
X230425000Y164012890D01*
X230425000Y160450000D01*
X230428422Y160397791D01*
X230455448Y160296928D01*
X230455449Y160296925D01*
X230472661Y160267114D01*
X230507659Y160206495D01*
X230581495Y160132659D01*
X230671927Y160080448D01*
X230772790Y160053422D01*
X230825000Y160050000D01*
X235186090Y160050000D01*
X235253129Y160030315D01*
X235298884Y159977511D01*
X235308828Y159908353D01*
X235279803Y159844797D01*
X235221025Y159807023D01*
X235215914Y159805640D01*
X234355721Y159592490D01*
X234353002Y159591849D01*
X233267569Y159348701D01*
X233264837Y159348121D01*
X232226740Y159140016D01*
X232202967Y159137598D01*
X229339423Y159123753D01*
X229272289Y159143114D01*
X229231436Y159185752D01*
X229228219Y159191324D01*
X229173146Y159269970D01*
X229173141Y159269976D01*
X229173139Y159269979D01*
X229111444Y159343500D01*
X229111436Y159343509D01*
X229111429Y159343517D01*
X229043536Y159411405D01*
X229043532Y159411409D01*
X229043526Y159411414D01*
X228969991Y159473112D01*
X228969990Y159473113D01*
X228969985Y159473117D01*
X228891335Y159528185D01*
X228847825Y159553304D01*
X228808185Y159576189D01*
X228808179Y159576192D01*
X228762379Y159597546D01*
X228721168Y159616761D01*
X228721161Y159616764D01*
X228721158Y159616765D01*
X228721153Y159616767D01*
X228630947Y159649596D01*
X228630934Y159649600D01*
X228538206Y159674443D01*
X228502409Y159680754D01*
X228443652Y159691113D01*
X228443646Y159691114D01*
X228443622Y159691117D01*
X228348018Y159699478D01*
X228334290Y159699628D01*
X228300000Y159700000D01*
X222700000Y159700000D01*
X222699985Y159700000D01*
X222652009Y159699461D01*
X222651997Y159699461D01*
X222651997Y159699460D01*
X222630739Y159697600D01*
X222556353Y159691091D01*
X222461812Y159674418D01*
X222461801Y159674416D01*
X222369092Y159649573D01*
X222369075Y159649569D01*
X222369072Y159649567D01*
X222369069Y159649567D01*
X222369053Y159649561D01*
X222278864Y159616734D01*
X222278859Y159616732D01*
X222191836Y159576152D01*
X222191827Y159576147D01*
X222108709Y159528158D01*
X222108697Y159528150D01*
X222030055Y159473085D01*
X221956523Y159411384D01*
X221956501Y159411364D01*
X221888642Y159343507D01*
X221888618Y159343481D01*
X221826910Y159269942D01*
X221771847Y159191305D01*
X221771837Y159191290D01*
X221747144Y159148522D01*
X221696576Y159100308D01*
X221640359Y159086526D01*
X214246189Y159050772D01*
X214223664Y159052725D01*
X214215548Y159054183D01*
X214208295Y159055711D01*
X214162400Y159066823D01*
X214160114Y159067068D01*
X214136736Y159068990D01*
X212594238Y159362854D01*
X212591888Y159363325D01*
X210995894Y159699473D01*
X210993553Y159699990D01*
X209404380Y160066919D01*
X209402050Y160067481D01*
X207820316Y160465045D01*
X207817997Y160465651D01*
X206244120Y160893749D01*
X206241814Y160894401D01*
X204676616Y161352808D01*
X204674322Y161353504D01*
X203118249Y161842087D01*
X203115969Y161842827D01*
X201652016Y162333767D01*
X201623429Y162343354D01*
X201600857Y162353531D01*
X201597946Y162355212D01*
X201597945Y162355213D01*
X201597944Y162355213D01*
X201586042Y162358402D01*
X201566115Y162365617D01*
X201554929Y162370787D01*
X201554930Y162370787D01*
X201553326Y162371064D01*
X201551956Y162371301D01*
X201527015Y162378363D01*
X201310006Y162465203D01*
X201265955Y162482831D01*
X201255263Y162487710D01*
X200970805Y162634170D01*
X200960621Y162640039D01*
X200860709Y162704122D01*
X200691303Y162812779D01*
X200681730Y162819580D01*
X200429977Y163017044D01*
X200421084Y163024728D01*
X200189162Y163245135D01*
X200181035Y163253627D01*
X199971023Y163495005D01*
X199963736Y163504228D01*
X199930071Y163551265D01*
X199777517Y163764414D01*
X199771151Y163774264D01*
X199610393Y164050929D01*
X199604988Y164061338D01*
X199471148Y164351982D01*
X199466754Y164362855D01*
X199361040Y164664848D01*
X199357693Y164676088D01*
X199281040Y164986765D01*
X199278776Y164998262D01*
X199231885Y165314784D01*
X199230719Y165326440D01*
X199213853Y165648945D01*
X199213686Y165654757D01*
X199213383Y165717744D01*
X199213382Y165717745D01*
X199213264Y165742250D01*
X199213263Y165742254D01*
X199212237Y165954478D01*
X199205006Y167449768D01*
X199224367Y167516898D01*
X199267002Y167557749D01*
X199291331Y167571794D01*
X199369978Y167626863D01*
X199443527Y167688578D01*
X199511417Y167756469D01*
X199573131Y167830018D01*
X199628200Y167908667D01*
X199676204Y167991816D01*
X199716778Y168078833D01*
X199749613Y168169055D01*
X199774460Y168261795D01*
X199791129Y168356348D01*
X199799493Y168451994D01*
X199800000Y168500000D01*
X199800000Y174100000D01*
X199799550Y174148006D01*
X199791178Y174243651D01*
X199774502Y174338204D01*
X199749649Y174430943D01*
X199716807Y174521163D01*
X199676228Y174608177D01*
X199628219Y174691324D01*
X199573146Y174769970D01*
X199573141Y174769976D01*
X199573139Y174769979D01*
X199511444Y174843500D01*
X199511436Y174843509D01*
X199511429Y174843517D01*
X199443536Y174911405D01*
X199443532Y174911409D01*
X199443526Y174911414D01*
X199369991Y174973112D01*
X199369990Y174973113D01*
X199369985Y174973117D01*
X199291335Y175028185D01*
X199229677Y175063781D01*
X199181460Y175114347D01*
X199167675Y175170570D01*
X199088383Y191569571D01*
X199107744Y191636703D01*
X199141259Y191671744D01*
X199141327Y191671793D01*
X199141331Y191671794D01*
X199219978Y191726863D01*
X199293527Y191788578D01*
X199361417Y191856469D01*
X199423131Y191930018D01*
X199478200Y192008667D01*
X199526204Y192091816D01*
X199566778Y192178833D01*
X199570712Y192189641D01*
X199599606Y192269036D01*
X199599613Y192269055D01*
X199624460Y192361795D01*
X199641129Y192456348D01*
X199649493Y192551994D01*
X199650000Y192600000D01*
X199650000Y198200000D01*
X199649550Y198248006D01*
X199641178Y198343651D01*
X199624502Y198438204D01*
X199599649Y198530943D01*
X199566807Y198621163D01*
X199526228Y198708177D01*
X199478219Y198791324D01*
X199423146Y198869970D01*
X199423141Y198869976D01*
X199423139Y198869979D01*
X199361444Y198943500D01*
X199361436Y198943509D01*
X199361429Y198943517D01*
X199293536Y199011405D01*
X199293532Y199011409D01*
X199293526Y199011414D01*
X199219991Y199073112D01*
X199219990Y199073113D01*
X199219985Y199073117D01*
X199141335Y199128185D01*
X199113243Y199144403D01*
X199065027Y199194968D01*
X199051242Y199251192D01*
X199051220Y199255670D01*
X199050576Y199388997D01*
X199050658Y199394107D01*
X199050663Y199394240D01*
X199066965Y199840637D01*
X199067759Y199850814D01*
X199120584Y200291966D01*
X199122219Y200302063D01*
X199211291Y200737333D01*
X199213758Y200747280D01*
X199338469Y201173705D01*
X199341747Y201183405D01*
X199347570Y201198544D01*
X199501250Y201598086D01*
X199505307Y201607457D01*
X199698513Y202007557D01*
X199703326Y202016554D01*
X199928922Y202399351D01*
X199934456Y202407912D01*
X200190885Y202770759D01*
X200197121Y202778853D01*
X200482643Y203119293D01*
X200489527Y203126843D01*
X200802168Y203442521D01*
X200809646Y203449473D01*
X201147305Y203738272D01*
X201155338Y203744587D01*
X201515689Y204004512D01*
X201524211Y204010139D01*
X201904798Y204239420D01*
X201913747Y204244319D01*
X202311976Y204441393D01*
X202321303Y204445538D01*
X202734429Y204609045D01*
X202744088Y204612412D01*
X203169293Y204741243D01*
X203179193Y204743802D01*
X203613592Y204837080D01*
X203623658Y204838811D01*
X204064281Y204895900D01*
X204074469Y204896794D01*
X204520862Y204917419D01*
X204525924Y204917549D01*
X204568628Y204917755D01*
X204589300Y204917854D01*
X204589300Y204917855D01*
X204640470Y204918100D01*
X204640482Y204918103D01*
X205236292Y204920983D01*
X205303424Y204901622D01*
X205349434Y204849040D01*
X205360890Y204796984D01*
X205360890Y204077173D01*
X205341205Y204010134D01*
X205324571Y203989492D01*
X204393981Y203058903D01*
X204393979Y203058900D01*
X204358387Y202997251D01*
X204358386Y202997249D01*
X204314923Y202921971D01*
X204306387Y202890113D01*
X204273999Y202769242D01*
X204273999Y202769240D01*
X204273999Y202601139D01*
X204274000Y202601126D01*
X204274000Y202106509D01*
X204254315Y202039470D01*
X204215098Y202000971D01*
X204143344Y201956713D01*
X204143343Y201956712D01*
X204049681Y201863049D01*
X203988358Y201829564D01*
X203918666Y201834548D01*
X203874319Y201863049D01*
X203780657Y201956711D01*
X203780656Y201956712D01*
X203631334Y202048814D01*
X203464797Y202103999D01*
X203464795Y202104000D01*
X203362010Y202114500D01*
X202736998Y202114500D01*
X202736980Y202114499D01*
X202634203Y202104000D01*
X202634200Y202103999D01*
X202467668Y202048815D01*
X202467663Y202048813D01*
X202318342Y201956711D01*
X202194289Y201832658D01*
X202102187Y201683337D01*
X202102185Y201683332D01*
X202077048Y201607474D01*
X202047001Y201516797D01*
X202047001Y201516796D01*
X202047000Y201516796D01*
X202036500Y201414017D01*
X202036500Y200413999D01*
X202036501Y200413981D01*
X202047000Y200311204D01*
X202047001Y200311201D01*
X202102185Y200144669D01*
X202102187Y200144664D01*
X202108144Y200135006D01*
X202194288Y199995344D01*
X202318344Y199871288D01*
X202390096Y199827032D01*
X202436821Y199775085D01*
X202449000Y199721493D01*
X202449000Y199507034D01*
X202429315Y199439995D01*
X202376511Y199394240D01*
X202372453Y199392473D01*
X202332205Y199375802D01*
X202332202Y199375801D01*
X202332202Y199375800D01*
X202208851Y199281149D01*
X202147548Y199201257D01*
X202114198Y199157795D01*
X202054699Y199014152D01*
X202054698Y199014150D01*
X202039500Y198898702D01*
X202039500Y198101297D01*
X202054696Y197985858D01*
X202054699Y197985849D01*
X202114200Y197842202D01*
X202208851Y197718851D01*
X202332202Y197624200D01*
X202475849Y197564699D01*
X202591299Y197549500D01*
X203988700Y197549501D01*
X203988703Y197549501D01*
X204104142Y197564697D01*
X204104146Y197564699D01*
X204104151Y197564699D01*
X204247798Y197624200D01*
X204371149Y197718851D01*
X204465800Y197842202D01*
X204525301Y197985849D01*
X204540500Y198101299D01*
X204540499Y198898700D01*
X204540499Y198898702D01*
X204540499Y198898704D01*
X204525303Y199014143D01*
X204525301Y199014150D01*
X204525301Y199014151D01*
X204465800Y199157798D01*
X204371149Y199281149D01*
X204247798Y199375800D01*
X204247794Y199375802D01*
X204104151Y199435301D01*
X204104149Y199435302D01*
X203988702Y199450500D01*
X203988701Y199450500D01*
X203774000Y199450500D01*
X203706961Y199470185D01*
X203661206Y199522989D01*
X203650000Y199574500D01*
X203650000Y199721493D01*
X203669685Y199788532D01*
X203708903Y199827032D01*
X203780656Y199871288D01*
X203874319Y199964951D01*
X203935642Y199998436D01*
X204005334Y199993452D01*
X204049681Y199964951D01*
X204143344Y199871288D01*
X204292666Y199779186D01*
X204459203Y199724001D01*
X204561991Y199713500D01*
X205187008Y199713501D01*
X205187016Y199713502D01*
X205187019Y199713502D01*
X205265245Y199721493D01*
X205289797Y199724001D01*
X205456334Y199779186D01*
X205605656Y199871288D01*
X205729712Y199995344D01*
X205821814Y200144666D01*
X205876999Y200311203D01*
X205887500Y200413991D01*
X205887499Y201414008D01*
X205885222Y201436294D01*
X205876999Y201516797D01*
X205876998Y201516800D01*
X205859675Y201569076D01*
X205821814Y201683334D01*
X205729712Y201832656D01*
X205605656Y201956712D01*
X205605655Y201956713D01*
X205533902Y202000971D01*
X205487178Y202052919D01*
X205475000Y202106509D01*
X205475000Y202390089D01*
X205494685Y202457128D01*
X205511315Y202477766D01*
X205996612Y202963064D01*
X206057933Y202996547D01*
X206110649Y202996547D01*
X206197318Y202977694D01*
X206308127Y202953589D01*
X206354272Y202950840D01*
X206354283Y202950840D01*
X207668497Y202950840D01*
X207668508Y202950840D01*
X207714653Y202953589D01*
X207912128Y202996547D01*
X207915351Y202997248D01*
X207915358Y202997250D01*
X207983198Y203026301D01*
X208104167Y203078103D01*
X208274265Y203193228D01*
X208419502Y203338465D01*
X208534627Y203508563D01*
X208615481Y203697375D01*
X208659141Y203898077D01*
X208661890Y203944222D01*
X208661890Y204814144D01*
X208681575Y204881183D01*
X208734379Y204926938D01*
X208785288Y204938143D01*
X213236291Y204959665D01*
X213303424Y204940304D01*
G37*
%TD.AperFunction*%
%TA.AperFunction,Conductor*%
G36*
X209616757Y165299500D02*
G01*
X209637399Y165282866D01*
X211652181Y163268083D01*
X211685666Y163206760D01*
X211688500Y163180402D01*
X211688500Y162567999D01*
X211688501Y162567981D01*
X211699000Y162465204D01*
X211699001Y162465201D01*
X211733479Y162361154D01*
X211754186Y162298666D01*
X211810358Y162207596D01*
X211828798Y162140204D01*
X211807875Y162073541D01*
X211754233Y162028771D01*
X211704819Y162018500D01*
X211303783Y162018500D01*
X211236744Y162038185D01*
X211216102Y162054819D01*
X208747539Y164523382D01*
X208714054Y164584705D01*
X208719038Y164654397D01*
X208759734Y164709439D01*
X208817187Y164753524D01*
X209346528Y165282867D01*
X209407851Y165316351D01*
X209434209Y165319185D01*
X209549718Y165319185D01*
X209616757Y165299500D01*
G37*
%TD.AperFunction*%
%TA.AperFunction,Conductor*%
G36*
X212225602Y189291977D02*
G01*
X212401347Y189116233D01*
X212729581Y188787999D01*
X212763066Y188726676D01*
X212765900Y188700318D01*
X212765900Y184435059D01*
X212765900Y184435057D01*
X212765899Y184435057D01*
X212804347Y184241771D01*
X212804350Y184241761D01*
X212879764Y184059693D01*
X212879771Y184059680D01*
X212989260Y183895819D01*
X212989263Y183895815D01*
X213132937Y183752141D01*
X213132959Y183752121D01*
X215919735Y180965345D01*
X215919764Y180965314D01*
X216062214Y180822864D01*
X216062218Y180822861D01*
X216129967Y180777592D01*
X216174772Y180723980D01*
X216183479Y180654655D01*
X216153324Y180591627D01*
X216093881Y180554908D01*
X216061076Y180550490D01*
X216057960Y180550490D01*
X215983733Y180543180D01*
X215909504Y180535869D01*
X215719025Y180478087D01*
X215543485Y180384259D01*
X215543478Y180384255D01*
X215389611Y180257979D01*
X215263335Y180104112D01*
X215263331Y180104105D01*
X215169503Y179928565D01*
X215111721Y179738086D01*
X215111721Y179738083D01*
X215097974Y179598499D01*
X215097100Y179589627D01*
X215097100Y178810354D01*
X215111721Y178661895D01*
X215169503Y178471416D01*
X215263331Y178295876D01*
X215263335Y178295869D01*
X215389611Y178142002D01*
X215543478Y178015726D01*
X215543485Y178015722D01*
X215598167Y177986494D01*
X215719027Y177921893D01*
X215909507Y177864111D01*
X216057960Y177849490D01*
X216381818Y177849490D01*
X216448857Y177829805D01*
X216469499Y177813171D01*
X216563181Y177719489D01*
X216596666Y177658166D01*
X216599500Y177631808D01*
X216599500Y177298541D01*
X216599500Y177101459D01*
X216599500Y177101457D01*
X216599499Y177101457D01*
X216637947Y176908171D01*
X216637950Y176908161D01*
X216713364Y176726093D01*
X216713371Y176726080D01*
X216822860Y176562219D01*
X216822863Y176562215D01*
X216835507Y176549571D01*
X216868992Y176488248D01*
X216864008Y176418556D01*
X216822136Y176362623D01*
X216756672Y176338206D01*
X216747826Y176337890D01*
X214289475Y176337890D01*
X213811589Y176300279D01*
X213811570Y176300277D01*
X213338105Y176225288D01*
X212871981Y176113381D01*
X212871975Y176113380D01*
X212871970Y176113378D01*
X212871958Y176113374D01*
X212416059Y175965245D01*
X211973168Y175781793D01*
X211546022Y175564152D01*
X211546017Y175564149D01*
X211137308Y175313691D01*
X211137297Y175313683D01*
X210749480Y175031918D01*
X210749466Y175031907D01*
X210384957Y174720587D01*
X210384943Y174720574D01*
X210045986Y174381617D01*
X210045973Y174381603D01*
X209734653Y174017094D01*
X209734642Y174017080D01*
X209452877Y173629263D01*
X209452869Y173629252D01*
X209202411Y173220543D01*
X209202408Y173220538D01*
X208984767Y172793392D01*
X208801315Y172350501D01*
X208653186Y171894602D01*
X208653179Y171894579D01*
X208541272Y171428455D01*
X208466283Y170954990D01*
X208466281Y170954971D01*
X208428670Y170477085D01*
X208428670Y169997696D01*
X208466281Y169519810D01*
X208466283Y169519791D01*
X208541272Y169046326D01*
X208633942Y168660330D01*
X208653182Y168580190D01*
X208679237Y168500000D01*
X208801315Y168124280D01*
X208856184Y167991816D01*
X208984768Y167681386D01*
X209130332Y167395700D01*
X209143228Y167327031D01*
X209116952Y167262291D01*
X209059845Y167222034D01*
X209003662Y167216467D01*
X208851271Y167236529D01*
X208851269Y167236529D01*
X208697120Y167216236D01*
X208697118Y167216235D01*
X208553474Y167156736D01*
X208553471Y167156734D01*
X208461090Y167085848D01*
X208461083Y167085842D01*
X207472986Y166097744D01*
X207472984Y166097742D01*
X207472978Y166097734D01*
X207444119Y166060124D01*
X207428891Y166040279D01*
X207372463Y165999077D01*
X207302716Y165994923D01*
X207242835Y166028086D01*
X206414086Y166856835D01*
X206380601Y166918158D01*
X206385585Y166987850D01*
X206426281Y167042892D01*
X206483734Y167086977D01*
X207471845Y168075089D01*
X207542734Y168167472D01*
X207602235Y168311119D01*
X207622529Y168465270D01*
X207618844Y168493258D01*
X207602235Y168619420D01*
X207602235Y168619421D01*
X207542734Y168763068D01*
X207471846Y168855451D01*
X207471841Y168855457D01*
X207092504Y169234794D01*
X207059019Y169296117D01*
X207056185Y169322475D01*
X207056185Y169346592D01*
X207027344Y169491579D01*
X207027343Y169491580D01*
X207027343Y169491584D01*
X207015656Y169519800D01*
X206970772Y169628160D01*
X206970765Y169628173D01*
X206888637Y169751086D01*
X206846784Y169792939D01*
X206784101Y169855622D01*
X206584236Y170055487D01*
X206370023Y170269701D01*
X206349043Y170297643D01*
X206310676Y170367434D01*
X206287026Y170395124D01*
X206287011Y170395140D01*
X206222872Y170459279D01*
X206189387Y170520602D01*
X206186553Y170546960D01*
X206186553Y175609825D01*
X206206238Y175676864D01*
X206222867Y175697501D01*
X209611295Y179085930D01*
X209651519Y179112807D01*
X209675179Y179122606D01*
X209806289Y179210211D01*
X209917789Y179321711D01*
X210005394Y179452821D01*
X210065737Y179598503D01*
X210096500Y179753158D01*
X210096500Y179910842D01*
X210096500Y179910845D01*
X210096499Y179910847D01*
X210065738Y180065490D01*
X210065737Y180065497D01*
X210030662Y180150177D01*
X210005397Y180211173D01*
X210005390Y180211186D01*
X209917789Y180342289D01*
X209917786Y180342293D01*
X209806292Y180453787D01*
X209806288Y180453790D01*
X209675185Y180541391D01*
X209675172Y180541398D01*
X209529501Y180601736D01*
X209529489Y180601739D01*
X209374845Y180632500D01*
X209374842Y180632500D01*
X209370500Y180632500D01*
X209303461Y180652185D01*
X209257706Y180704989D01*
X209246500Y180756500D01*
X209246500Y187813403D01*
X209266185Y187880442D01*
X209282819Y187901084D01*
X209596362Y188214627D01*
X209974994Y188593260D01*
X210036315Y188626743D01*
X210101675Y188623284D01*
X210217203Y188585001D01*
X210319991Y188574500D01*
X211320008Y188574501D01*
X211320016Y188574502D01*
X211320019Y188574502D01*
X211376302Y188580252D01*
X211422797Y188585001D01*
X211589334Y188640186D01*
X211738656Y188732288D01*
X211862712Y188856344D01*
X211954814Y189005666D01*
X212009999Y189172203D01*
X212014565Y189216898D01*
X212040961Y189281589D01*
X212098142Y189321741D01*
X212167953Y189324604D01*
X212225602Y189291977D01*
G37*
%TD.AperFunction*%
%TA.AperFunction,Conductor*%
G36*
X248839809Y204572661D02*
G01*
X249047850Y204472199D01*
X249056849Y204467386D01*
X249439661Y204241782D01*
X249448226Y204236244D01*
X249771900Y204007500D01*
X249811050Y203979832D01*
X249819168Y203973577D01*
X250159583Y203688076D01*
X250167156Y203681171D01*
X250482811Y203368555D01*
X250489789Y203361049D01*
X250778571Y203023411D01*
X250784904Y203015354D01*
X251044805Y202655039D01*
X251050452Y202646486D01*
X251279707Y202265945D01*
X251284629Y202256956D01*
X251481688Y201858762D01*
X251485850Y201849397D01*
X251551575Y201683337D01*
X251617488Y201516800D01*
X251649352Y201436294D01*
X251652726Y201426616D01*
X251781551Y201001435D01*
X251784115Y200991513D01*
X251877390Y200557143D01*
X251879126Y200547043D01*
X251936214Y200106450D01*
X251937110Y200096240D01*
X251957736Y199649890D01*
X251957867Y199644765D01*
X251959733Y199258675D01*
X251940372Y199191541D01*
X251897737Y199150690D01*
X251858694Y199128148D01*
X251780055Y199073085D01*
X251706523Y199011384D01*
X251706501Y199011364D01*
X251638642Y198943507D01*
X251638618Y198943481D01*
X251576910Y198869942D01*
X251521847Y198791306D01*
X251473834Y198708149D01*
X251473832Y198708145D01*
X251433266Y198621156D01*
X251400418Y198530916D01*
X251375574Y198438207D01*
X251375569Y198438182D01*
X251358897Y198343651D01*
X251358896Y198343645D01*
X251350525Y198248003D01*
X251350006Y198200500D01*
X251350000Y198199964D01*
X251350000Y192600007D01*
X251350580Y192552012D01*
X251350580Y192552002D01*
X251350581Y192551997D01*
X251351824Y192537782D01*
X251358945Y192456351D01*
X251375612Y192361811D01*
X251375615Y192361799D01*
X251400453Y192269085D01*
X251400457Y192269073D01*
X251400458Y192269070D01*
X251429364Y192189639D01*
X251433294Y192178842D01*
X251433295Y192178840D01*
X251473856Y192091848D01*
X251473857Y192091847D01*
X251473861Y192091839D01*
X251521861Y192008693D01*
X251576926Y191930047D01*
X251625444Y191872221D01*
X251638638Y191856497D01*
X251706513Y191788617D01*
X251706519Y191788612D01*
X251706520Y191788611D01*
X251780063Y191726896D01*
X251858705Y191671827D01*
X251926613Y191632617D01*
X251974827Y191582050D01*
X251988532Y191520843D01*
X251980612Y191297270D01*
X251979859Y191287325D01*
X251929872Y190857833D01*
X251928321Y190847980D01*
X251843981Y190423915D01*
X251841644Y190414219D01*
X251723492Y189998293D01*
X251720383Y189988816D01*
X251569186Y189583732D01*
X251565325Y189574535D01*
X251382056Y189182909D01*
X251377468Y189174053D01*
X251163328Y188798439D01*
X251158044Y188789980D01*
X250914400Y188432781D01*
X250908453Y188424774D01*
X250636887Y188088307D01*
X250630315Y188080804D01*
X250332603Y187767272D01*
X250325450Y187760321D01*
X250003474Y187471704D01*
X249995786Y187465351D01*
X249651674Y187203559D01*
X249643499Y187197844D01*
X249279466Y186964560D01*
X249270859Y186959521D01*
X248889235Y186756238D01*
X248880251Y186751906D01*
X248483529Y186579954D01*
X248474225Y186576359D01*
X248064979Y186436853D01*
X248055417Y186434017D01*
X247636270Y186327850D01*
X247626511Y186325792D01*
X247199278Y186253501D01*
X247196273Y186253030D01*
X247192289Y186252456D01*
X247190361Y186252194D01*
X247124878Y186243807D01*
X247124839Y186243800D01*
X246908309Y186216089D01*
X246893147Y186214148D01*
X246553127Y186150385D01*
X246294389Y186101865D01*
X245703175Y185955070D01*
X245703145Y185955062D01*
X245121448Y185774248D01*
X245121439Y185774245D01*
X244551146Y185559995D01*
X243994269Y185313065D01*
X243452618Y185034258D01*
X243452593Y185034244D01*
X242928045Y184724525D01*
X242928021Y184724510D01*
X242422332Y184384922D01*
X242422305Y184384903D01*
X241937120Y184016550D01*
X241474094Y183620686D01*
X241474061Y183620656D01*
X241034795Y183198650D01*
X241034764Y183198619D01*
X240620681Y182751840D01*
X240233170Y182281783D01*
X240233157Y182281765D01*
X239873566Y181790067D01*
X239543066Y181278323D01*
X239543050Y181278297D01*
X239242792Y180748299D01*
X239242778Y180748274D01*
X238973731Y180201725D01*
X238973719Y180201699D01*
X238736822Y179640515D01*
X238736808Y179640480D01*
X238532827Y179066472D01*
X238362456Y178481587D01*
X238226280Y177887834D01*
X238226276Y177887814D01*
X238187855Y177660391D01*
X238187790Y177660114D01*
X238177847Y177601311D01*
X238176796Y177595844D01*
X238171110Y177569479D01*
X238170412Y177566430D01*
X238128065Y177391596D01*
X238122798Y177375026D01*
X238051636Y177195801D01*
X238044103Y177180132D01*
X237948578Y177012632D01*
X237938926Y176998169D01*
X237820912Y176845679D01*
X237809334Y176832709D01*
X237671142Y176698214D01*
X237657862Y176686991D01*
X237502226Y176573154D01*
X237487508Y176563899D01*
X237317479Y176472950D01*
X237301611Y176465844D01*
X237120525Y176399567D01*
X237103818Y176394751D01*
X236915257Y176354459D01*
X236898042Y176352026D01*
X236714362Y176339112D01*
X236701327Y176338195D01*
X236692632Y176337890D01*
X228352173Y176337890D01*
X228285134Y176357575D01*
X228239379Y176410379D01*
X228229435Y176479537D01*
X228258460Y176543093D01*
X228264492Y176549571D01*
X228277139Y176562218D01*
X228277139Y176562219D01*
X228287343Y176572423D01*
X228287346Y176572428D01*
X232577139Y180862218D01*
X232643957Y180962219D01*
X232686632Y181026086D01*
X232752593Y181185331D01*
X232762051Y181208164D01*
X232800500Y181401459D01*
X232800500Y181583438D01*
X233737960Y181583438D01*
X233737960Y181291343D01*
X233770659Y181001119D01*
X233770661Y181001107D01*
X233770662Y181001104D01*
X233771247Y180998541D01*
X233835656Y180716346D01*
X233835657Y180716344D01*
X233932125Y180440652D01*
X234058853Y180177500D01*
X234058855Y180177497D01*
X234214252Y179930184D01*
X234396362Y179701825D01*
X234602895Y179495292D01*
X234831254Y179313182D01*
X235074141Y179160566D01*
X235078569Y179157784D01*
X235171962Y179112808D01*
X235341723Y179031055D01*
X235617415Y178934587D01*
X235902174Y178869592D01*
X235902183Y178869591D01*
X235902188Y178869590D01*
X236061417Y178851650D01*
X236192413Y178836891D01*
X236192416Y178836890D01*
X236192419Y178836890D01*
X236484504Y178836890D01*
X236484505Y178836891D01*
X236632831Y178853603D01*
X236774731Y178869590D01*
X236774734Y178869591D01*
X236774746Y178869592D01*
X237059505Y178934587D01*
X237335197Y179031055D01*
X237598353Y179157785D01*
X237845666Y179313182D01*
X238074025Y179495292D01*
X238280558Y179701825D01*
X238462668Y179930184D01*
X238618065Y180177497D01*
X238744795Y180440653D01*
X238841263Y180716345D01*
X238906258Y181001104D01*
X238909074Y181026091D01*
X238929587Y181208161D01*
X238938960Y181291349D01*
X238938960Y181583431D01*
X238916066Y181786629D01*
X238906260Y181873662D01*
X238906259Y181873667D01*
X238906258Y181873676D01*
X238841263Y182158435D01*
X238744795Y182434127D01*
X238618065Y182697283D01*
X238462668Y182944596D01*
X238280558Y183172955D01*
X238074025Y183379488D01*
X237845666Y183561598D01*
X237598353Y183716995D01*
X237598350Y183716997D01*
X237335198Y183843725D01*
X237059506Y183940193D01*
X237059504Y183940194D01*
X236839740Y183990354D01*
X236774746Y184005188D01*
X236774743Y184005189D01*
X236774731Y184005191D01*
X236484507Y184037890D01*
X236484501Y184037890D01*
X236192419Y184037890D01*
X236192412Y184037890D01*
X235902188Y184005191D01*
X235902174Y184005188D01*
X235617415Y183940194D01*
X235617413Y183940193D01*
X235341721Y183843725D01*
X235078569Y183716997D01*
X234831255Y183561599D01*
X234602895Y183379489D01*
X234396361Y183172955D01*
X234214251Y182944595D01*
X234058853Y182697281D01*
X233932125Y182434129D01*
X233835657Y182158437D01*
X233835656Y182158435D01*
X233770662Y181873676D01*
X233770659Y181873662D01*
X233737960Y181583438D01*
X232800500Y181583438D01*
X232800500Y181598540D01*
X232800500Y191434218D01*
X232820185Y191501257D01*
X232836819Y191521899D01*
X232988229Y191673309D01*
X233187139Y191872218D01*
X233196624Y191886414D01*
X233296632Y192036086D01*
X233361145Y192191836D01*
X233372051Y192218164D01*
X233410500Y192411460D01*
X233410500Y192608540D01*
X233410500Y192675216D01*
X233430185Y192742255D01*
X233482989Y192788010D01*
X233552147Y192797954D01*
X233615703Y192768929D01*
X233622181Y192762897D01*
X233762214Y192622864D01*
X233762218Y192622861D01*
X233926079Y192513372D01*
X233926092Y192513365D01*
X234104423Y192439499D01*
X234108165Y192437949D01*
X234108169Y192437949D01*
X234108170Y192437948D01*
X234301456Y192399500D01*
X234301459Y192399500D01*
X234634218Y192399500D01*
X234701257Y192379815D01*
X234721899Y192363181D01*
X234963181Y192121899D01*
X234996666Y192060576D01*
X234999500Y192034218D01*
X234999500Y190731376D01*
X234979815Y190664337D01*
X234963181Y190643695D01*
X234959745Y190640260D01*
X234840614Y190493147D01*
X234754680Y190324488D01*
X234705687Y190141644D01*
X234705687Y190141643D01*
X234699500Y190063027D01*
X234699500Y187736990D01*
X234699501Y187736971D01*
X234705687Y187658357D01*
X234705688Y187658355D01*
X234754680Y187475512D01*
X234776783Y187432132D01*
X234840614Y187306854D01*
X234876458Y187262591D01*
X234959743Y187159743D01*
X235054930Y187082662D01*
X235106853Y187040615D01*
X235179848Y187003423D01*
X235275512Y186954680D01*
X235458355Y186905688D01*
X235536979Y186899500D01*
X236463020Y186899501D01*
X236541645Y186905688D01*
X236724488Y186954680D01*
X236853008Y187020165D01*
X236893146Y187040615D01*
X236893147Y187040617D01*
X236893149Y187040617D01*
X237040257Y187159743D01*
X237159383Y187306851D01*
X237179852Y187347025D01*
X237227825Y187397820D01*
X237295646Y187414616D01*
X237361781Y187392080D01*
X237405233Y187337365D01*
X237410109Y187322831D01*
X237414391Y187306854D01*
X237430448Y187246926D01*
X237430449Y187246925D01*
X237482659Y187156495D01*
X237556495Y187082659D01*
X237646927Y187030448D01*
X237747790Y187003422D01*
X237800000Y187000000D01*
X237800011Y187000000D01*
X244599989Y187000000D01*
X244600000Y187000000D01*
X244652210Y187003422D01*
X244753073Y187030448D01*
X244843505Y187082659D01*
X244917341Y187156495D01*
X244969552Y187246927D01*
X244996578Y187347790D01*
X245000000Y187400000D01*
X245000000Y191000000D01*
X244996578Y191052210D01*
X244969552Y191153073D01*
X244917341Y191243505D01*
X244843505Y191317341D01*
X244753073Y191369552D01*
X244652210Y191396578D01*
X244600000Y191400000D01*
X237800000Y191400000D01*
X237747790Y191396578D01*
X237646927Y191369552D01*
X237646924Y191369551D01*
X237556498Y191317343D01*
X237556492Y191317339D01*
X237482661Y191243508D01*
X237482657Y191243502D01*
X237430449Y191153076D01*
X237430448Y191153073D01*
X237403422Y191052210D01*
X237400000Y191000000D01*
X237400000Y190999990D01*
X237400000Y190537410D01*
X237380315Y190470371D01*
X237327511Y190424616D01*
X237258353Y190414672D01*
X237194797Y190443697D01*
X237165516Y190481114D01*
X237159385Y190493146D01*
X237110857Y190553073D01*
X237040257Y190640257D01*
X237040255Y190640259D01*
X237040254Y190640260D01*
X237036819Y190643695D01*
X237003334Y190705018D01*
X237000500Y190731376D01*
X237000500Y192319819D01*
X237020185Y192386858D01*
X237072989Y192432613D01*
X237142147Y192442557D01*
X237156594Y192439594D01*
X237156942Y192439500D01*
X237156943Y192439500D01*
X246583331Y192439500D01*
X246583347Y192439499D01*
X246590943Y192439499D01*
X246749054Y192439499D01*
X246749057Y192439499D01*
X246901785Y192480423D01*
X246958847Y192513368D01*
X247038716Y192559480D01*
X247150520Y192671284D01*
X247150520Y192671286D01*
X247160724Y192681489D01*
X247160728Y192681494D01*
X248692416Y194213182D01*
X248753739Y194246667D01*
X248780097Y194249501D01*
X249528703Y194249501D01*
X249644142Y194264697D01*
X249644146Y194264699D01*
X249644151Y194264699D01*
X249787798Y194324200D01*
X249911149Y194418851D01*
X250005800Y194542202D01*
X250065301Y194685849D01*
X250080500Y194801299D01*
X250080499Y195598700D01*
X250080499Y195598702D01*
X250080499Y195598704D01*
X250065303Y195714143D01*
X250065301Y195714150D01*
X250065301Y195714151D01*
X250005800Y195857798D01*
X249911149Y195981149D01*
X249787798Y196075800D01*
X249787794Y196075802D01*
X249644151Y196135301D01*
X249644149Y196135302D01*
X249528701Y196150500D01*
X248131296Y196150500D01*
X248015857Y196135304D01*
X248015848Y196135301D01*
X247872205Y196075802D01*
X247748851Y195981149D01*
X247654198Y195857795D01*
X247594699Y195714152D01*
X247594698Y195714150D01*
X247579500Y195598702D01*
X247579500Y194850099D01*
X247559815Y194783060D01*
X247543181Y194762418D01*
X246457584Y193676819D01*
X246396261Y193643334D01*
X246369903Y193640500D01*
X241483230Y193640500D01*
X241416191Y193660185D01*
X241370436Y193712989D01*
X241360492Y193782147D01*
X241389517Y193845703D01*
X241395549Y193852181D01*
X244356548Y196813181D01*
X244417871Y196846666D01*
X244444229Y196849500D01*
X248003920Y196849500D01*
X248101462Y196868904D01*
X248148913Y196878342D01*
X248285495Y196934916D01*
X248361966Y196986012D01*
X248408416Y197017048D01*
X248904549Y197513183D01*
X248965872Y197546667D01*
X248992230Y197549501D01*
X249528703Y197549501D01*
X249644142Y197564697D01*
X249644146Y197564699D01*
X249644151Y197564699D01*
X249787798Y197624200D01*
X249911149Y197718851D01*
X250005800Y197842202D01*
X250065301Y197985849D01*
X250080500Y198101299D01*
X250080499Y198727057D01*
X250089939Y198774511D01*
X250108599Y198819558D01*
X250118549Y198843580D01*
X250121659Y198851088D01*
X250140042Y198943507D01*
X250149305Y198990074D01*
X250149305Y198990078D01*
X250149306Y198990081D01*
X250150500Y198996082D01*
X250150500Y200023935D01*
X250155424Y200058531D01*
X250177643Y200135007D01*
X250180500Y200171310D01*
X250180500Y200640690D01*
X250177643Y200676993D01*
X250155423Y200753472D01*
X250151099Y200783857D01*
X250151097Y200783856D01*
X250151092Y200783907D01*
X250150500Y200788066D01*
X250150500Y200789918D01*
X250150499Y200789919D01*
X250141544Y200834943D01*
X250121659Y200934911D01*
X250088518Y201014919D01*
X250065084Y201071494D01*
X250000271Y201168494D01*
X249982952Y201194415D01*
X248207437Y202969930D01*
X248173952Y203031253D01*
X248178936Y203100945D01*
X248220808Y203156878D01*
X248225596Y203160289D01*
X248274265Y203193228D01*
X248419502Y203338465D01*
X248534627Y203508563D01*
X248615481Y203697375D01*
X248659141Y203898077D01*
X248661890Y203944222D01*
X248661890Y204460998D01*
X248681575Y204528037D01*
X248734379Y204573792D01*
X248803537Y204583736D01*
X248839809Y204572661D01*
G37*
%TD.AperFunction*%
%TA.AperFunction,Conductor*%
G36*
X229303424Y205017666D02*
G01*
X229349434Y204965084D01*
X229360890Y204913028D01*
X229360890Y203944222D01*
X229363639Y203898077D01*
X229363639Y203898073D01*
X229363640Y203898072D01*
X229407297Y203697379D01*
X229407299Y203697372D01*
X229488153Y203508562D01*
X229488155Y203508558D01*
X229513708Y203470804D01*
X229534982Y203404252D01*
X229516898Y203336763D01*
X229498698Y203313621D01*
X227266389Y201081310D01*
X226562220Y200377141D01*
X226562218Y200377139D01*
X226517967Y200332888D01*
X226422859Y200237781D01*
X226313371Y200073921D01*
X226313364Y200073908D01*
X226264158Y199955111D01*
X226264158Y199955110D01*
X226237949Y199891837D01*
X226237947Y199891829D01*
X226224266Y199823049D01*
X226199500Y199698545D01*
X226199500Y198220192D01*
X226179815Y198153153D01*
X226127011Y198107398D01*
X226057853Y198097454D01*
X226028048Y198105631D01*
X225891839Y198162050D01*
X225891829Y198162053D01*
X225698543Y198200500D01*
X225698541Y198200500D01*
X225501459Y198200500D01*
X225501457Y198200500D01*
X225308170Y198162053D01*
X225308160Y198162050D01*
X225126092Y198086636D01*
X225126079Y198086629D01*
X224962218Y197977140D01*
X224962214Y197977137D01*
X224822863Y197837786D01*
X224822860Y197837782D01*
X224713371Y197673921D01*
X224713364Y197673908D01*
X224637950Y197491840D01*
X224637947Y197491830D01*
X224599500Y197298544D01*
X224599500Y193801456D01*
X224637947Y193608172D01*
X224637950Y193608160D01*
X224651486Y193575482D01*
X224651487Y193575480D01*
X224713364Y193426093D01*
X224713371Y193426080D01*
X224803154Y193291711D01*
X224822861Y193262218D01*
X224823173Y193261906D01*
X224823285Y193261701D01*
X224826726Y193257508D01*
X224825931Y193256856D01*
X224856663Y193200588D01*
X224859500Y193174217D01*
X224859500Y190731376D01*
X224839815Y190664337D01*
X224823181Y190643695D01*
X224819745Y190640260D01*
X224700614Y190493146D01*
X224680146Y190452975D01*
X224632171Y190402179D01*
X224564350Y190385385D01*
X224498215Y190407923D01*
X224454765Y190462639D01*
X224449891Y190477165D01*
X224429552Y190553073D01*
X224377341Y190643505D01*
X224303505Y190717341D01*
X224213073Y190769552D01*
X224112210Y190796578D01*
X224060000Y190800000D01*
X217260000Y190800000D01*
X217207790Y190796578D01*
X217106927Y190769552D01*
X217106924Y190769551D01*
X217016498Y190717343D01*
X217016492Y190717339D01*
X216942661Y190643508D01*
X216942657Y190643502D01*
X216890449Y190553076D01*
X216890448Y190553073D01*
X216863422Y190452210D01*
X216860000Y190400000D01*
X216860000Y186800000D01*
X216863422Y186747790D01*
X216890448Y186646927D01*
X216942659Y186556495D01*
X217016495Y186482659D01*
X217106927Y186430448D01*
X217207790Y186403422D01*
X217260000Y186400000D01*
X217260011Y186400000D01*
X224059989Y186400000D01*
X224060000Y186400000D01*
X224112210Y186403422D01*
X224213073Y186430448D01*
X224303505Y186482659D01*
X224377341Y186556495D01*
X224429552Y186646927D01*
X224456578Y186747790D01*
X224460000Y186800000D01*
X224460000Y187262591D01*
X224479685Y187329630D01*
X224532489Y187375385D01*
X224601647Y187385329D01*
X224665203Y187356304D01*
X224694485Y187318885D01*
X224700617Y187306851D01*
X224819743Y187159743D01*
X224914930Y187082662D01*
X224966853Y187040615D01*
X225039848Y187003423D01*
X225135512Y186954680D01*
X225318355Y186905688D01*
X225396979Y186899500D01*
X226323020Y186899501D01*
X226401645Y186905688D01*
X226584488Y186954680D01*
X226713008Y187020165D01*
X226753146Y187040615D01*
X226753147Y187040617D01*
X226753149Y187040617D01*
X226900257Y187159743D01*
X227019383Y187306851D01*
X227030990Y187329630D01*
X227040243Y187347791D01*
X227105320Y187475512D01*
X227154312Y187658355D01*
X227160500Y187736979D01*
X227160499Y190063020D01*
X227154312Y190141645D01*
X227105320Y190324488D01*
X227057156Y190419015D01*
X227019385Y190493147D01*
X226970855Y190553076D01*
X226900257Y190640257D01*
X226900255Y190640259D01*
X226900254Y190640260D01*
X226896819Y190643695D01*
X226863334Y190705018D01*
X226860500Y190731376D01*
X226860500Y193535325D01*
X226860501Y193535346D01*
X226860501Y193726231D01*
X226880186Y193793270D01*
X226932990Y193839025D01*
X227002148Y193848969D01*
X227056372Y193825075D01*
X227057154Y193826245D01*
X227226079Y193713373D01*
X227226083Y193713371D01*
X227226086Y193713369D01*
X227408164Y193637949D01*
X227601455Y193599501D01*
X227601458Y193599500D01*
X227601460Y193599500D01*
X227798542Y193599500D01*
X227798543Y193599501D01*
X227991836Y193637949D01*
X228039183Y193657562D01*
X228086636Y193667000D01*
X228745500Y193667000D01*
X228812539Y193647315D01*
X228858294Y193594511D01*
X228869500Y193543000D01*
X228869500Y185535783D01*
X228849815Y185468744D01*
X228833181Y185448102D01*
X223918750Y180533672D01*
X223857427Y180500187D01*
X223795074Y180502692D01*
X223685701Y180535870D01*
X223577177Y180546558D01*
X223537250Y180550490D01*
X222657970Y180550490D01*
X222583743Y180543180D01*
X222509514Y180535869D01*
X222319035Y180478087D01*
X222143495Y180384259D01*
X222143488Y180384255D01*
X221989621Y180257979D01*
X221863345Y180104112D01*
X221863341Y180104105D01*
X221769513Y179928565D01*
X221718665Y179760943D01*
X221680368Y179702505D01*
X221616555Y179674048D01*
X221547488Y179684609D01*
X221495095Y179730834D01*
X221481345Y179760943D01*
X221451299Y179859988D01*
X221430497Y179928563D01*
X221429631Y179930184D01*
X221336668Y180104105D01*
X221336664Y180104112D01*
X221210388Y180257979D01*
X221056521Y180384255D01*
X221056514Y180384259D01*
X220880974Y180478087D01*
X220690495Y180535869D01*
X220631111Y180541718D01*
X220542040Y180550490D01*
X220542037Y180550490D01*
X220218183Y180550490D01*
X220151144Y180570175D01*
X220130502Y180586809D01*
X218486599Y182230711D01*
X218486596Y182230715D01*
X218486596Y182230714D01*
X218479529Y182237781D01*
X218479529Y182237782D01*
X218340172Y182377139D01*
X218340171Y182377140D01*
X218340170Y182377141D01*
X218176310Y182486629D01*
X218176301Y182486634D01*
X218103705Y182516704D01*
X218047555Y182539962D01*
X217994226Y182562051D01*
X217994222Y182562052D01*
X217994218Y182562054D01*
X217897578Y182581276D01*
X217800934Y182600500D01*
X217800931Y182600500D01*
X217165782Y182600500D01*
X217098743Y182620185D01*
X217078101Y182636819D01*
X214803219Y184911701D01*
X214769734Y184973024D01*
X214766900Y184999382D01*
X214766900Y189264644D01*
X214728452Y189457930D01*
X214728451Y189457931D01*
X214728451Y189457935D01*
X214680154Y189574535D01*
X214653035Y189640008D01*
X214653028Y189640021D01*
X214543540Y189803881D01*
X214486795Y189860626D01*
X214404182Y189943239D01*
X214404181Y189943240D01*
X212304208Y192043212D01*
X212304206Y192043215D01*
X212304206Y192043214D01*
X212297139Y192050281D01*
X212297139Y192050282D01*
X212157782Y192189639D01*
X212157781Y192189640D01*
X212157780Y192189641D01*
X211993920Y192299129D01*
X211993910Y192299134D01*
X211897047Y192339256D01*
X211842644Y192383097D01*
X211820579Y192449391D01*
X211820500Y192453817D01*
X211820500Y199204308D01*
X211840185Y199271347D01*
X211856819Y199291989D01*
X213121973Y200557143D01*
X214429534Y201864705D01*
X214448313Y201880117D01*
X214589122Y201974201D01*
X214728479Y202113558D01*
X214728480Y202113560D01*
X214735546Y202120626D01*
X214735548Y202120630D01*
X215529441Y202914521D01*
X215590764Y202948006D01*
X215617122Y202950840D01*
X215668497Y202950840D01*
X215668508Y202950840D01*
X215714653Y202953589D01*
X215912128Y202996547D01*
X215915351Y202997248D01*
X215915358Y202997250D01*
X215983198Y203026301D01*
X216104167Y203078103D01*
X216274265Y203193228D01*
X216419502Y203338465D01*
X216534627Y203508563D01*
X216615481Y203697375D01*
X216659141Y203898077D01*
X216661890Y203944222D01*
X216661890Y204852825D01*
X216681575Y204919864D01*
X216734379Y204965619D01*
X216785288Y204976824D01*
X217236291Y204979005D01*
X217303424Y204959644D01*
X217349434Y204907062D01*
X217360890Y204855006D01*
X217360890Y203944222D01*
X217363639Y203898077D01*
X217363639Y203898073D01*
X217363640Y203898072D01*
X217407297Y203697379D01*
X217407299Y203697372D01*
X217488049Y203508806D01*
X217488153Y203508563D01*
X217509826Y203476540D01*
X217603272Y203338472D01*
X217603280Y203338463D01*
X217748252Y203193491D01*
X217781737Y203132168D01*
X217776753Y203062476D01*
X217734881Y203006543D01*
X217669417Y202982126D01*
X217660571Y202981810D01*
X217451091Y202981810D01*
X217373026Y202974122D01*
X217108810Y202948100D01*
X216771487Y202881002D01*
X216442353Y202781160D01*
X216124595Y202649540D01*
X216124590Y202649538D01*
X215821284Y202487417D01*
X215821266Y202487406D01*
X215535308Y202296335D01*
X215535294Y202296325D01*
X215269427Y202078134D01*
X215026236Y201834943D01*
X214808045Y201569076D01*
X214808035Y201569062D01*
X214616964Y201283104D01*
X214616953Y201283086D01*
X214454832Y200979780D01*
X214454830Y200979775D01*
X214323210Y200662017D01*
X214223368Y200332883D01*
X214156270Y199995560D01*
X214122560Y199653276D01*
X214122560Y199309345D01*
X214156270Y198967061D01*
X214223368Y198629738D01*
X214323210Y198300604D01*
X214454830Y197982846D01*
X214454832Y197982841D01*
X214616949Y197679543D01*
X214616960Y197679523D01*
X214616963Y197679518D01*
X214616964Y197679517D01*
X214808035Y197393559D01*
X214808045Y197393545D01*
X215026236Y197127678D01*
X215269427Y196884487D01*
X215269432Y196884483D01*
X215269433Y196884482D01*
X215535300Y196666291D01*
X215821273Y196475210D01*
X215821282Y196475205D01*
X215821284Y196475204D01*
X216124590Y196313083D01*
X216124592Y196313083D01*
X216124598Y196313079D01*
X216442355Y196181460D01*
X216771482Y196081620D01*
X217108810Y196014521D01*
X217451091Y195980810D01*
X217451094Y195980810D01*
X217795026Y195980810D01*
X217795029Y195980810D01*
X218137310Y196014521D01*
X218474638Y196081620D01*
X218803765Y196181460D01*
X219121522Y196313079D01*
X219424847Y196475210D01*
X219710820Y196666291D01*
X219976687Y196884482D01*
X220219888Y197127683D01*
X220438079Y197393550D01*
X220629160Y197679523D01*
X220637894Y197695862D01*
X220791287Y197982841D01*
X220791291Y197982848D01*
X220922910Y198300605D01*
X221022750Y198629732D01*
X221089849Y198967060D01*
X221123560Y199309341D01*
X221123560Y199653279D01*
X221089849Y199995560D01*
X221022750Y200332888D01*
X220922910Y200662015D01*
X220791291Y200979772D01*
X220785015Y200991513D01*
X220629166Y201283086D01*
X220629165Y201283088D01*
X220629160Y201283097D01*
X220438079Y201569070D01*
X220219888Y201834937D01*
X220219887Y201834938D01*
X220219883Y201834943D01*
X219976692Y202078134D01*
X219710825Y202296325D01*
X219710824Y202296326D01*
X219710820Y202296329D01*
X219424847Y202487410D01*
X219424842Y202487413D01*
X219424835Y202487417D01*
X219121529Y202649538D01*
X219121524Y202649540D01*
X219118289Y202650880D01*
X218970057Y202712280D01*
X218915655Y202756120D01*
X218893590Y202822414D01*
X218910869Y202890113D01*
X218962006Y202937724D01*
X219017511Y202950840D01*
X219668497Y202950840D01*
X219668508Y202950840D01*
X219714653Y202953589D01*
X219912128Y202996547D01*
X219915351Y202997248D01*
X219915358Y202997250D01*
X219983198Y203026301D01*
X220104167Y203078103D01*
X220274265Y203193228D01*
X220419502Y203338465D01*
X220534627Y203508563D01*
X220615481Y203697375D01*
X220659141Y203898077D01*
X220661890Y203944222D01*
X220661890Y204872166D01*
X220681575Y204939205D01*
X220734379Y204984960D01*
X220785288Y204996165D01*
X221236291Y204998346D01*
X221303424Y204978985D01*
X221349434Y204926403D01*
X221360890Y204874347D01*
X221360890Y203944222D01*
X221363639Y203898077D01*
X221363639Y203898073D01*
X221363640Y203898072D01*
X221407297Y203697379D01*
X221407299Y203697372D01*
X221488049Y203508806D01*
X221488153Y203508563D01*
X221509826Y203476540D01*
X221603272Y203338472D01*
X221603277Y203338467D01*
X221603278Y203338465D01*
X221748515Y203193228D01*
X221748516Y203193227D01*
X221748521Y203193223D01*
X221846583Y203126854D01*
X221918613Y203078103D01*
X221947913Y203065556D01*
X222107421Y202997250D01*
X222107428Y202997248D01*
X222174325Y202982696D01*
X222308127Y202953589D01*
X222354272Y202950840D01*
X222354283Y202950840D01*
X223668497Y202950840D01*
X223668508Y202950840D01*
X223714653Y202953589D01*
X223912128Y202996547D01*
X223915351Y202997248D01*
X223915358Y202997250D01*
X223983198Y203026301D01*
X224104167Y203078103D01*
X224274265Y203193228D01*
X224419502Y203338465D01*
X224534627Y203508563D01*
X224615481Y203697375D01*
X224659141Y203898077D01*
X224661890Y203944222D01*
X224661890Y204891507D01*
X224681575Y204958546D01*
X224734379Y205004301D01*
X224785288Y205015506D01*
X229236291Y205037027D01*
X229303424Y205017666D01*
G37*
%TD.AperFunction*%
%TA.AperFunction,Conductor*%
G36*
X209738834Y198884953D02*
G01*
X209794767Y198843081D01*
X209819184Y198777617D01*
X209819500Y198768771D01*
X209819500Y193978521D01*
X209799815Y193911482D01*
X209747011Y193865727D01*
X209677853Y193855783D01*
X209614297Y193884808D01*
X209576523Y193943586D01*
X209573883Y193954329D01*
X209557738Y194035492D01*
X209557737Y194035493D01*
X209557737Y194035497D01*
X209556791Y194037782D01*
X209497397Y194181173D01*
X209497390Y194181186D01*
X209409789Y194312289D01*
X209409786Y194312293D01*
X209361971Y194360108D01*
X209328486Y194421431D01*
X209333470Y194491123D01*
X209351278Y194523277D01*
X209365799Y194542201D01*
X209365798Y194542201D01*
X209365800Y194542202D01*
X209425301Y194685849D01*
X209440500Y194801299D01*
X209440499Y195598700D01*
X209440499Y195598702D01*
X209440499Y195598704D01*
X209425303Y195714143D01*
X209425301Y195714150D01*
X209425301Y195714151D01*
X209365800Y195857798D01*
X209271149Y195981149D01*
X209147798Y196075800D01*
X209147794Y196075802D01*
X209004151Y196135301D01*
X209004149Y196135302D01*
X208888701Y196150500D01*
X207491296Y196150500D01*
X207375857Y196135304D01*
X207375848Y196135301D01*
X207232205Y196075802D01*
X207108851Y195981149D01*
X207014198Y195857795D01*
X206954699Y195714152D01*
X206954698Y195714150D01*
X206939500Y195598702D01*
X206939500Y194801297D01*
X206954696Y194685858D01*
X206954699Y194685849D01*
X207004222Y194566289D01*
X207014200Y194542202D01*
X207108851Y194418851D01*
X207232202Y194324200D01*
X207375849Y194264699D01*
X207491299Y194249500D01*
X207513896Y194249501D01*
X207580935Y194229819D01*
X207626691Y194177017D01*
X207628460Y194172955D01*
X207630422Y194168217D01*
X207630423Y194168215D01*
X207658220Y194120069D01*
X207705730Y194037779D01*
X207709481Y194031283D01*
X207953426Y193787338D01*
X207986911Y193726015D01*
X207987362Y193723849D01*
X208018261Y193568509D01*
X208018264Y193568499D01*
X208078602Y193422828D01*
X208078609Y193422815D01*
X208166210Y193291712D01*
X208166213Y193291708D01*
X208277707Y193180214D01*
X208277711Y193180211D01*
X208408814Y193092610D01*
X208408827Y193092603D01*
X208554498Y193032265D01*
X208554503Y193032263D01*
X208709153Y193001501D01*
X208709156Y193001500D01*
X208709158Y193001500D01*
X208866844Y193001500D01*
X208866845Y193001501D01*
X209021497Y193032263D01*
X209167179Y193092606D01*
X209298289Y193180211D01*
X209409789Y193291711D01*
X209497394Y193422821D01*
X209557737Y193568503D01*
X209571551Y193637950D01*
X209573883Y193649671D01*
X209606268Y193711582D01*
X209666984Y193746156D01*
X209736753Y193742417D01*
X209793425Y193701550D01*
X209819006Y193636532D01*
X209819500Y193625480D01*
X209819500Y192537000D01*
X209799815Y192469961D01*
X209747011Y192424206D01*
X209695500Y192413000D01*
X207635259Y192413000D01*
X207619566Y192414661D01*
X207619531Y192414311D01*
X207510016Y192425500D01*
X206614500Y192425500D01*
X206547461Y192445185D01*
X206501706Y192497989D01*
X206490500Y192549500D01*
X206490500Y195687772D01*
X206510185Y195754811D01*
X206526814Y195775448D01*
X208264548Y197513183D01*
X208325871Y197546667D01*
X208352229Y197549501D01*
X208888703Y197549501D01*
X209004142Y197564697D01*
X209004146Y197564699D01*
X209004151Y197564699D01*
X209147798Y197624200D01*
X209271149Y197718851D01*
X209365800Y197842202D01*
X209425301Y197985849D01*
X209440500Y198101299D01*
X209440499Y198637772D01*
X209460183Y198704810D01*
X209476809Y198725443D01*
X209607821Y198856455D01*
X209669142Y198889937D01*
X209738834Y198884953D01*
G37*
%TD.AperFunction*%
%TA.AperFunction,Conductor*%
G36*
X235605703Y197789575D02*
G01*
X235627602Y197764752D01*
X235807778Y197495098D01*
X235807795Y197495075D01*
X236025986Y197229208D01*
X236269177Y196986017D01*
X236269182Y196986013D01*
X236269183Y196986012D01*
X236535050Y196767821D01*
X236821023Y196576740D01*
X236821032Y196576735D01*
X236821034Y196576734D01*
X237124340Y196414613D01*
X237124342Y196414613D01*
X237124348Y196414609D01*
X237442105Y196282990D01*
X237771232Y196183150D01*
X238108560Y196116051D01*
X238450841Y196082340D01*
X238450844Y196082340D01*
X238794776Y196082340D01*
X238794779Y196082340D01*
X239137060Y196116051D01*
X239263571Y196141216D01*
X239333161Y196134989D01*
X239388338Y196092126D01*
X239411583Y196026237D01*
X239395516Y195958240D01*
X239375442Y195931918D01*
X238136345Y194692819D01*
X238075022Y194659334D01*
X238048664Y194656500D01*
X237307766Y194656500D01*
X237240727Y194676185D01*
X237238875Y194677398D01*
X237107185Y194765391D01*
X237107172Y194765398D01*
X236961501Y194825736D01*
X236961489Y194825739D01*
X236806845Y194856500D01*
X236806842Y194856500D01*
X236649158Y194856500D01*
X236649155Y194856500D01*
X236494510Y194825739D01*
X236494498Y194825736D01*
X236348827Y194765398D01*
X236348814Y194765391D01*
X236217713Y194677791D01*
X236217707Y194677787D01*
X236106213Y194566293D01*
X236106210Y194566289D01*
X236018609Y194435186D01*
X236018602Y194435173D01*
X235958264Y194289502D01*
X235958261Y194289493D01*
X235948299Y194239409D01*
X235915913Y194177499D01*
X235855197Y194142925D01*
X235785428Y194146666D01*
X235742733Y194173569D01*
X235742492Y194173274D01*
X235740144Y194175201D01*
X235739001Y194175921D01*
X235737785Y194177137D01*
X235737781Y194177140D01*
X235573920Y194286629D01*
X235573911Y194286634D01*
X235483220Y194324199D01*
X235445165Y194339962D01*
X235408881Y194354991D01*
X235391837Y194362051D01*
X235391833Y194362052D01*
X235276710Y194384951D01*
X235198543Y194400500D01*
X235198541Y194400500D01*
X234814783Y194400500D01*
X234747744Y194420185D01*
X234701989Y194472989D01*
X234692045Y194542147D01*
X234721070Y194605703D01*
X234727102Y194612181D01*
X235177137Y195062216D01*
X235177137Y195062217D01*
X235177140Y195062219D01*
X235286632Y195226086D01*
X235362052Y195408165D01*
X235400501Y195601460D01*
X235400501Y195798541D01*
X235400501Y195803651D01*
X235400500Y195803677D01*
X235400500Y197695862D01*
X235420185Y197762901D01*
X235472989Y197808656D01*
X235542147Y197818600D01*
X235605703Y197789575D01*
G37*
%TD.AperFunction*%
%TA.AperFunction,Conductor*%
G36*
X233303424Y205037007D02*
G01*
X233349434Y204984425D01*
X233360890Y204932369D01*
X233360890Y203944222D01*
X233363639Y203898077D01*
X233363639Y203898073D01*
X233363640Y203898072D01*
X233407297Y203697379D01*
X233407299Y203697372D01*
X233488049Y203508806D01*
X233488153Y203508563D01*
X233509826Y203476540D01*
X233603272Y203338472D01*
X233603277Y203338467D01*
X233603278Y203338465D01*
X233748515Y203193228D01*
X233918613Y203078103D01*
X233935704Y203070785D01*
X233989580Y203026301D01*
X234010855Y202959749D01*
X234010890Y202956797D01*
X234010890Y202177173D01*
X233991205Y202110134D01*
X233974571Y202089492D01*
X233886050Y202000971D01*
X233762221Y201877142D01*
X233762218Y201877139D01*
X233720022Y201834943D01*
X233622859Y201737781D01*
X233513371Y201573920D01*
X233513364Y201573907D01*
X233468876Y201466500D01*
X233468876Y201466499D01*
X233447134Y201414010D01*
X233437950Y201391839D01*
X233437947Y201391831D01*
X233399500Y201198544D01*
X233399500Y196165784D01*
X233379815Y196098745D01*
X233363181Y196078103D01*
X233001846Y195716769D01*
X232940523Y195683284D01*
X232913165Y195681033D01*
X232913165Y195680500D01*
X231909998Y195680500D01*
X231909980Y195680499D01*
X231807203Y195670000D01*
X231807200Y195669999D01*
X231640668Y195614815D01*
X231640663Y195614813D01*
X231491342Y195522711D01*
X231367289Y195398658D01*
X231275187Y195249337D01*
X231275185Y195249332D01*
X231257706Y195196582D01*
X231217933Y195139137D01*
X231153417Y195112314D01*
X231084641Y195124629D01*
X231033442Y195172172D01*
X231022294Y195196582D01*
X231004814Y195249334D01*
X230912712Y195398656D01*
X230788656Y195522712D01*
X230665459Y195598700D01*
X230639336Y195614813D01*
X230639331Y195614815D01*
X230637862Y195615302D01*
X230472797Y195669999D01*
X230472795Y195670000D01*
X230370010Y195680500D01*
X229369998Y195680500D01*
X229369980Y195680499D01*
X229260468Y195669311D01*
X229260432Y195669661D01*
X229244742Y195668000D01*
X228324500Y195668000D01*
X228257461Y195687685D01*
X228211706Y195740489D01*
X228200500Y195792000D01*
X228200500Y199134218D01*
X228220185Y199201257D01*
X228236819Y199221899D01*
X229994693Y200979772D01*
X231788529Y202773608D01*
X231805748Y202799379D01*
X231839493Y202849880D01*
X231839493Y202849881D01*
X231861415Y202882690D01*
X231898022Y202937476D01*
X231905056Y202954461D01*
X231948896Y203008862D01*
X231970794Y203020991D01*
X232104167Y203078103D01*
X232274265Y203193228D01*
X232419502Y203338465D01*
X232534627Y203508563D01*
X232615481Y203697375D01*
X232659141Y203898077D01*
X232661890Y203944222D01*
X232661890Y204930188D01*
X232681575Y204997227D01*
X232734379Y205042982D01*
X232785288Y205054187D01*
X233236291Y205056368D01*
X233303424Y205037007D01*
G37*
%TD.AperFunction*%
%TA.AperFunction,Conductor*%
G36*
X245303424Y205095027D02*
G01*
X245349434Y205042445D01*
X245360890Y204990389D01*
X245360890Y203944222D01*
X245363639Y203898077D01*
X245363639Y203898073D01*
X245363640Y203898072D01*
X245407297Y203697379D01*
X245407299Y203697372D01*
X245488049Y203508806D01*
X245488153Y203508563D01*
X245509826Y203476540D01*
X245603272Y203338472D01*
X245603277Y203338467D01*
X245603278Y203338465D01*
X245748515Y203193228D01*
X245748516Y203193227D01*
X245748521Y203193223D01*
X245846583Y203126854D01*
X245918613Y203078103D01*
X245947913Y203065556D01*
X246107421Y202997250D01*
X246107424Y202997249D01*
X246110652Y202996547D01*
X246133935Y202991482D01*
X246195258Y202958000D01*
X246222141Y202917768D01*
X246253597Y202841825D01*
X246253598Y202841824D01*
X246253600Y202841820D01*
X246274267Y202810890D01*
X246299179Y202773605D01*
X246335735Y202718895D01*
X246335736Y202718894D01*
X248583181Y200471450D01*
X248616666Y200410127D01*
X248619500Y200383769D01*
X248619500Y200171303D01*
X248622356Y200135009D01*
X248622357Y200135007D01*
X248640104Y200073921D01*
X248644576Y200058531D01*
X248649500Y200023935D01*
X248649500Y199574500D01*
X248629815Y199507461D01*
X248577011Y199461706D01*
X248525500Y199450500D01*
X248131296Y199450500D01*
X248015857Y199435304D01*
X248015848Y199435301D01*
X247872205Y199375802D01*
X247872202Y199375801D01*
X247872202Y199375800D01*
X247748851Y199281149D01*
X247687548Y199201257D01*
X247654198Y199157795D01*
X247594699Y199014152D01*
X247594698Y199014150D01*
X247585396Y198943486D01*
X247579500Y198898701D01*
X247579500Y198629732D01*
X247579501Y198474500D01*
X247559817Y198407461D01*
X247507013Y198361706D01*
X247455501Y198350500D01*
X245304500Y198350500D01*
X245237461Y198370185D01*
X245191706Y198422989D01*
X245180500Y198474500D01*
X245180499Y198898704D01*
X245165303Y199014143D01*
X245165301Y199014150D01*
X245165301Y199014151D01*
X245105800Y199157798D01*
X245011149Y199281149D01*
X244887798Y199375800D01*
X244887794Y199375802D01*
X244744151Y199435301D01*
X244744149Y199435302D01*
X244628701Y199450500D01*
X243231296Y199450500D01*
X243115857Y199435304D01*
X243115848Y199435301D01*
X242972205Y199375802D01*
X242848851Y199281149D01*
X242754197Y199157795D01*
X242750134Y199150756D01*
X242747903Y199152045D01*
X242712100Y199107632D01*
X242673493Y199089726D01*
X242560976Y199059577D01*
X242560974Y199059577D01*
X242560974Y199059576D01*
X242513747Y199032309D01*
X242513746Y199032309D01*
X242424048Y198980523D01*
X242424043Y198980519D01*
X242312239Y198868714D01*
X242312238Y198868713D01*
X242273731Y198830207D01*
X242212408Y198796722D01*
X242142716Y198801708D01*
X242086783Y198843580D01*
X242062367Y198909045D01*
X242064433Y198942076D01*
X242089599Y199068590D01*
X242123310Y199410871D01*
X242123310Y199754809D01*
X242089599Y200097090D01*
X242022500Y200434418D01*
X241922660Y200763545D01*
X241791041Y201081302D01*
X241744437Y201168491D01*
X241628916Y201384616D01*
X241628915Y201384618D01*
X241628910Y201384627D01*
X241437829Y201670600D01*
X241219638Y201936467D01*
X241219637Y201936468D01*
X241219633Y201936473D01*
X240976442Y202179664D01*
X240710575Y202397855D01*
X240710574Y202397856D01*
X240710570Y202397859D01*
X240424597Y202588940D01*
X240424592Y202588943D01*
X240424585Y202588947D01*
X240121279Y202751068D01*
X240121274Y202751070D01*
X240109082Y202756120D01*
X240048631Y202781160D01*
X239996366Y202802809D01*
X239941963Y202846650D01*
X239919898Y202912945D01*
X239937177Y202980644D01*
X239988315Y203028254D01*
X239995007Y203031358D01*
X240011891Y203038588D01*
X240104167Y203078103D01*
X240274265Y203193228D01*
X240419502Y203338465D01*
X240534627Y203508563D01*
X240615481Y203697375D01*
X240659141Y203898077D01*
X240661890Y203944222D01*
X240661890Y204968869D01*
X240681575Y205035908D01*
X240734379Y205081663D01*
X240785288Y205092868D01*
X244174330Y205109254D01*
X245236292Y205114388D01*
X245303424Y205095027D01*
G37*
%TD.AperFunction*%
%TD*%
M02*
