%TF.GenerationSoftware,KiCad,Pcbnew,10.0.5*%
%TF.CreationDate,2026-08-15T23:16:26-07:00*%
%TF.ProjectId,Vertical,56657274-6963-4616-9c2e-6b696361645f,rev?*%
%TF.SameCoordinates,Original*%
%TF.FileFunction,Legend,Top*%
%TF.FilePolarity,Positive*%
%FSLAX46Y46*%
G04 Gerber Fmt 4.6, Leading zero omitted, Abs format (unit mm)*
G04 Created by KiCad (PCBNEW 10.0.5) date 2026-08-15 23:16:26*
%MOMM*%
%LPD*%
G01*
G04 APERTURE LIST*
G04 Aperture macros list*
%AMRoundRect*
0 Rectangle with rounded corners*
0 $1 Rounding radius*
0 $2 $3 $4 $5 $6 $7 $8 $9 X,Y pos of 4 corners*
0 Add a 4 corners polygon primitive as box body*
4,1,4,$2,$3,$4,$5,$6,$7,$8,$9,$2,$3,0*
0 Add four circle primitives for the rounded corners*
1,1,$1+$1,$2,$3*
1,1,$1+$1,$4,$5*
1,1,$1+$1,$6,$7*
1,1,$1+$1,$8,$9*
0 Add four rect primitives between the rounded corners*
20,1,$1+$1,$2,$3,$4,$5,0*
20,1,$1+$1,$4,$5,$6,$7,0*
20,1,$1+$1,$6,$7,$8,$9,0*
20,1,$1+$1,$8,$9,$2,$3,0*%
G04 Aperture macros list end*
%ADD10C,0.190500*%
%ADD11C,0.158750*%
%ADD12RoundRect,0.101600X0.718420X0.000000X0.000000X0.718420X-0.718420X0.000000X0.000000X-0.718420X0*%
%ADD13C,0.153400*%
%ADD14C,2.540000*%
%ADD15RoundRect,0.651200X-0.575000X-1.425000X0.575000X-1.425000X0.575000X1.425000X-0.575000X1.425000X0*%
G04 APERTURE END LIST*
D10*
G36*
X248881468Y189674467D02*
G01*
X248980667Y189674467D01*
X248980667Y190451675D01*
X248497424Y190451675D01*
X248497424Y190364202D01*
X248881468Y190364202D01*
X248881468Y189674467D01*
G37*
G36*
X248319360Y189891847D02*
G01*
X248407904Y189891847D01*
X248407904Y190451675D01*
X248319360Y190451675D01*
X248319360Y189891847D01*
G37*
G36*
X248319360Y189674467D02*
G01*
X248408974Y189674467D01*
X248408974Y189786507D01*
X248319360Y189786507D01*
X248319360Y189674467D01*
G37*
G36*
X247740223Y190080473D02*
G01*
X247744486Y190045124D01*
X247751406Y190014982D01*
X247759809Y189991881D01*
X247770504Y189971108D01*
X247777539Y189960197D01*
X247809172Y189926968D01*
X247850262Y189900941D01*
X247899809Y189883727D01*
X247927310Y189878950D01*
X247956089Y189877000D01*
X247961046Y189876958D01*
X247989645Y189878433D01*
X248016821Y189882799D01*
X248042170Y189889856D01*
X248066000Y189899560D01*
X248108713Y189926478D01*
X248144890Y189963292D01*
X248174073Y190010122D01*
X248195346Y190067201D01*
X248207407Y190134602D01*
X248209600Y190181579D01*
X248208126Y190219334D01*
X248203765Y190254940D01*
X248196818Y190287492D01*
X248187294Y190317799D01*
X248175646Y190345013D01*
X248161721Y190369920D01*
X248146053Y190391857D01*
X248128372Y190411437D01*
X248109167Y190428251D01*
X248088164Y190442642D01*
X248065659Y190454429D01*
X248041521Y190463684D01*
X247988457Y190474306D01*
X247962116Y190475498D01*
X247931528Y190474021D01*
X247902838Y190469635D01*
X247876961Y190462692D01*
X247852992Y190453155D01*
X247831513Y190441415D01*
X247811973Y190427325D01*
X247779245Y190392733D01*
X247754681Y190349280D01*
X247738779Y190296397D01*
X247733802Y190259281D01*
X247823416Y190259281D01*
X247829759Y190288218D01*
X247838525Y190313643D01*
X247848612Y190333749D01*
X247860695Y190350940D01*
X247873819Y190364399D01*
X247888682Y190375299D01*
X247922912Y190389257D01*
X247959976Y190393376D01*
X247982441Y190391900D01*
X248003377Y190387529D01*
X248022235Y190380569D01*
X248039539Y190371019D01*
X248069248Y190344479D01*
X248092649Y190307411D01*
X248108949Y190258660D01*
X248116499Y190197083D01*
X248116776Y190181579D01*
X248115302Y190144228D01*
X248110937Y190109922D01*
X248104208Y190080324D01*
X248095032Y190053687D01*
X248084232Y190031425D01*
X248071395Y190011971D01*
X248057441Y189996243D01*
X248041774Y189983182D01*
X248025081Y189973179D01*
X248006888Y189965798D01*
X247966390Y189959182D01*
X247962116Y189959127D01*
X247939182Y189960605D01*
X247918202Y189964990D01*
X247900109Y189971799D01*
X247883895Y189981119D01*
X247857818Y190006371D01*
X247839329Y190041093D01*
X247829790Y190080473D01*
X247740223Y190080473D01*
G37*
G36*
X247437943Y190473935D02*
G01*
X247492228Y190462763D01*
X247539289Y190441523D01*
X247560289Y190427180D01*
X247579445Y190410466D01*
X247597023Y190391044D01*
X247612571Y190369286D01*
X247626407Y190344496D01*
X247637966Y190317368D01*
X247647464Y190286908D01*
X247654387Y190254100D01*
X247658765Y190217798D01*
X247660241Y190179159D01*
X247657794Y190130715D01*
X247645337Y190064922D01*
X247623591Y190008978D01*
X247593753Y189962836D01*
X247556640Y189926353D01*
X247535493Y189911724D01*
X247512657Y189899546D01*
X247488053Y189889850D01*
X247461880Y189882800D01*
X247433796Y189878433D01*
X247404243Y189876958D01*
X247382403Y189877781D01*
X247354279Y189881389D01*
X247327437Y189887776D01*
X247278478Y189908340D01*
X247236624Y189938481D01*
X247202848Y189977268D01*
X247189287Y189999627D01*
X247178069Y190023895D01*
X247177153Y190026303D01*
X247168492Y190054376D01*
X247162210Y190086541D01*
X247158088Y190129002D01*
X247251676Y190129002D01*
X247255630Y190087124D01*
X247270017Y190043322D01*
X247293442Y190007810D01*
X247324485Y189981421D01*
X247342487Y189971882D01*
X247362046Y189964891D01*
X247383027Y189960592D01*
X247405313Y189959127D01*
X247434013Y189961538D01*
X247454767Y189966624D01*
X247474097Y189974391D01*
X247492116Y189984876D01*
X247508449Y189997872D01*
X247523282Y190013626D01*
X247536114Y190031748D01*
X247547055Y190052621D01*
X247555643Y190075703D01*
X247561840Y190101351D01*
X247565323Y190129002D01*
X247251676Y190129002D01*
X247158088Y190129002D01*
X247157248Y190137649D01*
X247155689Y190201540D01*
X247567464Y190201540D01*
X247566035Y190231643D01*
X247557514Y190279435D01*
X247549140Y190300816D01*
X247537593Y190320931D01*
X247520130Y190343732D01*
X247504617Y190358453D01*
X247487435Y190370681D01*
X247468531Y190380435D01*
X247448219Y190387513D01*
X247426269Y190391898D01*
X247403172Y190393376D01*
X247379873Y190391925D01*
X247340110Y190381212D01*
X247322545Y190371984D01*
X247306578Y190360206D01*
X247291734Y190345317D01*
X247278681Y190327734D01*
X247266799Y190306099D01*
X247257027Y190281475D01*
X247167414Y190281475D01*
X247170430Y190295881D01*
X247188537Y190348238D01*
X247215523Y190391867D01*
X247232173Y190410472D01*
X247250843Y190426884D01*
X247271658Y190441156D01*
X247294371Y190453052D01*
X247319382Y190462657D01*
X247346198Y190469649D01*
X247375434Y190474022D01*
X247406383Y190475498D01*
X247437943Y190473935D01*
G37*
G36*
X247035692Y189891847D02*
G01*
X247035692Y190451675D01*
X246946079Y190451675D01*
X246946079Y190142914D01*
X246944611Y190112891D01*
X246940291Y190084965D01*
X246933459Y190059926D01*
X246924155Y190037182D01*
X246912925Y190017528D01*
X246899602Y190000294D01*
X246884833Y189986065D01*
X246868302Y189974347D01*
X246850530Y189965438D01*
X246831252Y189959159D01*
X246794583Y189954847D01*
X246772722Y189956313D01*
X246752793Y189960620D01*
X246735498Y189967355D01*
X246720274Y189976493D01*
X246707558Y189987588D01*
X246697051Y190000731D01*
X246683197Y190032512D01*
X246679379Y190064653D01*
X246679379Y190451675D01*
X246590836Y190451675D01*
X246590836Y190029478D01*
X246592306Y190006654D01*
X246596641Y189985346D01*
X246603582Y189965984D01*
X246613073Y189948271D01*
X246639185Y189918241D01*
X246674723Y189895601D01*
X246719791Y189881338D01*
X246767922Y189876958D01*
X246797379Y189878093D01*
X246824401Y189882386D01*
X246846810Y189889045D01*
X246867697Y189898469D01*
X246904753Y189925108D01*
X246939882Y189965448D01*
X246953523Y189985741D01*
X246953523Y189891847D01*
X247035692Y189891847D01*
G37*
G36*
X246050503Y190048555D02*
G01*
X246052240Y190022213D01*
X246056885Y189997899D01*
X246063958Y189976689D01*
X246073573Y189957402D01*
X246085316Y189940533D01*
X246099380Y189925559D01*
X246134381Y189901408D01*
X246179713Y189884960D01*
X246237068Y189877291D01*
X246253180Y189876958D01*
X246285694Y189878428D01*
X246316029Y189882756D01*
X246343350Y189889610D01*
X246368328Y189898957D01*
X246390131Y189910265D01*
X246409493Y189923701D01*
X246425779Y189938624D01*
X246439559Y189955355D01*
X246450484Y189973336D01*
X246458816Y189992870D01*
X246464417Y190013695D01*
X246467267Y190035883D01*
X246467629Y190047484D01*
X246466090Y190073553D01*
X246461275Y190096837D01*
X246454411Y190114572D01*
X246444800Y190130642D01*
X246418119Y190157293D01*
X246377032Y190180577D01*
X246312741Y190202520D01*
X246290542Y190208193D01*
X246207350Y190228386D01*
X246178012Y190237035D01*
X246155223Y190247382D01*
X246141612Y190256932D01*
X246131596Y190267888D01*
X246121965Y190291673D01*
X246120900Y190305018D01*
X246122364Y190320043D01*
X246126658Y190333943D01*
X246143262Y190358109D01*
X246171001Y190377310D01*
X246210746Y190389893D01*
X246251086Y190393376D01*
X246277489Y190391915D01*
X246301856Y190387648D01*
X246323197Y190380963D01*
X246341787Y190371939D01*
X246362010Y190356106D01*
X246372565Y190341264D01*
X246380171Y190322737D01*
X246387600Y190284825D01*
X246481494Y190284825D01*
X246478970Y190315854D01*
X246473542Y190344070D01*
X246465978Y190367531D01*
X246455930Y190388646D01*
X246444117Y190406487D01*
X246430053Y190422249D01*
X246395646Y190447305D01*
X246350914Y190464794D01*
X246292832Y190474261D01*
X246258531Y190475498D01*
X246223915Y190474028D01*
X246191638Y190469693D01*
X246162653Y190462846D01*
X246136135Y190453506D01*
X246113028Y190442241D01*
X246092447Y190428849D01*
X246075118Y190414026D01*
X246060341Y190397399D01*
X246048521Y190379590D01*
X246039301Y190360232D01*
X246032835Y190339644D01*
X246029094Y190317691D01*
X246028123Y190298644D01*
X246029630Y190274190D01*
X246034228Y190251981D01*
X246041107Y190233802D01*
X246050665Y190217263D01*
X246077209Y190189490D01*
X246116708Y190166064D01*
X246174999Y190145995D01*
X246185993Y190143240D01*
X246271326Y190123046D01*
X246306119Y190113309D01*
X246333389Y190102038D01*
X246349619Y190092011D01*
X246361687Y190080708D01*
X246368901Y190069783D01*
X246373234Y190057691D01*
X246374805Y190043204D01*
X246373338Y190027599D01*
X246369022Y190013387D01*
X246352717Y189989792D01*
X246325863Y189972035D01*
X246287210Y189961248D01*
X246256390Y189959127D01*
X246230799Y189960610D01*
X246208439Y189965032D01*
X246191127Y189971486D01*
X246176488Y189980258D01*
X246165306Y189990459D01*
X246156478Y190002615D01*
X246146016Y190032433D01*
X246144397Y190048555D01*
X246050503Y190048555D01*
G37*
G36*
X245719747Y190473935D02*
G01*
X245774032Y190462763D01*
X245821093Y190441523D01*
X245842094Y190427180D01*
X245861249Y190410466D01*
X245878827Y190391044D01*
X245894376Y190369286D01*
X245908211Y190344496D01*
X245919770Y190317368D01*
X245929268Y190286908D01*
X245936191Y190254100D01*
X245940569Y190217798D01*
X245942045Y190179159D01*
X245939598Y190130715D01*
X245927141Y190064922D01*
X245905396Y190008978D01*
X245875557Y189962836D01*
X245838445Y189926353D01*
X245817297Y189911724D01*
X245794462Y189899546D01*
X245769857Y189889850D01*
X245743684Y189882800D01*
X245715600Y189878433D01*
X245686047Y189876958D01*
X245664208Y189877781D01*
X245636083Y189881389D01*
X245609241Y189887776D01*
X245560282Y189908340D01*
X245518428Y189938481D01*
X245484652Y189977268D01*
X245471091Y189999627D01*
X245459873Y190023895D01*
X245458957Y190026303D01*
X245450296Y190054376D01*
X245444015Y190086541D01*
X245439893Y190129002D01*
X245533481Y190129002D01*
X245537434Y190087124D01*
X245551822Y190043322D01*
X245575246Y190007810D01*
X245606290Y189981421D01*
X245624291Y189971882D01*
X245643851Y189964891D01*
X245664832Y189960592D01*
X245687117Y189959127D01*
X245715817Y189961538D01*
X245736572Y189966624D01*
X245755901Y189974391D01*
X245773921Y189984876D01*
X245790253Y189997872D01*
X245805086Y190013626D01*
X245817919Y190031748D01*
X245828859Y190052621D01*
X245837447Y190075703D01*
X245843644Y190101351D01*
X245847128Y190129002D01*
X245533481Y190129002D01*
X245439893Y190129002D01*
X245439053Y190137649D01*
X245437493Y190201540D01*
X245849268Y190201540D01*
X245847840Y190231643D01*
X245839318Y190279435D01*
X245830945Y190300816D01*
X245819397Y190320931D01*
X245801934Y190343732D01*
X245786421Y190358453D01*
X245769239Y190370681D01*
X245750335Y190380435D01*
X245730024Y190387513D01*
X245708074Y190391898D01*
X245684977Y190393376D01*
X245661678Y190391925D01*
X245621915Y190381212D01*
X245604349Y190371984D01*
X245588382Y190360206D01*
X245573539Y190345317D01*
X245560485Y190327734D01*
X245548604Y190306099D01*
X245538832Y190281475D01*
X245449218Y190281475D01*
X245452235Y190295881D01*
X245470341Y190348238D01*
X245497327Y190391867D01*
X245513977Y190410472D01*
X245532648Y190426884D01*
X245553462Y190441156D01*
X245576175Y190453052D01*
X245601187Y190462657D01*
X245628002Y190469649D01*
X245657239Y190474022D01*
X245688187Y190475498D01*
X245719747Y190473935D01*
G37*
G36*
X245147778Y190474256D02*
G01*
X245199678Y190463605D01*
X245223198Y190454359D01*
X245245087Y190442582D01*
X245265560Y190428134D01*
X245284257Y190411225D01*
X245301576Y190391349D01*
X245316910Y190369021D01*
X245330655Y190343360D01*
X245342146Y190315228D01*
X245351629Y190283478D01*
X245358543Y190249249D01*
X245362921Y190211311D01*
X245364397Y190170924D01*
X245363036Y190134763D01*
X245352272Y190067664D01*
X245332047Y190010546D01*
X245303739Y189963548D01*
X245268391Y189926574D01*
X245226611Y189899571D01*
X245203352Y189889857D01*
X245178615Y189882792D01*
X245152189Y189878432D01*
X245124404Y189876958D01*
X245119009Y189877011D01*
X245066830Y189883549D01*
X245021903Y189900307D01*
X244983835Y189926831D01*
X244967271Y189943912D01*
X244952622Y189963408D01*
X244952622Y189674467D01*
X244864079Y189674467D01*
X244864079Y190178741D01*
X244952622Y190178741D01*
X244953039Y190159748D01*
X244961216Y190097568D01*
X244978229Y190047768D01*
X245002265Y190009769D01*
X245032212Y189982693D01*
X245049311Y189973051D01*
X245067818Y189966030D01*
X245087986Y189961671D01*
X245109469Y189960197D01*
X245116432Y189960347D01*
X245137528Y189962729D01*
X245157412Y189967925D01*
X245176328Y189975995D01*
X245193807Y189986751D01*
X245210276Y190000576D01*
X245225011Y190017020D01*
X245238379Y190036743D01*
X245249654Y190059011D01*
X245258987Y190084535D01*
X245265841Y190112459D01*
X245270153Y190143284D01*
X245271620Y190176275D01*
X245271061Y190196810D01*
X245262258Y190256166D01*
X245244278Y190304838D01*
X245218937Y190342625D01*
X245187537Y190369790D01*
X245150675Y190386499D01*
X245130149Y190390835D01*
X245108399Y190392305D01*
X245105601Y190392280D01*
X245084905Y190390443D01*
X245065409Y190385778D01*
X245046852Y190378227D01*
X245029706Y190367969D01*
X245013485Y190354579D01*
X244998968Y190338526D01*
X244985720Y190319047D01*
X244974543Y190296952D01*
X244965240Y190271392D01*
X244958406Y190243338D01*
X244954089Y190212171D01*
X244952622Y190178741D01*
X244864079Y190178741D01*
X244864079Y190451675D01*
X244943037Y190451675D01*
X244943037Y190377416D01*
X244947292Y190383430D01*
X244983430Y190424893D01*
X245021416Y190452492D01*
X245042620Y190462311D01*
X245065219Y190469331D01*
X245092115Y190473983D01*
X245121194Y190475498D01*
X245147778Y190474256D01*
G37*
G36*
X243989068Y190451675D02*
G01*
X243989068Y189891847D01*
X244077611Y189891847D01*
X244077611Y190209170D01*
X244079080Y190239277D01*
X244083406Y190267275D01*
X244090238Y190292332D01*
X244099547Y190315091D01*
X244110774Y190334737D01*
X244124103Y190351971D01*
X244138883Y190366204D01*
X244155441Y190377940D01*
X244173268Y190386887D01*
X244192625Y190393217D01*
X244230178Y190397656D01*
X244252027Y190396190D01*
X244271947Y190391883D01*
X244289237Y190385148D01*
X244304459Y190376008D01*
X244317176Y190364911D01*
X244327686Y190351764D01*
X244341551Y190319969D01*
X244345382Y190287756D01*
X244345382Y189891847D01*
X244433925Y189891847D01*
X244433925Y190322932D01*
X244432454Y190345777D01*
X244428114Y190367100D01*
X244421173Y190386446D01*
X244411678Y190404144D01*
X244385559Y190434126D01*
X244349974Y190456745D01*
X244304746Y190471042D01*
X244255768Y190475498D01*
X244225141Y190474252D01*
X244197153Y190469799D01*
X244174333Y190463044D01*
X244152990Y190453495D01*
X244114731Y190426436D01*
X244077114Y190384772D01*
X244069097Y190373834D01*
X244069097Y190451675D01*
X243989068Y190451675D01*
G37*
G36*
X243836037Y189891847D02*
G01*
X243836037Y190451675D01*
X243746423Y190451675D01*
X243746423Y190142914D01*
X243744955Y190112891D01*
X243740636Y190084965D01*
X243733803Y190059926D01*
X243724499Y190037182D01*
X243713270Y190017528D01*
X243699947Y190000294D01*
X243685178Y189986065D01*
X243668646Y189974347D01*
X243650874Y189965438D01*
X243631597Y189959159D01*
X243594927Y189954847D01*
X243573067Y189956313D01*
X243553137Y189960620D01*
X243535843Y189967355D01*
X243520618Y189976493D01*
X243507902Y189987588D01*
X243497396Y190000731D01*
X243483542Y190032512D01*
X243479723Y190064653D01*
X243479723Y190451675D01*
X243391180Y190451675D01*
X243391180Y190029478D01*
X243392650Y190006654D01*
X243396986Y189985346D01*
X243403927Y189965984D01*
X243413418Y189948271D01*
X243439530Y189918241D01*
X243475067Y189895601D01*
X243520135Y189881338D01*
X243568267Y189876958D01*
X243597724Y189878093D01*
X243624745Y189882386D01*
X243647154Y189889045D01*
X243668042Y189898469D01*
X243705098Y189925108D01*
X243740227Y189965448D01*
X243753868Y189985741D01*
X243753868Y189891847D01*
X243836037Y189891847D01*
G37*
G36*
X243073734Y190474256D02*
G01*
X243125634Y190463605D01*
X243149154Y190454359D01*
X243171044Y190442582D01*
X243191516Y190428134D01*
X243210213Y190411225D01*
X243227532Y190391349D01*
X243242866Y190369021D01*
X243256612Y190343360D01*
X243268102Y190315228D01*
X243277585Y190283478D01*
X243284499Y190249249D01*
X243288877Y190211311D01*
X243290353Y190170924D01*
X243288992Y190134763D01*
X243278228Y190067664D01*
X243258003Y190010546D01*
X243229696Y189963548D01*
X243194348Y189926574D01*
X243152567Y189899571D01*
X243129308Y189889857D01*
X243104571Y189882792D01*
X243078146Y189878432D01*
X243050360Y189876958D01*
X243044966Y189877011D01*
X242992787Y189883549D01*
X242947859Y189900307D01*
X242909791Y189926831D01*
X242893227Y189943912D01*
X242878578Y189963408D01*
X242878578Y189674467D01*
X242790035Y189674467D01*
X242790035Y190178741D01*
X242878578Y190178741D01*
X242878996Y190159748D01*
X242887172Y190097568D01*
X242904185Y190047768D01*
X242928221Y190009769D01*
X242958168Y189982693D01*
X242975267Y189973051D01*
X242993775Y189966030D01*
X243013942Y189961671D01*
X243035425Y189960197D01*
X243042388Y189960347D01*
X243063484Y189962729D01*
X243083368Y189967925D01*
X243102284Y189975995D01*
X243119763Y189986751D01*
X243136232Y190000576D01*
X243150967Y190017020D01*
X243164335Y190036743D01*
X243175611Y190059011D01*
X243184943Y190084535D01*
X243191797Y190112459D01*
X243196109Y190143284D01*
X243197576Y190176275D01*
X243197017Y190196810D01*
X243188215Y190256166D01*
X243170234Y190304838D01*
X243144893Y190342625D01*
X243113493Y190369790D01*
X243076631Y190386499D01*
X243056106Y190390835D01*
X243034355Y190392305D01*
X243031557Y190392280D01*
X243010861Y190390443D01*
X242991365Y190385778D01*
X242972808Y190378227D01*
X242955662Y190367969D01*
X242939441Y190354579D01*
X242924924Y190338526D01*
X242911676Y190319047D01*
X242900499Y190296952D01*
X242891196Y190271392D01*
X242884362Y190243338D01*
X242880046Y190212171D01*
X242878578Y190178741D01*
X242790035Y190178741D01*
X242790035Y190451675D01*
X242868993Y190451675D01*
X242868993Y190377416D01*
X242873248Y190383430D01*
X242909386Y190424893D01*
X242947372Y190452492D01*
X242968576Y190462311D01*
X242991176Y190469331D01*
X243018072Y190473983D01*
X243047150Y190475498D01*
X243073734Y190474256D01*
G37*
G36*
X242460535Y190473935D02*
G01*
X242514820Y190462763D01*
X242561882Y190441523D01*
X242582882Y190427180D01*
X242602038Y190410466D01*
X242619616Y190391044D01*
X242635164Y190369286D01*
X242649000Y190344496D01*
X242660558Y190317368D01*
X242670056Y190286908D01*
X242676980Y190254100D01*
X242681357Y190217798D01*
X242682834Y190179159D01*
X242680387Y190130715D01*
X242667929Y190064922D01*
X242646184Y190008978D01*
X242616345Y189962836D01*
X242579233Y189926353D01*
X242558086Y189911724D01*
X242535250Y189899546D01*
X242510645Y189889850D01*
X242484472Y189882800D01*
X242456388Y189878433D01*
X242426835Y189876958D01*
X242404996Y189877781D01*
X242376871Y189881389D01*
X242350029Y189887776D01*
X242301070Y189908340D01*
X242259216Y189938481D01*
X242225440Y189977268D01*
X242211879Y189999627D01*
X242200661Y190023895D01*
X242199745Y190026303D01*
X242191085Y190054376D01*
X242184803Y190086541D01*
X242180681Y190129002D01*
X242274269Y190129002D01*
X242278223Y190087124D01*
X242292610Y190043322D01*
X242316035Y190007810D01*
X242347078Y189981421D01*
X242365080Y189971882D01*
X242384639Y189964891D01*
X242405620Y189960592D01*
X242427905Y189959127D01*
X242456605Y189961538D01*
X242477360Y189966624D01*
X242496690Y189974391D01*
X242514709Y189984876D01*
X242531041Y189997872D01*
X242545874Y190013626D01*
X242558707Y190031748D01*
X242569647Y190052621D01*
X242578235Y190075703D01*
X242584433Y190101351D01*
X242587916Y190129002D01*
X242274269Y190129002D01*
X242180681Y190129002D01*
X242179841Y190137649D01*
X242178281Y190201540D01*
X242590056Y190201540D01*
X242588628Y190231643D01*
X242580107Y190279435D01*
X242571733Y190300816D01*
X242560185Y190320931D01*
X242542723Y190343732D01*
X242527210Y190358453D01*
X242510028Y190370681D01*
X242491124Y190380435D01*
X242470812Y190387513D01*
X242448862Y190391898D01*
X242425765Y190393376D01*
X242402466Y190391925D01*
X242362703Y190381212D01*
X242345138Y190371984D01*
X242329170Y190360206D01*
X242314327Y190345317D01*
X242301274Y190327734D01*
X242289392Y190306099D01*
X242279620Y190281475D01*
X242190006Y190281475D01*
X242193023Y190295881D01*
X242211129Y190348238D01*
X242238115Y190391867D01*
X242254766Y190410472D01*
X242273436Y190426884D01*
X242294250Y190441156D01*
X242316963Y190453052D01*
X242341975Y190462657D01*
X242368791Y190469649D01*
X242398027Y190474022D01*
X242428976Y190475498D01*
X242460535Y190473935D01*
G37*
G36*
X242059308Y189891847D02*
G01*
X242059308Y190451675D01*
X241969742Y190451675D01*
X241969742Y190161107D01*
X241967953Y190124758D01*
X241963153Y190092398D01*
X241956353Y190067069D01*
X241947104Y190044767D01*
X241936479Y190027005D01*
X241923741Y190011701D01*
X241893237Y189989094D01*
X241853841Y189975039D01*
X241802157Y189969715D01*
X241790515Y189969829D01*
X241790515Y189879052D01*
X241802861Y189878116D01*
X241824620Y189876958D01*
X241844886Y189878473D01*
X241864171Y189883123D01*
X241898583Y189900926D01*
X241933082Y189932892D01*
X241972147Y189986275D01*
X241977186Y189994349D01*
X241977186Y189891847D01*
X242059308Y189891847D01*
G37*
G36*
X248795065Y191172007D02*
G01*
X248886819Y191172007D01*
X248886819Y191018418D01*
X248975362Y191018418D01*
X248975362Y191172007D01*
X249051110Y191172007D01*
X249051110Y191244592D01*
X248975362Y191244592D01*
X248975362Y191667115D01*
X248973885Y191685725D01*
X248969495Y191702227D01*
X248962832Y191715691D01*
X248953744Y191727256D01*
X248928837Y191744429D01*
X248893034Y191754104D01*
X248867603Y191755658D01*
X248834644Y191754035D01*
X248797398Y191748628D01*
X248795065Y191748213D01*
X248795065Y191673536D01*
X248837732Y191677816D01*
X248858849Y191676147D01*
X248873281Y191670418D01*
X248879408Y191664224D01*
X248883532Y191655709D01*
X248886819Y191627659D01*
X248886819Y191244592D01*
X248795065Y191244592D01*
X248795065Y191172007D01*
G37*
G36*
X248701776Y190954627D02*
G01*
X248701776Y191731835D01*
X248613233Y191731835D01*
X248613233Y191423725D01*
X248611765Y191393540D01*
X248607445Y191365481D01*
X248600618Y191340353D01*
X248591322Y191317541D01*
X248580109Y191297844D01*
X248566807Y191280577D01*
X248552064Y191266326D01*
X248535563Y191254589D01*
X248517820Y191245661D01*
X248498575Y191239363D01*
X248461737Y191235007D01*
X248440592Y191236479D01*
X248420546Y191240832D01*
X248402256Y191247824D01*
X248385707Y191257413D01*
X248382778Y191259527D01*
X248370242Y191270816D01*
X248360529Y191283783D01*
X248349252Y191313984D01*
X248346533Y191344813D01*
X248346533Y191731835D01*
X248257990Y191731835D01*
X248257990Y191309638D01*
X248259462Y191286245D01*
X248263816Y191264496D01*
X248270725Y191244996D01*
X248280181Y191227223D01*
X248306038Y191197469D01*
X248341224Y191175252D01*
X248386153Y191161326D01*
X248434006Y191157118D01*
X248465883Y191158662D01*
X248494621Y191163513D01*
X248517011Y191170475D01*
X248537946Y191180260D01*
X248575758Y191208014D01*
X248613233Y191249942D01*
X248613233Y190954627D01*
X248701776Y190954627D01*
G37*
G36*
X247918859Y191754095D02*
G01*
X247973144Y191742923D01*
X248020205Y191721683D01*
X248041205Y191707340D01*
X248060361Y191690626D01*
X248077939Y191671204D01*
X248093487Y191649446D01*
X248107323Y191624656D01*
X248118882Y191597528D01*
X248128380Y191567068D01*
X248135303Y191534260D01*
X248139681Y191497958D01*
X248141157Y191459319D01*
X248138710Y191410875D01*
X248126253Y191345082D01*
X248104508Y191289138D01*
X248074669Y191242996D01*
X248037557Y191206513D01*
X248016409Y191191884D01*
X247993574Y191179706D01*
X247968969Y191170010D01*
X247942796Y191162960D01*
X247914712Y191158593D01*
X247885159Y191157118D01*
X247863319Y191157941D01*
X247835195Y191161549D01*
X247808353Y191167936D01*
X247759394Y191188500D01*
X247717540Y191218641D01*
X247683764Y191257428D01*
X247670203Y191279787D01*
X247658985Y191304055D01*
X247658069Y191306463D01*
X247649408Y191334536D01*
X247643126Y191366701D01*
X247639004Y191409162D01*
X247732593Y191409162D01*
X247736546Y191367284D01*
X247750933Y191323482D01*
X247774358Y191287970D01*
X247805401Y191261581D01*
X247823403Y191252042D01*
X247842963Y191245051D01*
X247863944Y191240752D01*
X247886229Y191239287D01*
X247914929Y191241698D01*
X247935684Y191246784D01*
X247955013Y191254551D01*
X247973032Y191265036D01*
X247989365Y191278032D01*
X248004198Y191293786D01*
X248017030Y191311908D01*
X248027971Y191332781D01*
X248036559Y191355863D01*
X248042756Y191381511D01*
X248046240Y191409162D01*
X247732593Y191409162D01*
X247639004Y191409162D01*
X247638164Y191417809D01*
X247636605Y191481700D01*
X248048380Y191481700D01*
X248046952Y191511803D01*
X248038430Y191559595D01*
X248030057Y191580976D01*
X248018509Y191601091D01*
X248001046Y191623892D01*
X247985533Y191638613D01*
X247968351Y191650841D01*
X247949447Y191660595D01*
X247929135Y191667673D01*
X247907185Y191672058D01*
X247884089Y191673536D01*
X247860789Y191672085D01*
X247821026Y191661372D01*
X247803461Y191652144D01*
X247787494Y191640366D01*
X247772650Y191625477D01*
X247759597Y191607894D01*
X247747715Y191586259D01*
X247737943Y191561635D01*
X247648330Y191561635D01*
X247651346Y191576041D01*
X247669453Y191628398D01*
X247696439Y191672027D01*
X247713089Y191690632D01*
X247731759Y191707044D01*
X247752574Y191721316D01*
X247775287Y191733212D01*
X247800299Y191742817D01*
X247827114Y191749809D01*
X247856351Y191754182D01*
X247887299Y191755658D01*
X247918859Y191754095D01*
G37*
G36*
X246588742Y191196063D02*
G01*
X246597205Y191157868D01*
X246608133Y191122829D01*
X246620595Y191092914D01*
X246635238Y191065740D01*
X246651190Y191042444D01*
X246669134Y191021610D01*
X246688513Y191003698D01*
X246709797Y190988103D01*
X246758094Y190963848D01*
X246815678Y190948503D01*
X246884824Y190942729D01*
X246888523Y190942716D01*
X246926015Y190944201D01*
X246961611Y190948640D01*
X246993995Y190955673D01*
X247024496Y190965396D01*
X247052161Y190977344D01*
X247077949Y190991771D01*
X247101304Y191008264D01*
X247122756Y191027091D01*
X247134937Y191039774D01*
X247174383Y191091320D01*
X247206004Y191152199D01*
X247228750Y191221944D01*
X247241443Y191299674D01*
X247243767Y191352398D01*
X247242287Y191394620D01*
X247237883Y191435345D01*
X247230749Y191473820D01*
X247220888Y191510587D01*
X247208631Y191544830D01*
X247193854Y191577188D01*
X247177013Y191606891D01*
X247157852Y191634563D01*
X247131773Y191665021D01*
X247109212Y191685831D01*
X247085184Y191703840D01*
X247060357Y191718692D01*
X247033983Y191730982D01*
X246975972Y191748096D01*
X246908164Y191755431D01*
X246892804Y191755658D01*
X246854349Y191754169D01*
X246818314Y191749701D01*
X246786534Y191742754D01*
X246756909Y191733153D01*
X246730564Y191721475D01*
X246706195Y191707363D01*
X246684288Y191691222D01*
X246664267Y191672755D01*
X246629858Y191628806D01*
X246602455Y191574147D01*
X246582313Y191506728D01*
X246572736Y191448106D01*
X246675145Y191448106D01*
X246684194Y191494622D01*
X246695206Y191532885D01*
X246710367Y191568242D01*
X246721862Y191587861D01*
X246735598Y191605496D01*
X246769527Y191634720D01*
X246811787Y191655415D01*
X246862049Y191666584D01*
X246891734Y191668185D01*
X246920473Y191666710D01*
X246947784Y191662338D01*
X246973233Y191655278D01*
X246997173Y191645563D01*
X247040131Y191618606D01*
X247076674Y191581662D01*
X247106410Y191534513D01*
X247128466Y191476787D01*
X247141553Y191408254D01*
X247144568Y191351327D01*
X247143093Y191308951D01*
X247138720Y191269141D01*
X247131810Y191233182D01*
X247122337Y191199818D01*
X247110871Y191170258D01*
X247097164Y191143276D01*
X247081921Y191119831D01*
X247064722Y191098930D01*
X247046252Y191081184D01*
X247026052Y191065966D01*
X247004598Y191053557D01*
X246981578Y191043715D01*
X246931156Y191032013D01*
X246900248Y191030236D01*
X246839872Y191036000D01*
X246812415Y191042941D01*
X246787468Y191052401D01*
X246767077Y191063317D01*
X246749859Y191076170D01*
X246746659Y191079137D01*
X246730961Y191095747D01*
X246717883Y191114613D01*
X246699411Y191158260D01*
X246690080Y191196063D01*
X246588742Y191196063D01*
G37*
G36*
X246329998Y191377476D02*
G01*
X245906451Y191377476D01*
X245906451Y191290003D01*
X246329998Y191290003D01*
X246329998Y191042147D01*
X245890446Y191042147D01*
X245890446Y190954627D01*
X246429196Y190954627D01*
X246429196Y191731835D01*
X245871276Y191731835D01*
X245871276Y191644362D01*
X246329998Y191644362D01*
X246329998Y191377476D01*
G37*
G36*
X245211526Y191729261D02*
G01*
X245220522Y191702613D01*
X245227270Y191671903D01*
X245232862Y191604767D01*
X245231792Y191535347D01*
X245232110Y191520850D01*
X245238954Y191474454D01*
X245253466Y191441577D01*
X245263658Y191428739D01*
X245275895Y191418113D01*
X245291358Y191409117D01*
X245309272Y191402569D01*
X245332857Y191398009D01*
X245359791Y191396506D01*
X245615836Y191396506D01*
X245615836Y191731835D01*
X245715034Y191731835D01*
X245715034Y190954627D01*
X245356627Y190954627D01*
X245300959Y190958242D01*
X245245597Y190971244D01*
X245201629Y190992387D01*
X245167402Y191021174D01*
X245153545Y191038670D01*
X245142028Y191058114D01*
X245132578Y191080316D01*
X245125707Y191104552D01*
X245121281Y191132319D01*
X245119798Y191162283D01*
X245120467Y191175032D01*
X245223277Y191175032D01*
X245227783Y191133247D01*
X245241508Y191098280D01*
X245263803Y191071879D01*
X245274624Y191063663D01*
X245290925Y191054927D01*
X245309917Y191048594D01*
X245339413Y191043697D01*
X245375796Y191042147D01*
X245615836Y191042147D01*
X245615836Y191308987D01*
X245375796Y191308987D01*
X245348914Y191307989D01*
X245302142Y191299510D01*
X245268804Y191283630D01*
X245255778Y191272816D01*
X245245006Y191260004D01*
X245235932Y191244049D01*
X245229335Y191225725D01*
X245224779Y191201967D01*
X245223277Y191175032D01*
X245120467Y191175032D01*
X245121454Y191193848D01*
X245131737Y191239110D01*
X245140543Y191258892D01*
X245151950Y191277156D01*
X245167209Y191295273D01*
X245185717Y191312066D01*
X245211665Y191330322D01*
X245242446Y191347419D01*
X245218543Y191358709D01*
X245183735Y191382049D01*
X245171042Y191395235D01*
X245160714Y191410237D01*
X245151612Y191429932D01*
X245144976Y191453067D01*
X245138942Y191496016D01*
X245136827Y191550282D01*
X245135548Y191589869D01*
X245129355Y191646969D01*
X245117773Y191678982D01*
X245105913Y191694279D01*
X245089927Y191707315D01*
X245089927Y191731835D01*
X245210435Y191731835D01*
X245211526Y191729261D01*
G37*
G36*
X244360550Y190954627D02*
G01*
X244454444Y190954627D01*
X244454444Y191590064D01*
X244860868Y190954627D01*
X244968628Y190954627D01*
X244968628Y191731835D01*
X244874734Y191731835D01*
X244874734Y191101796D01*
X244472590Y191731835D01*
X244360550Y191731835D01*
X244360550Y190954627D01*
G37*
G36*
X243976971Y191398972D02*
G01*
X244230876Y191398972D01*
X244230876Y191475744D01*
X243976971Y191475744D01*
X243976971Y191398972D01*
G37*
G36*
X243482153Y191755657D02*
G01*
X243518409Y191754135D01*
X243553245Y191749764D01*
X243586425Y191742668D01*
X243618053Y191732912D01*
X243648021Y191720591D01*
X243676293Y191705775D01*
X243702877Y191688487D01*
X243727607Y191668848D01*
X243750566Y191646774D01*
X243771493Y191622479D01*
X243790494Y191595764D01*
X243807266Y191566952D01*
X243821886Y191535753D01*
X243834064Y191502583D01*
X243843815Y191467111D01*
X243850901Y191429801D01*
X243855267Y191390338D01*
X243856742Y191349187D01*
X243856730Y191345527D01*
X243855024Y191305146D01*
X243850484Y191266384D01*
X243833462Y191194732D01*
X243806658Y191131131D01*
X243770991Y191076022D01*
X243727246Y191029777D01*
X243676055Y190992779D01*
X243647815Y190977886D01*
X243617908Y190965501D01*
X243586317Y190955684D01*
X243553206Y190948558D01*
X243518456Y190944191D01*
X243482329Y190942716D01*
X243478480Y190942732D01*
X243407060Y190949028D01*
X243342409Y190966142D01*
X243312647Y190978533D01*
X243284610Y190993398D01*
X243258291Y191010716D01*
X243233834Y191030376D01*
X243211121Y191052505D01*
X243190433Y191076870D01*
X243171609Y191103760D01*
X243155002Y191132792D01*
X243140473Y191164396D01*
X243128376Y191198051D01*
X243118647Y191234270D01*
X243111579Y191272439D01*
X243107205Y191313084D01*
X243105802Y191353468D01*
X243204927Y191353468D01*
X243209905Y191283286D01*
X243225238Y191217924D01*
X243249636Y191162252D01*
X243282033Y191116213D01*
X243321723Y191079718D01*
X243344197Y191065058D01*
X243368364Y191052859D01*
X243394337Y191043143D01*
X243421888Y191036081D01*
X243451369Y191031711D01*
X243482329Y191030236D01*
X243531060Y191034139D01*
X243558779Y191040201D01*
X243585027Y191048944D01*
X243609839Y191060336D01*
X243633008Y191074251D01*
X243654708Y191090811D01*
X243674565Y191109767D01*
X243692793Y191131414D01*
X243708944Y191155343D01*
X243723182Y191181980D01*
X243735084Y191210778D01*
X243744706Y191242198D01*
X243751720Y191275637D01*
X243756071Y191311490D01*
X243757544Y191349187D01*
X243752879Y191415291D01*
X243737694Y191480019D01*
X243713224Y191535617D01*
X243680601Y191581840D01*
X243640673Y191618554D01*
X243618158Y191633281D01*
X243593975Y191645546D01*
X243568141Y191655276D01*
X243540784Y191662353D01*
X243511719Y191666711D01*
X243481259Y191668185D01*
X243433348Y191664385D01*
X243405479Y191658347D01*
X243379047Y191649610D01*
X243353989Y191638194D01*
X243330560Y191624243D01*
X243308608Y191607657D01*
X243288504Y191588684D01*
X243270085Y191567099D01*
X243253756Y191543270D01*
X243239416Y191516901D01*
X243227425Y191488444D01*
X243217776Y191457612D01*
X243210742Y191424872D01*
X243206399Y191390021D01*
X243204927Y191353468D01*
X243105802Y191353468D01*
X243105729Y191355561D01*
X243105833Y191365523D01*
X243108135Y191403498D01*
X243113383Y191440751D01*
X243132226Y191511759D01*
X243160874Y191575507D01*
X243197453Y191629819D01*
X243240149Y191673536D01*
X243285260Y191705543D01*
X243313538Y191720428D01*
X243343504Y191732771D01*
X243375518Y191742639D01*
X243409050Y191749780D01*
X243444488Y191754179D01*
X243481259Y191755658D01*
X243482153Y191755657D01*
G37*
G36*
X242480157Y191377476D02*
G01*
X242480157Y191731835D01*
X242380958Y191731835D01*
X242380958Y190954627D01*
X242480157Y190954627D01*
X242480157Y191290003D01*
X242880207Y191290003D01*
X242880207Y190954627D01*
X242979405Y190954627D01*
X242979405Y191731835D01*
X242880207Y191731835D01*
X242880207Y191377476D01*
X242480157Y191377476D01*
G37*
G36*
X242113653Y190954627D02*
G01*
X242212852Y190954627D01*
X242212852Y191731835D01*
X241729609Y191731835D01*
X241729609Y191644362D01*
X242113653Y191644362D01*
X242113653Y190954627D01*
G37*
G36*
X241543357Y191398972D02*
G01*
X241797261Y191398972D01*
X241797261Y191475744D01*
X241543357Y191475744D01*
X241543357Y191398972D01*
G37*
G36*
X240847992Y191183314D02*
G01*
X240850148Y191134481D01*
X240859289Y191099461D01*
X240868231Y191079137D01*
X240880871Y191056083D01*
X240895797Y191035102D01*
X240931771Y190999906D01*
X240976598Y190972817D01*
X241031396Y190953873D01*
X241097681Y190943900D01*
X241132791Y190942716D01*
X241170242Y190944190D01*
X241205373Y190948554D01*
X241237123Y190955459D01*
X241266498Y190964916D01*
X241292549Y190976408D01*
X241316209Y190990135D01*
X241336776Y191005505D01*
X241354939Y191022839D01*
X241370305Y191041634D01*
X241383222Y191062184D01*
X241393547Y191084250D01*
X241401318Y191107921D01*
X241408930Y191160254D01*
X241409123Y191170565D01*
X241407632Y191197768D01*
X241403150Y191222900D01*
X241396249Y191244525D01*
X241386715Y191264364D01*
X241374966Y191281879D01*
X241360731Y191297738D01*
X241324365Y191324748D01*
X241275270Y191345919D01*
X241256556Y191351327D01*
X241063464Y191402369D01*
X241026252Y191413500D01*
X240994945Y191426252D01*
X240972641Y191438582D01*
X240954454Y191452261D01*
X240941586Y191465694D01*
X240931845Y191480312D01*
X240921644Y191511692D01*
X240920529Y191527856D01*
X240926176Y191564648D01*
X240943326Y191601042D01*
X240955719Y191617106D01*
X240970201Y191630866D01*
X240975991Y191635243D01*
X241010395Y191652860D01*
X241060079Y191664514D01*
X241118926Y191668185D01*
X241156976Y191666679D01*
X241191005Y191662097D01*
X241217833Y191655430D01*
X241241860Y191646230D01*
X241261737Y191635394D01*
X241279460Y191622276D01*
X241298153Y191603324D01*
X241312601Y191583926D01*
X241323798Y191563571D01*
X241336302Y191521901D01*
X241338679Y191484259D01*
X241432573Y191484259D01*
X241430470Y191523142D01*
X241425285Y191557384D01*
X241418163Y191583955D01*
X241408469Y191608285D01*
X241386696Y191644828D01*
X241369799Y191665597D01*
X241350810Y191684231D01*
X241306594Y191715146D01*
X241253252Y191737783D01*
X241189583Y191751636D01*
X241125347Y191755658D01*
X241084073Y191754184D01*
X241045368Y191749823D01*
X241010555Y191742944D01*
X240978480Y191733532D01*
X240950573Y191722261D01*
X240925454Y191708827D01*
X240906664Y191695962D01*
X240872079Y191661113D01*
X240844414Y191616749D01*
X240834163Y191591986D01*
X240826776Y191566315D01*
X240821284Y191518271D01*
X240822763Y191492749D01*
X240827156Y191468574D01*
X240834217Y191446287D01*
X240843949Y191425426D01*
X240871026Y191388430D01*
X240908533Y191357520D01*
X240957167Y191333219D01*
X240986646Y191323690D01*
X241181878Y191271578D01*
X241222081Y191259044D01*
X241253903Y191245260D01*
X241272698Y191233692D01*
X241287352Y191220812D01*
X241296960Y191208299D01*
X241303787Y191194417D01*
X241309790Y191161894D01*
X241309878Y191156746D01*
X241308409Y191137361D01*
X241304087Y191119210D01*
X241287483Y191087123D01*
X241260445Y191060587D01*
X241222691Y191040456D01*
X241174035Y191028421D01*
X241136002Y191025955D01*
X241102297Y191027437D01*
X241071596Y191031853D01*
X241045793Y191038559D01*
X241022708Y191047732D01*
X241003594Y191058534D01*
X240986961Y191071444D01*
X240973386Y191085776D01*
X240962177Y191101994D01*
X240947089Y191139714D01*
X240941839Y191183314D01*
X240847992Y191183314D01*
G37*
G36*
X240172494Y191731835D02*
G01*
X239958092Y191172007D01*
X240058361Y191172007D01*
X240216231Y191626123D01*
X240365587Y191172007D01*
X240465855Y191172007D01*
X240269599Y191731835D01*
X240172494Y191731835D01*
G37*
G36*
X239403708Y191640128D02*
G01*
X239801618Y191640128D01*
X239796375Y191615580D01*
X239788009Y191592985D01*
X239777699Y191574303D01*
X239764272Y191556308D01*
X239725522Y191519881D01*
X239665057Y191478768D01*
X239558414Y191418886D01*
X239526011Y191399157D01*
X239497209Y191378041D01*
X239473313Y191356832D01*
X239452679Y191334439D01*
X239436041Y191311980D01*
X239422413Y191288489D01*
X239412076Y191264711D01*
X239404612Y191240002D01*
X239398368Y191188267D01*
X239398357Y191185919D01*
X239404173Y191133689D01*
X239411386Y191108599D01*
X239421323Y191084711D01*
X239433871Y191062269D01*
X239448925Y191041492D01*
X239468801Y191020325D01*
X239489276Y191003823D01*
X239511235Y190990045D01*
X239558838Y190970830D01*
X239614482Y190961487D01*
X239640537Y190960583D01*
X239674187Y190962068D01*
X239705640Y190966509D01*
X239733392Y190973431D01*
X239759069Y190982973D01*
X239781708Y190994572D01*
X239802352Y191008547D01*
X239820572Y191024498D01*
X239836802Y191042690D01*
X239849635Y191060898D01*
X239862154Y191082758D01*
X239872159Y191106657D01*
X239885086Y191161888D01*
X239890161Y191227609D01*
X239796267Y191227609D01*
X239791947Y191182110D01*
X239784816Y191147140D01*
X239773887Y191118593D01*
X239750459Y191086194D01*
X239718385Y191061659D01*
X239699584Y191052875D01*
X239679371Y191046729D01*
X239643747Y191042752D01*
X239621381Y191044212D01*
X239600223Y191048475D01*
X239580210Y191055471D01*
X239561816Y191064983D01*
X239545116Y191076924D01*
X239530448Y191091047D01*
X239518028Y191107132D01*
X239508019Y191125020D01*
X239500681Y191144305D01*
X239496077Y191164996D01*
X239494391Y191188060D01*
X239495875Y191209759D01*
X239500304Y191230674D01*
X239517650Y191269543D01*
X239546743Y191305118D01*
X239588856Y191337264D01*
X239596800Y191341975D01*
X239694928Y191399670D01*
X239743560Y191429455D01*
X239784494Y191458836D01*
X239811682Y191482273D01*
X239834789Y191506501D01*
X239852325Y191529331D01*
X239867023Y191553503D01*
X239888440Y191606058D01*
X239901964Y191671471D01*
X239907237Y191731835D01*
X239403708Y191731835D01*
X239403708Y191640128D01*
G37*
G36*
X248359794Y192476223D02*
G01*
X248368256Y192438028D01*
X248379185Y192402989D01*
X248391647Y192373074D01*
X248406290Y192345900D01*
X248422242Y192322604D01*
X248440186Y192301770D01*
X248459565Y192283858D01*
X248480849Y192268263D01*
X248529146Y192244008D01*
X248586730Y192228663D01*
X248655876Y192222889D01*
X248659575Y192222876D01*
X248697067Y192224361D01*
X248732663Y192228800D01*
X248765046Y192235833D01*
X248795548Y192245556D01*
X248823213Y192257504D01*
X248849001Y192271931D01*
X248872356Y192288424D01*
X248893808Y192307251D01*
X248905989Y192319934D01*
X248945435Y192371480D01*
X248977056Y192432359D01*
X248999802Y192502104D01*
X249012495Y192579834D01*
X249014818Y192632558D01*
X249013338Y192674780D01*
X249008935Y192715505D01*
X249001801Y192753980D01*
X248991940Y192790747D01*
X248979683Y192824990D01*
X248964906Y192857348D01*
X248948064Y192887051D01*
X248928904Y192914723D01*
X248902825Y192945181D01*
X248880263Y192965991D01*
X248856235Y192984000D01*
X248831409Y192998852D01*
X248805035Y193011142D01*
X248747024Y193028256D01*
X248679216Y193035591D01*
X248663856Y193035818D01*
X248625401Y193034329D01*
X248589366Y193029861D01*
X248557586Y193022914D01*
X248527960Y193013313D01*
X248501616Y193001635D01*
X248477247Y192987523D01*
X248455340Y192971382D01*
X248435319Y192952915D01*
X248400910Y192908966D01*
X248373507Y192854307D01*
X248353365Y192786888D01*
X248343788Y192728266D01*
X248446197Y192728266D01*
X248455245Y192774782D01*
X248466258Y192813045D01*
X248481418Y192848402D01*
X248492913Y192868021D01*
X248506650Y192885656D01*
X248540579Y192914880D01*
X248582838Y192935575D01*
X248633101Y192946744D01*
X248662786Y192948345D01*
X248691524Y192946870D01*
X248718836Y192942498D01*
X248744285Y192935438D01*
X248768225Y192925723D01*
X248811183Y192898766D01*
X248847725Y192861822D01*
X248877462Y192814673D01*
X248899518Y192756947D01*
X248912605Y192688414D01*
X248915620Y192631487D01*
X248914145Y192589111D01*
X248909771Y192549301D01*
X248902861Y192513342D01*
X248893389Y192479978D01*
X248881923Y192450418D01*
X248868216Y192423436D01*
X248852973Y192399991D01*
X248835774Y192379090D01*
X248817304Y192361344D01*
X248797104Y192346126D01*
X248775650Y192333717D01*
X248752630Y192323875D01*
X248702208Y192312173D01*
X248671300Y192310396D01*
X248610923Y192316160D01*
X248583467Y192323101D01*
X248558519Y192332561D01*
X248538129Y192343477D01*
X248520911Y192356330D01*
X248517710Y192359297D01*
X248502012Y192375907D01*
X248488935Y192394773D01*
X248470463Y192438420D01*
X248461132Y192476223D01*
X248359794Y192476223D01*
G37*
G36*
X248039309Y193034235D02*
G01*
X248093526Y193023120D01*
X248140217Y193002069D01*
X248160991Y192987851D01*
X248179920Y192971262D01*
X248197305Y192951922D01*
X248212671Y192930217D01*
X248226393Y192905332D01*
X248237852Y192878035D01*
X248247318Y192847126D01*
X248254217Y192813739D01*
X248258606Y192776434D01*
X248260083Y192736595D01*
X248258023Y192690005D01*
X248246416Y192622953D01*
X248225894Y192567157D01*
X248197552Y192521776D01*
X248161902Y192486081D01*
X248141274Y192471710D01*
X248118861Y192459760D01*
X248094259Y192450140D01*
X248067903Y192443147D01*
X248038988Y192438756D01*
X248008319Y192437278D01*
X247974025Y192439016D01*
X247919603Y192450267D01*
X247873175Y192471248D01*
X247852612Y192485376D01*
X247833909Y192501861D01*
X247816725Y192521135D01*
X247801555Y192542798D01*
X247787955Y192567811D01*
X247776609Y192595315D01*
X247767173Y192626780D01*
X247760302Y192660879D01*
X247755895Y192699463D01*
X247754452Y192739759D01*
X247847238Y192739759D01*
X247847785Y192717291D01*
X247856181Y192654836D01*
X247873092Y192605679D01*
X247896924Y192568447D01*
X247926964Y192541846D01*
X247944434Y192532274D01*
X247963445Y192525307D01*
X247984583Y192520924D01*
X248007249Y192519447D01*
X248013582Y192519560D01*
X248055227Y192526669D01*
X248073943Y192534275D01*
X248091130Y192544479D01*
X248107167Y192557625D01*
X248121456Y192573362D01*
X248134484Y192592550D01*
X248145446Y192614400D01*
X248154670Y192640168D01*
X248161436Y192668668D01*
X248165787Y192701263D01*
X248167260Y192736595D01*
X248166789Y192756841D01*
X248158530Y192818386D01*
X248141560Y192867299D01*
X248117523Y192904580D01*
X248087255Y192931277D01*
X248069739Y192940866D01*
X248050712Y192947848D01*
X248029711Y192952220D01*
X248007249Y192953696D01*
X248001670Y192953606D01*
X247960034Y192946609D01*
X247941206Y192939007D01*
X247923885Y192928788D01*
X247907703Y192915628D01*
X247893268Y192899880D01*
X247880141Y192880779D01*
X247869086Y192859069D01*
X247859836Y192833684D01*
X247853047Y192805685D01*
X247848709Y192773995D01*
X247847238Y192739759D01*
X247754452Y192739759D01*
X247754414Y192740829D01*
X247756352Y192784846D01*
X247767850Y192850854D01*
X247788417Y192906139D01*
X247816960Y192951335D01*
X247852932Y192987005D01*
X247873737Y193001381D01*
X247896338Y193013344D01*
X247921090Y193022963D01*
X247947590Y193029959D01*
X247976554Y193034341D01*
X248007249Y193035818D01*
X248039309Y193034235D01*
G37*
G36*
X247648283Y192452167D02*
G01*
X247566161Y192452167D01*
X247566161Y192536477D01*
X247557391Y192523399D01*
X247523488Y192485525D01*
X247484391Y192458718D01*
X247462632Y192449223D01*
X247439553Y192442463D01*
X247414436Y192438389D01*
X247388004Y192437278D01*
X247363562Y192438380D01*
X247312383Y192448809D01*
X247289050Y192458012D01*
X247267300Y192469778D01*
X247246879Y192484279D01*
X247228203Y192501274D01*
X247210870Y192521281D01*
X247195507Y192543762D01*
X247181738Y192569571D01*
X247170218Y192597854D01*
X247160730Y192629667D01*
X247153808Y192663933D01*
X247149440Y192701723D01*
X247148044Y192739759D01*
X247240789Y192739759D01*
X247241395Y192717693D01*
X247250253Y192657197D01*
X247268103Y192608065D01*
X247293145Y192570179D01*
X247324172Y192543035D01*
X247341757Y192533375D01*
X247360730Y192526335D01*
X247381207Y192521989D01*
X247402940Y192520517D01*
X247406256Y192520552D01*
X247427019Y192522439D01*
X247446529Y192527131D01*
X247465005Y192534671D01*
X247482043Y192544896D01*
X247498140Y192558247D01*
X247512524Y192574260D01*
X247525685Y192593788D01*
X247536778Y192615974D01*
X247546058Y192641850D01*
X247552871Y192670318D01*
X247557201Y192702247D01*
X247558670Y192736595D01*
X247558325Y192753472D01*
X247550329Y192815059D01*
X247533335Y192864820D01*
X247509242Y192902956D01*
X247479309Y192930133D01*
X247443954Y192946810D01*
X247424081Y192951154D01*
X247402940Y192952625D01*
X247396903Y192952513D01*
X247375697Y192950246D01*
X247355705Y192945154D01*
X247336655Y192937174D01*
X247319050Y192926507D01*
X247302456Y192912777D01*
X247287611Y192896447D01*
X247274156Y192876891D01*
X247262811Y192854841D01*
X247253444Y192829660D01*
X247246568Y192802169D01*
X247242256Y192771980D01*
X247240789Y192739759D01*
X247148044Y192739759D01*
X247147965Y192741899D01*
X247149291Y192777783D01*
X247159966Y192845121D01*
X247180063Y192902332D01*
X247208198Y192949328D01*
X247243341Y192986259D01*
X247284917Y193013222D01*
X247308093Y193022925D01*
X247332761Y193029984D01*
X247359156Y193034344D01*
X247386934Y193035818D01*
X247429195Y193032524D01*
X247475004Y193019221D01*
X247496517Y193008207D01*
X247516872Y192994254D01*
X247538230Y192975337D01*
X247558670Y192952625D01*
X247558670Y193243846D01*
X247648283Y193243846D01*
X247648283Y192452167D01*
G37*
G36*
X246718788Y192452167D02*
G01*
X246873448Y192887765D01*
X247016383Y192452167D01*
X247111347Y192452167D01*
X246922536Y193013764D01*
X246956641Y193102353D01*
X246966110Y193122980D01*
X246977228Y193138290D01*
X246987324Y193146742D01*
X246999074Y193152506D01*
X247028155Y193156791D01*
X247073557Y193150750D01*
X247075055Y193150417D01*
X247075055Y193230399D01*
X247057379Y193238063D01*
X247038612Y193242602D01*
X247015313Y193244265D01*
X246975568Y193238506D01*
X246955717Y193231224D01*
X246937373Y193221224D01*
X246932120Y193217604D01*
X246914826Y193203035D01*
X246900280Y193186165D01*
X246877892Y193145379D01*
X246871308Y193129061D01*
X246622754Y192452167D01*
X246718788Y192452167D01*
G37*
G36*
X246526022Y192452167D02*
G01*
X246526022Y193011995D01*
X246436455Y193011995D01*
X246436455Y192721427D01*
X246434666Y192685078D01*
X246429866Y192652718D01*
X246423066Y192627389D01*
X246413817Y192605087D01*
X246403193Y192587325D01*
X246390454Y192572021D01*
X246359951Y192549414D01*
X246320554Y192535359D01*
X246268870Y192530035D01*
X246257228Y192530149D01*
X246257228Y192439372D01*
X246269574Y192438436D01*
X246291333Y192437278D01*
X246311600Y192438793D01*
X246330884Y192443443D01*
X246365296Y192461246D01*
X246399795Y192493212D01*
X246438860Y192546595D01*
X246443899Y192554669D01*
X246443899Y192452167D01*
X246526022Y192452167D01*
G37*
G36*
X246083771Y192452167D02*
G01*
X246172314Y192452167D01*
X246172314Y193011995D01*
X246083771Y193011995D01*
X246083771Y192452167D01*
G37*
G36*
X246083771Y192234787D02*
G01*
X246173384Y192234787D01*
X246173384Y192346827D01*
X246083771Y192346827D01*
X246083771Y192234787D01*
G37*
G36*
X245749521Y193244152D02*
G01*
X245806864Y193237114D01*
X245855011Y193220293D01*
X245893845Y193195069D01*
X245923378Y193162336D01*
X245934618Y193143252D01*
X245943374Y193122459D01*
X245949602Y193099753D01*
X245953073Y193075460D01*
X245862389Y193075460D01*
X245858923Y193093616D01*
X245845479Y193125294D01*
X245835605Y193137819D01*
X245823569Y193148225D01*
X245808109Y193157114D01*
X245790040Y193163605D01*
X245766124Y193168135D01*
X245738670Y193169633D01*
X245693957Y193165869D01*
X245657141Y193153758D01*
X245642201Y193144559D01*
X245629184Y193133084D01*
X245617374Y193118278D01*
X245607583Y193100683D01*
X245598758Y193077001D01*
X245592349Y193049362D01*
X245587629Y193010071D01*
X245586104Y192964351D01*
X245586104Y192935596D01*
X245624381Y192983612D01*
X245660344Y193012570D01*
X245679536Y193022553D01*
X245699770Y193029678D01*
X245723172Y193034306D01*
X245748255Y193035818D01*
X245773516Y193034082D01*
X245796568Y193029347D01*
X245818882Y193021676D01*
X245840811Y193010866D01*
X245861712Y192997131D01*
X245881945Y192980084D01*
X245900821Y192960116D01*
X245922781Y192930748D01*
X245937024Y192906145D01*
X245948730Y192879915D01*
X245958284Y192850626D01*
X245965177Y192819154D01*
X245969719Y192782088D01*
X245971219Y192741899D01*
X245969909Y192705859D01*
X245959067Y192636056D01*
X245938591Y192575933D01*
X245910194Y192526411D01*
X245875431Y192487799D01*
X245835440Y192460038D01*
X245790851Y192443090D01*
X245766897Y192438749D01*
X245741881Y192437278D01*
X245697805Y192441795D01*
X245676551Y192447970D01*
X245656608Y192456849D01*
X245636690Y192469294D01*
X245617850Y192484929D01*
X245597301Y192506891D01*
X245577590Y192533266D01*
X245577590Y192452167D01*
X245495421Y192452167D01*
X245495421Y192739759D01*
X245586104Y192739759D01*
X245586292Y192725407D01*
X245593232Y192658071D01*
X245608463Y192606599D01*
X245630234Y192568574D01*
X245657835Y192541864D01*
X245674027Y192532292D01*
X245691737Y192525339D01*
X245711744Y192520928D01*
X245733320Y192519447D01*
X245770381Y192524364D01*
X245788125Y192530917D01*
X245804404Y192540116D01*
X245819741Y192552418D01*
X245833403Y192567431D01*
X245846065Y192586322D01*
X245856722Y192608108D01*
X245865850Y192634553D01*
X245872546Y192664097D01*
X245876919Y192698732D01*
X245878395Y192736595D01*
X245878277Y192747672D01*
X245871632Y192814463D01*
X245856493Y192866064D01*
X245834725Y192904374D01*
X245807234Y192931269D01*
X245791251Y192940855D01*
X245773799Y192947828D01*
X245754298Y192952218D01*
X245733320Y192953696D01*
X245694814Y192948629D01*
X245676825Y192942052D01*
X245660327Y192932859D01*
X245644880Y192920666D01*
X245631123Y192905807D01*
X245618437Y192887221D01*
X245607761Y192865796D01*
X245598641Y192839870D01*
X245591949Y192810896D01*
X245587579Y192776929D01*
X245586104Y192739759D01*
X245495421Y192739759D01*
X245495421Y192919637D01*
X245498549Y193006717D01*
X245509123Y193077341D01*
X245526837Y193129401D01*
X245539268Y193152174D01*
X245554093Y193172797D01*
X245579419Y193197327D01*
X245599576Y193210783D01*
X245622354Y193222131D01*
X245648532Y193231565D01*
X245677019Y193238482D01*
X245708000Y193242797D01*
X245740811Y193244265D01*
X245749521Y193244152D01*
G37*
G36*
X245348764Y192234787D02*
G01*
X245348764Y193011995D01*
X245260220Y193011995D01*
X245260220Y192703885D01*
X245258752Y192673700D01*
X245254433Y192645641D01*
X245247605Y192620513D01*
X245238310Y192597701D01*
X245227097Y192578004D01*
X245213794Y192560737D01*
X245199051Y192546486D01*
X245182550Y192534749D01*
X245164807Y192525821D01*
X245145562Y192519523D01*
X245108724Y192515167D01*
X245087579Y192516639D01*
X245067533Y192520992D01*
X245049243Y192527984D01*
X245032694Y192537573D01*
X245029766Y192539687D01*
X245017229Y192550976D01*
X245007517Y192563943D01*
X244996239Y192594144D01*
X244993520Y192624973D01*
X244993520Y193011995D01*
X244904977Y193011995D01*
X244904977Y192589798D01*
X244906450Y192566405D01*
X244910803Y192544656D01*
X244917712Y192525156D01*
X244927168Y192507383D01*
X244953026Y192477629D01*
X244988212Y192455412D01*
X245033141Y192441486D01*
X245080993Y192437278D01*
X245112870Y192438822D01*
X245141608Y192443673D01*
X245163998Y192450635D01*
X245184933Y192460420D01*
X245222745Y192488174D01*
X245260220Y192530102D01*
X245260220Y192234787D01*
X245348764Y192234787D01*
G37*
G36*
X244559877Y192452167D02*
G01*
X244651631Y192452167D01*
X244651631Y192298578D01*
X244740174Y192298578D01*
X244740174Y192452167D01*
X244815922Y192452167D01*
X244815922Y192524752D01*
X244740174Y192524752D01*
X244740174Y192947275D01*
X244738696Y192965885D01*
X244734307Y192982387D01*
X244727643Y192995851D01*
X244718556Y193007416D01*
X244693648Y193024589D01*
X244657846Y193034264D01*
X244632414Y193035818D01*
X244599456Y193034195D01*
X244562209Y193028788D01*
X244559877Y193028373D01*
X244559877Y192953696D01*
X244602543Y192957976D01*
X244623661Y192956307D01*
X244638092Y192950578D01*
X244644219Y192944384D01*
X244648344Y192935869D01*
X244651631Y192907819D01*
X244651631Y192524752D01*
X244559877Y192524752D01*
X244559877Y192452167D01*
G37*
G36*
X244141169Y192234787D02*
G01*
X243820078Y192234787D01*
X243756315Y192240133D01*
X243703869Y192255061D01*
X243661314Y192278467D01*
X243627570Y192310098D01*
X243613759Y192329299D01*
X243602258Y192350551D01*
X243592807Y192374728D01*
X243585927Y192401032D01*
X243581519Y192430873D01*
X243580236Y192458681D01*
X243683517Y192458681D01*
X243684636Y192438506D01*
X243694618Y192399518D01*
X243703243Y192382880D01*
X243714207Y192368105D01*
X243727729Y192355023D01*
X243743530Y192344028D01*
X243762359Y192334862D01*
X243783494Y192328132D01*
X243808082Y192323780D01*
X243835013Y192322307D01*
X244041971Y192322307D01*
X244041971Y192595102D01*
X243835013Y192595102D01*
X243809006Y192593733D01*
X243764937Y192583546D01*
X243730704Y192564746D01*
X243705497Y192537990D01*
X243696175Y192521397D01*
X243689354Y192502918D01*
X243684991Y192481741D01*
X243683517Y192458681D01*
X243580236Y192458681D01*
X243580038Y192462962D01*
X243581731Y192496698D01*
X243592229Y192545631D01*
X243601235Y192567356D01*
X243612880Y192587609D01*
X243628439Y192607961D01*
X243647272Y192627114D01*
X243653301Y192632356D01*
X243694615Y192659861D01*
X243717245Y192669606D01*
X243741289Y192676628D01*
X243768504Y192681128D01*
X243797651Y192682622D01*
X244041971Y192682622D01*
X244041971Y193011995D01*
X244141169Y193011995D01*
X244141169Y192234787D01*
G37*
G36*
X243385969Y192234787D02*
G01*
X243475582Y192234787D01*
X243475582Y193011995D01*
X243385969Y193011995D01*
X243385969Y192234787D01*
G37*
G36*
X243052223Y193034235D02*
G01*
X243106441Y193023120D01*
X243153132Y193002069D01*
X243173906Y192987851D01*
X243192835Y192971262D01*
X243210220Y192951922D01*
X243225586Y192930217D01*
X243239308Y192905332D01*
X243250767Y192878035D01*
X243260233Y192847126D01*
X243267131Y192813739D01*
X243271520Y192776434D01*
X243272998Y192736595D01*
X243270938Y192690005D01*
X243259331Y192622953D01*
X243238809Y192567157D01*
X243210467Y192521776D01*
X243174817Y192486081D01*
X243154189Y192471710D01*
X243131776Y192459760D01*
X243107173Y192450140D01*
X243080817Y192443147D01*
X243051903Y192438756D01*
X243021234Y192437278D01*
X242986940Y192439016D01*
X242932517Y192450267D01*
X242886089Y192471248D01*
X242865527Y192485376D01*
X242846824Y192501861D01*
X242829639Y192521135D01*
X242814470Y192542798D01*
X242800870Y192567811D01*
X242789523Y192595315D01*
X242780088Y192626780D01*
X242773217Y192660879D01*
X242768809Y192699463D01*
X242767367Y192739759D01*
X242860153Y192739759D01*
X242860699Y192717291D01*
X242869096Y192654836D01*
X242886007Y192605679D01*
X242909839Y192568447D01*
X242939879Y192541846D01*
X242957349Y192532274D01*
X242976360Y192525307D01*
X242997498Y192520924D01*
X243020164Y192519447D01*
X243026497Y192519560D01*
X243068142Y192526669D01*
X243086858Y192534275D01*
X243104044Y192544479D01*
X243120082Y192557625D01*
X243134371Y192573362D01*
X243147399Y192592550D01*
X243158361Y192614400D01*
X243167584Y192640168D01*
X243174350Y192668668D01*
X243178702Y192701263D01*
X243180174Y192736595D01*
X243179704Y192756841D01*
X243171444Y192818386D01*
X243154475Y192867299D01*
X243130438Y192904580D01*
X243100170Y192931277D01*
X243082654Y192940866D01*
X243063627Y192947848D01*
X243042626Y192952220D01*
X243020164Y192953696D01*
X243014584Y192953606D01*
X242972949Y192946609D01*
X242954121Y192939007D01*
X242936800Y192928788D01*
X242920618Y192915628D01*
X242906182Y192899880D01*
X242893055Y192880779D01*
X242882001Y192859069D01*
X242872751Y192833684D01*
X242865961Y192805685D01*
X242861623Y192773995D01*
X242860153Y192739759D01*
X242767367Y192739759D01*
X242767329Y192740829D01*
X242769266Y192784846D01*
X242780765Y192850854D01*
X242801331Y192906139D01*
X242829874Y192951335D01*
X242865846Y192987005D01*
X242886652Y193001381D01*
X242909253Y193013344D01*
X242934004Y193022963D01*
X242960505Y193029959D01*
X242989469Y193034341D01*
X243020164Y193035818D01*
X243052223Y193034235D01*
G37*
G36*
X242459639Y193034235D02*
G01*
X242513857Y193023120D01*
X242560548Y193002069D01*
X242581322Y192987851D01*
X242600251Y192971262D01*
X242617636Y192951922D01*
X242633002Y192930217D01*
X242646724Y192905332D01*
X242658183Y192878035D01*
X242667649Y192847126D01*
X242674547Y192813739D01*
X242678936Y192776434D01*
X242680414Y192736595D01*
X242678354Y192690005D01*
X242666747Y192622953D01*
X242646225Y192567157D01*
X242617883Y192521776D01*
X242582233Y192486081D01*
X242561605Y192471710D01*
X242539192Y192459760D01*
X242514589Y192450140D01*
X242488233Y192443147D01*
X242459319Y192438756D01*
X242428650Y192437278D01*
X242394356Y192439016D01*
X242339933Y192450267D01*
X242293505Y192471248D01*
X242272943Y192485376D01*
X242254240Y192501861D01*
X242237055Y192521135D01*
X242221886Y192542798D01*
X242208286Y192567811D01*
X242196939Y192595315D01*
X242187504Y192626780D01*
X242180633Y192660879D01*
X242176225Y192699463D01*
X242174783Y192739759D01*
X242267569Y192739759D01*
X242268115Y192717291D01*
X242276512Y192654836D01*
X242293423Y192605679D01*
X242317255Y192568447D01*
X242347295Y192541846D01*
X242364765Y192532274D01*
X242383776Y192525307D01*
X242404914Y192520924D01*
X242427580Y192519447D01*
X242433913Y192519560D01*
X242475558Y192526669D01*
X242494274Y192534275D01*
X242511460Y192544479D01*
X242527498Y192557625D01*
X242541787Y192573362D01*
X242554815Y192592550D01*
X242565777Y192614400D01*
X242575001Y192640168D01*
X242581766Y192668668D01*
X242586118Y192701263D01*
X242587590Y192736595D01*
X242587120Y192756841D01*
X242578860Y192818386D01*
X242561891Y192867299D01*
X242537854Y192904580D01*
X242507586Y192931277D01*
X242490070Y192940866D01*
X242471043Y192947848D01*
X242450042Y192952220D01*
X242427580Y192953696D01*
X242422000Y192953606D01*
X242380365Y192946609D01*
X242361537Y192939007D01*
X242344216Y192928788D01*
X242328034Y192915628D01*
X242313598Y192899880D01*
X242300471Y192880779D01*
X242289417Y192859069D01*
X242280167Y192833684D01*
X242273377Y192805685D01*
X242269039Y192773995D01*
X242267569Y192739759D01*
X242174783Y192739759D01*
X242174745Y192740829D01*
X242176682Y192784846D01*
X242188181Y192850854D01*
X242208747Y192906139D01*
X242237290Y192951335D01*
X242273262Y192987005D01*
X242294068Y193001381D01*
X242316669Y193013344D01*
X242341420Y193022963D01*
X242367921Y193029959D01*
X242396885Y193034341D01*
X242427580Y193035818D01*
X242459639Y193034235D01*
G37*
G36*
X242068614Y192452167D02*
G01*
X241986492Y192452167D01*
X241986492Y192536477D01*
X241977722Y192523399D01*
X241943819Y192485525D01*
X241904722Y192458718D01*
X241882963Y192449223D01*
X241859884Y192442463D01*
X241834767Y192438389D01*
X241808335Y192437278D01*
X241783892Y192438380D01*
X241732714Y192448809D01*
X241709381Y192458012D01*
X241687631Y192469778D01*
X241667209Y192484279D01*
X241648534Y192501274D01*
X241631201Y192521281D01*
X241615838Y192543762D01*
X241602068Y192569571D01*
X241590549Y192597854D01*
X241581061Y192629667D01*
X241574139Y192663933D01*
X241569771Y192701723D01*
X241568375Y192739759D01*
X241661120Y192739759D01*
X241661726Y192717693D01*
X241670584Y192657197D01*
X241688434Y192608065D01*
X241713476Y192570179D01*
X241744502Y192543035D01*
X241762088Y192533375D01*
X241781060Y192526335D01*
X241801537Y192521989D01*
X241823271Y192520517D01*
X241826586Y192520552D01*
X241847350Y192522439D01*
X241866859Y192527131D01*
X241885336Y192534671D01*
X241902373Y192544896D01*
X241918471Y192558247D01*
X241932855Y192574260D01*
X241946016Y192593788D01*
X241957109Y192615974D01*
X241966389Y192641850D01*
X241973202Y192670318D01*
X241977531Y192702247D01*
X241979001Y192736595D01*
X241978655Y192753472D01*
X241970660Y192815059D01*
X241953666Y192864820D01*
X241929573Y192902956D01*
X241899639Y192930133D01*
X241864285Y192946810D01*
X241844411Y192951154D01*
X241823271Y192952625D01*
X241817234Y192952513D01*
X241796028Y192950246D01*
X241776036Y192945154D01*
X241756985Y192937174D01*
X241739381Y192926507D01*
X241722787Y192912777D01*
X241707941Y192896447D01*
X241694486Y192876891D01*
X241683142Y192854841D01*
X241673775Y192829660D01*
X241666899Y192802169D01*
X241662586Y192771980D01*
X241661120Y192739759D01*
X241568375Y192739759D01*
X241568296Y192741899D01*
X241569622Y192777783D01*
X241580296Y192845121D01*
X241600393Y192902332D01*
X241628529Y192949328D01*
X241663671Y192986259D01*
X241705248Y193013222D01*
X241728424Y193022925D01*
X241753092Y193029984D01*
X241779487Y193034344D01*
X241807265Y193035818D01*
X241849526Y193032524D01*
X241895335Y193019221D01*
X241916847Y193008207D01*
X241937203Y192994254D01*
X241958560Y192975337D01*
X241979001Y192952625D01*
X241979001Y193243846D01*
X242068614Y193243846D01*
X242068614Y192452167D01*
G37*
G36*
X241139119Y192452167D02*
G01*
X241293779Y192887765D01*
X241436714Y192452167D01*
X241531678Y192452167D01*
X241342866Y193013764D01*
X241376971Y193102353D01*
X241386441Y193122980D01*
X241397558Y193138290D01*
X241407654Y193146742D01*
X241419405Y193152506D01*
X241448485Y193156791D01*
X241493888Y193150750D01*
X241495386Y193150417D01*
X241495386Y193230399D01*
X241477710Y193238063D01*
X241458943Y193242602D01*
X241435644Y193244265D01*
X241395899Y193238506D01*
X241376048Y193231224D01*
X241357704Y193221224D01*
X241352451Y193217604D01*
X241335157Y193203035D01*
X241320611Y193186165D01*
X241298222Y193145379D01*
X241291639Y193129061D01*
X241043085Y192452167D01*
X241139119Y192452167D01*
G37*
G36*
X240183894Y192920288D02*
G01*
X240581803Y192920288D01*
X240576561Y192895740D01*
X240568195Y192873145D01*
X240557885Y192854463D01*
X240544458Y192836468D01*
X240505708Y192800041D01*
X240445243Y192758928D01*
X240338600Y192699046D01*
X240306197Y192679317D01*
X240277395Y192658201D01*
X240253499Y192636992D01*
X240232865Y192614599D01*
X240216227Y192592140D01*
X240202599Y192568649D01*
X240192262Y192544871D01*
X240184798Y192520162D01*
X240178554Y192468427D01*
X240178543Y192466079D01*
X240184359Y192413849D01*
X240191572Y192388759D01*
X240201509Y192364871D01*
X240214057Y192342429D01*
X240229111Y192321652D01*
X240248987Y192300485D01*
X240269462Y192283983D01*
X240291421Y192270205D01*
X240339024Y192250990D01*
X240394668Y192241647D01*
X240420723Y192240743D01*
X240454373Y192242228D01*
X240485826Y192246669D01*
X240513578Y192253591D01*
X240539255Y192263133D01*
X240561894Y192274732D01*
X240582538Y192288707D01*
X240600757Y192304658D01*
X240616988Y192322850D01*
X240629821Y192341058D01*
X240642339Y192362918D01*
X240652345Y192386817D01*
X240665272Y192442048D01*
X240670347Y192507769D01*
X240576453Y192507769D01*
X240572133Y192462270D01*
X240565001Y192427300D01*
X240554073Y192398753D01*
X240530645Y192366354D01*
X240498571Y192341819D01*
X240479770Y192333035D01*
X240459557Y192326889D01*
X240423933Y192322912D01*
X240401567Y192324372D01*
X240380408Y192328635D01*
X240360396Y192335631D01*
X240342002Y192345143D01*
X240325302Y192357084D01*
X240310634Y192371207D01*
X240298214Y192387292D01*
X240288205Y192405180D01*
X240280867Y192424465D01*
X240276263Y192445156D01*
X240274577Y192468220D01*
X240276061Y192489919D01*
X240280489Y192510834D01*
X240297836Y192549703D01*
X240326929Y192585278D01*
X240369042Y192617424D01*
X240376986Y192622135D01*
X240475114Y192679830D01*
X240523746Y192709615D01*
X240564680Y192738996D01*
X240591868Y192762433D01*
X240614975Y192786661D01*
X240632510Y192809491D01*
X240647209Y192833663D01*
X240668626Y192886218D01*
X240682150Y192951631D01*
X240687423Y193011995D01*
X240183894Y193011995D01*
X240183894Y192920288D01*
G37*
G36*
X239885551Y193031423D02*
G01*
X239932212Y193016607D01*
X239953389Y193005247D01*
X239973028Y192991294D01*
X239991697Y192974166D01*
X240008702Y192954304D01*
X240024835Y192930390D01*
X240039091Y192903472D01*
X240052234Y192871411D01*
X240063202Y192835971D01*
X240072535Y192794224D01*
X240079329Y192748651D01*
X240083769Y192695644D01*
X240085254Y192638327D01*
X240085141Y192621734D01*
X240078607Y192520447D01*
X240063387Y192439956D01*
X240040856Y192375956D01*
X240011646Y192325052D01*
X239979059Y192290928D01*
X239958807Y192276023D01*
X239936801Y192263538D01*
X239888870Y192246518D01*
X239837724Y192240743D01*
X239786401Y192246311D01*
X239738636Y192262955D01*
X239697339Y192289590D01*
X239663847Y192325052D01*
X239636042Y192372891D01*
X239623014Y192404559D01*
X239612210Y192439369D01*
X239602974Y192480881D01*
X239596272Y192526573D01*
X239591738Y192582709D01*
X239590446Y192636187D01*
X239686274Y192636187D01*
X239689206Y192554883D01*
X239700431Y192473800D01*
X239717923Y192415384D01*
X239740174Y192374360D01*
X239766749Y192346680D01*
X239781979Y192336961D01*
X239798536Y192329944D01*
X239817393Y192325472D01*
X239837724Y192323982D01*
X239854051Y192324928D01*
X239888972Y192334737D01*
X239904818Y192343893D01*
X239919294Y192355860D01*
X239933336Y192371880D01*
X239945800Y192391176D01*
X239957755Y192416362D01*
X239967784Y192445591D01*
X239976718Y192483070D01*
X239983255Y192525644D01*
X239987729Y192579306D01*
X239989220Y192639397D01*
X239986217Y192723003D01*
X239974881Y192805767D01*
X239957309Y192865423D01*
X239935103Y192907195D01*
X239908830Y192935211D01*
X239893923Y192944975D01*
X239877755Y192952023D01*
X239859497Y192956488D01*
X239839864Y192957976D01*
X239821375Y192956834D01*
X239786117Y192946737D01*
X239770271Y192937538D01*
X239755830Y192925568D01*
X239741875Y192909598D01*
X239729516Y192890370D01*
X239717646Y192865167D01*
X239707706Y192835867D01*
X239698793Y192797872D01*
X239692282Y192754553D01*
X239687770Y192698881D01*
X239686274Y192636187D01*
X239590446Y192636187D01*
X239590240Y192644701D01*
X239590299Y192656036D01*
X239596604Y192755105D01*
X239611886Y192835296D01*
X239634413Y192899014D01*
X239662971Y192948634D01*
X239697023Y192986206D01*
X239736795Y193013141D01*
X239759251Y193022864D01*
X239783219Y193029900D01*
X239809676Y193034334D01*
X239837724Y193035818D01*
X239885551Y193031423D01*
G37*
G36*
X238998726Y192920288D02*
G01*
X239396636Y192920288D01*
X239391393Y192895740D01*
X239383027Y192873145D01*
X239372717Y192854463D01*
X239359290Y192836468D01*
X239320540Y192800041D01*
X239260075Y192758928D01*
X239153432Y192699046D01*
X239121029Y192679317D01*
X239092227Y192658201D01*
X239068331Y192636992D01*
X239047697Y192614599D01*
X239031059Y192592140D01*
X239017431Y192568649D01*
X239007094Y192544871D01*
X238999630Y192520162D01*
X238993386Y192468427D01*
X238993375Y192466079D01*
X238999191Y192413849D01*
X239006404Y192388759D01*
X239016341Y192364871D01*
X239028889Y192342429D01*
X239043943Y192321652D01*
X239063819Y192300485D01*
X239084294Y192283983D01*
X239106253Y192270205D01*
X239153856Y192250990D01*
X239209500Y192241647D01*
X239235555Y192240743D01*
X239269205Y192242228D01*
X239300658Y192246669D01*
X239328410Y192253591D01*
X239354087Y192263133D01*
X239376726Y192274732D01*
X239397370Y192288707D01*
X239415590Y192304658D01*
X239431820Y192322850D01*
X239444653Y192341058D01*
X239457172Y192362918D01*
X239467177Y192386817D01*
X239480104Y192442048D01*
X239485179Y192507769D01*
X239391285Y192507769D01*
X239386965Y192462270D01*
X239379834Y192427300D01*
X239368905Y192398753D01*
X239345477Y192366354D01*
X239313403Y192341819D01*
X239294602Y192333035D01*
X239274389Y192326889D01*
X239238765Y192322912D01*
X239216399Y192324372D01*
X239195241Y192328635D01*
X239175228Y192335631D01*
X239156834Y192345143D01*
X239140134Y192357084D01*
X239125466Y192371207D01*
X239113046Y192387292D01*
X239103037Y192405180D01*
X239095699Y192424465D01*
X239091095Y192445156D01*
X239089409Y192468220D01*
X239090893Y192489919D01*
X239095322Y192510834D01*
X239112668Y192549703D01*
X239141761Y192585278D01*
X239183874Y192617424D01*
X239191818Y192622135D01*
X239289946Y192679830D01*
X239338578Y192709615D01*
X239379512Y192738996D01*
X239406700Y192762433D01*
X239429807Y192786661D01*
X239447343Y192809491D01*
X239462041Y192833663D01*
X239483458Y192886218D01*
X239496982Y192951631D01*
X239502255Y193011995D01*
X238998726Y193011995D01*
X238998726Y192920288D01*
G37*
G36*
X238597094Y192825324D02*
G01*
X238916092Y192825324D01*
X238916092Y192726126D01*
X238572574Y192240696D01*
X238503200Y192240696D01*
X238503200Y192400754D01*
X238597094Y192400754D01*
X238833923Y192741015D01*
X238597094Y192741015D01*
X238597094Y192400754D01*
X238503200Y192400754D01*
X238503200Y192741015D01*
X238391206Y192741015D01*
X238391206Y192825324D01*
X238503200Y192825324D01*
X238503200Y193011995D01*
X238597094Y193011995D01*
X238597094Y192825324D01*
G37*
G36*
X248566751Y194292155D02*
G01*
X248348068Y193640760D01*
X248348068Y194292155D01*
X248254174Y194292155D01*
X248254174Y193514947D01*
X248391805Y193514947D01*
X248617979Y194191934D01*
X248848387Y193514947D01*
X248986017Y193514947D01*
X248986017Y194292155D01*
X248892123Y194292155D01*
X248892123Y193640760D01*
X248671300Y194292155D01*
X248566751Y194292155D01*
G37*
G36*
X247952599Y194315963D02*
G01*
X248006173Y194309956D01*
X248050235Y194294247D01*
X248085086Y194270128D01*
X248099145Y194255114D01*
X248110897Y194238213D01*
X248120366Y194219248D01*
X248127284Y194198522D01*
X248131635Y194175519D01*
X248133108Y194150849D01*
X248132652Y194136454D01*
X248124469Y194092754D01*
X248106437Y194056645D01*
X248093292Y194040663D01*
X248077543Y194026454D01*
X248057729Y194013137D01*
X248034933Y194001819D01*
X248010227Y193992912D01*
X247979727Y193985592D01*
X247855706Y193967760D01*
X247822467Y193962258D01*
X247788429Y193951175D01*
X247770926Y193936336D01*
X247765038Y193922860D01*
X247762929Y193906017D01*
X247762929Y193882614D01*
X247764127Y193867973D01*
X247774359Y193841522D01*
X247783825Y193830094D01*
X247796053Y193820410D01*
X247812664Y193811816D01*
X247832509Y193805454D01*
X247858206Y193801083D01*
X247887718Y193799607D01*
X247923844Y193801919D01*
X247962208Y193812225D01*
X247989362Y193830039D01*
X247999979Y193842469D01*
X248008295Y193857126D01*
X248014990Y193876377D01*
X248018927Y193898573D01*
X248108541Y193898573D01*
X248105068Y193860041D01*
X248093540Y193818575D01*
X248083388Y193799761D01*
X248070155Y193782531D01*
X248049676Y193763957D01*
X248029540Y193750641D01*
X248006832Y193739452D01*
X247980464Y193730105D01*
X247951586Y193723261D01*
X247919219Y193718911D01*
X247884507Y193717438D01*
X247872880Y193717569D01*
X247808077Y193724117D01*
X247758950Y193738939D01*
X247722550Y193760562D01*
X247696641Y193788729D01*
X247687181Y193805739D01*
X247680307Y193824489D01*
X247675870Y193846226D01*
X247674386Y193869865D01*
X247674386Y194115720D01*
X247762929Y194115720D01*
X247762929Y194015685D01*
X247784510Y194024542D01*
X247809987Y194031510D01*
X247905864Y194046533D01*
X247945518Y194053942D01*
X247990009Y194069220D01*
X248017672Y194088342D01*
X248027238Y194099979D01*
X248034104Y194113099D01*
X248038767Y194129848D01*
X248040284Y194148709D01*
X248039006Y194165400D01*
X248028758Y194194475D01*
X248019735Y194206670D01*
X248008263Y194216978D01*
X247993449Y194225802D01*
X247976059Y194232321D01*
X247954588Y194236665D01*
X247930384Y194238136D01*
X247882085Y194232773D01*
X247859481Y194225958D01*
X247838192Y194216426D01*
X247817473Y194203701D01*
X247798104Y194188118D01*
X247788652Y194178892D01*
X247769969Y194152743D01*
X247764553Y194135520D01*
X247762929Y194115720D01*
X247674386Y194115720D01*
X247674386Y194197657D01*
X247674368Y194199197D01*
X247668897Y194221139D01*
X247662497Y194229399D01*
X247653760Y194235580D01*
X247641407Y194239881D01*
X247626369Y194241347D01*
X247607152Y194239206D01*
X247607152Y194306393D01*
X247609469Y194306972D01*
X247642266Y194314108D01*
X247667965Y194315978D01*
X247705832Y194311207D01*
X247731043Y194298221D01*
X247741069Y194287865D01*
X247748971Y194274967D01*
X247755695Y194256322D01*
X247759719Y194233856D01*
X247793371Y194261918D01*
X247842575Y194292264D01*
X247867206Y194302534D01*
X247892409Y194309825D01*
X247920338Y194314464D01*
X247949600Y194315978D01*
X247952599Y194315963D01*
G37*
G36*
X247340934Y194314736D02*
G01*
X247392834Y194304085D01*
X247416354Y194294839D01*
X247438244Y194283062D01*
X247458716Y194268614D01*
X247477413Y194251705D01*
X247494732Y194231829D01*
X247510066Y194209501D01*
X247523812Y194183840D01*
X247535302Y194155708D01*
X247544785Y194123958D01*
X247551699Y194089729D01*
X247556077Y194051791D01*
X247557553Y194011404D01*
X247556192Y193975243D01*
X247545428Y193908144D01*
X247525203Y193851026D01*
X247496896Y193804028D01*
X247461548Y193767054D01*
X247419767Y193740051D01*
X247396508Y193730337D01*
X247371771Y193723272D01*
X247345346Y193718912D01*
X247317560Y193717438D01*
X247312166Y193717491D01*
X247259987Y193724029D01*
X247215059Y193740787D01*
X247176991Y193767311D01*
X247160427Y193784392D01*
X247145778Y193803888D01*
X247145778Y193514947D01*
X247057235Y193514947D01*
X247057235Y194019221D01*
X247145778Y194019221D01*
X247146196Y194000228D01*
X247154372Y193938048D01*
X247171385Y193888248D01*
X247195421Y193850249D01*
X247225368Y193823173D01*
X247242467Y193813531D01*
X247260975Y193806510D01*
X247281142Y193802151D01*
X247302625Y193800677D01*
X247309588Y193800827D01*
X247330684Y193803209D01*
X247350568Y193808405D01*
X247369484Y193816475D01*
X247386963Y193827231D01*
X247403432Y193841056D01*
X247418167Y193857500D01*
X247431535Y193877223D01*
X247442811Y193899491D01*
X247452143Y193925015D01*
X247458997Y193952939D01*
X247463309Y193983764D01*
X247464776Y194016755D01*
X247464217Y194037290D01*
X247455415Y194096646D01*
X247437434Y194145318D01*
X247412093Y194183105D01*
X247380693Y194210270D01*
X247343831Y194226979D01*
X247323306Y194231315D01*
X247301555Y194232785D01*
X247298757Y194232760D01*
X247278061Y194230923D01*
X247258565Y194226258D01*
X247240008Y194218707D01*
X247222862Y194208449D01*
X247206641Y194195059D01*
X247192124Y194179006D01*
X247178876Y194159527D01*
X247167699Y194137432D01*
X247158396Y194111872D01*
X247151562Y194083818D01*
X247147246Y194052651D01*
X247145778Y194019221D01*
X247057235Y194019221D01*
X247057235Y194292155D01*
X247136193Y194292155D01*
X247136193Y194217896D01*
X247140448Y194223910D01*
X247176586Y194265373D01*
X247214572Y194292972D01*
X247235776Y194302791D01*
X247258376Y194309811D01*
X247285272Y194314463D01*
X247314350Y194315978D01*
X247340934Y194314736D01*
G37*
G36*
X246727735Y194314415D02*
G01*
X246782020Y194303243D01*
X246829082Y194282003D01*
X246850082Y194267660D01*
X246869238Y194250946D01*
X246886816Y194231524D01*
X246902364Y194209766D01*
X246916200Y194184976D01*
X246927758Y194157848D01*
X246937256Y194127388D01*
X246944180Y194094580D01*
X246948557Y194058278D01*
X246950034Y194019639D01*
X246947587Y193971195D01*
X246935129Y193905402D01*
X246913384Y193849458D01*
X246883545Y193803316D01*
X246846433Y193766833D01*
X246825286Y193752204D01*
X246802450Y193740026D01*
X246777845Y193730330D01*
X246751672Y193723280D01*
X246723588Y193718913D01*
X246694035Y193717438D01*
X246672196Y193718261D01*
X246644071Y193721869D01*
X246617229Y193728256D01*
X246568270Y193748820D01*
X246526416Y193778961D01*
X246492640Y193817748D01*
X246479079Y193840107D01*
X246467861Y193864375D01*
X246466945Y193866783D01*
X246458285Y193894856D01*
X246452003Y193927021D01*
X246447881Y193969482D01*
X246541469Y193969482D01*
X246545423Y193927604D01*
X246559810Y193883802D01*
X246583235Y193848290D01*
X246614278Y193821901D01*
X246632280Y193812362D01*
X246651839Y193805371D01*
X246672820Y193801072D01*
X246695105Y193799607D01*
X246723805Y193802018D01*
X246744560Y193807104D01*
X246763890Y193814871D01*
X246781909Y193825356D01*
X246798241Y193838352D01*
X246813074Y193854106D01*
X246825907Y193872228D01*
X246836847Y193893101D01*
X246845435Y193916183D01*
X246851633Y193941831D01*
X246855116Y193969482D01*
X246541469Y193969482D01*
X246447881Y193969482D01*
X246447041Y193978129D01*
X246445481Y194042020D01*
X246857256Y194042020D01*
X246855828Y194072123D01*
X246847307Y194119915D01*
X246838933Y194141296D01*
X246827385Y194161411D01*
X246809923Y194184212D01*
X246794410Y194198933D01*
X246777228Y194211161D01*
X246758324Y194220915D01*
X246738012Y194227993D01*
X246716062Y194232378D01*
X246692965Y194233856D01*
X246669666Y194232405D01*
X246629903Y194221692D01*
X246612338Y194212464D01*
X246596370Y194200686D01*
X246581527Y194185797D01*
X246568474Y194168214D01*
X246556592Y194146579D01*
X246546820Y194121955D01*
X246457206Y194121955D01*
X246460223Y194136361D01*
X246478329Y194188718D01*
X246505315Y194232347D01*
X246521966Y194250952D01*
X246540636Y194267364D01*
X246561450Y194281636D01*
X246584163Y194293532D01*
X246609175Y194303137D01*
X246635991Y194310129D01*
X246665227Y194314502D01*
X246696176Y194315978D01*
X246727735Y194314415D01*
G37*
G36*
X245941673Y193514947D02*
G01*
X246031287Y193514947D01*
X246031287Y194292155D01*
X245941673Y194292155D01*
X245941673Y193514947D01*
G37*
G36*
X245602124Y194314415D02*
G01*
X245656408Y194303243D01*
X245703470Y194282003D01*
X245724470Y194267660D01*
X245743626Y194250946D01*
X245761204Y194231524D01*
X245776752Y194209766D01*
X245790588Y194184976D01*
X245802146Y194157848D01*
X245811644Y194127388D01*
X245818568Y194094580D01*
X245822946Y194058278D01*
X245824422Y194019639D01*
X245821975Y193971195D01*
X245809518Y193905402D01*
X245787772Y193849458D01*
X245757934Y193803316D01*
X245720821Y193766833D01*
X245699674Y193752204D01*
X245676838Y193740026D01*
X245652234Y193730330D01*
X245626061Y193723280D01*
X245597977Y193718913D01*
X245568423Y193717438D01*
X245546584Y193718261D01*
X245518460Y193721869D01*
X245491618Y193728256D01*
X245442658Y193748820D01*
X245400805Y193778961D01*
X245367029Y193817748D01*
X245353467Y193840107D01*
X245342250Y193864375D01*
X245341334Y193866783D01*
X245332673Y193894856D01*
X245326391Y193927021D01*
X245322269Y193969482D01*
X245415857Y193969482D01*
X245419811Y193927604D01*
X245434198Y193883802D01*
X245457623Y193848290D01*
X245488666Y193821901D01*
X245506668Y193812362D01*
X245526227Y193805371D01*
X245547208Y193801072D01*
X245569494Y193799607D01*
X245598194Y193802018D01*
X245618948Y193807104D01*
X245638278Y193814871D01*
X245656297Y193825356D01*
X245672629Y193838352D01*
X245687463Y193854106D01*
X245700295Y193872228D01*
X245711236Y193893101D01*
X245719823Y193916183D01*
X245726021Y193941831D01*
X245729504Y193969482D01*
X245415857Y193969482D01*
X245322269Y193969482D01*
X245321429Y193978129D01*
X245319870Y194042020D01*
X245731645Y194042020D01*
X245730216Y194072123D01*
X245721695Y194119915D01*
X245713321Y194141296D01*
X245701773Y194161411D01*
X245684311Y194184212D01*
X245668798Y194198933D01*
X245651616Y194211161D01*
X245632712Y194220915D01*
X245612400Y194227993D01*
X245590450Y194232378D01*
X245567353Y194233856D01*
X245544054Y194232405D01*
X245504291Y194221692D01*
X245486726Y194212464D01*
X245470759Y194200686D01*
X245455915Y194185797D01*
X245442862Y194168214D01*
X245430980Y194146579D01*
X245421208Y194121955D01*
X245331595Y194121955D01*
X245334611Y194136361D01*
X245352718Y194188718D01*
X245379703Y194232347D01*
X245396354Y194250952D01*
X245415024Y194267364D01*
X245435838Y194281636D01*
X245458552Y194293532D01*
X245483563Y194303137D01*
X245510379Y194310129D01*
X245539615Y194314502D01*
X245570564Y194315978D01*
X245602124Y194314415D01*
G37*
G36*
X245009712Y193732327D02*
G01*
X245102536Y193732327D01*
X245102536Y193645785D01*
X245101043Y193629787D01*
X245096549Y193616439D01*
X245090148Y193606967D01*
X245081424Y193599555D01*
X245057115Y193591010D01*
X245040653Y193589858D01*
X245009712Y193590928D01*
X245009712Y193517320D01*
X245035593Y193513040D01*
X245059870Y193511970D01*
X245084135Y193513443D01*
X245106201Y193517800D01*
X245125023Y193524522D01*
X245141677Y193533680D01*
X245155580Y193544725D01*
X245167310Y193557882D01*
X245183834Y193589953D01*
X245190914Y193630532D01*
X245191079Y193638433D01*
X245191079Y193732327D01*
X245265757Y193732327D01*
X245265757Y193804912D01*
X245191079Y193804912D01*
X245191079Y194292155D01*
X245102536Y194292155D01*
X245102536Y193804912D01*
X245009712Y193804912D01*
X245009712Y193732327D01*
G37*
G36*
X244693134Y193732327D02*
G01*
X244784888Y193732327D01*
X244784888Y193578738D01*
X244873431Y193578738D01*
X244873431Y193732327D01*
X244949179Y193732327D01*
X244949179Y193804912D01*
X244873431Y193804912D01*
X244873431Y194227435D01*
X244871953Y194246045D01*
X244867564Y194262547D01*
X244860900Y194276011D01*
X244851812Y194287576D01*
X244826905Y194304749D01*
X244791102Y194314424D01*
X244765671Y194315978D01*
X244732713Y194314355D01*
X244695466Y194308948D01*
X244693134Y194308533D01*
X244693134Y194233856D01*
X244735800Y194238136D01*
X244756918Y194236467D01*
X244771349Y194230738D01*
X244777476Y194224544D01*
X244781601Y194216029D01*
X244784888Y194187979D01*
X244784888Y193804912D01*
X244693134Y193804912D01*
X244693134Y193732327D01*
G37*
G36*
X244296853Y193514947D02*
G01*
X244296853Y194292155D01*
X244208309Y194292155D01*
X244208309Y193984045D01*
X244206841Y193953860D01*
X244202522Y193925801D01*
X244195694Y193900673D01*
X244186399Y193877861D01*
X244175186Y193858164D01*
X244161883Y193840897D01*
X244147140Y193826646D01*
X244130639Y193814909D01*
X244112896Y193805981D01*
X244093651Y193799683D01*
X244056813Y193795327D01*
X244035668Y193796799D01*
X244015622Y193801152D01*
X243997332Y193808144D01*
X243980783Y193817733D01*
X243977855Y193819847D01*
X243965318Y193831136D01*
X243955606Y193844103D01*
X243944328Y193874304D01*
X243941609Y193905133D01*
X243941609Y194292155D01*
X243853066Y194292155D01*
X243853066Y193869958D01*
X243854539Y193846565D01*
X243858892Y193824816D01*
X243865801Y193805316D01*
X243875257Y193787543D01*
X243901115Y193757789D01*
X243936301Y193735572D01*
X243981230Y193721646D01*
X244029082Y193717438D01*
X244060959Y193718982D01*
X244089697Y193723833D01*
X244112087Y193730795D01*
X244133022Y193740580D01*
X244170834Y193768334D01*
X244208309Y193810262D01*
X244208309Y193514947D01*
X244296853Y193514947D01*
G37*
G36*
X243553631Y194315963D02*
G01*
X243607205Y194309956D01*
X243651267Y194294247D01*
X243686118Y194270128D01*
X243700177Y194255114D01*
X243711929Y194238213D01*
X243721398Y194219248D01*
X243728316Y194198522D01*
X243732667Y194175519D01*
X243734140Y194150849D01*
X243733684Y194136454D01*
X243725501Y194092754D01*
X243707469Y194056645D01*
X243694324Y194040663D01*
X243678575Y194026454D01*
X243658761Y194013137D01*
X243635965Y194001819D01*
X243611259Y193992912D01*
X243580759Y193985592D01*
X243456738Y193967760D01*
X243423498Y193962258D01*
X243389461Y193951175D01*
X243371958Y193936336D01*
X243366070Y193922860D01*
X243363961Y193906017D01*
X243363961Y193882614D01*
X243365158Y193867973D01*
X243375391Y193841522D01*
X243384857Y193830094D01*
X243397085Y193820410D01*
X243413696Y193811816D01*
X243433541Y193805454D01*
X243459238Y193801083D01*
X243488750Y193799607D01*
X243524876Y193801919D01*
X243563240Y193812225D01*
X243590394Y193830039D01*
X243601011Y193842469D01*
X243609327Y193857126D01*
X243616022Y193876377D01*
X243619959Y193898573D01*
X243709573Y193898573D01*
X243706100Y193860041D01*
X243694572Y193818575D01*
X243684420Y193799761D01*
X243671187Y193782531D01*
X243650708Y193763957D01*
X243630572Y193750641D01*
X243607864Y193739452D01*
X243581495Y193730105D01*
X243552618Y193723261D01*
X243520251Y193718911D01*
X243485539Y193717438D01*
X243473912Y193717569D01*
X243409109Y193724117D01*
X243359982Y193738939D01*
X243323582Y193760562D01*
X243297673Y193788729D01*
X243288213Y193805739D01*
X243281339Y193824489D01*
X243276902Y193846226D01*
X243275418Y193869865D01*
X243275418Y194115720D01*
X243363961Y194115720D01*
X243363961Y194015685D01*
X243385542Y194024542D01*
X243411018Y194031510D01*
X243506896Y194046533D01*
X243546550Y194053942D01*
X243591041Y194069220D01*
X243618704Y194088342D01*
X243628270Y194099979D01*
X243635136Y194113099D01*
X243639799Y194129848D01*
X243641316Y194148709D01*
X243640038Y194165400D01*
X243629790Y194194475D01*
X243620767Y194206670D01*
X243609294Y194216978D01*
X243594481Y194225802D01*
X243577091Y194232321D01*
X243555620Y194236665D01*
X243531416Y194238136D01*
X243483117Y194232773D01*
X243460513Y194225958D01*
X243439224Y194216426D01*
X243418505Y194203701D01*
X243399136Y194188118D01*
X243389684Y194178892D01*
X243371001Y194152743D01*
X243365585Y194135520D01*
X243363961Y194115720D01*
X243275418Y194115720D01*
X243275418Y194197657D01*
X243275400Y194199197D01*
X243269929Y194221139D01*
X243263529Y194229399D01*
X243254792Y194235580D01*
X243242439Y194239881D01*
X243227400Y194241347D01*
X243208184Y194239206D01*
X243208184Y194306393D01*
X243210501Y194306972D01*
X243243298Y194314108D01*
X243268997Y194315978D01*
X243306864Y194311207D01*
X243332075Y194298221D01*
X243342101Y194287865D01*
X243350003Y194274967D01*
X243356727Y194256322D01*
X243360750Y194233856D01*
X243394403Y194261918D01*
X243443607Y194292264D01*
X243468238Y194302534D01*
X243493441Y194309825D01*
X243521370Y194314464D01*
X243550632Y194315978D01*
X243553631Y194315963D01*
G37*
G36*
X243111685Y193732327D02*
G01*
X243111685Y194292155D01*
X243022071Y194292155D01*
X243022071Y193983394D01*
X243020603Y193953371D01*
X243016284Y193925445D01*
X243009451Y193900406D01*
X243000147Y193877662D01*
X242988918Y193858008D01*
X242975595Y193840774D01*
X242960826Y193826545D01*
X242944294Y193814827D01*
X242926522Y193805918D01*
X242907245Y193799639D01*
X242870575Y193795327D01*
X242848715Y193796793D01*
X242828785Y193801100D01*
X242811491Y193807835D01*
X242796266Y193816973D01*
X242783550Y193828068D01*
X242773044Y193841211D01*
X242759190Y193872992D01*
X242755371Y193905133D01*
X242755371Y194292155D01*
X242666828Y194292155D01*
X242666828Y193869958D01*
X242668298Y193847134D01*
X242672634Y193825826D01*
X242679575Y193806464D01*
X242689066Y193788751D01*
X242715178Y193758721D01*
X242750715Y193736081D01*
X242795783Y193721818D01*
X242843915Y193717438D01*
X242873372Y193718573D01*
X242900393Y193722866D01*
X242922802Y193729525D01*
X242943690Y193738949D01*
X242980746Y193765588D01*
X243015875Y193805928D01*
X243029516Y193826221D01*
X243029516Y193732327D01*
X243111685Y193732327D01*
G37*
G36*
X242349382Y194314736D02*
G01*
X242401282Y194304085D01*
X242424802Y194294839D01*
X242446692Y194283062D01*
X242467164Y194268614D01*
X242485861Y194251705D01*
X242503180Y194231829D01*
X242518514Y194209501D01*
X242532260Y194183840D01*
X242543750Y194155708D01*
X242553233Y194123958D01*
X242560147Y194089729D01*
X242564525Y194051791D01*
X242566001Y194011404D01*
X242564640Y193975243D01*
X242553876Y193908144D01*
X242533651Y193851026D01*
X242505344Y193804028D01*
X242469996Y193767054D01*
X242428215Y193740051D01*
X242404956Y193730337D01*
X242380219Y193723272D01*
X242353794Y193718912D01*
X242326008Y193717438D01*
X242320614Y193717491D01*
X242268435Y193724029D01*
X242223508Y193740787D01*
X242185439Y193767311D01*
X242168875Y193784392D01*
X242154226Y193803888D01*
X242154226Y193514947D01*
X242065683Y193514947D01*
X242065683Y194019221D01*
X242154226Y194019221D01*
X242154644Y194000228D01*
X242162820Y193938048D01*
X242179833Y193888248D01*
X242203869Y193850249D01*
X242233816Y193823173D01*
X242250915Y193813531D01*
X242269423Y193806510D01*
X242289590Y193802151D01*
X242311073Y193800677D01*
X242318036Y193800827D01*
X242339132Y193803209D01*
X242359016Y193808405D01*
X242377932Y193816475D01*
X242395411Y193827231D01*
X242411880Y193841056D01*
X242426615Y193857500D01*
X242439983Y193877223D01*
X242451259Y193899491D01*
X242460591Y193925015D01*
X242467445Y193952939D01*
X242471757Y193983764D01*
X242473224Y194016755D01*
X242472665Y194037290D01*
X242463863Y194096646D01*
X242445882Y194145318D01*
X242420541Y194183105D01*
X242389141Y194210270D01*
X242352279Y194226979D01*
X242331754Y194231315D01*
X242310003Y194232785D01*
X242307205Y194232760D01*
X242286509Y194230923D01*
X242267013Y194226258D01*
X242248456Y194218707D01*
X242231310Y194208449D01*
X242215089Y194195059D01*
X242200572Y194179006D01*
X242187324Y194159527D01*
X242176147Y194137432D01*
X242166844Y194111872D01*
X242160010Y194083818D01*
X242155694Y194052651D01*
X242154226Y194019221D01*
X242065683Y194019221D01*
X242065683Y194292155D01*
X242144641Y194292155D01*
X242144641Y194217896D01*
X242148896Y194223910D01*
X242185034Y194265373D01*
X242223020Y194292972D01*
X242244224Y194302791D01*
X242266824Y194309811D01*
X242293720Y194314463D01*
X242322798Y194315978D01*
X242349382Y194314736D01*
G37*
G36*
X241736183Y194314415D02*
G01*
X241790468Y194303243D01*
X241837530Y194282003D01*
X241858530Y194267660D01*
X241877686Y194250946D01*
X241895264Y194231524D01*
X241910812Y194209766D01*
X241924648Y194184976D01*
X241936206Y194157848D01*
X241945704Y194127388D01*
X241952628Y194094580D01*
X241957005Y194058278D01*
X241958482Y194019639D01*
X241956035Y193971195D01*
X241943577Y193905402D01*
X241921832Y193849458D01*
X241891993Y193803316D01*
X241854881Y193766833D01*
X241833734Y193752204D01*
X241810898Y193740026D01*
X241786293Y193730330D01*
X241760120Y193723280D01*
X241732036Y193718913D01*
X241702483Y193717438D01*
X241680644Y193718261D01*
X241652519Y193721869D01*
X241625677Y193728256D01*
X241576718Y193748820D01*
X241534864Y193778961D01*
X241501088Y193817748D01*
X241487527Y193840107D01*
X241476309Y193864375D01*
X241475393Y193866783D01*
X241466733Y193894856D01*
X241460451Y193927021D01*
X241456329Y193969482D01*
X241549917Y193969482D01*
X241553871Y193927604D01*
X241568258Y193883802D01*
X241591683Y193848290D01*
X241622726Y193821901D01*
X241640728Y193812362D01*
X241660287Y193805371D01*
X241681268Y193801072D01*
X241703553Y193799607D01*
X241732253Y193802018D01*
X241753008Y193807104D01*
X241772338Y193814871D01*
X241790357Y193825356D01*
X241806689Y193838352D01*
X241821522Y193854106D01*
X241834355Y193872228D01*
X241845295Y193893101D01*
X241853883Y193916183D01*
X241860081Y193941831D01*
X241863564Y193969482D01*
X241549917Y193969482D01*
X241456329Y193969482D01*
X241455489Y193978129D01*
X241453929Y194042020D01*
X241865704Y194042020D01*
X241864276Y194072123D01*
X241855755Y194119915D01*
X241847381Y194141296D01*
X241835833Y194161411D01*
X241818371Y194184212D01*
X241802858Y194198933D01*
X241785676Y194211161D01*
X241766772Y194220915D01*
X241746460Y194227993D01*
X241724510Y194232378D01*
X241701413Y194233856D01*
X241678114Y194232405D01*
X241638351Y194221692D01*
X241620786Y194212464D01*
X241604818Y194200686D01*
X241589975Y194185797D01*
X241576922Y194168214D01*
X241565040Y194146579D01*
X241555268Y194121955D01*
X241465654Y194121955D01*
X241468671Y194136361D01*
X241486777Y194188718D01*
X241513763Y194232347D01*
X241530414Y194250952D01*
X241549084Y194267364D01*
X241569898Y194281636D01*
X241592611Y194293532D01*
X241617623Y194303137D01*
X241644439Y194310129D01*
X241673675Y194314502D01*
X241704624Y194315978D01*
X241736183Y194314415D01*
G37*
G36*
X241164215Y194314736D02*
G01*
X241216114Y194304085D01*
X241239634Y194294839D01*
X241261524Y194283062D01*
X241281996Y194268614D01*
X241300693Y194251705D01*
X241318012Y194231829D01*
X241333346Y194209501D01*
X241347092Y194183840D01*
X241358582Y194155708D01*
X241368065Y194123958D01*
X241374979Y194089729D01*
X241379357Y194051791D01*
X241380833Y194011404D01*
X241379472Y193975243D01*
X241368708Y193908144D01*
X241348484Y193851026D01*
X241320176Y193804028D01*
X241284828Y193767054D01*
X241243047Y193740051D01*
X241219788Y193730337D01*
X241195051Y193723272D01*
X241168626Y193718912D01*
X241140841Y193717438D01*
X241135446Y193717491D01*
X241083267Y193724029D01*
X241038340Y193740787D01*
X241000271Y193767311D01*
X240983707Y193784392D01*
X240969058Y193803888D01*
X240969058Y193514947D01*
X240880515Y193514947D01*
X240880515Y194019221D01*
X240969058Y194019221D01*
X240969476Y194000228D01*
X240977652Y193938048D01*
X240994665Y193888248D01*
X241018701Y193850249D01*
X241048648Y193823173D01*
X241065747Y193813531D01*
X241084255Y193806510D01*
X241104422Y193802151D01*
X241125905Y193800677D01*
X241132868Y193800827D01*
X241153964Y193803209D01*
X241173848Y193808405D01*
X241192764Y193816475D01*
X241210244Y193827231D01*
X241226712Y193841056D01*
X241241447Y193857500D01*
X241254815Y193877223D01*
X241266091Y193899491D01*
X241275423Y193925015D01*
X241282277Y193952939D01*
X241286589Y193983764D01*
X241288056Y194016755D01*
X241287498Y194037290D01*
X241278695Y194096646D01*
X241260714Y194145318D01*
X241235373Y194183105D01*
X241203973Y194210270D01*
X241167111Y194226979D01*
X241146586Y194231315D01*
X241124835Y194232785D01*
X241122037Y194232760D01*
X241101341Y194230923D01*
X241081845Y194226258D01*
X241063288Y194218707D01*
X241046142Y194208449D01*
X241029921Y194195059D01*
X241015405Y194179006D01*
X241002156Y194159527D01*
X240990979Y194137432D01*
X240981676Y194111872D01*
X240974842Y194083818D01*
X240970526Y194052651D01*
X240969058Y194019221D01*
X240880515Y194019221D01*
X240880515Y194292155D01*
X240959473Y194292155D01*
X240959473Y194217896D01*
X240963728Y194223910D01*
X240999866Y194265373D01*
X241037852Y194292972D01*
X241059057Y194302791D01*
X241081656Y194309811D01*
X241108552Y194314463D01*
X241137630Y194315978D01*
X241164215Y194314736D01*
G37*
G36*
X240212933Y194315869D02*
G01*
X240263807Y194309114D01*
X240307430Y194292128D01*
X240327593Y194279343D01*
X240346325Y194263770D01*
X240364950Y194243894D01*
X240382104Y194220735D01*
X240382104Y194292155D01*
X240462086Y194292155D01*
X240462086Y193514947D01*
X240373543Y193514947D01*
X240373543Y193809192D01*
X240370913Y193805285D01*
X240338150Y193766770D01*
X240301039Y193740094D01*
X240279708Y193730439D01*
X240256736Y193723488D01*
X240229829Y193718939D01*
X240200737Y193717438D01*
X240179590Y193718222D01*
X240127209Y193727842D01*
X240103507Y193736575D01*
X240081441Y193747840D01*
X240060854Y193761725D01*
X240042047Y193778052D01*
X240024672Y193797252D01*
X240009284Y193818866D01*
X239995521Y193843681D01*
X239984013Y193870912D01*
X239974532Y193901601D01*
X239967616Y193934701D01*
X239963243Y193971334D01*
X239961768Y194010334D01*
X239962189Y194019919D01*
X240054592Y194019919D01*
X240055240Y193997119D01*
X240064197Y193936846D01*
X240082113Y193887939D01*
X240107225Y193850222D01*
X240138380Y193823168D01*
X240156077Y193813525D01*
X240175186Y193806495D01*
X240195854Y193802149D01*
X240217813Y193800677D01*
X240221129Y193800712D01*
X240241892Y193802599D01*
X240261402Y193807291D01*
X240279878Y193814831D01*
X240296916Y193825056D01*
X240313013Y193838407D01*
X240327397Y193854420D01*
X240340558Y193873948D01*
X240351651Y193896134D01*
X240360932Y193922010D01*
X240367744Y193950478D01*
X240372074Y193982407D01*
X240373543Y194016755D01*
X240373198Y194033632D01*
X240365202Y194095219D01*
X240348209Y194144980D01*
X240324115Y194183116D01*
X240294182Y194210293D01*
X240258827Y194226970D01*
X240238954Y194231314D01*
X240217813Y194232785D01*
X240211123Y194232647D01*
X240189892Y194230288D01*
X240169853Y194225099D01*
X240150734Y194217014D01*
X240133050Y194206238D01*
X240116392Y194192413D01*
X240101480Y194175993D01*
X240087993Y194156403D01*
X240076616Y194134338D01*
X240067245Y194109237D01*
X240060364Y194081856D01*
X240056058Y194051886D01*
X240054592Y194019919D01*
X239962189Y194019919D01*
X239963739Y194055221D01*
X239975497Y194123585D01*
X239996507Y194181533D01*
X240025376Y194229018D01*
X240061060Y194266235D01*
X240102971Y194293334D01*
X240126231Y194303066D01*
X240150937Y194310140D01*
X240177309Y194314504D01*
X240205018Y194315978D01*
X240212933Y194315869D01*
G37*
G36*
X239531102Y193732327D02*
G01*
X239685762Y194167925D01*
X239828697Y193732327D01*
X239923661Y193732327D01*
X239734850Y194293924D01*
X239768955Y194382513D01*
X239778424Y194403140D01*
X239789542Y194418450D01*
X239799638Y194426902D01*
X239811388Y194432666D01*
X239840469Y194436951D01*
X239885871Y194430910D01*
X239887369Y194430577D01*
X239887369Y194510559D01*
X239869693Y194518223D01*
X239850926Y194522762D01*
X239827627Y194524425D01*
X239787883Y194518666D01*
X239768031Y194511384D01*
X239749687Y194501384D01*
X239744434Y194497764D01*
X239727140Y194483195D01*
X239712594Y194466325D01*
X239690206Y194425539D01*
X239683622Y194409221D01*
X239435068Y193732327D01*
X239531102Y193732327D01*
G37*
G36*
X248430237Y195023794D02*
G01*
X248432394Y194974961D01*
X248441535Y194939941D01*
X248450477Y194919617D01*
X248463116Y194896563D01*
X248478043Y194875582D01*
X248514017Y194840386D01*
X248558844Y194813297D01*
X248613642Y194794353D01*
X248679926Y194784380D01*
X248715037Y194783196D01*
X248752488Y194784670D01*
X248787619Y194789034D01*
X248819368Y194795939D01*
X248848744Y194805396D01*
X248874795Y194816888D01*
X248898455Y194830615D01*
X248919022Y194845985D01*
X248937185Y194863319D01*
X248952550Y194882114D01*
X248965467Y194902664D01*
X248975793Y194924730D01*
X248983564Y194948401D01*
X248991175Y195000734D01*
X248991368Y195011045D01*
X248989877Y195038248D01*
X248985396Y195063380D01*
X248978495Y195085005D01*
X248968961Y195104844D01*
X248957212Y195122359D01*
X248942976Y195138218D01*
X248906611Y195165228D01*
X248857516Y195186399D01*
X248838802Y195191807D01*
X248645710Y195242849D01*
X248608498Y195253980D01*
X248577191Y195266732D01*
X248554886Y195279062D01*
X248536699Y195292741D01*
X248523832Y195306174D01*
X248514091Y195320792D01*
X248503890Y195352172D01*
X248502775Y195368336D01*
X248508422Y195405128D01*
X248525572Y195441522D01*
X248537965Y195457586D01*
X248552447Y195471346D01*
X248558237Y195475723D01*
X248592641Y195493340D01*
X248642325Y195504994D01*
X248701171Y195508665D01*
X248739221Y195507159D01*
X248773250Y195502577D01*
X248800079Y195495910D01*
X248824106Y195486710D01*
X248843982Y195475874D01*
X248861706Y195462756D01*
X248880398Y195443804D01*
X248894847Y195424406D01*
X248906043Y195404051D01*
X248918548Y195362381D01*
X248920924Y195324739D01*
X249014818Y195324739D01*
X249012716Y195363622D01*
X249007531Y195397864D01*
X249000409Y195424435D01*
X248990715Y195448765D01*
X248968942Y195485308D01*
X248952044Y195506077D01*
X248933056Y195524711D01*
X248888839Y195555626D01*
X248835497Y195578263D01*
X248771828Y195592116D01*
X248707592Y195596138D01*
X248666318Y195594664D01*
X248627613Y195590303D01*
X248592801Y195583424D01*
X248560726Y195574012D01*
X248532819Y195562741D01*
X248507699Y195549307D01*
X248488909Y195536442D01*
X248454325Y195501593D01*
X248426659Y195457229D01*
X248416409Y195432466D01*
X248409021Y195406795D01*
X248403530Y195358751D01*
X248405009Y195333229D01*
X248409402Y195309054D01*
X248416462Y195286767D01*
X248426195Y195265906D01*
X248453272Y195228910D01*
X248490778Y195198000D01*
X248539413Y195173699D01*
X248568892Y195164170D01*
X248764124Y195112058D01*
X248804327Y195099524D01*
X248836149Y195085740D01*
X248854943Y195074172D01*
X248869597Y195061292D01*
X248879205Y195048779D01*
X248886033Y195034897D01*
X248892035Y195002374D01*
X248892123Y194997226D01*
X248890655Y194977841D01*
X248886333Y194959690D01*
X248869728Y194927603D01*
X248842691Y194901067D01*
X248804937Y194880936D01*
X248756280Y194868901D01*
X248718247Y194866435D01*
X248684543Y194867917D01*
X248653842Y194872333D01*
X248628039Y194879039D01*
X248604953Y194888212D01*
X248585839Y194899014D01*
X248569207Y194911924D01*
X248555631Y194926256D01*
X248544422Y194942474D01*
X248529335Y194980194D01*
X248524085Y195023794D01*
X248430237Y195023794D01*
G37*
G36*
X247852635Y195201113D02*
G01*
X247856898Y195165764D01*
X247863818Y195135622D01*
X247872221Y195112521D01*
X247882917Y195091748D01*
X247889951Y195080837D01*
X247921584Y195047608D01*
X247962674Y195021581D01*
X248012221Y195004367D01*
X248039723Y194999590D01*
X248068502Y194997640D01*
X248073459Y194997598D01*
X248102058Y194999073D01*
X248129233Y195003439D01*
X248154582Y195010496D01*
X248178412Y195020200D01*
X248221125Y195047118D01*
X248257302Y195083932D01*
X248286486Y195130762D01*
X248307758Y195187841D01*
X248319819Y195255242D01*
X248322013Y195302219D01*
X248320539Y195339974D01*
X248316178Y195375580D01*
X248309230Y195408132D01*
X248299706Y195438439D01*
X248288059Y195465653D01*
X248274133Y195490560D01*
X248258465Y195512497D01*
X248240784Y195532077D01*
X248221579Y195548891D01*
X248200577Y195563282D01*
X248178071Y195575069D01*
X248153934Y195584324D01*
X248100869Y195594946D01*
X248074529Y195596138D01*
X248043941Y195594661D01*
X248015251Y195590275D01*
X247989373Y195583332D01*
X247965405Y195573795D01*
X247943925Y195562055D01*
X247924385Y195547965D01*
X247891657Y195513373D01*
X247867093Y195469920D01*
X247851192Y195417037D01*
X247846215Y195379921D01*
X247935828Y195379921D01*
X247942171Y195408858D01*
X247950937Y195434283D01*
X247961025Y195454389D01*
X247973108Y195471580D01*
X247986231Y195485039D01*
X248001094Y195495939D01*
X248035324Y195509897D01*
X248072388Y195514016D01*
X248094853Y195512540D01*
X248115790Y195508169D01*
X248134647Y195501209D01*
X248151952Y195491659D01*
X248181661Y195465119D01*
X248205062Y195428051D01*
X248221361Y195379300D01*
X248228911Y195317723D01*
X248229189Y195302219D01*
X248227714Y195264868D01*
X248223349Y195230562D01*
X248216620Y195200964D01*
X248207445Y195174327D01*
X248196645Y195152065D01*
X248183807Y195132611D01*
X248169853Y195116883D01*
X248154186Y195103822D01*
X248137493Y195093819D01*
X248119300Y195086438D01*
X248078802Y195079822D01*
X248074529Y195079767D01*
X248051595Y195081245D01*
X248030614Y195085630D01*
X248012521Y195092439D01*
X247996307Y195101759D01*
X247970230Y195127011D01*
X247951741Y195161733D01*
X247942202Y195201113D01*
X247852635Y195201113D01*
G37*
G36*
X247554670Y195594555D02*
G01*
X247608888Y195583440D01*
X247655579Y195562389D01*
X247676353Y195548171D01*
X247695282Y195531582D01*
X247712667Y195512242D01*
X247728033Y195490537D01*
X247741755Y195465652D01*
X247753214Y195438355D01*
X247762680Y195407446D01*
X247769578Y195374059D01*
X247773967Y195336754D01*
X247775445Y195296915D01*
X247773385Y195250325D01*
X247761778Y195183273D01*
X247741255Y195127477D01*
X247712913Y195082096D01*
X247677264Y195046401D01*
X247656636Y195032030D01*
X247634223Y195020080D01*
X247609620Y195010460D01*
X247583264Y195003467D01*
X247554349Y194999076D01*
X247523681Y194997598D01*
X247489387Y194999336D01*
X247434964Y195010587D01*
X247388536Y195031568D01*
X247367974Y195045696D01*
X247349271Y195062181D01*
X247332086Y195081455D01*
X247316916Y195103118D01*
X247303317Y195128131D01*
X247291970Y195155635D01*
X247282535Y195187100D01*
X247275664Y195221199D01*
X247271256Y195259783D01*
X247269814Y195300079D01*
X247362600Y195300079D01*
X247363146Y195277611D01*
X247371543Y195215156D01*
X247388454Y195165999D01*
X247412286Y195128767D01*
X247442326Y195102166D01*
X247459796Y195092594D01*
X247478807Y195085627D01*
X247499945Y195081244D01*
X247522611Y195079767D01*
X247528944Y195079880D01*
X247570589Y195086989D01*
X247589305Y195094595D01*
X247606491Y195104799D01*
X247622529Y195117945D01*
X247636818Y195133682D01*
X247649846Y195152870D01*
X247660808Y195174720D01*
X247670031Y195200488D01*
X247676797Y195228988D01*
X247681149Y195261583D01*
X247682621Y195296915D01*
X247682151Y195317161D01*
X247673891Y195378706D01*
X247656922Y195427619D01*
X247632885Y195464900D01*
X247602617Y195491597D01*
X247585101Y195501186D01*
X247566074Y195508168D01*
X247545073Y195512540D01*
X247522611Y195514016D01*
X247517031Y195513926D01*
X247475396Y195506929D01*
X247456568Y195499327D01*
X247439247Y195489108D01*
X247423065Y195475948D01*
X247408629Y195460200D01*
X247395502Y195441099D01*
X247384448Y195419389D01*
X247375198Y195394004D01*
X247368408Y195366005D01*
X247364070Y195334315D01*
X247362600Y195300079D01*
X247269814Y195300079D01*
X247269776Y195301149D01*
X247271713Y195345166D01*
X247283212Y195411174D01*
X247303778Y195466459D01*
X247332321Y195511655D01*
X247368293Y195547325D01*
X247389099Y195561701D01*
X247411700Y195573664D01*
X247436451Y195583283D01*
X247462952Y195590279D01*
X247491916Y195594661D01*
X247522611Y195596138D01*
X247554670Y195594555D01*
G37*
G36*
X246959991Y195012487D02*
G01*
X247051744Y195012487D01*
X247051744Y194858898D01*
X247140288Y194858898D01*
X247140288Y195012487D01*
X247216036Y195012487D01*
X247216036Y195085072D01*
X247140288Y195085072D01*
X247140288Y195507595D01*
X247138810Y195526205D01*
X247134421Y195542707D01*
X247127757Y195556171D01*
X247118669Y195567736D01*
X247093762Y195584909D01*
X247057959Y195594584D01*
X247032528Y195596138D01*
X246999570Y195594515D01*
X246962323Y195589108D01*
X246959991Y195588693D01*
X246959991Y195514016D01*
X247002657Y195518296D01*
X247023775Y195516627D01*
X247038206Y195510898D01*
X247044333Y195504704D01*
X247048457Y195496189D01*
X247051744Y195468139D01*
X247051744Y195085072D01*
X246959991Y195085072D01*
X246959991Y195012487D01*
G37*
G36*
X246641365Y195012487D02*
G01*
X246733119Y195012487D01*
X246733119Y194858898D01*
X246821662Y194858898D01*
X246821662Y195012487D01*
X246897410Y195012487D01*
X246897410Y195085072D01*
X246821662Y195085072D01*
X246821662Y195507595D01*
X246820184Y195526205D01*
X246815795Y195542707D01*
X246809131Y195556171D01*
X246800044Y195567736D01*
X246775137Y195584909D01*
X246739334Y195594584D01*
X246713903Y195596138D01*
X246680944Y195594515D01*
X246643698Y195589108D01*
X246641365Y195588693D01*
X246641365Y195514016D01*
X246684032Y195518296D01*
X246705149Y195516627D01*
X246719581Y195510898D01*
X246725707Y195504704D01*
X246729832Y195496189D01*
X246733119Y195468139D01*
X246733119Y195085072D01*
X246641365Y195085072D01*
X246641365Y195012487D01*
G37*
G36*
X245683953Y195023794D02*
G01*
X245686110Y194974961D01*
X245695251Y194939941D01*
X245704193Y194919617D01*
X245716832Y194896563D01*
X245731758Y194875582D01*
X245767733Y194840386D01*
X245812560Y194813297D01*
X245867358Y194794353D01*
X245933642Y194784380D01*
X245968753Y194783196D01*
X246006204Y194784670D01*
X246041335Y194789034D01*
X246073084Y194795939D01*
X246102460Y194805396D01*
X246128511Y194816888D01*
X246152170Y194830615D01*
X246172738Y194845985D01*
X246190900Y194863319D01*
X246206266Y194882114D01*
X246219183Y194902664D01*
X246229509Y194924730D01*
X246237280Y194948401D01*
X246244891Y195000734D01*
X246245084Y195011045D01*
X246243593Y195038248D01*
X246239112Y195063380D01*
X246232210Y195085005D01*
X246222677Y195104844D01*
X246210928Y195122359D01*
X246196692Y195138218D01*
X246160326Y195165228D01*
X246111232Y195186399D01*
X246092518Y195191807D01*
X245899426Y195242849D01*
X245862213Y195253980D01*
X245830907Y195266732D01*
X245808602Y195279062D01*
X245790415Y195292741D01*
X245777548Y195306174D01*
X245767807Y195320792D01*
X245757606Y195352172D01*
X245756491Y195368336D01*
X245762138Y195405128D01*
X245779288Y195441522D01*
X245791681Y195457586D01*
X245806163Y195471346D01*
X245811952Y195475723D01*
X245846357Y195493340D01*
X245896041Y195504994D01*
X245954887Y195508665D01*
X245992937Y195507159D01*
X246026966Y195502577D01*
X246053795Y195495910D01*
X246077822Y195486710D01*
X246097698Y195475874D01*
X246115422Y195462756D01*
X246134114Y195443804D01*
X246148563Y195424406D01*
X246159759Y195404051D01*
X246172264Y195362381D01*
X246174640Y195324739D01*
X246268534Y195324739D01*
X246266432Y195363622D01*
X246261246Y195397864D01*
X246254125Y195424435D01*
X246244431Y195448765D01*
X246222657Y195485308D01*
X246205760Y195506077D01*
X246186772Y195524711D01*
X246142555Y195555626D01*
X246089213Y195578263D01*
X246025544Y195592116D01*
X245961308Y195596138D01*
X245920034Y195594664D01*
X245881329Y195590303D01*
X245846517Y195583424D01*
X245814442Y195574012D01*
X245786535Y195562741D01*
X245761415Y195549307D01*
X245742625Y195536442D01*
X245708041Y195501593D01*
X245680375Y195457229D01*
X245670124Y195432466D01*
X245662737Y195406795D01*
X245657246Y195358751D01*
X245658724Y195333229D01*
X245663118Y195309054D01*
X245670178Y195286767D01*
X245679911Y195265906D01*
X245706988Y195228910D01*
X245744494Y195198000D01*
X245793129Y195173699D01*
X245822607Y195164170D01*
X246017840Y195112058D01*
X246058043Y195099524D01*
X246089865Y195085740D01*
X246108659Y195074172D01*
X246123313Y195061292D01*
X246132921Y195048779D01*
X246139748Y195034897D01*
X246145751Y195002374D01*
X246145839Y194997226D01*
X246144371Y194977841D01*
X246140049Y194959690D01*
X246123444Y194927603D01*
X246096407Y194901067D01*
X246058653Y194880936D01*
X246009996Y194868901D01*
X245971963Y194866435D01*
X245938259Y194867917D01*
X245907558Y194872333D01*
X245881755Y194879039D01*
X245858669Y194888212D01*
X245839555Y194899014D01*
X245822923Y194911924D01*
X245809347Y194926256D01*
X245798138Y194942474D01*
X245783051Y194980194D01*
X245777801Y195023794D01*
X245683953Y195023794D01*
G37*
G36*
X245539343Y194795107D02*
G01*
X245539343Y195572315D01*
X245450800Y195572315D01*
X245450800Y195264205D01*
X245449332Y195234020D01*
X245445012Y195205961D01*
X245438185Y195180833D01*
X245428889Y195158021D01*
X245417676Y195138324D01*
X245404374Y195121057D01*
X245389631Y195106806D01*
X245373130Y195095069D01*
X245355387Y195086141D01*
X245336142Y195079843D01*
X245299304Y195075487D01*
X245278159Y195076959D01*
X245258113Y195081312D01*
X245239823Y195088304D01*
X245223274Y195097893D01*
X245220346Y195100007D01*
X245207809Y195111296D01*
X245198096Y195124263D01*
X245186819Y195154464D01*
X245184100Y195185293D01*
X245184100Y195572315D01*
X245095557Y195572315D01*
X245095557Y195150118D01*
X245097029Y195126725D01*
X245101383Y195104976D01*
X245108292Y195085476D01*
X245117748Y195067703D01*
X245143605Y195037949D01*
X245178791Y195015732D01*
X245223721Y195001806D01*
X245271573Y194997598D01*
X245303450Y194999142D01*
X245332188Y195003993D01*
X245354578Y195010955D01*
X245375513Y195020740D01*
X245413325Y195048494D01*
X245450800Y195090422D01*
X245450800Y194795107D01*
X245539343Y194795107D01*
G37*
G36*
X244796121Y195596123D02*
G01*
X244849695Y195590116D01*
X244893758Y195574407D01*
X244928608Y195550288D01*
X244942667Y195535274D01*
X244954420Y195518373D01*
X244963888Y195499408D01*
X244970807Y195478682D01*
X244975158Y195455679D01*
X244976631Y195431009D01*
X244976175Y195416614D01*
X244967992Y195372914D01*
X244949960Y195336805D01*
X244936815Y195320823D01*
X244921066Y195306614D01*
X244901252Y195293297D01*
X244878456Y195281979D01*
X244853749Y195273072D01*
X244823250Y195265752D01*
X244699229Y195247920D01*
X244665989Y195242418D01*
X244631952Y195231335D01*
X244614449Y195216496D01*
X244608560Y195203020D01*
X244606452Y195186177D01*
X244606452Y195162774D01*
X244607649Y195148133D01*
X244617881Y195121682D01*
X244627348Y195110254D01*
X244639576Y195100570D01*
X244656186Y195091976D01*
X244676031Y195085614D01*
X244701729Y195081243D01*
X244731240Y195079767D01*
X244767366Y195082079D01*
X244805731Y195092385D01*
X244832884Y195110199D01*
X244843502Y195122629D01*
X244851818Y195137286D01*
X244858513Y195156537D01*
X244862450Y195178733D01*
X244952064Y195178733D01*
X244948590Y195140201D01*
X244937063Y195098735D01*
X244926911Y195079921D01*
X244913678Y195062691D01*
X244893199Y195044117D01*
X244873063Y195030801D01*
X244850355Y195019612D01*
X244823986Y195010265D01*
X244795109Y195003421D01*
X244762742Y194999071D01*
X244728030Y194997598D01*
X244716402Y194997729D01*
X244651600Y195004277D01*
X244602473Y195019099D01*
X244566073Y195040722D01*
X244540164Y195068889D01*
X244530704Y195085899D01*
X244523830Y195104649D01*
X244519393Y195126386D01*
X244517908Y195150025D01*
X244517908Y195395880D01*
X244606452Y195395880D01*
X244606452Y195295845D01*
X244628033Y195304702D01*
X244653509Y195311670D01*
X244749386Y195326693D01*
X244789041Y195334102D01*
X244833531Y195349380D01*
X244861195Y195368502D01*
X244870760Y195380139D01*
X244877627Y195393259D01*
X244882290Y195410008D01*
X244883807Y195428869D01*
X244882528Y195445560D01*
X244872281Y195474635D01*
X244863258Y195486830D01*
X244851785Y195497138D01*
X244836971Y195505962D01*
X244819581Y195512481D01*
X244798111Y195516825D01*
X244773907Y195518296D01*
X244725608Y195512933D01*
X244703003Y195506118D01*
X244681715Y195496586D01*
X244660995Y195483861D01*
X244641627Y195468278D01*
X244632175Y195459052D01*
X244613492Y195432903D01*
X244608076Y195415680D01*
X244606452Y195395880D01*
X244517908Y195395880D01*
X244517908Y195477817D01*
X244517891Y195479357D01*
X244512420Y195501299D01*
X244506020Y195509559D01*
X244497282Y195515740D01*
X244484929Y195520041D01*
X244469891Y195521507D01*
X244450675Y195519366D01*
X244450675Y195586553D01*
X244452992Y195587132D01*
X244485789Y195594268D01*
X244511487Y195596138D01*
X244549355Y195591367D01*
X244574566Y195578381D01*
X244584592Y195568025D01*
X244592494Y195555127D01*
X244599217Y195536482D01*
X244603241Y195514016D01*
X244636894Y195542078D01*
X244686098Y195572424D01*
X244710729Y195582694D01*
X244735932Y195589985D01*
X244763861Y195594624D01*
X244793123Y195596138D01*
X244796121Y195596123D01*
G37*
G36*
X243851251Y195572315D02*
G01*
X243686960Y195012487D01*
X243787229Y195012487D01*
X243898152Y195448411D01*
X244008052Y195012487D01*
X244116881Y195012487D01*
X244223524Y195448411D01*
X244337704Y195012487D01*
X244435833Y195012487D01*
X244273682Y195572315D01*
X244173413Y195572315D01*
X244065654Y195133228D01*
X243952590Y195572315D01*
X243851251Y195572315D01*
G37*
G36*
X243178220Y195201113D02*
G01*
X243182483Y195165764D01*
X243189403Y195135622D01*
X243197806Y195112521D01*
X243208501Y195091748D01*
X243215536Y195080837D01*
X243247169Y195047608D01*
X243288259Y195021581D01*
X243337806Y195004367D01*
X243365307Y194999590D01*
X243394086Y194997640D01*
X243399043Y194997598D01*
X243427642Y194999073D01*
X243454818Y195003439D01*
X243480167Y195010496D01*
X243503997Y195020200D01*
X243546710Y195047118D01*
X243582887Y195083932D01*
X243612070Y195130762D01*
X243633343Y195187841D01*
X243645404Y195255242D01*
X243647597Y195302219D01*
X243646123Y195339974D01*
X243641762Y195375580D01*
X243634815Y195408132D01*
X243625291Y195438439D01*
X243613643Y195465653D01*
X243599718Y195490560D01*
X243584050Y195512497D01*
X243566369Y195532077D01*
X243547164Y195548891D01*
X243526161Y195563282D01*
X243503656Y195575069D01*
X243479518Y195584324D01*
X243426454Y195594946D01*
X243400113Y195596138D01*
X243369525Y195594661D01*
X243340835Y195590275D01*
X243314958Y195583332D01*
X243290989Y195573795D01*
X243269510Y195562055D01*
X243249970Y195547965D01*
X243217242Y195513373D01*
X243192678Y195469920D01*
X243176776Y195417037D01*
X243171799Y195379921D01*
X243261413Y195379921D01*
X243267756Y195408858D01*
X243276522Y195434283D01*
X243286609Y195454389D01*
X243298692Y195471580D01*
X243311816Y195485039D01*
X243326678Y195495939D01*
X243360909Y195509897D01*
X243397973Y195514016D01*
X243420438Y195512540D01*
X243441374Y195508169D01*
X243460232Y195501209D01*
X243477536Y195491659D01*
X243507245Y195465119D01*
X243530646Y195428051D01*
X243546946Y195379300D01*
X243554496Y195317723D01*
X243554773Y195302219D01*
X243553299Y195264868D01*
X243548934Y195230562D01*
X243542205Y195200964D01*
X243533029Y195174327D01*
X243522229Y195152065D01*
X243509392Y195132611D01*
X243495438Y195116883D01*
X243479771Y195103822D01*
X243463078Y195093819D01*
X243444884Y195086438D01*
X243404387Y195079822D01*
X243400113Y195079767D01*
X243377179Y195081245D01*
X243356199Y195085630D01*
X243338106Y195092439D01*
X243321892Y195101759D01*
X243295814Y195127011D01*
X243277325Y195161733D01*
X243267787Y195201113D01*
X243178220Y195201113D01*
G37*
G36*
X243073997Y195012487D02*
G01*
X243073997Y195572315D01*
X242984430Y195572315D01*
X242984430Y195281747D01*
X242982641Y195245398D01*
X242977842Y195213038D01*
X242971041Y195187709D01*
X242961792Y195165407D01*
X242951168Y195147645D01*
X242938429Y195132341D01*
X242907926Y195109734D01*
X242868529Y195095679D01*
X242816845Y195090355D01*
X242805203Y195090469D01*
X242805203Y194999692D01*
X242817549Y194998756D01*
X242839308Y194997598D01*
X242859575Y194999113D01*
X242878859Y195003763D01*
X242913271Y195021566D01*
X242947770Y195053532D01*
X242986835Y195106915D01*
X242991874Y195114989D01*
X242991874Y195012487D01*
X243073997Y195012487D01*
G37*
G36*
X242540040Y195594555D02*
G01*
X242594258Y195583440D01*
X242640949Y195562389D01*
X242661723Y195548171D01*
X242680652Y195531582D01*
X242698037Y195512242D01*
X242713403Y195490537D01*
X242727125Y195465652D01*
X242738584Y195438355D01*
X242748050Y195407446D01*
X242754948Y195374059D01*
X242759337Y195336754D01*
X242760815Y195296915D01*
X242758755Y195250325D01*
X242747148Y195183273D01*
X242726625Y195127477D01*
X242698283Y195082096D01*
X242662634Y195046401D01*
X242642006Y195032030D01*
X242619593Y195020080D01*
X242594990Y195010460D01*
X242568634Y195003467D01*
X242539719Y194999076D01*
X242509051Y194997598D01*
X242474757Y194999336D01*
X242420334Y195010587D01*
X242373906Y195031568D01*
X242353344Y195045696D01*
X242334641Y195062181D01*
X242317456Y195081455D01*
X242302286Y195103118D01*
X242288686Y195128131D01*
X242277340Y195155635D01*
X242267905Y195187100D01*
X242261034Y195221199D01*
X242256626Y195259783D01*
X242255184Y195300079D01*
X242347970Y195300079D01*
X242348516Y195277611D01*
X242356913Y195215156D01*
X242373824Y195165999D01*
X242397656Y195128767D01*
X242427696Y195102166D01*
X242445166Y195092594D01*
X242464177Y195085627D01*
X242485315Y195081244D01*
X242507981Y195079767D01*
X242514314Y195079880D01*
X242555959Y195086989D01*
X242574675Y195094595D01*
X242591861Y195104799D01*
X242607899Y195117945D01*
X242622188Y195133682D01*
X242635216Y195152870D01*
X242646178Y195174720D01*
X242655401Y195200488D01*
X242662167Y195228988D01*
X242666519Y195261583D01*
X242667991Y195296915D01*
X242667521Y195317161D01*
X242659261Y195378706D01*
X242642292Y195427619D01*
X242618255Y195464900D01*
X242587987Y195491597D01*
X242570471Y195501186D01*
X242551444Y195508168D01*
X242530443Y195512540D01*
X242507981Y195514016D01*
X242502401Y195513926D01*
X242460766Y195506929D01*
X242441938Y195499327D01*
X242424617Y195489108D01*
X242408435Y195475948D01*
X242393999Y195460200D01*
X242380872Y195441099D01*
X242369818Y195419389D01*
X242360568Y195394004D01*
X242353778Y195366005D01*
X242349440Y195334315D01*
X242347970Y195300079D01*
X242255184Y195300079D01*
X242255146Y195301149D01*
X242257083Y195345166D01*
X242268582Y195411174D01*
X242289148Y195466459D01*
X242317691Y195511655D01*
X242353663Y195547325D01*
X242374469Y195561701D01*
X242397070Y195573664D01*
X242421821Y195583283D01*
X242448322Y195590279D01*
X242477286Y195594661D01*
X242507981Y195596138D01*
X242540040Y195594555D01*
G37*
G36*
X241931402Y195012487D02*
G01*
X242024226Y195012487D01*
X242024226Y194925945D01*
X242022733Y194909947D01*
X242018239Y194896599D01*
X242011839Y194887127D01*
X242003114Y194879715D01*
X241978806Y194871170D01*
X241962344Y194870018D01*
X241931402Y194871088D01*
X241931402Y194797480D01*
X241957284Y194793200D01*
X241981560Y194792130D01*
X242005826Y194793603D01*
X242027891Y194797960D01*
X242046713Y194804682D01*
X242063367Y194813840D01*
X242077270Y194824885D01*
X242089000Y194838042D01*
X242105525Y194870113D01*
X242112604Y194910692D01*
X242112769Y194918593D01*
X242112769Y195012487D01*
X242187447Y195012487D01*
X242187447Y195085072D01*
X242112769Y195085072D01*
X242112769Y195572315D01*
X242024226Y195572315D01*
X242024226Y195085072D01*
X241931402Y195085072D01*
X241931402Y195012487D01*
G37*
G36*
X241614824Y195012487D02*
G01*
X241706578Y195012487D01*
X241706578Y194858898D01*
X241795121Y194858898D01*
X241795121Y195012487D01*
X241870869Y195012487D01*
X241870869Y195085072D01*
X241795121Y195085072D01*
X241795121Y195507595D01*
X241793643Y195526205D01*
X241789254Y195542707D01*
X241782590Y195556171D01*
X241773503Y195567736D01*
X241748595Y195584909D01*
X241712793Y195594584D01*
X241687362Y195596138D01*
X241654403Y195594515D01*
X241617156Y195589108D01*
X241614824Y195588693D01*
X241614824Y195514016D01*
X241657490Y195518296D01*
X241678608Y195516627D01*
X241693039Y195510898D01*
X241699166Y195504704D01*
X241703291Y195496189D01*
X241706578Y195468139D01*
X241706578Y195085072D01*
X241614824Y195085072D01*
X241614824Y195012487D01*
G37*
G36*
X240753400Y195480608D02*
G01*
X241151309Y195480608D01*
X241146067Y195456060D01*
X241137701Y195433465D01*
X241127391Y195414783D01*
X241113964Y195396788D01*
X241075214Y195360361D01*
X241014749Y195319248D01*
X240908106Y195259366D01*
X240875703Y195239637D01*
X240846901Y195218521D01*
X240823005Y195197312D01*
X240802371Y195174919D01*
X240785733Y195152460D01*
X240772105Y195128969D01*
X240761768Y195105191D01*
X240754303Y195080482D01*
X240748060Y195028747D01*
X240748049Y195026399D01*
X240753865Y194974169D01*
X240761077Y194949079D01*
X240771015Y194925191D01*
X240783563Y194902749D01*
X240798617Y194881972D01*
X240818493Y194860805D01*
X240838967Y194844303D01*
X240860927Y194830525D01*
X240908530Y194811310D01*
X240964174Y194801967D01*
X240990229Y194801063D01*
X241023879Y194802548D01*
X241055332Y194806989D01*
X241083084Y194813911D01*
X241108761Y194823453D01*
X241131400Y194835052D01*
X241152044Y194849027D01*
X241170263Y194864978D01*
X241186494Y194883170D01*
X241199327Y194901378D01*
X241211845Y194923238D01*
X241221850Y194947137D01*
X241234778Y195002368D01*
X241239853Y195068089D01*
X241145959Y195068089D01*
X241141639Y195022590D01*
X241134507Y194987620D01*
X241123579Y194959073D01*
X241100150Y194926674D01*
X241068077Y194902139D01*
X241049275Y194893355D01*
X241029062Y194887209D01*
X240993439Y194883232D01*
X240971073Y194884692D01*
X240949914Y194888955D01*
X240929902Y194895951D01*
X240911508Y194905463D01*
X240894808Y194917404D01*
X240880139Y194931527D01*
X240867720Y194947612D01*
X240857711Y194965500D01*
X240850373Y194984785D01*
X240845769Y195005476D01*
X240844083Y195028540D01*
X240845567Y195050239D01*
X240849995Y195071154D01*
X240867342Y195110023D01*
X240896435Y195145598D01*
X240938548Y195177744D01*
X240946492Y195182455D01*
X241044620Y195240150D01*
X241093252Y195269935D01*
X241134186Y195299316D01*
X241161374Y195322753D01*
X241184481Y195346981D01*
X241202016Y195369811D01*
X241216715Y195393983D01*
X241238132Y195446538D01*
X241251656Y195511951D01*
X241256929Y195572315D01*
X240753400Y195572315D01*
X240753400Y195480608D01*
G37*
G36*
X240455057Y195591743D02*
G01*
X240501718Y195576927D01*
X240522895Y195565567D01*
X240542534Y195551614D01*
X240561203Y195534486D01*
X240578207Y195514624D01*
X240594341Y195490710D01*
X240608597Y195463792D01*
X240621740Y195431731D01*
X240632708Y195396291D01*
X240642041Y195354544D01*
X240648835Y195308971D01*
X240653275Y195255964D01*
X240654760Y195198647D01*
X240654647Y195182054D01*
X240648113Y195080767D01*
X240632893Y195000276D01*
X240610362Y194936276D01*
X240581152Y194885372D01*
X240548565Y194851248D01*
X240528313Y194836343D01*
X240506307Y194823858D01*
X240458376Y194806838D01*
X240407229Y194801063D01*
X240355906Y194806631D01*
X240308142Y194823275D01*
X240266845Y194849910D01*
X240233353Y194885372D01*
X240205548Y194933211D01*
X240192520Y194964879D01*
X240181716Y194999689D01*
X240172480Y195041201D01*
X240165778Y195086893D01*
X240161244Y195143029D01*
X240159952Y195196507D01*
X240255780Y195196507D01*
X240258712Y195115203D01*
X240269937Y195034120D01*
X240287429Y194975704D01*
X240309680Y194934680D01*
X240336255Y194907000D01*
X240351484Y194897281D01*
X240368042Y194890264D01*
X240386899Y194885792D01*
X240407229Y194884302D01*
X240423557Y194885248D01*
X240458478Y194895057D01*
X240474324Y194904213D01*
X240488800Y194916180D01*
X240502842Y194932200D01*
X240515306Y194951496D01*
X240527261Y194976682D01*
X240537290Y195005911D01*
X240546224Y195043390D01*
X240552761Y195085964D01*
X240557235Y195139626D01*
X240558725Y195199717D01*
X240555723Y195283323D01*
X240544387Y195366087D01*
X240526815Y195425743D01*
X240504609Y195467515D01*
X240478336Y195495531D01*
X240463428Y195505295D01*
X240447261Y195512343D01*
X240429003Y195516808D01*
X240409370Y195518296D01*
X240390881Y195517154D01*
X240355623Y195507057D01*
X240339777Y195497858D01*
X240325336Y195485888D01*
X240311381Y195469918D01*
X240299022Y195450690D01*
X240287152Y195425487D01*
X240277212Y195396187D01*
X240268299Y195358192D01*
X240261788Y195314873D01*
X240257275Y195259201D01*
X240255780Y195196507D01*
X240159952Y195196507D01*
X240159746Y195205021D01*
X240159805Y195216356D01*
X240166110Y195315425D01*
X240181392Y195395616D01*
X240203919Y195459334D01*
X240232476Y195508954D01*
X240266529Y195546526D01*
X240306301Y195573461D01*
X240328757Y195583184D01*
X240352725Y195590220D01*
X240379182Y195594654D01*
X240407229Y195596138D01*
X240455057Y195591743D01*
G37*
G36*
X239568232Y195480608D02*
G01*
X239966142Y195480608D01*
X239960899Y195456060D01*
X239952533Y195433465D01*
X239942223Y195414783D01*
X239928796Y195396788D01*
X239890046Y195360361D01*
X239829581Y195319248D01*
X239722938Y195259366D01*
X239690535Y195239637D01*
X239661733Y195218521D01*
X239637837Y195197312D01*
X239617203Y195174919D01*
X239600565Y195152460D01*
X239586937Y195128969D01*
X239576600Y195105191D01*
X239569136Y195080482D01*
X239562892Y195028747D01*
X239562881Y195026399D01*
X239568697Y194974169D01*
X239575910Y194949079D01*
X239585847Y194925191D01*
X239598395Y194902749D01*
X239613449Y194881972D01*
X239633325Y194860805D01*
X239653800Y194844303D01*
X239675759Y194830525D01*
X239723362Y194811310D01*
X239779006Y194801967D01*
X239805061Y194801063D01*
X239838711Y194802548D01*
X239870164Y194806989D01*
X239897916Y194813911D01*
X239923593Y194823453D01*
X239946232Y194835052D01*
X239966876Y194849027D01*
X239985095Y194864978D01*
X240001326Y194883170D01*
X240014159Y194901378D01*
X240026678Y194923238D01*
X240036683Y194947137D01*
X240049610Y195002368D01*
X240054685Y195068089D01*
X239960791Y195068089D01*
X239956471Y195022590D01*
X239949339Y194987620D01*
X239938411Y194959073D01*
X239914983Y194926674D01*
X239882909Y194902139D01*
X239864108Y194893355D01*
X239843895Y194887209D01*
X239808271Y194883232D01*
X239785905Y194884692D01*
X239764746Y194888955D01*
X239744734Y194895951D01*
X239726340Y194905463D01*
X239709640Y194917404D01*
X239694972Y194931527D01*
X239682552Y194947612D01*
X239672543Y194965500D01*
X239665205Y194984785D01*
X239660601Y195005476D01*
X239658915Y195028540D01*
X239660399Y195050239D01*
X239664827Y195071154D01*
X239682174Y195110023D01*
X239711267Y195145598D01*
X239753380Y195177744D01*
X239761324Y195182455D01*
X239859452Y195240150D01*
X239908084Y195269935D01*
X239949018Y195299316D01*
X239976206Y195322753D01*
X239999313Y195346981D01*
X240016849Y195369811D01*
X240031547Y195393983D01*
X240052964Y195446538D01*
X240066488Y195511951D01*
X240071761Y195572315D01*
X239568232Y195572315D01*
X239568232Y195480608D01*
G37*
G36*
X239235548Y195595490D02*
G01*
X239288957Y195586404D01*
X239334886Y195567348D01*
X239373748Y195538701D01*
X239390631Y195520620D01*
X239405569Y195500150D01*
X239423029Y195470979D01*
X239436382Y195442356D01*
X239447303Y195411521D01*
X239456603Y195374774D01*
X239463289Y195334336D01*
X239468060Y195280530D01*
X239469592Y195219771D01*
X239465465Y195120932D01*
X239452679Y195037852D01*
X239431672Y194970036D01*
X239417685Y194939508D01*
X239401288Y194910916D01*
X239385689Y194889410D01*
X239367579Y194869459D01*
X239347583Y194851854D01*
X239325841Y194836671D01*
X239302566Y194824042D01*
X239252337Y194806890D01*
X239198611Y194801063D01*
X239188507Y194801257D01*
X239137156Y194808901D01*
X239092219Y194827041D01*
X239072124Y194839925D01*
X239053778Y194855243D01*
X239037030Y194873210D01*
X239022265Y194893539D01*
X239009303Y194916705D01*
X238998606Y194942187D01*
X238990089Y194970644D01*
X238984163Y195001367D01*
X239078057Y195001367D01*
X239086846Y194969995D01*
X239106288Y194933035D01*
X239132410Y194906608D01*
X239147982Y194897089D01*
X239165115Y194890150D01*
X239184324Y194885778D01*
X239205032Y194884302D01*
X239228681Y194886107D01*
X239247997Y194890621D01*
X239266009Y194897837D01*
X239283147Y194908038D01*
X239298866Y194921020D01*
X239314005Y194937839D01*
X239327491Y194957717D01*
X239340198Y194982630D01*
X239350908Y195011016D01*
X239360231Y195045667D01*
X239367128Y195084262D01*
X239371795Y195130116D01*
X239373558Y195180361D01*
X239342143Y195145357D01*
X239323358Y195130775D01*
X239303003Y195118760D01*
X239280384Y195109041D01*
X239256145Y195102029D01*
X239228788Y195097544D01*
X239199681Y195096052D01*
X239198747Y195096054D01*
X239170765Y195097621D01*
X239144080Y195102046D01*
X239118736Y195109232D01*
X239094936Y195119046D01*
X239072703Y195131426D01*
X239052271Y195146206D01*
X239033672Y195163353D01*
X239017138Y195182670D01*
X239002736Y195204127D01*
X238990666Y195227513D01*
X238981030Y195252770D01*
X238973991Y195279706D01*
X238969671Y195308212D01*
X238968203Y195338139D01*
X238968395Y195345583D01*
X239064191Y195345583D01*
X239067236Y195306234D01*
X239079962Y195261895D01*
X239101200Y195227050D01*
X239130156Y195201363D01*
X239147588Y195191949D01*
X239166785Y195185060D01*
X239188255Y195180716D01*
X239211407Y195179245D01*
X239246341Y195182571D01*
X239267428Y195188223D01*
X239286895Y195196463D01*
X239304638Y195207172D01*
X239320485Y195220199D01*
X239334379Y195235502D01*
X239346080Y195252868D01*
X239355516Y195272319D01*
X239362443Y195293576D01*
X239366742Y195316671D01*
X239368207Y195341303D01*
X239364065Y195382802D01*
X239357842Y195405727D01*
X239349040Y195426979D01*
X239324669Y195463395D01*
X239292962Y195490465D01*
X239255799Y195507207D01*
X239214617Y195512945D01*
X239183843Y195509837D01*
X239163760Y195504127D01*
X239145058Y195495698D01*
X239127626Y195484514D01*
X239111952Y195470868D01*
X239098067Y195454752D01*
X239086321Y195436481D01*
X239076873Y195416197D01*
X239069919Y195394113D01*
X239065652Y195370558D01*
X239064191Y195345583D01*
X238968395Y195345583D01*
X238968632Y195354782D01*
X238971663Y195384727D01*
X238977492Y195413240D01*
X238985988Y195440178D01*
X238997025Y195465424D01*
X239010438Y195488783D01*
X239026128Y195510201D01*
X239063643Y195546544D01*
X239108433Y195573538D01*
X239133191Y195583257D01*
X239159436Y195590345D01*
X239186942Y195594669D01*
X239215687Y195596138D01*
X239235548Y195595490D01*
G37*
D11*
G36*
X245002050Y198994255D02*
G01*
X244445533Y198785344D01*
X244445533Y198781815D01*
X244519784Y198786235D01*
X244617106Y198788019D01*
X245002050Y198788019D01*
X245002050Y198714233D01*
X244367288Y198714233D01*
X244367288Y198832453D01*
X244887357Y199028066D01*
X244887357Y199031594D01*
X244367288Y199230735D01*
X244367288Y199348103D01*
X245002050Y199348103D01*
X245002050Y199268966D01*
X244611794Y199268966D01*
X244520211Y199271176D01*
X244446425Y199275209D01*
X244446425Y199271641D01*
X245002050Y199060054D01*
X245002050Y198994255D01*
G37*
G36*
X244428627Y199792138D02*
G01*
X244433225Y199742076D01*
X244446317Y199699459D01*
X244467472Y199662840D01*
X244497102Y199631227D01*
X244532630Y199606581D01*
X244574829Y199588313D01*
X244624982Y199576700D01*
X244684688Y199572563D01*
X244744123Y199576436D01*
X244794153Y199587300D01*
X244836299Y199604348D01*
X244871809Y199627234D01*
X244895968Y199650526D01*
X244914883Y199677852D01*
X244928808Y199709802D01*
X244937598Y199747240D01*
X244940710Y199791246D01*
X244938894Y199832397D01*
X244933614Y199870383D01*
X244915817Y199943277D01*
X244985144Y199943277D01*
X244996689Y199907198D01*
X245004686Y199869917D01*
X245009236Y199830339D01*
X245010929Y199779691D01*
X245008171Y199730998D01*
X245000314Y199688327D01*
X244987827Y199650858D01*
X244970953Y199617889D01*
X244948951Y199587599D01*
X244922890Y199561434D01*
X244892456Y199539108D01*
X244857153Y199520529D01*
X244806961Y199503015D01*
X244749571Y199491990D01*
X244683796Y199488114D01*
X244620573Y199492246D01*
X244564468Y199504114D01*
X244514433Y199523204D01*
X244479482Y199543032D01*
X244448958Y199566770D01*
X244422458Y199594573D01*
X244399741Y199626768D01*
X244382177Y199661578D01*
X244369274Y199700463D01*
X244361217Y199744041D01*
X244358409Y199793029D01*
X244362835Y199859156D01*
X244375487Y199917122D01*
X244395747Y199968170D01*
X244463330Y199936143D01*
X244450904Y199905814D01*
X244439329Y199870809D01*
X244431389Y199833778D01*
X244428627Y199792138D01*
G37*
G36*
X245002050Y200566950D02*
G01*
X245002050Y200486921D01*
X244706013Y200486921D01*
X244706013Y200161572D01*
X245002050Y200161572D01*
X245002050Y200081543D01*
X244367288Y200081543D01*
X244367288Y200161572D01*
X244635795Y200161572D01*
X244635795Y200486921D01*
X244367288Y200486921D01*
X244367288Y200566950D01*
X245002050Y200566950D01*
G37*
G36*
X244954048Y200717546D02*
G01*
X244932737Y200719654D01*
X244917915Y200725187D01*
X244907830Y200733521D01*
X244897881Y200750930D01*
X244894492Y200771751D01*
X244897902Y200793446D01*
X244907830Y200811339D01*
X244917957Y200819940D01*
X244932785Y200825621D01*
X244954048Y200827779D01*
X244974711Y200825664D01*
X244989628Y200820015D01*
X245000266Y200811339D01*
X245010881Y200793380D01*
X245014496Y200771751D01*
X245010905Y200750996D01*
X245000266Y200733521D01*
X244989668Y200725113D01*
X244974756Y200719611D01*
X244954048Y200717546D01*
G37*
G36*
X245002050Y201058017D02*
G01*
X245002050Y200977988D01*
X244367288Y200977988D01*
X244367288Y201332688D01*
X244437545Y201332688D01*
X244437545Y201058017D01*
X244662471Y201058017D01*
X244662471Y201315822D01*
X244732690Y201315822D01*
X244732690Y201058017D01*
X245002050Y201058017D01*
G37*
G36*
X245002050Y201617635D02*
G01*
X245002050Y201388251D01*
X244955831Y201388251D01*
X244938926Y201462929D01*
X244431303Y201462929D01*
X244413545Y201388251D01*
X244367288Y201388251D01*
X244367288Y201617635D01*
X244413545Y201617635D01*
X244431303Y201542957D01*
X244938926Y201542957D01*
X244955831Y201617635D01*
X245002050Y201617635D01*
G37*
G36*
X244744035Y202244267D02*
G01*
X244799647Y202232854D01*
X244846824Y202214931D01*
X244886851Y202190908D01*
X244920703Y202160736D01*
X244948831Y202124746D01*
X244971212Y202083270D01*
X244987835Y202035495D01*
X244998343Y201980387D01*
X245002050Y201916734D01*
X245002050Y201739811D01*
X244367288Y201739811D01*
X244367288Y201923830D01*
X244435762Y201923830D01*
X244435762Y201819839D01*
X244933614Y201819839D01*
X244933614Y201906072D01*
X244929924Y201964636D01*
X244919664Y202013025D01*
X244903736Y202052933D01*
X244882586Y202085764D01*
X244856171Y202112553D01*
X244823963Y202133898D01*
X244784993Y202149907D01*
X244737923Y202160187D01*
X244681121Y202163877D01*
X244628644Y202160863D01*
X244585084Y202152482D01*
X244549030Y202139502D01*
X244519278Y202122370D01*
X244494891Y202101180D01*
X244470063Y202068354D01*
X244451673Y202028819D01*
X244439954Y201981220D01*
X244435762Y201923830D01*
X244367288Y201923830D01*
X244367288Y201935384D01*
X244371527Y201998580D01*
X244383605Y202053566D01*
X244402882Y202101607D01*
X244422860Y202134899D01*
X244446769Y202163853D01*
X244474803Y202188849D01*
X244507338Y202210095D01*
X244542095Y202226161D01*
X244581699Y202238119D01*
X244626874Y202245671D01*
X244678445Y202248326D01*
X244744035Y202244267D01*
G37*
G36*
X244954048Y202330526D02*
G01*
X244932737Y202332634D01*
X244917915Y202338167D01*
X244907830Y202346500D01*
X244897881Y202363910D01*
X244894492Y202384731D01*
X244897902Y202406426D01*
X244907830Y202424319D01*
X244917957Y202432920D01*
X244932785Y202438600D01*
X244954048Y202440759D01*
X244974711Y202438644D01*
X244989628Y202432994D01*
X245000266Y202424319D01*
X245010881Y202406360D01*
X245014496Y202384731D01*
X245010905Y202363976D01*
X245000266Y202346500D01*
X244989668Y202338093D01*
X244974756Y202332591D01*
X244954048Y202330526D01*
G37*
G36*
X245002050Y202967032D02*
G01*
X245002050Y202547425D01*
X244937143Y202547425D01*
X244769137Y202713647D01*
X244683796Y202794529D01*
X244645729Y202824156D01*
X244610475Y202844314D01*
X244573126Y202856920D01*
X244531765Y202861219D01*
X244498172Y202857411D01*
X244472257Y202846890D01*
X244452202Y202830084D01*
X244437476Y202807956D01*
X244428338Y202781388D01*
X244425099Y202749203D01*
X244429285Y202704840D01*
X244441113Y202667856D01*
X244459690Y202633263D01*
X244485547Y202596318D01*
X244433086Y202554521D01*
X244404604Y202594166D01*
X244380199Y202640288D01*
X244368284Y202673246D01*
X244360942Y202709375D01*
X244358409Y202749203D01*
X244361556Y202793667D01*
X244370412Y202831160D01*
X244384387Y202862854D01*
X244403308Y202889679D01*
X244427446Y202911914D01*
X244455573Y202927857D01*
X244488481Y202937761D01*
X244527306Y202941248D01*
X244560034Y202938941D01*
X244591042Y202932115D01*
X244620673Y202920776D01*
X244663094Y202896868D01*
X244706479Y202863895D01*
X244748950Y202825468D01*
X244796705Y202778554D01*
X244927372Y202646104D01*
X244930939Y202646104D01*
X244930939Y202967032D01*
X245002050Y202967032D01*
G37*
G36*
X203100000Y169466255D02*
G01*
X202543483Y169257344D01*
X202543483Y169253815D01*
X202617734Y169258235D01*
X202715056Y169260019D01*
X203100000Y169260019D01*
X203100000Y169186233D01*
X202465238Y169186233D01*
X202465238Y169304453D01*
X202985307Y169500066D01*
X202985307Y169503594D01*
X202465238Y169702735D01*
X202465238Y169820103D01*
X203100000Y169820103D01*
X203100000Y169740966D01*
X202709744Y169740966D01*
X202618161Y169743176D01*
X202544375Y169747209D01*
X202544375Y169743641D01*
X203100000Y169532054D01*
X203100000Y169466255D01*
G37*
G36*
X202526577Y170264138D02*
G01*
X202531175Y170214076D01*
X202544267Y170171459D01*
X202565422Y170134840D01*
X202595052Y170103227D01*
X202630580Y170078581D01*
X202672779Y170060313D01*
X202722932Y170048700D01*
X202782638Y170044563D01*
X202842073Y170048436D01*
X202892103Y170059300D01*
X202934249Y170076348D01*
X202969759Y170099234D01*
X202993918Y170122526D01*
X203012833Y170149852D01*
X203026758Y170181802D01*
X203035548Y170219240D01*
X203038660Y170263246D01*
X203036844Y170304397D01*
X203031564Y170342383D01*
X203013767Y170415277D01*
X203083094Y170415277D01*
X203094639Y170379198D01*
X203102636Y170341917D01*
X203107186Y170302339D01*
X203108879Y170251691D01*
X203106121Y170202998D01*
X203098264Y170160327D01*
X203085777Y170122858D01*
X203068903Y170089889D01*
X203046901Y170059599D01*
X203020840Y170033434D01*
X202990406Y170011108D01*
X202955103Y169992529D01*
X202904911Y169975015D01*
X202847521Y169963990D01*
X202781746Y169960114D01*
X202718523Y169964246D01*
X202662418Y169976114D01*
X202612383Y169995204D01*
X202577432Y170015032D01*
X202546908Y170038770D01*
X202520408Y170066573D01*
X202497691Y170098768D01*
X202480127Y170133578D01*
X202467224Y170172463D01*
X202459167Y170216041D01*
X202456359Y170265029D01*
X202460785Y170331156D01*
X202473437Y170389122D01*
X202493697Y170440170D01*
X202561280Y170408143D01*
X202548854Y170377814D01*
X202537279Y170342809D01*
X202529339Y170305778D01*
X202526577Y170264138D01*
G37*
G36*
X203100000Y171038950D02*
G01*
X203100000Y170958921D01*
X202803963Y170958921D01*
X202803963Y170633572D01*
X203100000Y170633572D01*
X203100000Y170553543D01*
X202465238Y170553543D01*
X202465238Y170633572D01*
X202733745Y170633572D01*
X202733745Y170958921D01*
X202465238Y170958921D01*
X202465238Y171038950D01*
X203100000Y171038950D01*
G37*
G36*
X203051998Y171189546D02*
G01*
X203030687Y171191654D01*
X203015865Y171197187D01*
X203005780Y171205521D01*
X202995831Y171222930D01*
X202992442Y171243751D01*
X202995852Y171265446D01*
X203005780Y171283339D01*
X203015907Y171291940D01*
X203030735Y171297621D01*
X203051998Y171299779D01*
X203072661Y171297664D01*
X203087578Y171292015D01*
X203098216Y171283339D01*
X203108831Y171265380D01*
X203112446Y171243751D01*
X203108855Y171222996D01*
X203098216Y171205521D01*
X203087618Y171197113D01*
X203072706Y171191611D01*
X203051998Y171189546D01*
G37*
G36*
X203100000Y171530017D02*
G01*
X203100000Y171449988D01*
X202465238Y171449988D01*
X202465238Y171804688D01*
X202535495Y171804688D01*
X202535495Y171530017D01*
X202760421Y171530017D01*
X202760421Y171787822D01*
X202830640Y171787822D01*
X202830640Y171530017D01*
X203100000Y171530017D01*
G37*
G36*
X203100000Y172089635D02*
G01*
X203100000Y171860251D01*
X203053781Y171860251D01*
X203036876Y171934929D01*
X202529253Y171934929D01*
X202511495Y171860251D01*
X202465238Y171860251D01*
X202465238Y172089635D01*
X202511495Y172089635D01*
X202529253Y172014957D01*
X203036876Y172014957D01*
X203053781Y172089635D01*
X203100000Y172089635D01*
G37*
G36*
X202841985Y172716267D02*
G01*
X202897597Y172704854D01*
X202944774Y172686931D01*
X202984801Y172662908D01*
X203018653Y172632736D01*
X203046781Y172596746D01*
X203069162Y172555270D01*
X203085785Y172507495D01*
X203096293Y172452387D01*
X203100000Y172388734D01*
X203100000Y172211811D01*
X202465238Y172211811D01*
X202465238Y172395830D01*
X202533712Y172395830D01*
X202533712Y172291839D01*
X203031564Y172291839D01*
X203031564Y172378072D01*
X203027874Y172436636D01*
X203017614Y172485025D01*
X203001686Y172524933D01*
X202980536Y172557764D01*
X202954121Y172584553D01*
X202921913Y172605898D01*
X202882943Y172621907D01*
X202835873Y172632187D01*
X202779071Y172635877D01*
X202726594Y172632863D01*
X202683034Y172624482D01*
X202646980Y172611502D01*
X202617228Y172594370D01*
X202592841Y172573180D01*
X202568013Y172540354D01*
X202549623Y172500819D01*
X202537904Y172453220D01*
X202533712Y172395830D01*
X202465238Y172395830D01*
X202465238Y172407384D01*
X202469477Y172470580D01*
X202481555Y172525566D01*
X202500832Y172573607D01*
X202520810Y172606899D01*
X202544719Y172635853D01*
X202572753Y172660849D01*
X202605288Y172682095D01*
X202640045Y172698161D01*
X202679649Y172710119D01*
X202724824Y172717671D01*
X202776395Y172720326D01*
X202841985Y172716267D01*
G37*
G36*
X203051998Y172802526D02*
G01*
X203030687Y172804634D01*
X203015865Y172810167D01*
X203005780Y172818500D01*
X202995831Y172835910D01*
X202992442Y172856731D01*
X202995852Y172878426D01*
X203005780Y172896319D01*
X203015907Y172904920D01*
X203030735Y172910600D01*
X203051998Y172912759D01*
X203072661Y172910644D01*
X203087578Y172904994D01*
X203098216Y172896319D01*
X203108831Y172878360D01*
X203112446Y172856731D01*
X203108855Y172835976D01*
X203098216Y172818500D01*
X203087618Y172810093D01*
X203072706Y172804591D01*
X203051998Y172802526D01*
G37*
G36*
X203100000Y173292313D02*
G01*
X203100000Y173215891D01*
X202656391Y173215891D01*
X202595052Y173216744D01*
X202547050Y173219419D01*
X202571051Y173193635D01*
X202595943Y173164322D01*
X202651041Y173096739D01*
X202598619Y173055872D01*
X202465238Y173227445D01*
X202465238Y173292313D01*
X203100000Y173292313D01*
G37*
G36*
X240518627Y202758268D02*
G01*
X240523225Y202708207D01*
X240536317Y202665589D01*
X240557472Y202628971D01*
X240587102Y202597358D01*
X240622630Y202572712D01*
X240664829Y202554443D01*
X240714982Y202542831D01*
X240774688Y202538693D01*
X240834123Y202542566D01*
X240884153Y202553431D01*
X240926299Y202570479D01*
X240961809Y202593364D01*
X240985968Y202616656D01*
X241004883Y202643982D01*
X241018808Y202675933D01*
X241027598Y202713371D01*
X241030710Y202757376D01*
X241028894Y202798528D01*
X241023614Y202836513D01*
X241005817Y202909407D01*
X241075144Y202909407D01*
X241086689Y202873328D01*
X241094686Y202836048D01*
X241099236Y202796469D01*
X241100929Y202745822D01*
X241098171Y202697129D01*
X241090314Y202654457D01*
X241077827Y202616989D01*
X241060953Y202584020D01*
X241038951Y202553730D01*
X241012890Y202527564D01*
X240982456Y202505239D01*
X240947153Y202486659D01*
X240896961Y202469145D01*
X240839571Y202458120D01*
X240773796Y202454245D01*
X240710573Y202458377D01*
X240654468Y202470245D01*
X240604433Y202489335D01*
X240569482Y202509162D01*
X240538958Y202532901D01*
X240512458Y202560704D01*
X240489741Y202592899D01*
X240472177Y202627708D01*
X240459274Y202666594D01*
X240451217Y202710171D01*
X240448409Y202759160D01*
X240452835Y202825286D01*
X240465487Y202883253D01*
X240485747Y202934300D01*
X240553330Y202902273D01*
X240540904Y202871944D01*
X240529329Y202836940D01*
X240521389Y202799909D01*
X240518627Y202758268D01*
G37*
G36*
X241260947Y202957874D02*
G01*
X241257845Y202920574D01*
X241249393Y202892114D01*
X241181849Y202892114D01*
X241188053Y202922319D01*
X241190728Y202956091D01*
X241188489Y202977820D01*
X241181810Y202998315D01*
X241169894Y203016120D01*
X241150714Y203030769D01*
X241125891Y203039720D01*
X241088482Y203043215D01*
X240457288Y203043215D01*
X240457288Y203123244D01*
X241082279Y203123244D01*
X241128416Y203119905D01*
X241165173Y203110739D01*
X241194354Y203096629D01*
X241217366Y203077879D01*
X241236040Y203054009D01*
X241249561Y203026547D01*
X241257987Y202994806D01*
X241260947Y202957874D01*
G37*
G36*
X241092050Y203666306D02*
G01*
X241092050Y203246699D01*
X241027143Y203246699D01*
X240859137Y203412921D01*
X240773796Y203493802D01*
X240735729Y203523430D01*
X240700475Y203543588D01*
X240663126Y203556194D01*
X240621765Y203560493D01*
X240588172Y203556685D01*
X240562257Y203546164D01*
X240542202Y203529358D01*
X240527476Y203507229D01*
X240518338Y203480662D01*
X240515099Y203448476D01*
X240519285Y203404114D01*
X240531113Y203367129D01*
X240549690Y203332537D01*
X240575547Y203295592D01*
X240523086Y203253794D01*
X240494604Y203293440D01*
X240470199Y203339561D01*
X240458284Y203372519D01*
X240450942Y203408648D01*
X240448409Y203448476D01*
X240451556Y203492940D01*
X240460412Y203530434D01*
X240474387Y203562127D01*
X240493308Y203588953D01*
X240517446Y203611187D01*
X240545573Y203627130D01*
X240578481Y203637034D01*
X240617306Y203640522D01*
X240650034Y203638214D01*
X240681042Y203631389D01*
X240710673Y203620049D01*
X240753094Y203596142D01*
X240796479Y203563168D01*
X240838950Y203524741D01*
X240886705Y203477828D01*
X241017372Y203345377D01*
X241020939Y203345377D01*
X241020939Y203666306D01*
X241092050Y203666306D01*
G37*
%LPC*%
D12*
%TO.C,MCH.SP.3*%
X235600000Y177600000D03*
%TD*%
%TO.C,MCH.SP.7*%
X229800000Y177600000D03*
%TD*%
D13*
%TO.C,*%
X205438460Y181437390D03*
%TD*%
D12*
%TO.C,MCH.SP.2*%
X200600000Y190600000D03*
%TD*%
%TO.C,MCH.SP.10*%
X200600000Y181600000D03*
%TD*%
D14*
%TO.C,MCH.FID.2*%
X246380000Y201676000D03*
%TD*%
D15*
%TO.C,CJ7*%
X219011390Y205451340D03*
%TD*%
D14*
%TO.C,MCH.FID.1*%
X201600000Y165600000D03*
%TD*%
D12*
%TO.C,MCH.SP.6*%
X240600000Y183600000D03*
%TD*%
%TO.C,MCH.SP.1*%
X204600000Y164600000D03*
%TD*%
%TO.C,MCH.SP.4*%
X200875010Y172600000D03*
%TD*%
D15*
%TO.C,CJ4*%
X231011390Y205451340D03*
%TD*%
%TO.C,CJ6*%
X223011390Y205451340D03*
%TD*%
D12*
%TO.C,MCH.SP.11*%
X200600000Y199600000D03*
%TD*%
D15*
%TO.C,CJ5*%
X227011390Y205451340D03*
%TD*%
D12*
%TO.C,MCH.SP.8*%
X207600000Y171600000D03*
%TD*%
D13*
%TO.C,*%
X217623060Y199481310D03*
%TD*%
D12*
%TO.C,MCH.SP.9*%
X249936000Y202946000D03*
%TD*%
D15*
%TO.C,CJ2*%
X239011390Y205451340D03*
%TD*%
D13*
%TO.C,*%
X238622810Y199582840D03*
%TD*%
D15*
%TO.C,CJ11*%
X247011390Y205451340D03*
%TD*%
%TO.C,CJ8*%
X215011390Y205451340D03*
%TD*%
D12*
%TO.C,MCH.SP.5*%
X210600000Y176600000D03*
%TD*%
D15*
%TO.C,CJ1*%
X243011390Y205451340D03*
%TD*%
%TO.C,CJ9*%
X211011390Y205451340D03*
%TD*%
%TO.C,CJ10*%
X207011390Y205451340D03*
%TD*%
D12*
%TO.C,MCH.SP.12*%
X249600000Y188600000D03*
%TD*%
D15*
%TO.C,CJ3*%
X235011390Y205451340D03*
%TD*%
D13*
%TO.C,*%
X236338460Y181437390D03*
%TD*%
%TO.C,SW2*%
X236225000Y162250000D03*
X232225000Y162250000D03*
%TD*%
%TO.C,SW1*%
X239200000Y189200000D03*
X243200000Y189200000D03*
%TD*%
%TO.C,SW3*%
X222660000Y188600000D03*
X218660000Y188600000D03*
%TD*%
%LPD*%
M02*
