%TF.GenerationSoftware,KiCad,Pcbnew,10.0.5*%
%TF.CreationDate,2026-08-15T23:16:26-07:00*%
%TF.ProjectId,Vertical,56657274-6963-4616-9c2e-6b696361645f,rev?*%
%TF.SameCoordinates,Original*%
%TF.FileFunction,Copper,L1,Top*%
%TF.FilePolarity,Positive*%
%FSLAX46Y46*%
G04 Gerber Fmt 4.6, Leading zero omitted, Abs format (unit mm)*
G04 Created by KiCad (PCBNEW 10.0.5) date 2026-08-15 23:16:26*
%MOMM*%
%LPD*%
G01*
G04 APERTURE LIST*
G04 Aperture macros list*
%AMRoundRect*
0 Rectangle with rounded corners*
0 $1 Rounding radius*
0 $2 $3 $4 $5 $6 $7 $8 $9 X,Y pos of 4 corners*
0 Add a 4 corners polygon primitive as box body*
4,1,4,$2,$3,$4,$5,$6,$7,$8,$9,$2,$3,0*
0 Add four circle primitives for the rounded corners*
1,1,$1+$1,$2,$3*
1,1,$1+$1,$4,$5*
1,1,$1+$1,$6,$7*
1,1,$1+$1,$8,$9*
0 Add four rect primitives between the rounded corners*
20,1,$1+$1,$2,$3,$4,$5,0*
20,1,$1+$1,$4,$5,$6,$7,0*
20,1,$1+$1,$6,$7,$8,$9,0*
20,1,$1+$1,$8,$9,$2,$3,0*%
%AMRotRect*
0 Rectangle, with rotation*
0 The origin of the aperture is its center*
0 $1 length*
0 $2 width*
0 $3 Rotation angle, in degrees counterclockwise*
0 Add horizontal line*
21,1,$1,$2,0,0,$3*%
G04 Aperture macros list end*
%TA.AperFunction,SMDPad,CuDef*%
%ADD10RotRect,1.016000X1.016000X135.000000*%
%TD*%
%TA.AperFunction,ComponentPad*%
%ADD11C,0.001000*%
%TD*%
%TA.AperFunction,SMDPad,CuDef*%
%ADD12C,1.016000*%
%TD*%
%TA.AperFunction,ComponentPad*%
%ADD13RoundRect,0.575000X-0.575000X-1.425000X0.575000X-1.425000X0.575000X1.425000X-0.575000X1.425000X0*%
%TD*%
%TA.AperFunction,ViaPad*%
%ADD14C,1.200000*%
%TD*%
%TA.AperFunction,ViaPad*%
%ADD15C,1.016000*%
%TD*%
%TA.AperFunction,ViaPad*%
%ADD16C,0.600000*%
%TD*%
%TA.AperFunction,ViaPad*%
%ADD17C,1.000000*%
%TD*%
%TA.AperFunction,ViaPad*%
%ADD18C,0.800000*%
%TD*%
%TA.AperFunction,Conductor*%
%ADD19C,1.000000*%
%TD*%
%TA.AperFunction,Conductor*%
%ADD20C,0.500000*%
%TD*%
%TA.AperFunction,Conductor*%
%ADD21C,0.200000*%
%TD*%
G04 APERTURE END LIST*
D10*
%TO.P,MCH.SP.3,1*%
%TO.N,GND*%
X235600000Y177600000D03*
%TD*%
%TO.P,MCH.SP.7,1*%
%TO.N,GND*%
X229800000Y177600000D03*
%TD*%
D11*
%TO.P,,*%
%TO.N,*%
X205438460Y181437390D03*
%TD*%
D10*
%TO.P,MCH.SP.2,1*%
%TO.N,GND*%
X200600000Y190600000D03*
%TD*%
%TO.P,MCH.SP.10,1*%
%TO.N,GND*%
X200600000Y181600000D03*
%TD*%
D12*
%TO.P,MCH.FID.2,1*%
%TO.N,N/C*%
X246380000Y201676000D03*
%TD*%
D13*
%TO.P,CJ7,1,1_1*%
%TO.N,/BBS/ButtonRightClick*%
X219011390Y205451340D03*
%TD*%
D12*
%TO.P,MCH.FID.1,1*%
%TO.N,N/C*%
X201600000Y165600000D03*
%TD*%
D10*
%TO.P,MCH.SP.6,1*%
%TO.N,GND*%
X240600000Y183600000D03*
%TD*%
%TO.P,MCH.SP.1,1*%
%TO.N,GND*%
X204600000Y164600000D03*
%TD*%
%TO.P,MCH.SP.4,1*%
%TO.N,GND*%
X200875010Y172600000D03*
%TD*%
D13*
%TO.P,CJ4,1,1_1*%
%TO.N,/SCW/ScrollWheelOpto1*%
X231011390Y205451340D03*
%TD*%
%TO.P,CJ6,1,1_1*%
%TO.N,/BBS/ButtonLeftClick*%
X223011390Y205451340D03*
%TD*%
D10*
%TO.P,MCH.SP.11,1*%
%TO.N,GND*%
X200600000Y199600000D03*
%TD*%
D13*
%TO.P,CJ5,1,1_1*%
%TO.N,GND*%
X227011390Y205451340D03*
%TD*%
D10*
%TO.P,MCH.SP.8,1*%
%TO.N,GND*%
X207600000Y171600000D03*
%TD*%
D11*
%TO.P,,*%
%TO.N,*%
X217623060Y199481310D03*
%TD*%
D10*
%TO.P,MCH.SP.9,1*%
%TO.N,GND*%
X249936000Y202946000D03*
%TD*%
D13*
%TO.P,CJ2,1,1_1*%
%TO.N,/SCW/ButtonScrollWheel*%
X239011390Y205451340D03*
%TD*%
D11*
%TO.P,,*%
%TO.N,*%
X238622810Y199582840D03*
%TD*%
D13*
%TO.P,CJ11,1,1_1*%
%TO.N,/LEDs/V_USB*%
X247011390Y205451340D03*
%TD*%
%TO.P,CJ8,1,1_1*%
%TO.N,/SCW/3V3*%
X215011390Y205451340D03*
%TD*%
D10*
%TO.P,MCH.SP.5,1*%
%TO.N,GND*%
X210600000Y176600000D03*
%TD*%
D13*
%TO.P,CJ1,1,1_1*%
%TO.N,GND*%
X243011390Y205451340D03*
%TD*%
%TO.P,CJ9,1,1_1*%
%TO.N,GND*%
X211011390Y205451340D03*
%TD*%
%TO.P,CJ10,1,1_1*%
%TO.N,/LEDs/LEDData*%
X207011390Y205451340D03*
%TD*%
D10*
%TO.P,MCH.SP.12,1*%
%TO.N,GND*%
X249600000Y188600000D03*
%TD*%
D13*
%TO.P,CJ3,1,1_1*%
%TO.N,/SCW/ScrollWheelOpto0*%
X235011390Y205451340D03*
%TD*%
D11*
%TO.P,,*%
%TO.N,*%
X236338460Y181437390D03*
%TD*%
D14*
%TO.N,GND*%
X238100000Y185900000D03*
D15*
X200600000Y190600000D03*
X200600000Y199600000D03*
D16*
X221700000Y162000000D03*
D14*
X212300000Y187200000D03*
X221300000Y185300000D03*
D16*
X227900000Y160300000D03*
X225000000Y160300000D03*
D14*
X218850904Y191686000D03*
D15*
X204600000Y164600000D03*
D14*
X233934000Y188976000D03*
X206840000Y193350352D03*
D15*
X249600000Y188600000D03*
D14*
X225100000Y199600000D03*
D15*
X207600000Y171600000D03*
D14*
X233600000Y186100000D03*
X204400000Y189900000D03*
X243058737Y192090000D03*
D15*
X235600000Y177600000D03*
D14*
X235600000Y195100000D03*
D15*
X210600000Y176600000D03*
D14*
X213995919Y191185249D03*
D15*
X249936000Y202946000D03*
D14*
X244600000Y195600000D03*
D16*
X218700000Y162200000D03*
D14*
X212170000Y197600000D03*
D17*
X211502499Y162218000D03*
D15*
X200600000Y181600000D03*
X200875010Y172600000D03*
D14*
X221752013Y194940000D03*
D15*
X229800000Y177600000D03*
D14*
X204100000Y203600000D03*
D16*
X229100000Y160300000D03*
D14*
X243600000Y201600000D03*
X230600000Y197600000D03*
X214600000Y180800000D03*
X225600000Y185100000D03*
X217100000Y183600000D03*
X204700000Y185800000D03*
X222650080Y191691306D03*
D15*
X240600000Y183600000D03*
D18*
%TO.N,/BBS/ButtonRightClick*%
X238700000Y163700000D03*
X238700000Y161300000D03*
D16*
%TO.N,/BBS/ButtonLeftClick*%
X234400000Y193400000D03*
%TO.N,/SCW/ButtonScrollWheel*%
X225600000Y197200000D03*
%TO.N,/LEDs/V_USB*%
X239014000Y193802000D03*
X207010000Y184912000D03*
X209296000Y179832000D03*
X207010000Y188468000D03*
%TO.N,/SCW/3V3*%
X217702390Y181600000D03*
X227316121Y180116111D03*
%TO.N,Net-(D3-DOUT)*%
X236728000Y194056000D03*
X208788000Y193802000D03*
%TO.N,Net-(D4-DOUT)*%
X204142673Y169039515D03*
X236982000Y193294000D03*
%TD*%
%TO.N,/SCW/3V3*%
D19*
X227316121Y180380010D02*
X227316121Y180116111D01*
X226096131Y181600000D02*
X227316121Y180380010D01*
X217702390Y181600000D02*
X226096131Y181600000D01*
%TO.N,/BBS/ButtonRightClick*%
X205600000Y195200000D02*
X202500000Y192100000D01*
X221800000Y198000000D02*
X219000000Y195200000D01*
X219011390Y204388610D02*
X221800000Y201600000D01*
X202500000Y169200000D02*
X208100000Y163600000D01*
X221800000Y201600000D02*
X221800000Y198000000D01*
X219000000Y195200000D02*
X205600000Y195200000D01*
X202500000Y192100000D02*
X202500000Y169200000D01*
X219011390Y205451340D02*
X219011390Y204388610D01*
X208100000Y163600000D02*
X238662610Y163600000D01*
X238662610Y161337390D02*
X238662610Y163600000D01*
X238700000Y161300000D02*
X238662610Y161337390D01*
X238662610Y163600000D02*
X238700000Y163637390D01*
%TO.N,/BBS/ButtonLeftClick*%
X223011390Y196288610D02*
X226400000Y192900000D01*
X226400000Y192900000D02*
X233900000Y192900000D01*
X223011390Y205451340D02*
X223011390Y196288610D01*
X233900000Y192900000D02*
X234400000Y193400000D01*
%TO.N,/SCW/ButtonScrollWheel*%
X227500000Y199100000D02*
X232800000Y199100000D01*
X239011390Y205311390D02*
X239011390Y205451340D01*
X232800000Y199100000D02*
X239011390Y205311390D01*
X225600000Y197200000D02*
X227500000Y199100000D01*
%TO.N,/LEDs/V_USB*%
D20*
X238760000Y193802000D02*
X235712000Y190754000D01*
X223266000Y192786000D02*
X210058000Y192786000D01*
X210058000Y192786000D02*
X207010000Y189738000D01*
X209296000Y182626000D02*
X207010000Y184912000D01*
X235712000Y190754000D02*
X225298000Y190754000D01*
X239014000Y193802000D02*
X238760000Y193802000D01*
X207010000Y189738000D02*
X207010000Y188468000D01*
X209296000Y179832000D02*
X209296000Y182626000D01*
X225298000Y190754000D02*
X223266000Y192786000D01*
%TO.N,Net-(D3-DOUT)*%
D21*
X222897504Y193990000D02*
X223085504Y193802000D01*
X234696000Y192024000D02*
X236728000Y194056000D01*
X219824497Y193990000D02*
X222897504Y193990000D01*
X208788000Y193802000D02*
X219636496Y193802000D01*
X226133503Y192024000D02*
X234696000Y192024000D01*
X223085504Y193802000D02*
X224355503Y193802000D01*
X224355503Y193802000D02*
X226133503Y192024000D01*
X219636496Y193802000D02*
X219824497Y193990000D01*
%TO.N,Net-(D4-DOUT)*%
X209830182Y193336000D02*
X209534183Y193040000D01*
X207888460Y182452213D02*
X207888460Y179440460D01*
X208534000Y193040000D02*
X207273648Y194300352D01*
X223493817Y193336000D02*
X209830182Y193336000D01*
X206444673Y183896000D02*
X207888460Y182452213D01*
X207888460Y179440460D02*
X204470000Y176022000D01*
X205831722Y194300352D02*
X203300000Y191768630D01*
X236982000Y193294000D02*
X235204000Y191516000D01*
X204470000Y176022000D02*
X204470000Y169366842D01*
X204470000Y169366842D02*
X204142673Y169039515D01*
X203300000Y191768630D02*
X203300000Y185828000D01*
X207273648Y194300352D02*
X205831722Y194300352D01*
X209534183Y193040000D02*
X208534000Y193040000D01*
X235204000Y191516000D02*
X225313818Y191516000D01*
X225313818Y191516000D02*
X223493817Y193336000D01*
X205232000Y183896000D02*
X206444673Y183896000D01*
X203300000Y185828000D02*
X205232000Y183896000D01*
%TD*%
%TA.AperFunction,Conductor*%
%TO.N,GND*%
G36*
X217303424Y204959644D02*
G01*
X217349434Y204907062D01*
X217360890Y204855006D01*
X217360890Y203944222D01*
X217363639Y203898077D01*
X217363639Y203898073D01*
X217363640Y203898072D01*
X217407297Y203697379D01*
X217407299Y203697372D01*
X217488049Y203508806D01*
X217488153Y203508563D01*
X217488156Y203508559D01*
X217603272Y203338472D01*
X217603280Y203338463D01*
X217748252Y203193491D01*
X217781737Y203132168D01*
X217776753Y203062476D01*
X217734881Y203006543D01*
X217669417Y202982126D01*
X217660571Y202981810D01*
X217451091Y202981810D01*
X217373026Y202974122D01*
X217108810Y202948100D01*
X216771487Y202881002D01*
X216442353Y202781160D01*
X216124595Y202649540D01*
X216124590Y202649538D01*
X215821284Y202487417D01*
X215821266Y202487406D01*
X215535308Y202296335D01*
X215535294Y202296325D01*
X215269427Y202078134D01*
X215026236Y201834943D01*
X214808045Y201569076D01*
X214808035Y201569062D01*
X214616964Y201283104D01*
X214616953Y201283086D01*
X214454832Y200979780D01*
X214454830Y200979775D01*
X214323210Y200662017D01*
X214223368Y200332883D01*
X214156270Y199995560D01*
X214122560Y199653276D01*
X214122560Y199309345D01*
X214156270Y198967061D01*
X214223368Y198629738D01*
X214323210Y198300604D01*
X214454830Y197982846D01*
X214454832Y197982841D01*
X214616953Y197679535D01*
X214616964Y197679517D01*
X214808035Y197393559D01*
X214808045Y197393545D01*
X215026236Y197127678D01*
X215269427Y196884487D01*
X215269432Y196884483D01*
X215269433Y196884482D01*
X215535300Y196666291D01*
X215821273Y196475210D01*
X215821282Y196475205D01*
X215821284Y196475204D01*
X215898637Y196433858D01*
X215948481Y196384896D01*
X215963942Y196316758D01*
X215940110Y196251079D01*
X215884553Y196208710D01*
X215840184Y196200500D01*
X205501457Y196200500D01*
X205414236Y196183150D01*
X205414235Y196183150D01*
X205308167Y196162053D01*
X205308159Y196162050D01*
X205254834Y196139963D01*
X205254834Y196139962D01*
X205209315Y196121108D01*
X205126089Y196086634D01*
X205126079Y196086629D01*
X204962219Y195977141D01*
X204892540Y195907462D01*
X204822861Y195837782D01*
X204822858Y195837779D01*
X201862221Y192877142D01*
X201862218Y192877139D01*
X201792538Y192807460D01*
X201722859Y192737781D01*
X201613371Y192573921D01*
X201613364Y192573908D01*
X201574643Y192480424D01*
X201574643Y192480423D01*
X201537949Y192391837D01*
X201537947Y192391829D01*
X201525292Y192328207D01*
X201499500Y192198545D01*
X201499500Y169101459D01*
X201537947Y168908167D01*
X201537949Y168908163D01*
X201560038Y168854836D01*
X201613366Y168726089D01*
X201613371Y168726080D01*
X201722860Y168562219D01*
X201722863Y168562215D01*
X201866537Y168418541D01*
X201866559Y168418521D01*
X207319735Y162965345D01*
X207319764Y162965314D01*
X207462214Y162822864D01*
X207462218Y162822861D01*
X207626079Y162713372D01*
X207626092Y162713365D01*
X207754833Y162660039D01*
X207797744Y162642265D01*
X207808164Y162637949D01*
X207904812Y162618725D01*
X207953135Y162609113D01*
X208001458Y162599500D01*
X208001459Y162599500D01*
X208001460Y162599500D01*
X208198540Y162599500D01*
X231276263Y162599500D01*
X231343302Y162579815D01*
X231389057Y162527011D01*
X231399001Y162457853D01*
X231397880Y162451309D01*
X231374500Y162333772D01*
X231374500Y162166229D01*
X231407182Y162001926D01*
X231407184Y162001918D01*
X231471295Y161847140D01*
X231564373Y161707838D01*
X231682837Y161589374D01*
X231752891Y161542566D01*
X231822137Y161496297D01*
X231976918Y161432184D01*
X232090150Y161409661D01*
X232141228Y161399501D01*
X232141232Y161399500D01*
X232141233Y161399500D01*
X232308768Y161399500D01*
X232308769Y161399501D01*
X232473082Y161432184D01*
X232627863Y161496297D01*
X232767162Y161589374D01*
X232885626Y161707838D01*
X232978703Y161847137D01*
X233042816Y162001918D01*
X233075500Y162166233D01*
X233075500Y162333767D01*
X233070600Y162358402D01*
X233052120Y162451309D01*
X233058347Y162520900D01*
X233101210Y162576078D01*
X233167100Y162599322D01*
X233173737Y162599500D01*
X235276263Y162599500D01*
X235343302Y162579815D01*
X235389057Y162527011D01*
X235399001Y162457853D01*
X235397880Y162451309D01*
X235374500Y162333772D01*
X235374500Y162166229D01*
X235407182Y162001926D01*
X235407184Y162001918D01*
X235471295Y161847140D01*
X235564373Y161707838D01*
X235682837Y161589374D01*
X235752891Y161542566D01*
X235822137Y161496297D01*
X235976918Y161432184D01*
X236090150Y161409661D01*
X236141228Y161399501D01*
X236141232Y161399500D01*
X236141233Y161399500D01*
X236308768Y161399500D01*
X236308769Y161399501D01*
X236473082Y161432184D01*
X236627863Y161496297D01*
X236767162Y161589374D01*
X236885626Y161707838D01*
X236978703Y161847137D01*
X237042816Y162001918D01*
X237075500Y162166233D01*
X237075500Y162333767D01*
X237070600Y162358402D01*
X237052120Y162451309D01*
X237058347Y162520900D01*
X237101210Y162576078D01*
X237167100Y162599322D01*
X237173737Y162599500D01*
X237538110Y162599500D01*
X237605149Y162579815D01*
X237650904Y162527011D01*
X237662110Y162475500D01*
X237662110Y161238849D01*
X237662110Y161238847D01*
X237662109Y161238847D01*
X237700557Y161045561D01*
X237700560Y161045551D01*
X237775974Y160863483D01*
X237775981Y160863470D01*
X237867113Y160727082D01*
X237887991Y160660404D01*
X237869506Y160593024D01*
X237817528Y160546334D01*
X237801896Y160540120D01*
X237583368Y160470002D01*
X237580698Y160469179D01*
X236514226Y160153300D01*
X236511539Y160152536D01*
X235438096Y159860728D01*
X235435392Y159860026D01*
X234355721Y159592490D01*
X234353002Y159591849D01*
X233267569Y159348701D01*
X233264837Y159348121D01*
X232226740Y159140016D01*
X232202967Y159137598D01*
X229339423Y159123753D01*
X229272289Y159143114D01*
X229231436Y159185752D01*
X229228219Y159191324D01*
X229173146Y159269970D01*
X229173141Y159269976D01*
X229173139Y159269979D01*
X229111444Y159343500D01*
X229111436Y159343509D01*
X229111429Y159343517D01*
X229043536Y159411405D01*
X229043532Y159411409D01*
X229043526Y159411414D01*
X228969991Y159473112D01*
X228969990Y159473113D01*
X228969985Y159473117D01*
X228891335Y159528185D01*
X228847825Y159553304D01*
X228808185Y159576189D01*
X228808179Y159576192D01*
X228762379Y159597546D01*
X228721168Y159616761D01*
X228721161Y159616764D01*
X228721158Y159616765D01*
X228721153Y159616767D01*
X228630947Y159649596D01*
X228630934Y159649600D01*
X228538206Y159674443D01*
X228502409Y159680754D01*
X228443652Y159691113D01*
X228443646Y159691114D01*
X228443622Y159691117D01*
X228348018Y159699478D01*
X228334290Y159699628D01*
X228300000Y159700000D01*
X222700000Y159700000D01*
X222699985Y159700000D01*
X222652009Y159699461D01*
X222651997Y159699461D01*
X222651997Y159699460D01*
X222630739Y159697600D01*
X222556353Y159691091D01*
X222461812Y159674418D01*
X222461801Y159674416D01*
X222369092Y159649573D01*
X222369075Y159649569D01*
X222369072Y159649567D01*
X222369069Y159649567D01*
X222369053Y159649561D01*
X222278864Y159616734D01*
X222278859Y159616732D01*
X222191836Y159576152D01*
X222191827Y159576147D01*
X222108709Y159528158D01*
X222108697Y159528150D01*
X222030055Y159473085D01*
X221956523Y159411384D01*
X221956501Y159411364D01*
X221888642Y159343507D01*
X221888618Y159343481D01*
X221826910Y159269942D01*
X221771847Y159191305D01*
X221771837Y159191290D01*
X221747144Y159148522D01*
X221696576Y159100308D01*
X221640359Y159086526D01*
X214246189Y159050772D01*
X214223664Y159052725D01*
X214215548Y159054183D01*
X214208295Y159055711D01*
X214162400Y159066823D01*
X214160114Y159067068D01*
X214136736Y159068990D01*
X212594238Y159362854D01*
X212591888Y159363325D01*
X210995894Y159699473D01*
X210993553Y159699990D01*
X209404380Y160066919D01*
X209402050Y160067481D01*
X207820316Y160465045D01*
X207817997Y160465651D01*
X206244120Y160893749D01*
X206241814Y160894401D01*
X204676616Y161352808D01*
X204674322Y161353504D01*
X203118249Y161842087D01*
X203115969Y161842827D01*
X201652001Y162333772D01*
X201623429Y162343354D01*
X201600857Y162353531D01*
X201597946Y162355212D01*
X201597945Y162355213D01*
X201597944Y162355213D01*
X201586042Y162358402D01*
X201566115Y162365617D01*
X201554929Y162370787D01*
X201554930Y162370787D01*
X201553326Y162371064D01*
X201551956Y162371301D01*
X201527015Y162378363D01*
X201328373Y162457853D01*
X201265955Y162482831D01*
X201255263Y162487710D01*
X200970805Y162634170D01*
X200960621Y162640039D01*
X200929439Y162660039D01*
X200691303Y162812779D01*
X200681730Y162819580D01*
X200429977Y163017044D01*
X200421084Y163024728D01*
X200189162Y163245135D01*
X200181035Y163253627D01*
X199971023Y163495005D01*
X199963736Y163504228D01*
X199938959Y163538847D01*
X199777517Y163764414D01*
X199771151Y163774264D01*
X199610393Y164050929D01*
X199604988Y164061338D01*
X199471148Y164351982D01*
X199466754Y164362855D01*
X199361040Y164664848D01*
X199357693Y164676088D01*
X199281040Y164986765D01*
X199278776Y164998262D01*
X199231885Y165314784D01*
X199230719Y165326440D01*
X199213853Y165648945D01*
X199213686Y165654756D01*
X199213449Y165703964D01*
X200279085Y165703964D01*
X200279085Y165496037D01*
X200311609Y165290685D01*
X200375861Y165092940D01*
X200427062Y164992454D01*
X200470252Y164907689D01*
X200592462Y164739481D01*
X200739481Y164592462D01*
X200907689Y164470252D01*
X200995214Y164425656D01*
X201092939Y164375862D01*
X201092941Y164375862D01*
X201092944Y164375860D01*
X201166470Y164351970D01*
X201290684Y164311610D01*
X201496037Y164279085D01*
X201496042Y164279085D01*
X201703963Y164279085D01*
X201909315Y164311610D01*
X202107056Y164375860D01*
X202292311Y164470252D01*
X202460519Y164592462D01*
X202607538Y164739481D01*
X202729748Y164907689D01*
X202824140Y165092944D01*
X202888390Y165290685D01*
X202894056Y165326460D01*
X202920915Y165496037D01*
X202920915Y165703964D01*
X202888390Y165909316D01*
X202839389Y166060124D01*
X202824140Y166107056D01*
X202824138Y166107059D01*
X202824138Y166107061D01*
X202729747Y166292312D01*
X202701678Y166330946D01*
X202607538Y166460519D01*
X202460519Y166607538D01*
X202292311Y166729748D01*
X202107060Y166824139D01*
X201909315Y166888391D01*
X201703963Y166920915D01*
X201703958Y166920915D01*
X201496042Y166920915D01*
X201496037Y166920915D01*
X201290684Y166888391D01*
X201092939Y166824139D01*
X200907688Y166729748D01*
X200739478Y166607536D01*
X200592464Y166460522D01*
X200470252Y166292312D01*
X200375861Y166107061D01*
X200311609Y165909316D01*
X200279085Y165703964D01*
X199213449Y165703964D01*
X199213383Y165717744D01*
X199213382Y165717745D01*
X199205006Y167449768D01*
X199224367Y167516898D01*
X199267002Y167557749D01*
X199291331Y167571794D01*
X199369978Y167626863D01*
X199443527Y167688578D01*
X199511417Y167756469D01*
X199573131Y167830018D01*
X199628200Y167908667D01*
X199676204Y167991816D01*
X199716778Y168078833D01*
X199749613Y168169055D01*
X199774460Y168261795D01*
X199791129Y168356348D01*
X199799493Y168451994D01*
X199800000Y168500000D01*
X199800000Y174100000D01*
X199799550Y174148006D01*
X199791178Y174243651D01*
X199774502Y174338204D01*
X199749649Y174430943D01*
X199716807Y174521163D01*
X199676228Y174608177D01*
X199628219Y174691324D01*
X199573146Y174769970D01*
X199573141Y174769976D01*
X199573139Y174769979D01*
X199511444Y174843500D01*
X199511436Y174843509D01*
X199511429Y174843517D01*
X199443536Y174911405D01*
X199443532Y174911409D01*
X199443526Y174911414D01*
X199369991Y174973112D01*
X199369990Y174973113D01*
X199369985Y174973117D01*
X199291335Y175028185D01*
X199229677Y175063781D01*
X199181460Y175114347D01*
X199167675Y175170570D01*
X199088383Y191569571D01*
X199107744Y191636703D01*
X199141259Y191671744D01*
X199141327Y191671793D01*
X199141331Y191671794D01*
X199219978Y191726863D01*
X199293527Y191788578D01*
X199361417Y191856469D01*
X199423131Y191930018D01*
X199478200Y192008667D01*
X199526204Y192091816D01*
X199566778Y192178833D01*
X199573951Y192198541D01*
X199599606Y192269036D01*
X199599613Y192269055D01*
X199624460Y192361795D01*
X199641129Y192456348D01*
X199649493Y192551994D01*
X199650000Y192600000D01*
X199650000Y198200000D01*
X199649550Y198248006D01*
X199641178Y198343651D01*
X199624502Y198438204D01*
X199599649Y198530943D01*
X199566807Y198621163D01*
X199526228Y198708177D01*
X199478219Y198791324D01*
X199423146Y198869970D01*
X199423141Y198869976D01*
X199423139Y198869979D01*
X199361444Y198943500D01*
X199361436Y198943509D01*
X199361429Y198943517D01*
X199293536Y199011405D01*
X199293532Y199011409D01*
X199293526Y199011414D01*
X199219991Y199073112D01*
X199219990Y199073113D01*
X199219985Y199073117D01*
X199141335Y199128185D01*
X199113243Y199144403D01*
X199065027Y199194968D01*
X199051242Y199251192D01*
X199050576Y199388983D01*
X199050658Y199394107D01*
X199066965Y199840637D01*
X199067759Y199850814D01*
X199105412Y200165263D01*
X204104278Y200165263D01*
X204104278Y200034737D01*
X204138060Y199908658D01*
X204203323Y199795619D01*
X204295619Y199703323D01*
X204408658Y199638060D01*
X204534737Y199604278D01*
X204534739Y199604278D01*
X204665261Y199604278D01*
X204665263Y199604278D01*
X204791342Y199638060D01*
X204904381Y199703323D01*
X204996677Y199795619D01*
X205061940Y199908658D01*
X205095722Y200034737D01*
X205095722Y200165263D01*
X205061940Y200291342D01*
X204996677Y200404381D01*
X204904381Y200496677D01*
X204791342Y200561940D01*
X204665263Y200595722D01*
X204534737Y200595722D01*
X204408658Y200561940D01*
X204408655Y200561939D01*
X204295617Y200496676D01*
X204203324Y200404383D01*
X204138061Y200291345D01*
X204138060Y200291342D01*
X204104278Y200165263D01*
X199105412Y200165263D01*
X199120584Y200291966D01*
X199122219Y200302063D01*
X199211291Y200737333D01*
X199213758Y200747280D01*
X199218515Y200763545D01*
X199338469Y201173705D01*
X199341747Y201183405D01*
X199342584Y201185580D01*
X199501250Y201598086D01*
X199505307Y201607457D01*
X199698513Y202007557D01*
X199703326Y202016554D01*
X199928922Y202399351D01*
X199934456Y202407912D01*
X200190885Y202770759D01*
X200197121Y202778853D01*
X200482643Y203119293D01*
X200489527Y203126843D01*
X200802168Y203442521D01*
X200809646Y203449473D01*
X201147305Y203738272D01*
X201155338Y203744587D01*
X201515689Y204004512D01*
X201524211Y204010139D01*
X201904798Y204239420D01*
X201913747Y204244319D01*
X202311976Y204441393D01*
X202321303Y204445538D01*
X202734429Y204609045D01*
X202744088Y204612412D01*
X203169293Y204741243D01*
X203179193Y204743802D01*
X203613592Y204837080D01*
X203623658Y204838811D01*
X204064281Y204895900D01*
X204074469Y204896794D01*
X204520862Y204917419D01*
X204525924Y204917549D01*
X204568628Y204917755D01*
X204589300Y204917854D01*
X204589300Y204917855D01*
X204640470Y204918100D01*
X204640482Y204918103D01*
X205236292Y204920983D01*
X205303424Y204901622D01*
X205349434Y204849040D01*
X205360890Y204796984D01*
X205360890Y203944222D01*
X205363639Y203898077D01*
X205363639Y203898073D01*
X205363640Y203898072D01*
X205407297Y203697379D01*
X205407299Y203697372D01*
X205488049Y203508806D01*
X205488153Y203508563D01*
X205488156Y203508559D01*
X205603272Y203338472D01*
X205603277Y203338467D01*
X205603278Y203338465D01*
X205748515Y203193228D01*
X205748516Y203193227D01*
X205748521Y203193223D01*
X205846583Y203126854D01*
X205918613Y203078103D01*
X205949817Y203064741D01*
X206107421Y202997250D01*
X206107428Y202997248D01*
X206166601Y202984376D01*
X206308127Y202953589D01*
X206354272Y202950840D01*
X206354283Y202950840D01*
X207668497Y202950840D01*
X207668508Y202950840D01*
X207714653Y202953589D01*
X207890344Y202991809D01*
X207915351Y202997248D01*
X207915358Y202997250D01*
X207978292Y203024201D01*
X208104167Y203078103D01*
X208274265Y203193228D01*
X208419502Y203338465D01*
X208534627Y203508563D01*
X208615481Y203697375D01*
X208659141Y203898077D01*
X208661890Y203944222D01*
X208661890Y204814144D01*
X208681575Y204881183D01*
X208734379Y204926938D01*
X208785288Y204938143D01*
X213236291Y204959665D01*
X213303424Y204940304D01*
X213349434Y204887722D01*
X213360890Y204835666D01*
X213360890Y203944222D01*
X213363639Y203898077D01*
X213363639Y203898073D01*
X213363640Y203898072D01*
X213407297Y203697379D01*
X213407299Y203697372D01*
X213488049Y203508806D01*
X213488153Y203508563D01*
X213488156Y203508559D01*
X213603272Y203338472D01*
X213603277Y203338467D01*
X213603278Y203338465D01*
X213748515Y203193228D01*
X213748516Y203193227D01*
X213748521Y203193223D01*
X213846583Y203126854D01*
X213918613Y203078103D01*
X213949817Y203064741D01*
X214107421Y202997250D01*
X214107428Y202997248D01*
X214166601Y202984376D01*
X214308127Y202953589D01*
X214354272Y202950840D01*
X214354283Y202950840D01*
X215668497Y202950840D01*
X215668508Y202950840D01*
X215714653Y202953589D01*
X215890344Y202991809D01*
X215915351Y202997248D01*
X215915358Y202997250D01*
X215978292Y203024201D01*
X216104167Y203078103D01*
X216274265Y203193228D01*
X216419502Y203338465D01*
X216534627Y203508563D01*
X216615481Y203697375D01*
X216659141Y203898077D01*
X216661890Y203944222D01*
X216661890Y204852825D01*
X216681575Y204919864D01*
X216734379Y204965619D01*
X216785288Y204976824D01*
X217236291Y204979005D01*
X217303424Y204959644D01*
G37*
%TD.AperFunction*%
%TA.AperFunction,Conductor*%
G36*
X245303424Y205095027D02*
G01*
X245349434Y205042445D01*
X245360890Y204990389D01*
X245360890Y203944222D01*
X245363639Y203898077D01*
X245363639Y203898073D01*
X245363640Y203898072D01*
X245407297Y203697379D01*
X245407299Y203697372D01*
X245488049Y203508806D01*
X245488153Y203508563D01*
X245488156Y203508559D01*
X245603272Y203338472D01*
X245603277Y203338467D01*
X245603278Y203338465D01*
X245748515Y203193228D01*
X245748516Y203193227D01*
X245748521Y203193223D01*
X245874988Y203107629D01*
X245919474Y203053751D01*
X245927769Y202984376D01*
X245897240Y202921529D01*
X245861781Y202894453D01*
X245687688Y202805748D01*
X245519478Y202683536D01*
X245372464Y202536522D01*
X245250252Y202368312D01*
X245155861Y202183061D01*
X245091609Y201985316D01*
X245059085Y201779964D01*
X245059085Y201572037D01*
X245091609Y201366685D01*
X245155861Y201168940D01*
X245205596Y201071331D01*
X245250252Y200983689D01*
X245372462Y200815481D01*
X245519481Y200668462D01*
X245687689Y200546252D01*
X245775214Y200501656D01*
X245872939Y200451862D01*
X245872941Y200451862D01*
X245872944Y200451860D01*
X245978938Y200417421D01*
X246070684Y200387610D01*
X246276037Y200355085D01*
X246276042Y200355085D01*
X246483963Y200355085D01*
X246689315Y200387610D01*
X246887056Y200451860D01*
X247072311Y200546252D01*
X247240519Y200668462D01*
X247387538Y200815481D01*
X247509748Y200983689D01*
X247604140Y201168944D01*
X247668390Y201366685D01*
X247677882Y201426616D01*
X247700915Y201572037D01*
X247700915Y201779964D01*
X247668390Y201985316D01*
X247605242Y202179664D01*
X247604140Y202183056D01*
X247604138Y202183059D01*
X247604138Y202183061D01*
X247546425Y202296329D01*
X247509748Y202368311D01*
X247387538Y202536519D01*
X247240519Y202683538D01*
X247181355Y202726523D01*
X247138691Y202781852D01*
X247132712Y202851466D01*
X247165318Y202913260D01*
X247226157Y202947618D01*
X247254242Y202950840D01*
X247668497Y202950840D01*
X247668508Y202950840D01*
X247714653Y202953589D01*
X247890344Y202991809D01*
X247915351Y202997248D01*
X247915358Y202997250D01*
X247978292Y203024201D01*
X248104167Y203078103D01*
X248274265Y203193228D01*
X248419502Y203338465D01*
X248534627Y203508563D01*
X248615481Y203697375D01*
X248659141Y203898077D01*
X248661890Y203944222D01*
X248661890Y204460998D01*
X248681575Y204528037D01*
X248734379Y204573792D01*
X248803537Y204583736D01*
X248839809Y204572661D01*
X249047850Y204472199D01*
X249056849Y204467386D01*
X249439661Y204241782D01*
X249448226Y204236244D01*
X249768153Y204010148D01*
X249811050Y203979832D01*
X249819168Y203973577D01*
X250159583Y203688076D01*
X250167156Y203681171D01*
X250482811Y203368555D01*
X250489789Y203361049D01*
X250778571Y203023411D01*
X250784904Y203015354D01*
X251044805Y202655039D01*
X251050452Y202646486D01*
X251279707Y202265945D01*
X251284629Y202256956D01*
X251481688Y201858762D01*
X251485850Y201849397D01*
X251649352Y201436294D01*
X251652726Y201426616D01*
X251781551Y201001435D01*
X251784115Y200991513D01*
X251877390Y200557143D01*
X251879126Y200547043D01*
X251936214Y200106450D01*
X251937110Y200096240D01*
X251957736Y199649890D01*
X251957867Y199644765D01*
X251959733Y199258675D01*
X251940372Y199191541D01*
X251897737Y199150690D01*
X251858694Y199128148D01*
X251780055Y199073085D01*
X251706523Y199011384D01*
X251706501Y199011364D01*
X251638642Y198943507D01*
X251638618Y198943481D01*
X251576910Y198869942D01*
X251521847Y198791306D01*
X251473834Y198708149D01*
X251473832Y198708145D01*
X251433266Y198621156D01*
X251400418Y198530916D01*
X251375574Y198438207D01*
X251375569Y198438182D01*
X251358897Y198343651D01*
X251358896Y198343645D01*
X251350525Y198248003D01*
X251350147Y198213372D01*
X251350000Y198199964D01*
X251350000Y192600007D01*
X251350580Y192552012D01*
X251350580Y192552002D01*
X251350581Y192551997D01*
X251354310Y192509361D01*
X251358945Y192456351D01*
X251375612Y192361811D01*
X251375615Y192361799D01*
X251400453Y192269085D01*
X251400457Y192269073D01*
X251400458Y192269070D01*
X251426123Y192198545D01*
X251433294Y192178842D01*
X251433295Y192178840D01*
X251473856Y192091848D01*
X251473857Y192091847D01*
X251473861Y192091839D01*
X251521861Y192008693D01*
X251528521Y191999181D01*
X251576926Y191930047D01*
X251638638Y191856497D01*
X251706513Y191788617D01*
X251706519Y191788612D01*
X251706520Y191788611D01*
X251780063Y191726896D01*
X251858705Y191671827D01*
X251926613Y191632617D01*
X251974827Y191582050D01*
X251988532Y191520843D01*
X251980612Y191297270D01*
X251979859Y191287325D01*
X251929872Y190857833D01*
X251928321Y190847980D01*
X251843981Y190423915D01*
X251841644Y190414219D01*
X251723492Y189998293D01*
X251720383Y189988816D01*
X251569186Y189583732D01*
X251565325Y189574535D01*
X251382056Y189182909D01*
X251377468Y189174053D01*
X251163328Y188798439D01*
X251158044Y188789980D01*
X250914400Y188432781D01*
X250908453Y188424774D01*
X250636887Y188088307D01*
X250630315Y188080804D01*
X250332603Y187767272D01*
X250325450Y187760321D01*
X250003474Y187471704D01*
X249995786Y187465351D01*
X249651674Y187203559D01*
X249643499Y187197844D01*
X249279466Y186964560D01*
X249270859Y186959521D01*
X248889235Y186756238D01*
X248880251Y186751906D01*
X248483529Y186579954D01*
X248474225Y186576359D01*
X248064979Y186436853D01*
X248055417Y186434017D01*
X247636270Y186327850D01*
X247626511Y186325792D01*
X247199278Y186253501D01*
X247196273Y186253030D01*
X247192289Y186252456D01*
X247190361Y186252194D01*
X247124878Y186243807D01*
X247124839Y186243800D01*
X246908309Y186216089D01*
X246893147Y186214148D01*
X246553127Y186150385D01*
X246294389Y186101865D01*
X245703175Y185955070D01*
X245703145Y185955062D01*
X245121448Y185774248D01*
X245121439Y185774245D01*
X244551146Y185559995D01*
X243994269Y185313065D01*
X243452618Y185034258D01*
X243452593Y185034244D01*
X242928045Y184724525D01*
X242928021Y184724510D01*
X242422332Y184384922D01*
X242422305Y184384903D01*
X241937120Y184016550D01*
X241474094Y183620686D01*
X241474061Y183620656D01*
X241034795Y183198650D01*
X241034764Y183198619D01*
X240620681Y182751840D01*
X240233170Y182281783D01*
X240233157Y182281765D01*
X239873566Y181790067D01*
X239543066Y181278323D01*
X239543050Y181278297D01*
X239242792Y180748299D01*
X239242778Y180748274D01*
X238973731Y180201725D01*
X238973719Y180201699D01*
X238736822Y179640515D01*
X238736808Y179640480D01*
X238532827Y179066472D01*
X238362456Y178481587D01*
X238226280Y177887834D01*
X238226276Y177887814D01*
X238187855Y177660391D01*
X238187790Y177660114D01*
X238177847Y177601311D01*
X238176796Y177595844D01*
X238171110Y177569479D01*
X238170412Y177566430D01*
X238128065Y177391596D01*
X238122798Y177375026D01*
X238051636Y177195801D01*
X238044103Y177180132D01*
X237948578Y177012632D01*
X237938926Y176998169D01*
X237820912Y176845679D01*
X237809334Y176832709D01*
X237671142Y176698214D01*
X237657862Y176686991D01*
X237502226Y176573154D01*
X237487508Y176563899D01*
X237317479Y176472950D01*
X237301611Y176465844D01*
X237120525Y176399567D01*
X237103818Y176394751D01*
X236915257Y176354459D01*
X236898042Y176352026D01*
X236714362Y176339112D01*
X236701327Y176338195D01*
X236692632Y176337890D01*
X214289475Y176337890D01*
X213811589Y176300279D01*
X213811570Y176300277D01*
X213338105Y176225288D01*
X212871981Y176113381D01*
X212871975Y176113380D01*
X212871970Y176113378D01*
X212871958Y176113374D01*
X212416059Y175965245D01*
X211973168Y175781793D01*
X211546022Y175564152D01*
X211546017Y175564149D01*
X211137308Y175313691D01*
X211137297Y175313683D01*
X210749480Y175031918D01*
X210749466Y175031907D01*
X210384957Y174720587D01*
X210384943Y174720574D01*
X210045986Y174381617D01*
X210045973Y174381603D01*
X209734653Y174017094D01*
X209734642Y174017080D01*
X209452877Y173629263D01*
X209452869Y173629252D01*
X209202411Y173220543D01*
X209202408Y173220538D01*
X208984767Y172793392D01*
X208801315Y172350501D01*
X208653186Y171894602D01*
X208653179Y171894579D01*
X208541272Y171428455D01*
X208466283Y170954990D01*
X208466281Y170954971D01*
X208428670Y170477085D01*
X208428670Y169997696D01*
X208466281Y169519810D01*
X208466283Y169519791D01*
X208541272Y169046326D01*
X208633942Y168660330D01*
X208653182Y168580190D01*
X208669740Y168529230D01*
X208801315Y168124280D01*
X208820140Y168078833D01*
X208984768Y167681386D01*
X209202401Y167254256D01*
X209202408Y167254243D01*
X209202411Y167254238D01*
X209452869Y166845529D01*
X209452874Y166845522D01*
X209452876Y166845519D01*
X209536989Y166729748D01*
X209732592Y166460522D01*
X209734648Y166457693D01*
X210045979Y166093171D01*
X210384951Y165754199D01*
X210749473Y165442868D01*
X211137299Y165161096D01*
X211137303Y165161094D01*
X211137308Y165161090D01*
X211546017Y164910632D01*
X211546022Y164910629D01*
X211546027Y164910627D01*
X211546036Y164910621D01*
X211694483Y164834984D01*
X211745278Y164787011D01*
X211762073Y164719190D01*
X211739536Y164653055D01*
X211684821Y164609603D01*
X211638187Y164600500D01*
X208565782Y164600500D01*
X208498743Y164620185D01*
X208478101Y164636819D01*
X204762759Y168352161D01*
X204729274Y168413484D01*
X204734258Y168483176D01*
X204760748Y168524392D01*
X204760597Y168524516D01*
X204761663Y168525816D01*
X204762764Y168527529D01*
X204764462Y168529226D01*
X204852067Y168660336D01*
X204912410Y168806018D01*
X204943173Y168960673D01*
X204943173Y168960682D01*
X204943483Y168963828D01*
X204944318Y168966429D01*
X204944362Y168966647D01*
X204944387Y168966643D01*
X204959500Y169013680D01*
X205010179Y169101459D01*
X205029577Y169135057D01*
X205070500Y169287784D01*
X205070500Y169445899D01*
X205070500Y175721904D01*
X205090185Y175788943D01*
X205106814Y175809580D01*
X208246966Y178949733D01*
X208246971Y178949736D01*
X208257174Y178959940D01*
X208257176Y178959940D01*
X208368980Y179071744D01*
X208448037Y179208676D01*
X208464132Y179268747D01*
X208500497Y179328406D01*
X208563344Y179358935D01*
X208632719Y179350640D01*
X208671588Y179324333D01*
X208785707Y179210214D01*
X208785711Y179210211D01*
X208916814Y179122610D01*
X208916827Y179122603D01*
X209039616Y179071743D01*
X209062503Y179062263D01*
X209217153Y179031501D01*
X209217156Y179031500D01*
X209217158Y179031500D01*
X209374844Y179031500D01*
X209374845Y179031501D01*
X209529497Y179062263D01*
X209642166Y179108933D01*
X209675172Y179122603D01*
X209675172Y179122604D01*
X209675179Y179122606D01*
X209806289Y179210211D01*
X209917789Y179321711D01*
X210005394Y179452821D01*
X210065737Y179598503D01*
X210096500Y179753158D01*
X210096500Y179910842D01*
X210096500Y179910845D01*
X210096499Y179910847D01*
X210065739Y180065489D01*
X210065738Y180065492D01*
X210065737Y180065497D01*
X210055937Y180089156D01*
X210046500Y180136604D01*
X210046500Y181501457D01*
X216701889Y181501457D01*
X216740337Y181308171D01*
X216740340Y181308161D01*
X216815754Y181126093D01*
X216815761Y181126080D01*
X216925250Y180962219D01*
X216925253Y180962215D01*
X217064604Y180822864D01*
X217064608Y180822861D01*
X217228469Y180713372D01*
X217228482Y180713365D01*
X217410550Y180637951D01*
X217410555Y180637949D01*
X217410559Y180637949D01*
X217410560Y180637948D01*
X217603846Y180599500D01*
X217603849Y180599500D01*
X225630349Y180599500D01*
X225697388Y180579815D01*
X225718030Y180563181D01*
X226301930Y179979281D01*
X226335415Y179917958D01*
X226335866Y179915791D01*
X226354068Y179824284D01*
X226354071Y179824272D01*
X226429485Y179642204D01*
X226429492Y179642191D01*
X226538981Y179478330D01*
X226538984Y179478326D01*
X226678335Y179338975D01*
X226678339Y179338972D01*
X226842200Y179229483D01*
X226842213Y179229476D01*
X227015293Y179157785D01*
X227024286Y179154060D01*
X227024290Y179154060D01*
X227024291Y179154059D01*
X227217577Y179115611D01*
X227217580Y179115611D01*
X227414664Y179115611D01*
X227544703Y179141479D01*
X227607956Y179154060D01*
X227790035Y179229479D01*
X227953903Y179338972D01*
X228093260Y179478329D01*
X228202753Y179642197D01*
X228278172Y179824276D01*
X228316621Y180017570D01*
X228316621Y180165263D01*
X231104278Y180165263D01*
X231104278Y180034737D01*
X231138060Y179908658D01*
X231203323Y179795619D01*
X231295619Y179703323D01*
X231408658Y179638060D01*
X231534737Y179604278D01*
X231534739Y179604278D01*
X231665261Y179604278D01*
X231665263Y179604278D01*
X231791342Y179638060D01*
X231904381Y179703323D01*
X231996677Y179795619D01*
X232061940Y179908658D01*
X232095722Y180034737D01*
X232095722Y180165263D01*
X232061940Y180291342D01*
X231996677Y180404381D01*
X231904381Y180496677D01*
X231791342Y180561940D01*
X231665263Y180595722D01*
X231534737Y180595722D01*
X231408658Y180561940D01*
X231408655Y180561939D01*
X231295617Y180496676D01*
X231203324Y180404383D01*
X231138061Y180291345D01*
X231138060Y180291342D01*
X231104278Y180165263D01*
X228316621Y180165263D01*
X228316621Y180478551D01*
X228304121Y180541394D01*
X228278172Y180671846D01*
X228225296Y180799500D01*
X228215620Y180822861D01*
X228202756Y180853918D01*
X228202749Y180853931D01*
X228093261Y181017791D01*
X228093260Y181017792D01*
X227953903Y181157149D01*
X227953902Y181157150D01*
X227527613Y181583438D01*
X233737960Y181583438D01*
X233737960Y181291343D01*
X233770659Y181001119D01*
X233770662Y181001105D01*
X233835656Y180716346D01*
X233835657Y180716344D01*
X233932125Y180440652D01*
X234058853Y180177500D01*
X234058855Y180177497D01*
X234214252Y179930184D01*
X234396362Y179701825D01*
X234602895Y179495292D01*
X234831254Y179313182D01*
X235078567Y179157785D01*
X235078569Y179157784D01*
X235151623Y179122603D01*
X235341723Y179031055D01*
X235617415Y178934587D01*
X235902174Y178869592D01*
X235902183Y178869591D01*
X235902188Y178869590D01*
X236095670Y178847791D01*
X236192413Y178836891D01*
X236192416Y178836890D01*
X236192419Y178836890D01*
X236484504Y178836890D01*
X236484505Y178836891D01*
X236632831Y178853603D01*
X236774731Y178869590D01*
X236774734Y178869591D01*
X236774746Y178869592D01*
X237059505Y178934587D01*
X237335197Y179031055D01*
X237598353Y179157785D01*
X237845666Y179313182D01*
X238074025Y179495292D01*
X238280558Y179701825D01*
X238462668Y179930184D01*
X238618065Y180177497D01*
X238744795Y180440653D01*
X238841263Y180716345D01*
X238906258Y181001104D01*
X238908139Y181017792D01*
X238922404Y181144405D01*
X238938960Y181291349D01*
X238938960Y181583431D01*
X238906258Y181873676D01*
X238841263Y182158435D01*
X238744795Y182434127D01*
X238618065Y182697283D01*
X238462668Y182944596D01*
X238280558Y183172955D01*
X238074025Y183379488D01*
X237845666Y183561598D01*
X237598353Y183716995D01*
X237598350Y183716997D01*
X237335198Y183843725D01*
X237059506Y183940193D01*
X237059504Y183940194D01*
X236839740Y183990354D01*
X236774746Y184005188D01*
X236774743Y184005189D01*
X236774731Y184005191D01*
X236484507Y184037890D01*
X236484501Y184037890D01*
X236192419Y184037890D01*
X236192412Y184037890D01*
X235902188Y184005191D01*
X235902174Y184005188D01*
X235617415Y183940194D01*
X235617413Y183940193D01*
X235341721Y183843725D01*
X235078569Y183716997D01*
X234831255Y183561599D01*
X234602895Y183379489D01*
X234396361Y183172955D01*
X234214251Y182944595D01*
X234058853Y182697281D01*
X233932125Y182434129D01*
X233835657Y182158437D01*
X233835656Y182158435D01*
X233770662Y181873676D01*
X233770659Y181873662D01*
X233737960Y181583438D01*
X227527613Y181583438D01*
X227412510Y181698541D01*
X226880340Y182230711D01*
X226880337Y182230715D01*
X226880337Y182230714D01*
X226873270Y182237781D01*
X226873270Y182237782D01*
X226733913Y182377139D01*
X226733912Y182377140D01*
X226733911Y182377141D01*
X226570051Y182486629D01*
X226570042Y182486634D01*
X226497446Y182516704D01*
X226441296Y182539962D01*
X226387967Y182562051D01*
X226387963Y182562052D01*
X226387959Y182562054D01*
X226291319Y182581276D01*
X226194675Y182600500D01*
X226194672Y182600500D01*
X217603849Y182600500D01*
X217603847Y182600500D01*
X217410560Y182562053D01*
X217410550Y182562050D01*
X217228482Y182486636D01*
X217228469Y182486629D01*
X217064608Y182377140D01*
X217064604Y182377137D01*
X216925253Y182237786D01*
X216925250Y182237782D01*
X216815761Y182073921D01*
X216815754Y182073908D01*
X216740340Y181891840D01*
X216740337Y181891830D01*
X216701890Y181698544D01*
X216701890Y181698541D01*
X216701890Y181501459D01*
X216701890Y181501457D01*
X216701889Y181501457D01*
X210046500Y181501457D01*
X210046500Y182699921D01*
X210017659Y182844908D01*
X210017658Y182844909D01*
X210017658Y182844913D01*
X210001250Y182884526D01*
X209961087Y182981489D01*
X209961080Y182981502D01*
X209878952Y183104415D01*
X209878951Y183104416D01*
X209774416Y183208951D01*
X207756071Y185227297D01*
X207729191Y185267525D01*
X207719394Y185291179D01*
X207704770Y185313065D01*
X207631789Y185422290D01*
X207520292Y185533787D01*
X207520288Y185533790D01*
X207389185Y185621391D01*
X207389172Y185621398D01*
X207243501Y185681736D01*
X207243489Y185681739D01*
X207088845Y185712500D01*
X207088842Y185712500D01*
X206931158Y185712500D01*
X206931155Y185712500D01*
X206776510Y185681739D01*
X206776498Y185681736D01*
X206630827Y185621398D01*
X206630814Y185621391D01*
X206499711Y185533790D01*
X206499707Y185533787D01*
X206388213Y185422293D01*
X206388210Y185422289D01*
X206300609Y185291186D01*
X206300602Y185291173D01*
X206240264Y185145502D01*
X206240261Y185145490D01*
X206209500Y184990847D01*
X206209500Y184833154D01*
X206240261Y184678511D01*
X206240264Y184678499D01*
X206244633Y184667952D01*
X206252102Y184598482D01*
X206220826Y184536003D01*
X206160737Y184500352D01*
X206130072Y184496500D01*
X205532098Y184496500D01*
X205465059Y184516185D01*
X205444417Y184532819D01*
X203936819Y186040417D01*
X203903334Y186101740D01*
X203900500Y186128098D01*
X203900500Y191468533D01*
X203920185Y191535572D01*
X203936819Y191556214D01*
X206044139Y193663533D01*
X206105462Y193697018D01*
X206131820Y193699852D01*
X206973551Y193699852D01*
X207040590Y193680167D01*
X207061232Y193663533D01*
X208049139Y192675626D01*
X208049149Y192675615D01*
X208053479Y192671285D01*
X208053480Y192671284D01*
X208165284Y192559480D01*
X208252095Y192509361D01*
X208252097Y192509359D01*
X208302213Y192480424D01*
X208302215Y192480423D01*
X208401430Y192453838D01*
X208461087Y192417475D01*
X208491617Y192354629D01*
X208483323Y192285253D01*
X208457015Y192246384D01*
X206427045Y190216414D01*
X206405379Y190183987D01*
X206396735Y190171048D01*
X206370736Y190132139D01*
X206344914Y190093493D01*
X206288343Y189956918D01*
X206288340Y189956908D01*
X206259500Y189811921D01*
X206259500Y188772604D01*
X206250062Y188725156D01*
X206240263Y188701497D01*
X206240262Y188701494D01*
X206240260Y188701489D01*
X206209500Y188546847D01*
X206209500Y188389154D01*
X206240261Y188234511D01*
X206240264Y188234499D01*
X206300602Y188088828D01*
X206300609Y188088815D01*
X206388210Y187957712D01*
X206388213Y187957708D01*
X206499707Y187846214D01*
X206499711Y187846211D01*
X206630814Y187758610D01*
X206630827Y187758603D01*
X206776498Y187698265D01*
X206776503Y187698263D01*
X206931153Y187667501D01*
X206931156Y187667500D01*
X206931158Y187667500D01*
X207088844Y187667500D01*
X207088845Y187667501D01*
X207243497Y187698263D01*
X207389179Y187758606D01*
X207520289Y187846211D01*
X207631789Y187957711D01*
X207719394Y188088821D01*
X207779737Y188234503D01*
X207810500Y188389158D01*
X207810500Y188546842D01*
X207810500Y188546845D01*
X207787902Y188660449D01*
X207783263Y188683772D01*
X217809500Y188683772D01*
X217809500Y188516229D01*
X217842182Y188351926D01*
X217842184Y188351918D01*
X217906295Y188197140D01*
X217999373Y188057838D01*
X218117837Y187939374D01*
X218210494Y187877463D01*
X218257137Y187846297D01*
X218257138Y187846297D01*
X218257139Y187846296D01*
X218292201Y187831773D01*
X218411918Y187782184D01*
X218521832Y187760321D01*
X218576228Y187749501D01*
X218576232Y187749500D01*
X218576233Y187749500D01*
X218743768Y187749500D01*
X218743769Y187749501D01*
X218908082Y187782184D01*
X219062863Y187846297D01*
X219202162Y187939374D01*
X219320626Y188057838D01*
X219413703Y188197137D01*
X219477816Y188351918D01*
X219510500Y188516233D01*
X219510500Y188683767D01*
X219510499Y188683772D01*
X221809500Y188683772D01*
X221809500Y188516229D01*
X221842182Y188351926D01*
X221842184Y188351918D01*
X221906295Y188197140D01*
X221999373Y188057838D01*
X222117837Y187939374D01*
X222210494Y187877463D01*
X222257137Y187846297D01*
X222257138Y187846297D01*
X222257139Y187846296D01*
X222292201Y187831773D01*
X222411918Y187782184D01*
X222521832Y187760321D01*
X222576228Y187749501D01*
X222576232Y187749500D01*
X222576233Y187749500D01*
X222743768Y187749500D01*
X222743769Y187749501D01*
X222908082Y187782184D01*
X223062863Y187846297D01*
X223202162Y187939374D01*
X223320626Y188057838D01*
X223413703Y188197137D01*
X223477816Y188351918D01*
X223510500Y188516233D01*
X223510500Y188683767D01*
X223477816Y188848082D01*
X223413703Y189002863D01*
X223337952Y189116232D01*
X223320626Y189142163D01*
X223202162Y189260627D01*
X223167523Y189283772D01*
X238349500Y189283772D01*
X238349500Y189116229D01*
X238382182Y188951926D01*
X238382184Y188951918D01*
X238446295Y188797140D01*
X238539373Y188657838D01*
X238657837Y188539374D01*
X238750494Y188477463D01*
X238797137Y188446297D01*
X238951918Y188382184D01*
X239104037Y188351926D01*
X239116228Y188349501D01*
X239116232Y188349500D01*
X239116233Y188349500D01*
X239283768Y188349500D01*
X239283769Y188349501D01*
X239448082Y188382184D01*
X239602863Y188446297D01*
X239742162Y188539374D01*
X239860626Y188657838D01*
X239953703Y188797137D01*
X240017816Y188951918D01*
X240050500Y189116233D01*
X240050500Y189283767D01*
X240050499Y189283772D01*
X242349500Y189283772D01*
X242349500Y189116229D01*
X242382182Y188951926D01*
X242382184Y188951918D01*
X242446295Y188797140D01*
X242539373Y188657838D01*
X242657837Y188539374D01*
X242750494Y188477463D01*
X242797137Y188446297D01*
X242951918Y188382184D01*
X243104037Y188351926D01*
X243116228Y188349501D01*
X243116232Y188349500D01*
X243116233Y188349500D01*
X243283768Y188349500D01*
X243283769Y188349501D01*
X243448082Y188382184D01*
X243602863Y188446297D01*
X243742162Y188539374D01*
X243860626Y188657838D01*
X243953703Y188797137D01*
X244017816Y188951918D01*
X244050500Y189116233D01*
X244050500Y189283767D01*
X244017816Y189448082D01*
X243953703Y189602863D01*
X243922537Y189649506D01*
X243860626Y189742163D01*
X243742162Y189860627D01*
X243602860Y189953705D01*
X243448082Y190017816D01*
X243448074Y190017818D01*
X243283771Y190050500D01*
X243283767Y190050500D01*
X243116233Y190050500D01*
X243116228Y190050500D01*
X242951925Y190017818D01*
X242951917Y190017816D01*
X242797139Y189953705D01*
X242657837Y189860627D01*
X242539373Y189742163D01*
X242446295Y189602861D01*
X242382184Y189448083D01*
X242382182Y189448075D01*
X242349500Y189283772D01*
X240050499Y189283772D01*
X240017816Y189448082D01*
X239953703Y189602863D01*
X239922537Y189649506D01*
X239860626Y189742163D01*
X239742162Y189860627D01*
X239602860Y189953705D01*
X239448082Y190017816D01*
X239448074Y190017818D01*
X239283771Y190050500D01*
X239283767Y190050500D01*
X239116233Y190050500D01*
X239116228Y190050500D01*
X238951925Y190017818D01*
X238951917Y190017816D01*
X238797139Y189953705D01*
X238657837Y189860627D01*
X238539373Y189742163D01*
X238446295Y189602861D01*
X238382184Y189448083D01*
X238382182Y189448075D01*
X238349500Y189283772D01*
X223167523Y189283772D01*
X223062860Y189353705D01*
X222908082Y189417816D01*
X222908074Y189417818D01*
X222743771Y189450500D01*
X222743767Y189450500D01*
X222576233Y189450500D01*
X222576228Y189450500D01*
X222411925Y189417818D01*
X222411917Y189417816D01*
X222257139Y189353705D01*
X222117837Y189260627D01*
X221999373Y189142163D01*
X221906295Y189002861D01*
X221842184Y188848083D01*
X221842182Y188848075D01*
X221809500Y188683772D01*
X219510499Y188683772D01*
X219477816Y188848082D01*
X219413703Y189002863D01*
X219337952Y189116232D01*
X219320626Y189142163D01*
X219202162Y189260627D01*
X219062860Y189353705D01*
X218908082Y189417816D01*
X218908074Y189417818D01*
X218743771Y189450500D01*
X218743767Y189450500D01*
X218576233Y189450500D01*
X218576228Y189450500D01*
X218411925Y189417818D01*
X218411917Y189417816D01*
X218257139Y189353705D01*
X218117837Y189260627D01*
X217999373Y189142163D01*
X217906295Y189002861D01*
X217842184Y188848083D01*
X217842182Y188848075D01*
X217809500Y188683772D01*
X207783263Y188683772D01*
X207779737Y188701497D01*
X207767311Y188731497D01*
X207765401Y188738087D01*
X207765435Y188747793D01*
X207760500Y188772604D01*
X207760500Y189375770D01*
X207780185Y189442809D01*
X207796819Y189463451D01*
X210332549Y191999181D01*
X210393872Y192032666D01*
X210420230Y192035500D01*
X222903770Y192035500D01*
X222970809Y192015815D01*
X222991451Y191999181D01*
X224819584Y190171048D01*
X224893270Y190121814D01*
X224942505Y190088916D01*
X224942506Y190088916D01*
X224942507Y190088915D01*
X224942509Y190088914D01*
X225079082Y190032344D01*
X225079087Y190032342D01*
X225079091Y190032342D01*
X225079092Y190032341D01*
X225224079Y190003500D01*
X225224082Y190003500D01*
X235785920Y190003500D01*
X235884642Y190023138D01*
X235930913Y190032342D01*
X236067495Y190088916D01*
X236116729Y190121814D01*
X236116734Y190121817D01*
X236190415Y190171047D01*
X236190416Y190171048D01*
X238984549Y192965181D01*
X239045872Y192998666D01*
X239072230Y193001500D01*
X239092844Y193001500D01*
X239092845Y193001501D01*
X239247497Y193032263D01*
X239393179Y193092606D01*
X239524289Y193180211D01*
X239635789Y193291711D01*
X239723394Y193422821D01*
X239783737Y193568503D01*
X239814500Y193723158D01*
X239814500Y193880842D01*
X239814500Y193880845D01*
X239814499Y193880847D01*
X239803365Y193936819D01*
X239783737Y194035497D01*
X239742874Y194134150D01*
X239723397Y194181173D01*
X239723390Y194181186D01*
X239635789Y194312289D01*
X239635786Y194312293D01*
X239524292Y194423787D01*
X239524288Y194423790D01*
X239393185Y194511391D01*
X239393172Y194511398D01*
X239247501Y194571736D01*
X239247489Y194571739D01*
X239092845Y194602500D01*
X239092842Y194602500D01*
X238935158Y194602500D01*
X238935155Y194602500D01*
X238780511Y194571740D01*
X238780506Y194571738D01*
X238780504Y194571738D01*
X238780503Y194571737D01*
X238756844Y194561938D01*
X238709396Y194552500D01*
X238686080Y194552500D01*
X238541092Y194523660D01*
X238541082Y194523657D01*
X238404511Y194467088D01*
X238404496Y194467080D01*
X238356757Y194435180D01*
X238356754Y194435178D01*
X238281589Y194384957D01*
X238281584Y194384953D01*
X237740035Y193843405D01*
X237678712Y193809920D01*
X237609020Y193814904D01*
X237564665Y193843413D01*
X237559169Y193848910D01*
X237525689Y193910236D01*
X237525241Y193960775D01*
X237528500Y193977158D01*
X237528500Y194134842D01*
X237528500Y194134845D01*
X237528499Y194134847D01*
X237520087Y194177137D01*
X237497737Y194289497D01*
X237488295Y194312293D01*
X237437397Y194435173D01*
X237437390Y194435186D01*
X237349789Y194566289D01*
X237349786Y194566293D01*
X237238292Y194677787D01*
X237238288Y194677790D01*
X237107185Y194765391D01*
X237107172Y194765398D01*
X236961501Y194825736D01*
X236961489Y194825739D01*
X236806845Y194856500D01*
X236806842Y194856500D01*
X236649158Y194856500D01*
X236649155Y194856500D01*
X236494510Y194825739D01*
X236494498Y194825736D01*
X236348827Y194765398D01*
X236348814Y194765391D01*
X236217711Y194677790D01*
X236217707Y194677787D01*
X236106213Y194566293D01*
X236106210Y194566289D01*
X236018609Y194435186D01*
X236018602Y194435173D01*
X235958264Y194289502D01*
X235958261Y194289492D01*
X235927361Y194134150D01*
X235894976Y194072239D01*
X235893425Y194070661D01*
X235537955Y193715192D01*
X235476632Y193681707D01*
X235406940Y193686691D01*
X235351007Y193728563D01*
X235335713Y193755420D01*
X235286632Y193873912D01*
X235286627Y193873921D01*
X235177139Y194037781D01*
X235177136Y194037785D01*
X235037784Y194177137D01*
X235037780Y194177140D01*
X234873920Y194286628D01*
X234873910Y194286633D01*
X234691836Y194362051D01*
X234691828Y194362053D01*
X234498543Y194400500D01*
X234498540Y194400500D01*
X234301460Y194400500D01*
X234301457Y194400500D01*
X234108171Y194362053D01*
X234108163Y194362051D01*
X233926089Y194286633D01*
X233926079Y194286628D01*
X233762219Y194177140D01*
X233762215Y194177137D01*
X233521899Y193936819D01*
X233460576Y193903334D01*
X233434218Y193900500D01*
X226865782Y193900500D01*
X226798743Y193920185D01*
X226778101Y193936819D01*
X224048209Y196666711D01*
X224014724Y196728034D01*
X224011890Y196754392D01*
X224011890Y202956797D01*
X224031575Y203023836D01*
X224084379Y203069591D01*
X224087017Y203070760D01*
X224104167Y203078103D01*
X224274265Y203193228D01*
X224419502Y203338465D01*
X224534627Y203508563D01*
X224615481Y203697375D01*
X224659141Y203898077D01*
X224661890Y203944222D01*
X224661890Y204891507D01*
X224681575Y204958546D01*
X224734379Y205004301D01*
X224785288Y205015506D01*
X229236291Y205037027D01*
X229303424Y205017666D01*
X229349434Y204965084D01*
X229360890Y204913028D01*
X229360890Y203944222D01*
X229363639Y203898077D01*
X229363639Y203898073D01*
X229363640Y203898072D01*
X229407297Y203697379D01*
X229407299Y203697372D01*
X229488049Y203508806D01*
X229488153Y203508563D01*
X229488156Y203508559D01*
X229603272Y203338472D01*
X229603277Y203338467D01*
X229603278Y203338465D01*
X229748515Y203193228D01*
X229748516Y203193227D01*
X229748521Y203193223D01*
X229846583Y203126854D01*
X229918613Y203078103D01*
X229949817Y203064741D01*
X230107421Y202997250D01*
X230107428Y202997248D01*
X230166601Y202984376D01*
X230308127Y202953589D01*
X230354272Y202950840D01*
X230354283Y202950840D01*
X231668497Y202950840D01*
X231668508Y202950840D01*
X231714653Y202953589D01*
X231890344Y202991809D01*
X231915351Y202997248D01*
X231915358Y202997250D01*
X231978292Y203024201D01*
X232104167Y203078103D01*
X232274265Y203193228D01*
X232419502Y203338465D01*
X232534627Y203508563D01*
X232615481Y203697375D01*
X232659141Y203898077D01*
X232661890Y203944222D01*
X232661890Y204930188D01*
X232681575Y204997227D01*
X232734379Y205042982D01*
X232785288Y205054187D01*
X233236291Y205056368D01*
X233303424Y205037007D01*
X233349434Y204984425D01*
X233360890Y204932369D01*
X233360890Y203944222D01*
X233363639Y203898077D01*
X233363639Y203898073D01*
X233363640Y203898072D01*
X233407297Y203697379D01*
X233407299Y203697372D01*
X233488049Y203508806D01*
X233488153Y203508563D01*
X233488156Y203508559D01*
X233603272Y203338472D01*
X233603277Y203338467D01*
X233603278Y203338465D01*
X233748515Y203193228D01*
X233748516Y203193227D01*
X233748521Y203193223D01*
X233846583Y203126854D01*
X233918613Y203078103D01*
X233949817Y203064741D01*
X234107421Y202997250D01*
X234107428Y202997248D01*
X234166601Y202984376D01*
X234308127Y202953589D01*
X234354272Y202950840D01*
X234936558Y202950840D01*
X235003597Y202931155D01*
X235049352Y202878351D01*
X235059296Y202809193D01*
X235030271Y202745637D01*
X235024239Y202739159D01*
X232421899Y200136819D01*
X232360576Y200103334D01*
X232334218Y200100500D01*
X227401455Y200100500D01*
X227304812Y200081276D01*
X227208170Y200062054D01*
X227208166Y200062052D01*
X227183213Y200051716D01*
X227026089Y199986634D01*
X226968521Y199948168D01*
X226862216Y199877139D01*
X226862213Y199877136D01*
X224822863Y197837785D01*
X224822860Y197837781D01*
X224713372Y197673921D01*
X224713367Y197673911D01*
X224637949Y197491837D01*
X224637947Y197491829D01*
X224599500Y197298545D01*
X224599500Y197101456D01*
X224637947Y196908172D01*
X224637949Y196908164D01*
X224713367Y196726090D01*
X224713372Y196726080D01*
X224822860Y196562220D01*
X224822863Y196562216D01*
X224962215Y196422864D01*
X224962219Y196422861D01*
X225126079Y196313373D01*
X225126083Y196313371D01*
X225126086Y196313369D01*
X225308164Y196237949D01*
X225496433Y196200500D01*
X225501455Y196199501D01*
X225501458Y196199500D01*
X225501460Y196199500D01*
X225698542Y196199500D01*
X225698543Y196199501D01*
X225891836Y196237949D01*
X226073914Y196313369D01*
X226237781Y196422861D01*
X227878102Y198063181D01*
X227939425Y198096666D01*
X227965783Y198099500D01*
X232898542Y198099500D01*
X232917870Y198103345D01*
X232995188Y198118725D01*
X233091836Y198137949D01*
X233145165Y198160039D01*
X233273914Y198213368D01*
X233437782Y198322861D01*
X233577139Y198462218D01*
X233577140Y198462221D01*
X233584206Y198469286D01*
X233584209Y198469290D01*
X234910629Y199795710D01*
X234971952Y199829195D01*
X235041644Y199824211D01*
X235097577Y199782339D01*
X235121994Y199716875D01*
X235122310Y199708029D01*
X235122310Y199410871D01*
X235124466Y199388983D01*
X235156020Y199068591D01*
X235223118Y198731268D01*
X235322960Y198402134D01*
X235347185Y198343651D01*
X235423240Y198160036D01*
X235454580Y198084376D01*
X235454582Y198084371D01*
X235616703Y197781065D01*
X235616714Y197781047D01*
X235807785Y197495089D01*
X235807795Y197495075D01*
X236025986Y197229208D01*
X236269177Y196986017D01*
X236269182Y196986013D01*
X236269183Y196986012D01*
X236535050Y196767821D01*
X236821023Y196576740D01*
X236821032Y196576735D01*
X236821034Y196576734D01*
X237124340Y196414613D01*
X237124342Y196414613D01*
X237124348Y196414609D01*
X237442105Y196282990D01*
X237771232Y196183150D01*
X238108560Y196116051D01*
X238450841Y196082340D01*
X238450844Y196082340D01*
X238794776Y196082340D01*
X238794779Y196082340D01*
X239137060Y196116051D01*
X239474388Y196183150D01*
X239803515Y196282990D01*
X240121272Y196414609D01*
X240424597Y196576740D01*
X240710570Y196767821D01*
X240976437Y196986012D01*
X241219638Y197229213D01*
X241437829Y197495080D01*
X241628910Y197781053D01*
X241791041Y198084378D01*
X241922660Y198402135D01*
X242022500Y198731262D01*
X242089599Y199068590D01*
X242123310Y199410871D01*
X242123310Y199754809D01*
X242089599Y200097090D01*
X242022500Y200434418D01*
X241922660Y200763545D01*
X241791041Y201081302D01*
X241744197Y201168940D01*
X241628916Y201384616D01*
X241628915Y201384618D01*
X241628910Y201384627D01*
X241437829Y201670600D01*
X241219638Y201936467D01*
X241219637Y201936468D01*
X241219633Y201936473D01*
X240976442Y202179664D01*
X240710575Y202397855D01*
X240710574Y202397856D01*
X240710570Y202397859D01*
X240424597Y202588940D01*
X240424592Y202588943D01*
X240424585Y202588947D01*
X240121279Y202751068D01*
X240121274Y202751070D01*
X239996366Y202802809D01*
X239941963Y202846650D01*
X239919898Y202912945D01*
X239937177Y202980644D01*
X239988315Y203028254D01*
X239995007Y203031358D01*
X240011891Y203038588D01*
X240104167Y203078103D01*
X240274265Y203193228D01*
X240419502Y203338465D01*
X240534627Y203508563D01*
X240615481Y203697375D01*
X240659141Y203898077D01*
X240661890Y203944222D01*
X240661890Y204968869D01*
X240681575Y205035908D01*
X240734379Y205081663D01*
X240785288Y205092868D01*
X244174330Y205109254D01*
X245236292Y205114388D01*
X245303424Y205095027D01*
G37*
%TD.AperFunction*%
%TA.AperFunction,Conductor*%
G36*
X221930224Y196612791D02*
G01*
X221986157Y196570919D01*
X222010574Y196505455D01*
X222010890Y196496609D01*
X222010890Y196190069D01*
X222010890Y196190067D01*
X222010889Y196190067D01*
X222049337Y195996781D01*
X222049340Y195996771D01*
X222124754Y195814703D01*
X222124761Y195814690D01*
X222234250Y195650829D01*
X222234253Y195650825D01*
X222377927Y195507151D01*
X222377949Y195507131D01*
X223084494Y194800586D01*
X223117979Y194739263D01*
X223112995Y194669571D01*
X223071123Y194613638D01*
X223005659Y194589221D01*
X222980629Y194589966D01*
X222976565Y194590501D01*
X222976561Y194590501D01*
X222818447Y194590501D01*
X222810851Y194590501D01*
X222810835Y194590500D01*
X220104781Y194590500D01*
X220037742Y194610185D01*
X219991987Y194662989D01*
X219982043Y194732147D01*
X220011068Y194795703D01*
X220017100Y194802181D01*
X220865748Y195650829D01*
X221799210Y196584292D01*
X221860532Y196617775D01*
X221930224Y196612791D01*
G37*
%TD.AperFunction*%
%TD*%
M02*
