%TF.GenerationSoftware,KiCad,Pcbnew,10.0.5*%
%TF.CreationDate,2026-08-15T23:16:26-07:00*%
%TF.ProjectId,Vertical,56657274-6963-4616-9c2e-6b696361645f,rev?*%
%TF.SameCoordinates,Original*%
%TF.FileFunction,Legend,Bot*%
%TF.FilePolarity,Positive*%
%FSLAX46Y46*%
G04 Gerber Fmt 4.6, Leading zero omitted, Abs format (unit mm)*
G04 Created by KiCad (PCBNEW 10.0.5) date 2026-08-15 23:16:26*
%MOMM*%
%LPD*%
G01*
G04 APERTURE LIST*
G04 Aperture macros list*
%AMRoundRect*
0 Rectangle with rounded corners*
0 $1 Rounding radius*
0 $2 $3 $4 $5 $6 $7 $8 $9 X,Y pos of 4 corners*
0 Add a 4 corners polygon primitive as box body*
4,1,4,$2,$3,$4,$5,$6,$7,$8,$9,$2,$3,0*
0 Add four circle primitives for the rounded corners*
1,1,$1+$1,$2,$3*
1,1,$1+$1,$4,$5*
1,1,$1+$1,$6,$7*
1,1,$1+$1,$8,$9*
0 Add four rect primitives between the rounded corners*
20,1,$1+$1,$2,$3,$4,$5,0*
20,1,$1+$1,$4,$5,$6,$7,0*
20,1,$1+$1,$6,$7,$8,$9,0*
20,1,$1+$1,$8,$9,$2,$3,0*%
G04 Aperture macros list end*
%ADD10C,0.800000*%
%ADD11C,0.158750*%
%ADD12C,0.150000*%
%ADD13C,0.100000*%
%ADD14C,1.000000*%
%ADD15C,0.120000*%
%ADD16C,0.000000*%
%ADD17RoundRect,0.076200X-0.400000X-0.700000X0.400000X-0.700000X0.400000X0.700000X-0.400000X0.700000X0*%
%ADD18RoundRect,0.101600X0.718420X0.000000X0.000000X0.718420X-0.718420X0.000000X0.000000X-0.718420X0*%
%ADD19C,0.153400*%
%ADD20RoundRect,0.651200X-0.575000X-1.425000X0.575000X-1.425000X0.575000X1.425000X-0.575000X1.425000X0*%
%ADD21RoundRect,0.476200X-0.400000X-1.100000X0.400000X-1.100000X0.400000X1.100000X-0.400000X1.100000X0*%
%ADD22RoundRect,0.596200X-0.280000X-0.980000X0.280000X-0.980000X0.280000X0.980000X-0.280000X0.980000X0*%
%ADD23RoundRect,0.166200X0.660000X0.360000X-0.660000X0.360000X-0.660000X-0.360000X0.660000X-0.360000X0*%
%ADD24RoundRect,0.326200X-0.450000X0.262500X-0.450000X-0.262500X0.450000X-0.262500X0.450000X0.262500X0*%
%ADD25RoundRect,0.216200X-0.021213X0.219203X-0.219203X0.021213X0.021213X-0.219203X0.219203X-0.021213X0*%
%ADD26RoundRect,0.476200X0.400000X1.100000X-0.400000X1.100000X-0.400000X-1.100000X0.400000X-1.100000X0*%
%ADD27RoundRect,0.216200X-0.140000X-0.170000X0.140000X-0.170000X0.140000X0.170000X-0.140000X0.170000X0*%
%ADD28RoundRect,0.326200X0.450000X-0.262500X0.450000X0.262500X-0.450000X0.262500X-0.450000X-0.262500X0*%
%ADD29RoundRect,0.326200X-0.262500X-0.450000X0.262500X-0.450000X0.262500X0.450000X-0.262500X0.450000X0*%
%ADD30RoundRect,0.166200X0.212132X0.721249X-0.721249X-0.212132X-0.212132X-0.721249X0.721249X0.212132X0*%
%ADD31RoundRect,0.076200X0.400000X0.700000X-0.400000X0.700000X-0.400000X-0.700000X0.400000X-0.700000X0*%
%ADD32RoundRect,0.076200X0.450000X0.300000X-0.450000X0.300000X-0.450000X-0.300000X0.450000X-0.300000X0*%
G04 APERTURE END LIST*
D10*
X209300000Y185400000D02*
X213300000Y185400000D01*
X209300000Y181400000D02*
X209300000Y185400000D01*
X209300000Y181400000D02*
X213300000Y181400000D01*
X213300000Y181400000D02*
X213300000Y185400000D01*
D11*
G36*
X222289322Y200558268D02*
G01*
X222284724Y200508207D01*
X222271632Y200465589D01*
X222250477Y200428971D01*
X222220847Y200397358D01*
X222185319Y200372712D01*
X222143120Y200354443D01*
X222092967Y200342831D01*
X222033261Y200338693D01*
X221973826Y200342566D01*
X221923796Y200353431D01*
X221881650Y200370479D01*
X221846140Y200393364D01*
X221821981Y200416656D01*
X221803066Y200443982D01*
X221789141Y200475933D01*
X221780351Y200513371D01*
X221777239Y200557376D01*
X221779055Y200598528D01*
X221784335Y200636513D01*
X221802132Y200709407D01*
X221732805Y200709407D01*
X221721260Y200673328D01*
X221713263Y200636048D01*
X221708713Y200596469D01*
X221707020Y200545822D01*
X221709778Y200497129D01*
X221717635Y200454457D01*
X221730122Y200416989D01*
X221746996Y200384020D01*
X221768998Y200353730D01*
X221795059Y200327564D01*
X221825493Y200305239D01*
X221860796Y200286659D01*
X221910988Y200269145D01*
X221968378Y200258120D01*
X222034153Y200254245D01*
X222097376Y200258377D01*
X222153481Y200270245D01*
X222203516Y200289335D01*
X222238467Y200309162D01*
X222268991Y200332901D01*
X222295491Y200360704D01*
X222318208Y200392899D01*
X222335772Y200427708D01*
X222348675Y200466594D01*
X222356732Y200510171D01*
X222359540Y200559160D01*
X222355114Y200625286D01*
X222342462Y200683253D01*
X222322202Y200734300D01*
X222254619Y200702273D01*
X222267045Y200671944D01*
X222278620Y200636940D01*
X222286560Y200599909D01*
X222289322Y200558268D01*
G37*
G36*
X221547002Y200757874D02*
G01*
X221550104Y200720574D01*
X221558556Y200692114D01*
X221626100Y200692114D01*
X221619896Y200722319D01*
X221617221Y200756091D01*
X221619460Y200777820D01*
X221626139Y200798315D01*
X221638055Y200816120D01*
X221657235Y200830769D01*
X221682058Y200839720D01*
X221719467Y200843215D01*
X222350661Y200843215D01*
X222350661Y200923244D01*
X221725670Y200923244D01*
X221679533Y200919905D01*
X221642776Y200910739D01*
X221613595Y200896629D01*
X221590583Y200877879D01*
X221571909Y200854009D01*
X221558388Y200826547D01*
X221549962Y200794806D01*
X221547002Y200757874D01*
G37*
G36*
X221715900Y201124905D02*
G01*
X222279512Y201385386D01*
X222279512Y201043131D01*
X222350661Y201043131D01*
X222350661Y201468943D01*
X222290175Y201468943D01*
X221715900Y201211137D01*
X221715900Y201124905D01*
G37*
G36*
X232189322Y198958268D02*
G01*
X232184724Y198908207D01*
X232171632Y198865589D01*
X232150477Y198828971D01*
X232120847Y198797358D01*
X232085319Y198772712D01*
X232043120Y198754443D01*
X231992967Y198742831D01*
X231933261Y198738693D01*
X231873826Y198742566D01*
X231823796Y198753431D01*
X231781650Y198770479D01*
X231746140Y198793364D01*
X231721981Y198816656D01*
X231703066Y198843982D01*
X231689141Y198875933D01*
X231680351Y198913371D01*
X231677239Y198957376D01*
X231679055Y198998528D01*
X231684335Y199036513D01*
X231702132Y199109407D01*
X231632805Y199109407D01*
X231621260Y199073328D01*
X231613263Y199036048D01*
X231608713Y198996469D01*
X231607020Y198945822D01*
X231609778Y198897129D01*
X231617635Y198854457D01*
X231630122Y198816989D01*
X231646996Y198784020D01*
X231668998Y198753730D01*
X231695059Y198727564D01*
X231725493Y198705239D01*
X231760796Y198686659D01*
X231810988Y198669145D01*
X231868378Y198658120D01*
X231934153Y198654245D01*
X231997376Y198658377D01*
X232053481Y198670245D01*
X232103516Y198689335D01*
X232138467Y198709162D01*
X232168991Y198732901D01*
X232195491Y198760704D01*
X232218208Y198792899D01*
X232235772Y198827708D01*
X232248675Y198866594D01*
X232256732Y198910171D01*
X232259540Y198959160D01*
X232255114Y199025286D01*
X232242462Y199083253D01*
X232222202Y199134300D01*
X232154619Y199102273D01*
X232167045Y199071944D01*
X232178620Y199036940D01*
X232186560Y198999909D01*
X232189322Y198958268D01*
G37*
G36*
X231447002Y199157874D02*
G01*
X231450104Y199120574D01*
X231458556Y199092114D01*
X231526100Y199092114D01*
X231519896Y199122319D01*
X231517221Y199156091D01*
X231519460Y199177820D01*
X231526139Y199198315D01*
X231538055Y199216120D01*
X231557235Y199230769D01*
X231582058Y199239720D01*
X231619467Y199243215D01*
X232250661Y199243215D01*
X232250661Y199323244D01*
X231625670Y199323244D01*
X231579533Y199319905D01*
X231542776Y199310739D01*
X231513595Y199296629D01*
X231490583Y199277879D01*
X231471909Y199254009D01*
X231458388Y199226547D01*
X231449962Y199194806D01*
X231447002Y199157874D01*
G37*
G36*
X231830162Y199802291D02*
G01*
X232254190Y199802291D01*
X232254190Y199721370D01*
X231826595Y199422659D01*
X231759904Y199422659D01*
X231759904Y199726721D01*
X231830162Y199726721D01*
X231830162Y199499120D01*
X232101306Y199689382D01*
X232134186Y199709816D01*
X232170633Y199727613D01*
X232170633Y199731180D01*
X232108828Y199728505D01*
X232030156Y199726721D01*
X231830162Y199726721D01*
X231759904Y199726721D01*
X231615900Y199726721D01*
X231615900Y199802291D01*
X231759904Y199802291D01*
X231759904Y199894727D01*
X231830162Y199894727D01*
X231830162Y199802291D01*
G37*
G36*
X224189322Y198858268D02*
G01*
X224184724Y198808207D01*
X224171632Y198765589D01*
X224150477Y198728971D01*
X224120847Y198697358D01*
X224085319Y198672712D01*
X224043120Y198654443D01*
X223992967Y198642831D01*
X223933261Y198638693D01*
X223873826Y198642566D01*
X223823796Y198653431D01*
X223781650Y198670479D01*
X223746140Y198693364D01*
X223721981Y198716656D01*
X223703066Y198743982D01*
X223689141Y198775933D01*
X223680351Y198813371D01*
X223677239Y198857376D01*
X223679055Y198898528D01*
X223684335Y198936513D01*
X223702132Y199009407D01*
X223632805Y199009407D01*
X223621260Y198973328D01*
X223613263Y198936048D01*
X223608713Y198896469D01*
X223607020Y198845822D01*
X223609778Y198797129D01*
X223617635Y198754457D01*
X223630122Y198716989D01*
X223646996Y198684020D01*
X223668998Y198653730D01*
X223695059Y198627564D01*
X223725493Y198605239D01*
X223760796Y198586659D01*
X223810988Y198569145D01*
X223868378Y198558120D01*
X223934153Y198554245D01*
X223997376Y198558377D01*
X224053481Y198570245D01*
X224103516Y198589335D01*
X224138467Y198609162D01*
X224168991Y198632901D01*
X224195491Y198660704D01*
X224218208Y198692899D01*
X224235772Y198727708D01*
X224248675Y198766594D01*
X224256732Y198810171D01*
X224259540Y198859160D01*
X224255114Y198925286D01*
X224242462Y198983253D01*
X224222202Y199034300D01*
X224154619Y199002273D01*
X224167045Y198971944D01*
X224178620Y198936940D01*
X224186560Y198899909D01*
X224189322Y198858268D01*
G37*
G36*
X223447002Y199057874D02*
G01*
X223450104Y199020574D01*
X223458556Y198992114D01*
X223526100Y198992114D01*
X223519896Y199022319D01*
X223517221Y199056091D01*
X223519460Y199077820D01*
X223526139Y199098315D01*
X223538055Y199116120D01*
X223557235Y199130769D01*
X223582058Y199139720D01*
X223619467Y199143215D01*
X224250661Y199143215D01*
X224250661Y199223244D01*
X223625670Y199223244D01*
X223579533Y199219905D01*
X223542776Y199210739D01*
X223513595Y199196629D01*
X223490583Y199177879D01*
X223471909Y199154009D01*
X223458388Y199126547D01*
X223449962Y199094806D01*
X223447002Y199057874D01*
G37*
G36*
X223866428Y199767162D02*
G01*
X223904679Y199757179D01*
X223936523Y199741442D01*
X223963039Y199720049D01*
X223984670Y199693260D01*
X224000244Y199662642D01*
X224009905Y199627457D01*
X224013290Y199586707D01*
X224010605Y199549296D01*
X224003141Y199518589D01*
X223991499Y199493379D01*
X223966950Y199460463D01*
X223938612Y199436459D01*
X223938612Y199431147D01*
X223990144Y199435876D01*
X224037290Y199444447D01*
X224081378Y199458582D01*
X224119064Y199478684D01*
X224140908Y199496149D01*
X224159516Y199517480D01*
X224175053Y199543125D01*
X224185982Y199571136D01*
X224193005Y199604845D01*
X224195525Y199645371D01*
X224192850Y199685812D01*
X224184863Y199721833D01*
X224251553Y199721833D01*
X224257757Y199684920D01*
X224259540Y199643588D01*
X224255562Y199584391D01*
X224244553Y199536150D01*
X224227514Y199496907D01*
X224203505Y199461478D01*
X224175024Y199432187D01*
X224141746Y199408465D01*
X224104946Y199389785D01*
X224065055Y199375236D01*
X224021703Y199364883D01*
X223955060Y199355910D01*
X223887043Y199352902D01*
X223824018Y199356499D01*
X223772182Y199366453D01*
X223729700Y199381789D01*
X223690640Y199404051D01*
X223660220Y199429945D01*
X223637225Y199459568D01*
X223620521Y199493253D01*
X223610452Y199529489D01*
X223607098Y199568057D01*
X223672780Y199568057D01*
X223675662Y199538676D01*
X223683876Y199513777D01*
X223697208Y199492448D01*
X223714898Y199474074D01*
X223735522Y199459011D01*
X223759439Y199447122D01*
X223797640Y199435753D01*
X223835474Y199432039D01*
X223863104Y199436252D01*
X223890610Y199449371D01*
X223914643Y199469807D01*
X223934618Y199497799D01*
X223947443Y199530868D01*
X223951950Y199570693D01*
X223947559Y199610019D01*
X223935508Y199639936D01*
X223916395Y199662703D01*
X223891052Y199679207D01*
X223859587Y199689627D01*
X223820352Y199693373D01*
X223782072Y199690792D01*
X223751665Y199683729D01*
X223727639Y199672926D01*
X223708801Y199658709D01*
X223689006Y199633606D01*
X223676991Y199603848D01*
X223672780Y199568057D01*
X223607098Y199568057D01*
X223607020Y199568949D01*
X223610873Y199614506D01*
X223621834Y199653458D01*
X223639453Y199687014D01*
X223663901Y199716055D01*
X223693822Y199739238D01*
X223729118Y199756219D01*
X223770839Y199766927D01*
X223820352Y199770726D01*
X223866428Y199767162D01*
G37*
G36*
X228189322Y198958268D02*
G01*
X228184724Y198908207D01*
X228171632Y198865589D01*
X228150477Y198828971D01*
X228120847Y198797358D01*
X228085319Y198772712D01*
X228043120Y198754443D01*
X227992967Y198742831D01*
X227933261Y198738693D01*
X227873826Y198742566D01*
X227823796Y198753431D01*
X227781650Y198770479D01*
X227746140Y198793364D01*
X227721981Y198816656D01*
X227703066Y198843982D01*
X227689141Y198875933D01*
X227680351Y198913371D01*
X227677239Y198957376D01*
X227679055Y198998528D01*
X227684335Y199036513D01*
X227702132Y199109407D01*
X227632805Y199109407D01*
X227621260Y199073328D01*
X227613263Y199036048D01*
X227608713Y198996469D01*
X227607020Y198945822D01*
X227609778Y198897129D01*
X227617635Y198854457D01*
X227630122Y198816989D01*
X227646996Y198784020D01*
X227668998Y198753730D01*
X227695059Y198727564D01*
X227725493Y198705239D01*
X227760796Y198686659D01*
X227810988Y198669145D01*
X227868378Y198658120D01*
X227934153Y198654245D01*
X227997376Y198658377D01*
X228053481Y198670245D01*
X228103516Y198689335D01*
X228138467Y198709162D01*
X228168991Y198732901D01*
X228195491Y198760704D01*
X228218208Y198792899D01*
X228235772Y198827708D01*
X228248675Y198866594D01*
X228256732Y198910171D01*
X228259540Y198959160D01*
X228255114Y199025286D01*
X228242462Y199083253D01*
X228222202Y199134300D01*
X228154619Y199102273D01*
X228167045Y199071944D01*
X228178620Y199036940D01*
X228186560Y198999909D01*
X228189322Y198958268D01*
G37*
G36*
X227447002Y199157874D02*
G01*
X227450104Y199120574D01*
X227458556Y199092114D01*
X227526100Y199092114D01*
X227519896Y199122319D01*
X227517221Y199156091D01*
X227519460Y199177820D01*
X227526139Y199198315D01*
X227538055Y199216120D01*
X227557235Y199230769D01*
X227582058Y199239720D01*
X227619467Y199243215D01*
X228250661Y199243215D01*
X228250661Y199323244D01*
X227625670Y199323244D01*
X227579533Y199319905D01*
X227542776Y199310739D01*
X227513595Y199296629D01*
X227490583Y199277879D01*
X227471909Y199254009D01*
X227458388Y199226547D01*
X227449962Y199194806D01*
X227447002Y199157874D01*
G37*
G36*
X228005264Y199648476D02*
G01*
X228001847Y199697381D01*
X227992215Y199738830D01*
X227976993Y199774053D01*
X227956370Y199804036D01*
X227929995Y199828906D01*
X227898936Y199846776D01*
X227862257Y199857912D01*
X227818608Y199861847D01*
X227770071Y199857594D01*
X227728895Y199845522D01*
X227693692Y199826122D01*
X227663475Y199799150D01*
X227639768Y199766474D01*
X227622199Y199727371D01*
X227611014Y199680572D01*
X227607020Y199624475D01*
X227609299Y199576424D01*
X227615900Y199532466D01*
X227627226Y199491561D01*
X227641684Y199459998D01*
X227715470Y199459998D01*
X227698482Y199494322D01*
X227684800Y199537778D01*
X227676371Y199583226D01*
X227673672Y199625367D01*
X227677738Y199671101D01*
X227689080Y199708308D01*
X227707017Y199738702D01*
X227725211Y199756964D01*
X227747831Y199770294D01*
X227775833Y199778767D01*
X227810582Y199781818D01*
X227841313Y199779175D01*
X227866876Y199771738D01*
X227888256Y199759904D01*
X227906158Y199743588D01*
X227919620Y199723878D01*
X227930042Y199698172D01*
X227936954Y199665026D01*
X227939504Y199622692D01*
X227935045Y199565772D01*
X227926165Y199514242D01*
X227951058Y199475120D01*
X228250661Y199499120D01*
X228250661Y199817412D01*
X228179512Y199817412D01*
X228179512Y199565811D01*
X227995493Y199550689D01*
X228001696Y199591595D01*
X228005264Y199648476D01*
G37*
G36*
X245283372Y203812268D02*
G01*
X245278774Y203762207D01*
X245265682Y203719589D01*
X245244527Y203682971D01*
X245214897Y203651358D01*
X245179369Y203626712D01*
X245137170Y203608443D01*
X245087017Y203596831D01*
X245027311Y203592693D01*
X244967876Y203596566D01*
X244917846Y203607431D01*
X244875700Y203624479D01*
X244840190Y203647364D01*
X244816031Y203670656D01*
X244797116Y203697982D01*
X244783191Y203729933D01*
X244774401Y203767371D01*
X244771289Y203811376D01*
X244773105Y203852528D01*
X244778385Y203890513D01*
X244796182Y203963407D01*
X244726855Y203963407D01*
X244715310Y203927328D01*
X244707313Y203890048D01*
X244702763Y203850469D01*
X244701070Y203799822D01*
X244703828Y203751129D01*
X244711685Y203708457D01*
X244724172Y203670989D01*
X244741046Y203638020D01*
X244763048Y203607730D01*
X244789109Y203581564D01*
X244819543Y203559239D01*
X244854846Y203540659D01*
X244905038Y203523145D01*
X244962428Y203512120D01*
X245028203Y203508245D01*
X245091426Y203512377D01*
X245147531Y203524245D01*
X245197566Y203543335D01*
X245232517Y203563162D01*
X245263041Y203586901D01*
X245289541Y203614704D01*
X245312258Y203646899D01*
X245329822Y203681708D01*
X245342725Y203720594D01*
X245350782Y203764171D01*
X245353590Y203813160D01*
X245349164Y203879286D01*
X245336512Y203937253D01*
X245316252Y203988300D01*
X245248669Y203956273D01*
X245261095Y203925944D01*
X245272670Y203890940D01*
X245280610Y203853909D01*
X245283372Y203812268D01*
G37*
G36*
X244541052Y204011874D02*
G01*
X244544154Y203974574D01*
X244552606Y203946114D01*
X244620150Y203946114D01*
X244613946Y203976319D01*
X244611271Y204010091D01*
X244613510Y204031820D01*
X244620189Y204052315D01*
X244632105Y204070120D01*
X244651285Y204084769D01*
X244676108Y204093720D01*
X244713517Y204097215D01*
X245344711Y204097215D01*
X245344711Y204177244D01*
X244719720Y204177244D01*
X244673583Y204173905D01*
X244636826Y204164739D01*
X244607645Y204150629D01*
X244584633Y204131879D01*
X244565959Y204108009D01*
X244552438Y204080547D01*
X244544012Y204048806D01*
X244541052Y204011874D01*
G37*
G36*
X244709950Y204573587D02*
G01*
X244709950Y204497164D01*
X245153558Y204497164D01*
X245214897Y204498017D01*
X245262899Y204500693D01*
X245238898Y204474908D01*
X245214006Y204445595D01*
X245158908Y204378013D01*
X245211330Y204337146D01*
X245344711Y204508719D01*
X245344711Y204573587D01*
X244709950Y204573587D01*
G37*
G36*
X244709950Y205081675D02*
G01*
X244709950Y205005253D01*
X245153558Y205005253D01*
X245214897Y205006106D01*
X245262899Y205008781D01*
X245238898Y204982997D01*
X245214006Y204953684D01*
X245158908Y204886102D01*
X245211330Y204845234D01*
X245344711Y205016807D01*
X245344711Y205081675D01*
X244709950Y205081675D01*
G37*
G36*
X214389322Y200358268D02*
G01*
X214384724Y200308207D01*
X214371632Y200265589D01*
X214350477Y200228971D01*
X214320847Y200197358D01*
X214285319Y200172712D01*
X214243120Y200154443D01*
X214192967Y200142831D01*
X214133261Y200138693D01*
X214073826Y200142566D01*
X214023796Y200153431D01*
X213981650Y200170479D01*
X213946140Y200193364D01*
X213921981Y200216656D01*
X213903066Y200243982D01*
X213889141Y200275933D01*
X213880351Y200313371D01*
X213877239Y200357376D01*
X213879055Y200398528D01*
X213884335Y200436513D01*
X213902132Y200509407D01*
X213832805Y200509407D01*
X213821260Y200473328D01*
X213813263Y200436048D01*
X213808713Y200396469D01*
X213807020Y200345822D01*
X213809778Y200297129D01*
X213817635Y200254457D01*
X213830122Y200216989D01*
X213846996Y200184020D01*
X213868998Y200153730D01*
X213895059Y200127564D01*
X213925493Y200105239D01*
X213960796Y200086659D01*
X214010988Y200069145D01*
X214068378Y200058120D01*
X214134153Y200054245D01*
X214197376Y200058377D01*
X214253481Y200070245D01*
X214303516Y200089335D01*
X214338467Y200109162D01*
X214368991Y200132901D01*
X214395491Y200160704D01*
X214418208Y200192899D01*
X214435772Y200227708D01*
X214448675Y200266594D01*
X214456732Y200310171D01*
X214459540Y200359160D01*
X214455114Y200425286D01*
X214442462Y200483253D01*
X214422202Y200534300D01*
X214354619Y200502273D01*
X214367045Y200471944D01*
X214378620Y200436940D01*
X214386560Y200399909D01*
X214389322Y200358268D01*
G37*
G36*
X213647002Y200557874D02*
G01*
X213650104Y200520574D01*
X213658556Y200492114D01*
X213726100Y200492114D01*
X213719896Y200522319D01*
X213717221Y200556091D01*
X213719460Y200577820D01*
X213726139Y200598315D01*
X213738055Y200616120D01*
X213757235Y200630769D01*
X213782058Y200639720D01*
X213819467Y200643215D01*
X214450661Y200643215D01*
X214450661Y200723244D01*
X213825670Y200723244D01*
X213779533Y200719905D01*
X213742776Y200710739D01*
X213713595Y200696629D01*
X213690583Y200677879D01*
X213671909Y200654009D01*
X213658388Y200626547D01*
X213649962Y200594806D01*
X213647002Y200557874D01*
G37*
G36*
X214008872Y201265787D02*
G01*
X214033529Y201259326D01*
X214055016Y201248935D01*
X214083968Y201226886D01*
X214109687Y201197832D01*
X214131811Y201164444D01*
X214151950Y201126721D01*
X214170165Y201158457D01*
X214190607Y201187169D01*
X214214263Y201212137D01*
X214240819Y201231177D01*
X214271092Y201243350D01*
X214307509Y201247617D01*
X214343401Y201244039D01*
X214373452Y201233886D01*
X214398870Y201217456D01*
X214420418Y201194265D01*
X214436967Y201166882D01*
X214449164Y201135430D01*
X214456838Y201099204D01*
X214459540Y201057355D01*
X214457451Y201021564D01*
X214451433Y200989428D01*
X214441743Y200960460D01*
X214427867Y200933512D01*
X214410862Y200911184D01*
X214390640Y200892917D01*
X214367282Y200879348D01*
X214340172Y200870964D01*
X214308401Y200868024D01*
X214270489Y200871869D01*
X214238764Y200882783D01*
X214211933Y200900477D01*
X214177211Y200936041D01*
X214147491Y200979149D01*
X214129696Y200945578D01*
X214108368Y200914242D01*
X214082926Y200886932D01*
X214053232Y200865775D01*
X214031232Y200855859D01*
X214006253Y200849702D01*
X213977702Y200847552D01*
X213938127Y200851265D01*
X213904712Y200861812D01*
X213876237Y200878832D01*
X213851881Y200902688D01*
X213833333Y200931088D01*
X213819330Y200965868D01*
X213810283Y201008324D01*
X213807133Y201058247D01*
X213869252Y201058247D01*
X213873224Y201013589D01*
X213883834Y200980756D01*
X213899922Y200956893D01*
X213922133Y200938604D01*
X213947423Y200927748D01*
X213976810Y200924013D01*
X214008181Y200927564D01*
X214034951Y200937783D01*
X214058157Y200954683D01*
X214077742Y200976642D01*
X214096895Y201005943D01*
X214115503Y201044056D01*
X214110152Y201058247D01*
X214108990Y201060922D01*
X214182154Y201060922D01*
X214211933Y201002258D01*
X214229483Y200978024D01*
X214249737Y200960034D01*
X214273947Y200948565D01*
X214304834Y200944485D01*
X214332902Y200948205D01*
X214355097Y200958701D01*
X214372843Y200976047D01*
X214385592Y200998198D01*
X214393581Y201024667D01*
X214396417Y201056502D01*
X214393519Y201090124D01*
X214385476Y201117229D01*
X214372843Y201139129D01*
X214355130Y201156218D01*
X214332937Y201166584D01*
X214304834Y201170264D01*
X214274265Y201166539D01*
X214249528Y201155999D01*
X214229264Y201138702D01*
X214204263Y201104365D01*
X214182154Y201060922D01*
X214108990Y201060922D01*
X214092968Y201097807D01*
X214074993Y201129758D01*
X214056373Y201155181D01*
X214033901Y201175630D01*
X214008621Y201187563D01*
X213979485Y201191628D01*
X213948419Y201187691D01*
X213922293Y201176349D01*
X213899922Y201157391D01*
X213883645Y201132783D01*
X213873121Y201100485D01*
X213869252Y201058247D01*
X213807133Y201058247D01*
X213807020Y201060031D01*
X213810286Y201107669D01*
X213819487Y201148059D01*
X213834015Y201182383D01*
X213853665Y201211596D01*
X213878953Y201236189D01*
X213907946Y201253606D01*
X213941384Y201264310D01*
X213980377Y201268051D01*
X214008872Y201265787D01*
G37*
G36*
X243149772Y200103868D02*
G01*
X243145174Y200053807D01*
X243132082Y200011189D01*
X243110927Y199974571D01*
X243081297Y199942958D01*
X243045769Y199918312D01*
X243003570Y199900043D01*
X242953417Y199888431D01*
X242893711Y199884293D01*
X242834276Y199888166D01*
X242784246Y199899031D01*
X242742100Y199916079D01*
X242706590Y199938964D01*
X242682431Y199962256D01*
X242663516Y199989582D01*
X242649591Y200021533D01*
X242640801Y200058971D01*
X242637689Y200102976D01*
X242639505Y200144128D01*
X242644785Y200182113D01*
X242662582Y200255007D01*
X242593255Y200255007D01*
X242581710Y200218928D01*
X242573713Y200181648D01*
X242569163Y200142069D01*
X242567470Y200091422D01*
X242570228Y200042729D01*
X242578085Y200000057D01*
X242590572Y199962589D01*
X242607446Y199929620D01*
X242629448Y199899330D01*
X242655509Y199873164D01*
X242685943Y199850839D01*
X242721246Y199832259D01*
X242771438Y199814745D01*
X242828828Y199803720D01*
X242894603Y199799845D01*
X242957826Y199803977D01*
X243013931Y199815845D01*
X243063966Y199834935D01*
X243098917Y199854762D01*
X243129441Y199878501D01*
X243155941Y199906304D01*
X243178658Y199938499D01*
X243196222Y199973308D01*
X243209125Y200012194D01*
X243217182Y200055771D01*
X243219990Y200104760D01*
X243215564Y200170886D01*
X243202912Y200228853D01*
X243182652Y200279900D01*
X243115069Y200247873D01*
X243127495Y200217544D01*
X243139070Y200182540D01*
X243147010Y200145509D01*
X243149772Y200103868D01*
G37*
G36*
X242407452Y200303474D02*
G01*
X242410554Y200266174D01*
X242419006Y200237714D01*
X242486550Y200237714D01*
X242480346Y200267919D01*
X242477671Y200301691D01*
X242479910Y200323420D01*
X242486589Y200343915D01*
X242498505Y200361720D01*
X242517685Y200376369D01*
X242542508Y200385320D01*
X242579917Y200388815D01*
X243211111Y200388815D01*
X243211111Y200468844D01*
X242586120Y200468844D01*
X242539983Y200465505D01*
X242503226Y200456339D01*
X242474045Y200442229D01*
X242451033Y200423479D01*
X242432359Y200399609D01*
X242418838Y200372147D01*
X242410412Y200340406D01*
X242407452Y200303474D01*
G37*
G36*
X242576350Y200865187D02*
G01*
X242576350Y200788764D01*
X243019958Y200788764D01*
X243081297Y200789617D01*
X243129299Y200792293D01*
X243105298Y200766508D01*
X243080406Y200737195D01*
X243025308Y200669613D01*
X243077730Y200628746D01*
X243211111Y200800319D01*
X243211111Y200865187D01*
X242576350Y200865187D01*
G37*
G36*
X210289322Y200358268D02*
G01*
X210284724Y200308207D01*
X210271632Y200265589D01*
X210250477Y200228971D01*
X210220847Y200197358D01*
X210185319Y200172712D01*
X210143120Y200154443D01*
X210092967Y200142831D01*
X210033261Y200138693D01*
X209973826Y200142566D01*
X209923796Y200153431D01*
X209881650Y200170479D01*
X209846140Y200193364D01*
X209821981Y200216656D01*
X209803066Y200243982D01*
X209789141Y200275933D01*
X209780351Y200313371D01*
X209777239Y200357376D01*
X209779055Y200398528D01*
X209784335Y200436513D01*
X209802132Y200509407D01*
X209732805Y200509407D01*
X209721260Y200473328D01*
X209713263Y200436048D01*
X209708713Y200396469D01*
X209707020Y200345822D01*
X209709778Y200297129D01*
X209717635Y200254457D01*
X209730122Y200216989D01*
X209746996Y200184020D01*
X209768998Y200153730D01*
X209795059Y200127564D01*
X209825493Y200105239D01*
X209860796Y200086659D01*
X209910988Y200069145D01*
X209968378Y200058120D01*
X210034153Y200054245D01*
X210097376Y200058377D01*
X210153481Y200070245D01*
X210203516Y200089335D01*
X210238467Y200109162D01*
X210268991Y200132901D01*
X210295491Y200160704D01*
X210318208Y200192899D01*
X210335772Y200227708D01*
X210348675Y200266594D01*
X210356732Y200310171D01*
X210359540Y200359160D01*
X210355114Y200425286D01*
X210342462Y200483253D01*
X210322202Y200534300D01*
X210254619Y200502273D01*
X210267045Y200471944D01*
X210278620Y200436940D01*
X210286560Y200399909D01*
X210289322Y200358268D01*
G37*
G36*
X209547002Y200557874D02*
G01*
X209550104Y200520574D01*
X209558556Y200492114D01*
X209626100Y200492114D01*
X209619896Y200522319D01*
X209617221Y200556091D01*
X209619460Y200577820D01*
X209626139Y200598315D01*
X209638055Y200616120D01*
X209657235Y200630769D01*
X209682058Y200639720D01*
X209719467Y200643215D01*
X210350661Y200643215D01*
X210350661Y200723244D01*
X209725670Y200723244D01*
X209679533Y200719905D01*
X209642776Y200710739D01*
X209613595Y200696629D01*
X209590583Y200677879D01*
X209571909Y200654009D01*
X209558388Y200626547D01*
X209549962Y200594806D01*
X209547002Y200557874D01*
G37*
G36*
X210142576Y201262752D02*
G01*
X210194241Y201252934D01*
X210236396Y201237846D01*
X210275190Y201215878D01*
X210305632Y201190130D01*
X210328871Y201160493D01*
X210345844Y201126782D01*
X210356061Y201090561D01*
X210359540Y201051151D01*
X210356504Y201010935D01*
X210347799Y200975639D01*
X210333756Y200944447D01*
X210314180Y200916544D01*
X210289761Y200893091D01*
X210259970Y200873762D01*
X210227062Y200860064D01*
X210189146Y200851468D01*
X210145278Y200848443D01*
X210099682Y200851966D01*
X210061712Y200861845D01*
X210029994Y200877438D01*
X210003483Y200898655D01*
X209981846Y200925244D01*
X209966288Y200955590D01*
X209956646Y200990418D01*
X209953271Y201030718D01*
X209954462Y201047584D01*
X210014611Y201047584D01*
X210018998Y201007632D01*
X210030936Y200977789D01*
X210049701Y200955575D01*
X210074727Y200939632D01*
X210106292Y200929475D01*
X210146170Y200925797D01*
X210183923Y200928386D01*
X210214137Y200935500D01*
X210238219Y200946430D01*
X210257295Y200960887D01*
X210277402Y200986287D01*
X210289522Y201015947D01*
X210293742Y201051151D01*
X210290811Y201080475D01*
X210282451Y201105346D01*
X210268849Y201126682D01*
X210240952Y201153067D01*
X210206618Y201172047D01*
X210168815Y201183437D01*
X210131048Y201187169D01*
X210103451Y201182957D01*
X210075951Y201169837D01*
X210051920Y201149394D01*
X210031943Y201121370D01*
X210022531Y201100002D01*
X210016665Y201075604D01*
X210014611Y201047584D01*
X209954462Y201047584D01*
X209955957Y201068741D01*
X209963415Y201099877D01*
X209975023Y201125364D01*
X209999496Y201158548D01*
X210027057Y201181818D01*
X210027057Y201187169D01*
X209976260Y201183109D01*
X209928805Y201174723D01*
X209884448Y201160474D01*
X209847032Y201140059D01*
X209825410Y201122388D01*
X209806940Y201101031D01*
X209791469Y201075579D01*
X209780601Y201047864D01*
X209773572Y201014053D01*
X209771035Y200972906D01*
X209774053Y200930720D01*
X209782590Y200894700D01*
X209715900Y200894700D01*
X209709230Y200933357D01*
X209707020Y200974690D01*
X209710987Y201033912D01*
X209721977Y201082324D01*
X209739009Y201121836D01*
X209763068Y201157562D01*
X209791565Y201186998D01*
X209824814Y201210743D01*
X209861615Y201229421D01*
X209901493Y201243956D01*
X209944819Y201254286D01*
X210011468Y201263289D01*
X210079518Y201266306D01*
X210142576Y201262752D01*
G37*
G36*
X207437372Y201018268D02*
G01*
X207432774Y200968207D01*
X207419682Y200925589D01*
X207398527Y200888971D01*
X207368897Y200857358D01*
X207333369Y200832712D01*
X207291170Y200814443D01*
X207241017Y200802831D01*
X207181311Y200798693D01*
X207121876Y200802566D01*
X207071846Y200813431D01*
X207029700Y200830479D01*
X206994190Y200853364D01*
X206970031Y200876656D01*
X206951116Y200903982D01*
X206937191Y200935933D01*
X206928401Y200973371D01*
X206925289Y201017376D01*
X206927105Y201058528D01*
X206932385Y201096513D01*
X206950182Y201169407D01*
X206880855Y201169407D01*
X206869310Y201133328D01*
X206861313Y201096048D01*
X206856763Y201056469D01*
X206855070Y201005822D01*
X206857828Y200957129D01*
X206865685Y200914457D01*
X206878172Y200876989D01*
X206895046Y200844020D01*
X206917048Y200813730D01*
X206943109Y200787564D01*
X206973543Y200765239D01*
X207008846Y200746659D01*
X207059038Y200729145D01*
X207116428Y200718120D01*
X207182203Y200714245D01*
X207245426Y200718377D01*
X207301531Y200730245D01*
X207351566Y200749335D01*
X207386517Y200769162D01*
X207417041Y200792901D01*
X207443541Y200820704D01*
X207466258Y200852899D01*
X207483822Y200887708D01*
X207496725Y200926594D01*
X207504782Y200970171D01*
X207507590Y201019160D01*
X207503164Y201085286D01*
X207490512Y201143253D01*
X207470252Y201194300D01*
X207402669Y201162273D01*
X207415095Y201131944D01*
X207426670Y201096940D01*
X207434610Y201059909D01*
X207437372Y201018268D01*
G37*
G36*
X206695052Y201217874D02*
G01*
X206698154Y201180574D01*
X206706606Y201152114D01*
X206774150Y201152114D01*
X206767946Y201182319D01*
X206765271Y201216091D01*
X206767510Y201237820D01*
X206774189Y201258315D01*
X206786105Y201276120D01*
X206805285Y201290769D01*
X206830108Y201299720D01*
X206867517Y201303215D01*
X207498711Y201303215D01*
X207498711Y201383244D01*
X206873720Y201383244D01*
X206827583Y201379905D01*
X206790826Y201370739D01*
X206761645Y201356629D01*
X206738633Y201337879D01*
X206719959Y201314009D01*
X206706438Y201286547D01*
X206698012Y201254806D01*
X206695052Y201217874D01*
G37*
G36*
X206863950Y201779587D02*
G01*
X206863950Y201703164D01*
X207307558Y201703164D01*
X207368897Y201704017D01*
X207416899Y201706693D01*
X207392898Y201680908D01*
X207368006Y201651595D01*
X207312908Y201584013D01*
X207365330Y201543146D01*
X207498711Y201714719D01*
X207498711Y201779587D01*
X206863950Y201779587D01*
G37*
G36*
X207261402Y202433135D02*
G01*
X207326454Y202422383D01*
X207379567Y202405931D01*
X207422676Y202384571D01*
X207453813Y202361203D01*
X207477418Y202334199D01*
X207494332Y202303155D01*
X207504809Y202267275D01*
X207508482Y202225444D01*
X207505811Y202187773D01*
X207498239Y202155471D01*
X207486197Y202127665D01*
X207469786Y202103656D01*
X207441397Y202076560D01*
X207404758Y202054120D01*
X207358235Y202036539D01*
X207309215Y202025430D01*
X207250996Y202018224D01*
X207182203Y202015640D01*
X207103489Y202019423D01*
X207038531Y202029884D01*
X206985226Y202045913D01*
X206941729Y202066744D01*
X206910308Y202089660D01*
X206886488Y202116373D01*
X206869401Y202147296D01*
X206858797Y202183261D01*
X206855070Y202225444D01*
X206921722Y202225444D01*
X206925971Y202191363D01*
X206937987Y202163938D01*
X206957747Y202141596D01*
X206986629Y202123663D01*
X207031205Y202108547D01*
X207094601Y202097953D01*
X207182203Y202093885D01*
X207269212Y202097945D01*
X207332345Y202108533D01*
X207376885Y202123663D01*
X207405767Y202141596D01*
X207425527Y202163938D01*
X207437543Y202191363D01*
X207441792Y202225444D01*
X207437576Y202259079D01*
X207425606Y202286409D01*
X207405842Y202308926D01*
X207376885Y202327263D01*
X207344988Y202339337D01*
X207303355Y202349009D01*
X207249877Y202355523D01*
X207182203Y202357933D01*
X207113515Y202355508D01*
X207059560Y202348969D01*
X207017851Y202339295D01*
X206986164Y202327263D01*
X206957447Y202308953D01*
X206937819Y202286452D01*
X206925916Y202259113D01*
X206921722Y202225444D01*
X206855070Y202225444D01*
X206857778Y202263601D01*
X206865440Y202296189D01*
X206877602Y202324120D01*
X206894154Y202348123D01*
X206922828Y202375274D01*
X206959780Y202397871D01*
X207006636Y202415706D01*
X207055980Y202427072D01*
X207114078Y202434410D01*
X207182203Y202437031D01*
X207261402Y202433135D01*
G37*
G36*
X235301172Y199672068D02*
G01*
X235296574Y199622007D01*
X235283482Y199579389D01*
X235262327Y199542771D01*
X235232697Y199511158D01*
X235197169Y199486512D01*
X235154970Y199468243D01*
X235104817Y199456631D01*
X235045111Y199452493D01*
X234985676Y199456366D01*
X234935646Y199467231D01*
X234893500Y199484279D01*
X234857990Y199507164D01*
X234833831Y199530456D01*
X234814916Y199557782D01*
X234800991Y199589733D01*
X234792201Y199627171D01*
X234789089Y199671176D01*
X234790905Y199712328D01*
X234796185Y199750313D01*
X234813982Y199823207D01*
X234744655Y199823207D01*
X234733110Y199787128D01*
X234725113Y199749848D01*
X234720563Y199710269D01*
X234718870Y199659622D01*
X234721628Y199610929D01*
X234729485Y199568257D01*
X234741972Y199530789D01*
X234758846Y199497820D01*
X234780848Y199467530D01*
X234806909Y199441364D01*
X234837343Y199419039D01*
X234872646Y199400459D01*
X234922838Y199382945D01*
X234980228Y199371920D01*
X235046003Y199368045D01*
X235109226Y199372177D01*
X235165331Y199384045D01*
X235215366Y199403135D01*
X235250317Y199422962D01*
X235280841Y199446701D01*
X235307341Y199474504D01*
X235330058Y199506699D01*
X235347622Y199541508D01*
X235360525Y199580394D01*
X235368582Y199623971D01*
X235371390Y199672960D01*
X235366964Y199739086D01*
X235354312Y199797053D01*
X235334052Y199848100D01*
X235266469Y199816073D01*
X235278895Y199785744D01*
X235290470Y199750740D01*
X235298410Y199713709D01*
X235301172Y199672068D01*
G37*
G36*
X234558852Y199871674D02*
G01*
X234561954Y199834374D01*
X234570406Y199805914D01*
X234637950Y199805914D01*
X234631746Y199836119D01*
X234629071Y199869891D01*
X234631310Y199891620D01*
X234637989Y199912115D01*
X234649905Y199929920D01*
X234669085Y199944569D01*
X234693908Y199953520D01*
X234731317Y199957015D01*
X235362511Y199957015D01*
X235362511Y200037044D01*
X234737520Y200037044D01*
X234691383Y200033705D01*
X234654626Y200024539D01*
X234625445Y200010429D01*
X234602433Y199991679D01*
X234583759Y199967809D01*
X234570238Y199940347D01*
X234561812Y199908606D01*
X234558852Y199871674D01*
G37*
G36*
X235214047Y200556105D02*
G01*
X235172758Y200551815D01*
X235139393Y200539796D01*
X235112228Y200520511D01*
X235090370Y200494794D01*
X235073587Y200463178D01*
X235062016Y200424508D01*
X235058449Y200424508D01*
X235048317Y200473918D01*
X235032056Y200510966D01*
X235010447Y200538308D01*
X234982361Y200558700D01*
X234948791Y200571228D01*
X234908202Y200575647D01*
X234872192Y200572679D01*
X234839668Y200564042D01*
X234809988Y200549863D01*
X234783938Y200530105D01*
X234761609Y200503934D01*
X234742871Y200470299D01*
X234730200Y200433636D01*
X234721894Y200388153D01*
X234718870Y200332072D01*
X234720828Y200283238D01*
X234726431Y200239597D01*
X234736951Y200197877D01*
X234753534Y200157823D01*
X234826428Y200157823D01*
X234809112Y200199046D01*
X234795758Y200244056D01*
X234787339Y200289984D01*
X234784630Y200332963D01*
X234787217Y200376811D01*
X234794187Y200410701D01*
X234804614Y200436582D01*
X234817976Y200456069D01*
X234842472Y200476740D01*
X234872577Y200489389D01*
X234909985Y200493874D01*
X234938706Y200490716D01*
X234961834Y200481857D01*
X234980620Y200467556D01*
X234995752Y200447190D01*
X235009413Y200414912D01*
X235018582Y200372103D01*
X235022002Y200316058D01*
X235022002Y200254718D01*
X235088692Y200254718D01*
X235088692Y200316950D01*
X235092922Y200368211D01*
X235104297Y200406816D01*
X235121572Y200435636D01*
X235139438Y200453400D01*
X235159564Y200465859D01*
X235182411Y200473445D01*
X235208697Y200476076D01*
X235238031Y200472389D01*
X235261405Y200461998D01*
X235280234Y200444941D01*
X235293812Y200422880D01*
X235302464Y200395225D01*
X235305592Y200360493D01*
X235301548Y200311221D01*
X235290470Y200272477D01*
X235273550Y200236572D01*
X235252278Y200200474D01*
X235305592Y200161352D01*
X235329815Y200198052D01*
X235351810Y200245374D01*
X235362450Y200279406D01*
X235369083Y200317295D01*
X235371390Y200359601D01*
X235368081Y200410122D01*
X235359014Y200450432D01*
X235345144Y200482426D01*
X235326917Y200507638D01*
X235303122Y200528899D01*
X235276776Y200543862D01*
X235247345Y200552962D01*
X235214047Y200556105D01*
G37*
G36*
X235003716Y163569790D02*
G01*
X235007790Y163528744D01*
X235019412Y163493908D01*
X235038310Y163464009D01*
X235065056Y163438231D01*
X235096586Y163418518D01*
X235133906Y163403822D01*
X235178086Y163394457D01*
X235230425Y163391121D01*
X235282683Y163393194D01*
X235329104Y163399109D01*
X235372251Y163409130D01*
X235404673Y163421326D01*
X235404673Y163497787D01*
X235370506Y163484793D01*
X235325110Y163472003D01*
X235276963Y163463361D01*
X235226858Y163460448D01*
X235180070Y163464045D01*
X235145290Y163473639D01*
X235119765Y163488016D01*
X235099732Y163508597D01*
X235087865Y163533062D01*
X235083745Y163562694D01*
X235087261Y163592051D01*
X235097083Y163615116D01*
X235114039Y163634679D01*
X235142874Y163654704D01*
X235178792Y163672252D01*
X235233100Y163693361D01*
X235285622Y163715917D01*
X235325624Y163740009D01*
X235355314Y163765364D01*
X235372890Y163787833D01*
X235385723Y163814192D01*
X235393791Y163845197D01*
X235396647Y163881839D01*
X235393630Y163914792D01*
X235384967Y163943398D01*
X235370863Y163968498D01*
X235351811Y163990344D01*
X235328181Y164008834D01*
X235299325Y164024061D01*
X235268219Y164034691D01*
X235233303Y164041327D01*
X235193978Y164043641D01*
X235142754Y164041086D01*
X235097974Y164033832D01*
X235055715Y164022286D01*
X235018838Y164008086D01*
X235043730Y163939612D01*
X235077574Y163952563D01*
X235115306Y163963613D01*
X235154521Y163970942D01*
X235195761Y163973423D01*
X235234750Y163970153D01*
X235263929Y163961378D01*
X235285561Y163948065D01*
X235302300Y163929417D01*
X235312291Y163907404D01*
X235315765Y163880948D01*
X235312225Y163850805D01*
X235302427Y163827595D01*
X235285766Y163808167D01*
X235258885Y163789365D01*
X235225699Y163772890D01*
X235177072Y163752917D01*
X235123700Y163730897D01*
X235082426Y163708909D01*
X235058078Y163691659D01*
X235038705Y163672865D01*
X235023723Y163652455D01*
X235012976Y163629705D01*
X235006151Y163602472D01*
X235003716Y163569790D01*
G37*
G36*
X234147169Y164034762D02*
G01*
X234316067Y163400000D01*
X234396987Y163400000D01*
X234520559Y163816041D01*
X234534789Y163867610D01*
X234546343Y163913401D01*
X234552547Y163941396D01*
X234561891Y163892037D01*
X234582790Y163813404D01*
X234702794Y163400000D01*
X234783676Y163400000D01*
X234951721Y164034762D01*
X234868164Y164034762D01*
X234769485Y163647143D01*
X234751261Y163568006D01*
X234739242Y163496004D01*
X234725903Y163571573D01*
X234705470Y163651602D01*
X234593453Y164034762D01*
X234510788Y164034762D01*
X234394312Y163648927D01*
X234372987Y163567580D01*
X234359648Y163496004D01*
X234347202Y163567580D01*
X234328513Y163648035D01*
X234230726Y164034762D01*
X234147169Y164034762D01*
G37*
G36*
X233673744Y163400000D02*
G01*
X234093352Y163400000D01*
X234093352Y163464907D01*
X233927129Y163632913D01*
X233846248Y163718254D01*
X233816620Y163756321D01*
X233796463Y163791575D01*
X233783857Y163828924D01*
X233779557Y163870285D01*
X233783366Y163903878D01*
X233793886Y163929793D01*
X233810692Y163949848D01*
X233832821Y163964574D01*
X233859388Y163973712D01*
X233891574Y163976951D01*
X233935936Y163972765D01*
X233972921Y163960937D01*
X234007513Y163942360D01*
X234044458Y163916503D01*
X234086256Y163968964D01*
X234046610Y163997446D01*
X234000489Y164021851D01*
X233967531Y164033766D01*
X233931402Y164041108D01*
X233891574Y164043641D01*
X233847110Y164040494D01*
X233809617Y164031638D01*
X233777923Y164017663D01*
X233751098Y163998742D01*
X233728863Y163974604D01*
X233712920Y163946477D01*
X233703016Y163913569D01*
X233699529Y163874744D01*
X233701836Y163842016D01*
X233708661Y163811008D01*
X233720001Y163781377D01*
X233743908Y163738956D01*
X233776882Y163695571D01*
X233815309Y163653100D01*
X233862223Y163605345D01*
X233994673Y163474678D01*
X233994673Y163471111D01*
X233673744Y163471111D01*
X233673744Y163400000D01*
G37*
D12*
X209511428Y198087705D02*
X209968571Y198087705D01*
X209739999Y198087705D02*
X209739999Y198887705D01*
X209739999Y198887705D02*
X209816190Y198773420D01*
X209816190Y198773420D02*
X209892380Y198697229D01*
X209892380Y198697229D02*
X209968571Y198659134D01*
X234654819Y195866667D02*
X234178628Y196200000D01*
X234654819Y196438095D02*
X233654819Y196438095D01*
X233654819Y196438095D02*
X233654819Y196057143D01*
X233654819Y196057143D02*
X233702438Y195961905D01*
X233702438Y195961905D02*
X233750057Y195914286D01*
X233750057Y195914286D02*
X233845295Y195866667D01*
X233845295Y195866667D02*
X233988152Y195866667D01*
X233988152Y195866667D02*
X234083390Y195914286D01*
X234083390Y195914286D02*
X234131009Y195961905D01*
X234131009Y195961905D02*
X234178628Y196057143D01*
X234178628Y196057143D02*
X234178628Y196438095D01*
X233750057Y195485714D02*
X233702438Y195438095D01*
X233702438Y195438095D02*
X233654819Y195342857D01*
X233654819Y195342857D02*
X233654819Y195104762D01*
X233654819Y195104762D02*
X233702438Y195009524D01*
X233702438Y195009524D02*
X233750057Y194961905D01*
X233750057Y194961905D02*
X233845295Y194914286D01*
X233845295Y194914286D02*
X233940533Y194914286D01*
X233940533Y194914286D02*
X234083390Y194961905D01*
X234083390Y194961905D02*
X234654819Y195533333D01*
X234654819Y195533333D02*
X234654819Y194914286D01*
D11*
G36*
X246353716Y192369790D02*
G01*
X246357790Y192328744D01*
X246369412Y192293908D01*
X246388310Y192264009D01*
X246415056Y192238231D01*
X246446586Y192218518D01*
X246483906Y192203822D01*
X246528086Y192194457D01*
X246580425Y192191121D01*
X246632683Y192193194D01*
X246679104Y192199109D01*
X246722251Y192209130D01*
X246754673Y192221326D01*
X246754673Y192297787D01*
X246720506Y192284793D01*
X246675110Y192272003D01*
X246626963Y192263361D01*
X246576858Y192260448D01*
X246530070Y192264045D01*
X246495290Y192273639D01*
X246469765Y192288016D01*
X246449732Y192308597D01*
X246437865Y192333062D01*
X246433745Y192362694D01*
X246437261Y192392051D01*
X246447083Y192415116D01*
X246464039Y192434679D01*
X246492874Y192454704D01*
X246528792Y192472252D01*
X246583100Y192493361D01*
X246635622Y192515917D01*
X246675624Y192540009D01*
X246705314Y192565364D01*
X246722890Y192587833D01*
X246735723Y192614192D01*
X246743791Y192645197D01*
X246746647Y192681839D01*
X246743630Y192714792D01*
X246734967Y192743398D01*
X246720863Y192768498D01*
X246701811Y192790344D01*
X246678181Y192808834D01*
X246649325Y192824061D01*
X246618219Y192834691D01*
X246583303Y192841327D01*
X246543978Y192843641D01*
X246492754Y192841086D01*
X246447974Y192833832D01*
X246405715Y192822286D01*
X246368838Y192808086D01*
X246393730Y192739612D01*
X246427574Y192752563D01*
X246465306Y192763613D01*
X246504521Y192770942D01*
X246545761Y192773423D01*
X246584750Y192770153D01*
X246613929Y192761378D01*
X246635561Y192748065D01*
X246652300Y192729417D01*
X246662291Y192707404D01*
X246665765Y192680948D01*
X246662225Y192650805D01*
X246652427Y192627595D01*
X246635766Y192608167D01*
X246608885Y192589365D01*
X246575699Y192572890D01*
X246527072Y192552917D01*
X246473700Y192530897D01*
X246432426Y192508909D01*
X246408078Y192491659D01*
X246388705Y192472865D01*
X246373723Y192452455D01*
X246362976Y192429705D01*
X246356151Y192402472D01*
X246353716Y192369790D01*
G37*
G36*
X245497169Y192834762D02*
G01*
X245666067Y192200000D01*
X245746987Y192200000D01*
X245870559Y192616041D01*
X245884789Y192667610D01*
X245896343Y192713401D01*
X245902547Y192741396D01*
X245911891Y192692037D01*
X245932790Y192613404D01*
X246052794Y192200000D01*
X246133676Y192200000D01*
X246301721Y192834762D01*
X246218164Y192834762D01*
X246119485Y192447143D01*
X246101261Y192368006D01*
X246089242Y192296004D01*
X246075903Y192371573D01*
X246055470Y192451602D01*
X245943453Y192834762D01*
X245860788Y192834762D01*
X245744312Y192448927D01*
X245722987Y192367580D01*
X245709648Y192296004D01*
X245697202Y192367580D01*
X245678513Y192448035D01*
X245580726Y192834762D01*
X245497169Y192834762D01*
G37*
G36*
X245170463Y192200000D02*
G01*
X245246886Y192200000D01*
X245246886Y192643609D01*
X245246033Y192704948D01*
X245243358Y192752950D01*
X245269142Y192728949D01*
X245298455Y192704057D01*
X245366037Y192648959D01*
X245406905Y192701381D01*
X245235332Y192834762D01*
X245170463Y192834762D01*
X245170463Y192200000D01*
G37*
G36*
X215706283Y185130211D02*
G01*
X215702209Y185171257D01*
X215690587Y185206093D01*
X215671689Y185235992D01*
X215644943Y185261770D01*
X215613413Y185281483D01*
X215576093Y185296179D01*
X215531913Y185305544D01*
X215479574Y185308880D01*
X215427316Y185306807D01*
X215380895Y185300892D01*
X215337748Y185290871D01*
X215305326Y185278675D01*
X215305326Y185202214D01*
X215339493Y185215208D01*
X215384889Y185227998D01*
X215433036Y185236640D01*
X215483141Y185239553D01*
X215529929Y185235956D01*
X215564709Y185226362D01*
X215590234Y185211985D01*
X215610267Y185191404D01*
X215622134Y185166939D01*
X215626254Y185137307D01*
X215622738Y185107950D01*
X215612916Y185084885D01*
X215595960Y185065322D01*
X215567125Y185045297D01*
X215531207Y185027749D01*
X215476899Y185006640D01*
X215424377Y184984084D01*
X215384375Y184959992D01*
X215354685Y184934637D01*
X215337109Y184912168D01*
X215324276Y184885809D01*
X215316208Y184854804D01*
X215313352Y184818162D01*
X215316369Y184785209D01*
X215325032Y184756603D01*
X215339136Y184731503D01*
X215358188Y184709657D01*
X215381818Y184691167D01*
X215410674Y184675940D01*
X215441780Y184665310D01*
X215476696Y184658674D01*
X215516021Y184656360D01*
X215567245Y184658915D01*
X215612025Y184666169D01*
X215654284Y184677715D01*
X215691161Y184691915D01*
X215666269Y184760389D01*
X215632425Y184747438D01*
X215594693Y184736388D01*
X215555478Y184729059D01*
X215514238Y184726578D01*
X215475249Y184729848D01*
X215446070Y184738623D01*
X215424438Y184751936D01*
X215407699Y184770584D01*
X215397708Y184792597D01*
X215394234Y184819053D01*
X215397774Y184849196D01*
X215407572Y184872406D01*
X215424233Y184891834D01*
X215451114Y184910636D01*
X215484300Y184927111D01*
X215532927Y184947084D01*
X215586299Y184969104D01*
X215627573Y184991092D01*
X215651921Y185008342D01*
X215671294Y185027136D01*
X215686276Y185047546D01*
X215697023Y185070296D01*
X215703848Y185097529D01*
X215706283Y185130211D01*
G37*
G36*
X216562830Y184665239D02*
G01*
X216393932Y185300000D01*
X216313012Y185300000D01*
X216189440Y184883960D01*
X216175210Y184832391D01*
X216163656Y184786600D01*
X216157452Y184758605D01*
X216148108Y184807964D01*
X216127209Y184886597D01*
X216007205Y185300000D01*
X215926323Y185300000D01*
X215758278Y184665239D01*
X215841835Y184665239D01*
X215940514Y185052858D01*
X215958738Y185131995D01*
X215970757Y185203997D01*
X215984096Y185128428D01*
X216004529Y185048399D01*
X216116546Y184665239D01*
X216199211Y184665239D01*
X216315687Y185051074D01*
X216337012Y185132421D01*
X216350351Y185203997D01*
X216362797Y185132421D01*
X216381486Y185051966D01*
X216479273Y184665239D01*
X216562830Y184665239D01*
G37*
G36*
X217012254Y184813703D02*
G01*
X217007964Y184854992D01*
X216995945Y184888357D01*
X216976660Y184915522D01*
X216950942Y184937380D01*
X216919326Y184954163D01*
X216880656Y184965734D01*
X216880656Y184969301D01*
X216930066Y184979433D01*
X216967114Y184995694D01*
X216994457Y185017303D01*
X217014848Y185045389D01*
X217027377Y185078959D01*
X217031796Y185119548D01*
X217028827Y185155558D01*
X217020191Y185188082D01*
X217006011Y185217762D01*
X216986254Y185243812D01*
X216960082Y185266141D01*
X216926448Y185284879D01*
X216889785Y185297550D01*
X216844302Y185305856D01*
X216788220Y185308880D01*
X216739387Y185306922D01*
X216695745Y185301319D01*
X216654026Y185290799D01*
X216613972Y185274216D01*
X216613972Y185201322D01*
X216655195Y185218638D01*
X216700204Y185231992D01*
X216746133Y185240411D01*
X216789112Y185243120D01*
X216832960Y185240533D01*
X216866850Y185233563D01*
X216892731Y185223136D01*
X216912218Y185209774D01*
X216932888Y185185278D01*
X216945537Y185155173D01*
X216950022Y185117765D01*
X216946865Y185089044D01*
X216938005Y185065916D01*
X216923704Y185047130D01*
X216903339Y185031998D01*
X216871060Y185018337D01*
X216828252Y185009168D01*
X216772207Y185005748D01*
X216710867Y185005748D01*
X216710867Y184939058D01*
X216773099Y184939058D01*
X216824360Y184934828D01*
X216862965Y184923453D01*
X216891784Y184906178D01*
X216909549Y184888312D01*
X216922008Y184868186D01*
X216929593Y184845339D01*
X216932225Y184819053D01*
X216928538Y184789719D01*
X216918146Y184766345D01*
X216901090Y184747516D01*
X216879029Y184733938D01*
X216851373Y184725286D01*
X216816641Y184722158D01*
X216767369Y184726202D01*
X216728625Y184737280D01*
X216692721Y184754200D01*
X216656623Y184775472D01*
X216617500Y184722158D01*
X216654201Y184697935D01*
X216701523Y184675940D01*
X216735555Y184665300D01*
X216773444Y184658667D01*
X216815750Y184656360D01*
X216866271Y184659669D01*
X216906581Y184668736D01*
X216938575Y184682606D01*
X216963787Y184700833D01*
X216985047Y184724628D01*
X217000011Y184750974D01*
X217009111Y184780405D01*
X217012254Y184813703D01*
G37*
D12*
X212924819Y190666667D02*
X212448628Y191000000D01*
X212924819Y191238095D02*
X211924819Y191238095D01*
X211924819Y191238095D02*
X211924819Y190857143D01*
X211924819Y190857143D02*
X211972438Y190761905D01*
X211972438Y190761905D02*
X212020057Y190714286D01*
X212020057Y190714286D02*
X212115295Y190666667D01*
X212115295Y190666667D02*
X212258152Y190666667D01*
X212258152Y190666667D02*
X212353390Y190714286D01*
X212353390Y190714286D02*
X212401009Y190761905D01*
X212401009Y190761905D02*
X212448628Y190857143D01*
X212448628Y190857143D02*
X212448628Y191238095D01*
X211924819Y190333333D02*
X211924819Y189714286D01*
X211924819Y189714286D02*
X212305771Y190047619D01*
X212305771Y190047619D02*
X212305771Y189904762D01*
X212305771Y189904762D02*
X212353390Y189809524D01*
X212353390Y189809524D02*
X212401009Y189761905D01*
X212401009Y189761905D02*
X212496247Y189714286D01*
X212496247Y189714286D02*
X212734342Y189714286D01*
X212734342Y189714286D02*
X212829580Y189761905D01*
X212829580Y189761905D02*
X212877200Y189809524D01*
X212877200Y189809524D02*
X212924819Y189904762D01*
X212924819Y189904762D02*
X212924819Y190190476D01*
X212924819Y190190476D02*
X212877200Y190285714D01*
X212877200Y190285714D02*
X212829580Y190333333D01*
X250151428Y198087705D02*
X250608571Y198087705D01*
X250379999Y198087705D02*
X250379999Y198887705D01*
X250379999Y198887705D02*
X250456190Y198773420D01*
X250456190Y198773420D02*
X250532380Y198697229D01*
X250532380Y198697229D02*
X250608571Y198659134D01*
X207531612Y168895992D02*
X207854861Y169219241D01*
X207693237Y169057617D02*
X207127551Y169623302D01*
X207127551Y169623302D02*
X207262238Y169596365D01*
X207262238Y169596365D02*
X207369988Y169596365D01*
X207369988Y169596365D02*
X207450800Y169623302D01*
X228674819Y195746667D02*
X228198628Y196080000D01*
X228674819Y196318095D02*
X227674819Y196318095D01*
X227674819Y196318095D02*
X227674819Y195937143D01*
X227674819Y195937143D02*
X227722438Y195841905D01*
X227722438Y195841905D02*
X227770057Y195794286D01*
X227770057Y195794286D02*
X227865295Y195746667D01*
X227865295Y195746667D02*
X228008152Y195746667D01*
X228008152Y195746667D02*
X228103390Y195794286D01*
X228103390Y195794286D02*
X228151009Y195841905D01*
X228151009Y195841905D02*
X228198628Y195937143D01*
X228198628Y195937143D02*
X228198628Y196318095D01*
X228008152Y194889524D02*
X228674819Y194889524D01*
X227627200Y195127619D02*
X228341485Y195365714D01*
X228341485Y195365714D02*
X228341485Y194746667D01*
X205814819Y190666667D02*
X205338628Y191000000D01*
X205814819Y191238095D02*
X204814819Y191238095D01*
X204814819Y191238095D02*
X204814819Y190857143D01*
X204814819Y190857143D02*
X204862438Y190761905D01*
X204862438Y190761905D02*
X204910057Y190714286D01*
X204910057Y190714286D02*
X205005295Y190666667D01*
X205005295Y190666667D02*
X205148152Y190666667D01*
X205148152Y190666667D02*
X205243390Y190714286D01*
X205243390Y190714286D02*
X205291009Y190761905D01*
X205291009Y190761905D02*
X205338628Y190857143D01*
X205338628Y190857143D02*
X205338628Y191238095D01*
X205814819Y189714286D02*
X205814819Y190285714D01*
X205814819Y190000000D02*
X204814819Y190000000D01*
X204814819Y190000000D02*
X204957676Y190095238D01*
X204957676Y190095238D02*
X205052914Y190190476D01*
X205052914Y190190476D02*
X205100533Y190285714D01*
%TO.C,Q1*%
D13*
X217300000Y179599990D02*
X219300000Y179599990D01*
%TO.C,Q2*%
X223900000Y179599990D02*
X225900000Y179599990D01*
%TO.C,SW2*%
D10*
X237925000Y160250000D02*
X237925000Y163800000D01*
D14*
X239325000Y160350000D02*
X236825000Y160350000D01*
%TO.C,D3*%
D15*
X202240000Y194550000D02*
X202240000Y199600000D01*
X202690000Y194100000D02*
X202240000Y194550000D01*
X203040000Y195950000D02*
X203040000Y197750000D01*
X208440000Y195950000D02*
X208440000Y197750000D01*
X209240000Y199600000D02*
X202240000Y199600000D01*
X209240000Y199600000D02*
X209240000Y194100000D01*
X209240000Y194100000D02*
X202690000Y194100000D01*
%TO.C,R2*%
X231675000Y195807064D02*
X231675000Y195352936D01*
X233145000Y195807064D02*
X233145000Y195352936D01*
%TO.C,C25*%
X205730282Y170679399D02*
X205577779Y170526896D01*
X206239399Y170170282D02*
X206086896Y170017779D01*
%TO.C,SW1*%
D10*
X237500000Y187200000D02*
X237500000Y191200000D01*
D14*
X238600000Y191100000D02*
X236100000Y191100000D01*
%TO.C,C20*%
D15*
X208680164Y200512000D02*
X208895836Y200512000D01*
X208680164Y199792000D02*
X208895836Y199792000D01*
%TO.C,SW3*%
D10*
X224360000Y186600000D02*
X224360000Y190600000D01*
D14*
X225760000Y186700000D02*
X223260000Y186700000D01*
%TO.C,R3*%
D15*
X210085000Y190272936D02*
X210085000Y190727064D01*
X211555000Y190272936D02*
X211555000Y190727064D01*
%TO.C,D4*%
X242880000Y194550000D02*
X242880000Y199600000D01*
X243330000Y194100000D02*
X242880000Y194550000D01*
X243680000Y195950000D02*
X243680000Y197750000D01*
X249080000Y195950000D02*
X249080000Y197750000D01*
X249880000Y199600000D02*
X242880000Y199600000D01*
X249880000Y199600000D02*
X249880000Y194100000D01*
X249880000Y194100000D02*
X243330000Y194100000D01*
%TO.C,R16*%
X203734936Y201649000D02*
X204189064Y201649000D01*
X203734936Y200179000D02*
X204189064Y200179000D01*
%TO.C,C23*%
X248812164Y200766000D02*
X249027836Y200766000D01*
X248812164Y200046000D02*
X249027836Y200046000D01*
%TO.C,D5*%
X204467208Y162808416D02*
X203194416Y164081208D01*
X204891472Y161252781D02*
X201320583Y164823670D01*
X205527868Y161252781D02*
X204891472Y161252781D01*
X206270330Y169773417D02*
X201320583Y164823670D01*
X206270330Y169773417D02*
X210159417Y165884330D01*
X208285584Y166626792D02*
X207012792Y167899584D01*
X210159417Y165884330D02*
X205527868Y161252781D01*
%TO.C,R4*%
X229135000Y195807064D02*
X229135000Y195352936D01*
X230605000Y195807064D02*
X230605000Y195352936D01*
%TO.C,D1*%
D13*
X224375000Y161400000D02*
X223925000Y161400000D01*
X225675000Y162100000D02*
X225925000Y162350000D01*
X225925000Y162350000D02*
X225925000Y161850000D01*
X225925000Y161850000D02*
X225675000Y162100000D01*
X225925000Y161400000D02*
X225475000Y161400000D01*
%TO.C,D2*%
X217750000Y161400000D02*
X217300000Y161400000D01*
X219050000Y162100000D02*
X219300000Y162350000D01*
X219300000Y162350000D02*
X219300000Y161850000D01*
X219300000Y161850000D02*
X219050000Y162100000D01*
X219300000Y161400000D02*
X218850000Y161400000D01*
%TO.C,R17*%
D15*
X213386936Y163803000D02*
X213841064Y163803000D01*
X213386936Y162333000D02*
X213841064Y162333000D01*
%TO.C,R1*%
X206275000Y190727064D02*
X206275000Y190272936D01*
X207745000Y190727064D02*
X207745000Y190272936D01*
%TD*%
%LPC*%
D16*
%TO.C,SW2*%
G36*
X237625000Y164350000D02*
G01*
X237625000Y164350000D01*
G75*
G02*
X237925000Y164050000I30J-300045D01*
G01*
X237925000Y160450000D01*
G75*
G02*
X237625000Y160150000I-299970J-45D01*
G01*
X230825000Y160150000D01*
G75*
G02*
X230525000Y160450000I30J299955D01*
G01*
X230525000Y164050000D01*
G75*
G02*
X230825000Y164350000I300030J-45D01*
G01*
X237625000Y164350000D01*
G37*
%TO.C,SW1*%
G36*
X244600000Y191300000D02*
G01*
X244600000Y191300000D01*
G75*
G02*
X244900000Y191000000I30J-300045D01*
G01*
X244900000Y187400000D01*
G75*
G02*
X244600000Y187100000I-299970J-45D01*
G01*
X237800000Y187100000D01*
G75*
G02*
X237500000Y187400000I30J299955D01*
G01*
X237500000Y191000000D01*
G75*
G02*
X237800000Y191300000I300030J-45D01*
G01*
X244600000Y191300000D01*
G37*
%TO.C,SW3*%
G36*
X224060000Y190700000D02*
G01*
X224060000Y190700000D01*
G75*
G02*
X224360000Y190400000I30J-300045D01*
G01*
X224360000Y186800000D01*
G75*
G02*
X224060000Y186500000I-299970J-45D01*
G01*
X217260000Y186500000D01*
G75*
G02*
X216960000Y186800000I30J299955D01*
G01*
X216960000Y190400000D01*
G75*
G02*
X217260000Y190700000I300030J-45D01*
G01*
X224060000Y190700000D01*
G37*
%TD*%
D17*
%TO.C,Q1*%
X219800000Y179199990D03*
X216800000Y179199990D03*
%TD*%
%TO.C,Q2*%
X226400000Y179199990D03*
X223400000Y179199990D03*
%TD*%
D18*
%TO.C,MCH.SP.3*%
X235600000Y177600000D03*
%TD*%
%TO.C,MCH.SP.7*%
X229800000Y177600000D03*
%TD*%
D19*
%TO.C,*%
X205438460Y181437390D03*
%TD*%
D18*
%TO.C,MCH.SP.2*%
X200600000Y190600000D03*
%TD*%
%TO.C,MCH.SP.10*%
X200600000Y181600000D03*
%TD*%
D20*
%TO.C,CJ7*%
X219011390Y205451340D03*
%TD*%
D18*
%TO.C,MCH.SP.6*%
X240600000Y183600000D03*
%TD*%
%TO.C,MCH.SP.1*%
X204600000Y164600000D03*
%TD*%
%TO.C,MCH.SP.4*%
X200875010Y172600000D03*
%TD*%
D20*
%TO.C,CJ4*%
X231011390Y205451340D03*
%TD*%
%TO.C,CJ6*%
X223011390Y205451340D03*
%TD*%
D18*
%TO.C,MCH.SP.11*%
X200600000Y199600000D03*
%TD*%
D20*
%TO.C,CJ5*%
X227011390Y205451340D03*
%TD*%
D18*
%TO.C,MCH.SP.8*%
X207600000Y171600000D03*
%TD*%
D19*
%TO.C,*%
X217623060Y199481310D03*
%TD*%
D18*
%TO.C,MCH.SP.9*%
X249936000Y202946000D03*
%TD*%
D20*
%TO.C,CJ2*%
X239011390Y205451340D03*
%TD*%
D19*
%TO.C,*%
X238622810Y199582840D03*
%TD*%
D20*
%TO.C,CJ11*%
X247011390Y205451340D03*
%TD*%
%TO.C,CJ8*%
X215011390Y205451340D03*
%TD*%
D18*
%TO.C,MCH.SP.5*%
X210600000Y176600000D03*
%TD*%
D20*
%TO.C,CJ1*%
X243011390Y205451340D03*
%TD*%
%TO.C,CJ9*%
X211011390Y205451340D03*
%TD*%
%TO.C,CJ10*%
X207011390Y205451340D03*
%TD*%
D18*
%TO.C,MCH.SP.12*%
X249600000Y188600000D03*
%TD*%
D20*
%TO.C,CJ3*%
X235011390Y205451340D03*
%TD*%
D19*
%TO.C,*%
X236338460Y181437390D03*
%TD*%
%TO.C,SW2*%
X236225000Y162250000D03*
X232225000Y162250000D03*
D21*
X239424990Y162550000D03*
D22*
X229150000Y162600000D03*
%TD*%
D23*
%TO.C,D3*%
X208190000Y198500000D03*
X208190000Y195200000D03*
X203290000Y195200000D03*
X203290000Y198500000D03*
%TD*%
D24*
%TO.C,R2*%
X232410000Y196492500D03*
X232410000Y194667500D03*
%TD*%
D25*
%TO.C,C25*%
X206248000Y170688000D03*
X205569178Y170009178D03*
%TD*%
D19*
%TO.C,SW1*%
X239200000Y189200000D03*
X243200000Y189200000D03*
D26*
X236000000Y188900000D03*
X246400000Y188900000D03*
%TD*%
D27*
%TO.C,C20*%
X208308000Y200152000D03*
X209268000Y200152000D03*
%TD*%
D19*
%TO.C,SW3*%
X222660000Y188600000D03*
X218660000Y188600000D03*
D21*
X225860000Y188900000D03*
X215460000Y188900000D03*
%TD*%
D28*
%TO.C,R3*%
X210820000Y189587500D03*
X210820000Y191412500D03*
%TD*%
D23*
%TO.C,D4*%
X248830000Y198500000D03*
X248830000Y195200000D03*
X243930000Y195200000D03*
X243930000Y198500000D03*
%TD*%
D29*
%TO.C,R16*%
X203049500Y200914000D03*
X204874500Y200914000D03*
%TD*%
D27*
%TO.C,C23*%
X248440000Y200406000D03*
X249400000Y200406000D03*
%TD*%
D30*
%TO.C,D5*%
X206305685Y168253138D03*
X208639138Y165919685D03*
X205174315Y162454862D03*
X202840862Y164788315D03*
%TD*%
D24*
%TO.C,R4*%
X229870000Y196492500D03*
X229870000Y194667500D03*
%TD*%
D31*
%TO.C,D1*%
X223425000Y161800000D03*
X226425000Y161800000D03*
D32*
X224925000Y161400000D03*
%TD*%
D31*
%TO.C,D2*%
X216800000Y161800000D03*
X219800000Y161800000D03*
D32*
X218300000Y161400000D03*
%TD*%
D29*
%TO.C,R17*%
X212701500Y163068000D03*
X214526500Y163068000D03*
%TD*%
D24*
%TO.C,R1*%
X207010000Y191412500D03*
X207010000Y189587500D03*
%TD*%
%LPD*%
M02*
