%TF.GenerationSoftware,KiCad,Pcbnew,10.0.3*%
%TF.CreationDate,2026-06-08T15:42:38-07:00*%
%TF.ProjectId,Vertical,56657274-6963-4616-9c2e-6b696361645f,rev?*%
%TF.SameCoordinates,Original*%
%TF.FileFunction,Copper,L2,Bot*%
%TF.FilePolarity,Positive*%
%FSLAX46Y46*%
G04 Gerber Fmt 4.6, Leading zero omitted, Abs format (unit mm)*
G04 Created by KiCad (PCBNEW 10.0.3) date 2026-06-08 15:42:38*
%MOMM*%
%LPD*%
G01*
G04 APERTURE LIST*
G04 Aperture macros list*
%AMRoundRect*
0 Rectangle with rounded corners*
0 $1 Rounding radius*
0 $2 $3 $4 $5 $6 $7 $8 $9 X,Y pos of 4 corners*
0 Add a 4 corners polygon primitive as box body*
4,1,4,$2,$3,$4,$5,$6,$7,$8,$9,$2,$3,0*
0 Add four circle primitives for the rounded corners*
1,1,$1+$1,$2,$3*
1,1,$1+$1,$4,$5*
1,1,$1+$1,$6,$7*
1,1,$1+$1,$8,$9*
0 Add four rect primitives between the rounded corners*
20,1,$1+$1,$2,$3,$4,$5,0*
20,1,$1+$1,$4,$5,$6,$7,0*
20,1,$1+$1,$6,$7,$8,$9,0*
20,1,$1+$1,$8,$9,$2,$3,0*%
%AMRotRect*
0 Rectangle, with rotation*
0 The origin of the aperture is its center*
0 $1 length*
0 $2 width*
0 $3 Rotation angle, in degrees counterclockwise*
0 Add horizontal line*
21,1,$1,$2,0,0,$3*%
G04 Aperture macros list end*
%TA.AperFunction,SMDPad,CuDef*%
%ADD10RotRect,1.016000X1.016000X135.000000*%
%TD*%
%TA.AperFunction,ComponentPad*%
%ADD11C,0.001000*%
%TD*%
%TA.AperFunction,ComponentPad*%
%ADD12RoundRect,0.575000X-0.575000X-1.425000X0.575000X-1.425000X0.575000X1.425000X-0.575000X1.425000X0*%
%TD*%
%TA.AperFunction,SMDPad,CuDef*%
%ADD13RoundRect,0.510000X0.390000X-0.340000X0.390000X0.340000X-0.390000X0.340000X-0.390000X-0.340000X0*%
%TD*%
%TA.AperFunction,SMDPad,CuDef*%
%ADD14RoundRect,0.400000X-0.400000X-1.100000X0.400000X-1.100000X0.400000X1.100000X-0.400000X1.100000X0*%
%TD*%
%TA.AperFunction,SMDPad,CuDef*%
%ADD15RoundRect,0.520000X-0.280000X-0.980000X0.280000X-0.980000X0.280000X0.980000X-0.280000X0.980000X0*%
%TD*%
%TA.AperFunction,SMDPad,CuDef*%
%ADD16RoundRect,0.250000X-0.450000X0.262500X-0.450000X-0.262500X0.450000X-0.262500X0.450000X0.262500X0*%
%TD*%
%TA.AperFunction,SMDPad,CuDef*%
%ADD17RoundRect,0.400000X0.400000X1.100000X-0.400000X1.100000X-0.400000X-1.100000X0.400000X-1.100000X0*%
%TD*%
%TA.AperFunction,SMDPad,CuDef*%
%ADD18RoundRect,0.250000X0.450000X-0.262500X0.450000X0.262500X-0.450000X0.262500X-0.450000X-0.262500X0*%
%TD*%
%TA.AperFunction,SMDPad,CuDef*%
%ADD19RoundRect,0.510000X-0.390000X0.340000X-0.390000X-0.340000X0.390000X-0.340000X0.390000X0.340000X0*%
%TD*%
%TA.AperFunction,ViaPad*%
%ADD20C,1.200000*%
%TD*%
%TA.AperFunction,ViaPad*%
%ADD21C,1.016000*%
%TD*%
%TA.AperFunction,ViaPad*%
%ADD22C,0.600000*%
%TD*%
%TA.AperFunction,ViaPad*%
%ADD23C,1.000000*%
%TD*%
%TA.AperFunction,ViaPad*%
%ADD24C,0.800000*%
%TD*%
%TA.AperFunction,Conductor*%
%ADD25C,1.000000*%
%TD*%
G04 APERTURE END LIST*
D10*
%TO.P,MCH.SP.3,1*%
%TO.N,GND*%
X235600000Y177600000D03*
%TD*%
%TO.P,MCH.SP.7,1*%
%TO.N,GND*%
X229800000Y177600000D03*
%TD*%
D11*
%TO.P,,*%
%TO.N,*%
X205438460Y181437390D03*
%TD*%
D10*
%TO.P,MCH.SP.2,1*%
%TO.N,GND*%
X200600000Y190600000D03*
%TD*%
%TO.P,MCH.SP.10,1*%
%TO.N,GND*%
X200600000Y181600000D03*
%TD*%
D12*
%TO.P,CJ7,1,1_1*%
%TO.N,/BBS/ButtonRightClick*%
X219011390Y205451340D03*
%TD*%
D10*
%TO.P,MCH.SP.6,1*%
%TO.N,GND*%
X240600000Y183600000D03*
%TD*%
%TO.P,MCH.SP.1,1*%
%TO.N,GND*%
X204600000Y164600000D03*
%TD*%
%TO.P,MCH.SP.4,1*%
%TO.N,GND*%
X200875010Y172600000D03*
%TD*%
D12*
%TO.P,CJ4,1,1_1*%
%TO.N,/SCW/ScrollWheelOpto1*%
X231011390Y205451340D03*
%TD*%
%TO.P,CJ6,1,1_1*%
%TO.N,/BBS/ButtonLeftClick*%
X223011390Y205451340D03*
%TD*%
D10*
%TO.P,MCH.SP.11,1*%
%TO.N,GND*%
X200600000Y199600000D03*
%TD*%
D12*
%TO.P,CJ5,1,1_1*%
%TO.N,GND*%
X227011390Y205451340D03*
%TD*%
D10*
%TO.P,MCH.SP.8,1*%
%TO.N,GND*%
X207600000Y171600000D03*
%TD*%
D11*
%TO.P,,*%
%TO.N,*%
X217623060Y199481310D03*
%TD*%
D10*
%TO.P,MCH.SP.9,1*%
%TO.N,GND*%
X248600000Y203600000D03*
%TD*%
D12*
%TO.P,CJ2,1,1_1*%
%TO.N,/SCW/ButtonScrollWheel*%
X239011390Y205451340D03*
%TD*%
D11*
%TO.P,,*%
%TO.N,*%
X238622810Y199582840D03*
%TD*%
D12*
%TO.P,CJ8,1,1_1*%
%TO.N,/SCW/3V3*%
X215011390Y205451340D03*
%TD*%
D10*
%TO.P,MCH.SP.5,1*%
%TO.N,GND*%
X210600000Y176600000D03*
%TD*%
D12*
%TO.P,CJ1,1,1_1*%
%TO.N,GND*%
X243011390Y205451340D03*
%TD*%
%TO.P,CJ9,1,1_1*%
%TO.N,GND*%
X211011390Y205451340D03*
%TD*%
D10*
%TO.P,MCH.SP.12,1*%
%TO.N,GND*%
X249600000Y188600000D03*
%TD*%
D12*
%TO.P,CJ3,1,1_1*%
%TO.N,/SCW/ScrollWheelOpto0*%
X235011390Y205451340D03*
%TD*%
D11*
%TO.P,,*%
%TO.N,*%
X236338460Y181437390D03*
%TD*%
D13*
%TO.P,Qt1,C,C_C*%
%TO.N,/SCW/3V3*%
X220102400Y179199990D03*
%TO.P,Qt1,E,E_E*%
%TO.N,/SCW/ScrollWheelOpto0*%
X216497600Y179199990D03*
%TD*%
D14*
%TO.P,SW2,A,A_A*%
%TO.N,/BBS/ButtonRightClick*%
X239424990Y162550000D03*
D15*
%TO.P,SW2,B,B_B*%
%TO.N,GND*%
X229150000Y162600000D03*
%TD*%
D13*
%TO.P,Qt2,1,C_1*%
%TO.N,/SCW/3V3*%
X226702400Y179199990D03*
%TO.P,Qt2,2,E_2*%
%TO.N,/SCW/ScrollWheelOpto1*%
X223097610Y179199990D03*
%TD*%
D16*
%TO.P,R2,1,1_1*%
%TO.N,GND*%
X232410000Y196492500D03*
%TO.P,R2,2,2_2*%
%TO.N,/SCW/ScrollWheelOpto0*%
X232410000Y194667500D03*
%TD*%
D17*
%TO.P,SW1,A,A_A*%
%TO.N,/BBS/ButtonLeftClick*%
X236000000Y188900000D03*
%TO.P,SW1,B,B_B*%
%TO.N,GND*%
X246400000Y188900000D03*
%TD*%
D14*
%TO.P,SW3,A,A_A*%
%TO.N,/SCW/ButtonScrollWheel*%
X228100000Y188900000D03*
%TO.P,SW3,B,B_B*%
%TO.N,GND*%
X217700000Y188900000D03*
%TD*%
D18*
%TO.P,R3,1,1_1*%
%TO.N,Net-(D2-A)*%
X210820000Y189587500D03*
%TO.P,R3,2,2_2*%
%TO.N,/SCW/3V3*%
X210820000Y191412500D03*
%TD*%
D16*
%TO.P,R4,1,1_1*%
%TO.N,GND*%
X229870000Y196492500D03*
%TO.P,R4,2,2_2*%
%TO.N,/SCW/ScrollWheelOpto1*%
X229870000Y194667500D03*
%TD*%
D19*
%TO.P,D1,1,A_1*%
%TO.N,Net-(D1-A)*%
X223122600Y161800000D03*
%TO.P,D1,2,C_2*%
%TO.N,GND*%
X226727390Y161800000D03*
%TD*%
%TO.P,D2,1,A_1*%
%TO.N,Net-(D2-A)*%
X216497600Y161800000D03*
%TO.P,D2,2,C_2*%
%TO.N,GND*%
X220102390Y161800000D03*
%TD*%
D16*
%TO.P,R1,1*%
%TO.N,/SCW/3V3*%
X207010000Y191412500D03*
%TO.P,R1,2*%
%TO.N,Net-(D1-A)*%
X207010000Y189587500D03*
%TD*%
D20*
%TO.N,GND*%
X238100000Y185900000D03*
D21*
X200600000Y190600000D03*
X200600000Y199600000D03*
D22*
X221700000Y162000000D03*
D20*
X212300000Y187200000D03*
X221300000Y185300000D03*
D22*
X227900000Y160300000D03*
X225000000Y160300000D03*
D20*
X221800000Y191800000D03*
D21*
X204600000Y164600000D03*
D20*
X233600000Y190600000D03*
X205800000Y193000000D03*
D21*
X249600000Y188600000D03*
D20*
X225100000Y199600000D03*
D21*
X207600000Y171600000D03*
D20*
X233600000Y186100000D03*
X204400000Y189900000D03*
X243300000Y192400000D03*
D21*
X235600000Y177600000D03*
D20*
X235600000Y195100000D03*
D21*
X210600000Y176600000D03*
D20*
X214400000Y190500000D03*
D21*
X248600000Y203600000D03*
D20*
X244600000Y195600000D03*
D22*
X218700000Y162200000D03*
D20*
X212170000Y197600000D03*
D23*
X211500000Y162400000D03*
D21*
X200600000Y181600000D03*
X200875010Y172600000D03*
D20*
X221800000Y194700000D03*
D21*
X229800000Y177600000D03*
D20*
X204100000Y203600000D03*
D22*
X229100000Y160300000D03*
D20*
X243600000Y201600000D03*
X230600000Y197600000D03*
X224600000Y182400000D03*
X214600000Y180800000D03*
X225600000Y185100000D03*
X217100000Y183600000D03*
X204700000Y185800000D03*
X225100000Y191800000D03*
D21*
X240600000Y183600000D03*
D22*
%TO.N,/SCW/3V3*%
X217702390Y181600000D03*
X228300000Y180900000D03*
%TO.N,/SCW/ButtonScrollWheel*%
X225600000Y197200000D03*
%TO.N,/BBS/ButtonLeftClick*%
X234400000Y193400000D03*
D24*
%TO.N,/BBS/ButtonRightClick*%
X238700000Y163700000D03*
X238700000Y161300000D03*
%TD*%
%TO.N,/SCW/3V3*%
D25*
X215011390Y205451340D02*
X215011390Y203811390D01*
X215011390Y203811390D02*
X213951340Y202751340D01*
X226702400Y179199990D02*
X226702400Y179302400D01*
X210820000Y191412500D02*
X211587500Y191412500D01*
X211587500Y191412500D02*
X215300000Y187700000D01*
X226702400Y179302400D02*
X228300000Y180900000D01*
X217702390Y181600000D02*
X220102400Y179199990D01*
X215300000Y183000000D02*
X216700000Y181600000D01*
X210820000Y191412500D02*
X207010000Y191412500D01*
X213951340Y202751340D02*
X213901250Y202751340D01*
X216700000Y181600000D02*
X217702390Y181600000D01*
X215300000Y187700000D02*
X215300000Y183000000D01*
X210820000Y199670090D02*
X210820000Y191412500D01*
X213901250Y202751340D02*
X210820000Y199670090D01*
%TO.N,/SCW/ScrollWheelOpto0*%
X233367500Y194667500D02*
X232410000Y194667500D01*
X235011390Y201711390D02*
X234400000Y201100000D01*
X231800000Y191900000D02*
X231800000Y181500000D01*
X231800000Y181500000D02*
X227500000Y177200000D01*
X217600000Y177200000D02*
X217600000Y178097590D01*
X232410000Y192510000D02*
X231800000Y191900000D01*
X234400000Y195700000D02*
X233367500Y194667500D01*
X234400000Y201100000D02*
X234400000Y195700000D01*
X227500000Y177200000D02*
X217600000Y177200000D01*
X217600000Y178097590D02*
X216497600Y179199990D01*
X235011390Y205451340D02*
X235011390Y201711390D01*
X232410000Y194667500D02*
X232410000Y192510000D01*
%TO.N,/SCW/ScrollWheelOpto1*%
X223097610Y179199990D02*
X223999990Y179199990D01*
X227200000Y199600000D02*
X227200000Y195100000D01*
X231011390Y205451340D02*
X231011390Y203411390D01*
X229870000Y185070000D02*
X229870000Y194667500D01*
X231011390Y203411390D02*
X227200000Y199600000D01*
X227200000Y195100000D02*
X227700000Y194600000D01*
X223999990Y179199990D02*
X229870000Y185070000D01*
X227700000Y194600000D02*
X227767500Y194667500D01*
X227767500Y194667500D02*
X229870000Y194667500D01*
%TO.N,/SCW/ButtonScrollWheel*%
X228100000Y188900000D02*
X228100000Y191400000D01*
X228100000Y191400000D02*
X225600000Y193900000D01*
X225600000Y193900000D02*
X225600000Y197200000D01*
%TO.N,/BBS/ButtonLeftClick*%
X235100000Y193400000D02*
X234400000Y193400000D01*
X236000000Y188900000D02*
X236000000Y192500000D01*
X236000000Y192500000D02*
X235100000Y193400000D01*
%TO.N,Net-(D1-A)*%
X214800000Y159800000D02*
X221122601Y159800000D01*
X209000000Y184100000D02*
X209000000Y179200000D01*
X209000000Y179200000D02*
X204200000Y174400000D01*
X221122601Y159800000D02*
X222809829Y161487228D01*
X211000000Y160300000D02*
X214300000Y160300000D01*
X214300000Y160300000D02*
X214800000Y159800000D01*
X204200000Y174400000D02*
X204200000Y167100000D01*
X207010000Y189587500D02*
X207010000Y186090000D01*
X204200000Y167100000D02*
X211000000Y160300000D01*
X207010000Y186090000D02*
X209000000Y184100000D01*
%TO.N,Net-(D2-A)*%
X205900000Y167200000D02*
X205900000Y174200000D01*
X209300000Y163800000D02*
X205900000Y167200000D01*
X212100000Y163800000D02*
X209300000Y163800000D01*
X210500000Y178800000D02*
X210500000Y189267500D01*
X214100000Y161800000D02*
X212100000Y163800000D01*
X216497600Y161800000D02*
X214100000Y161800000D01*
X210500000Y189267500D02*
X210820000Y189587500D01*
X205900000Y174200000D02*
X210500000Y178800000D01*
%TD*%
%TA.AperFunction,Conductor*%
%TO.N,GND*%
G36*
X213391043Y164241109D02*
G01*
X213811580Y164174502D01*
X214289481Y164136890D01*
X214463278Y164136890D01*
X230301000Y164136890D01*
X230368039Y164117205D01*
X230413794Y164064401D01*
X230425000Y164012890D01*
X230425000Y160450000D01*
X230428422Y160397790D01*
X230455448Y160296927D01*
X230507659Y160206495D01*
X230581495Y160132659D01*
X230671927Y160080448D01*
X230772790Y160053422D01*
X230825000Y160050000D01*
X235186090Y160050000D01*
X235253129Y160030315D01*
X235298884Y159977511D01*
X235308828Y159908353D01*
X235279803Y159844797D01*
X235221025Y159807023D01*
X235215914Y159805640D01*
X234355721Y159592490D01*
X234353002Y159591849D01*
X233267569Y159348701D01*
X233264837Y159348121D01*
X232226740Y159140016D01*
X232202967Y159137598D01*
X229339423Y159123753D01*
X229272289Y159143114D01*
X229231436Y159185752D01*
X229228221Y159191320D01*
X229228219Y159191324D01*
X229173146Y159269970D01*
X229173141Y159269976D01*
X229173139Y159269979D01*
X229111444Y159343500D01*
X229111436Y159343509D01*
X229111429Y159343517D01*
X229043536Y159411405D01*
X229043532Y159411409D01*
X229043526Y159411414D01*
X228969991Y159473112D01*
X228969990Y159473113D01*
X228969985Y159473117D01*
X228891335Y159528185D01*
X228847825Y159553304D01*
X228808185Y159576189D01*
X228808179Y159576192D01*
X228762379Y159597546D01*
X228721168Y159616761D01*
X228721161Y159616764D01*
X228721158Y159616765D01*
X228721153Y159616767D01*
X228630947Y159649596D01*
X228630934Y159649600D01*
X228538206Y159674443D01*
X228502409Y159680754D01*
X228443652Y159691113D01*
X228443646Y159691114D01*
X228443622Y159691117D01*
X228348018Y159699478D01*
X228334290Y159699628D01*
X228300000Y159700000D01*
X222736883Y159700000D01*
X222669844Y159719685D01*
X222624089Y159772489D01*
X222614145Y159841647D01*
X222643170Y159905203D01*
X222649202Y159911681D01*
X223150703Y160413181D01*
X223212026Y160446666D01*
X223238384Y160449500D01*
X223562237Y160449500D01*
X223562240Y160449500D01*
X223710693Y160464121D01*
X223901173Y160521903D01*
X224076720Y160615735D01*
X224230588Y160742012D01*
X224356865Y160895880D01*
X224450697Y161071427D01*
X224508479Y161261907D01*
X224523100Y161410360D01*
X224523100Y162189640D01*
X224508479Y162338093D01*
X224450697Y162528573D01*
X224391117Y162640039D01*
X224356868Y162704115D01*
X224356864Y162704122D01*
X224230588Y162857989D01*
X224076721Y162984265D01*
X224076714Y162984269D01*
X223901174Y163078097D01*
X223710695Y163135879D01*
X223651311Y163141728D01*
X223562240Y163150500D01*
X222682960Y163150500D01*
X222608733Y163143190D01*
X222534504Y163135879D01*
X222344025Y163078097D01*
X222168485Y162984269D01*
X222168478Y162984265D01*
X222014611Y162857989D01*
X221888335Y162704122D01*
X221888331Y162704115D01*
X221794503Y162528575D01*
X221736721Y162338096D01*
X221722100Y162189637D01*
X221722100Y161865782D01*
X221702415Y161798743D01*
X221685781Y161778101D01*
X220744500Y160836819D01*
X220683177Y160803334D01*
X220656819Y160800500D01*
X217887765Y160800500D01*
X217820726Y160820185D01*
X217774971Y160872989D01*
X217765027Y160942147D01*
X217778407Y160982953D01*
X217825696Y161071426D01*
X217825697Y161071427D01*
X217883479Y161261907D01*
X217898100Y161410360D01*
X217898100Y162189640D01*
X217883479Y162338093D01*
X217825697Y162528573D01*
X217766117Y162640039D01*
X217731868Y162704115D01*
X217731864Y162704122D01*
X217605588Y162857989D01*
X217451721Y162984265D01*
X217451714Y162984269D01*
X217276174Y163078097D01*
X217085695Y163135879D01*
X217026311Y163141728D01*
X216937240Y163150500D01*
X216057960Y163150500D01*
X215983733Y163143190D01*
X215909504Y163135879D01*
X215719025Y163078097D01*
X215543485Y162984269D01*
X215543478Y162984265D01*
X215389612Y162857990D01*
X215379639Y162845836D01*
X215321894Y162806501D01*
X215283785Y162800500D01*
X214565782Y162800500D01*
X214498743Y162820185D01*
X214478101Y162836819D01*
X213283966Y164030954D01*
X213250481Y164092277D01*
X213255465Y164161969D01*
X213297337Y164217902D01*
X213362801Y164242319D01*
X213391043Y164241109D01*
G37*
%TD.AperFunction*%
%TA.AperFunction,Conductor*%
G36*
X213303424Y204940304D02*
G01*
X213349434Y204887722D01*
X213360890Y204835666D01*
X213360890Y203944222D01*
X213363639Y203898077D01*
X213363639Y203898073D01*
X213363640Y203898072D01*
X213403169Y203716357D01*
X213398185Y203646665D01*
X213356313Y203590732D01*
X213350895Y203586897D01*
X213263465Y203528478D01*
X210933533Y201198544D01*
X210182220Y200447231D01*
X210182218Y200447229D01*
X210115297Y200380308D01*
X210042859Y200307871D01*
X209933371Y200144010D01*
X209933364Y200143997D01*
X209896292Y200054496D01*
X209896289Y200054487D01*
X209893911Y200048745D01*
X209857949Y199961926D01*
X209838724Y199865278D01*
X209837561Y199859436D01*
X209837559Y199859426D01*
X209819500Y199768635D01*
X209819500Y192537000D01*
X209799815Y192469961D01*
X209747011Y192424206D01*
X209695500Y192413000D01*
X207635259Y192413000D01*
X207619566Y192414661D01*
X207619531Y192414311D01*
X207510010Y192425500D01*
X206509998Y192425500D01*
X206509980Y192425499D01*
X206407203Y192415000D01*
X206407200Y192414999D01*
X206240668Y192359815D01*
X206240663Y192359813D01*
X206091342Y192267711D01*
X205967289Y192143658D01*
X205875187Y191994337D01*
X205875186Y191994334D01*
X205820001Y191827797D01*
X205820001Y191827796D01*
X205820000Y191827796D01*
X205809500Y191725017D01*
X205809500Y191099999D01*
X205809501Y191099981D01*
X205820000Y190997204D01*
X205820001Y190997201D01*
X205875185Y190830669D01*
X205875187Y190830664D01*
X205967289Y190681343D01*
X206060951Y190587681D01*
X206094436Y190526358D01*
X206089452Y190456666D01*
X206060951Y190412319D01*
X205967289Y190318658D01*
X205875187Y190169337D01*
X205875186Y190169334D01*
X205820001Y190002797D01*
X205820001Y190002796D01*
X205820000Y190002796D01*
X205809500Y189900017D01*
X205809500Y189274999D01*
X205809501Y189274981D01*
X205820000Y189172204D01*
X205820001Y189172201D01*
X205875185Y189005669D01*
X205875187Y189005664D01*
X205967289Y188856343D01*
X205973181Y188850451D01*
X206006666Y188789128D01*
X206009500Y188762770D01*
X206009500Y185991456D01*
X206047947Y185798172D01*
X206047949Y185798164D01*
X206062708Y185762533D01*
X206062708Y185762532D01*
X206123364Y185616093D01*
X206123371Y185616080D01*
X206232860Y185452219D01*
X206232863Y185452215D01*
X206376537Y185308541D01*
X206376559Y185308521D01*
X207963181Y183721899D01*
X207996666Y183660576D01*
X207999500Y183634218D01*
X207999500Y182656158D01*
X207979815Y182589119D01*
X207927011Y182543364D01*
X207857853Y182533420D01*
X207794297Y182562445D01*
X207763780Y182602356D01*
X207718066Y182697281D01*
X207711227Y182708165D01*
X207562668Y182944596D01*
X207380558Y183172955D01*
X207174025Y183379488D01*
X206945666Y183561598D01*
X206698353Y183716995D01*
X206698350Y183716997D01*
X206435198Y183843725D01*
X206159506Y183940193D01*
X206159504Y183940194D01*
X205939740Y183990354D01*
X205874746Y184005188D01*
X205874743Y184005189D01*
X205874731Y184005191D01*
X205584507Y184037890D01*
X205584501Y184037890D01*
X205292419Y184037890D01*
X205292412Y184037890D01*
X205002188Y184005191D01*
X205002174Y184005188D01*
X204717415Y183940194D01*
X204717413Y183940193D01*
X204441721Y183843725D01*
X204178569Y183716997D01*
X203931255Y183561599D01*
X203702895Y183379489D01*
X203496361Y183172955D01*
X203314251Y182944595D01*
X203158853Y182697281D01*
X203032125Y182434129D01*
X202935657Y182158437D01*
X202935656Y182158435D01*
X202870662Y181873676D01*
X202870659Y181873662D01*
X202837960Y181583438D01*
X202837960Y181291343D01*
X202870659Y181001119D01*
X202870661Y181001107D01*
X202870662Y181001104D01*
X202871247Y180998541D01*
X202935656Y180716346D01*
X202935657Y180716344D01*
X203032125Y180440652D01*
X203158853Y180177500D01*
X203158855Y180177497D01*
X203314252Y179930184D01*
X203496362Y179701825D01*
X203702895Y179495292D01*
X203931254Y179313182D01*
X204178567Y179157785D01*
X204441723Y179031055D01*
X204717415Y178934587D01*
X205002174Y178869592D01*
X205002183Y178869591D01*
X205002188Y178869590D01*
X205195670Y178847791D01*
X205292413Y178836891D01*
X205292416Y178836890D01*
X205292419Y178836890D01*
X205584504Y178836890D01*
X205584505Y178836891D01*
X205732831Y178853603D01*
X205874731Y178869590D01*
X205874734Y178869591D01*
X205874746Y178869592D01*
X206159505Y178934587D01*
X206435197Y179031055D01*
X206698353Y179157785D01*
X206945666Y179313182D01*
X207174025Y179495292D01*
X207380558Y179701825D01*
X207562668Y179930184D01*
X207718065Y180177497D01*
X207729733Y180201725D01*
X207763780Y180272424D01*
X207810602Y180324284D01*
X207878029Y180342597D01*
X207944653Y180321549D01*
X207989322Y180267823D01*
X207999500Y180218623D01*
X207999500Y179665783D01*
X207979815Y179598744D01*
X207963181Y179578102D01*
X205776675Y177391596D01*
X203562221Y175177142D01*
X203562218Y175177139D01*
X203499426Y175114347D01*
X203422859Y175037781D01*
X203313371Y174873921D01*
X203313364Y174873908D01*
X203237950Y174691840D01*
X203237947Y174691830D01*
X203199500Y174498544D01*
X203199500Y174498541D01*
X203199500Y167001459D01*
X203199500Y167001457D01*
X203199499Y167001457D01*
X203237947Y166808171D01*
X203237950Y166808161D01*
X203313364Y166626093D01*
X203313371Y166626080D01*
X203422860Y166462219D01*
X203422863Y166462215D01*
X203566537Y166318541D01*
X203566559Y166318521D01*
X209636588Y160248492D01*
X209636980Y160247773D01*
X209637696Y160247370D01*
X209653704Y160217145D01*
X209670073Y160187169D01*
X209670014Y160186352D01*
X209670399Y160185626D01*
X209667527Y160151569D01*
X209665089Y160117477D01*
X209664596Y160116820D01*
X209664528Y160116004D01*
X209643715Y160088927D01*
X209623217Y160061544D01*
X209622449Y160061258D01*
X209621949Y160060607D01*
X209589746Y160049060D01*
X209557753Y160037127D01*
X209556696Y160037210D01*
X209556180Y160037024D01*
X209521010Y160039990D01*
X209404380Y160066919D01*
X209402050Y160067481D01*
X207820316Y160465045D01*
X207817997Y160465651D01*
X206244120Y160893749D01*
X206241814Y160894401D01*
X204676616Y161352808D01*
X204674322Y161353504D01*
X203118249Y161842087D01*
X203115969Y161842827D01*
X201652016Y162333767D01*
X201623424Y162343356D01*
X201618212Y162345234D01*
X201609211Y162348708D01*
X201597946Y162355212D01*
X201579662Y162360111D01*
X201573493Y162362492D01*
X201572371Y162363352D01*
X201566115Y162365617D01*
X201554929Y162370787D01*
X201554930Y162370787D01*
X201553326Y162371064D01*
X201551956Y162371301D01*
X201527015Y162378363D01*
X201353028Y162447987D01*
X201265955Y162482831D01*
X201255263Y162487710D01*
X200970805Y162634170D01*
X200960621Y162640039D01*
X200691303Y162812779D01*
X200681730Y162819580D01*
X200429977Y163017044D01*
X200421084Y163024728D01*
X200189162Y163245135D01*
X200181035Y163253627D01*
X199971023Y163495005D01*
X199963736Y163504228D01*
X199777517Y163764414D01*
X199771151Y163774264D01*
X199610393Y164050929D01*
X199604988Y164061338D01*
X199471148Y164351982D01*
X199466754Y164362855D01*
X199361040Y164664848D01*
X199357693Y164676088D01*
X199281040Y164986765D01*
X199278776Y164998262D01*
X199231885Y165314784D01*
X199230719Y165326440D01*
X199213853Y165648945D01*
X199213686Y165654755D01*
X199213383Y165717744D01*
X199213382Y165717745D01*
X199205006Y167449768D01*
X199224367Y167516898D01*
X199267002Y167557749D01*
X199291331Y167571794D01*
X199369978Y167626863D01*
X199443527Y167688578D01*
X199511417Y167756469D01*
X199573131Y167830018D01*
X199628200Y167908667D01*
X199676204Y167991816D01*
X199716778Y168078833D01*
X199749613Y168169055D01*
X199774460Y168261795D01*
X199791129Y168356348D01*
X199799493Y168451994D01*
X199800000Y168500000D01*
X199800000Y174100000D01*
X199799550Y174148006D01*
X199791178Y174243651D01*
X199774502Y174338204D01*
X199749649Y174430943D01*
X199716807Y174521163D01*
X199676228Y174608177D01*
X199628219Y174691324D01*
X199573146Y174769970D01*
X199573141Y174769976D01*
X199573139Y174769979D01*
X199511444Y174843500D01*
X199511436Y174843509D01*
X199511429Y174843517D01*
X199443536Y174911405D01*
X199443532Y174911409D01*
X199443526Y174911414D01*
X199369991Y174973112D01*
X199369990Y174973113D01*
X199369985Y174973117D01*
X199291335Y175028185D01*
X199229677Y175063781D01*
X199181460Y175114347D01*
X199167675Y175170570D01*
X199167643Y175177142D01*
X199088383Y191569571D01*
X199107744Y191636703D01*
X199141259Y191671744D01*
X199141327Y191671793D01*
X199141331Y191671794D01*
X199219978Y191726863D01*
X199293527Y191788578D01*
X199361417Y191856469D01*
X199423131Y191930018D01*
X199478200Y192008667D01*
X199526204Y192091816D01*
X199566778Y192178833D01*
X199581095Y192218171D01*
X199593067Y192251069D01*
X199599613Y192269055D01*
X199624460Y192361795D01*
X199641129Y192456348D01*
X199649493Y192551994D01*
X199650000Y192600000D01*
X199650000Y198200000D01*
X199649550Y198248006D01*
X199641178Y198343651D01*
X199624502Y198438204D01*
X199599649Y198530943D01*
X199566807Y198621163D01*
X199526228Y198708177D01*
X199478219Y198791324D01*
X199423146Y198869970D01*
X199423141Y198869976D01*
X199423139Y198869979D01*
X199361444Y198943500D01*
X199361436Y198943509D01*
X199361429Y198943517D01*
X199293536Y199011405D01*
X199293532Y199011409D01*
X199293526Y199011414D01*
X199219991Y199073112D01*
X199219990Y199073113D01*
X199219985Y199073117D01*
X199141335Y199128185D01*
X199113243Y199144403D01*
X199105164Y199152876D01*
X199094492Y199157687D01*
X199081494Y199177699D01*
X199065027Y199194968D01*
X199061843Y199207955D01*
X199056434Y199216282D01*
X199051242Y199251192D01*
X199051220Y199255670D01*
X199050576Y199388997D01*
X199050658Y199394107D01*
X199066965Y199840637D01*
X199067759Y199850814D01*
X199120584Y200291966D01*
X199122219Y200302063D01*
X199211291Y200737333D01*
X199213758Y200747280D01*
X199218515Y200763545D01*
X199338469Y201173705D01*
X199341747Y201183405D01*
X199347570Y201198544D01*
X199501250Y201598086D01*
X199505307Y201607457D01*
X199698513Y202007557D01*
X199703326Y202016554D01*
X199928922Y202399351D01*
X199934456Y202407912D01*
X200190885Y202770759D01*
X200197121Y202778853D01*
X200482643Y203119293D01*
X200489527Y203126843D01*
X200802168Y203442521D01*
X200809646Y203449473D01*
X201147305Y203738272D01*
X201155338Y203744587D01*
X201515689Y204004512D01*
X201524211Y204010139D01*
X201904798Y204239420D01*
X201913747Y204244319D01*
X202311976Y204441393D01*
X202321303Y204445538D01*
X202734429Y204609045D01*
X202744088Y204612412D01*
X203169293Y204741243D01*
X203179193Y204743802D01*
X203613592Y204837080D01*
X203623658Y204838811D01*
X204064281Y204895900D01*
X204074469Y204896794D01*
X204520862Y204917419D01*
X204525922Y204917549D01*
X204568628Y204917755D01*
X204589300Y204917854D01*
X204589300Y204917855D01*
X204640469Y204918100D01*
X204640481Y204918103D01*
X213236291Y204959665D01*
X213303424Y204940304D01*
G37*
%TD.AperFunction*%
%TA.AperFunction,Conductor*%
G36*
X211701257Y162779815D02*
G01*
X211721899Y162763181D01*
X212972899Y161512181D01*
X213006384Y161450858D01*
X213001400Y161381166D01*
X212959528Y161325233D01*
X212894064Y161300816D01*
X212885218Y161300500D01*
X211465782Y161300500D01*
X211398743Y161320185D01*
X211378101Y161336819D01*
X210127101Y162587819D01*
X210093616Y162649142D01*
X210098600Y162718834D01*
X210140472Y162774767D01*
X210205936Y162799184D01*
X210214782Y162799500D01*
X211634218Y162799500D01*
X211701257Y162779815D01*
G37*
%TD.AperFunction*%
%TA.AperFunction,Conductor*%
G36*
X212225382Y189359252D02*
G01*
X212231860Y189353220D01*
X214263181Y187321899D01*
X214296666Y187260576D01*
X214299500Y187234218D01*
X214299500Y182901459D01*
X214299500Y182901457D01*
X214299499Y182901457D01*
X214337947Y182708171D01*
X214337950Y182708161D01*
X214413364Y182526093D01*
X214413371Y182526080D01*
X214522860Y182362219D01*
X214522863Y182362215D01*
X214666537Y182218541D01*
X214666559Y182218521D01*
X215919735Y180965345D01*
X215919764Y180965314D01*
X216062214Y180822864D01*
X216062218Y180822861D01*
X216129967Y180777592D01*
X216174772Y180723980D01*
X216183479Y180654655D01*
X216153324Y180591627D01*
X216093881Y180554908D01*
X216061076Y180550490D01*
X216057960Y180550490D01*
X215983733Y180543180D01*
X215909504Y180535869D01*
X215719025Y180478087D01*
X215543485Y180384259D01*
X215543478Y180384255D01*
X215389611Y180257979D01*
X215263335Y180104112D01*
X215263331Y180104105D01*
X215169503Y179928565D01*
X215111721Y179738086D01*
X215111721Y179738083D01*
X215097100Y179589630D01*
X215097100Y178810350D01*
X215104485Y178735372D01*
X215111721Y178661895D01*
X215169503Y178471416D01*
X215263331Y178295876D01*
X215263335Y178295869D01*
X215389611Y178142002D01*
X215543478Y178015726D01*
X215543485Y178015722D01*
X215598167Y177986494D01*
X215719027Y177921893D01*
X215909507Y177864111D01*
X216057960Y177849490D01*
X216381818Y177849490D01*
X216411258Y177840846D01*
X216441245Y177834322D01*
X216446260Y177830568D01*
X216448857Y177829805D01*
X216469499Y177813171D01*
X216563181Y177719489D01*
X216596666Y177658166D01*
X216599500Y177631808D01*
X216599500Y177298541D01*
X216599500Y177101459D01*
X216599500Y177101457D01*
X216599499Y177101457D01*
X216637947Y176908171D01*
X216637950Y176908161D01*
X216713364Y176726093D01*
X216713371Y176726080D01*
X216822860Y176562219D01*
X216822863Y176562215D01*
X216835507Y176549571D01*
X216868992Y176488248D01*
X216864008Y176418556D01*
X216822136Y176362623D01*
X216756672Y176338206D01*
X216747826Y176337890D01*
X214289475Y176337890D01*
X213811589Y176300279D01*
X213811570Y176300277D01*
X213338105Y176225288D01*
X212871981Y176113381D01*
X212871975Y176113380D01*
X212871970Y176113378D01*
X212871958Y176113374D01*
X212416059Y175965245D01*
X211973168Y175781793D01*
X211546022Y175564152D01*
X211546017Y175564149D01*
X211137308Y175313691D01*
X211137297Y175313683D01*
X210749480Y175031918D01*
X210749466Y175031907D01*
X210384957Y174720587D01*
X210384943Y174720574D01*
X210045986Y174381617D01*
X210045973Y174381603D01*
X209734653Y174017094D01*
X209734642Y174017080D01*
X209452877Y173629263D01*
X209452869Y173629252D01*
X209202411Y173220543D01*
X209202408Y173220538D01*
X208984767Y172793392D01*
X208801315Y172350501D01*
X208653186Y171894602D01*
X208653179Y171894579D01*
X208541272Y171428455D01*
X208466283Y170954990D01*
X208466281Y170954971D01*
X208428670Y170477085D01*
X208428670Y169997696D01*
X208466281Y169519810D01*
X208466283Y169519791D01*
X208541272Y169046326D01*
X208653179Y168580202D01*
X208653182Y168580190D01*
X208653186Y168580179D01*
X208801315Y168124280D01*
X208820140Y168078833D01*
X208984768Y167681386D01*
X209202401Y167254256D01*
X209202408Y167254243D01*
X209202411Y167254238D01*
X209452869Y166845529D01*
X209452877Y166845518D01*
X209731362Y166462215D01*
X209734648Y166457693D01*
X210045979Y166093171D01*
X210384951Y165754199D01*
X210749473Y165442868D01*
X211137299Y165161096D01*
X211137303Y165161094D01*
X211137308Y165161090D01*
X211350856Y165030227D01*
X211397731Y164978415D01*
X211409154Y164909485D01*
X211381496Y164845323D01*
X211323541Y164806298D01*
X211286066Y164800500D01*
X209765782Y164800500D01*
X209698743Y164820185D01*
X209678101Y164836819D01*
X206936819Y167578101D01*
X206903334Y167639424D01*
X206900500Y167665782D01*
X206900500Y173734218D01*
X206920185Y173801257D01*
X206936819Y173821899D01*
X211277136Y178162215D01*
X211277136Y178162216D01*
X211277139Y178162218D01*
X211354804Y178278452D01*
X211386631Y178326084D01*
X211386636Y178326094D01*
X211446829Y178471416D01*
X211462051Y178508165D01*
X211488084Y178639038D01*
X211500500Y178701457D01*
X211500500Y188521208D01*
X211520185Y188588247D01*
X211572989Y188634002D01*
X211585499Y188638915D01*
X211589331Y188640185D01*
X211589331Y188640186D01*
X211589334Y188640186D01*
X211738656Y188732288D01*
X211862712Y188856344D01*
X211954814Y189005666D01*
X212009999Y189172203D01*
X212017033Y189241062D01*
X212020821Y189278132D01*
X212023787Y189277829D01*
X212039864Y189332578D01*
X212092668Y189378333D01*
X212161826Y189388277D01*
X212225382Y189359252D01*
G37*
%TD.AperFunction*%
%TA.AperFunction,Conductor*%
G36*
X246392523Y205117315D02*
G01*
X246393614Y205117091D01*
X246433746Y205119501D01*
X246445680Y205119640D01*
X246880944Y205103744D01*
X246891120Y205102950D01*
X247332267Y205050125D01*
X247342378Y205048488D01*
X247777646Y204959416D01*
X247787555Y204956958D01*
X248214000Y204832241D01*
X248223708Y204828961D01*
X248638380Y204669461D01*
X248647769Y204665396D01*
X249047850Y204472199D01*
X249056849Y204467386D01*
X249439661Y204241782D01*
X249448226Y204236244D01*
X249768153Y204010148D01*
X249811050Y203979832D01*
X249819168Y203973577D01*
X250159583Y203688076D01*
X250167156Y203681171D01*
X250482811Y203368555D01*
X250489789Y203361049D01*
X250778571Y203023411D01*
X250784904Y203015354D01*
X251044805Y202655039D01*
X251050452Y202646486D01*
X251279707Y202265945D01*
X251284629Y202256956D01*
X251481688Y201858762D01*
X251485850Y201849397D01*
X251649352Y201436294D01*
X251652726Y201426616D01*
X251781551Y201001435D01*
X251784115Y200991513D01*
X251877390Y200557143D01*
X251879126Y200547043D01*
X251936214Y200106450D01*
X251937110Y200096240D01*
X251957736Y199649890D01*
X251957867Y199644765D01*
X251959733Y199258675D01*
X251940372Y199191541D01*
X251897737Y199150690D01*
X251858694Y199128148D01*
X251780055Y199073085D01*
X251706523Y199011384D01*
X251706501Y199011364D01*
X251638642Y198943507D01*
X251638618Y198943481D01*
X251576910Y198869942D01*
X251521847Y198791306D01*
X251473834Y198708149D01*
X251473832Y198708145D01*
X251433266Y198621156D01*
X251400418Y198530916D01*
X251375574Y198438207D01*
X251375569Y198438182D01*
X251358897Y198343651D01*
X251358896Y198343645D01*
X251350525Y198248003D01*
X251350006Y198200500D01*
X251350000Y198199964D01*
X251350000Y192600007D01*
X251350580Y192552012D01*
X251350580Y192552002D01*
X251350581Y192551997D01*
X251351824Y192537782D01*
X251358945Y192456351D01*
X251375569Y192362055D01*
X251375613Y192361806D01*
X251376147Y192359814D01*
X251400453Y192269085D01*
X251400457Y192269072D01*
X251404814Y192257101D01*
X251429364Y192189639D01*
X251433294Y192178842D01*
X251433295Y192178840D01*
X251473856Y192091848D01*
X251473857Y192091847D01*
X251473861Y192091839D01*
X251521861Y192008693D01*
X251576926Y191930047D01*
X251625444Y191872221D01*
X251638638Y191856497D01*
X251706513Y191788617D01*
X251706519Y191788612D01*
X251706520Y191788611D01*
X251780063Y191726896D01*
X251858705Y191671827D01*
X251926613Y191632617D01*
X251936398Y191622356D01*
X251949079Y191616012D01*
X251960026Y191597573D01*
X251974827Y191582050D01*
X251978207Y191566952D01*
X251984749Y191555934D01*
X251988532Y191520843D01*
X251980612Y191297270D01*
X251979859Y191287325D01*
X251929872Y190857833D01*
X251928321Y190847980D01*
X251843981Y190423915D01*
X251841644Y190414219D01*
X251723492Y189998293D01*
X251720383Y189988816D01*
X251569186Y189583732D01*
X251565325Y189574535D01*
X251382056Y189182909D01*
X251377468Y189174053D01*
X251163328Y188798439D01*
X251158044Y188789980D01*
X250914400Y188432781D01*
X250908453Y188424774D01*
X250636887Y188088307D01*
X250630315Y188080804D01*
X250332603Y187767272D01*
X250325450Y187760321D01*
X250003474Y187471704D01*
X249995786Y187465351D01*
X249651674Y187203559D01*
X249643499Y187197844D01*
X249279466Y186964560D01*
X249270859Y186959521D01*
X248889235Y186756238D01*
X248880251Y186751906D01*
X248483529Y186579954D01*
X248474225Y186576359D01*
X248064979Y186436853D01*
X248055417Y186434017D01*
X247636270Y186327850D01*
X247626511Y186325792D01*
X247199278Y186253501D01*
X247196273Y186253030D01*
X247192289Y186252456D01*
X247190361Y186252194D01*
X247124878Y186243807D01*
X247124839Y186243800D01*
X246908309Y186216089D01*
X246893147Y186214148D01*
X246553127Y186150385D01*
X246294389Y186101865D01*
X245703175Y185955070D01*
X245703145Y185955062D01*
X245121448Y185774248D01*
X245121439Y185774245D01*
X244551146Y185559995D01*
X243994269Y185313065D01*
X243452618Y185034258D01*
X243452593Y185034244D01*
X242928045Y184724525D01*
X242928021Y184724510D01*
X242422332Y184384922D01*
X242422305Y184384903D01*
X241937120Y184016550D01*
X241474094Y183620686D01*
X241474061Y183620656D01*
X241034795Y183198650D01*
X241034764Y183198619D01*
X240620681Y182751840D01*
X240233170Y182281783D01*
X240233157Y182281765D01*
X239873566Y181790067D01*
X239543066Y181278323D01*
X239543050Y181278297D01*
X239242792Y180748299D01*
X239242778Y180748274D01*
X238973731Y180201725D01*
X238973719Y180201699D01*
X238736822Y179640515D01*
X238736808Y179640480D01*
X238532827Y179066472D01*
X238362456Y178481587D01*
X238226280Y177887834D01*
X238226276Y177887814D01*
X238187855Y177660391D01*
X238187846Y177660337D01*
X238186517Y177652495D01*
X238186493Y177652440D01*
X238178392Y177604531D01*
X238177841Y177601275D01*
X238177839Y177601272D01*
X238176796Y177595844D01*
X238171110Y177569479D01*
X238170412Y177566430D01*
X238128065Y177391596D01*
X238122798Y177375026D01*
X238051636Y177195801D01*
X238044103Y177180132D01*
X237948578Y177012632D01*
X237938926Y176998169D01*
X237820912Y176845679D01*
X237809334Y176832709D01*
X237671142Y176698214D01*
X237657862Y176686991D01*
X237502226Y176573154D01*
X237487508Y176563899D01*
X237317479Y176472950D01*
X237301611Y176465844D01*
X237120525Y176399567D01*
X237103818Y176394751D01*
X236915257Y176354459D01*
X236898042Y176352026D01*
X236714362Y176339112D01*
X236701327Y176338195D01*
X236692632Y176337890D01*
X228352173Y176337890D01*
X228285134Y176357575D01*
X228239379Y176410379D01*
X228229435Y176479537D01*
X228258460Y176543093D01*
X228264492Y176549571D01*
X228277139Y176562218D01*
X228277139Y176562219D01*
X228287343Y176572423D01*
X228287346Y176572428D01*
X232577139Y180862218D01*
X232643957Y180962219D01*
X232686632Y181026086D01*
X232752593Y181185331D01*
X232762051Y181208164D01*
X232800500Y181401459D01*
X232800500Y181583438D01*
X233737960Y181583438D01*
X233737960Y181291343D01*
X233770659Y181001119D01*
X233770661Y181001107D01*
X233770662Y181001104D01*
X233771247Y180998541D01*
X233835656Y180716346D01*
X233835657Y180716344D01*
X233932125Y180440652D01*
X234058853Y180177500D01*
X234058855Y180177497D01*
X234214252Y179930184D01*
X234396362Y179701825D01*
X234602895Y179495292D01*
X234831254Y179313182D01*
X235078567Y179157785D01*
X235341723Y179031055D01*
X235617415Y178934587D01*
X235902174Y178869592D01*
X235902183Y178869591D01*
X235902188Y178869590D01*
X236095670Y178847791D01*
X236192413Y178836891D01*
X236192416Y178836890D01*
X236192419Y178836890D01*
X236484504Y178836890D01*
X236484505Y178836891D01*
X236632831Y178853603D01*
X236774731Y178869590D01*
X236774734Y178869591D01*
X236774746Y178869592D01*
X237059505Y178934587D01*
X237335197Y179031055D01*
X237598353Y179157785D01*
X237845666Y179313182D01*
X238074025Y179495292D01*
X238280558Y179701825D01*
X238462668Y179930184D01*
X238618065Y180177497D01*
X238744795Y180440653D01*
X238841263Y180716345D01*
X238906258Y181001104D01*
X238909074Y181026091D01*
X238929587Y181208161D01*
X238938960Y181291349D01*
X238938960Y181583431D01*
X238916066Y181786629D01*
X238906260Y181873662D01*
X238906259Y181873667D01*
X238906258Y181873676D01*
X238841263Y182158435D01*
X238744795Y182434127D01*
X238618065Y182697283D01*
X238462668Y182944596D01*
X238280558Y183172955D01*
X238074025Y183379488D01*
X237845666Y183561598D01*
X237598353Y183716995D01*
X237598350Y183716997D01*
X237335198Y183843725D01*
X237059506Y183940193D01*
X237059504Y183940194D01*
X236839740Y183990354D01*
X236774746Y184005188D01*
X236774743Y184005189D01*
X236774731Y184005191D01*
X236484507Y184037890D01*
X236484501Y184037890D01*
X236192419Y184037890D01*
X236192412Y184037890D01*
X235902188Y184005191D01*
X235902174Y184005188D01*
X235617415Y183940194D01*
X235617413Y183940193D01*
X235341721Y183843725D01*
X235078569Y183716997D01*
X234831255Y183561599D01*
X234602895Y183379489D01*
X234396361Y183172955D01*
X234214251Y182944595D01*
X234058853Y182697281D01*
X233932125Y182434129D01*
X233835657Y182158437D01*
X233835656Y182158435D01*
X233770662Y181873676D01*
X233770659Y181873662D01*
X233737960Y181583438D01*
X232800500Y181583438D01*
X232800500Y181598540D01*
X232800500Y191434218D01*
X232820185Y191501257D01*
X232836819Y191521899D01*
X232988229Y191673309D01*
X233187139Y191872218D01*
X233196624Y191886414D01*
X233296632Y192036086D01*
X233348547Y192161423D01*
X233361144Y192191833D01*
X233361145Y192191837D01*
X233372051Y192218164D01*
X233410500Y192411460D01*
X233410500Y192608540D01*
X233410500Y192675216D01*
X233430185Y192742255D01*
X233482989Y192788010D01*
X233552147Y192797954D01*
X233615703Y192768929D01*
X233622181Y192762897D01*
X233762214Y192622864D01*
X233762218Y192622861D01*
X233926079Y192513372D01*
X233926092Y192513365D01*
X234063750Y192456346D01*
X234108165Y192437949D01*
X234108169Y192437949D01*
X234108170Y192437948D01*
X234301456Y192399500D01*
X234301459Y192399500D01*
X234634218Y192399500D01*
X234701257Y192379815D01*
X234721899Y192363181D01*
X234963181Y192121899D01*
X234996666Y192060576D01*
X234999500Y192034218D01*
X234999500Y190731376D01*
X234979815Y190664337D01*
X234963181Y190643695D01*
X234959745Y190640260D01*
X234840614Y190493147D01*
X234754680Y190324488D01*
X234705687Y190141644D01*
X234705687Y190141643D01*
X234699500Y190063027D01*
X234699500Y187736990D01*
X234699501Y187736971D01*
X234705687Y187658357D01*
X234705688Y187658355D01*
X234754680Y187475512D01*
X234776783Y187432132D01*
X234840614Y187306854D01*
X234857842Y187285580D01*
X234959743Y187159743D01*
X235054930Y187082662D01*
X235106853Y187040615D01*
X235179848Y187003423D01*
X235275512Y186954680D01*
X235458355Y186905688D01*
X235536979Y186899500D01*
X236463020Y186899501D01*
X236541645Y186905688D01*
X236724488Y186954680D01*
X236853008Y187020165D01*
X236893146Y187040615D01*
X236893147Y187040617D01*
X236893149Y187040617D01*
X237040257Y187159743D01*
X237159383Y187306851D01*
X237179852Y187347025D01*
X237227825Y187397820D01*
X237295646Y187414616D01*
X237361781Y187392080D01*
X237405233Y187337365D01*
X237410109Y187322831D01*
X237414391Y187306854D01*
X237430448Y187246926D01*
X237430449Y187246925D01*
X237447851Y187216783D01*
X237482659Y187156495D01*
X237556495Y187082659D01*
X237646927Y187030448D01*
X237747790Y187003422D01*
X237800000Y187000000D01*
X237800011Y187000000D01*
X244599989Y187000000D01*
X244600000Y187000000D01*
X244652210Y187003422D01*
X244753073Y187030448D01*
X244843505Y187082659D01*
X244917341Y187156495D01*
X244969552Y187246927D01*
X244996578Y187347790D01*
X245000000Y187400000D01*
X245000000Y191000000D01*
X244996578Y191052210D01*
X244969552Y191153073D01*
X244917341Y191243505D01*
X244843505Y191317341D01*
X244753073Y191369552D01*
X244652210Y191396578D01*
X244600000Y191400000D01*
X237800000Y191400000D01*
X237747790Y191396578D01*
X237646927Y191369552D01*
X237646924Y191369551D01*
X237556498Y191317343D01*
X237556492Y191317339D01*
X237482661Y191243508D01*
X237482657Y191243502D01*
X237430449Y191153076D01*
X237430448Y191153073D01*
X237403422Y191052210D01*
X237400000Y191000000D01*
X237400000Y190999990D01*
X237400000Y190537410D01*
X237380315Y190470371D01*
X237327511Y190424616D01*
X237258353Y190414672D01*
X237194797Y190443697D01*
X237178276Y190461081D01*
X237170930Y190470485D01*
X237159383Y190493149D01*
X237040257Y190640257D01*
X237035007Y190644508D01*
X237026776Y190655047D01*
X237016583Y190680754D01*
X237003334Y190705018D01*
X237001983Y190717575D01*
X237001023Y190719998D01*
X237001475Y190722305D01*
X237000500Y190731376D01*
X237000500Y192598544D01*
X236969550Y192754133D01*
X236967942Y192762219D01*
X236962051Y192791836D01*
X236932967Y192862051D01*
X236931452Y192865709D01*
X236886635Y192973908D01*
X236886628Y192973921D01*
X236777139Y193137782D01*
X236777136Y193137786D01*
X236634686Y193280236D01*
X236634655Y193280265D01*
X235881479Y194033441D01*
X235881459Y194033463D01*
X235737785Y194177137D01*
X235737781Y194177140D01*
X235573920Y194286629D01*
X235573911Y194286634D01*
X235501315Y194316704D01*
X235445165Y194339962D01*
X235391836Y194362051D01*
X235391832Y194362052D01*
X235391828Y194362054D01*
X235295188Y194381276D01*
X235198544Y194400500D01*
X235198541Y194400500D01*
X234814783Y194400500D01*
X234747744Y194420185D01*
X234701989Y194472989D01*
X234692045Y194542147D01*
X234721070Y194605703D01*
X234727102Y194612181D01*
X235177137Y195062216D01*
X235177137Y195062217D01*
X235177140Y195062219D01*
X235286632Y195226086D01*
X235362052Y195408165D01*
X235400501Y195601460D01*
X235400501Y195798541D01*
X235400501Y195803651D01*
X235400500Y195803677D01*
X235400500Y197695862D01*
X235420185Y197762901D01*
X235472989Y197808656D01*
X235542147Y197818600D01*
X235605703Y197789575D01*
X235627602Y197764752D01*
X235807778Y197495098D01*
X235807795Y197495075D01*
X236025986Y197229208D01*
X236269177Y196986017D01*
X236269182Y196986013D01*
X236269183Y196986012D01*
X236535050Y196767821D01*
X236821023Y196576740D01*
X236821032Y196576735D01*
X236821034Y196576734D01*
X237124340Y196414613D01*
X237124342Y196414613D01*
X237124348Y196414609D01*
X237442105Y196282990D01*
X237771232Y196183150D01*
X238108560Y196116051D01*
X238450841Y196082340D01*
X238450844Y196082340D01*
X238794776Y196082340D01*
X238794779Y196082340D01*
X239137060Y196116051D01*
X239474388Y196183150D01*
X239803515Y196282990D01*
X240121272Y196414609D01*
X240424597Y196576740D01*
X240710570Y196767821D01*
X240976437Y196986012D01*
X241219638Y197229213D01*
X241437829Y197495080D01*
X241628910Y197781053D01*
X241791041Y198084378D01*
X241922660Y198402135D01*
X242022500Y198731262D01*
X242089599Y199068590D01*
X242123310Y199410871D01*
X242123310Y199754809D01*
X242089599Y200097090D01*
X242022500Y200434418D01*
X241922660Y200763545D01*
X241791041Y201081302D01*
X241728375Y201198541D01*
X241628916Y201384616D01*
X241628915Y201384618D01*
X241628910Y201384627D01*
X241437829Y201670600D01*
X241219638Y201936467D01*
X241219637Y201936468D01*
X241219633Y201936473D01*
X240976442Y202179664D01*
X240710575Y202397855D01*
X240710574Y202397856D01*
X240710570Y202397859D01*
X240424597Y202588940D01*
X240424592Y202588943D01*
X240424585Y202588947D01*
X240121279Y202751068D01*
X240121274Y202751070D01*
X240109082Y202756120D01*
X240048631Y202781160D01*
X239996366Y202802809D01*
X239941963Y202846650D01*
X239919898Y202912945D01*
X239937177Y202980644D01*
X239988315Y203028254D01*
X239995007Y203031358D01*
X240067674Y203062476D01*
X240104167Y203078103D01*
X240274265Y203193228D01*
X240419502Y203338465D01*
X240534627Y203508563D01*
X240615481Y203697375D01*
X240659141Y203898077D01*
X240661890Y203944222D01*
X240661890Y204968869D01*
X240681575Y205035908D01*
X240734379Y205081663D01*
X240785288Y205092868D01*
X244174330Y205109254D01*
X246357538Y205119807D01*
X246357845Y205119788D01*
X246365925Y205119828D01*
X246365927Y205119827D01*
X246367051Y205119833D01*
X246392523Y205117315D01*
G37*
%TD.AperFunction*%
%TA.AperFunction,Conductor*%
G36*
X229303424Y205017666D02*
G01*
X229349434Y204965084D01*
X229360890Y204913028D01*
X229360890Y203944222D01*
X229363639Y203898077D01*
X229363639Y203898073D01*
X229363640Y203898072D01*
X229407297Y203697379D01*
X229407299Y203697372D01*
X229488153Y203508562D01*
X229488155Y203508558D01*
X229513708Y203470804D01*
X229534982Y203404252D01*
X229516898Y203336763D01*
X229498698Y203313621D01*
X227266389Y201081310D01*
X226562220Y200377141D01*
X226562218Y200377139D01*
X226517967Y200332888D01*
X226422859Y200237781D01*
X226313371Y200073921D01*
X226313364Y200073908D01*
X226266858Y199961632D01*
X226266854Y199961621D01*
X226264158Y199955110D01*
X226237949Y199891836D01*
X226218724Y199795188D01*
X226217722Y199790154D01*
X226217721Y199790148D01*
X226199500Y199698545D01*
X226199500Y198220192D01*
X226179815Y198153153D01*
X226127011Y198107398D01*
X226057853Y198097454D01*
X226028048Y198105631D01*
X225891839Y198162050D01*
X225891829Y198162053D01*
X225698543Y198200500D01*
X225698541Y198200500D01*
X225501459Y198200500D01*
X225501457Y198200500D01*
X225308170Y198162053D01*
X225308160Y198162050D01*
X225126092Y198086636D01*
X225126079Y198086629D01*
X224962218Y197977140D01*
X224962214Y197977137D01*
X224822863Y197837786D01*
X224822860Y197837782D01*
X224713371Y197673921D01*
X224713364Y197673908D01*
X224637950Y197491840D01*
X224637947Y197491830D01*
X224599500Y197298544D01*
X224599500Y193801456D01*
X224632023Y193637951D01*
X224632024Y193637951D01*
X224632024Y193637949D01*
X224637949Y193608165D01*
X224637950Y193608163D01*
X224637950Y193608161D01*
X224713364Y193426093D01*
X224713371Y193426080D01*
X224822860Y193262219D01*
X224822863Y193262215D01*
X224966537Y193118541D01*
X224966559Y193118521D01*
X227063181Y191021899D01*
X227077884Y190994972D01*
X227094477Y190969153D01*
X227095368Y190962953D01*
X227096666Y190960576D01*
X227099500Y190934218D01*
X227099500Y190731376D01*
X227079815Y190664337D01*
X227063181Y190643695D01*
X227059745Y190640260D01*
X226940614Y190493146D01*
X226920146Y190452975D01*
X226872171Y190402179D01*
X226804350Y190385385D01*
X226738215Y190407923D01*
X226694765Y190462639D01*
X226689891Y190477165D01*
X226669552Y190553073D01*
X226617341Y190643505D01*
X226543505Y190717341D01*
X226453073Y190769552D01*
X226352210Y190796578D01*
X226300000Y190800000D01*
X219500000Y190800000D01*
X219447790Y190796578D01*
X219346927Y190769552D01*
X219346924Y190769551D01*
X219256498Y190717343D01*
X219256492Y190717339D01*
X219182661Y190643508D01*
X219182657Y190643502D01*
X219130449Y190553076D01*
X219130448Y190553073D01*
X219103422Y190452210D01*
X219100000Y190400000D01*
X219100000Y186800000D01*
X219103422Y186747790D01*
X219130448Y186646927D01*
X219182659Y186556495D01*
X219256495Y186482659D01*
X219346927Y186430448D01*
X219447790Y186403422D01*
X219500000Y186400000D01*
X219500011Y186400000D01*
X226299989Y186400000D01*
X226300000Y186400000D01*
X226352210Y186403422D01*
X226453073Y186430448D01*
X226543505Y186482659D01*
X226617341Y186556495D01*
X226669552Y186646927D01*
X226696578Y186747790D01*
X226700000Y186800000D01*
X226700000Y187262591D01*
X226719685Y187329630D01*
X226772489Y187375385D01*
X226841647Y187385329D01*
X226905203Y187356304D01*
X226934485Y187318885D01*
X226940617Y187306851D01*
X227059743Y187159743D01*
X227154930Y187082662D01*
X227206853Y187040615D01*
X227279848Y187003423D01*
X227375512Y186954680D01*
X227558355Y186905688D01*
X227636979Y186899500D01*
X228563020Y186899501D01*
X228641645Y186905688D01*
X228713409Y186924917D01*
X228783256Y186923254D01*
X228841119Y186884092D01*
X228868623Y186819863D01*
X228869500Y186805142D01*
X228869500Y185535783D01*
X228849815Y185468744D01*
X228833181Y185448102D01*
X223918750Y180533672D01*
X223857427Y180500187D01*
X223795074Y180502692D01*
X223685701Y180535870D01*
X223577177Y180546558D01*
X223537250Y180550490D01*
X222657970Y180550490D01*
X222583743Y180543180D01*
X222509514Y180535869D01*
X222319035Y180478087D01*
X222143495Y180384259D01*
X222143488Y180384255D01*
X221989621Y180257979D01*
X221863345Y180104112D01*
X221863341Y180104105D01*
X221769513Y179928565D01*
X221718665Y179760943D01*
X221680368Y179702505D01*
X221616555Y179674048D01*
X221547488Y179684609D01*
X221495095Y179730834D01*
X221481345Y179760943D01*
X221430496Y179928565D01*
X221336668Y180104105D01*
X221336664Y180104112D01*
X221210388Y180257979D01*
X221056521Y180384255D01*
X221056514Y180384259D01*
X220880974Y180478087D01*
X220690495Y180535869D01*
X220631111Y180541718D01*
X220542040Y180550490D01*
X220542037Y180550490D01*
X220218183Y180550490D01*
X220151144Y180570175D01*
X220130502Y180586809D01*
X218486599Y182230711D01*
X218486596Y182230715D01*
X218486596Y182230714D01*
X218479529Y182237781D01*
X218479529Y182237782D01*
X218340172Y182377139D01*
X218340171Y182377140D01*
X218340170Y182377141D01*
X218176310Y182486629D01*
X218176301Y182486634D01*
X218103705Y182516704D01*
X218047555Y182539962D01*
X217994226Y182562051D01*
X217994222Y182562052D01*
X217994218Y182562054D01*
X217897578Y182581276D01*
X217800934Y182600500D01*
X217800931Y182600500D01*
X217165782Y182600500D01*
X217098743Y182620185D01*
X217078101Y182636819D01*
X216336819Y183378101D01*
X216303334Y183439424D01*
X216300500Y183465782D01*
X216300500Y187798544D01*
X216262052Y187991830D01*
X216262051Y187991831D01*
X216262051Y187991835D01*
X216223698Y188084428D01*
X216186635Y188173908D01*
X216186628Y188173921D01*
X216077139Y188337782D01*
X216077136Y188337786D01*
X215934686Y188480236D01*
X215934655Y188480265D01*
X212368979Y192045941D01*
X212368959Y192045963D01*
X212225285Y192189637D01*
X212225281Y192189640D01*
X212061420Y192299129D01*
X212061407Y192299136D01*
X211909514Y192362051D01*
X211909506Y192362055D01*
X211909506Y192362054D01*
X211897039Y192367219D01*
X211897037Y192367221D01*
X211897036Y192367221D01*
X211881411Y192379815D01*
X211842639Y192411064D01*
X211842638Y192411066D01*
X211842637Y192411067D01*
X211826677Y192459035D01*
X211820579Y192477360D01*
X211820500Y192481777D01*
X211820500Y199204308D01*
X211840185Y199271347D01*
X211856819Y199291989D01*
X213121973Y200557143D01*
X214429534Y201864705D01*
X214448313Y201880117D01*
X214589122Y201974201D01*
X214728479Y202113558D01*
X214728480Y202113560D01*
X214735546Y202120626D01*
X214735548Y202120630D01*
X215529441Y202914521D01*
X215590764Y202948006D01*
X215617122Y202950840D01*
X215668497Y202950840D01*
X215668508Y202950840D01*
X215714653Y202953589D01*
X215890344Y202991809D01*
X215915351Y202997248D01*
X215915358Y202997250D01*
X215983198Y203026301D01*
X216104167Y203078103D01*
X216274265Y203193228D01*
X216419502Y203338465D01*
X216534627Y203508563D01*
X216615481Y203697375D01*
X216659141Y203898077D01*
X216661890Y203944222D01*
X216661890Y204852825D01*
X216681575Y204919864D01*
X216734379Y204965619D01*
X216785288Y204976824D01*
X217236291Y204979005D01*
X217303424Y204959644D01*
X217349434Y204907062D01*
X217360890Y204855006D01*
X217360890Y203944222D01*
X217363639Y203898077D01*
X217363639Y203898073D01*
X217363640Y203898072D01*
X217407297Y203697379D01*
X217407299Y203697372D01*
X217488049Y203508806D01*
X217488153Y203508563D01*
X217509826Y203476540D01*
X217603272Y203338472D01*
X217603280Y203338463D01*
X217748252Y203193491D01*
X217781737Y203132168D01*
X217776753Y203062476D01*
X217734881Y203006543D01*
X217669417Y202982126D01*
X217660571Y202981810D01*
X217451091Y202981810D01*
X217373026Y202974122D01*
X217108810Y202948100D01*
X216771487Y202881002D01*
X216442353Y202781160D01*
X216124595Y202649540D01*
X216124590Y202649538D01*
X215821284Y202487417D01*
X215821266Y202487406D01*
X215535308Y202296335D01*
X215535294Y202296325D01*
X215269427Y202078134D01*
X215026236Y201834943D01*
X214808045Y201569076D01*
X214808035Y201569062D01*
X214616964Y201283104D01*
X214616953Y201283086D01*
X214454832Y200979780D01*
X214454830Y200979775D01*
X214323210Y200662017D01*
X214223368Y200332883D01*
X214156270Y199995560D01*
X214122560Y199653276D01*
X214122560Y199309345D01*
X214156270Y198967061D01*
X214223368Y198629738D01*
X214323210Y198300604D01*
X214454830Y197982846D01*
X214454832Y197982841D01*
X214616949Y197679543D01*
X214616960Y197679523D01*
X214616963Y197679518D01*
X214616964Y197679517D01*
X214808035Y197393559D01*
X214808045Y197393545D01*
X215026236Y197127678D01*
X215269427Y196884487D01*
X215269432Y196884483D01*
X215269433Y196884482D01*
X215535300Y196666291D01*
X215821273Y196475210D01*
X215821282Y196475205D01*
X215821284Y196475204D01*
X216124590Y196313083D01*
X216124592Y196313083D01*
X216124598Y196313079D01*
X216442355Y196181460D01*
X216771482Y196081620D01*
X217108810Y196014521D01*
X217451091Y195980810D01*
X217451094Y195980810D01*
X217795026Y195980810D01*
X217795029Y195980810D01*
X218137310Y196014521D01*
X218474638Y196081620D01*
X218803765Y196181460D01*
X219121522Y196313079D01*
X219424847Y196475210D01*
X219710820Y196666291D01*
X219976687Y196884482D01*
X220219888Y197127683D01*
X220438079Y197393550D01*
X220629160Y197679523D01*
X220637894Y197695862D01*
X220791287Y197982841D01*
X220791291Y197982848D01*
X220922910Y198300605D01*
X221022750Y198629732D01*
X221089849Y198967060D01*
X221123560Y199309341D01*
X221123560Y199653279D01*
X221089849Y199995560D01*
X221022750Y200332888D01*
X220922910Y200662015D01*
X220791291Y200979772D01*
X220785015Y200991513D01*
X220629166Y201283086D01*
X220629165Y201283088D01*
X220629160Y201283097D01*
X220438079Y201569070D01*
X220219888Y201834937D01*
X220219887Y201834938D01*
X220219883Y201834943D01*
X219976692Y202078134D01*
X219710825Y202296325D01*
X219710824Y202296326D01*
X219710820Y202296329D01*
X219424847Y202487410D01*
X219424842Y202487413D01*
X219424835Y202487417D01*
X219121529Y202649538D01*
X219121524Y202649540D01*
X219118289Y202650880D01*
X218970057Y202712280D01*
X218915655Y202756120D01*
X218893590Y202822414D01*
X218910869Y202890113D01*
X218962006Y202937724D01*
X219017511Y202950840D01*
X219668497Y202950840D01*
X219668508Y202950840D01*
X219714653Y202953589D01*
X219890344Y202991809D01*
X219915351Y202997248D01*
X219915358Y202997250D01*
X219983198Y203026301D01*
X220104167Y203078103D01*
X220274265Y203193228D01*
X220419502Y203338465D01*
X220534627Y203508563D01*
X220615481Y203697375D01*
X220659141Y203898077D01*
X220661890Y203944222D01*
X220661890Y204872166D01*
X220681575Y204939205D01*
X220734379Y204984960D01*
X220785288Y204996165D01*
X221236291Y204998346D01*
X221303424Y204978985D01*
X221349434Y204926403D01*
X221360890Y204874347D01*
X221360890Y203944222D01*
X221363639Y203898077D01*
X221363639Y203898073D01*
X221363640Y203898072D01*
X221407297Y203697379D01*
X221407299Y203697372D01*
X221488049Y203508806D01*
X221488153Y203508563D01*
X221509826Y203476540D01*
X221603272Y203338472D01*
X221603277Y203338467D01*
X221603278Y203338465D01*
X221748515Y203193228D01*
X221748516Y203193227D01*
X221748521Y203193223D01*
X221846583Y203126854D01*
X221918613Y203078103D01*
X221947913Y203065556D01*
X222107421Y202997250D01*
X222107428Y202997248D01*
X222145809Y202988899D01*
X222308127Y202953589D01*
X222354272Y202950840D01*
X222354283Y202950840D01*
X223668497Y202950840D01*
X223668508Y202950840D01*
X223714653Y202953589D01*
X223890344Y202991809D01*
X223915351Y202997248D01*
X223915358Y202997250D01*
X223983198Y203026301D01*
X224104167Y203078103D01*
X224274265Y203193228D01*
X224419502Y203338465D01*
X224534627Y203508563D01*
X224615481Y203697375D01*
X224659141Y203898077D01*
X224661890Y203944222D01*
X224661890Y204891507D01*
X224681575Y204958546D01*
X224734379Y205004301D01*
X224785288Y205015506D01*
X229236291Y205037027D01*
X229303424Y205017666D01*
G37*
%TD.AperFunction*%
%TA.AperFunction,Conductor*%
G36*
X233303424Y205037007D02*
G01*
X233349434Y204984425D01*
X233360890Y204932369D01*
X233360890Y203944222D01*
X233363639Y203898077D01*
X233363639Y203898073D01*
X233363640Y203898072D01*
X233407297Y203697379D01*
X233407299Y203697372D01*
X233488049Y203508806D01*
X233488153Y203508563D01*
X233509826Y203476540D01*
X233603272Y203338472D01*
X233603277Y203338467D01*
X233603278Y203338465D01*
X233748515Y203193228D01*
X233918613Y203078103D01*
X233935704Y203070785D01*
X233989580Y203026301D01*
X234010855Y202959749D01*
X234010890Y202956797D01*
X234010890Y202177173D01*
X233991205Y202110134D01*
X233974571Y202089492D01*
X233875638Y201990559D01*
X233762221Y201877142D01*
X233762218Y201877139D01*
X233720022Y201834943D01*
X233622859Y201737781D01*
X233513371Y201573921D01*
X233513364Y201573908D01*
X233437950Y201391840D01*
X233437947Y201391830D01*
X233399500Y201198544D01*
X233399500Y196165784D01*
X233379815Y196098745D01*
X233363181Y196078103D01*
X233001846Y195716769D01*
X232940523Y195683284D01*
X232913165Y195681033D01*
X232913165Y195680500D01*
X231909998Y195680500D01*
X231909980Y195680499D01*
X231807203Y195670000D01*
X231807200Y195669999D01*
X231640668Y195614815D01*
X231640663Y195614813D01*
X231491342Y195522711D01*
X231367289Y195398658D01*
X231275187Y195249337D01*
X231275185Y195249332D01*
X231257706Y195196582D01*
X231217933Y195139137D01*
X231153417Y195112314D01*
X231084641Y195124629D01*
X231033442Y195172172D01*
X231022294Y195196582D01*
X231004814Y195249334D01*
X230912712Y195398656D01*
X230788656Y195522712D01*
X230660988Y195601458D01*
X230639336Y195614813D01*
X230639331Y195614815D01*
X230637862Y195615302D01*
X230472797Y195669999D01*
X230472795Y195670000D01*
X230370010Y195680500D01*
X229369998Y195680500D01*
X229369980Y195680499D01*
X229260468Y195669311D01*
X229260432Y195669661D01*
X229244742Y195668000D01*
X228324500Y195668000D01*
X228257461Y195687685D01*
X228211706Y195740489D01*
X228200500Y195792000D01*
X228200500Y199134218D01*
X228220185Y199201257D01*
X228236819Y199221899D01*
X229994693Y200979772D01*
X231788529Y202773608D01*
X231839493Y202849881D01*
X231898022Y202937476D01*
X231908765Y202963415D01*
X231913814Y202971674D01*
X231932808Y202988899D01*
X231948896Y203008862D01*
X231964123Y203017296D01*
X231965572Y203018609D01*
X231966893Y203018830D01*
X231970794Y203020991D01*
X232104167Y203078103D01*
X232274265Y203193228D01*
X232419502Y203338465D01*
X232534627Y203508563D01*
X232615481Y203697375D01*
X232659141Y203898077D01*
X232661890Y203944222D01*
X232661890Y204930188D01*
X232681575Y204997227D01*
X232734379Y205042982D01*
X232785288Y205054187D01*
X233236291Y205056368D01*
X233303424Y205037007D01*
G37*
%TD.AperFunction*%
%TD*%
M02*
