%TF.GenerationSoftware,KiCad,Pcbnew,10.0.5*%
%TF.CreationDate,2026-07-27T16:40:30-07:00*%
%TF.ProjectId,Vertical,56657274-6963-4616-9c2e-6b696361645f,rev?*%
%TF.SameCoordinates,Original*%
%TF.FileFunction,Legend,Bot*%
%TF.FilePolarity,Positive*%
%FSLAX46Y46*%
G04 Gerber Fmt 4.6, Leading zero omitted, Abs format (unit mm)*
G04 Created by KiCad (PCBNEW 10.0.5) date 2026-07-27 16:40:30*
%MOMM*%
%LPD*%
G01*
G04 APERTURE LIST*
G04 Aperture macros list*
%AMRoundRect*
0 Rectangle with rounded corners*
0 $1 Rounding radius*
0 $2 $3 $4 $5 $6 $7 $8 $9 X,Y pos of 4 corners*
0 Add a 4 corners polygon primitive as box body*
4,1,4,$2,$3,$4,$5,$6,$7,$8,$9,$2,$3,0*
0 Add four circle primitives for the rounded corners*
1,1,$1+$1,$2,$3*
1,1,$1+$1,$4,$5*
1,1,$1+$1,$6,$7*
1,1,$1+$1,$8,$9*
0 Add four rect primitives between the rounded corners*
20,1,$1+$1,$2,$3,$4,$5,0*
20,1,$1+$1,$4,$5,$6,$7,0*
20,1,$1+$1,$6,$7,$8,$9,0*
20,1,$1+$1,$8,$9,$2,$3,0*%
G04 Aperture macros list end*
%ADD10C,0.800000*%
%ADD11C,0.150000*%
%ADD12C,0.158750*%
%ADD13C,0.120000*%
%ADD14C,0.300000*%
%ADD15C,1.000000*%
%ADD16C,0.000000*%
%ADD17RoundRect,0.166200X0.212132X0.721249X-0.721249X-0.212132X-0.212132X-0.721249X0.721249X0.212132X0*%
%ADD18RoundRect,0.166200X0.660000X0.360000X-0.660000X0.360000X-0.660000X-0.360000X0.660000X-0.360000X0*%
%ADD19RoundRect,0.216200X-0.140000X-0.170000X0.140000X-0.170000X0.140000X0.170000X-0.140000X0.170000X0*%
%ADD20RoundRect,0.216200X-0.021213X0.219203X-0.219203X0.021213X0.021213X-0.219203X0.219203X-0.021213X0*%
%ADD21RoundRect,0.651200X-0.575000X-1.425000X0.575000X-1.425000X0.575000X1.425000X-0.575000X1.425000X0*%
%ADD22RoundRect,0.586200X0.390000X-0.340000X0.390000X0.340000X-0.390000X0.340000X-0.390000X-0.340000X0*%
%ADD23RoundRect,0.326200X-0.262500X-0.450000X0.262500X-0.450000X0.262500X0.450000X-0.262500X0.450000X0*%
%ADD24RoundRect,0.476200X0.400000X1.100000X-0.400000X1.100000X-0.400000X-1.100000X0.400000X-1.100000X0*%
%ADD25C,0.153400*%
%ADD26RoundRect,0.596200X-0.280000X-0.980000X0.280000X-0.980000X0.280000X0.980000X-0.280000X0.980000X0*%
%ADD27RoundRect,0.476200X-0.400000X-1.100000X0.400000X-1.100000X0.400000X1.100000X-0.400000X1.100000X0*%
%ADD28RoundRect,0.326200X-0.450000X0.262500X-0.450000X-0.262500X0.450000X-0.262500X0.450000X0.262500X0*%
%ADD29RoundRect,0.326200X0.450000X-0.262500X0.450000X0.262500X-0.450000X0.262500X-0.450000X-0.262500X0*%
%ADD30RoundRect,0.586200X-0.390000X0.340000X-0.390000X-0.340000X0.390000X-0.340000X0.390000X0.340000X0*%
%ADD31RoundRect,0.101600X0.718420X0.000000X0.000000X0.718420X-0.718420X0.000000X0.000000X-0.718420X0*%
G04 APERTURE END LIST*
D10*
X209300000Y185400000D02*
X213300000Y185400000D01*
X209300000Y181400000D02*
X209300000Y185400000D01*
X209300000Y181400000D02*
X213300000Y181400000D01*
X213300000Y181400000D02*
X213300000Y185400000D01*
D11*
X204108643Y168029181D02*
X203401536Y168736287D01*
X203401536Y168736287D02*
X203233177Y168567929D01*
X203233177Y168567929D02*
X203165834Y168433242D01*
X203165834Y168433242D02*
X203165834Y168298555D01*
X203165834Y168298555D02*
X203199506Y168197539D01*
X203199506Y168197539D02*
X203300521Y168029181D01*
X203300521Y168029181D02*
X203401536Y167928165D01*
X203401536Y167928165D02*
X203569895Y167827150D01*
X203569895Y167827150D02*
X203670910Y167793478D01*
X203670910Y167793478D02*
X203805597Y167793478D01*
X203805597Y167793478D02*
X203940284Y167860822D01*
X203940284Y167860822D02*
X204108643Y168029181D01*
X202357712Y167692463D02*
X202694429Y168029181D01*
X202694429Y168029181D02*
X203064819Y167726135D01*
X203064819Y167726135D02*
X202997475Y167726135D01*
X202997475Y167726135D02*
X202896460Y167692463D01*
X202896460Y167692463D02*
X202728101Y167524104D01*
X202728101Y167524104D02*
X202694429Y167423089D01*
X202694429Y167423089D02*
X202694429Y167355746D01*
X202694429Y167355746D02*
X202728101Y167254730D01*
X202728101Y167254730D02*
X202896460Y167086372D01*
X202896460Y167086372D02*
X202997475Y167052700D01*
X202997475Y167052700D02*
X203064819Y167052700D01*
X203064819Y167052700D02*
X203165834Y167086372D01*
X203165834Y167086372D02*
X203334193Y167254730D01*
X203334193Y167254730D02*
X203367864Y167355746D01*
X203367864Y167355746D02*
X203367864Y167423089D01*
X207531612Y168895992D02*
X207854861Y169219241D01*
X207693237Y169057617D02*
X207127551Y169623302D01*
X207127551Y169623302D02*
X207262238Y169596365D01*
X207262238Y169596365D02*
X207369988Y169596365D01*
X207369988Y169596365D02*
X207450800Y169623302D01*
X247118094Y199895181D02*
X247118094Y200895181D01*
X247118094Y200895181D02*
X246879999Y200895181D01*
X246879999Y200895181D02*
X246737142Y200847562D01*
X246737142Y200847562D02*
X246641904Y200752324D01*
X246641904Y200752324D02*
X246594285Y200657086D01*
X246594285Y200657086D02*
X246546666Y200466610D01*
X246546666Y200466610D02*
X246546666Y200323753D01*
X246546666Y200323753D02*
X246594285Y200133277D01*
X246594285Y200133277D02*
X246641904Y200038039D01*
X246641904Y200038039D02*
X246737142Y199942800D01*
X246737142Y199942800D02*
X246879999Y199895181D01*
X246879999Y199895181D02*
X247118094Y199895181D01*
X245689523Y200561848D02*
X245689523Y199895181D01*
X245927618Y200942800D02*
X246165713Y200228515D01*
X246165713Y200228515D02*
X245546666Y200228515D01*
X250151428Y198087705D02*
X250608571Y198087705D01*
X250379999Y198087705D02*
X250379999Y198887705D01*
X250379999Y198887705D02*
X250456190Y198773420D01*
X250456190Y198773420D02*
X250532380Y198697229D01*
X250532380Y198697229D02*
X250608571Y198659134D01*
X206478094Y199895181D02*
X206478094Y200895181D01*
X206478094Y200895181D02*
X206239999Y200895181D01*
X206239999Y200895181D02*
X206097142Y200847562D01*
X206097142Y200847562D02*
X206001904Y200752324D01*
X206001904Y200752324D02*
X205954285Y200657086D01*
X205954285Y200657086D02*
X205906666Y200466610D01*
X205906666Y200466610D02*
X205906666Y200323753D01*
X205906666Y200323753D02*
X205954285Y200133277D01*
X205954285Y200133277D02*
X206001904Y200038039D01*
X206001904Y200038039D02*
X206097142Y199942800D01*
X206097142Y199942800D02*
X206239999Y199895181D01*
X206239999Y199895181D02*
X206478094Y199895181D01*
X205573332Y200895181D02*
X204954285Y200895181D01*
X204954285Y200895181D02*
X205287618Y200514229D01*
X205287618Y200514229D02*
X205144761Y200514229D01*
X205144761Y200514229D02*
X205049523Y200466610D01*
X205049523Y200466610D02*
X205001904Y200418991D01*
X205001904Y200418991D02*
X204954285Y200323753D01*
X204954285Y200323753D02*
X204954285Y200085658D01*
X204954285Y200085658D02*
X205001904Y199990420D01*
X205001904Y199990420D02*
X205049523Y199942800D01*
X205049523Y199942800D02*
X205144761Y199895181D01*
X205144761Y199895181D02*
X205430475Y199895181D01*
X205430475Y199895181D02*
X205525713Y199942800D01*
X205525713Y199942800D02*
X205573332Y199990420D01*
X209511428Y198087705D02*
X209968571Y198087705D01*
X209739999Y198087705D02*
X209739999Y198887705D01*
X209739999Y198887705D02*
X209816190Y198773420D01*
X209816190Y198773420D02*
X209892380Y198697229D01*
X209892380Y198697229D02*
X209968571Y198659134D01*
X209684857Y201824420D02*
X209732476Y201776800D01*
X209732476Y201776800D02*
X209875333Y201729181D01*
X209875333Y201729181D02*
X209970571Y201729181D01*
X209970571Y201729181D02*
X210113428Y201776800D01*
X210113428Y201776800D02*
X210208666Y201872039D01*
X210208666Y201872039D02*
X210256285Y201967277D01*
X210256285Y201967277D02*
X210303904Y202157753D01*
X210303904Y202157753D02*
X210303904Y202300610D01*
X210303904Y202300610D02*
X210256285Y202491086D01*
X210256285Y202491086D02*
X210208666Y202586324D01*
X210208666Y202586324D02*
X210113428Y202681562D01*
X210113428Y202681562D02*
X209970571Y202729181D01*
X209970571Y202729181D02*
X209875333Y202729181D01*
X209875333Y202729181D02*
X209732476Y202681562D01*
X209732476Y202681562D02*
X209684857Y202633943D01*
X209303904Y202633943D02*
X209256285Y202681562D01*
X209256285Y202681562D02*
X209161047Y202729181D01*
X209161047Y202729181D02*
X208922952Y202729181D01*
X208922952Y202729181D02*
X208827714Y202681562D01*
X208827714Y202681562D02*
X208780095Y202633943D01*
X208780095Y202633943D02*
X208732476Y202538705D01*
X208732476Y202538705D02*
X208732476Y202443467D01*
X208732476Y202443467D02*
X208780095Y202300610D01*
X208780095Y202300610D02*
X209351523Y201729181D01*
X209351523Y201729181D02*
X208732476Y201729181D01*
X208113428Y202729181D02*
X208018190Y202729181D01*
X208018190Y202729181D02*
X207922952Y202681562D01*
X207922952Y202681562D02*
X207875333Y202633943D01*
X207875333Y202633943D02*
X207827714Y202538705D01*
X207827714Y202538705D02*
X207780095Y202348229D01*
X207780095Y202348229D02*
X207780095Y202110134D01*
X207780095Y202110134D02*
X207827714Y201919658D01*
X207827714Y201919658D02*
X207875333Y201824420D01*
X207875333Y201824420D02*
X207922952Y201776800D01*
X207922952Y201776800D02*
X208018190Y201729181D01*
X208018190Y201729181D02*
X208113428Y201729181D01*
X208113428Y201729181D02*
X208208666Y201776800D01*
X208208666Y201776800D02*
X208256285Y201824420D01*
X208256285Y201824420D02*
X208303904Y201919658D01*
X208303904Y201919658D02*
X208351523Y202110134D01*
X208351523Y202110134D02*
X208351523Y202348229D01*
X208351523Y202348229D02*
X208303904Y202538705D01*
X208303904Y202538705D02*
X208256285Y202633943D01*
X208256285Y202633943D02*
X208208666Y202681562D01*
X208208666Y202681562D02*
X208113428Y202729181D01*
X249054857Y201316420D02*
X249102476Y201268800D01*
X249102476Y201268800D02*
X249245333Y201221181D01*
X249245333Y201221181D02*
X249340571Y201221181D01*
X249340571Y201221181D02*
X249483428Y201268800D01*
X249483428Y201268800D02*
X249578666Y201364039D01*
X249578666Y201364039D02*
X249626285Y201459277D01*
X249626285Y201459277D02*
X249673904Y201649753D01*
X249673904Y201649753D02*
X249673904Y201792610D01*
X249673904Y201792610D02*
X249626285Y201983086D01*
X249626285Y201983086D02*
X249578666Y202078324D01*
X249578666Y202078324D02*
X249483428Y202173562D01*
X249483428Y202173562D02*
X249340571Y202221181D01*
X249340571Y202221181D02*
X249245333Y202221181D01*
X249245333Y202221181D02*
X249102476Y202173562D01*
X249102476Y202173562D02*
X249054857Y202125943D01*
X248673904Y202125943D02*
X248626285Y202173562D01*
X248626285Y202173562D02*
X248531047Y202221181D01*
X248531047Y202221181D02*
X248292952Y202221181D01*
X248292952Y202221181D02*
X248197714Y202173562D01*
X248197714Y202173562D02*
X248150095Y202125943D01*
X248150095Y202125943D02*
X248102476Y202030705D01*
X248102476Y202030705D02*
X248102476Y201935467D01*
X248102476Y201935467D02*
X248150095Y201792610D01*
X248150095Y201792610D02*
X248721523Y201221181D01*
X248721523Y201221181D02*
X248102476Y201221181D01*
X247769142Y202221181D02*
X247150095Y202221181D01*
X247150095Y202221181D02*
X247483428Y201840229D01*
X247483428Y201840229D02*
X247340571Y201840229D01*
X247340571Y201840229D02*
X247245333Y201792610D01*
X247245333Y201792610D02*
X247197714Y201744991D01*
X247197714Y201744991D02*
X247150095Y201649753D01*
X247150095Y201649753D02*
X247150095Y201411658D01*
X247150095Y201411658D02*
X247197714Y201316420D01*
X247197714Y201316420D02*
X247245333Y201268800D01*
X247245333Y201268800D02*
X247340571Y201221181D01*
X247340571Y201221181D02*
X247626285Y201221181D01*
X247626285Y201221181D02*
X247721523Y201268800D01*
X247721523Y201268800D02*
X247769142Y201316420D01*
X205797175Y171369140D02*
X205864519Y171369140D01*
X205864519Y171369140D02*
X205999206Y171436484D01*
X205999206Y171436484D02*
X206066549Y171503827D01*
X206066549Y171503827D02*
X206133893Y171638514D01*
X206133893Y171638514D02*
X206133893Y171773201D01*
X206133893Y171773201D02*
X206100221Y171874216D01*
X206100221Y171874216D02*
X205999206Y172042575D01*
X205999206Y172042575D02*
X205898191Y172143590D01*
X205898191Y172143590D02*
X205729832Y172244606D01*
X205729832Y172244606D02*
X205628817Y172278277D01*
X205628817Y172278277D02*
X205494130Y172278277D01*
X205494130Y172278277D02*
X205359443Y172210934D01*
X205359443Y172210934D02*
X205292099Y172143590D01*
X205292099Y172143590D02*
X205224756Y172008903D01*
X205224756Y172008903D02*
X205224756Y171941560D01*
X204955382Y171672186D02*
X204888038Y171672186D01*
X204888038Y171672186D02*
X204787023Y171638514D01*
X204787023Y171638514D02*
X204618664Y171470155D01*
X204618664Y171470155D02*
X204584992Y171369140D01*
X204584992Y171369140D02*
X204584992Y171301797D01*
X204584992Y171301797D02*
X204618664Y171200781D01*
X204618664Y171200781D02*
X204686008Y171133438D01*
X204686008Y171133438D02*
X204820695Y171066094D01*
X204820695Y171066094D02*
X205628817Y171066094D01*
X205628817Y171066094D02*
X205191084Y170628362D01*
X203844214Y170695705D02*
X204180931Y171032423D01*
X204180931Y171032423D02*
X204551320Y170729377D01*
X204551320Y170729377D02*
X204483977Y170729377D01*
X204483977Y170729377D02*
X204382962Y170695705D01*
X204382962Y170695705D02*
X204214603Y170527346D01*
X204214603Y170527346D02*
X204180931Y170426331D01*
X204180931Y170426331D02*
X204180931Y170358987D01*
X204180931Y170358987D02*
X204214603Y170257972D01*
X204214603Y170257972D02*
X204382962Y170089613D01*
X204382962Y170089613D02*
X204483977Y170055942D01*
X204483977Y170055942D02*
X204551320Y170055942D01*
X204551320Y170055942D02*
X204652336Y170089613D01*
X204652336Y170089613D02*
X204820694Y170257972D01*
X204820694Y170257972D02*
X204854366Y170358987D01*
X204854366Y170358987D02*
X204854366Y170426331D01*
D12*
G36*
X243022827Y200334105D02*
G01*
X243054656Y200327053D01*
X243083855Y200317946D01*
X243108784Y200307561D01*
X243131429Y200295359D01*
X243150842Y200282065D01*
X243168204Y200267112D01*
X243183131Y200250963D01*
X243196126Y200233226D01*
X243216339Y200192978D01*
X243229126Y200144992D01*
X243233938Y200087370D01*
X243233949Y200084287D01*
X243232712Y200053044D01*
X243229013Y200023381D01*
X243223151Y199996395D01*
X243215049Y199970977D01*
X243205092Y199947922D01*
X243193070Y199926433D01*
X243179326Y199906970D01*
X243163637Y199889094D01*
X243153067Y199878943D01*
X243110113Y199846071D01*
X243059380Y199819720D01*
X243001259Y199800765D01*
X242936484Y199790188D01*
X242892548Y199788251D01*
X242857362Y199789485D01*
X242823425Y199793154D01*
X242791362Y199799099D01*
X242760723Y199807317D01*
X242732187Y199817531D01*
X242705222Y199829845D01*
X242680470Y199843880D01*
X242657410Y199859847D01*
X242632028Y199881579D01*
X242614686Y199900381D01*
X242599679Y199920404D01*
X242587302Y199941093D01*
X242577061Y199963071D01*
X242562799Y200011413D01*
X242556686Y200067920D01*
X242556497Y200080720D01*
X242557738Y200112766D01*
X242561462Y200142795D01*
X242567251Y200169278D01*
X242575251Y200193966D01*
X242584983Y200215920D01*
X242596743Y200236228D01*
X242610194Y200254484D01*
X242625583Y200271168D01*
X242662207Y200299842D01*
X242707756Y200322678D01*
X242763939Y200339463D01*
X242812791Y200347444D01*
X242812791Y200262103D01*
X242774028Y200254562D01*
X242742142Y200245385D01*
X242712677Y200232751D01*
X242696329Y200223172D01*
X242681632Y200211725D01*
X242657279Y200183451D01*
X242640033Y200148235D01*
X242630725Y200106349D01*
X242629392Y200081612D01*
X242630621Y200057663D01*
X242634264Y200034904D01*
X242640148Y200013696D01*
X242648243Y199993746D01*
X242670708Y199957948D01*
X242701494Y199927496D01*
X242740785Y199902715D01*
X242788890Y199884335D01*
X242846001Y199873429D01*
X242893440Y199870917D01*
X242928753Y199872146D01*
X242961928Y199875791D01*
X242991894Y199881549D01*
X243019697Y199889443D01*
X243044331Y199898998D01*
X243066816Y199910420D01*
X243086353Y199923122D01*
X243103771Y199937455D01*
X243118559Y199952847D01*
X243131241Y199969680D01*
X243141582Y199987558D01*
X243149783Y200006742D01*
X243159535Y200048760D01*
X243161016Y200074517D01*
X243156213Y200124831D01*
X243150428Y200147711D01*
X243142545Y200168501D01*
X243133448Y200185493D01*
X243122738Y200199841D01*
X243120265Y200202508D01*
X243106423Y200215590D01*
X243090702Y200226488D01*
X243054329Y200241881D01*
X243022827Y200249657D01*
X243022827Y200334105D01*
G37*
G36*
X243224023Y200686790D02*
G01*
X242768705Y200686790D01*
X242730463Y200685451D01*
X242700628Y200681045D01*
X242683625Y200675795D01*
X242669118Y200668535D01*
X242665761Y200666356D01*
X242645626Y200647720D01*
X242631553Y200621514D01*
X242627519Y200606177D01*
X242625860Y200590008D01*
X242625825Y200587258D01*
X242627057Y200569495D01*
X242630724Y200553413D01*
X242636361Y200539840D01*
X242644074Y200527831D01*
X242665038Y200508981D01*
X242694364Y200496285D01*
X242733809Y200490500D01*
X242742959Y200490324D01*
X242784680Y200490324D01*
X242784680Y200405875D01*
X242727877Y200405875D01*
X242704311Y200407103D01*
X242682186Y200410737D01*
X242662060Y200416528D01*
X242643456Y200424466D01*
X242626731Y200434286D01*
X242611615Y200446043D01*
X242586613Y200474901D01*
X242568677Y200510922D01*
X242558477Y200554242D01*
X242556497Y200586366D01*
X242557725Y200611588D01*
X242561357Y200635228D01*
X242567129Y200656656D01*
X242575034Y200676444D01*
X242584762Y200694146D01*
X242596395Y200710150D01*
X242609697Y200724233D01*
X242624730Y200736531D01*
X242659802Y200755552D01*
X242701706Y200766756D01*
X242738539Y200769494D01*
X243224023Y200769494D01*
X243224023Y200686790D01*
G37*
G36*
X243034149Y201065220D02*
G01*
X242576350Y201065220D01*
X242576350Y201143426D01*
X243219060Y201143426D01*
X243219060Y201091896D01*
X243174688Y201077741D01*
X243143129Y201061764D01*
X243131399Y201052088D01*
X243121772Y201040649D01*
X243107957Y201012215D01*
X243096932Y200965338D01*
X243091068Y200925635D01*
X243034149Y200925635D01*
X243034149Y201065220D01*
G37*
G36*
X235174227Y199902305D02*
G01*
X235206056Y199895253D01*
X235235255Y199886146D01*
X235260184Y199875761D01*
X235282829Y199863559D01*
X235302242Y199850265D01*
X235319604Y199835312D01*
X235334531Y199819163D01*
X235347526Y199801426D01*
X235367739Y199761178D01*
X235380526Y199713192D01*
X235385338Y199655570D01*
X235385349Y199652487D01*
X235384112Y199621244D01*
X235380413Y199591581D01*
X235374551Y199564595D01*
X235366449Y199539177D01*
X235356492Y199516122D01*
X235344470Y199494633D01*
X235330726Y199475170D01*
X235315037Y199457294D01*
X235304467Y199447143D01*
X235261513Y199414271D01*
X235210780Y199387920D01*
X235152659Y199368965D01*
X235087884Y199358388D01*
X235043948Y199356451D01*
X235008762Y199357685D01*
X234974825Y199361354D01*
X234942762Y199367299D01*
X234912123Y199375517D01*
X234883587Y199385731D01*
X234856622Y199398045D01*
X234831870Y199412080D01*
X234808810Y199428047D01*
X234783428Y199449779D01*
X234766086Y199468581D01*
X234751079Y199488604D01*
X234738702Y199509293D01*
X234728461Y199531271D01*
X234714199Y199579613D01*
X234708086Y199636120D01*
X234707897Y199648920D01*
X234709138Y199680966D01*
X234712862Y199710995D01*
X234718651Y199737478D01*
X234726651Y199762166D01*
X234736383Y199784120D01*
X234748143Y199804428D01*
X234761594Y199822684D01*
X234776983Y199839368D01*
X234813607Y199868042D01*
X234859156Y199890878D01*
X234915339Y199907663D01*
X234964191Y199915644D01*
X234964191Y199830303D01*
X234925428Y199822762D01*
X234893542Y199813585D01*
X234864077Y199800951D01*
X234847729Y199791372D01*
X234833032Y199779925D01*
X234808679Y199751651D01*
X234791433Y199716435D01*
X234782125Y199674549D01*
X234780792Y199649812D01*
X234782021Y199625863D01*
X234785664Y199603104D01*
X234791548Y199581896D01*
X234799643Y199561946D01*
X234822108Y199526148D01*
X234852894Y199495696D01*
X234892185Y199470915D01*
X234940290Y199452535D01*
X234997401Y199441629D01*
X235044840Y199439117D01*
X235080153Y199440346D01*
X235113328Y199443991D01*
X235143294Y199449749D01*
X235171097Y199457643D01*
X235195731Y199467198D01*
X235218216Y199478620D01*
X235237753Y199491322D01*
X235255171Y199505655D01*
X235269959Y199521047D01*
X235282641Y199537880D01*
X235292982Y199555758D01*
X235301183Y199574942D01*
X235310935Y199616960D01*
X235312416Y199642717D01*
X235307613Y199693031D01*
X235301828Y199715911D01*
X235293945Y199736701D01*
X235284848Y199753693D01*
X235274138Y199768041D01*
X235271665Y199770708D01*
X235257823Y199783790D01*
X235242102Y199794688D01*
X235205729Y199810081D01*
X235174227Y199817857D01*
X235174227Y199902305D01*
G37*
G36*
X235375423Y200254990D02*
G01*
X234920105Y200254990D01*
X234881863Y200253651D01*
X234852028Y200249245D01*
X234835025Y200243995D01*
X234820518Y200236735D01*
X234817161Y200234556D01*
X234797026Y200215920D01*
X234782953Y200189714D01*
X234778919Y200174377D01*
X234777260Y200158208D01*
X234777225Y200155458D01*
X234778457Y200137695D01*
X234782124Y200121613D01*
X234787761Y200108040D01*
X234795474Y200096031D01*
X234816438Y200077181D01*
X234845764Y200064485D01*
X234885209Y200058700D01*
X234894359Y200058524D01*
X234936080Y200058524D01*
X234936080Y199974075D01*
X234879277Y199974075D01*
X234855711Y199975303D01*
X234833586Y199978937D01*
X234813460Y199984728D01*
X234794856Y199992666D01*
X234778131Y200002486D01*
X234763015Y200014243D01*
X234738013Y200043101D01*
X234720077Y200079122D01*
X234709877Y200122442D01*
X234707897Y200154566D01*
X234709125Y200179788D01*
X234712757Y200203428D01*
X234718529Y200224856D01*
X234726434Y200244644D01*
X234736162Y200262346D01*
X234747795Y200278350D01*
X234761097Y200292433D01*
X234776130Y200304731D01*
X234811202Y200323752D01*
X234853106Y200334956D01*
X234889939Y200337694D01*
X235375423Y200337694D01*
X235375423Y200254990D01*
G37*
G36*
X235024057Y200599648D02*
G01*
X235024057Y200609419D01*
X235024057Y200642299D01*
X235022819Y200667104D01*
X235019116Y200689389D01*
X235013585Y200707534D01*
X235006020Y200723519D01*
X234997125Y200736474D01*
X234986477Y200747500D01*
X234960735Y200763361D01*
X234927643Y200771769D01*
X234906845Y200772966D01*
X234885374Y200771738D01*
X234865606Y200768108D01*
X234848297Y200762434D01*
X234832700Y200754686D01*
X234819260Y200745247D01*
X234807563Y200733983D01*
X234789760Y200706475D01*
X234779467Y200671908D01*
X234777225Y200643191D01*
X234778472Y200619227D01*
X234782240Y200597753D01*
X234787807Y200580552D01*
X234795467Y200565292D01*
X234804607Y200552686D01*
X234815647Y200541742D01*
X234843467Y200524757D01*
X234881344Y200513666D01*
X234914832Y200509848D01*
X234914832Y200431603D01*
X234879123Y200435322D01*
X234848975Y200441149D01*
X234826044Y200448112D01*
X234805697Y200456847D01*
X234801187Y200459171D01*
X234783114Y200470126D01*
X234766985Y200482837D01*
X234753076Y200496962D01*
X234741031Y200512728D01*
X234722437Y200549353D01*
X234711159Y200593885D01*
X234707897Y200639623D01*
X234709125Y200667196D01*
X234712753Y200693214D01*
X234718558Y200717109D01*
X234726513Y200739349D01*
X234736319Y200759453D01*
X234748045Y200777816D01*
X234761387Y200794110D01*
X234776452Y200808573D01*
X234793031Y200821039D01*
X234811172Y200831563D01*
X234851965Y200846519D01*
X234898775Y200852841D01*
X234907736Y200852994D01*
X234934527Y200851733D01*
X234958525Y200847869D01*
X234977372Y200842256D01*
X234994338Y200834476D01*
X235008649Y200825135D01*
X235021510Y200813748D01*
X235043430Y200784307D01*
X235060465Y200746328D01*
X235069748Y200765774D01*
X235080721Y200782793D01*
X235092581Y200796586D01*
X235105936Y200808233D01*
X235136262Y200824771D01*
X235172871Y200833227D01*
X235193653Y200834305D01*
X235217931Y200833075D01*
X235240652Y200829426D01*
X235261101Y200823650D01*
X235279980Y200815725D01*
X235296860Y200805956D01*
X235312135Y200794240D01*
X235337520Y200765402D01*
X235356137Y200729056D01*
X235367426Y200684691D01*
X235370460Y200642299D01*
X235369222Y200614260D01*
X235365520Y200588314D01*
X235359810Y200565850D01*
X235351952Y200545258D01*
X235342458Y200527352D01*
X235331030Y200511173D01*
X235303089Y200484526D01*
X235267520Y200464479D01*
X235222958Y200451039D01*
X235167551Y200445041D01*
X235163487Y200444941D01*
X235163487Y200523186D01*
X235200635Y200525444D01*
X235228248Y200530977D01*
X235244252Y200537416D01*
X235268902Y200554822D01*
X235287435Y200579862D01*
X235298883Y200612113D01*
X235301986Y200643191D01*
X235300759Y200663065D01*
X235297135Y200681218D01*
X235291502Y200696891D01*
X235283827Y200710837D01*
X235274498Y200722647D01*
X235263382Y200732695D01*
X235236155Y200747203D01*
X235201717Y200753968D01*
X235190977Y200754316D01*
X235170512Y200753064D01*
X235152661Y200749265D01*
X235139052Y200743785D01*
X235127262Y200736251D01*
X235109471Y200715983D01*
X235103077Y200703638D01*
X235093902Y200667480D01*
X235089778Y200599648D01*
X235024057Y200599648D01*
G37*
G36*
X232062377Y199188505D02*
G01*
X232094206Y199181453D01*
X232123405Y199172346D01*
X232148334Y199161961D01*
X232170979Y199149759D01*
X232190392Y199136465D01*
X232207754Y199121512D01*
X232222681Y199105363D01*
X232235676Y199087626D01*
X232255889Y199047378D01*
X232268676Y198999392D01*
X232273488Y198941770D01*
X232273499Y198938687D01*
X232272262Y198907444D01*
X232268563Y198877781D01*
X232262701Y198850795D01*
X232254599Y198825377D01*
X232244642Y198802322D01*
X232232620Y198780833D01*
X232218876Y198761370D01*
X232203187Y198743494D01*
X232192617Y198733343D01*
X232149663Y198700471D01*
X232098930Y198674120D01*
X232040809Y198655165D01*
X231976034Y198644588D01*
X231932098Y198642651D01*
X231896912Y198643885D01*
X231862975Y198647554D01*
X231830912Y198653499D01*
X231800273Y198661717D01*
X231771737Y198671931D01*
X231744772Y198684245D01*
X231720020Y198698280D01*
X231696960Y198714247D01*
X231671578Y198735979D01*
X231654236Y198754781D01*
X231639229Y198774804D01*
X231626852Y198795493D01*
X231616611Y198817471D01*
X231602349Y198865813D01*
X231596236Y198922320D01*
X231596047Y198935120D01*
X231597288Y198967166D01*
X231601012Y198997195D01*
X231606801Y199023678D01*
X231614801Y199048366D01*
X231624533Y199070320D01*
X231636293Y199090628D01*
X231649744Y199108884D01*
X231665133Y199125568D01*
X231701757Y199154242D01*
X231747306Y199177078D01*
X231803489Y199193863D01*
X231852341Y199201844D01*
X231852341Y199116503D01*
X231813578Y199108962D01*
X231781692Y199099785D01*
X231752227Y199087151D01*
X231735879Y199077572D01*
X231721182Y199066125D01*
X231696829Y199037851D01*
X231679583Y199002635D01*
X231670275Y198960749D01*
X231668942Y198936012D01*
X231670171Y198912063D01*
X231673814Y198889304D01*
X231679698Y198868096D01*
X231687793Y198848146D01*
X231710258Y198812348D01*
X231741044Y198781896D01*
X231780335Y198757115D01*
X231828440Y198738735D01*
X231885551Y198727829D01*
X231932990Y198725317D01*
X231968303Y198726546D01*
X232001478Y198730191D01*
X232031444Y198735949D01*
X232059247Y198743843D01*
X232083881Y198753398D01*
X232106366Y198764820D01*
X232125903Y198777522D01*
X232143321Y198791855D01*
X232158109Y198807247D01*
X232170791Y198824080D01*
X232181132Y198841958D01*
X232189333Y198861142D01*
X232199085Y198903160D01*
X232200566Y198928917D01*
X232195763Y198979231D01*
X232189978Y199002111D01*
X232182095Y199022901D01*
X232172998Y199039893D01*
X232162288Y199054241D01*
X232159815Y199056908D01*
X232145973Y199069990D01*
X232130252Y199080888D01*
X232093879Y199096281D01*
X232062377Y199104057D01*
X232062377Y199188505D01*
G37*
G36*
X232263573Y199541190D02*
G01*
X231808255Y199541190D01*
X231770013Y199539851D01*
X231740178Y199535445D01*
X231723175Y199530195D01*
X231708668Y199522935D01*
X231705311Y199520756D01*
X231685176Y199502120D01*
X231671103Y199475914D01*
X231667069Y199460577D01*
X231665410Y199444408D01*
X231665375Y199441658D01*
X231666607Y199423895D01*
X231670274Y199407813D01*
X231675911Y199394240D01*
X231683624Y199382231D01*
X231704588Y199363381D01*
X231733914Y199350685D01*
X231773359Y199344900D01*
X231782509Y199344724D01*
X231824230Y199344724D01*
X231824230Y199260275D01*
X231767427Y199260275D01*
X231743861Y199261503D01*
X231721736Y199265137D01*
X231701610Y199270928D01*
X231683006Y199278866D01*
X231666281Y199288686D01*
X231651165Y199300443D01*
X231626163Y199329301D01*
X231608227Y199365322D01*
X231598027Y199408642D01*
X231596047Y199440766D01*
X231597275Y199465988D01*
X231600907Y199489628D01*
X231606679Y199511056D01*
X231614584Y199530844D01*
X231624312Y199548546D01*
X231635945Y199564550D01*
X231649247Y199578633D01*
X231664280Y199590931D01*
X231699352Y199609952D01*
X231741256Y199621156D01*
X231778089Y199623894D01*
X232263573Y199623894D01*
X232263573Y199541190D01*
G37*
G36*
X231841717Y200058313D02*
G01*
X232258649Y200058313D01*
X232258649Y200000501D01*
X231854124Y199714236D01*
X231771459Y199714236D01*
X231771459Y199782710D01*
X231841717Y199782710D01*
X232125268Y199980068D01*
X231841717Y199980068D01*
X231841717Y199782710D01*
X231771459Y199782710D01*
X231771459Y199980068D01*
X231615900Y199980068D01*
X231615900Y200058313D01*
X231771459Y200058313D01*
X231771459Y200151641D01*
X231841717Y200151641D01*
X231841717Y200058313D01*
G37*
G36*
X228062377Y199188505D02*
G01*
X228094206Y199181453D01*
X228123405Y199172346D01*
X228148334Y199161961D01*
X228170979Y199149759D01*
X228190392Y199136465D01*
X228207754Y199121512D01*
X228222681Y199105363D01*
X228235676Y199087626D01*
X228255889Y199047378D01*
X228268676Y198999392D01*
X228273488Y198941770D01*
X228273499Y198938687D01*
X228272262Y198907444D01*
X228268563Y198877781D01*
X228262701Y198850795D01*
X228254599Y198825377D01*
X228244642Y198802322D01*
X228232620Y198780833D01*
X228218876Y198761370D01*
X228203187Y198743494D01*
X228192617Y198733343D01*
X228149663Y198700471D01*
X228098930Y198674120D01*
X228040809Y198655165D01*
X227976034Y198644588D01*
X227932098Y198642651D01*
X227896912Y198643885D01*
X227862975Y198647554D01*
X227830912Y198653499D01*
X227800273Y198661717D01*
X227771737Y198671931D01*
X227744772Y198684245D01*
X227720020Y198698280D01*
X227696960Y198714247D01*
X227671578Y198735979D01*
X227654236Y198754781D01*
X227639229Y198774804D01*
X227626852Y198795493D01*
X227616611Y198817471D01*
X227602349Y198865813D01*
X227596236Y198922320D01*
X227596047Y198935120D01*
X227597288Y198967166D01*
X227601012Y198997195D01*
X227606801Y199023678D01*
X227614801Y199048366D01*
X227624533Y199070320D01*
X227636293Y199090628D01*
X227649744Y199108884D01*
X227665133Y199125568D01*
X227701757Y199154242D01*
X227747306Y199177078D01*
X227803489Y199193863D01*
X227852341Y199201844D01*
X227852341Y199116503D01*
X227813578Y199108962D01*
X227781692Y199099785D01*
X227752227Y199087151D01*
X227735879Y199077572D01*
X227721182Y199066125D01*
X227696829Y199037851D01*
X227679583Y199002635D01*
X227670275Y198960749D01*
X227668942Y198936012D01*
X227670171Y198912063D01*
X227673814Y198889304D01*
X227679698Y198868096D01*
X227687793Y198848146D01*
X227710258Y198812348D01*
X227741044Y198781896D01*
X227780335Y198757115D01*
X227828440Y198738735D01*
X227885551Y198727829D01*
X227932990Y198725317D01*
X227968303Y198726546D01*
X228001478Y198730191D01*
X228031444Y198735949D01*
X228059247Y198743843D01*
X228083881Y198753398D01*
X228106366Y198764820D01*
X228125903Y198777522D01*
X228143321Y198791855D01*
X228158109Y198807247D01*
X228170791Y198824080D01*
X228181132Y198841958D01*
X228189333Y198861142D01*
X228199085Y198903160D01*
X228200566Y198928917D01*
X228195763Y198979231D01*
X228189978Y199002111D01*
X228182095Y199022901D01*
X228172998Y199039893D01*
X228162288Y199054241D01*
X228159815Y199056908D01*
X228145973Y199069990D01*
X228130252Y199080888D01*
X228093879Y199096281D01*
X228062377Y199104057D01*
X228062377Y199188505D01*
G37*
G36*
X228263573Y199541190D02*
G01*
X227808255Y199541190D01*
X227770013Y199539851D01*
X227740178Y199535445D01*
X227723175Y199530195D01*
X227708668Y199522935D01*
X227705311Y199520756D01*
X227685176Y199502120D01*
X227671103Y199475914D01*
X227667069Y199460577D01*
X227665410Y199444408D01*
X227665375Y199441658D01*
X227666607Y199423895D01*
X227670274Y199407813D01*
X227675911Y199394240D01*
X227683624Y199382231D01*
X227704588Y199363381D01*
X227733914Y199350685D01*
X227773359Y199344900D01*
X227782509Y199344724D01*
X227824230Y199344724D01*
X227824230Y199260275D01*
X227767427Y199260275D01*
X227743861Y199261503D01*
X227721736Y199265137D01*
X227701610Y199270928D01*
X227683006Y199278866D01*
X227666281Y199288686D01*
X227651165Y199300443D01*
X227626163Y199329301D01*
X227608227Y199365322D01*
X227598027Y199408642D01*
X227596047Y199440766D01*
X227597275Y199465988D01*
X227600907Y199489628D01*
X227606679Y199511056D01*
X227614584Y199530844D01*
X227624312Y199548546D01*
X227635945Y199564550D01*
X227649247Y199578633D01*
X227664280Y199590931D01*
X227699352Y199609952D01*
X227741256Y199621156D01*
X227778089Y199623894D01*
X228263573Y199623894D01*
X228263573Y199541190D01*
G37*
G36*
X228246202Y200112518D02*
G01*
X228246202Y199787169D01*
X227902552Y199740020D01*
X227902552Y199812062D01*
X227922826Y199830808D01*
X227938301Y199849237D01*
X227947535Y199864352D01*
X227954182Y199880233D01*
X227960535Y199914953D01*
X227960945Y199928499D01*
X227959718Y199949282D01*
X227956090Y199968610D01*
X227950343Y199985923D01*
X227942480Y200001722D01*
X227932749Y200015725D01*
X227921112Y200028132D01*
X227892305Y200047939D01*
X227855848Y200060715D01*
X227811383Y200065407D01*
X227810504Y200065408D01*
X227787311Y200064181D01*
X227765874Y200060555D01*
X227746962Y200054870D01*
X227729829Y200047109D01*
X227714992Y200037676D01*
X227701959Y200026430D01*
X227690954Y200013647D01*
X227681828Y199999234D01*
X227669415Y199965555D01*
X227665375Y199927607D01*
X227666618Y199906084D01*
X227670356Y199886449D01*
X227676044Y199869955D01*
X227683886Y199855030D01*
X227705193Y199830545D01*
X227735277Y199811391D01*
X227770684Y199798724D01*
X227770684Y199720479D01*
X227726950Y199731075D01*
X227695591Y199743108D01*
X227671578Y199758709D01*
X227643266Y199785692D01*
X227620354Y199821052D01*
X227604248Y199864101D01*
X227596525Y199913241D01*
X227596047Y199929391D01*
X227597273Y199954390D01*
X227600886Y199978270D01*
X227606780Y200000895D01*
X227614868Y200022225D01*
X227625054Y200042165D01*
X227637248Y200060627D01*
X227667352Y200092818D01*
X227704555Y200118068D01*
X227725651Y200127852D01*
X227748227Y200135569D01*
X227772309Y200141148D01*
X227797690Y200144450D01*
X227821128Y200145398D01*
X227846820Y200144173D01*
X227871254Y200140561D01*
X227894183Y200134703D01*
X227915676Y200126675D01*
X227935497Y200116650D01*
X227953712Y200104668D01*
X227970129Y200090912D01*
X227984772Y200075401D01*
X227997504Y200058294D01*
X228008290Y200039621D01*
X228017037Y200019481D01*
X228023656Y199997952D01*
X228028064Y199975058D01*
X228030148Y199950945D01*
X228030311Y199941837D01*
X228029047Y199917540D01*
X228025162Y199894743D01*
X228019165Y199874790D01*
X228010731Y199855469D01*
X227992081Y199825361D01*
X228168849Y199850254D01*
X228168849Y200112518D01*
X228246202Y200112518D01*
G37*
G36*
X224062377Y199088505D02*
G01*
X224094206Y199081453D01*
X224123405Y199072346D01*
X224148334Y199061961D01*
X224170979Y199049759D01*
X224190392Y199036465D01*
X224207754Y199021512D01*
X224222681Y199005363D01*
X224235676Y198987626D01*
X224255889Y198947378D01*
X224268676Y198899392D01*
X224273488Y198841770D01*
X224273499Y198838687D01*
X224272262Y198807444D01*
X224268563Y198777781D01*
X224262701Y198750795D01*
X224254599Y198725377D01*
X224244642Y198702322D01*
X224232620Y198680833D01*
X224218876Y198661370D01*
X224203187Y198643494D01*
X224192617Y198633343D01*
X224149663Y198600471D01*
X224098930Y198574120D01*
X224040809Y198555165D01*
X223976034Y198544588D01*
X223932098Y198542651D01*
X223896912Y198543885D01*
X223862975Y198547554D01*
X223830912Y198553499D01*
X223800273Y198561717D01*
X223771737Y198571931D01*
X223744772Y198584245D01*
X223720020Y198598280D01*
X223696960Y198614247D01*
X223671578Y198635979D01*
X223654236Y198654781D01*
X223639229Y198674804D01*
X223626852Y198695493D01*
X223616611Y198717471D01*
X223602349Y198765813D01*
X223596236Y198822320D01*
X223596047Y198835120D01*
X223597288Y198867166D01*
X223601012Y198897195D01*
X223606801Y198923678D01*
X223614801Y198948366D01*
X223624533Y198970320D01*
X223636293Y198990628D01*
X223649744Y199008884D01*
X223665133Y199025568D01*
X223701757Y199054242D01*
X223747306Y199077078D01*
X223803489Y199093863D01*
X223852341Y199101844D01*
X223852341Y199016503D01*
X223813578Y199008962D01*
X223781692Y198999785D01*
X223752227Y198987151D01*
X223735879Y198977572D01*
X223721182Y198966125D01*
X223696829Y198937851D01*
X223679583Y198902635D01*
X223670275Y198860749D01*
X223668942Y198836012D01*
X223670171Y198812063D01*
X223673814Y198789304D01*
X223679698Y198768096D01*
X223687793Y198748146D01*
X223710258Y198712348D01*
X223741044Y198681896D01*
X223780335Y198657115D01*
X223828440Y198638735D01*
X223885551Y198627829D01*
X223932990Y198625317D01*
X223968303Y198626546D01*
X224001478Y198630191D01*
X224031444Y198635949D01*
X224059247Y198643843D01*
X224083881Y198653398D01*
X224106366Y198664820D01*
X224125903Y198677522D01*
X224143321Y198691855D01*
X224158109Y198707247D01*
X224170791Y198724080D01*
X224181132Y198741958D01*
X224189333Y198761142D01*
X224199085Y198803160D01*
X224200566Y198828917D01*
X224195763Y198879231D01*
X224189978Y198902111D01*
X224182095Y198922901D01*
X224172998Y198939893D01*
X224162288Y198954241D01*
X224159815Y198956908D01*
X224145973Y198969990D01*
X224130252Y198980888D01*
X224093879Y198996281D01*
X224062377Y199004057D01*
X224062377Y199088505D01*
G37*
G36*
X224263573Y199441190D02*
G01*
X223808255Y199441190D01*
X223770013Y199439851D01*
X223740178Y199435445D01*
X223723175Y199430195D01*
X223708668Y199422935D01*
X223705311Y199420756D01*
X223685176Y199402120D01*
X223671103Y199375914D01*
X223667069Y199360577D01*
X223665410Y199344408D01*
X223665375Y199341658D01*
X223666607Y199323895D01*
X223670274Y199307813D01*
X223675911Y199294240D01*
X223683624Y199282231D01*
X223704588Y199263381D01*
X223733914Y199250685D01*
X223773359Y199244900D01*
X223782509Y199244724D01*
X223824230Y199244724D01*
X223824230Y199160275D01*
X223767427Y199160275D01*
X223743861Y199161503D01*
X223721736Y199165137D01*
X223701610Y199170928D01*
X223683006Y199178866D01*
X223666281Y199188686D01*
X223651165Y199200443D01*
X223626163Y199229301D01*
X223608227Y199265322D01*
X223598027Y199308642D01*
X223596047Y199340766D01*
X223597275Y199365988D01*
X223600907Y199389628D01*
X223606679Y199411056D01*
X223614584Y199430844D01*
X223624312Y199448546D01*
X223635945Y199464550D01*
X223649247Y199478633D01*
X223664280Y199490931D01*
X223699352Y199509952D01*
X223741256Y199521156D01*
X223778089Y199523894D01*
X224263573Y199523894D01*
X224263573Y199441190D01*
G37*
G36*
X223835985Y200044175D02*
G01*
X223859741Y200040575D01*
X223882188Y200034709D01*
X223903235Y200026679D01*
X223922723Y200016621D01*
X223940604Y200004619D01*
X223956701Y199990841D01*
X223970991Y199975342D01*
X223983308Y199958315D01*
X223993624Y199939787D01*
X224001802Y199919954D01*
X224007791Y199898834D01*
X224011478Y199876597D01*
X224012784Y199853278D01*
X224012786Y199852500D01*
X224011543Y199828244D01*
X224007805Y199805446D01*
X224001961Y199785248D01*
X223993862Y199766398D01*
X223983850Y199749436D01*
X223971698Y199733782D01*
X223942528Y199707603D01*
X223984399Y199709072D01*
X224022611Y199712961D01*
X224054773Y199718709D01*
X224083649Y199726478D01*
X224107304Y199735403D01*
X224128065Y199745992D01*
X224144630Y199757230D01*
X224158646Y199769845D01*
X224169464Y199782945D01*
X224177965Y199797227D01*
X224183978Y199812236D01*
X224187740Y199828333D01*
X224189244Y199848041D01*
X224188014Y199865297D01*
X224184370Y199881305D01*
X224178588Y199895583D01*
X224170656Y199908559D01*
X224148634Y199930328D01*
X224117833Y199946529D01*
X224091690Y199953854D01*
X224091690Y200032099D01*
X224117292Y200027160D01*
X224141007Y200020063D01*
X224162241Y200011149D01*
X224181547Y200000347D01*
X224198487Y199988042D01*
X224213460Y199974086D01*
X224226225Y199958797D01*
X224236961Y199942051D01*
X224252078Y199904604D01*
X224258448Y199861812D01*
X224258610Y199853391D01*
X224253754Y199808620D01*
X224239461Y199766762D01*
X224228937Y199747367D01*
X224216284Y199729248D01*
X224201613Y199712585D01*
X224184987Y199697493D01*
X224167066Y199684494D01*
X224143239Y199670830D01*
X224117799Y199659174D01*
X224061286Y199641668D01*
X223992053Y199631013D01*
X223909687Y199627574D01*
X223859054Y199628851D01*
X223814216Y199632826D01*
X223780518Y199638398D01*
X223749895Y199646148D01*
X223724199Y199655249D01*
X223700346Y199666376D01*
X223676037Y199680927D01*
X223658979Y199693375D01*
X223643911Y199707444D01*
X223620039Y199739829D01*
X223604159Y199778103D01*
X223596587Y199822611D01*
X223596047Y199839161D01*
X223596093Y199840053D01*
X223665375Y199840053D01*
X223670156Y199805735D01*
X223684108Y199774766D01*
X223706666Y199748344D01*
X223737013Y199728034D01*
X223754724Y199720699D01*
X223773827Y199715514D01*
X223808410Y199712062D01*
X223828937Y199713282D01*
X223848182Y199716865D01*
X223865897Y199722637D01*
X223882106Y199730501D01*
X223896577Y199740252D01*
X223909330Y199751830D01*
X223920186Y199765036D01*
X223929110Y199779822D01*
X223935976Y199796044D01*
X223940687Y199813617D01*
X223943458Y199842729D01*
X223942232Y199862021D01*
X223938612Y199879913D01*
X223932872Y199895911D01*
X223925026Y199910438D01*
X223903621Y199934568D01*
X223874583Y199952266D01*
X223837634Y199962871D01*
X223804843Y199965408D01*
X223784031Y199964191D01*
X223764402Y199960635D01*
X223745998Y199954840D01*
X223729095Y199946966D01*
X223713869Y199937179D01*
X223700439Y199925607D01*
X223689067Y199912546D01*
X223679748Y199898019D01*
X223672723Y199882434D01*
X223667965Y199865698D01*
X223665375Y199840053D01*
X223596093Y199840053D01*
X223597271Y199863116D01*
X223600875Y199886038D01*
X223606782Y199907908D01*
X223614881Y199928540D01*
X223637376Y199965865D01*
X223667662Y199997128D01*
X223685510Y200010203D01*
X223704976Y200021380D01*
X223726014Y200030578D01*
X223748462Y200037657D01*
X223772223Y200042515D01*
X223797178Y200045040D01*
X223811047Y200045398D01*
X223835985Y200044175D01*
G37*
G36*
X222162377Y200788505D02*
G01*
X222194206Y200781453D01*
X222223405Y200772346D01*
X222248334Y200761961D01*
X222270979Y200749759D01*
X222290392Y200736465D01*
X222307754Y200721512D01*
X222322681Y200705363D01*
X222335676Y200687626D01*
X222355889Y200647378D01*
X222368676Y200599392D01*
X222373488Y200541770D01*
X222373499Y200538687D01*
X222372262Y200507444D01*
X222368563Y200477781D01*
X222362701Y200450795D01*
X222354599Y200425377D01*
X222344642Y200402322D01*
X222332620Y200380833D01*
X222318876Y200361370D01*
X222303187Y200343494D01*
X222292617Y200333343D01*
X222249663Y200300471D01*
X222198930Y200274120D01*
X222140809Y200255165D01*
X222076034Y200244588D01*
X222032098Y200242651D01*
X221996912Y200243885D01*
X221962975Y200247554D01*
X221930912Y200253499D01*
X221900273Y200261717D01*
X221871737Y200271931D01*
X221844772Y200284245D01*
X221820020Y200298280D01*
X221796960Y200314247D01*
X221771578Y200335979D01*
X221754236Y200354781D01*
X221739229Y200374804D01*
X221726852Y200395493D01*
X221716611Y200417471D01*
X221702349Y200465813D01*
X221696236Y200522320D01*
X221696047Y200535120D01*
X221697288Y200567166D01*
X221701012Y200597195D01*
X221706801Y200623678D01*
X221714801Y200648366D01*
X221724533Y200670320D01*
X221736293Y200690628D01*
X221749744Y200708884D01*
X221765133Y200725568D01*
X221801757Y200754242D01*
X221847306Y200777078D01*
X221903489Y200793863D01*
X221952341Y200801844D01*
X221952341Y200716503D01*
X221913578Y200708962D01*
X221881692Y200699785D01*
X221852227Y200687151D01*
X221835879Y200677572D01*
X221821182Y200666125D01*
X221796829Y200637851D01*
X221779583Y200602635D01*
X221770275Y200560749D01*
X221768942Y200536012D01*
X221770171Y200512063D01*
X221773814Y200489304D01*
X221779698Y200468096D01*
X221787793Y200448146D01*
X221810258Y200412348D01*
X221841044Y200381896D01*
X221880335Y200357115D01*
X221928440Y200338735D01*
X221985551Y200327829D01*
X222032990Y200325317D01*
X222068303Y200326546D01*
X222101478Y200330191D01*
X222131444Y200335949D01*
X222159247Y200343843D01*
X222183881Y200353398D01*
X222206366Y200364820D01*
X222225903Y200377522D01*
X222243321Y200391855D01*
X222258109Y200407247D01*
X222270791Y200424080D01*
X222281132Y200441958D01*
X222289333Y200461142D01*
X222299085Y200503160D01*
X222300566Y200528917D01*
X222295763Y200579231D01*
X222289978Y200602111D01*
X222282095Y200622901D01*
X222272998Y200639893D01*
X222262288Y200654241D01*
X222259815Y200656908D01*
X222245973Y200669990D01*
X222230252Y200680888D01*
X222193879Y200696281D01*
X222162377Y200704057D01*
X222162377Y200788505D01*
G37*
G36*
X222363573Y201141190D02*
G01*
X221908255Y201141190D01*
X221870013Y201139851D01*
X221840178Y201135445D01*
X221823175Y201130195D01*
X221808668Y201122935D01*
X221805311Y201120756D01*
X221785176Y201102120D01*
X221771103Y201075914D01*
X221767069Y201060577D01*
X221765410Y201044408D01*
X221765375Y201041658D01*
X221766607Y201023895D01*
X221770274Y201007813D01*
X221775911Y200994240D01*
X221783624Y200982231D01*
X221804588Y200963381D01*
X221833914Y200950685D01*
X221873359Y200944900D01*
X221882509Y200944724D01*
X221924230Y200944724D01*
X221924230Y200860275D01*
X221867427Y200860275D01*
X221843861Y200861503D01*
X221821736Y200865137D01*
X221801610Y200870928D01*
X221783006Y200878866D01*
X221766281Y200888686D01*
X221751165Y200900443D01*
X221726163Y200929301D01*
X221708227Y200965322D01*
X221698027Y201008642D01*
X221696047Y201040766D01*
X221697275Y201065988D01*
X221700907Y201089628D01*
X221706679Y201111056D01*
X221714584Y201130844D01*
X221724312Y201148546D01*
X221735945Y201164550D01*
X221749247Y201178633D01*
X221764280Y201190931D01*
X221799352Y201209952D01*
X221841256Y201221156D01*
X221878089Y201223894D01*
X222363573Y201223894D01*
X222363573Y201141190D01*
G37*
G36*
X222346202Y201751641D02*
G01*
X222346202Y201330250D01*
X222268849Y201330250D01*
X222268849Y201670720D01*
X222190380Y201617300D01*
X222118038Y201571663D01*
X222062206Y201539559D01*
X222008052Y201511500D01*
X221958638Y201488756D01*
X221908891Y201468626D01*
X221805147Y201434645D01*
X221715900Y201412062D01*
X221715900Y201495619D01*
X221771048Y201506360D01*
X221824954Y201519459D01*
X221876336Y201534525D01*
X221926936Y201551981D01*
X222025781Y201594010D01*
X222124960Y201647079D01*
X222227982Y201713597D01*
X222280404Y201751641D01*
X222346202Y201751641D01*
G37*
G36*
X214262377Y200588505D02*
G01*
X214294206Y200581453D01*
X214323405Y200572346D01*
X214348334Y200561961D01*
X214370979Y200549759D01*
X214390392Y200536465D01*
X214407754Y200521512D01*
X214422681Y200505363D01*
X214435676Y200487626D01*
X214455889Y200447378D01*
X214468676Y200399392D01*
X214473488Y200341770D01*
X214473499Y200338687D01*
X214472262Y200307444D01*
X214468563Y200277781D01*
X214462701Y200250795D01*
X214454599Y200225377D01*
X214444642Y200202322D01*
X214432620Y200180833D01*
X214418876Y200161370D01*
X214403187Y200143494D01*
X214392617Y200133343D01*
X214349663Y200100471D01*
X214298930Y200074120D01*
X214240809Y200055165D01*
X214176034Y200044588D01*
X214132098Y200042651D01*
X214096912Y200043885D01*
X214062975Y200047554D01*
X214030912Y200053499D01*
X214000273Y200061717D01*
X213971737Y200071931D01*
X213944772Y200084245D01*
X213920020Y200098280D01*
X213896960Y200114247D01*
X213871578Y200135979D01*
X213854236Y200154781D01*
X213839229Y200174804D01*
X213826852Y200195493D01*
X213816611Y200217471D01*
X213802349Y200265813D01*
X213796236Y200322320D01*
X213796047Y200335120D01*
X213797288Y200367166D01*
X213801012Y200397195D01*
X213806801Y200423678D01*
X213814801Y200448366D01*
X213824533Y200470320D01*
X213836293Y200490628D01*
X213849744Y200508884D01*
X213865133Y200525568D01*
X213901757Y200554242D01*
X213947306Y200577078D01*
X214003489Y200593863D01*
X214052341Y200601844D01*
X214052341Y200516503D01*
X214013578Y200508962D01*
X213981692Y200499785D01*
X213952227Y200487151D01*
X213935879Y200477572D01*
X213921182Y200466125D01*
X213896829Y200437851D01*
X213879583Y200402635D01*
X213870275Y200360749D01*
X213868942Y200336012D01*
X213870171Y200312063D01*
X213873814Y200289304D01*
X213879698Y200268096D01*
X213887793Y200248146D01*
X213910258Y200212348D01*
X213941044Y200181896D01*
X213980335Y200157115D01*
X214028440Y200138735D01*
X214085551Y200127829D01*
X214132990Y200125317D01*
X214168303Y200126546D01*
X214201478Y200130191D01*
X214231444Y200135949D01*
X214259247Y200143843D01*
X214283881Y200153398D01*
X214306366Y200164820D01*
X214325903Y200177522D01*
X214343321Y200191855D01*
X214358109Y200207247D01*
X214370791Y200224080D01*
X214381132Y200241958D01*
X214389333Y200261142D01*
X214399085Y200303160D01*
X214400566Y200328917D01*
X214395763Y200379231D01*
X214389978Y200402111D01*
X214382095Y200422901D01*
X214372998Y200439893D01*
X214362288Y200454241D01*
X214359815Y200456908D01*
X214345973Y200469990D01*
X214330252Y200480888D01*
X214293879Y200496281D01*
X214262377Y200504057D01*
X214262377Y200588505D01*
G37*
G36*
X214463573Y200941190D02*
G01*
X214008255Y200941190D01*
X213970013Y200939851D01*
X213940178Y200935445D01*
X213923175Y200930195D01*
X213908668Y200922935D01*
X213905311Y200920756D01*
X213885176Y200902120D01*
X213871103Y200875914D01*
X213867069Y200860577D01*
X213865410Y200844408D01*
X213865375Y200841658D01*
X213866607Y200823895D01*
X213870274Y200807813D01*
X213875911Y200794240D01*
X213883624Y200782231D01*
X213904588Y200763381D01*
X213933914Y200750685D01*
X213973359Y200744900D01*
X213982509Y200744724D01*
X214024230Y200744724D01*
X214024230Y200660275D01*
X213967427Y200660275D01*
X213943861Y200661503D01*
X213921736Y200665137D01*
X213901610Y200670928D01*
X213883006Y200678866D01*
X213866281Y200688686D01*
X213851165Y200700443D01*
X213826163Y200729301D01*
X213808227Y200765322D01*
X213798027Y200808642D01*
X213796047Y200840766D01*
X213797275Y200865988D01*
X213800907Y200889628D01*
X213806679Y200911056D01*
X213814584Y200930844D01*
X213824312Y200948546D01*
X213835945Y200964550D01*
X213849247Y200978633D01*
X213864280Y200990931D01*
X213899352Y201009952D01*
X213941256Y201021156D01*
X213978089Y201023894D01*
X214463573Y201023894D01*
X214463573Y200941190D01*
G37*
G36*
X214017651Y201544155D02*
G01*
X214038751Y201540417D01*
X214057668Y201534526D01*
X214075455Y201526349D01*
X214107300Y201503468D01*
X214135531Y201470719D01*
X214155401Y201436948D01*
X214173852Y201464792D01*
X214191951Y201486452D01*
X214206060Y201499189D01*
X214220844Y201508925D01*
X214251208Y201519902D01*
X214287425Y201523181D01*
X214309062Y201521957D01*
X214329623Y201518351D01*
X214348979Y201512477D01*
X214367076Y201504429D01*
X214399230Y201482116D01*
X214425393Y201451959D01*
X214444672Y201414464D01*
X214456003Y201370244D01*
X214458610Y201333849D01*
X214457387Y201308873D01*
X214453793Y201285180D01*
X214447962Y201262973D01*
X214439994Y201242284D01*
X214430090Y201223391D01*
X214418299Y201206229D01*
X214404901Y201191092D01*
X214389865Y201177873D01*
X214373519Y201166819D01*
X214355775Y201157855D01*
X214336936Y201151150D01*
X214316919Y201146705D01*
X214288316Y201144479D01*
X214263962Y201145789D01*
X214242568Y201149996D01*
X214226994Y201155786D01*
X214212537Y201163951D01*
X214186005Y201187736D01*
X214155401Y201229820D01*
X214142076Y201206250D01*
X214127432Y201185609D01*
X214112617Y201169045D01*
X214096622Y201154998D01*
X214080227Y201143926D01*
X214062720Y201135138D01*
X214024757Y201124460D01*
X213995266Y201122262D01*
X213971394Y201123487D01*
X213948640Y201127100D01*
X213927162Y201132984D01*
X213906978Y201141055D01*
X213888184Y201151216D01*
X213870865Y201163376D01*
X213840934Y201193423D01*
X213817927Y201230629D01*
X213809270Y201251779D01*
X213802704Y201274415D01*
X213798301Y201298618D01*
X213796213Y201324128D01*
X213796077Y201332066D01*
X213865375Y201332066D01*
X213866594Y201312274D01*
X213870168Y201293701D01*
X213875949Y201276523D01*
X213883818Y201260809D01*
X213893612Y201246730D01*
X213905231Y201234355D01*
X213918509Y201223834D01*
X213933353Y201215254D01*
X213949622Y201208743D01*
X213967208Y201204415D01*
X213992591Y201202252D01*
X214012350Y201203475D01*
X214030784Y201207071D01*
X214047542Y201212827D01*
X214062813Y201220678D01*
X214076381Y201230422D01*
X214088293Y201242021D01*
X214106774Y201270416D01*
X214117513Y201305452D01*
X214119845Y201333849D01*
X214185644Y201333849D01*
X214186866Y201314228D01*
X214190457Y201296223D01*
X214196099Y201280414D01*
X214203761Y201266345D01*
X214213065Y201254422D01*
X214224093Y201244350D01*
X214236597Y201236311D01*
X214250601Y201230274D01*
X214283038Y201224580D01*
X214287425Y201224508D01*
X214305078Y201225731D01*
X214321341Y201229329D01*
X214335773Y201235028D01*
X214348689Y201242788D01*
X214369423Y201263841D01*
X214383216Y201292117D01*
X214389126Y201327607D01*
X214389244Y201333849D01*
X214388020Y201353461D01*
X214384416Y201371460D01*
X214378768Y201387204D01*
X214371085Y201401226D01*
X214361761Y201413092D01*
X214350687Y201423135D01*
X214338100Y201431174D01*
X214323964Y201437241D01*
X214290993Y201443090D01*
X214285680Y201443191D01*
X214268681Y201441970D01*
X214252950Y201438386D01*
X214238790Y201432656D01*
X214226071Y201424859D01*
X214205395Y201403554D01*
X214191569Y201374941D01*
X214185738Y201339348D01*
X214185644Y201333849D01*
X214119845Y201333849D01*
X214118625Y201354235D01*
X214115046Y201373302D01*
X214109289Y201390785D01*
X214101453Y201406733D01*
X214091754Y201420904D01*
X214080246Y201433334D01*
X214067134Y201443846D01*
X214052466Y201452408D01*
X214036375Y201458901D01*
X214018958Y201463222D01*
X213993482Y201465408D01*
X213973515Y201464184D01*
X213954911Y201460580D01*
X213938084Y201454829D01*
X213922761Y201446981D01*
X213909191Y201437259D01*
X213897274Y201425675D01*
X213878761Y201397277D01*
X213867881Y201362047D01*
X213865375Y201332066D01*
X213796077Y201332066D01*
X213796047Y201333849D01*
X213797272Y201359819D01*
X213800878Y201384547D01*
X213806739Y201407838D01*
X213814767Y201429684D01*
X213824794Y201449859D01*
X213836768Y201468399D01*
X213850479Y201485080D01*
X213865918Y201499945D01*
X213882861Y201512807D01*
X213901320Y201523681D01*
X213921095Y201532425D01*
X213942188Y201539006D01*
X213964457Y201543318D01*
X213987858Y201545281D01*
X213995266Y201545398D01*
X214017651Y201544155D01*
G37*
G36*
X210162377Y200588505D02*
G01*
X210194206Y200581453D01*
X210223405Y200572346D01*
X210248334Y200561961D01*
X210270979Y200549759D01*
X210290392Y200536465D01*
X210307754Y200521512D01*
X210322681Y200505363D01*
X210335676Y200487626D01*
X210355889Y200447378D01*
X210368676Y200399392D01*
X210373488Y200341770D01*
X210373499Y200338687D01*
X210372262Y200307444D01*
X210368563Y200277781D01*
X210362701Y200250795D01*
X210354599Y200225377D01*
X210344642Y200202322D01*
X210332620Y200180833D01*
X210318876Y200161370D01*
X210303187Y200143494D01*
X210292617Y200133343D01*
X210249663Y200100471D01*
X210198930Y200074120D01*
X210140809Y200055165D01*
X210076034Y200044588D01*
X210032098Y200042651D01*
X209996912Y200043885D01*
X209962975Y200047554D01*
X209930912Y200053499D01*
X209900273Y200061717D01*
X209871737Y200071931D01*
X209844772Y200084245D01*
X209820020Y200098280D01*
X209796960Y200114247D01*
X209771578Y200135979D01*
X209754236Y200154781D01*
X209739229Y200174804D01*
X209726852Y200195493D01*
X209716611Y200217471D01*
X209702349Y200265813D01*
X209696236Y200322320D01*
X209696047Y200335120D01*
X209697288Y200367166D01*
X209701012Y200397195D01*
X209706801Y200423678D01*
X209714801Y200448366D01*
X209724533Y200470320D01*
X209736293Y200490628D01*
X209749744Y200508884D01*
X209765133Y200525568D01*
X209801757Y200554242D01*
X209847306Y200577078D01*
X209903489Y200593863D01*
X209952341Y200601844D01*
X209952341Y200516503D01*
X209913578Y200508962D01*
X209881692Y200499785D01*
X209852227Y200487151D01*
X209835879Y200477572D01*
X209821182Y200466125D01*
X209796829Y200437851D01*
X209779583Y200402635D01*
X209770275Y200360749D01*
X209768942Y200336012D01*
X209770171Y200312063D01*
X209773814Y200289304D01*
X209779698Y200268096D01*
X209787793Y200248146D01*
X209810258Y200212348D01*
X209841044Y200181896D01*
X209880335Y200157115D01*
X209928440Y200138735D01*
X209985551Y200127829D01*
X210032990Y200125317D01*
X210068303Y200126546D01*
X210101478Y200130191D01*
X210131444Y200135949D01*
X210159247Y200143843D01*
X210183881Y200153398D01*
X210206366Y200164820D01*
X210225903Y200177522D01*
X210243321Y200191855D01*
X210258109Y200207247D01*
X210270791Y200224080D01*
X210281132Y200241958D01*
X210289333Y200261142D01*
X210299085Y200303160D01*
X210300566Y200328917D01*
X210295763Y200379231D01*
X210289978Y200402111D01*
X210282095Y200422901D01*
X210272998Y200439893D01*
X210262288Y200454241D01*
X210259815Y200456908D01*
X210245973Y200469990D01*
X210230252Y200480888D01*
X210193879Y200496281D01*
X210162377Y200504057D01*
X210162377Y200588505D01*
G37*
G36*
X210363573Y200941190D02*
G01*
X209908255Y200941190D01*
X209870013Y200939851D01*
X209840178Y200935445D01*
X209823175Y200930195D01*
X209808668Y200922935D01*
X209805311Y200920756D01*
X209785176Y200902120D01*
X209771103Y200875914D01*
X209767069Y200860577D01*
X209765410Y200844408D01*
X209765375Y200841658D01*
X209766607Y200823895D01*
X209770274Y200807813D01*
X209775911Y200794240D01*
X209783624Y200782231D01*
X209804588Y200763381D01*
X209833914Y200750685D01*
X209873359Y200744900D01*
X209882509Y200744724D01*
X209924230Y200744724D01*
X209924230Y200660275D01*
X209867427Y200660275D01*
X209843861Y200661503D01*
X209821736Y200665137D01*
X209801610Y200670928D01*
X209783006Y200678866D01*
X209766281Y200688686D01*
X209751165Y200700443D01*
X209726163Y200729301D01*
X209708227Y200765322D01*
X209698027Y200808642D01*
X209696047Y200840766D01*
X209697275Y200865988D01*
X209700907Y200889628D01*
X209706679Y200911056D01*
X209714584Y200930844D01*
X209724312Y200948546D01*
X209735945Y200964550D01*
X209749247Y200978633D01*
X209764280Y200990931D01*
X209799352Y201009952D01*
X209841256Y201021156D01*
X209878089Y201023894D01*
X210363573Y201023894D01*
X210363573Y200941190D01*
G37*
G36*
X210093586Y201540607D02*
G01*
X210137512Y201536730D01*
X210171575Y201531175D01*
X210202519Y201523485D01*
X210228819Y201514374D01*
X210253195Y201503287D01*
X210278543Y201488517D01*
X210295779Y201475657D01*
X210310984Y201461206D01*
X210323972Y201445446D01*
X210334934Y201428251D01*
X210350733Y201389612D01*
X210358136Y201344905D01*
X210358610Y201329391D01*
X210357386Y201305451D01*
X210353784Y201282543D01*
X210347877Y201260674D01*
X210339779Y201240043D01*
X210317282Y201202701D01*
X210286993Y201171414D01*
X210269147Y201158329D01*
X210249689Y201147146D01*
X210228668Y201137946D01*
X210206247Y201130868D01*
X210182532Y201126019D01*
X210157637Y201123504D01*
X210143960Y201123154D01*
X210118950Y201124378D01*
X210095133Y201127980D01*
X210072657Y201133845D01*
X210051585Y201141874D01*
X210032092Y201151926D01*
X210014208Y201163924D01*
X209998114Y201177694D01*
X209983822Y201193191D01*
X209971498Y201210223D01*
X209961166Y201228767D01*
X209952960Y201248639D01*
X209946934Y201269817D01*
X209943198Y201292150D01*
X209941837Y201315589D01*
X209941833Y201316944D01*
X209942298Y201325823D01*
X210011199Y201325823D01*
X210012425Y201306558D01*
X210016045Y201288689D01*
X210021787Y201272707D01*
X210029635Y201258191D01*
X210051055Y201234064D01*
X210080126Y201216348D01*
X210117135Y201205711D01*
X210150202Y201203144D01*
X210171256Y201204362D01*
X210191101Y201207927D01*
X210209617Y201213718D01*
X210226613Y201221593D01*
X210241838Y201231347D01*
X210255258Y201242891D01*
X210266574Y201255894D01*
X210275845Y201270381D01*
X210282824Y201285937D01*
X210287554Y201302684D01*
X210290136Y201328499D01*
X210285350Y201362769D01*
X210271387Y201393676D01*
X210248797Y201420053D01*
X210218355Y201440368D01*
X210200547Y201447734D01*
X210181314Y201452965D01*
X210145743Y201456529D01*
X210125380Y201455308D01*
X210106262Y201451726D01*
X210088621Y201445945D01*
X210072463Y201438067D01*
X210058011Y201428289D01*
X210045267Y201416676D01*
X210034414Y201403429D01*
X210025491Y201388596D01*
X210018633Y201372337D01*
X210013935Y201354728D01*
X210011199Y201325823D01*
X209942298Y201325823D01*
X209943091Y201340977D01*
X209946931Y201363426D01*
X209952825Y201382809D01*
X209961064Y201401133D01*
X209984362Y201434533D01*
X210012052Y201460949D01*
X209970095Y201459480D01*
X209931833Y201455591D01*
X209899668Y201449848D01*
X209870807Y201442086D01*
X209847180Y201433172D01*
X209826453Y201422596D01*
X209809918Y201411370D01*
X209795931Y201398769D01*
X209785131Y201385677D01*
X209776647Y201371401D01*
X209766881Y201340279D01*
X209765375Y201320511D01*
X209766604Y201303209D01*
X209770248Y201287163D01*
X209776028Y201272860D01*
X209783956Y201259865D01*
X209805950Y201238094D01*
X209836684Y201221922D01*
X209862425Y201214698D01*
X209862425Y201136492D01*
X209836937Y201141423D01*
X209813319Y201148514D01*
X209792153Y201157429D01*
X209772905Y201168235D01*
X209756004Y201180552D01*
X209741063Y201194524D01*
X209728321Y201209835D01*
X209717605Y201226609D01*
X209702526Y201264120D01*
X209696200Y201306975D01*
X209696047Y201315161D01*
X209697275Y201338156D01*
X209700903Y201360428D01*
X209706895Y201381967D01*
X209715154Y201402494D01*
X209725631Y201421923D01*
X209738222Y201440050D01*
X209752823Y201456714D01*
X209769367Y201471800D01*
X209787437Y201484950D01*
X209811899Y201498738D01*
X209838076Y201510535D01*
X209895842Y201528128D01*
X209966215Y201538703D01*
X210044156Y201541870D01*
X210093586Y201540607D01*
G37*
G36*
X207310427Y201248505D02*
G01*
X207342256Y201241453D01*
X207371455Y201232346D01*
X207396384Y201221961D01*
X207419029Y201209759D01*
X207438442Y201196465D01*
X207455804Y201181512D01*
X207470731Y201165363D01*
X207483726Y201147626D01*
X207503939Y201107378D01*
X207516726Y201059392D01*
X207521538Y201001770D01*
X207521549Y200998687D01*
X207520312Y200967444D01*
X207516613Y200937781D01*
X207510751Y200910795D01*
X207502649Y200885377D01*
X207492692Y200862322D01*
X207480670Y200840833D01*
X207466926Y200821370D01*
X207451237Y200803494D01*
X207440667Y200793343D01*
X207397713Y200760471D01*
X207346980Y200734120D01*
X207288859Y200715165D01*
X207224084Y200704588D01*
X207180148Y200702651D01*
X207144962Y200703885D01*
X207111025Y200707554D01*
X207078962Y200713499D01*
X207048323Y200721717D01*
X207019787Y200731931D01*
X206992822Y200744245D01*
X206968070Y200758280D01*
X206945010Y200774247D01*
X206919628Y200795979D01*
X206902286Y200814781D01*
X206887279Y200834804D01*
X206874902Y200855493D01*
X206864661Y200877471D01*
X206850399Y200925813D01*
X206844286Y200982320D01*
X206844097Y200995120D01*
X206845338Y201027166D01*
X206849062Y201057195D01*
X206854851Y201083678D01*
X206862851Y201108366D01*
X206872583Y201130320D01*
X206884343Y201150628D01*
X206897794Y201168884D01*
X206913183Y201185568D01*
X206949807Y201214242D01*
X206995356Y201237078D01*
X207051539Y201253863D01*
X207100391Y201261844D01*
X207100391Y201176503D01*
X207061628Y201168962D01*
X207029742Y201159785D01*
X207000277Y201147151D01*
X206983929Y201137572D01*
X206969232Y201126125D01*
X206944879Y201097851D01*
X206927633Y201062635D01*
X206918325Y201020749D01*
X206916992Y200996012D01*
X206918221Y200972063D01*
X206921864Y200949304D01*
X206927748Y200928096D01*
X206935843Y200908146D01*
X206958308Y200872348D01*
X206989094Y200841896D01*
X207028385Y200817115D01*
X207076490Y200798735D01*
X207133601Y200787829D01*
X207181040Y200785317D01*
X207216353Y200786546D01*
X207249528Y200790191D01*
X207279494Y200795949D01*
X207307297Y200803843D01*
X207331931Y200813398D01*
X207354416Y200824820D01*
X207373953Y200837522D01*
X207391371Y200851855D01*
X207406159Y200867247D01*
X207418841Y200884080D01*
X207429182Y200901958D01*
X207437383Y200921142D01*
X207447135Y200963160D01*
X207448616Y200988917D01*
X207443813Y201039231D01*
X207438028Y201062111D01*
X207430145Y201082901D01*
X207421048Y201099893D01*
X207410338Y201114241D01*
X207407865Y201116908D01*
X207394023Y201129990D01*
X207378302Y201140888D01*
X207341929Y201156281D01*
X207310427Y201164057D01*
X207310427Y201248505D01*
G37*
G36*
X207511623Y201601190D02*
G01*
X207056305Y201601190D01*
X207018063Y201599851D01*
X206988228Y201595445D01*
X206971225Y201590195D01*
X206956718Y201582935D01*
X206953361Y201580756D01*
X206933226Y201562120D01*
X206919153Y201535914D01*
X206915119Y201520577D01*
X206913460Y201504408D01*
X206913425Y201501658D01*
X206914657Y201483895D01*
X206918324Y201467813D01*
X206923961Y201454240D01*
X206931674Y201442231D01*
X206952638Y201423381D01*
X206981964Y201410685D01*
X207021409Y201404900D01*
X207030559Y201404724D01*
X207072280Y201404724D01*
X207072280Y201320275D01*
X207015477Y201320275D01*
X206991911Y201321503D01*
X206969786Y201325137D01*
X206949660Y201330928D01*
X206931056Y201338866D01*
X206914331Y201348686D01*
X206899215Y201360443D01*
X206874213Y201389301D01*
X206856277Y201425322D01*
X206846077Y201468642D01*
X206844097Y201500766D01*
X206845325Y201525988D01*
X206848957Y201549628D01*
X206854729Y201571056D01*
X206862634Y201590844D01*
X206872362Y201608546D01*
X206883995Y201624550D01*
X206897297Y201638633D01*
X206912330Y201650931D01*
X206947402Y201669952D01*
X206989306Y201681156D01*
X207026139Y201683894D01*
X207511623Y201683894D01*
X207511623Y201601190D01*
G37*
G36*
X207321749Y201979620D02*
G01*
X206863950Y201979620D01*
X206863950Y202057826D01*
X207506660Y202057826D01*
X207506660Y202006296D01*
X207462288Y201992141D01*
X207430729Y201976164D01*
X207418999Y201966488D01*
X207409372Y201955049D01*
X207395557Y201926615D01*
X207384532Y201879738D01*
X207378668Y201840035D01*
X207321749Y201840035D01*
X207321749Y201979620D01*
G37*
G36*
X207221688Y202692657D02*
G01*
X207268468Y202688879D01*
X207306545Y202683294D01*
X207341138Y202675597D01*
X207370146Y202666594D01*
X207396537Y202655737D01*
X207436402Y202632566D01*
X207465954Y202604656D01*
X207488150Y202570242D01*
X207502020Y202530439D01*
X207506660Y202487669D01*
X207501848Y202445047D01*
X207487664Y202405105D01*
X207477260Y202386767D01*
X207464839Y202369889D01*
X207436402Y202342734D01*
X207393983Y202318392D01*
X207340649Y202299616D01*
X207273573Y202286933D01*
X207189167Y202281488D01*
X207175340Y202281394D01*
X207127576Y202282632D01*
X207083403Y202286332D01*
X207045426Y202291994D01*
X207010636Y202299771D01*
X206981103Y202308911D01*
X206954386Y202319863D01*
X206931954Y202331743D01*
X206912026Y202345188D01*
X206895474Y202359358D01*
X206881201Y202374916D01*
X206869573Y202391281D01*
X206860107Y202408929D01*
X206847760Y202447813D01*
X206844261Y202485886D01*
X206908966Y202485886D01*
X206910206Y202469525D01*
X206913926Y202454310D01*
X206919800Y202440837D01*
X206927937Y202428414D01*
X206951283Y202406520D01*
X206986093Y202388015D01*
X207035807Y202373372D01*
X207104776Y202363925D01*
X207174448Y202361423D01*
X207224524Y202362664D01*
X207269242Y202366393D01*
X207304721Y202371840D01*
X207335953Y202379286D01*
X207360311Y202387643D01*
X207381299Y202397606D01*
X207397379Y202407992D01*
X207410729Y202419694D01*
X207420702Y202431758D01*
X207428331Y202444962D01*
X207436505Y202474063D01*
X207437294Y202487669D01*
X207436053Y202504612D01*
X207432326Y202520326D01*
X207426478Y202534124D01*
X207418379Y202546815D01*
X207395312Y202568961D01*
X207361126Y202587503D01*
X207312446Y202602080D01*
X207244877Y202611434D01*
X207177123Y202613877D01*
X207124878Y202612631D01*
X207078485Y202608870D01*
X207042386Y202603445D01*
X207010724Y202596017D01*
X206986306Y202587734D01*
X206965304Y202577842D01*
X206949281Y202567543D01*
X206935972Y202555914D01*
X206925997Y202543880D01*
X206918332Y202530675D01*
X206909917Y202501293D01*
X206908966Y202485886D01*
X206844261Y202485886D01*
X206844097Y202487669D01*
X206845334Y202511042D01*
X206849029Y202533090D01*
X206854893Y202553063D01*
X206862995Y202571777D01*
X206885441Y202604920D01*
X206916751Y202633297D01*
X206958100Y202657095D01*
X207011199Y202675867D01*
X207078025Y202688602D01*
X207160583Y202693857D01*
X207170028Y202693906D01*
X207221688Y202692657D01*
G37*
G36*
X245156427Y204042505D02*
G01*
X245188256Y204035453D01*
X245217455Y204026346D01*
X245242384Y204015961D01*
X245265029Y204003759D01*
X245284442Y203990465D01*
X245301804Y203975512D01*
X245316731Y203959363D01*
X245329726Y203941626D01*
X245349939Y203901378D01*
X245362726Y203853392D01*
X245367538Y203795770D01*
X245367549Y203792687D01*
X245366312Y203761444D01*
X245362613Y203731781D01*
X245356751Y203704795D01*
X245348649Y203679377D01*
X245338692Y203656322D01*
X245326670Y203634833D01*
X245312926Y203615370D01*
X245297237Y203597494D01*
X245286667Y203587343D01*
X245243713Y203554471D01*
X245192980Y203528120D01*
X245134859Y203509165D01*
X245070084Y203498588D01*
X245026148Y203496651D01*
X244990962Y203497885D01*
X244957025Y203501554D01*
X244924962Y203507499D01*
X244894323Y203515717D01*
X244865787Y203525931D01*
X244838822Y203538245D01*
X244814070Y203552280D01*
X244791010Y203568247D01*
X244765628Y203589979D01*
X244748286Y203608781D01*
X244733279Y203628804D01*
X244720902Y203649493D01*
X244710661Y203671471D01*
X244696399Y203719813D01*
X244690286Y203776320D01*
X244690097Y203789120D01*
X244691338Y203821166D01*
X244695062Y203851195D01*
X244700851Y203877678D01*
X244708851Y203902366D01*
X244718583Y203924320D01*
X244730343Y203944628D01*
X244743794Y203962884D01*
X244759183Y203979568D01*
X244795807Y204008242D01*
X244841356Y204031078D01*
X244897539Y204047863D01*
X244946391Y204055844D01*
X244946391Y203970503D01*
X244907628Y203962962D01*
X244875742Y203953785D01*
X244846277Y203941151D01*
X244829929Y203931572D01*
X244815232Y203920125D01*
X244790879Y203891851D01*
X244773633Y203856635D01*
X244764325Y203814749D01*
X244762992Y203790012D01*
X244764221Y203766063D01*
X244767864Y203743304D01*
X244773748Y203722096D01*
X244781843Y203702146D01*
X244804308Y203666348D01*
X244835094Y203635896D01*
X244874385Y203611115D01*
X244922490Y203592735D01*
X244979601Y203581829D01*
X245027040Y203579317D01*
X245062353Y203580546D01*
X245095528Y203584191D01*
X245125494Y203589949D01*
X245153297Y203597843D01*
X245177931Y203607398D01*
X245200416Y203618820D01*
X245219953Y203631522D01*
X245237371Y203645855D01*
X245252159Y203661247D01*
X245264841Y203678080D01*
X245275182Y203695958D01*
X245283383Y203715142D01*
X245293135Y203757160D01*
X245294616Y203782917D01*
X245289813Y203833231D01*
X245284028Y203856111D01*
X245276145Y203876901D01*
X245267048Y203893893D01*
X245256338Y203908241D01*
X245253865Y203910908D01*
X245240023Y203923990D01*
X245224302Y203934888D01*
X245187929Y203950281D01*
X245156427Y203958057D01*
X245156427Y204042505D01*
G37*
G36*
X245357623Y204395190D02*
G01*
X244902305Y204395190D01*
X244864063Y204393851D01*
X244834228Y204389445D01*
X244817225Y204384195D01*
X244802718Y204376935D01*
X244799361Y204374756D01*
X244779226Y204356120D01*
X244765153Y204329914D01*
X244761119Y204314577D01*
X244759460Y204298408D01*
X244759425Y204295658D01*
X244760657Y204277895D01*
X244764324Y204261813D01*
X244769961Y204248240D01*
X244777674Y204236231D01*
X244798638Y204217381D01*
X244827964Y204204685D01*
X244867409Y204198900D01*
X244876559Y204198724D01*
X244918280Y204198724D01*
X244918280Y204114275D01*
X244861477Y204114275D01*
X244837911Y204115503D01*
X244815786Y204119137D01*
X244795660Y204124928D01*
X244777056Y204132866D01*
X244760331Y204142686D01*
X244745215Y204154443D01*
X244720213Y204183301D01*
X244702277Y204219322D01*
X244692077Y204262642D01*
X244690097Y204294766D01*
X244691325Y204319988D01*
X244694957Y204343628D01*
X244700729Y204365056D01*
X244708634Y204384844D01*
X244718362Y204402546D01*
X244729995Y204418550D01*
X244743297Y204432633D01*
X244758330Y204444931D01*
X244793402Y204463952D01*
X244835306Y204475156D01*
X244872139Y204477894D01*
X245357623Y204477894D01*
X245357623Y204395190D01*
G37*
G36*
X245167749Y204773620D02*
G01*
X244709950Y204773620D01*
X244709950Y204851826D01*
X245352660Y204851826D01*
X245352660Y204800296D01*
X245308288Y204786141D01*
X245276729Y204770164D01*
X245264999Y204760488D01*
X245255372Y204749049D01*
X245241557Y204720615D01*
X245230532Y204673738D01*
X245224668Y204634035D01*
X245167749Y204634035D01*
X245167749Y204773620D01*
G37*
G36*
X245167749Y205267440D02*
G01*
X244709950Y205267440D01*
X244709950Y205345646D01*
X245352660Y205345646D01*
X245352660Y205294116D01*
X245308288Y205279961D01*
X245276729Y205263984D01*
X245264999Y205254308D01*
X245255372Y205242869D01*
X245241557Y205214435D01*
X245230532Y205167558D01*
X245224668Y205127855D01*
X245167749Y205127855D01*
X245167749Y205267440D01*
G37*
G36*
X220615594Y181721961D02*
G01*
X220644863Y181718319D01*
X220672657Y181712390D01*
X220699145Y181704221D01*
X220724144Y181693938D01*
X220747726Y181681570D01*
X220769807Y181667204D01*
X220790352Y181650891D01*
X220826697Y181612561D01*
X220856306Y181566853D01*
X220878573Y181514001D01*
X220892754Y181454285D01*
X220898014Y181388081D01*
X220898028Y181384464D01*
X220896799Y181350308D01*
X220893160Y181317527D01*
X220887250Y181286486D01*
X220879115Y181256954D01*
X220868949Y181229306D01*
X220856743Y181203286D01*
X220842736Y181179238D01*
X220826867Y181156930D01*
X220809391Y181136639D01*
X220790218Y181118196D01*
X220769579Y181101792D01*
X220747392Y181087348D01*
X220723819Y181074979D01*
X220698833Y181064691D01*
X220672494Y181056554D01*
X220644864Y181050637D01*
X220615890Y181047000D01*
X220585739Y181045739D01*
X220585125Y181045738D01*
X220552910Y181046993D01*
X220522499Y181050811D01*
X220495429Y181056757D01*
X220469305Y181065071D01*
X220418955Y181088921D01*
X220415297Y181091065D01*
X220321969Y181013711D01*
X220280171Y181065280D01*
X220363767Y181133677D01*
X220344367Y181156826D01*
X220327290Y181181148D01*
X220312859Y181206051D01*
X220300627Y181232155D01*
X220282780Y181287908D01*
X220273501Y181349958D01*
X220272216Y181385317D01*
X220354849Y181385317D01*
X220356099Y181352002D01*
X220359883Y181320799D01*
X220365716Y181293559D01*
X220373826Y181267872D01*
X220383841Y181244453D01*
X220396050Y181222241D01*
X220425107Y181183307D01*
X220504205Y181247981D01*
X220545111Y181198351D01*
X220479312Y181143409D01*
X220505448Y181132131D01*
X220530069Y181124585D01*
X220574843Y181118815D01*
X220586017Y181118633D01*
X220611244Y181119861D01*
X220635327Y181123493D01*
X220658020Y181129394D01*
X220679457Y181137509D01*
X220699545Y181147745D01*
X220718253Y181160037D01*
X220751456Y181190699D01*
X220778596Y181229316D01*
X220798944Y181275764D01*
X220811541Y181329819D01*
X220815363Y181384464D01*
X220814135Y181415879D01*
X220810508Y181445756D01*
X220804662Y181473604D01*
X220796642Y181499772D01*
X220786723Y181523745D01*
X220774856Y181545920D01*
X220761394Y181565839D01*
X220746197Y181583862D01*
X220729637Y181599648D01*
X220711535Y181613445D01*
X220692193Y181625047D01*
X220671472Y181634554D01*
X220649532Y181641862D01*
X220626351Y181646943D01*
X220585125Y181650257D01*
X220559881Y181649029D01*
X220535764Y181645399D01*
X220512997Y181639493D01*
X220491476Y181631373D01*
X220471286Y181621124D01*
X220452474Y181608819D01*
X220419066Y181578134D01*
X220391763Y181539540D01*
X220371313Y181493220D01*
X220358673Y181439461D01*
X220354849Y181385317D01*
X220272216Y181385317D01*
X220272184Y181386209D01*
X220273412Y181420094D01*
X220277048Y181452616D01*
X220282959Y181483444D01*
X220291092Y181512775D01*
X220301267Y181540273D01*
X220313481Y181566152D01*
X220327512Y181590104D01*
X220343406Y181612324D01*
X220360927Y181632562D01*
X220380143Y181650956D01*
X220400846Y181667332D01*
X220423092Y181681748D01*
X220446736Y181694098D01*
X220471785Y181704362D01*
X220498184Y181712476D01*
X220525860Y181718364D01*
X220554859Y181721967D01*
X220585014Y181723190D01*
X220585125Y181723190D01*
X220615594Y181721961D01*
G37*
G36*
X220014921Y181532114D02*
G01*
X220091383Y181532114D01*
X220091383Y181660105D01*
X220165169Y181660105D01*
X220165169Y181532114D01*
X220228292Y181532114D01*
X220228292Y181471627D01*
X220165169Y181471627D01*
X220165169Y181119525D01*
X220163937Y181104016D01*
X220160280Y181090265D01*
X220154726Y181079044D01*
X220147154Y181069406D01*
X220126397Y181055096D01*
X220096562Y181047034D01*
X220075369Y181045738D01*
X220047904Y181047091D01*
X220016865Y181051596D01*
X220014921Y181051942D01*
X220014921Y181114174D01*
X220050477Y181110607D01*
X220068074Y181111998D01*
X220080101Y181116772D01*
X220085206Y181121934D01*
X220088644Y181129029D01*
X220091383Y181152404D01*
X220091383Y181471627D01*
X220014921Y181471627D01*
X220014921Y181532114D01*
G37*
G36*
X219763552Y181523390D02*
G01*
X219763552Y181065590D01*
X219685346Y181065590D01*
X219685346Y181708301D01*
X219736876Y181708301D01*
X219751031Y181663929D01*
X219767008Y181632370D01*
X219776684Y181620640D01*
X219788123Y181611013D01*
X219816557Y181597198D01*
X219863434Y181586173D01*
X219903137Y181580309D01*
X219903137Y181523390D01*
X219763552Y181523390D01*
G37*
G36*
X223983794Y181456371D02*
G01*
X224013063Y181452729D01*
X224040857Y181446800D01*
X224067345Y181438631D01*
X224092344Y181428348D01*
X224115926Y181415980D01*
X224138007Y181401614D01*
X224158552Y181385301D01*
X224194897Y181346971D01*
X224224506Y181301263D01*
X224246773Y181248411D01*
X224260954Y181188695D01*
X224266214Y181122491D01*
X224266228Y181118874D01*
X224264999Y181084718D01*
X224261360Y181051937D01*
X224255450Y181020896D01*
X224247315Y180991364D01*
X224237149Y180963716D01*
X224224943Y180937696D01*
X224210936Y180913648D01*
X224195067Y180891340D01*
X224177591Y180871049D01*
X224158418Y180852606D01*
X224137779Y180836202D01*
X224115592Y180821758D01*
X224092019Y180809389D01*
X224067033Y180799101D01*
X224040694Y180790964D01*
X224013064Y180785047D01*
X223984090Y180781410D01*
X223953939Y180780149D01*
X223953325Y180780148D01*
X223921110Y180781403D01*
X223890699Y180785221D01*
X223863629Y180791167D01*
X223837505Y180799481D01*
X223787155Y180823331D01*
X223783497Y180825475D01*
X223690169Y180748121D01*
X223648371Y180799690D01*
X223731967Y180868087D01*
X223712567Y180891236D01*
X223695490Y180915558D01*
X223681059Y180940461D01*
X223668827Y180966565D01*
X223650980Y181022318D01*
X223641701Y181084368D01*
X223640416Y181119727D01*
X223723049Y181119727D01*
X223724299Y181086412D01*
X223728083Y181055209D01*
X223733916Y181027969D01*
X223742026Y181002282D01*
X223752041Y180978863D01*
X223764250Y180956651D01*
X223793307Y180917717D01*
X223872405Y180982391D01*
X223913311Y180932761D01*
X223847512Y180877819D01*
X223873648Y180866541D01*
X223898269Y180858995D01*
X223943043Y180853225D01*
X223954217Y180853043D01*
X223979444Y180854271D01*
X224003527Y180857903D01*
X224026220Y180863804D01*
X224047657Y180871919D01*
X224067745Y180882155D01*
X224086453Y180894447D01*
X224119656Y180925109D01*
X224146796Y180963726D01*
X224167144Y181010174D01*
X224179741Y181064229D01*
X224183563Y181118874D01*
X224182335Y181150289D01*
X224178708Y181180166D01*
X224172862Y181208014D01*
X224164842Y181234182D01*
X224154923Y181258155D01*
X224143056Y181280330D01*
X224129594Y181300249D01*
X224114397Y181318272D01*
X224097837Y181334058D01*
X224079735Y181347855D01*
X224060393Y181359457D01*
X224039672Y181368964D01*
X224017732Y181376272D01*
X223994551Y181381353D01*
X223953325Y181384667D01*
X223928081Y181383439D01*
X223903964Y181379809D01*
X223881197Y181373903D01*
X223859676Y181365783D01*
X223839486Y181355534D01*
X223820674Y181343229D01*
X223787266Y181312544D01*
X223759963Y181273950D01*
X223739513Y181227630D01*
X223726873Y181173871D01*
X223723049Y181119727D01*
X223640416Y181119727D01*
X223640384Y181120619D01*
X223641612Y181154504D01*
X223645248Y181187026D01*
X223651159Y181217854D01*
X223659292Y181247185D01*
X223669467Y181274683D01*
X223681681Y181300562D01*
X223695712Y181324514D01*
X223711606Y181346734D01*
X223729127Y181366972D01*
X223748343Y181385366D01*
X223769046Y181401742D01*
X223791292Y181416158D01*
X223814936Y181428508D01*
X223839985Y181438772D01*
X223866384Y181446886D01*
X223894060Y181452774D01*
X223923059Y181456377D01*
X223953214Y181457600D01*
X223953325Y181457600D01*
X223983794Y181456371D01*
G37*
G36*
X223383121Y181266524D02*
G01*
X223459583Y181266524D01*
X223459583Y181394515D01*
X223533369Y181394515D01*
X223533369Y181266524D01*
X223596492Y181266524D01*
X223596492Y181206037D01*
X223533369Y181206037D01*
X223533369Y180853935D01*
X223532137Y180838426D01*
X223528480Y180824675D01*
X223522926Y180813454D01*
X223515354Y180803816D01*
X223494597Y180789506D01*
X223464762Y180781444D01*
X223443569Y180780148D01*
X223416104Y180781501D01*
X223385065Y180786006D01*
X223383121Y180786352D01*
X223383121Y180848584D01*
X223418677Y180845017D01*
X223436274Y180846408D01*
X223448301Y180851182D01*
X223453406Y180856344D01*
X223456844Y180863439D01*
X223459583Y180886814D01*
X223459583Y181206037D01*
X223383121Y181206037D01*
X223383121Y181266524D01*
G37*
G36*
X222912178Y180876423D02*
G01*
X223243769Y180876423D01*
X223239400Y180896880D01*
X223232429Y180915709D01*
X223223837Y180931277D01*
X223212648Y180946273D01*
X223180356Y180976629D01*
X223129969Y181010890D01*
X223041100Y181060791D01*
X223014097Y181077233D01*
X222990095Y181094829D01*
X222970182Y181112503D01*
X222952987Y181131164D01*
X222939122Y181149880D01*
X222927766Y181169456D01*
X222919152Y181189271D01*
X222912931Y181209861D01*
X222907728Y181252975D01*
X222907719Y181254931D01*
X222912566Y181298456D01*
X222918576Y181319364D01*
X222926857Y181339271D01*
X222937314Y181357973D01*
X222949859Y181375287D01*
X222966422Y181392926D01*
X222983484Y181406678D01*
X223001784Y181418159D01*
X223041453Y181434172D01*
X223087823Y181441957D01*
X223109535Y181442711D01*
X223137577Y181441473D01*
X223163788Y181437773D01*
X223186915Y181432004D01*
X223208312Y181424052D01*
X223227178Y181414387D01*
X223244381Y181402741D01*
X223259564Y181389448D01*
X223273090Y181374288D01*
X223283783Y181359115D01*
X223294216Y181340898D01*
X223302553Y181320983D01*
X223313327Y181274957D01*
X223317555Y181220189D01*
X223239310Y181220189D01*
X223235711Y181258105D01*
X223229767Y181287247D01*
X223220660Y181311036D01*
X223201137Y181338035D01*
X223174409Y181358481D01*
X223158741Y181365801D01*
X223141897Y181370923D01*
X223112211Y181374237D01*
X223093572Y181373020D01*
X223075940Y181369468D01*
X223059263Y181363637D01*
X223043934Y181355711D01*
X223030018Y181345760D01*
X223017794Y181333991D01*
X223007445Y181320587D01*
X222999104Y181305680D01*
X222992989Y181289609D01*
X222989152Y181272367D01*
X222987747Y181253147D01*
X222988984Y181235064D01*
X222992674Y181217635D01*
X223007129Y181185244D01*
X223031374Y181155598D01*
X223066468Y181128810D01*
X223073088Y181124884D01*
X223154861Y181076805D01*
X223195388Y181051984D01*
X223229500Y181027500D01*
X223252156Y181007969D01*
X223271412Y180987779D01*
X223286025Y180968754D01*
X223298274Y180948611D01*
X223316121Y180904815D01*
X223327391Y180850305D01*
X223331785Y180800000D01*
X222912178Y180800000D01*
X222912178Y180876423D01*
G37*
D11*
X203080857Y201983181D02*
X203414190Y202459372D01*
X203652285Y201983181D02*
X203652285Y202983181D01*
X203652285Y202983181D02*
X203271333Y202983181D01*
X203271333Y202983181D02*
X203176095Y202935562D01*
X203176095Y202935562D02*
X203128476Y202887943D01*
X203128476Y202887943D02*
X203080857Y202792705D01*
X203080857Y202792705D02*
X203080857Y202649848D01*
X203080857Y202649848D02*
X203128476Y202554610D01*
X203128476Y202554610D02*
X203176095Y202506991D01*
X203176095Y202506991D02*
X203271333Y202459372D01*
X203271333Y202459372D02*
X203652285Y202459372D01*
X202128476Y201983181D02*
X202699904Y201983181D01*
X202414190Y201983181D02*
X202414190Y202983181D01*
X202414190Y202983181D02*
X202509428Y202840324D01*
X202509428Y202840324D02*
X202604666Y202745086D01*
X202604666Y202745086D02*
X202699904Y202697467D01*
X201271333Y202983181D02*
X201461809Y202983181D01*
X201461809Y202983181D02*
X201557047Y202935562D01*
X201557047Y202935562D02*
X201604666Y202887943D01*
X201604666Y202887943D02*
X201699904Y202745086D01*
X201699904Y202745086D02*
X201747523Y202554610D01*
X201747523Y202554610D02*
X201747523Y202173658D01*
X201747523Y202173658D02*
X201699904Y202078420D01*
X201699904Y202078420D02*
X201652285Y202030800D01*
X201652285Y202030800D02*
X201557047Y201983181D01*
X201557047Y201983181D02*
X201366571Y201983181D01*
X201366571Y201983181D02*
X201271333Y202030800D01*
X201271333Y202030800D02*
X201223714Y202078420D01*
X201223714Y202078420D02*
X201176095Y202173658D01*
X201176095Y202173658D02*
X201176095Y202411753D01*
X201176095Y202411753D02*
X201223714Y202506991D01*
X201223714Y202506991D02*
X201271333Y202554610D01*
X201271333Y202554610D02*
X201366571Y202602229D01*
X201366571Y202602229D02*
X201557047Y202602229D01*
X201557047Y202602229D02*
X201652285Y202554610D01*
X201652285Y202554610D02*
X201699904Y202506991D01*
X201699904Y202506991D02*
X201747523Y202411753D01*
X214256857Y160963181D02*
X214590190Y161439372D01*
X214828285Y160963181D02*
X214828285Y161963181D01*
X214828285Y161963181D02*
X214447333Y161963181D01*
X214447333Y161963181D02*
X214352095Y161915562D01*
X214352095Y161915562D02*
X214304476Y161867943D01*
X214304476Y161867943D02*
X214256857Y161772705D01*
X214256857Y161772705D02*
X214256857Y161629848D01*
X214256857Y161629848D02*
X214304476Y161534610D01*
X214304476Y161534610D02*
X214352095Y161486991D01*
X214352095Y161486991D02*
X214447333Y161439372D01*
X214447333Y161439372D02*
X214828285Y161439372D01*
X213304476Y160963181D02*
X213875904Y160963181D01*
X213590190Y160963181D02*
X213590190Y161963181D01*
X213590190Y161963181D02*
X213685428Y161820324D01*
X213685428Y161820324D02*
X213780666Y161725086D01*
X213780666Y161725086D02*
X213875904Y161677467D01*
X212971142Y161963181D02*
X212304476Y161963181D01*
X212304476Y161963181D02*
X212733047Y160963181D01*
D12*
G36*
X246270198Y192657102D02*
G01*
X246271995Y192697796D01*
X246279612Y192726979D01*
X246287064Y192743916D01*
X246297597Y192763128D01*
X246310035Y192780612D01*
X246340014Y192809942D01*
X246377370Y192832516D01*
X246423035Y192848303D01*
X246478272Y192856613D01*
X246507531Y192857600D01*
X246538740Y192856372D01*
X246568016Y192852735D01*
X246594473Y192846981D01*
X246618953Y192839100D01*
X246640663Y192829524D01*
X246660379Y192818084D01*
X246677518Y192805276D01*
X246692654Y192790831D01*
X246705458Y192775168D01*
X246716223Y192758043D01*
X246724827Y192739655D01*
X246731303Y192719929D01*
X246737646Y192676319D01*
X246737807Y192667726D01*
X246736564Y192645057D01*
X246732830Y192624114D01*
X246727079Y192606092D01*
X246719134Y192589560D01*
X246709343Y192574964D01*
X246697480Y192561749D01*
X246667175Y192539240D01*
X246626263Y192521597D01*
X246610668Y192517091D01*
X246449758Y192474556D01*
X246418748Y192465280D01*
X246392659Y192454653D01*
X246374072Y192444378D01*
X246358916Y192432979D01*
X246348193Y192421785D01*
X246340076Y192409603D01*
X246331575Y192383454D01*
X246330646Y192369984D01*
X246335352Y192339323D01*
X246349643Y192308995D01*
X246359971Y192295609D01*
X246372039Y192284142D01*
X246376864Y192280494D01*
X246405534Y192265814D01*
X246446937Y192256102D01*
X246495976Y192253043D01*
X246527684Y192254297D01*
X246556042Y192258116D01*
X246578399Y192263671D01*
X246598421Y192271339D01*
X246614985Y192280368D01*
X246629755Y192291300D01*
X246645332Y192307093D01*
X246657372Y192323258D01*
X246666703Y192340221D01*
X246677123Y192374946D01*
X246679104Y192406315D01*
X246757349Y192406315D01*
X246755597Y192373911D01*
X246751275Y192345376D01*
X246745341Y192323235D01*
X246737262Y192302959D01*
X246719118Y192272507D01*
X246705037Y192255199D01*
X246689213Y192239671D01*
X246652366Y192213909D01*
X246607914Y192195045D01*
X246554857Y192183500D01*
X246501327Y192180148D01*
X246466932Y192181377D01*
X246434678Y192185011D01*
X246405667Y192190743D01*
X246378938Y192198587D01*
X246355682Y192207979D01*
X246334749Y192219174D01*
X246319091Y192229895D01*
X246290271Y192258936D01*
X246267216Y192295906D01*
X246258674Y192316542D01*
X246252518Y192337934D01*
X246247942Y192377971D01*
X246249174Y192399239D01*
X246252835Y192419385D01*
X246258719Y192437958D01*
X246266829Y192455342D01*
X246289393Y192486172D01*
X246320649Y192511930D01*
X246361178Y192532181D01*
X246385743Y192540122D01*
X246548437Y192583548D01*
X246581939Y192593993D01*
X246608457Y192605480D01*
X246624119Y192615120D01*
X246636331Y192625853D01*
X246644338Y192636281D01*
X246650027Y192647849D01*
X246655029Y192674952D01*
X246655103Y192679242D01*
X246653879Y192695396D01*
X246650277Y192710522D01*
X246636440Y192737261D01*
X246613909Y192759374D01*
X246582447Y192776150D01*
X246541900Y192786179D01*
X246510206Y192788234D01*
X246482119Y192786999D01*
X246456535Y192783319D01*
X246435033Y192777731D01*
X246415794Y192770087D01*
X246399866Y192761085D01*
X246386006Y192750327D01*
X246374693Y192738383D01*
X246365352Y192724868D01*
X246352779Y192693435D01*
X246348404Y192657102D01*
X246270198Y192657102D01*
G37*
G36*
X245569094Y192200000D02*
G01*
X245404656Y192847674D01*
X245497092Y192847674D01*
X245616204Y192321711D01*
X245763776Y192847674D01*
X245852684Y192847674D01*
X245996728Y192321711D01*
X246118516Y192847674D01*
X246210952Y192847674D01*
X246044729Y192200000D01*
X245954038Y192200000D01*
X245809141Y192732168D01*
X245659786Y192200000D01*
X245569094Y192200000D01*
G37*
G36*
X245161507Y192657800D02*
G01*
X245161507Y192200000D01*
X245083300Y192200000D01*
X245083300Y192842711D01*
X245134831Y192842711D01*
X245148986Y192798339D01*
X245164962Y192766780D01*
X245174639Y192755050D01*
X245186077Y192745423D01*
X245214512Y192731608D01*
X245261388Y192720583D01*
X245301092Y192714719D01*
X245301092Y192657800D01*
X245161507Y192657800D01*
G37*
G36*
X234920198Y163857102D02*
G01*
X234921995Y163897796D01*
X234929612Y163926979D01*
X234937064Y163943916D01*
X234947597Y163963128D01*
X234960035Y163980612D01*
X234990014Y164009942D01*
X235027370Y164032516D01*
X235073035Y164048303D01*
X235128272Y164056613D01*
X235157531Y164057600D01*
X235188740Y164056372D01*
X235218016Y164052735D01*
X235244473Y164046981D01*
X235268953Y164039100D01*
X235290663Y164029524D01*
X235310379Y164018084D01*
X235327518Y164005276D01*
X235342654Y163990831D01*
X235355458Y163975168D01*
X235366223Y163958043D01*
X235374827Y163939655D01*
X235381303Y163919929D01*
X235387646Y163876319D01*
X235387807Y163867726D01*
X235386564Y163845057D01*
X235382830Y163824114D01*
X235377079Y163806092D01*
X235369134Y163789560D01*
X235359343Y163774964D01*
X235347480Y163761749D01*
X235317175Y163739240D01*
X235276263Y163721597D01*
X235260668Y163717091D01*
X235099758Y163674556D01*
X235068748Y163665280D01*
X235042659Y163654653D01*
X235024072Y163644378D01*
X235008916Y163632979D01*
X234998193Y163621785D01*
X234990076Y163609603D01*
X234981575Y163583454D01*
X234980646Y163569984D01*
X234985352Y163539323D01*
X234999643Y163508995D01*
X235009971Y163495609D01*
X235022039Y163484142D01*
X235026864Y163480494D01*
X235055534Y163465814D01*
X235096937Y163456102D01*
X235145976Y163453043D01*
X235177684Y163454297D01*
X235206042Y163458116D01*
X235228399Y163463671D01*
X235248421Y163471339D01*
X235264985Y163480368D01*
X235279755Y163491300D01*
X235295332Y163507093D01*
X235307372Y163523258D01*
X235316703Y163540221D01*
X235327123Y163574946D01*
X235329104Y163606315D01*
X235407349Y163606315D01*
X235405597Y163573911D01*
X235401275Y163545376D01*
X235395341Y163523235D01*
X235387262Y163502959D01*
X235369118Y163472507D01*
X235355037Y163455199D01*
X235339213Y163439671D01*
X235302366Y163413909D01*
X235257914Y163395045D01*
X235204857Y163383500D01*
X235151327Y163380148D01*
X235116932Y163381377D01*
X235084678Y163385011D01*
X235055667Y163390743D01*
X235028938Y163398587D01*
X235005682Y163407979D01*
X234984749Y163419174D01*
X234969091Y163429895D01*
X234940271Y163458936D01*
X234917216Y163495906D01*
X234908674Y163516542D01*
X234902518Y163537934D01*
X234897942Y163577971D01*
X234899174Y163599239D01*
X234902835Y163619385D01*
X234908719Y163637958D01*
X234916829Y163655342D01*
X234939393Y163686172D01*
X234970649Y163711930D01*
X235011178Y163732181D01*
X235035743Y163740122D01*
X235198437Y163783548D01*
X235231939Y163793993D01*
X235258457Y163805480D01*
X235274119Y163815120D01*
X235286331Y163825853D01*
X235294338Y163836281D01*
X235300027Y163847849D01*
X235305029Y163874952D01*
X235305103Y163879242D01*
X235303879Y163895396D01*
X235300277Y163910522D01*
X235286440Y163937261D01*
X235263909Y163959374D01*
X235232447Y163976150D01*
X235191900Y163986179D01*
X235160206Y163988234D01*
X235132119Y163986999D01*
X235106535Y163983319D01*
X235085033Y163977731D01*
X235065794Y163970087D01*
X235049866Y163961085D01*
X235036006Y163950327D01*
X235024693Y163938383D01*
X235015352Y163924868D01*
X235002779Y163893435D01*
X234998404Y163857102D01*
X234920198Y163857102D01*
G37*
G36*
X234219094Y163400000D02*
G01*
X234054656Y164047674D01*
X234147092Y164047674D01*
X234266204Y163521711D01*
X234413776Y164047674D01*
X234502684Y164047674D01*
X234646728Y163521711D01*
X234768516Y164047674D01*
X234860952Y164047674D01*
X234694729Y163400000D01*
X234604038Y163400000D01*
X234459141Y163932168D01*
X234309786Y163400000D01*
X234219094Y163400000D01*
G37*
G36*
X233591932Y163476423D02*
G01*
X233923524Y163476423D01*
X233919155Y163496880D01*
X233912183Y163515709D01*
X233903591Y163531277D01*
X233892402Y163546273D01*
X233860110Y163576629D01*
X233809723Y163610890D01*
X233720854Y163660791D01*
X233693851Y163677233D01*
X233669849Y163694829D01*
X233649937Y163712503D01*
X233632741Y163731164D01*
X233618877Y163749880D01*
X233607520Y163769456D01*
X233598906Y163789271D01*
X233592685Y163809861D01*
X233587482Y163852975D01*
X233587473Y163854931D01*
X233592320Y163898456D01*
X233598330Y163919364D01*
X233606612Y163939271D01*
X233617068Y163957973D01*
X233629613Y163975287D01*
X233646176Y163992926D01*
X233663239Y164006678D01*
X233681538Y164018159D01*
X233721207Y164034172D01*
X233767578Y164041957D01*
X233789289Y164042711D01*
X233817332Y164041473D01*
X233843542Y164037773D01*
X233866669Y164032004D01*
X233888067Y164024052D01*
X233906933Y164014387D01*
X233924135Y164002741D01*
X233939318Y163989448D01*
X233952844Y163974288D01*
X233963538Y163959115D01*
X233973970Y163940898D01*
X233982308Y163920983D01*
X233993081Y163874957D01*
X233997310Y163820189D01*
X233919065Y163820189D01*
X233915465Y163858105D01*
X233909522Y163887247D01*
X233900414Y163911036D01*
X233880891Y163938035D01*
X233854163Y163958481D01*
X233838495Y163965801D01*
X233821651Y163970923D01*
X233791965Y163974237D01*
X233773326Y163973020D01*
X233755694Y163969468D01*
X233739017Y163963637D01*
X233723689Y163955711D01*
X233709773Y163945760D01*
X233697549Y163933991D01*
X233687199Y163920587D01*
X233678858Y163905680D01*
X233672743Y163889609D01*
X233668907Y163872367D01*
X233667502Y163853147D01*
X233668738Y163835064D01*
X233672428Y163817635D01*
X233686884Y163785244D01*
X233711128Y163755598D01*
X233746222Y163728810D01*
X233752842Y163724884D01*
X233834616Y163676805D01*
X233875142Y163651984D01*
X233909254Y163627500D01*
X233931910Y163607969D01*
X233951167Y163587779D01*
X233965779Y163568754D01*
X233978028Y163548611D01*
X233995876Y163504815D01*
X234007146Y163450305D01*
X234011539Y163400000D01*
X233591932Y163400000D01*
X233591932Y163476423D01*
G37*
G36*
X215789801Y184842899D02*
G01*
X215788004Y184802205D01*
X215780387Y184773022D01*
X215772935Y184756085D01*
X215762402Y184736873D01*
X215749964Y184719389D01*
X215719985Y184690059D01*
X215682629Y184667485D01*
X215636964Y184651698D01*
X215581727Y184643388D01*
X215552468Y184642401D01*
X215521259Y184643629D01*
X215491983Y184647266D01*
X215465526Y184653020D01*
X215441046Y184660901D01*
X215419336Y184670477D01*
X215399620Y184681917D01*
X215382481Y184694725D01*
X215367345Y184709170D01*
X215354541Y184724833D01*
X215343776Y184741958D01*
X215335172Y184760346D01*
X215328696Y184780072D01*
X215322353Y184823682D01*
X215322192Y184832275D01*
X215323435Y184854944D01*
X215327169Y184875887D01*
X215332920Y184893909D01*
X215340865Y184910441D01*
X215350656Y184925037D01*
X215362519Y184938252D01*
X215392824Y184960761D01*
X215433736Y184978404D01*
X215449331Y184982910D01*
X215610241Y185025445D01*
X215641251Y185034721D01*
X215667340Y185045348D01*
X215685927Y185055623D01*
X215701083Y185067022D01*
X215711806Y185078216D01*
X215719923Y185090398D01*
X215728424Y185116547D01*
X215729353Y185130017D01*
X215724647Y185160678D01*
X215710356Y185191006D01*
X215700028Y185204392D01*
X215687960Y185215859D01*
X215683135Y185219507D01*
X215654465Y185234187D01*
X215613062Y185243899D01*
X215564023Y185246958D01*
X215532315Y185245704D01*
X215503957Y185241885D01*
X215481600Y185236330D01*
X215461578Y185228662D01*
X215445014Y185219633D01*
X215430244Y185208701D01*
X215414667Y185192908D01*
X215402627Y185176743D01*
X215393296Y185159780D01*
X215382876Y185125055D01*
X215380895Y185093686D01*
X215302650Y185093686D01*
X215304402Y185126090D01*
X215308724Y185154625D01*
X215314658Y185176766D01*
X215322737Y185197042D01*
X215340881Y185227494D01*
X215354962Y185244802D01*
X215370786Y185260330D01*
X215407633Y185286092D01*
X215452085Y185304956D01*
X215505142Y185316501D01*
X215558672Y185319853D01*
X215593067Y185318624D01*
X215625321Y185314990D01*
X215654332Y185309258D01*
X215681061Y185301414D01*
X215704317Y185292022D01*
X215725250Y185280827D01*
X215740908Y185270106D01*
X215769728Y185241065D01*
X215792783Y185204095D01*
X215801325Y185183459D01*
X215807481Y185162067D01*
X215812057Y185122030D01*
X215810825Y185100762D01*
X215807164Y185080616D01*
X215801280Y185062043D01*
X215793170Y185044659D01*
X215770606Y185013829D01*
X215739350Y184988071D01*
X215698821Y184967820D01*
X215674256Y184959879D01*
X215511562Y184916453D01*
X215478060Y184906008D01*
X215451542Y184894521D01*
X215435880Y184884881D01*
X215423668Y184874148D01*
X215415661Y184863720D01*
X215409972Y184852152D01*
X215404970Y184825049D01*
X215404896Y184820759D01*
X215406120Y184804605D01*
X215409722Y184789479D01*
X215423559Y184762740D01*
X215446090Y184740627D01*
X215477552Y184723851D01*
X215518099Y184713822D01*
X215549793Y184711767D01*
X215577880Y184713002D01*
X215603464Y184716682D01*
X215624966Y184722270D01*
X215644205Y184729914D01*
X215660133Y184738916D01*
X215673993Y184749674D01*
X215685306Y184761618D01*
X215694647Y184775133D01*
X215707220Y184806566D01*
X215711595Y184842899D01*
X215789801Y184842899D01*
G37*
G36*
X216490905Y185300000D02*
G01*
X216655343Y184652327D01*
X216562907Y184652327D01*
X216443795Y185178290D01*
X216296223Y184652327D01*
X216207315Y184652327D01*
X216063271Y185178290D01*
X215941483Y184652327D01*
X215849047Y184652327D01*
X216015270Y185300000D01*
X216105961Y185300000D01*
X216250858Y184767833D01*
X216400213Y185300000D01*
X216490905Y185300000D01*
G37*
G36*
X216864720Y185003693D02*
G01*
X216874491Y185003693D01*
X216907371Y185003693D01*
X216932177Y185004931D01*
X216954462Y185008634D01*
X216972607Y185014165D01*
X216988591Y185021730D01*
X217001547Y185030625D01*
X217012573Y185041273D01*
X217028434Y185067015D01*
X217036841Y185100107D01*
X217038038Y185120905D01*
X217036811Y185142376D01*
X217033180Y185162144D01*
X217027506Y185179453D01*
X217019759Y185195050D01*
X217010320Y185208490D01*
X216999056Y185220187D01*
X216971548Y185237990D01*
X216936981Y185248283D01*
X216908263Y185250525D01*
X216884299Y185249278D01*
X216862826Y185245510D01*
X216845625Y185239943D01*
X216830365Y185232283D01*
X216817759Y185223143D01*
X216806814Y185212103D01*
X216789829Y185184283D01*
X216778739Y185146406D01*
X216774921Y185112918D01*
X216696676Y185112918D01*
X216700395Y185148627D01*
X216706222Y185178775D01*
X216713185Y185201706D01*
X216721920Y185222053D01*
X216724244Y185226563D01*
X216735198Y185244636D01*
X216747909Y185260765D01*
X216762035Y185274674D01*
X216777801Y185286719D01*
X216814426Y185305313D01*
X216858958Y185316591D01*
X216904696Y185319853D01*
X216932268Y185318625D01*
X216958287Y185314997D01*
X216982181Y185309192D01*
X217004422Y185301237D01*
X217024526Y185291431D01*
X217042889Y185279705D01*
X217059182Y185266363D01*
X217073645Y185251298D01*
X217086112Y185234719D01*
X217096635Y185216578D01*
X217111592Y185175785D01*
X217117914Y185128975D01*
X217118067Y185120014D01*
X217116806Y185093223D01*
X217112941Y185069225D01*
X217107329Y185050378D01*
X217099548Y185033412D01*
X217090208Y185019101D01*
X217078821Y185006240D01*
X217049379Y184984320D01*
X217011401Y184967285D01*
X217030846Y184958002D01*
X217047866Y184947029D01*
X217061658Y184935169D01*
X217073306Y184921814D01*
X217089843Y184891488D01*
X217098300Y184854879D01*
X217099378Y184834097D01*
X217098148Y184809819D01*
X217094499Y184787098D01*
X217088723Y184766649D01*
X217080797Y184747770D01*
X217071028Y184730890D01*
X217059313Y184715615D01*
X217030475Y184690230D01*
X216994129Y184671613D01*
X216949764Y184660324D01*
X216907371Y184657290D01*
X216879333Y184658528D01*
X216853387Y184662230D01*
X216830923Y184667940D01*
X216810331Y184675798D01*
X216792424Y184685292D01*
X216776246Y184696720D01*
X216749599Y184724661D01*
X216729551Y184760230D01*
X216716112Y184804792D01*
X216710114Y184860199D01*
X216710014Y184864263D01*
X216788259Y184864263D01*
X216790517Y184827115D01*
X216796049Y184799502D01*
X216802489Y184783498D01*
X216819895Y184758848D01*
X216844934Y184740315D01*
X216877186Y184728867D01*
X216908263Y184725764D01*
X216928138Y184726991D01*
X216946291Y184730615D01*
X216961964Y184736248D01*
X216975910Y184743923D01*
X216987720Y184753252D01*
X216997768Y184764368D01*
X217012276Y184791595D01*
X217019041Y184826033D01*
X217019388Y184836773D01*
X217018136Y184857238D01*
X217014338Y184875089D01*
X217008857Y184888698D01*
X217001323Y184900488D01*
X216981055Y184918279D01*
X216968711Y184924673D01*
X216932553Y184933848D01*
X216864720Y184937972D01*
X216864720Y185003693D01*
G37*
D11*
X234654819Y195866667D02*
X234178628Y196200000D01*
X234654819Y196438095D02*
X233654819Y196438095D01*
X233654819Y196438095D02*
X233654819Y196057143D01*
X233654819Y196057143D02*
X233702438Y195961905D01*
X233702438Y195961905D02*
X233750057Y195914286D01*
X233750057Y195914286D02*
X233845295Y195866667D01*
X233845295Y195866667D02*
X233988152Y195866667D01*
X233988152Y195866667D02*
X234083390Y195914286D01*
X234083390Y195914286D02*
X234131009Y195961905D01*
X234131009Y195961905D02*
X234178628Y196057143D01*
X234178628Y196057143D02*
X234178628Y196438095D01*
X233750057Y195485714D02*
X233702438Y195438095D01*
X233702438Y195438095D02*
X233654819Y195342857D01*
X233654819Y195342857D02*
X233654819Y195104762D01*
X233654819Y195104762D02*
X233702438Y195009524D01*
X233702438Y195009524D02*
X233750057Y194961905D01*
X233750057Y194961905D02*
X233845295Y194914286D01*
X233845295Y194914286D02*
X233940533Y194914286D01*
X233940533Y194914286D02*
X234083390Y194961905D01*
X234083390Y194961905D02*
X234654819Y195533333D01*
X234654819Y195533333D02*
X234654819Y194914286D01*
X212924819Y190666667D02*
X212448628Y191000000D01*
X212924819Y191238095D02*
X211924819Y191238095D01*
X211924819Y191238095D02*
X211924819Y190857143D01*
X211924819Y190857143D02*
X211972438Y190761905D01*
X211972438Y190761905D02*
X212020057Y190714286D01*
X212020057Y190714286D02*
X212115295Y190666667D01*
X212115295Y190666667D02*
X212258152Y190666667D01*
X212258152Y190666667D02*
X212353390Y190714286D01*
X212353390Y190714286D02*
X212401009Y190761905D01*
X212401009Y190761905D02*
X212448628Y190857143D01*
X212448628Y190857143D02*
X212448628Y191238095D01*
X211924819Y190333333D02*
X211924819Y189714286D01*
X211924819Y189714286D02*
X212305771Y190047619D01*
X212305771Y190047619D02*
X212305771Y189904762D01*
X212305771Y189904762D02*
X212353390Y189809524D01*
X212353390Y189809524D02*
X212401009Y189761905D01*
X212401009Y189761905D02*
X212496247Y189714286D01*
X212496247Y189714286D02*
X212734342Y189714286D01*
X212734342Y189714286D02*
X212829580Y189761905D01*
X212829580Y189761905D02*
X212877200Y189809524D01*
X212877200Y189809524D02*
X212924819Y189904762D01*
X212924819Y189904762D02*
X212924819Y190190476D01*
X212924819Y190190476D02*
X212877200Y190285714D01*
X212877200Y190285714D02*
X212829580Y190333333D01*
X228674819Y195746667D02*
X228198628Y196080000D01*
X228674819Y196318095D02*
X227674819Y196318095D01*
X227674819Y196318095D02*
X227674819Y195937143D01*
X227674819Y195937143D02*
X227722438Y195841905D01*
X227722438Y195841905D02*
X227770057Y195794286D01*
X227770057Y195794286D02*
X227865295Y195746667D01*
X227865295Y195746667D02*
X228008152Y195746667D01*
X228008152Y195746667D02*
X228103390Y195794286D01*
X228103390Y195794286D02*
X228151009Y195841905D01*
X228151009Y195841905D02*
X228198628Y195937143D01*
X228198628Y195937143D02*
X228198628Y196318095D01*
X228008152Y194889524D02*
X228674819Y194889524D01*
X227627200Y195127619D02*
X228341485Y195365714D01*
X228341485Y195365714D02*
X228341485Y194746667D01*
D12*
G36*
X225881767Y160198758D02*
G01*
X225908297Y160195096D01*
X225932943Y160189207D01*
X225956240Y160181086D01*
X225977876Y160170929D01*
X225998117Y160158689D01*
X226034208Y160128205D01*
X226064551Y160089528D01*
X226088836Y160042269D01*
X226106388Y159985927D01*
X226116220Y159920068D01*
X226117925Y159875727D01*
X226116693Y159837901D01*
X226113036Y159802092D01*
X226107221Y159769343D01*
X226099227Y159738625D01*
X226089461Y159710892D01*
X226077747Y159685183D01*
X226064583Y159662262D01*
X226049676Y159641350D01*
X226033518Y159622963D01*
X226015784Y159606583D01*
X225996842Y159592479D01*
X225976449Y159580413D01*
X225931667Y159562644D01*
X225881152Y159553483D01*
X225853916Y159552317D01*
X225604098Y159552317D01*
X225604098Y159625250D01*
X225686763Y159625250D01*
X225839686Y159625250D01*
X225865424Y159626489D01*
X225889406Y159630194D01*
X225910479Y159635963D01*
X225929953Y159643919D01*
X225947236Y159653669D01*
X225963005Y159665437D01*
X225989791Y159694750D01*
X226010856Y159732777D01*
X226025973Y159781134D01*
X226034193Y159841872D01*
X226035259Y159876619D01*
X226034022Y159913755D01*
X226030323Y159947995D01*
X226024667Y159977329D01*
X226016899Y160004101D01*
X226007714Y160026857D01*
X225996702Y160047330D01*
X225984562Y160064647D01*
X225970798Y160079877D01*
X225955884Y160092659D01*
X225939459Y160103447D01*
X225902152Y160118984D01*
X225857705Y160126501D01*
X225839686Y160127096D01*
X225686763Y160127096D01*
X225686763Y159625250D01*
X225604098Y159625250D01*
X225604098Y160199990D01*
X225853916Y160199990D01*
X225881767Y160198758D01*
G37*
G36*
X226396706Y159742191D02*
G01*
X226396706Y160199990D01*
X226474913Y160199990D01*
X226474913Y159557280D01*
X226423383Y159557280D01*
X226409227Y159601652D01*
X226393251Y159633211D01*
X226383575Y159644941D01*
X226372136Y159654568D01*
X226343702Y159668383D01*
X226296825Y159679408D01*
X226257122Y159685272D01*
X226257122Y159742191D01*
X226396706Y159742191D01*
G37*
G36*
X219256767Y160198758D02*
G01*
X219283297Y160195096D01*
X219307943Y160189207D01*
X219331240Y160181086D01*
X219352876Y160170929D01*
X219373117Y160158689D01*
X219409208Y160128205D01*
X219439551Y160089528D01*
X219463836Y160042269D01*
X219481388Y159985927D01*
X219491220Y159920068D01*
X219492925Y159875727D01*
X219491693Y159837901D01*
X219488036Y159802092D01*
X219482221Y159769343D01*
X219474227Y159738625D01*
X219464461Y159710892D01*
X219452747Y159685183D01*
X219439583Y159662262D01*
X219424676Y159641350D01*
X219408518Y159622963D01*
X219390784Y159606583D01*
X219371842Y159592479D01*
X219351449Y159580413D01*
X219306667Y159562644D01*
X219256152Y159553483D01*
X219228916Y159552317D01*
X218979098Y159552317D01*
X218979098Y159625250D01*
X219061763Y159625250D01*
X219214686Y159625250D01*
X219240424Y159626489D01*
X219264406Y159630194D01*
X219285479Y159635963D01*
X219304953Y159643919D01*
X219322236Y159653669D01*
X219338005Y159665437D01*
X219364791Y159694750D01*
X219385856Y159732777D01*
X219400973Y159781134D01*
X219409193Y159841872D01*
X219410259Y159876619D01*
X219409022Y159913755D01*
X219405323Y159947995D01*
X219399667Y159977329D01*
X219391899Y160004101D01*
X219382714Y160026857D01*
X219371702Y160047330D01*
X219359562Y160064647D01*
X219345798Y160079877D01*
X219330884Y160092659D01*
X219314459Y160103447D01*
X219277152Y160118984D01*
X219232705Y160126501D01*
X219214686Y160127096D01*
X219061763Y160127096D01*
X219061763Y159625250D01*
X218979098Y159625250D01*
X218979098Y160199990D01*
X219228916Y160199990D01*
X219256767Y160198758D01*
G37*
G36*
X219991281Y160123568D02*
G01*
X219659690Y160123568D01*
X219664059Y160103111D01*
X219671030Y160084282D01*
X219679622Y160068714D01*
X219690811Y160053718D01*
X219723103Y160023362D01*
X219773490Y159989101D01*
X219862359Y159939200D01*
X219889362Y159922758D01*
X219913364Y159905162D01*
X219933277Y159887488D01*
X219950472Y159868827D01*
X219964337Y159850111D01*
X219975693Y159830535D01*
X219984307Y159810720D01*
X219990528Y159790130D01*
X219995731Y159747016D01*
X219995740Y159745060D01*
X219990893Y159701535D01*
X219984883Y159680627D01*
X219976602Y159660720D01*
X219966145Y159642018D01*
X219953600Y159624704D01*
X219937037Y159607065D01*
X219919975Y159593313D01*
X219901675Y159581832D01*
X219862006Y159565819D01*
X219815636Y159558034D01*
X219793924Y159557280D01*
X219765882Y159558518D01*
X219739671Y159562218D01*
X219716544Y159567987D01*
X219695147Y159575939D01*
X219676281Y159585604D01*
X219659078Y159597250D01*
X219643895Y159610543D01*
X219630369Y159625703D01*
X219619675Y159640876D01*
X219609243Y159659093D01*
X219600906Y159679008D01*
X219590132Y159725034D01*
X219585904Y159779802D01*
X219664149Y159779802D01*
X219667748Y159741886D01*
X219673691Y159712744D01*
X219682799Y159688955D01*
X219702322Y159661956D01*
X219729050Y159641510D01*
X219744718Y159634190D01*
X219761562Y159629068D01*
X219791248Y159625754D01*
X219809887Y159626971D01*
X219827519Y159630523D01*
X219844196Y159636354D01*
X219859524Y159644280D01*
X219873441Y159654231D01*
X219885665Y159666000D01*
X219896014Y159679404D01*
X219904355Y159694311D01*
X219910470Y159710382D01*
X219914306Y159727624D01*
X219915711Y159746844D01*
X219914475Y159764927D01*
X219910785Y159782356D01*
X219896330Y159814747D01*
X219872085Y159844393D01*
X219836991Y159871181D01*
X219830371Y159875107D01*
X219748597Y159923186D01*
X219708071Y159948007D01*
X219673959Y159972491D01*
X219651303Y159992022D01*
X219632047Y160012212D01*
X219617434Y160031237D01*
X219605185Y160051380D01*
X219587338Y160095176D01*
X219576068Y160149686D01*
X219571674Y160199990D01*
X219991281Y160199990D01*
X219991281Y160123568D01*
G37*
D11*
X205814819Y190666667D02*
X205338628Y191000000D01*
X205814819Y191238095D02*
X204814819Y191238095D01*
X204814819Y191238095D02*
X204814819Y190857143D01*
X204814819Y190857143D02*
X204862438Y190761905D01*
X204862438Y190761905D02*
X204910057Y190714286D01*
X204910057Y190714286D02*
X205005295Y190666667D01*
X205005295Y190666667D02*
X205148152Y190666667D01*
X205148152Y190666667D02*
X205243390Y190714286D01*
X205243390Y190714286D02*
X205291009Y190761905D01*
X205291009Y190761905D02*
X205338628Y190857143D01*
X205338628Y190857143D02*
X205338628Y191238095D01*
X205814819Y189714286D02*
X205814819Y190285714D01*
X205814819Y190000000D02*
X204814819Y190000000D01*
X204814819Y190000000D02*
X204957676Y190095238D01*
X204957676Y190095238D02*
X205052914Y190190476D01*
X205052914Y190190476D02*
X205100533Y190285714D01*
%TO.C,D5*%
D13*
X206270330Y169773417D02*
X210159417Y165884330D01*
X206270330Y169773417D02*
X201320583Y164823670D01*
X210159417Y165884330D02*
X205527868Y161252781D01*
X208285584Y166626792D02*
X207012792Y167899584D01*
X204467208Y162808416D02*
X203194416Y164081208D01*
X205527868Y161252781D02*
X204891472Y161252781D01*
X204891472Y161252781D02*
X201320583Y164823670D01*
%TO.C,D4*%
X249880000Y199600000D02*
X249880000Y194100000D01*
X249880000Y199600000D02*
X242880000Y199600000D01*
X249880000Y194100000D02*
X243330000Y194100000D01*
X249080000Y195950000D02*
X249080000Y197750000D01*
X243680000Y195950000D02*
X243680000Y197750000D01*
X243330000Y194100000D02*
X242880000Y194550000D01*
X242880000Y194550000D02*
X242880000Y199600000D01*
%TO.C,D3*%
X209240000Y199600000D02*
X209240000Y194100000D01*
X209240000Y199600000D02*
X202240000Y199600000D01*
X209240000Y194100000D02*
X202690000Y194100000D01*
X208440000Y195950000D02*
X208440000Y197750000D01*
X203040000Y195950000D02*
X203040000Y197750000D01*
X202690000Y194100000D02*
X202240000Y194550000D01*
X202240000Y194550000D02*
X202240000Y199600000D01*
%TO.C,C20*%
X208680164Y200512000D02*
X208895836Y200512000D01*
X208680164Y199792000D02*
X208895836Y199792000D01*
%TO.C,C23*%
X248812164Y200766000D02*
X249027836Y200766000D01*
X248812164Y200046000D02*
X249027836Y200046000D01*
%TO.C,C25*%
X206239399Y170170282D02*
X206086896Y170017779D01*
X205730282Y170679399D02*
X205577779Y170526896D01*
%TO.C,Qt1*%
D14*
X217200000Y180399990D02*
X215800000Y180399990D01*
%TO.C,Qt2*%
X223800000Y180399990D02*
X222400000Y180399990D01*
%TO.C,R16*%
D13*
X203734936Y201649000D02*
X204189064Y201649000D01*
X203734936Y200179000D02*
X204189064Y200179000D01*
%TO.C,R17*%
X213386936Y163803000D02*
X213841064Y163803000D01*
X213386936Y162333000D02*
X213841064Y162333000D01*
%TO.C,SW1*%
D15*
X238600000Y191100000D02*
X236100000Y191100000D01*
D10*
X237500000Y187200000D02*
X237500000Y191200000D01*
%TO.C,SW2*%
D15*
X239325000Y160350000D02*
X236825000Y160350000D01*
D10*
X237925000Y160250000D02*
X237925000Y163800000D01*
%TO.C,SW3*%
D15*
X225760000Y186700000D02*
X223260000Y186700000D01*
D10*
X224360000Y186600000D02*
X224360000Y190600000D01*
%TO.C,R2*%
D13*
X231675000Y195807064D02*
X231675000Y195352936D01*
X233145000Y195807064D02*
X233145000Y195352936D01*
%TO.C,R3*%
X211555000Y190272936D02*
X211555000Y190727064D01*
X210085000Y190272936D02*
X210085000Y190727064D01*
%TO.C,R4*%
X229135000Y195807064D02*
X229135000Y195352936D01*
X230605000Y195807064D02*
X230605000Y195352936D01*
%TO.C,D1*%
D14*
X226025000Y160600000D02*
X227425000Y160600000D01*
%TO.C,D2*%
X219400000Y160600000D02*
X220800000Y160600000D01*
%TO.C,R1*%
D13*
X206275000Y190727064D02*
X206275000Y190272936D01*
X207745000Y190727064D02*
X207745000Y190272936D01*
%TD*%
%LPC*%
D16*
%TO.C,SW1*%
G36*
X244600000Y191300000D02*
G01*
X244600000Y191300000D01*
G75*
G02*
X244900000Y191000000I30J-300045D01*
G01*
X244900000Y187400000D01*
G75*
G02*
X244600000Y187100000I-299970J-45D01*
G01*
X237800000Y187100000D01*
G75*
G02*
X237500000Y187400000I30J299955D01*
G01*
X237500000Y191000000D01*
G75*
G02*
X237800000Y191300000I300030J-45D01*
G01*
X244600000Y191300000D01*
G37*
%TO.C,SW2*%
G36*
X237625000Y164350000D02*
G01*
X237625000Y164350000D01*
G75*
G02*
X237925000Y164050000I30J-300045D01*
G01*
X237925000Y160450000D01*
G75*
G02*
X237625000Y160150000I-299970J-45D01*
G01*
X230825000Y160150000D01*
G75*
G02*
X230525000Y160450000I30J299955D01*
G01*
X230525000Y164050000D01*
G75*
G02*
X230825000Y164350000I300030J-45D01*
G01*
X237625000Y164350000D01*
G37*
%TO.C,SW3*%
G36*
X224060000Y190700000D02*
G01*
X224060000Y190700000D01*
G75*
G02*
X224360000Y190400000I30J-300045D01*
G01*
X224360000Y186800000D01*
G75*
G02*
X224060000Y186500000I-299970J-45D01*
G01*
X217260000Y186500000D01*
G75*
G02*
X216960000Y186800000I30J299955D01*
G01*
X216960000Y190400000D01*
G75*
G02*
X217260000Y190700000I300030J-45D01*
G01*
X224060000Y190700000D01*
G37*
%TD*%
D17*
%TO.C,D5*%
X206305685Y168253138D03*
X208639138Y165919685D03*
X205174315Y162454862D03*
X202840862Y164788315D03*
%TD*%
D18*
%TO.C,D4*%
X248830000Y198500000D03*
X248830000Y195200000D03*
X243930000Y195200000D03*
X243930000Y198500000D03*
%TD*%
%TO.C,D3*%
X208190000Y198500000D03*
X208190000Y195200000D03*
X203290000Y195200000D03*
X203290000Y198500000D03*
%TD*%
D19*
%TO.C,C20*%
X209268000Y200152000D03*
X208308000Y200152000D03*
%TD*%
%TO.C,C23*%
X249400000Y200406000D03*
X248440000Y200406000D03*
%TD*%
D20*
%TO.C,C25*%
X205569178Y170009178D03*
X206248000Y170688000D03*
%TD*%
D21*
%TO.C,CJ1*%
X243011390Y205451340D03*
%TD*%
%TO.C,CJ2*%
X239011390Y205451340D03*
%TD*%
%TO.C,CJ3*%
X235011390Y205451340D03*
%TD*%
%TO.C,CJ4*%
X231011390Y205451340D03*
%TD*%
%TO.C,CJ5*%
X227011390Y205451340D03*
%TD*%
%TO.C,CJ6*%
X223011390Y205451340D03*
%TD*%
%TO.C,CJ7*%
X219011390Y205451340D03*
%TD*%
%TO.C,CJ8*%
X215011390Y205451340D03*
%TD*%
%TO.C,CJ9*%
X211011390Y205451340D03*
%TD*%
%TO.C,CJ10*%
X207011390Y205451340D03*
%TD*%
%TO.C,CJ11*%
X247011390Y205451340D03*
%TD*%
D22*
%TO.C,Qt1*%
X216497600Y179199990D03*
X220102400Y179199990D03*
%TD*%
%TO.C,Qt2*%
X223097610Y179199990D03*
X226702400Y179199990D03*
%TD*%
D23*
%TO.C,R16*%
X204874500Y200914000D03*
X203049500Y200914000D03*
%TD*%
%TO.C,R17*%
X214526500Y163068000D03*
X212701500Y163068000D03*
%TD*%
D24*
%TO.C,SW1*%
X246400000Y188900000D03*
X236000000Y188900000D03*
D25*
X243200000Y189200000D03*
X239200000Y189200000D03*
%TD*%
D26*
%TO.C,SW2*%
X229150000Y162600000D03*
D27*
X239424990Y162550000D03*
D25*
X232225000Y162250000D03*
X236225000Y162250000D03*
%TD*%
D27*
%TO.C,SW3*%
X215460000Y188900000D03*
X225860000Y188900000D03*
D25*
X218660000Y188600000D03*
X222660000Y188600000D03*
%TD*%
D28*
%TO.C,R2*%
X232410000Y196492500D03*
X232410000Y194667500D03*
%TD*%
D29*
%TO.C,R3*%
X210820000Y191412500D03*
X210820000Y189587500D03*
%TD*%
D28*
%TO.C,R4*%
X229870000Y196492500D03*
X229870000Y194667500D03*
%TD*%
D30*
%TO.C,D1*%
X223122600Y161800000D03*
X226727390Y161800000D03*
%TD*%
%TO.C,D2*%
X216497600Y161800000D03*
X220102390Y161800000D03*
%TD*%
D28*
%TO.C,R1*%
X207010000Y191412500D03*
X207010000Y189587500D03*
%TD*%
D25*
%TO.C,*%
X236338460Y181437390D03*
%TD*%
D31*
%TO.C,MCH.SP.12*%
X249600000Y188600000D03*
%TD*%
%TO.C,MCH.SP.5*%
X210600000Y176600000D03*
%TD*%
D25*
%TO.C,*%
X238622810Y199582840D03*
%TD*%
D31*
%TO.C,MCH.SP.9*%
X249936000Y202946000D03*
%TD*%
D25*
%TO.C,*%
X217623060Y199481310D03*
%TD*%
D31*
%TO.C,MCH.SP.8*%
X207600000Y171600000D03*
%TD*%
%TO.C,MCH.SP.11*%
X200600000Y199600000D03*
%TD*%
%TO.C,MCH.SP.4*%
X200875010Y172600000D03*
%TD*%
%TO.C,MCH.SP.1*%
X204600000Y164600000D03*
%TD*%
%TO.C,MCH.SP.6*%
X240600000Y183600000D03*
%TD*%
%TO.C,MCH.SP.10*%
X200600000Y181600000D03*
%TD*%
%TO.C,MCH.SP.2*%
X200600000Y190600000D03*
%TD*%
D25*
%TO.C,*%
X205438460Y181437390D03*
%TD*%
D31*
%TO.C,MCH.SP.7*%
X229800000Y177600000D03*
%TD*%
%TO.C,MCH.SP.3*%
X235600000Y177600000D03*
%TD*%
%LPD*%
M02*
