M48
; DRILL file KiCad 10.0.5 date 2026-08-15T23:16:26
; FORMAT={-:-/ absolute / inch / decimal}
; #@! TF.CreationDate,2026-08-15T23:16:26-07:00
; #@! TF.GenerationSoftware,Kicad,Pcbnew,10.0.5
; #@! TF.FileFunction,Plated,1,2,PTH
FMAT,2
INCH
; #@! TA.AperFunction,Plated,PTH,ViaDrill
T1C0.0118
; #@! TA.AperFunction,Plated,PTH,ViaDrill
T2C0.0197
; #@! TA.AperFunction,Plated,PTH,ViaDrill
T3C0.0200
; #@! TA.AperFunction,Plated,PTH,ViaDrill
T4C0.0236
; #@! TA.AperFunction,Plated,PTH,ComponentDrill
T5C0.0394
; #@! TA.AperFunction,Plated,PTH,ComponentDrill
T6C0.1654
; #@! TA.AperFunction,Plated,PTH,ComponentDrill
T7C0.2362
%
G90
G05
T1
X8.0371Y6.6551
X8.15Y7.42
X8.15Y7.28
X8.22Y7.63
X8.24Y7.08
X8.571Y7.1496
X8.6102Y6.3858
X8.7283Y6.378
X8.8583Y6.311
X8.8819Y7.7638
X8.9495Y7.0912
X8.9724Y6.311
X9.0197Y6.311
X9.2283Y7.6142
X9.32Y7.64
X9.33Y7.61
X9.3976Y6.4449
X9.3976Y6.3504
X9.41Y7.63
T2
X8.3269Y6.3865
T3
X7.8976Y7.8583
X7.8976Y7.5039
X7.8976Y7.1496
X7.9085Y6.7953
X8.0551Y6.4803
X8.1732Y6.7559
X8.2913Y6.9528
X9.0472Y6.9921
X9.2756Y6.9921
X9.4724Y7.2283
X9.8268Y7.4252
X9.84Y7.99
T4
X8.0354Y8.0157
X8.0472Y7.4764
X8.0591Y7.315
X8.1433Y7.6122
X8.3531Y7.7795
X8.3583Y7.3701
X8.425Y7.527
X8.4488Y7.1181
X8.5472Y7.2283
X8.6162Y7.5467
X8.7126Y7.2953
X8.7304Y7.6748
X8.7658Y7.5469
X8.8622Y7.8583
X8.8819Y7.2874
X9.0787Y7.7795
X9.1969Y7.3268
X9.21Y7.44
X9.2756Y7.6811
X9.374Y7.3189
X9.5692Y7.5626
X9.5906Y7.937
X9.6299Y7.7008
T5
X8.1501Y8.0886
X8.3075Y8.0886
X8.465Y8.0886
X8.6225Y8.0886
X8.78Y8.0886
X8.9375Y8.0886
X9.0949Y8.0886
X9.2524Y8.0886
X9.4099Y8.0886
X9.5674Y8.0886
X9.7249Y8.0886
T6
X8.0881Y7.1432
X9.3047Y7.1432
T7
X8.5678Y7.8536
X9.3946Y7.8576
M30
